<?xml version="1.0" encoding="utf-8"?>
<!-- Generator: Adobe Illustrator 20.0.0, SVG Export Plug-In . SVG Version: 6.00 Build 0)  -->
<svg version="1.1" id="Layer_1" xmlns="http://www.w3.org/2000/svg" xmlns:xlink="http://www.w3.org/1999/xlink" x="0px" y="0px"
	 viewBox="0 0 189 263" style="enable-background:new 0 0 189 263;" xml:space="preserve">
<style type="text/css">
	.st0{fill:#FAE5E5;}
	.st1{enable-background:new    ;}
	.st2{fill:#221F20;}
</style>
<title>Group 26</title>
<desc>Created with Sketch.</desc>
<g id="Page-1">
	<g id="Desktop-Copy-2" transform="translate(-529.000000, -1639.000000)">
		<g id="Group-26" transform="translate(529.000000, 1639.000000)">
			<path id="Rectangle-2-Copy-22" class="st0" d="M8,0h173c4.4,0,8,3.6,8,8v247c0,4.4-3.6,8-8,8H8c-4.4,0-8-3.6-8-8V8
				C0,3.6,3.6,0,8,0z"/>
			<g class="st1">
				<path class="st2" d="M57.6,28.2h-4.4L52.1,31h-1.5l4-9.9h1.6l4,9.9h-1.5L57.6,28.2z M53.7,27h3.4l-1.7-4.5L53.7,27z"/>
				<path class="st2" d="M61.2,31v-6.7h1.3v0.9c0.4-0.7,1.3-1.1,2-1.1c0.8,0,1.7,0.4,2,1.3c0.5-1,1.4-1.3,2.3-1.3
					c1.2,0,2.3,0.8,2.3,2.6V31h-1.3v-4.2c0-0.9-0.4-1.5-1.4-1.5c-0.9,0-1.6,0.7-1.6,1.7V31h-1.3v-4.2c0-0.9-0.4-1.5-1.4-1.5
					c-0.9,0-1.6,0.7-1.6,1.7V31H61.2z"/>
				<path class="st2" d="M74.8,27.1l1.8-0.3c0.4-0.1,0.5-0.3,0.5-0.5c0-0.7-0.4-1.2-1.5-1.2c-0.9,0-1.4,0.6-1.5,1.4l-1.3-0.3
					c0.1-1.3,1.3-2.2,2.8-2.2c2,0,2.8,1.1,2.8,2.5v3.4c0,0.6,0.1,0.9,0.1,1.1h-1.3c0-0.2-0.1-0.4-0.1-0.9c-0.3,0.5-1,1.1-2.2,1.1
					c-1.4,0-2.3-1-2.3-2C72.7,28,73.6,27.3,74.8,27.1z M77.1,28.1v-0.3l-2.1,0.3c-0.6,0.1-1,0.4-1,1c0,0.5,0.4,1,1.1,1
					C76.3,30.1,77.1,29.6,77.1,28.1z"/>
				<path class="st2" d="M80.4,31V20.9h1.3V31H80.4z"/>
				<path class="st2" d="M86.8,26c0-3.3,2.5-5.2,4.9-5.2c2.3,0,3.9,1.2,4.4,3.2l-1.3,0.4c-0.4-1.5-1.5-2.3-3.1-2.3
					c-1.8,0-3.5,1.3-3.5,3.9s1.7,3.9,3.5,3.9c1.7,0,2.8-1,3.2-2.4l1.2,0.4c-0.5,1.9-2.1,3.2-4.4,3.2C89.2,31.2,86.8,29.3,86.8,26z"
					/>
				<path class="st2" d="M97.6,31V20.9h1.3V31H97.6z"/>
				<path class="st2" d="M107.4,27.6c0,2.1-1.4,3.6-3.4,3.6s-3.4-1.5-3.4-3.6c0-2,1.4-3.6,3.4-3.6S107.4,25.6,107.4,27.6z
					 M106.1,27.6c0-1.6-1-2.4-2.1-2.4s-2.1,0.8-2.1,2.4c0,1.6,1,2.4,2.1,2.4S106.1,29.2,106.1,27.6z"/>
				<path class="st2" d="M115.4,27.6c0,2.1-1.4,3.6-3.4,3.6c-2,0-3.4-1.5-3.4-3.6c0-2,1.4-3.6,3.4-3.6
					C114,24.1,115.4,25.6,115.4,27.6z M114,27.6c0-1.6-1-2.4-2.1-2.4c-1.1,0-2.1,0.8-2.1,2.4c0,1.6,1,2.4,2.1,2.4
					C113.1,30,114,29.2,114,27.6z"/>
				<path class="st2" d="M118.3,31H117v-6.7h1.3v1c0.5-0.8,1.3-1.2,2.1-1.2c1.6,0,2.4,1.2,2.4,2.7V31h-1.3v-4c0-0.9-0.4-1.7-1.6-1.7
					c-1,0-1.6,0.8-1.6,1.8V31z"/>
				<path class="st2" d="M130.7,29.1c-0.4,1.2-1.5,2.1-3,2.1c-1.8,0-3.4-1.3-3.4-3.6c0-2.1,1.5-3.6,3.2-3.6c2.1,0,3.2,1.4,3.2,3.5
					c0,0.2,0,0.3,0,0.4h-5.1c0,1.2,0.9,2,2,2c1.1,0,1.6-0.6,1.9-1.4L130.7,29.1z M129.3,26.9c0-1-0.7-1.7-1.8-1.7
					c-1.1,0-1.8,0.9-1.8,1.7H129.3z"/>
				<path class="st2" d="M132.4,33.8l1.7-3.6l-2.9-6h1.5l2.1,4.7l2-4.7h1.4l-4.4,9.6H132.4z"/>
			</g>
			<g id="Group-3-Copy-22" transform="translate(5.500000, 44.000000)">
				<circle id="Oval-2" cx="0.8" cy="0.8" r="0.8"/>
				<circle id="Oval-2-Copy-16" cx="60.7" cy="0.8" r="0.8"/>
				<circle id="Oval-2-Copy-32" cx="120.6" cy="0.8" r="0.8"/>
				<circle id="Oval-2-Copy-8" cx="30.7" cy="0.8" r="0.8"/>
				<circle id="Oval-2-Copy-17" cx="90.6" cy="0.8" r="0.8"/>
				<circle id="Oval-2-Copy-33" cx="150.5" cy="0.8" r="0.8"/>
				<circle id="Oval-2-Copy-4" cx="15.7" cy="0.8" r="0.8"/>
				<circle id="Oval-2-Copy-18" cx="75.6" cy="0.8" r="0.8"/>
				<circle id="Oval-2-Copy-34" cx="135.6" cy="0.8" r="0.8"/>
				<circle id="Oval-2-Copy-9" cx="45.7" cy="0.8" r="0.8"/>
				<circle id="Oval-2-Copy-19" cx="105.6" cy="0.8" r="0.8"/>
				<circle id="Oval-2-Copy-35" cx="165.5" cy="0.8" r="0.8"/>
				<circle id="Oval-2-Copy-2" cx="8.2" cy="0.8" r="0.8"/>
				<circle id="Oval-2-Copy-20" cx="68.2" cy="0.8" r="0.8"/>
				<circle id="Oval-2-Copy-36" cx="128.1" cy="0.8" r="0.8"/>
				<circle id="Oval-2-Copy-10" cx="38.2" cy="0.8" r="0.8"/>
				<circle id="Oval-2-Copy-21" cx="98.1" cy="0.8" r="0.8"/>
				<circle id="Oval-2-Copy-37" cx="158" cy="0.8" r="0.8"/>
				<circle id="Oval-2-Copy-5" cx="23.2" cy="0.8" r="0.8"/>
				<circle id="Oval-2-Copy-22" cx="83.1" cy="0.8" r="0.8"/>
				<circle id="Oval-2-Copy-38" cx="143" cy="0.8" r="0.8"/>
				<circle id="Oval-2-Copy-11" cx="53.2" cy="0.8" r="0.8"/>
				<circle id="Oval-2-Copy-23" cx="113.1" cy="0.8" r="0.8"/>
				<circle id="Oval-2-Copy-39" cx="173" cy="0.8" r="0.8"/>
				<circle id="Oval-2-Copy" cx="4.5" cy="0.8" r="0.8"/>
				<circle id="Oval-2-Copy-24" cx="64.4" cy="0.8" r="0.8"/>
				<circle id="Oval-2-Copy-40" cx="124.3" cy="0.8" r="0.8"/>
				<circle id="Oval-2-Copy-12" cx="34.5" cy="0.8" r="0.8"/>
				<circle id="Oval-2-Copy-25" cx="94.4" cy="0.8" r="0.8"/>
				<circle id="Oval-2-Copy-41" cx="154.3" cy="0.8" r="0.8"/>
				<circle id="Oval-2-Copy-6" cx="19.5" cy="0.8" r="0.8"/>
				<circle id="Oval-2-Copy-26" cx="79.4" cy="0.8" r="0.8"/>
				<circle id="Oval-2-Copy-42" cx="139.3" cy="0.8" r="0.8"/>
				<circle id="Oval-2-Copy-13" cx="49.4" cy="0.8" r="0.8"/>
				<circle id="Oval-2-Copy-27" cx="109.3" cy="0.8" r="0.8"/>
				<circle id="Oval-2-Copy-43" cx="169.3" cy="0.8" r="0.8"/>
				<circle id="Oval-2-Copy-3" cx="12" cy="0.8" r="0.8"/>
				<circle id="Oval-2-Copy-28" cx="71.9" cy="0.8" r="0.8"/>
				<circle id="Oval-2-Copy-44" cx="131.8" cy="0.8" r="0.8"/>
				<circle id="Oval-2-Copy-14" cx="41.9" cy="0.8" r="0.8"/>
				<circle id="Oval-2-Copy-29" cx="101.9" cy="0.8" r="0.8"/>
				<circle id="Oval-2-Copy-45" cx="161.8" cy="0.8" r="0.8"/>
				<circle id="Oval-2-Copy-7" cx="27" cy="0.8" r="0.8"/>
				<circle id="Oval-2-Copy-30" cx="86.9" cy="0.8" r="0.8"/>
				<circle id="Oval-2-Copy-46" cx="146.8" cy="0.8" r="0.8"/>
				<circle id="Oval-2-Copy-15" cx="56.9" cy="0.8" r="0.8"/>
				<circle id="Oval-2-Copy-31" cx="116.8" cy="0.8" r="0.8"/>
				<circle id="Oval-2-Copy-47" cx="176.8" cy="0.8" r="0.8"/>
			</g>
			<g class="st1">
				<path class="st2" d="M15.1,64l-3.4-5.2V64h-0.9v-6.4H12l3.2,4.9v-4.9h0.9V64H15.1z"/>
				<path class="st2" d="M21.6,61.8c0,1.3-0.9,2.3-2.2,2.3s-2.2-1-2.2-2.3c0-1.3,0.9-2.3,2.2-2.3S21.6,60.5,21.6,61.8z M20.7,61.8
					c0-1-0.6-1.5-1.4-1.5S18,60.8,18,61.8c0,1,0.6,1.5,1.4,1.5S20.7,62.8,20.7,61.8z"/>
				<path class="st2" d="M23.7,59.7h0.9v0.8h-0.9v2.3c0,0.4,0.2,0.6,0.6,0.6c0.1,0,0.3,0,0.3,0V64c-0.1,0-0.3,0.1-0.6,0.1
					c-0.7,0-1.2-0.5-1.2-1.2v-2.4h-0.8v-0.8h0.2c0.5,0,0.7-0.3,0.7-0.7v-0.7h0.8V59.7z"/>
				<path class="st2" d="M32,61.8c0,1.3-0.9,2.3-2.2,2.3s-2.2-1-2.2-2.3c0-1.3,0.9-2.3,2.2-2.3S32,60.5,32,61.8z M31.2,61.8
					c0-1-0.6-1.5-1.4-1.5s-1.4,0.5-1.4,1.5c0,1,0.6,1.5,1.4,1.5S31.2,62.8,31.2,61.8z"/>
				<path class="st2" d="M33.9,64h-0.8v-4.3h0.8v0.6c0.3-0.5,0.8-0.7,1.3-0.7c1,0,1.5,0.7,1.5,1.7V64h-0.8v-2.6c0-0.6-0.3-1.1-1-1.1
					c-0.7,0-1,0.5-1,1.2V64z"/>
				<path class="st2" d="M38.1,64v-6.5h0.8V64H38.1z"/>
				<path class="st2" d="M40.5,65.8l1.1-2.3l-1.9-3.9h1l1.4,3l1.3-3h0.9l-2.8,6.1H40.5z"/>
				<path class="st2" d="M47.6,57.4c0.3,0,0.6,0.3,0.6,0.6c0,0.3-0.3,0.6-0.6,0.6c-0.3,0-0.6-0.3-0.6-0.6
					C47,57.7,47.3,57.4,47.6,57.4z M47.2,64v-4.3H48V64H47.2z"/>
				<path class="st2" d="M49.8,62.6c0.1,0.5,0.4,0.8,1,0.8c0.5,0,0.7-0.3,0.7-0.6c0-0.3-0.2-0.5-0.6-0.6l-0.7-0.2
					c-0.7-0.1-1.1-0.6-1.1-1.2c0-0.7,0.7-1.4,1.5-1.4c1.2,0,1.6,0.8,1.6,1.2L51.6,61c0-0.2-0.2-0.7-0.9-0.7c-0.4,0-0.7,0.3-0.7,0.6
					c0,0.3,0.2,0.5,0.5,0.5l0.7,0.2c0.8,0.2,1.2,0.6,1.2,1.3c0,0.6-0.5,1.3-1.6,1.3c-1.2,0-1.7-0.8-1.8-1.3L49.8,62.6z"/>
				<path class="st2" d="M59.5,62.2h-2.8L56,64H55l2.5-6.4h1l2.5,6.4h-1L59.5,62.2z M56.9,61.4h2.2L58,58.5L56.9,61.4z"/>
				<path class="st2" d="M61.8,64v-4.3h0.8v0.6c0.3-0.5,0.8-0.7,1.3-0.7c0.5,0,1.1,0.3,1.3,0.8c0.3-0.6,0.9-0.8,1.4-0.8
					c0.8,0,1.5,0.5,1.5,1.6V64h-0.8v-2.7c0-0.6-0.3-1-0.9-1c-0.6,0-1,0.5-1,1.1V64h-0.8v-2.7c0-0.6-0.3-1-0.9-1c-0.6,0-1,0.5-1,1.1
					V64H61.8z"/>
				<path class="st2" d="M70.5,61.5l1.2-0.2c0.3,0,0.3-0.2,0.3-0.3c0-0.4-0.3-0.8-0.9-0.8c-0.6,0-0.9,0.4-1,0.9l-0.8-0.2
					c0.1-0.8,0.8-1.4,1.8-1.4c1.3,0,1.8,0.7,1.8,1.6v2.2c0,0.4,0,0.6,0.1,0.7h-0.8c0-0.1,0-0.3,0-0.6c-0.2,0.3-0.6,0.7-1.4,0.7
					c-0.9,0-1.4-0.6-1.4-1.3C69.2,62.1,69.8,61.6,70.5,61.5z M72,62.1v-0.2l-1.3,0.2c-0.4,0.1-0.6,0.3-0.6,0.6
					c0,0.3,0.3,0.6,0.7,0.6C71.5,63.4,72,63.1,72,62.1z"/>
				<path class="st2" d="M74.2,64v-6.5H75V64H74.2z"/>
				<path class="st2" d="M78.8,59.7h1.3l0.3-1.5h0.8l-0.3,1.5h1.3l0.3-1.5h0.8l-0.3,1.5h1.2v0.7h-1.4l-0.3,1.4h1.2v0.7h-1.4L81.9,64
					h-0.8l0.3-1.5h-1.3L79.9,64h-0.8l0.3-1.5h-1.1v-0.7h1.3l0.3-1.4h-1.2V59.7z M80.4,61.8h1.3l0.3-1.4h-1.3L80.4,61.8z"/>
				<path class="st2" d="M91.3,64v-5l-2.2,5h-0.8l-2.2-5v5h-0.9v-6.4h1.2l2.3,5.2l2.3-5.2h1.2V64H91.3z"/>
				<path class="st2" d="M96.1,60.5c-0.1,0-0.3,0-0.4,0c-0.7,0-1.2,0.4-1.2,1.3V64h-0.8v-4.3h0.8v0.8c0.3-0.7,0.9-0.8,1.3-0.8
					c0.1,0,0.2,0,0.3,0V60.5z"/>
				<path class="st2" d="M97.3,62.6c0.1,0.5,0.4,0.8,1,0.8c0.5,0,0.7-0.3,0.7-0.6c0-0.3-0.2-0.5-0.6-0.6l-0.7-0.2
					c-0.7-0.1-1.1-0.6-1.1-1.2c0-0.7,0.7-1.4,1.5-1.4c1.2,0,1.6,0.8,1.6,1.2L99.1,61c0-0.2-0.2-0.7-0.9-0.7c-0.4,0-0.7,0.3-0.7,0.6
					c0,0.3,0.2,0.5,0.5,0.5l0.7,0.2c0.8,0.2,1.2,0.6,1.2,1.3c0,0.6-0.5,1.3-1.6,1.3c-1.2,0-1.7-0.8-1.8-1.3L97.3,62.6z"/>
				<path class="st2" d="M105.9,64l-0.1-0.9c-0.3,0.5-1,1-2,1c-1.6,0-3.1-1.2-3.1-3.3c0-2.2,1.6-3.3,3.2-3.3c1.4,0,2.5,0.8,2.8,1.9
					l-0.8,0.3c-0.3-0.9-1-1.5-2-1.5c-1.1,0-2.3,0.8-2.3,2.5s1.1,2.5,2.2,2.5c1.4,0,1.9-1,2-1.7h-2.2v-0.8h3.1V64H105.9z"/>
				<path class="st2" d="M111.6,62.8c-0.2,0.8-0.9,1.4-1.9,1.4c-1.2,0-2.2-0.8-2.2-2.3c0-1.4,1-2.3,2.1-2.3c1.3,0,2.1,0.9,2.1,2.3
					c0,0.1,0,0.2,0,0.3h-3.3c0,0.8,0.6,1.3,1.3,1.3c0.7,0,1.1-0.4,1.2-0.9L111.6,62.8z M110.7,61.4c0-0.6-0.4-1.1-1.2-1.1
					c-0.7,0-1.1,0.5-1.2,1.1H110.7z"/>
				<path class="st2" d="M116.7,61.8c0,1.3-0.9,2.3-2.2,2.3s-2.2-1-2.2-2.3c0-1.3,0.9-2.3,2.2-2.3S116.7,60.5,116.7,61.8z
					 M115.8,61.8c0-1-0.6-1.5-1.4-1.5s-1.4,0.5-1.4,1.5c0,1,0.6,1.5,1.4,1.5S115.8,62.8,115.8,61.8z"/>
				<path class="st2" d="M120.1,60.5c-0.1,0-0.3,0-0.4,0c-0.7,0-1.2,0.4-1.2,1.3V64h-0.8v-4.3h0.8v0.8c0.3-0.7,0.9-0.8,1.3-0.8
					c0.1,0,0.2,0,0.3,0V60.5z"/>
				<path class="st2" d="M121.4,64c0.1,0.6,0.5,1.1,1.2,1.1c0.9,0,1.3-0.5,1.3-1.4v-0.6c-0.2,0.4-0.7,0.7-1.3,0.7
					c-1.2,0-2-0.9-2-2.1c0-1.2,0.8-2.1,2-2.1c0.7,0,1.1,0.3,1.3,0.7v-0.6h0.8v4c0,1.1-0.5,2.2-2.2,2.2c-1.1,0-1.9-0.7-2-1.6
					L121.4,64z M124,61.7c0-0.8-0.5-1.4-1.2-1.4c-0.7,0-1.3,0.5-1.3,1.4c0,0.8,0.5,1.4,1.3,1.4C123.5,63.1,124,62.5,124,61.7z"/>
				<path class="st2" d="M129.9,62.8c-0.2,0.8-0.9,1.4-1.9,1.4c-1.2,0-2.2-0.8-2.2-2.3c0-1.4,1-2.3,2.1-2.3c1.3,0,2.1,0.9,2.1,2.3
					c0,0.1,0,0.2,0,0.3h-3.3c0,0.8,0.6,1.3,1.3,1.3c0.7,0,1.1-0.4,1.2-0.9L129.9,62.8z M129,61.4c0-0.6-0.4-1.1-1.2-1.1
					c-0.7,0-1.1,0.5-1.2,1.1H129z"/>
				<path class="st2" d="M130.6,60.8c0-2.1,1.6-3.3,3.2-3.3c1.5,0,2.5,0.8,2.8,2l-0.8,0.3c-0.2-1-0.9-1.5-2-1.5
					c-1.2,0-2.3,0.8-2.3,2.5c0,1.7,1.1,2.5,2.3,2.5c1.1,0,1.8-0.7,2-1.5l0.8,0.3c-0.3,1.2-1.4,2.1-2.8,2.1
					C132.1,64.1,130.6,62.9,130.6,60.8z"/>
				<path class="st2" d="M137.5,64v-6.5h0.8V64H137.5z"/>
				<path class="st2" d="M143.8,61.8c0,1.3-0.9,2.3-2.2,2.3s-2.2-1-2.2-2.3c0-1.3,0.9-2.3,2.2-2.3S143.8,60.5,143.8,61.8z M143,61.8
					c0-1-0.6-1.5-1.4-1.5s-1.4,0.5-1.4,1.5c0,1,0.6,1.5,1.4,1.5S143,62.8,143,61.8z"/>
				<path class="st2" d="M149,61.8c0,1.3-0.9,2.3-2.2,2.3s-2.2-1-2.2-2.3c0-1.3,0.9-2.3,2.2-2.3S149,60.5,149,61.8z M148.1,61.8
					c0-1-0.6-1.5-1.4-1.5s-1.4,0.5-1.4,1.5c0,1,0.6,1.5,1.4,1.5S148.1,62.8,148.1,61.8z"/>
				<path class="st2" d="M150.8,64H150v-4.3h0.8v0.6c0.3-0.5,0.8-0.7,1.3-0.7c1,0,1.5,0.7,1.5,1.7V64h-0.8v-2.6c0-0.6-0.3-1.1-1-1.1
					c-0.7,0-1,0.5-1,1.2V64z"/>
				<path class="st2" d="M158.8,62.8c-0.2,0.8-0.9,1.4-1.9,1.4c-1.2,0-2.2-0.8-2.2-2.3c0-1.4,1-2.3,2.1-2.3c1.3,0,2.1,0.9,2.1,2.3
					c0,0.1,0,0.2,0,0.3h-3.3c0,0.8,0.6,1.3,1.3,1.3c0.7,0,1.1-0.4,1.2-0.9L158.8,62.8z M157.9,61.4c0-0.6-0.4-1.1-1.2-1.1
					c-0.7,0-1.1,0.5-1.2,1.1H157.9z"/>
				<path class="st2" d="M159.9,65.8l1.1-2.3l-1.9-3.9h1l1.4,3l1.3-3h0.9l-2.8,6.1H159.9z"/>
			</g>
			<g class="st1">
				<path class="st2" d="M12.2,67.9l0.5,0.5c-0.9,1-1.5,2.3-1.5,3.8c0,1.6,0.6,2.8,1.5,3.8l-0.5,0.5c-1-1-1.7-2.3-1.7-4.3
					C10.5,70.2,11.2,68.8,12.2,67.9z"/>
				<path class="st2" d="M17.3,72.8c0,1.3-0.9,2.3-2.2,2.3s-2.2-1-2.2-2.3c0-1.3,0.9-2.3,2.2-2.3S17.3,71.5,17.3,72.8z M16.4,72.8
					c0-1-0.6-1.5-1.4-1.5s-1.4,0.5-1.4,1.5c0,1,0.6,1.5,1.4,1.5S16.4,73.8,16.4,72.8z"/>
				<path class="st2" d="M20.4,72.5l1.9,2.5h-1.1l-1.4-1.9l-0.6,0.6V75h-0.8v-6.5h0.8v4.1l1.9-1.9h1.2L20.4,72.5z"/>
				<path class="st2" d="M23.9,72.5l1.2-0.2c0.3,0,0.3-0.2,0.3-0.3c0-0.4-0.3-0.8-0.9-0.8c-0.6,0-0.9,0.4-1,0.9l-0.8-0.2
					c0.1-0.8,0.8-1.4,1.8-1.4c1.3,0,1.8,0.7,1.8,1.6v2.2c0,0.4,0,0.6,0.1,0.7h-0.8c0-0.1,0-0.3,0-0.6c-0.2,0.3-0.6,0.7-1.4,0.7
					c-0.9,0-1.4-0.6-1.4-1.3C22.6,73.1,23.2,72.6,23.9,72.5z M25.4,73.1v-0.2l-1.3,0.2c-0.4,0.1-0.6,0.3-0.6,0.6
					c0,0.3,0.3,0.6,0.7,0.6C24.9,74.4,25.4,74.1,25.4,73.1z"/>
				<path class="st2" d="M27.6,76.8l1.1-2.3l-1.9-3.9h1l1.4,3l1.3-3h0.9l-2.8,6.1H27.6z"/>
				<path class="st2" d="M34.3,75v-6.5h0.8V75H34.3z"/>
				<path class="st2" d="M40.3,73.8c-0.2,0.8-0.9,1.4-1.9,1.4c-1.2,0-2.2-0.8-2.2-2.3c0-1.4,1-2.3,2.1-2.3c1.3,0,2.1,0.9,2.1,2.3
					c0,0.1,0,0.2,0,0.3h-3.3c0,0.8,0.6,1.3,1.3,1.3c0.7,0,1.1-0.4,1.2-0.9L40.3,73.8z M39.5,72.4c0-0.6-0.4-1.1-1.2-1.1
					c-0.7,0-1.1,0.5-1.2,1.1H39.5z"/>
				<path class="st2" d="M42.5,70.7h0.9v0.8h-0.9v2.3c0,0.4,0.2,0.6,0.6,0.6c0.1,0,0.3,0,0.3,0V75c-0.1,0-0.3,0.1-0.6,0.1
					c-0.7,0-1.2-0.5-1.2-1.2v-2.4h-0.8v-0.8h0.2c0.5,0,0.7-0.3,0.7-0.7v-0.7h0.8V70.7z"/>
				<path class="st2" d="M44.6,68.5c0.4,0,0.7,0.3,0.7,0.8c0,1.1-0.7,1.6-1.2,1.6v-0.4c0.4-0.1,0.7-0.5,0.7-0.9c0,0-0.1,0-0.2,0
					c-0.3,0-0.6-0.2-0.6-0.6C43.9,68.8,44.2,68.5,44.6,68.5z"/>
				<path class="st2" d="M46.1,73.6c0.1,0.5,0.4,0.8,1,0.8c0.5,0,0.7-0.3,0.7-0.6c0-0.3-0.2-0.5-0.6-0.6l-0.7-0.2
					c-0.7-0.1-1.1-0.6-1.1-1.2c0-0.7,0.7-1.4,1.5-1.4c1.2,0,1.6,0.8,1.6,1.2L47.9,72c0-0.2-0.2-0.7-0.9-0.7c-0.4,0-0.7,0.3-0.7,0.6
					c0,0.3,0.2,0.5,0.5,0.5l0.7,0.2c0.8,0.2,1.2,0.6,1.2,1.3c0,0.6-0.5,1.3-1.6,1.3c-1.2,0-1.7-0.8-1.8-1.3L46.1,73.6z"/>
				<path class="st2" d="M52,75v-6.5h0.8v2.8c0.2-0.4,0.7-0.7,1.4-0.7c1.3,0,2,1,2,2.3c0,1.3-0.7,2.3-2,2.3c-0.6,0-1.1-0.3-1.4-0.7
					V75H52z M54.1,71.3c-0.7,0-1.3,0.6-1.3,1.5s0.5,1.5,1.3,1.5c0.8,0,1.3-0.6,1.3-1.5S54.9,71.3,54.1,71.3z"/>
				<path class="st2" d="M61.1,73.8c-0.2,0.8-0.9,1.4-1.9,1.4c-1.2,0-2.2-0.8-2.2-2.3c0-1.4,1-2.3,2.1-2.3c1.3,0,2.1,0.9,2.1,2.3
					c0,0.1,0,0.2,0,0.3h-3.3c0,0.8,0.6,1.3,1.3,1.3c0.7,0,1.1-0.4,1.2-0.9L61.1,73.8z M60.2,72.4c0-0.6-0.4-1.1-1.2-1.1
					c-0.7,0-1.1,0.5-1.2,1.1H60.2z"/>
				<path class="st2" d="M66.7,71.5c-0.1,0-0.3,0-0.4,0c-0.7,0-1.2,0.4-1.2,1.3V75h-0.8v-4.3h0.8v0.8c0.3-0.7,0.9-0.8,1.3-0.8
					c0.1,0,0.2,0,0.3,0V71.5z"/>
				<path class="st2" d="M71.3,73.8c-0.2,0.8-0.9,1.4-1.9,1.4c-1.2,0-2.2-0.8-2.2-2.3c0-1.4,1-2.3,2.1-2.3c1.3,0,2.1,0.9,2.1,2.3
					c0,0.1,0,0.2,0,0.3h-3.3c0,0.8,0.6,1.3,1.3,1.3c0.7,0,1.1-0.4,1.2-0.9L71.3,73.8z M70.5,72.4c0-0.6-0.4-1.1-1.2-1.1
					c-0.7,0-1.1,0.5-1.2,1.1H70.5z"/>
				<path class="st2" d="M73.4,72.5l1.2-0.2c0.3,0,0.3-0.2,0.3-0.3c0-0.4-0.3-0.8-0.9-0.8c-0.6,0-0.9,0.4-1,0.9l-0.8-0.2
					c0.1-0.8,0.8-1.4,1.8-1.4c1.3,0,1.8,0.7,1.8,1.6v2.2c0,0.4,0,0.6,0.1,0.7H75c0-0.1,0-0.3,0-0.6c-0.2,0.3-0.6,0.7-1.4,0.7
					c-0.9,0-1.4-0.6-1.4-1.3C72.1,73.1,72.7,72.6,73.4,72.5z M74.9,73.1v-0.2l-1.3,0.2c-0.4,0.1-0.6,0.3-0.6,0.6
					c0,0.3,0.3,0.6,0.7,0.6C74.4,74.4,74.9,74.1,74.9,73.1z"/>
				<path class="st2" d="M77,75v-6.5h0.8V75H77z"/>
				<path class="st2" d="M79.8,73.8c0.4,0,0.7,0.3,0.7,0.9c0,1.2-0.8,1.7-1.3,1.8V76c0.4-0.1,0.7-0.5,0.7-1c0,0-0.1,0-0.2,0
					c-0.3,0-0.6-0.2-0.6-0.6C79.2,74.1,79.5,73.8,79.8,73.8z"/>
				<path class="st2" d="M84.9,75h-0.8v-6.5h0.8v2.7c0.3-0.5,0.8-0.6,1.3-0.6c1,0,1.5,0.7,1.5,1.7V75H87v-2.6c0-0.6-0.3-1.1-1-1.1
					c-0.6,0-1,0.5-1,1.1V75z"/>
				<path class="st2" d="M92.9,73.8c-0.2,0.8-0.9,1.4-1.9,1.4c-1.2,0-2.2-0.8-2.2-2.3c0-1.4,1-2.3,2.1-2.3c1.3,0,2.1,0.9,2.1,2.3
					c0,0.1,0,0.2,0,0.3h-3.3c0,0.8,0.6,1.3,1.3,1.3c0.7,0,1.1-0.4,1.2-0.9L92.9,73.8z M92,72.4c0-0.6-0.4-1.1-1.2-1.1
					c-0.7,0-1.1,0.5-1.2,1.1H92z"/>
				<path class="st2" d="M96.6,68.4c0.3,0,0.6,0.3,0.6,0.6c0,0.3-0.3,0.6-0.6,0.6c-0.3,0-0.6-0.3-0.6-0.6
					C95.9,68.7,96.2,68.4,96.6,68.4z M96.1,75v-4.3H97V75H96.1z"/>
				<path class="st2" d="M98.7,73.6c0.1,0.5,0.4,0.8,1,0.8c0.5,0,0.7-0.3,0.7-0.6c0-0.3-0.2-0.5-0.6-0.6l-0.7-0.2
					c-0.7-0.1-1.1-0.6-1.1-1.2c0-0.7,0.7-1.4,1.5-1.4c1.2,0,1.6,0.8,1.6,1.2l-0.7,0.3c0-0.2-0.2-0.7-0.9-0.7c-0.4,0-0.7,0.3-0.7,0.6
					c0,0.3,0.2,0.5,0.5,0.5l0.7,0.2c0.8,0.2,1.2,0.6,1.2,1.3c0,0.6-0.5,1.3-1.6,1.3c-1.2,0-1.7-0.8-1.8-1.3L98.7,73.6z"/>
				<path class="st2" d="M104.8,70.7h1.3l0.3-1.5h0.8l-0.3,1.5h1.3l0.3-1.5h0.8l-0.3,1.5h1.2v0.7h-1.4l-0.3,1.4h1.2v0.7h-1.4
					l-0.3,1.5h-0.8l0.3-1.5h-1.3l-0.3,1.5h-0.8l0.3-1.5h-1.1v-0.7h1.3l0.3-1.4h-1.2V70.7z M106.4,72.8h1.3l0.3-1.4h-1.3L106.4,72.8z
					"/>
				<path class="st2" d="M117.3,75v-5l-2.2,5h-0.8l-2.2-5v5h-0.9v-6.4h1.2l2.3,5.2l2.3-5.2h1.2V75H117.3z"/>
				<path class="st2" d="M122.1,71.5c-0.1,0-0.3,0-0.4,0c-0.7,0-1.2,0.4-1.2,1.3V75h-0.8v-4.3h0.8v0.8c0.3-0.7,0.9-0.8,1.3-0.8
					c0.1,0,0.2,0,0.3,0V71.5z"/>
				<path class="st2" d="M126.7,73.2h-2.8l-0.7,1.8h-0.9l2.5-6.4h1l2.5,6.4h-1L126.7,73.2z M124.2,72.4h2.2l-1.1-2.9L124.2,72.4z"/>
				<path class="st2" d="M129.1,75v-4.3h0.8v0.6c0.3-0.5,0.8-0.7,1.3-0.7c0.5,0,1.1,0.3,1.3,0.8c0.3-0.6,0.9-0.8,1.5-0.8
					c0.8,0,1.5,0.5,1.5,1.6V75h-0.8v-2.7c0-0.6-0.3-1-0.9-1c-0.6,0-1,0.5-1,1.1V75h-0.8v-2.7c0-0.6-0.3-1-0.9-1c-0.6,0-1,0.5-1,1.1
					V75H129.1z"/>
				<path class="st2" d="M137.8,72.5l1.2-0.2c0.3,0,0.3-0.2,0.3-0.3c0-0.4-0.3-0.8-0.9-0.8c-0.6,0-0.9,0.4-1,0.9l-0.8-0.2
					c0.1-0.8,0.8-1.4,1.8-1.4c1.3,0,1.8,0.7,1.8,1.6v2.2c0,0.4,0,0.6,0.1,0.7h-0.8c0-0.1,0-0.3,0-0.6c-0.2,0.3-0.6,0.7-1.4,0.7
					c-0.9,0-1.4-0.6-1.4-1.3C136.5,73.1,137.1,72.6,137.8,72.5z M139.3,73.1v-0.2l-1.3,0.2c-0.4,0.1-0.6,0.3-0.6,0.6
					c0,0.3,0.3,0.6,0.7,0.6C138.8,74.4,139.3,74.1,139.3,73.1z"/>
				<path class="st2" d="M141.4,75v-6.5h0.8V75H141.4z"/>
				<path class="st2" d="M143.4,71.8c0-2.1,1.6-3.3,3.2-3.3c1.5,0,2.5,0.8,2.8,2l-0.8,0.3c-0.2-1-0.9-1.5-2-1.5
					c-1.2,0-2.3,0.8-2.3,2.5c0,1.7,1.1,2.5,2.3,2.5c1.1,0,1.8-0.7,2-1.5l0.8,0.3c-0.3,1.2-1.3,2.1-2.8,2.1
					C144.9,75.1,143.4,73.9,143.4,71.8z"/>
				<path class="st2" d="M150.3,75v-6.5h0.8V75H150.3z"/>
				<path class="st2" d="M156.6,72.8c0,1.3-0.9,2.3-2.2,2.3s-2.2-1-2.2-2.3c0-1.3,0.9-2.3,2.2-2.3S156.6,71.5,156.6,72.8z
					 M155.7,72.8c0-1-0.6-1.5-1.4-1.5s-1.4,0.5-1.4,1.5c0,1,0.6,1.5,1.4,1.5S155.7,73.8,155.7,72.8z"/>
				<path class="st2" d="M161.7,72.8c0,1.3-0.9,2.3-2.2,2.3s-2.2-1-2.2-2.3c0-1.3,0.9-2.3,2.2-2.3S161.7,71.5,161.7,72.8z
					 M160.8,72.8c0-1-0.6-1.5-1.4-1.5s-1.4,0.5-1.4,1.5c0,1,0.6,1.5,1.4,1.5S160.8,73.8,160.8,72.8z"/>
				<path class="st2" d="M163.6,75h-0.8v-4.3h0.8v0.6c0.3-0.5,0.8-0.7,1.3-0.7c1,0,1.5,0.7,1.5,1.7V75h-0.8v-2.6
					c0-0.6-0.3-1.1-1-1.1c-0.7,0-1,0.5-1,1.2V75z"/>
				<path class="st2" d="M171.5,73.8c-0.2,0.8-0.9,1.4-1.9,1.4c-1.2,0-2.2-0.8-2.2-2.3c0-1.4,1-2.3,2.1-2.3c1.3,0,2.1,0.9,2.1,2.3
					c0,0.1,0,0.2,0,0.3h-3.3c0,0.8,0.6,1.3,1.3,1.3c0.7,0,1.1-0.4,1.2-0.9L171.5,73.8z M170.7,72.4c0-0.6-0.4-1.1-1.2-1.1
					c-0.7,0-1.1,0.5-1.2,1.1H170.7z"/>
				<path class="st2" d="M172.6,76.8l1.1-2.3l-1.9-3.9h1l1.3,3l1.3-3h0.9l-2.8,6.1H172.6z"/>
				<path class="st2" d="M176.9,76.4l-0.5-0.5c0.9-1,1.5-2.3,1.5-3.8c0-1.6-0.6-2.8-1.5-3.8l0.5-0.5c1,1,1.7,2.3,1.7,4.3
					C178.7,74.1,177.9,75.5,176.9,76.4z"/>
				<path class="st2" d="M180.4,73.8c0.4,0,0.7,0.3,0.7,0.9c0,1.2-0.8,1.7-1.3,1.8V76c0.4-0.1,0.7-0.5,0.7-1c0,0-0.1,0-0.2,0
					c-0.3,0-0.6-0.2-0.6-0.6C179.7,74.1,180,73.8,180.4,73.8z"/>
			</g>
			<g class="st1">
				<path class="st2" d="M10.7,86v-6.5h0.8v2.8c0.2-0.4,0.7-0.7,1.4-0.7c1.3,0,2,1,2,2.3c0,1.3-0.7,2.3-2,2.3
					c-0.6,0-1.1-0.3-1.4-0.7V86H10.7z M12.8,82.3c-0.7,0-1.3,0.6-1.3,1.5s0.5,1.5,1.3,1.5c0.8,0,1.3-0.6,1.3-1.5
					S13.6,82.3,12.8,82.3z"/>
				<path class="st2" d="M17.5,86.1c-1,0-1.6-0.8-1.6-1.7v-2.7h0.8v2.6c0,0.6,0.3,1.1,1,1.1c0.7,0,1-0.5,1-1.1v-2.6h0.8v3.5
					c0,0.3,0,0.6,0,0.8h-0.8c0-0.1,0-0.3,0-0.5C18.6,85.9,18,86.1,17.5,86.1z"/>
				<path class="st2" d="M22.2,81.7h0.9v0.8h-0.9v2.3c0,0.4,0.2,0.6,0.6,0.6c0.1,0,0.3,0,0.3,0V86C23,86,22.8,86,22.5,86
					c-0.7,0-1.2-0.5-1.2-1.2v-2.4h-0.8v-0.8h0.2c0.5,0,0.7-0.3,0.7-0.7v-0.7h0.8V81.7z"/>
				<path class="st2" d="M26.7,84.6c0.1,0.5,0.4,0.8,1,0.8c0.5,0,0.7-0.3,0.7-0.6c0-0.3-0.2-0.5-0.6-0.6l-0.7-0.2
					c-0.7-0.1-1.1-0.6-1.1-1.2c0-0.7,0.7-1.4,1.5-1.4c1.2,0,1.6,0.8,1.6,1.2L28.5,83c0-0.2-0.2-0.7-0.9-0.7c-0.4,0-0.7,0.3-0.7,0.6
					c0,0.3,0.2,0.5,0.5,0.5l0.7,0.2c0.8,0.2,1.2,0.6,1.2,1.3c0,0.6-0.5,1.3-1.6,1.3c-1.2,0-1.7-0.8-1.8-1.3L26.7,84.6z"/>
				<path class="st2" d="M31.2,86h-0.8v-6.5h0.8v2.7c0.3-0.5,0.8-0.6,1.3-0.6c1,0,1.5,0.7,1.5,1.7V86h-0.8v-2.6c0-0.6-0.3-1.1-1-1.1
					c-0.6,0-1,0.5-1,1.1V86z"/>
				<path class="st2" d="M39.2,84.8c-0.2,0.8-0.9,1.4-1.9,1.4c-1.2,0-2.2-0.8-2.2-2.3c0-1.4,1-2.3,2.1-2.3c1.3,0,2.1,0.9,2.1,2.3
					c0,0.1,0,0.2,0,0.3h-3.3c0,0.8,0.6,1.3,1.3,1.3c0.7,0,1.1-0.4,1.2-0.9L39.2,84.8z M38.3,83.4c0-0.6-0.4-1.1-1.2-1.1
					c-0.7,0-1.1,0.5-1.2,1.1H38.3z"/>
				<path class="st2" d="M40.1,79.5c0.4,0,0.7,0.3,0.7,0.8c0,1.1-0.7,1.6-1.2,1.6v-0.4c0.4-0.1,0.7-0.5,0.7-0.9c0,0-0.1,0-0.2,0
					c-0.3,0-0.6-0.2-0.6-0.6C39.5,79.8,39.8,79.5,40.1,79.5z"/>
				<path class="st2" d="M41.7,84.6c0.1,0.5,0.4,0.8,1,0.8c0.5,0,0.7-0.3,0.7-0.6c0-0.3-0.2-0.5-0.6-0.6l-0.7-0.2
					c-0.7-0.1-1.1-0.6-1.1-1.2c0-0.7,0.7-1.4,1.5-1.4c1.2,0,1.6,0.8,1.6,1.2L43.5,83c0-0.2-0.2-0.7-0.9-0.7c-0.4,0-0.7,0.3-0.7,0.6
					c0,0.3,0.2,0.5,0.5,0.5l0.7,0.2c0.8,0.2,1.2,0.6,1.2,1.3c0,0.6-0.5,1.3-1.6,1.3c-1.2,0-1.7-0.8-1.8-1.3L41.7,84.6z"/>
				<path class="st2" d="M48.6,83.5l1.2-0.2c0.3,0,0.3-0.2,0.3-0.3c0-0.4-0.3-0.8-0.9-0.8c-0.6,0-0.9,0.4-1,0.9l-0.8-0.2
					c0.1-0.8,0.8-1.4,1.8-1.4c1.3,0,1.8,0.7,1.8,1.6v2.2c0,0.4,0,0.6,0.1,0.7h-0.8c0-0.1,0-0.3,0-0.6c-0.2,0.3-0.6,0.7-1.4,0.7
					c-0.9,0-1.4-0.6-1.4-1.3C47.3,84.1,47.9,83.6,48.6,83.5z M50.1,84.1v-0.2l-1.3,0.2c-0.4,0.1-0.6,0.3-0.6,0.6
					c0,0.3,0.3,0.6,0.7,0.6C49.6,85.4,50.1,85.1,50.1,84.1z"/>
				<path class="st2" d="M52.2,86v-6.5h0.8V86H52.2z"/>
				<path class="st2" d="M54.8,84.6c0.1,0.5,0.4,0.8,1,0.8c0.5,0,0.7-0.3,0.7-0.6c0-0.3-0.2-0.5-0.6-0.6l-0.7-0.2
					c-0.7-0.1-1.1-0.6-1.1-1.2c0-0.7,0.7-1.4,1.5-1.4c1.2,0,1.6,0.8,1.6,1.2L56.7,83c0-0.2-0.2-0.7-0.9-0.7c-0.4,0-0.7,0.3-0.7,0.6
					c0,0.3,0.2,0.5,0.5,0.5l0.7,0.2c0.8,0.2,1.2,0.6,1.2,1.3c0,0.6-0.5,1.3-1.6,1.3c-1.2,0-1.7-0.8-1.8-1.3L54.8,84.6z"/>
				<path class="st2" d="M62.5,83.8c0,1.3-0.9,2.3-2.2,2.3s-2.2-1-2.2-2.3c0-1.3,0.9-2.3,2.2-2.3S62.5,82.5,62.5,83.8z M61.7,83.8
					c0-1-0.6-1.5-1.4-1.5S59,82.8,59,83.8c0,1,0.6,1.5,1.4,1.5S61.7,84.8,61.7,83.8z"/>
				<path class="st2" d="M66.8,83.5l1.2-0.2c0.3,0,0.3-0.2,0.3-0.3c0-0.4-0.3-0.8-0.9-0.8c-0.6,0-0.9,0.4-1,0.9l-0.8-0.2
					c0.1-0.8,0.8-1.4,1.8-1.4c1.3,0,1.8,0.7,1.8,1.6v2.2c0,0.4,0,0.6,0.1,0.7h-0.8c0-0.1,0-0.3,0-0.6c-0.2,0.3-0.6,0.7-1.4,0.7
					c-0.9,0-1.4-0.6-1.4-1.3C65.5,84.1,66.1,83.6,66.8,83.5z M68.3,84.1v-0.2L67,84.1c-0.4,0.1-0.6,0.3-0.6,0.6
					c0,0.3,0.3,0.6,0.7,0.6C67.8,85.4,68.3,85.1,68.3,84.1z"/>
				<path class="st2" d="M71.3,86h-0.8v-4.3h0.8v0.6c0.3-0.5,0.8-0.7,1.3-0.7c1,0,1.5,0.7,1.5,1.7V86h-0.8v-2.6c0-0.6-0.3-1.1-1-1.1
					c-0.7,0-1,0.5-1,1.2V86z"/>
				<path class="st2" d="M78.1,79.4c0.3,0,0.6,0.3,0.6,0.6c0,0.3-0.3,0.6-0.6,0.6c-0.3,0-0.6-0.3-0.6-0.6
					C77.5,79.7,77.7,79.4,78.1,79.4z M77.7,86v-4.3h0.8V86H77.7z"/>
				<path class="st2" d="M80.7,86h-0.8v-4.3h0.8v0.6c0.3-0.5,0.8-0.7,1.3-0.7c1,0,1.5,0.7,1.5,1.7V86h-0.8v-2.6c0-0.6-0.3-1.1-1-1.1
					c-0.7,0-1,0.5-1,1.2V86z"/>
				<path class="st2" d="M85.3,84.6c0.1,0.5,0.4,0.8,1,0.8c0.5,0,0.7-0.3,0.7-0.6c0-0.3-0.2-0.5-0.6-0.6l-0.7-0.2
					c-0.7-0.1-1.1-0.6-1.1-1.2c0-0.7,0.7-1.4,1.5-1.4c1.2,0,1.6,0.8,1.6,1.2L87.1,83c0-0.2-0.2-0.7-0.9-0.7c-0.4,0-0.7,0.3-0.7,0.6
					c0,0.3,0.2,0.5,0.5,0.5l0.7,0.2c0.8,0.2,1.2,0.6,1.2,1.3c0,0.6-0.5,1.3-1.6,1.3c-1.2,0-1.7-0.8-1.8-1.3L85.3,84.6z"/>
				<path class="st2" d="M89.9,83.5l1.2-0.2c0.3,0,0.3-0.2,0.3-0.3c0-0.4-0.3-0.8-0.9-0.8c-0.6,0-0.9,0.4-1,0.9l-0.8-0.2
					c0.1-0.8,0.8-1.4,1.8-1.4c1.3,0,1.8,0.7,1.8,1.6v2.2c0,0.4,0,0.6,0.1,0.7h-0.8c0-0.1,0-0.3,0-0.6c-0.2,0.3-0.6,0.7-1.4,0.7
					c-0.9,0-1.4-0.6-1.4-1.3C88.6,84.1,89.1,83.6,89.9,83.5z M91.4,84.1v-0.2l-1.3,0.2c-0.4,0.1-0.6,0.3-0.6,0.6
					c0,0.3,0.3,0.6,0.7,0.6C90.8,85.4,91.4,85.1,91.4,84.1z"/>
				<path class="st2" d="M94.3,86h-0.8v-4.3h0.8v0.6c0.3-0.5,0.8-0.7,1.3-0.7c1,0,1.5,0.7,1.5,1.7V86h-0.8v-2.6c0-0.6-0.3-1.1-1-1.1
					c-0.7,0-1,0.5-1,1.2V86z"/>
				<path class="st2" d="M102.3,84.8c-0.2,0.8-0.9,1.4-1.9,1.4c-1.2,0-2.2-0.8-2.2-2.3c0-1.4,1-2.3,2.1-2.3c1.3,0,2.1,0.9,2.1,2.3
					c0,0.1,0,0.2,0,0.3H99c0,0.8,0.6,1.3,1.3,1.3c0.7,0,1.1-0.4,1.2-0.9L102.3,84.8z M101.4,83.4c0-0.6-0.4-1.1-1.2-1.1
					c-0.7,0-1.1,0.5-1.2,1.1H101.4z"/>
				<path class="st2" d="M103.3,86v-6.5h0.8V86H103.3z"/>
				<path class="st2" d="M105.7,87.8l1.1-2.3l-1.9-3.9h1l1.3,3l1.3-3h0.9l-2.8,6.1H105.7z"/>
				<path class="st2" d="M113.5,83.5l1.2-0.2c0.3,0,0.3-0.2,0.3-0.3c0-0.4-0.3-0.8-0.9-0.8c-0.6,0-0.9,0.4-1,0.9l-0.8-0.2
					c0.1-0.8,0.8-1.4,1.8-1.4c1.3,0,1.8,0.7,1.8,1.6v2.2c0,0.4,0,0.6,0.1,0.7h-0.8c0-0.1,0-0.3,0-0.6c-0.2,0.3-0.6,0.7-1.4,0.7
					c-0.9,0-1.4-0.6-1.4-1.3C112.2,84.1,112.7,83.6,113.5,83.5z M115,84.1v-0.2l-1.3,0.2c-0.4,0.1-0.6,0.3-0.6,0.6
					c0,0.3,0.3,0.6,0.7,0.6C114.4,85.4,115,85.1,115,84.1z"/>
				<path class="st2" d="M117.6,83.8c0,1,0.6,1.5,1.3,1.5c0.8,0,1.1-0.5,1.2-0.9l0.7,0.3c-0.2,0.6-0.8,1.4-2,1.4
					c-1.3,0-2.2-1-2.2-2.3c0-1.4,0.9-2.3,2.2-2.3c1.2,0,1.7,0.7,1.9,1.4l-0.8,0.3c-0.1-0.4-0.4-0.9-1.2-0.9
					C118.2,82.3,117.6,82.8,117.6,83.8z"/>
				<path class="st2" d="M122.3,83.8c0,1,0.6,1.5,1.3,1.5c0.8,0,1.1-0.5,1.2-0.9l0.7,0.3c-0.2,0.6-0.8,1.4-2,1.4
					c-1.3,0-2.2-1-2.2-2.3c0-1.4,0.9-2.3,2.2-2.3c1.2,0,1.7,0.7,1.9,1.4l-0.8,0.3c-0.1-0.4-0.4-0.9-1.2-0.9
					C122.9,82.3,122.3,82.8,122.3,83.8z"/>
				<path class="st2" d="M130.5,83.8c0,1.3-0.9,2.3-2.2,2.3s-2.2-1-2.2-2.3c0-1.3,0.9-2.3,2.2-2.3S130.5,82.5,130.5,83.8z
					 M129.7,83.8c0-1-0.6-1.5-1.4-1.5s-1.4,0.5-1.4,1.5c0,1,0.6,1.5,1.4,1.5S129.7,84.8,129.7,83.8z"/>
				<path class="st2" d="M131.6,86v-4.3h0.8v0.6c0.3-0.5,0.8-0.7,1.3-0.7c0.5,0,1.1,0.3,1.3,0.8c0.3-0.6,0.9-0.8,1.5-0.8
					c0.8,0,1.5,0.5,1.5,1.6V86h-0.8v-2.7c0-0.6-0.3-1-0.9-1c-0.6,0-1,0.5-1,1.1V86h-0.8v-2.7c0-0.6-0.3-1-0.9-1c-0.6,0-1,0.5-1,1.1
					V86H131.6z"/>
				<path class="st2" d="M139.2,87.7v-6h0.8v0.7c0.2-0.4,0.7-0.8,1.4-0.8c1.3,0,2,1,2,2.3c0,1.3-0.7,2.3-2,2.3
					c-0.7,0-1.2-0.3-1.4-0.7v2.3H139.2z M141.4,82.3c-0.8,0-1.3,0.6-1.3,1.5c0,0.9,0.5,1.5,1.3,1.5c0.8,0,1.3-0.6,1.3-1.5
					C142.6,83,142.1,82.3,141.4,82.3z"/>
				<path class="st2" d="M144.5,86v-6.5h0.8V86H144.5z"/>
				<path class="st2" d="M147.2,79.4c0.3,0,0.6,0.3,0.6,0.6c0,0.3-0.3,0.6-0.6,0.6c-0.3,0-0.6-0.3-0.6-0.6
					C146.6,79.7,146.9,79.4,147.2,79.4z M146.8,86v-4.3h0.8V86H146.8z"/>
				<path class="st2" d="M149.4,84.6c0.1,0.5,0.4,0.8,1,0.8c0.5,0,0.7-0.3,0.7-0.6c0-0.3-0.2-0.5-0.6-0.6l-0.7-0.2
					c-0.7-0.1-1.1-0.6-1.1-1.2c0-0.7,0.7-1.4,1.5-1.4c1.2,0,1.6,0.8,1.6,1.2l-0.7,0.3c0-0.2-0.2-0.7-0.9-0.7c-0.4,0-0.7,0.3-0.7,0.6
					c0,0.3,0.2,0.5,0.5,0.5l0.7,0.2c0.8,0.2,1.2,0.6,1.2,1.3c0,0.6-0.5,1.3-1.6,1.3c-1.2,0-1.7-0.8-1.8-1.3L149.4,84.6z"/>
				<path class="st2" d="M153.9,86H153v-6.5h0.8v2.7c0.3-0.5,0.8-0.6,1.3-0.6c1,0,1.5,0.7,1.5,1.7V86h-0.8v-2.6c0-0.6-0.3-1.1-1-1.1
					c-0.6,0-1,0.5-1,1.1V86z"/>
				<path class="st2" d="M161.8,84.8c-0.2,0.8-0.9,1.4-1.9,1.4c-1.2,0-2.2-0.8-2.2-2.3c0-1.4,1-2.3,2.1-2.3c1.3,0,2.1,0.9,2.1,2.3
					c0,0.1,0,0.2,0,0.3h-3.3c0,0.8,0.6,1.3,1.3,1.3c0.7,0,1.1-0.4,1.2-0.9L161.8,84.8z M161,83.4c0-0.6-0.4-1.1-1.2-1.1
					c-0.7,0-1.1,0.5-1.2,1.1H161z"/>
				<path class="st2" d="M165.9,85.3c-0.2,0.4-0.7,0.8-1.3,0.8c-1.3,0-2.1-1-2.1-2.3c0-1.2,0.8-2.3,2.1-2.3c0.8,0,1.2,0.4,1.3,0.7
					v-2.8h0.8v5.7c0,0.4,0,0.7,0,0.8H166C165.9,85.9,165.9,85.7,165.9,85.3L165.9,85.3z M164.6,85.4c0.8,0,1.3-0.7,1.3-1.6
					c0-0.9-0.5-1.5-1.2-1.5c-0.8,0-1.3,0.6-1.3,1.5S163.8,85.4,164.6,85.4z"/>
			</g>
			<g class="st1">
				<path class="st2" d="M11.1,90.4c0.3,0,0.6,0.3,0.6,0.6c0,0.3-0.3,0.6-0.6,0.6c-0.3,0-0.6-0.3-0.6-0.6
					C10.5,90.7,10.8,90.4,11.1,90.4z M10.7,97v-4.3h0.8V97H10.7z"/>
				<path class="st2" d="M13.8,97H13v-4.3h0.8v0.6c0.3-0.5,0.8-0.7,1.3-0.7c1,0,1.5,0.7,1.5,1.7V97h-0.8v-2.6c0-0.6-0.3-1.1-1-1.1
					c-0.7,0-1,0.5-1,1.2V97z"/>
				<path class="st2" d="M19.1,92.7H20v0.8h-0.9v2.3c0,0.4,0.2,0.6,0.6,0.6c0.1,0,0.3,0,0.3,0V97C20,97,19.7,97,19.5,97
					c-0.7,0-1.2-0.5-1.2-1.2v-2.4h-0.8v-0.8h0.2c0.5,0,0.7-0.3,0.7-0.7v-0.7h0.8V92.7z"/>
				<path class="st2" d="M24.8,95.8c-0.2,0.8-0.9,1.4-1.9,1.4c-1.2,0-2.2-0.8-2.2-2.3c0-1.4,1-2.3,2.1-2.3c1.3,0,2.1,0.9,2.1,2.3
					c0,0.1,0,0.2,0,0.3h-3.3c0,0.8,0.6,1.3,1.3,1.3c0.7,0,1.1-0.4,1.2-0.9L24.8,95.8z M24,94.4c0-0.6-0.4-1.1-1.2-1.1
					c-0.7,0-1.1,0.5-1.2,1.1H24z"/>
				<path class="st2" d="M28.3,93.5c-0.1,0-0.3,0-0.4,0c-0.7,0-1.2,0.4-1.2,1.3V97h-0.8v-4.3h0.8v0.8c0.3-0.7,0.9-0.8,1.3-0.8
					c0.1,0,0.2,0,0.3,0V93.5z"/>
				<path class="st2" d="M30,97h-0.8v-4.3H30v0.6c0.3-0.5,0.8-0.7,1.3-0.7c1,0,1.5,0.7,1.5,1.7V97H32v-2.6c0-0.6-0.3-1.1-1-1.1
					c-0.7,0-1,0.5-1,1.2V97z"/>
				<path class="st2" d="M35.2,94.5l1.2-0.2c0.3,0,0.3-0.2,0.3-0.3c0-0.4-0.3-0.8-0.9-0.8c-0.6,0-0.9,0.4-1,0.9L34,93.9
					c0.1-0.8,0.8-1.4,1.8-1.4c1.3,0,1.8,0.7,1.8,1.6v2.2c0,0.4,0,0.6,0.1,0.7h-0.8c0-0.1,0-0.3,0-0.6c-0.2,0.3-0.6,0.7-1.4,0.7
					c-0.9,0-1.4-0.6-1.4-1.3C33.9,95.1,34.5,94.6,35.2,94.5z M36.7,95.1v-0.2l-1.3,0.2c-0.4,0.1-0.6,0.3-0.6,0.6
					c0,0.3,0.3,0.6,0.7,0.6C36.2,96.4,36.7,96.1,36.7,95.1z"/>
				<path class="st2" d="M40,92.7h0.9v0.8H40v2.3c0,0.4,0.2,0.6,0.6,0.6c0.1,0,0.3,0,0.3,0V97c-0.1,0-0.3,0.1-0.6,0.1
					c-0.7,0-1.2-0.5-1.2-1.2v-2.4h-0.8v-0.8h0.2c0.5,0,0.7-0.3,0.7-0.7v-0.7H40V92.7z"/>
				<path class="st2" d="M42.4,90.4c0.3,0,0.6,0.3,0.6,0.6c0,0.3-0.3,0.6-0.6,0.6c-0.3,0-0.6-0.3-0.6-0.6
					C41.8,90.7,42.1,90.4,42.4,90.4z M42,97v-4.3h0.8V97H42z"/>
				<path class="st2" d="M48.3,94.8c0,1.3-0.9,2.3-2.2,2.3s-2.2-1-2.2-2.3c0-1.3,0.9-2.3,2.2-2.3S48.3,93.5,48.3,94.8z M47.4,94.8
					c0-1-0.6-1.5-1.4-1.5s-1.4,0.5-1.4,1.5c0,1,0.6,1.5,1.4,1.5S47.4,95.8,47.4,94.8z"/>
				<path class="st2" d="M50.2,97h-0.8v-4.3h0.8v0.6c0.3-0.5,0.8-0.7,1.3-0.7c1,0,1.5,0.7,1.5,1.7V97h-0.8v-2.6c0-0.6-0.3-1.1-1-1.1
					c-0.7,0-1,0.5-1,1.2V97z"/>
				<path class="st2" d="M55.4,94.5l1.2-0.2c0.3,0,0.3-0.2,0.3-0.3c0-0.4-0.3-0.8-0.9-0.8c-0.6,0-0.9,0.4-1,0.9l-0.8-0.2
					c0.1-0.8,0.8-1.4,1.8-1.4c1.3,0,1.8,0.7,1.8,1.6v2.2c0,0.4,0,0.6,0.1,0.7H57c0-0.1,0-0.3,0-0.6c-0.2,0.3-0.6,0.7-1.4,0.7
					c-0.9,0-1.4-0.6-1.4-1.3C54.1,95.1,54.6,94.6,55.4,94.5z M56.9,95.1v-0.2l-1.3,0.2c-0.4,0.1-0.6,0.3-0.6,0.6
					c0,0.3,0.3,0.6,0.7,0.6C56.3,96.4,56.9,96.1,56.9,95.1z"/>
				<path class="st2" d="M59,97v-6.5h0.8V97H59z"/>
				<path class="st2" d="M64.3,97h-0.8v-6.5h0.8v2.7c0.3-0.5,0.8-0.6,1.3-0.6c1,0,1.5,0.7,1.5,1.7V97h-0.8v-2.6c0-0.6-0.3-1.1-1-1.1
					c-0.6,0-1,0.5-1,1.1V97z"/>
				<path class="st2" d="M69.9,97.1c-1,0-1.6-0.8-1.6-1.7v-2.7h0.8v2.6c0,0.6,0.3,1.1,1,1.1c0.7,0,1-0.5,1-1.1v-2.6H72v3.5
					c0,0.3,0,0.6,0,0.8h-0.8c0-0.1,0-0.3,0-0.5C71,96.9,70.4,97.1,69.9,97.1z"/>
				<path class="st2" d="M73.4,97v-4.3h0.8v0.6c0.3-0.5,0.8-0.7,1.3-0.7c0.5,0,1.1,0.3,1.3,0.8c0.3-0.6,0.9-0.8,1.4-0.8
					c0.8,0,1.5,0.5,1.5,1.6V97h-0.8v-2.7c0-0.6-0.3-1-0.9-1c-0.6,0-1,0.5-1,1.1V97h-0.8v-2.7c0-0.6-0.3-1-0.9-1c-0.6,0-1,0.5-1,1.1
					V97H73.4z"/>
				<path class="st2" d="M82.1,94.5l1.2-0.2c0.3,0,0.3-0.2,0.3-0.3c0-0.4-0.3-0.8-0.9-0.8c-0.6,0-0.9,0.4-1,0.9l-0.8-0.2
					c0.1-0.8,0.8-1.4,1.8-1.4c1.3,0,1.8,0.7,1.8,1.6v2.2c0,0.4,0,0.6,0.1,0.7h-0.8c0-0.1,0-0.3,0-0.6c-0.2,0.3-0.6,0.7-1.4,0.7
					c-0.9,0-1.4-0.6-1.4-1.3C80.8,95.1,81.4,94.6,82.1,94.5z M83.6,95.1v-0.2l-1.3,0.2c-0.4,0.1-0.6,0.3-0.6,0.6
					c0,0.3,0.3,0.6,0.7,0.6C83.1,96.4,83.6,96.1,83.6,95.1z"/>
				<path class="st2" d="M86.6,97h-0.8v-4.3h0.8v0.6c0.3-0.5,0.8-0.7,1.3-0.7c1,0,1.5,0.7,1.5,1.7V97h-0.8v-2.6c0-0.6-0.3-1.1-1-1.1
					c-0.7,0-1,0.5-1,1.2V97z"/>
				<path class="st2" d="M95.4,93.5c-0.1,0-0.3,0-0.4,0c-0.7,0-1.2,0.4-1.2,1.3V97H93v-4.3h0.8v0.8c0.3-0.7,0.9-0.8,1.3-0.8
					c0.1,0,0.2,0,0.3,0V93.5z"/>
				<path class="st2" d="M96.6,90.4c0.3,0,0.6,0.3,0.6,0.6c0,0.3-0.3,0.6-0.6,0.6c-0.3,0-0.6-0.3-0.6-0.6
					C96,90.7,96.3,90.4,96.6,90.4z M96.2,97v-4.3h0.8V97H96.2z"/>
				<path class="st2" d="M99,97c0.1,0.6,0.5,1.1,1.2,1.1c0.9,0,1.3-0.5,1.3-1.4v-0.6c-0.2,0.4-0.7,0.7-1.3,0.7c-1.2,0-2-0.9-2-2.1
					c0-1.2,0.8-2.1,2-2.1c0.7,0,1.1,0.3,1.3,0.7v-0.6h0.8v4c0,1.1-0.5,2.2-2.2,2.2c-1.1,0-1.9-0.7-2-1.6L99,97z M101.5,94.7
					c0-0.8-0.5-1.4-1.2-1.4c-0.7,0-1.3,0.5-1.3,1.4c0,0.8,0.5,1.4,1.3,1.4C101,96.1,101.5,95.5,101.5,94.7z"/>
				<path class="st2" d="M104.5,97h-0.8v-6.5h0.8v2.7c0.3-0.5,0.8-0.6,1.3-0.6c1,0,1.5,0.7,1.5,1.7V97h-0.8v-2.6
					c0-0.6-0.3-1.1-1-1.1c-0.6,0-1,0.5-1,1.1V97z"/>
				<path class="st2" d="M109.8,92.7h0.9v0.8h-0.9v2.3c0,0.4,0.2,0.6,0.6,0.6c0.1,0,0.3,0,0.3,0V97c-0.1,0-0.3,0.1-0.6,0.1
					c-0.7,0-1.2-0.5-1.2-1.2v-2.4h-0.8v-0.8h0.2c0.5,0,0.7-0.3,0.7-0.7v-0.7h0.8V92.7z"/>
				<path class="st2" d="M112.2,95.6c0.1,0.5,0.4,0.8,1,0.8c0.5,0,0.7-0.3,0.7-0.6c0-0.3-0.2-0.5-0.6-0.6l-0.7-0.2
					c-0.7-0.1-1.1-0.6-1.1-1.2c0-0.7,0.7-1.4,1.5-1.4c1.2,0,1.6,0.8,1.6,1.2L114,94c0-0.2-0.2-0.7-0.9-0.7c-0.4,0-0.7,0.3-0.7,0.6
					c0,0.3,0.2,0.5,0.5,0.5l0.7,0.2c0.8,0.2,1.2,0.6,1.2,1.3c0,0.6-0.5,1.3-1.6,1.3c-1.2,0-1.7-0.8-1.8-1.3L112.2,95.6z"/>
				<path class="st2" d="M118,97v-6.5h0.8V97H118z"/>
				<path class="st2" d="M121.3,94.5l1.2-0.2c0.3,0,0.3-0.2,0.3-0.3c0-0.4-0.3-0.8-0.9-0.8c-0.6,0-0.9,0.4-1,0.9l-0.8-0.2
					c0.1-0.8,0.8-1.4,1.8-1.4c1.3,0,1.8,0.7,1.8,1.6v2.2c0,0.4,0,0.6,0.1,0.7h-0.8c0-0.1,0-0.3,0-0.6c-0.2,0.3-0.6,0.7-1.4,0.7
					c-0.9,0-1.4-0.6-1.4-1.3C120,95.1,120.6,94.6,121.3,94.5z M122.8,95.1v-0.2l-1.3,0.2c-0.4,0.1-0.6,0.3-0.6,0.6
					c0,0.3,0.3,0.6,0.7,0.6C122.3,96.4,122.8,96.1,122.8,95.1z"/>
				<path class="st2" d="M128.3,92.7l1.1,3.3l1-3.3h0.9l-1.4,4.3H129l-1.2-3.3l-1.1,3.3h-0.9l-1.4-4.3h0.9l1,3.3l1.1-3.3H128.3z"/>
				<path class="st2" d="M132.2,98.8l1.1-2.3l-1.9-3.9h1l1.4,3l1.3-3h0.9l-2.8,6.1H132.2z"/>
				<path class="st2" d="M140.3,95.8c-0.2,0.8-0.9,1.4-1.9,1.4c-1.2,0-2.2-0.8-2.2-2.3c0-1.4,1-2.3,2.1-2.3c1.3,0,2.1,0.9,2.1,2.3
					c0,0.1,0,0.2,0,0.3h-3.3c0,0.8,0.6,1.3,1.3,1.3c0.7,0,1.1-0.4,1.2-0.9L140.3,95.8z M139.5,94.4c0-0.6-0.4-1.1-1.2-1.1
					c-0.7,0-1.1,0.5-1.2,1.1H139.5z"/>
				<path class="st2" d="M143.8,93.5c-0.1,0-0.3,0-0.4,0c-0.7,0-1.2,0.4-1.2,1.3V97h-0.8v-4.3h0.8v0.8c0.3-0.7,0.9-0.8,1.3-0.8
					c0.1,0,0.2,0,0.3,0V93.5z"/>
				<path class="st2" d="M144.4,95.8c0.4,0,0.6,0.3,0.6,0.6s-0.3,0.6-0.6,0.6s-0.6-0.3-0.6-0.6S144,95.8,144.4,95.8z"/>
				<path class="st2" d="M151.9,92.3c-0.1-0.5-0.5-1.1-1.4-1.1c-0.7,0-1.2,0.5-1.2,1.1c0,0.5,0.3,0.8,0.8,0.9l1,0.2
					c1.1,0.2,1.7,0.9,1.7,1.8c0,1-0.8,1.9-2.2,1.9c-1.5,0-2.3-1-2.4-1.9L149,95c0.1,0.7,0.6,1.4,1.5,1.4c0.9,0,1.3-0.5,1.3-1
					c0-0.5-0.3-0.9-1-1l-0.9-0.2c-0.9-0.2-1.6-0.8-1.6-1.7c0-1,0.9-1.9,2.1-1.9c1.4,0,2,0.9,2.2,1.6L151.9,92.3z"/>
				<path class="st2" d="M154.6,97h-0.8v-6.5h0.8v2.7c0.3-0.5,0.8-0.6,1.3-0.6c1,0,1.5,0.7,1.5,1.7V97h-0.8v-2.6
					c0-0.6-0.3-1.1-1-1.1c-0.6,0-1,0.5-1,1.1V97z"/>
				<path class="st2" d="M162.5,95.8c-0.2,0.8-0.9,1.4-1.9,1.4c-1.2,0-2.2-0.8-2.2-2.3c0-1.4,1-2.3,2.1-2.3c1.3,0,2.1,0.9,2.1,2.3
					c0,0.1,0,0.2,0,0.3h-3.3c0,0.8,0.6,1.3,1.3,1.3c0.7,0,1.1-0.4,1.2-0.9L162.5,95.8z M161.7,94.4c0-0.6-0.4-1.1-1.2-1.1
					c-0.7,0-1.1,0.5-1.2,1.1H161.7z"/>
				<path class="st2" d="M166.7,97h-0.8v-6.5h0.8v2.7c0.3-0.5,0.8-0.6,1.3-0.6c1,0,1.5,0.7,1.5,1.7V97h-0.8v-2.6
					c0-0.6-0.3-1.1-1-1.1c-0.6,0-1,0.5-1,1.1V97z"/>
				<path class="st2" d="M171.9,94.5l1.2-0.2c0.3,0,0.3-0.2,0.3-0.3c0-0.4-0.3-0.8-0.9-0.8c-0.6,0-0.9,0.4-1,0.9l-0.8-0.2
					c0.1-0.8,0.8-1.4,1.8-1.4c1.3,0,1.8,0.7,1.8,1.6v2.2c0,0.4,0,0.6,0.1,0.7h-0.8c0-0.1,0-0.3,0-0.6c-0.2,0.3-0.6,0.7-1.4,0.7
					c-0.9,0-1.4-0.6-1.4-1.3C170.6,95.1,171.1,94.6,171.9,94.5z M173.4,95.1v-0.2l-1.3,0.2c-0.4,0.1-0.6,0.3-0.6,0.6
					c0,0.3,0.3,0.6,0.7,0.6C172.8,96.4,173.4,96.1,173.4,95.1z"/>
				<path class="st2" d="M175.9,95.6c0.1,0.5,0.4,0.8,1,0.8c0.5,0,0.7-0.3,0.7-0.6c0-0.3-0.2-0.5-0.6-0.6l-0.7-0.2
					c-0.7-0.1-1.1-0.6-1.1-1.2c0-0.7,0.7-1.4,1.5-1.4c1.2,0,1.6,0.8,1.6,1.2l-0.7,0.3c0-0.2-0.2-0.7-0.9-0.7c-0.4,0-0.7,0.3-0.7,0.6
					c0,0.3,0.2,0.5,0.5,0.5l0.7,0.2c0.8,0.2,1.2,0.6,1.2,1.3c0,0.6-0.5,1.3-1.6,1.3c-1.2,0-1.7-0.8-1.8-1.3L175.9,95.6z"/>
			</g>
			<g class="st1">
				<path class="st2" d="M10.7,108v-6.5h0.8v2.8c0.2-0.4,0.7-0.7,1.4-0.7c1.3,0,2,1,2,2.3c0,1.3-0.7,2.3-2,2.3
					c-0.6,0-1.1-0.3-1.4-0.7v0.6H10.7z M12.8,104.3c-0.7,0-1.3,0.6-1.3,1.5s0.5,1.5,1.3,1.5c0.8,0,1.3-0.6,1.3-1.5
					S13.6,104.3,12.8,104.3z"/>
				<path class="st2" d="M19.8,106.8c-0.2,0.8-0.9,1.4-1.9,1.4c-1.2,0-2.2-0.8-2.2-2.3c0-1.4,1-2.3,2.1-2.3c1.3,0,2.1,0.9,2.1,2.3
					c0,0.1,0,0.2,0,0.3h-3.3c0,0.8,0.6,1.3,1.3,1.3c0.7,0,1.1-0.4,1.2-0.9L19.8,106.8z M18.9,105.4c0-0.6-0.4-1.1-1.2-1.1
					c-0.7,0-1.1,0.5-1.2,1.1H18.9z"/>
				<path class="st2" d="M24.6,106.8c-0.2,0.8-0.9,1.4-1.9,1.4c-1.2,0-2.2-0.8-2.2-2.3c0-1.4,1-2.3,2.1-2.3c1.3,0,2.1,0.9,2.1,2.3
					c0,0.1,0,0.2,0,0.3h-3.3c0,0.8,0.6,1.3,1.3,1.3c0.7,0,1.1-0.4,1.2-0.9L24.6,106.8z M23.8,105.4c0-0.6-0.4-1.1-1.2-1.1
					c-0.7,0-1.1,0.5-1.2,1.1H23.8z"/>
				<path class="st2" d="M26.5,108h-0.8v-4.3h0.8v0.6c0.3-0.5,0.8-0.7,1.3-0.7c1,0,1.5,0.7,1.5,1.7v2.7h-0.8v-2.6
					c0-0.6-0.3-1.1-1-1.1c-0.7,0-1,0.5-1,1.2V108z"/>
				<path class="st2" d="M33.3,101.4c0.3,0,0.6,0.3,0.6,0.6c0,0.3-0.3,0.6-0.6,0.6c-0.3,0-0.6-0.3-0.6-0.6
					C32.7,101.7,33,101.4,33.3,101.4z M32.9,108v-4.3h0.8v4.3H32.9z"/>
				<path class="st2" d="M36,108h-0.8v-4.3H36v0.6c0.3-0.5,0.8-0.7,1.3-0.7c1,0,1.5,0.7,1.5,1.7v2.7H38v-2.6c0-0.6-0.3-1.1-1-1.1
					c-0.7,0-1,0.5-1,1.2V108z"/>
				<path class="st2" d="M42.1,108h-0.9l-1.8-4.3h1l1.2,3.3l1.2-3.3h0.9L42.1,108z"/>
				<path class="st2" d="M48.5,105.8c0,1.3-0.9,2.3-2.2,2.3s-2.2-1-2.2-2.3c0-1.3,0.9-2.3,2.2-2.3S48.5,104.5,48.5,105.8z
					 M47.7,105.8c0-1-0.6-1.5-1.4-1.5s-1.4,0.5-1.4,1.5c0,1,0.6,1.5,1.4,1.5S47.7,106.8,47.7,105.8z"/>
				<path class="st2" d="M49.6,108v-6.5h0.8v6.5H49.6z"/>
				<path class="st2" d="M53.8,108h-0.9l-1.8-4.3h1l1.2,3.3l1.2-3.3h0.9L53.8,108z"/>
				<path class="st2" d="M59.9,106.8c-0.2,0.8-0.9,1.4-1.9,1.4c-1.2,0-2.2-0.8-2.2-2.3c0-1.4,1-2.3,2.1-2.3c1.3,0,2.1,0.9,2.1,2.3
					c0,0.1,0,0.2,0,0.3h-3.3c0,0.8,0.6,1.3,1.3,1.3c0.7,0,1.1-0.4,1.2-0.9L59.9,106.8z M59.1,105.4c0-0.6-0.4-1.1-1.2-1.1
					c-0.7,0-1.1,0.5-1.2,1.1H59.1z"/>
				<path class="st2" d="M64,107.3c-0.2,0.4-0.7,0.8-1.3,0.8c-1.3,0-2.1-1-2.1-2.3c0-1.2,0.8-2.3,2.1-2.3c0.8,0,1.2,0.4,1.3,0.7
					v-2.8h0.8v5.7c0,0.4,0,0.7,0,0.8h-0.8C64.1,107.9,64,107.7,64,107.3L64,107.3z M62.8,107.4c0.8,0,1.3-0.7,1.3-1.6
					c0-0.9-0.5-1.5-1.2-1.5c-0.8,0-1.3,0.6-1.3,1.5S62,107.4,62.8,107.4z"/>
				<path class="st2" d="M68.9,101.4c0.3,0,0.6,0.3,0.6,0.6c0,0.3-0.3,0.6-0.6,0.6c-0.3,0-0.6-0.3-0.6-0.6
					C68.3,101.7,68.5,101.4,68.9,101.4z M68.4,108v-4.3h0.8v4.3H68.4z"/>
				<path class="st2" d="M71.5,108h-0.8v-4.3h0.8v0.6c0.3-0.5,0.8-0.7,1.3-0.7c1,0,1.5,0.7,1.5,1.7v2.7h-0.8v-2.6
					c0-0.6-0.3-1.1-1-1.1c-0.7,0-1,0.5-1,1.2V108z"/>
				<path class="st2" d="M78.9,105.5l1.2-0.2c0.3,0,0.3-0.2,0.3-0.3c0-0.4-0.3-0.8-0.9-0.8c-0.6,0-0.9,0.4-1,0.9l-0.8-0.2
					c0.1-0.8,0.8-1.4,1.8-1.4c1.3,0,1.8,0.7,1.8,1.6v2.2c0,0.4,0,0.6,0.1,0.7h-0.8c0-0.1,0-0.3,0-0.6c-0.2,0.3-0.6,0.7-1.4,0.7
					c-0.9,0-1.4-0.6-1.4-1.3C77.6,106.1,78.2,105.6,78.9,105.5z M80.4,106.1v-0.2l-1.3,0.2c-0.4,0.1-0.6,0.3-0.6,0.6
					c0,0.3,0.3,0.6,0.7,0.6C79.9,107.4,80.4,107.1,80.4,106.1z"/>
				<path class="st2" d="M85.9,103.7h0.9v0.8h-0.9v2.3c0,0.4,0.2,0.6,0.6,0.6c0.1,0,0.3,0,0.3,0v0.7c-0.1,0-0.3,0.1-0.6,0.1
					c-0.7,0-1.2-0.5-1.2-1.2v-2.4h-0.8v-0.8h0.2c0.5,0,0.7-0.3,0.7-0.7v-0.7h0.8V103.7z"/>
				<path class="st2" d="M91.9,105.8c0,1.3-0.9,2.3-2.2,2.3s-2.2-1-2.2-2.3c0-1.3,0.9-2.3,2.2-2.3S91.9,104.5,91.9,105.8z
					 M91.1,105.8c0-1-0.6-1.5-1.4-1.5s-1.4,0.5-1.4,1.5c0,1,0.6,1.5,1.4,1.5S91.1,106.8,91.1,105.8z"/>
				<path class="st2" d="M93.8,108H93v-4.3h0.8v0.6c0.3-0.5,0.8-0.7,1.3-0.7c1,0,1.5,0.7,1.5,1.7v2.7h-0.8v-2.6c0-0.6-0.3-1.1-1-1.1
					c-0.7,0-1,0.5-1,1.2V108z"/>
				<path class="st2" d="M104.3,105.8c0,1.3-0.9,2.3-2.2,2.3s-2.2-1-2.2-2.3c0-1.3,0.9-2.3,2.2-2.3S104.3,104.5,104.3,105.8z
					 M103.4,105.8c0-1-0.6-1.5-1.4-1.5s-1.4,0.5-1.4,1.5c0,1,0.6,1.5,1.4,1.5S103.4,106.8,103.4,105.8z"/>
				<path class="st2" d="M106.4,104.4v3.6h-0.9v-3.6h-0.8v-0.8h0.8v-0.7c0-1,0.6-1.5,1.4-1.5c0.3,0,0.5,0.1,0.5,0.1v0.8
					c0,0-0.2-0.1-0.4-0.1c-0.3,0-0.7,0.1-0.7,0.7v0.7h1v0.8H106.4z"/>
				<path class="st2" d="M111.4,108h-0.8v-6.5h0.8v2.7c0.3-0.5,0.8-0.6,1.3-0.6c1,0,1.5,0.7,1.5,1.7v2.7h-0.8v-2.6
					c0-0.6-0.3-1.1-1-1.1c-0.6,0-1,0.5-1,1.1V108z"/>
				<path class="st2" d="M116,101.4c0.3,0,0.6,0.3,0.6,0.6c0,0.3-0.3,0.6-0.6,0.6c-0.3,0-0.6-0.3-0.6-0.6
					C115.4,101.7,115.6,101.4,116,101.4z M115.6,108v-4.3h0.8v4.3H115.6z"/>
				<path class="st2" d="M118.3,108c0.1,0.6,0.5,1.1,1.2,1.1c0.9,0,1.3-0.5,1.3-1.4v-0.6c-0.2,0.4-0.7,0.7-1.3,0.7
					c-1.2,0-2-0.9-2-2.1c0-1.2,0.8-2.1,2-2.1c0.7,0,1.1,0.3,1.3,0.7v-0.6h0.8v4c0,1.1-0.5,2.2-2.2,2.2c-1.1,0-1.9-0.7-2-1.6
					L118.3,108z M120.8,105.7c0-0.8-0.5-1.4-1.2-1.4c-0.7,0-1.3,0.5-1.3,1.4c0,0.8,0.5,1.4,1.3,1.4
					C120.3,107.1,120.8,106.5,120.8,105.7z"/>
				<path class="st2" d="M123.8,108h-0.8v-6.5h0.8v2.7c0.3-0.5,0.8-0.6,1.3-0.6c1,0,1.5,0.7,1.5,1.7v2.7h-0.8v-2.6
					c0-0.6-0.3-1.1-1-1.1c-0.6,0-1,0.5-1,1.1V108z"/>
				<path class="st2" d="M127.6,105.8V105h2.4v0.7H127.6z"/>
				<path class="st2" d="M131.2,109.7v-6h0.8v0.7c0.2-0.4,0.7-0.8,1.4-0.8c1.3,0,2,1,2,2.3c0,1.3-0.7,2.3-2,2.3
					c-0.7,0-1.2-0.3-1.4-0.7v2.3H131.2z M133.3,104.3c-0.8,0-1.3,0.6-1.3,1.5c0,0.9,0.5,1.5,1.3,1.5c0.8,0,1.3-0.6,1.3-1.5
					C134.6,105,134.1,104.3,133.3,104.3z"/>
				<path class="st2" d="M138.9,104.5c-0.1,0-0.3,0-0.4,0c-0.7,0-1.2,0.4-1.2,1.3v2.2h-0.8v-4.3h0.8v0.8c0.3-0.7,0.9-0.8,1.3-0.8
					c0.1,0,0.2,0,0.3,0V104.5z"/>
				<path class="st2" d="M143.7,105.8c0,1.3-0.9,2.3-2.2,2.3c-1.3,0-2.2-1-2.2-2.3c0-1.3,0.9-2.3,2.2-2.3
					C142.8,103.5,143.7,104.5,143.7,105.8z M142.9,105.8c0-1-0.6-1.5-1.4-1.5c-0.7,0-1.3,0.5-1.3,1.5c0,1,0.6,1.5,1.3,1.5
					C142.2,107.4,142.9,106.8,142.9,105.8z"/>
				<path class="st2" d="M147,101.5v0.8c0,0-0.2-0.1-0.4-0.1c-0.3,0-0.7,0.1-0.7,0.7v0.7h2.9v4.3h-0.8v-3.6h-2v3.6H145v-3.6h-0.8
					v-0.8h0.8v-0.7c0-1,0.6-1.5,1.4-1.5C146.7,101.5,146.9,101.5,147,101.5z M148.3,101.4c0.3,0,0.6,0.3,0.6,0.6
					c0,0.3-0.3,0.6-0.6,0.6c-0.3,0-0.6-0.3-0.6-0.6C147.7,101.7,148,101.4,148.3,101.4z"/>
				<path class="st2" d="M150.2,108v-6.5h0.8v6.5H150.2z"/>
				<path class="st2" d="M156.2,106.8c-0.2,0.8-0.9,1.4-1.9,1.4c-1.2,0-2.2-0.8-2.2-2.3c0-1.4,1-2.3,2.1-2.3c1.3,0,2.1,0.9,2.1,2.3
					c0,0.1,0,0.2,0,0.3h-3.3c0,0.8,0.6,1.3,1.3,1.3c0.7,0,1.1-0.4,1.2-0.9L156.2,106.8z M155.3,105.4c0-0.6-0.4-1.1-1.2-1.1
					c-0.7,0-1.1,0.5-1.2,1.1H155.3z"/>
				<path class="st2" d="M159.9,105.8c0,1,0.6,1.5,1.3,1.5c0.8,0,1.1-0.5,1.2-0.9l0.7,0.3c-0.2,0.6-0.8,1.4-2,1.4
					c-1.3,0-2.2-1-2.2-2.3c0-1.4,0.9-2.3,2.2-2.3c1.2,0,1.7,0.7,1.9,1.4l-0.8,0.3c-0.1-0.4-0.4-0.9-1.2-0.9
					C160.6,104.3,159.9,104.8,159.9,105.8z"/>
				<path class="st2" d="M165.2,105.5l1.2-0.2c0.3,0,0.3-0.2,0.3-0.3c0-0.4-0.3-0.8-0.9-0.8c-0.6,0-0.9,0.4-1,0.9l-0.8-0.2
					c0.1-0.8,0.8-1.4,1.8-1.4c1.3,0,1.8,0.7,1.8,1.6v2.2c0,0.4,0,0.6,0.1,0.7h-0.8c0-0.1,0-0.3,0-0.6c-0.2,0.3-0.6,0.7-1.4,0.7
					c-0.9,0-1.4-0.6-1.4-1.3C163.8,106.1,164.4,105.6,165.2,105.5z M166.7,106.1v-0.2l-1.3,0.2c-0.4,0.1-0.6,0.3-0.6,0.6
					c0,0.3,0.3,0.6,0.7,0.6C166.1,107.4,166.7,107.1,166.7,106.1z"/>
				<path class="st2" d="M169.1,106.6c0.1,0.5,0.4,0.8,1,0.8c0.5,0,0.7-0.3,0.7-0.6c0-0.3-0.2-0.5-0.6-0.6l-0.7-0.2
					c-0.7-0.1-1.1-0.6-1.1-1.2c0-0.7,0.7-1.4,1.5-1.4c1.2,0,1.6,0.8,1.6,1.2l-0.7,0.3c0-0.2-0.2-0.7-0.9-0.7c-0.4,0-0.7,0.3-0.7,0.6
					c0,0.3,0.2,0.5,0.5,0.5l0.7,0.2c0.8,0.2,1.2,0.6,1.2,1.3c0,0.6-0.5,1.3-1.6,1.3c-1.2,0-1.7-0.8-1.8-1.3L169.1,106.6z"/>
				<path class="st2" d="M176.5,106.8c-0.2,0.8-0.9,1.4-1.9,1.4c-1.2,0-2.2-0.8-2.2-2.3c0-1.4,1-2.3,2.1-2.3c1.3,0,2.1,0.9,2.1,2.3
					c0,0.1,0,0.2,0,0.3h-3.3c0,0.8,0.6,1.3,1.3,1.3c0.7,0,1.1-0.4,1.2-0.9L176.5,106.8z M175.7,105.4c0-0.6-0.4-1.1-1.2-1.1
					c-0.7,0-1.1,0.5-1.2,1.1H175.7z"/>
				<path class="st2" d="M177.9,106.6c0.1,0.5,0.4,0.8,1,0.8c0.5,0,0.7-0.3,0.7-0.6c0-0.3-0.2-0.5-0.6-0.6l-0.7-0.2
					c-0.7-0.1-1.1-0.6-1.1-1.2c0-0.7,0.7-1.4,1.5-1.4c1.2,0,1.6,0.8,1.6,1.2l-0.7,0.3c0-0.2-0.2-0.7-0.9-0.7c-0.4,0-0.7,0.3-0.7,0.6
					c0,0.3,0.2,0.5,0.5,0.5l0.7,0.2c0.8,0.2,1.2,0.6,1.2,1.3c0,0.6-0.5,1.3-1.6,1.3c-1.2,0-1.7-0.8-1.8-1.3L177.9,106.6z"/>
				<path class="st2" d="M182.2,106.8c0.4,0,0.7,0.3,0.7,0.9c0,1.2-0.8,1.7-1.3,1.8V109c0.4-0.1,0.7-0.5,0.7-1c0,0-0.1,0-0.2,0
					c-0.3,0-0.6-0.2-0.6-0.6C181.5,107.1,181.8,106.8,182.2,106.8z"/>
			</g>
			<g class="st1">
				<path class="st2" d="M10.7,119v-4.3h0.8v0.6c0.3-0.5,0.8-0.7,1.3-0.7c0.5,0,1.1,0.3,1.3,0.8c0.3-0.6,0.9-0.8,1.4-0.8
					c0.8,0,1.5,0.5,1.5,1.6v2.8h-0.8v-2.7c0-0.6-0.3-1-0.9-1c-0.6,0-1,0.5-1,1.1v2.6h-0.8v-2.7c0-0.6-0.3-1-0.9-1
					c-0.6,0-1,0.5-1,1.1v2.6H10.7z"/>
				<path class="st2" d="M22.5,116.8c0,1.3-0.9,2.3-2.2,2.3s-2.2-1-2.2-2.3c0-1.3,0.9-2.3,2.2-2.3S22.5,115.5,22.5,116.8z
					 M21.6,116.8c0-1-0.6-1.5-1.4-1.5s-1.4,0.5-1.4,1.5c0,1,0.6,1.5,1.4,1.5S21.6,117.8,21.6,116.8z"/>
				<path class="st2" d="M23.9,117.6c0.1,0.5,0.4,0.8,1,0.8c0.5,0,0.7-0.3,0.7-0.6c0-0.3-0.2-0.5-0.6-0.6l-0.7-0.2
					c-0.7-0.1-1.1-0.6-1.1-1.2c0-0.7,0.7-1.4,1.5-1.4c1.2,0,1.6,0.8,1.6,1.2l-0.7,0.3c0-0.2-0.2-0.7-0.9-0.7c-0.4,0-0.7,0.3-0.7,0.6
					c0,0.3,0.2,0.5,0.5,0.5l0.7,0.2c0.8,0.2,1.2,0.6,1.2,1.3c0,0.6-0.5,1.3-1.6,1.3c-1.2,0-1.7-0.8-1.8-1.3L23.9,117.6z"/>
				<path class="st2" d="M28.6,114.7h0.9v0.8h-0.9v2.3c0,0.4,0.2,0.6,0.6,0.6c0.1,0,0.3,0,0.3,0v0.7c-0.1,0-0.3,0.1-0.6,0.1
					c-0.7,0-1.2-0.5-1.2-1.2v-2.4H27v-0.8h0.2c0.5,0,0.7-0.3,0.7-0.7v-0.7h0.8V114.7z"/>
				<path class="st2" d="M33.7,119h-0.8v-4.3h0.8v0.6c0.3-0.5,0.8-0.7,1.3-0.7c1,0,1.5,0.7,1.5,1.7v2.7h-0.8v-2.6
					c0-0.6-0.3-1.1-1-1.1c-0.7,0-1,0.5-1,1.2V119z"/>
				<path class="st2" d="M42,116.8c0,1.3-0.9,2.3-2.2,2.3s-2.2-1-2.2-2.3c0-1.3,0.9-2.3,2.2-2.3S42,115.5,42,116.8z M41.1,116.8
					c0-1-0.6-1.5-1.4-1.5s-1.4,0.5-1.4,1.5c0,1,0.6,1.5,1.4,1.5S41.1,117.8,41.1,116.8z"/>
				<path class="st2" d="M44.1,114.7H45v0.8h-0.9v2.3c0,0.4,0.2,0.6,0.6,0.6c0.1,0,0.3,0,0.3,0v0.7c-0.1,0-0.3,0.1-0.6,0.1
					c-0.7,0-1.2-0.5-1.2-1.2v-2.4h-0.8v-0.8h0.2c0.5,0,0.7-0.3,0.7-0.7v-0.7h0.8V114.7z"/>
				<path class="st2" d="M47.1,116.5l1.2-0.2c0.3,0,0.3-0.2,0.3-0.3c0-0.4-0.3-0.8-0.9-0.8c-0.6,0-0.9,0.4-1,0.9l-0.8-0.2
					c0.1-0.8,0.8-1.4,1.8-1.4c1.3,0,1.8,0.7,1.8,1.6v2.2c0,0.4,0,0.6,0.1,0.7h-0.8c0-0.1,0-0.3,0-0.6c-0.2,0.3-0.6,0.7-1.4,0.7
					c-0.9,0-1.4-0.6-1.4-1.3C45.8,117.1,46.4,116.6,47.1,116.5z M48.6,117.1v-0.2l-1.3,0.2c-0.4,0.1-0.6,0.3-0.6,0.6
					c0,0.3,0.3,0.6,0.7,0.6C48.1,118.4,48.6,118.1,48.6,117.1z"/>
				<path class="st2" d="M50.8,119v-6.5h0.8v2.8c0.2-0.4,0.7-0.7,1.4-0.7c1.3,0,2,1,2,2.3c0,1.3-0.7,2.3-2,2.3
					c-0.6,0-1.1-0.3-1.4-0.7v0.6H50.8z M52.9,115.3c-0.7,0-1.3,0.6-1.3,1.5s0.5,1.5,1.3,1.5c0.8,0,1.3-0.6,1.3-1.5
					S53.7,115.3,52.9,115.3z"/>
				<path class="st2" d="M56,119v-6.5h0.8v6.5H56z"/>
				<path class="st2" d="M58.4,120.8l1.1-2.3l-1.9-3.9h1l1.4,3l1.3-3h0.9l-2.8,6.1H58.4z"/>
				<path class="st2" d="M67.6,115.5c-0.1,0-0.3,0-0.4,0c-0.7,0-1.2,0.4-1.2,1.3v2.2h-0.8v-4.3H66v0.8c0.3-0.7,0.9-0.8,1.3-0.8
					c0.1,0,0.2,0,0.3,0V115.5z"/>
				<path class="st2" d="M72.1,117.8c-0.2,0.8-0.9,1.4-1.9,1.4c-1.2,0-2.2-0.8-2.2-2.3c0-1.4,1-2.3,2.1-2.3c1.3,0,2.1,0.9,2.1,2.3
					c0,0.1,0,0.2,0,0.3h-3.3c0,0.8,0.6,1.3,1.3,1.3c0.7,0,1.1-0.4,1.2-0.9L72.1,117.8z M71.3,116.4c0-0.6-0.4-1.1-1.2-1.1
					c-0.7,0-1.1,0.5-1.2,1.1H71.3z"/>
				<path class="st2" d="M73.2,120.7v-6H74v0.7c0.2-0.4,0.7-0.8,1.4-0.8c1.3,0,2,1,2,2.3c0,1.3-0.7,2.3-2,2.3
					c-0.7,0-1.2-0.3-1.4-0.7v2.3H73.2z M75.3,115.3c-0.8,0-1.3,0.6-1.3,1.5c0,0.9,0.5,1.5,1.3,1.5c0.8,0,1.3-0.6,1.3-1.5
					C76.6,116,76.1,115.3,75.3,115.3z"/>
				<path class="st2" d="M80.9,115.5c-0.1,0-0.3,0-0.4,0c-0.7,0-1.2,0.4-1.2,1.3v2.2h-0.8v-4.3h0.8v0.8c0.3-0.7,0.9-0.8,1.3-0.8
					c0.1,0,0.2,0,0.3,0V115.5z"/>
				<path class="st2" d="M85.5,117.8c-0.2,0.8-0.9,1.4-1.9,1.4c-1.2,0-2.2-0.8-2.2-2.3c0-1.4,1-2.3,2.1-2.3c1.3,0,2.1,0.9,2.1,2.3
					c0,0.1,0,0.2,0,0.3h-3.3c0,0.8,0.6,1.3,1.3,1.3c0.7,0,1.1-0.4,1.2-0.9L85.5,117.8z M84.6,116.4c0-0.6-0.4-1.1-1.2-1.1
					c-0.7,0-1.1,0.5-1.2,1.1H84.6z"/>
				<path class="st2" d="M86.9,117.6c0.1,0.5,0.4,0.8,1,0.8c0.5,0,0.7-0.3,0.7-0.6c0-0.3-0.2-0.5-0.6-0.6l-0.7-0.2
					c-0.7-0.1-1.1-0.6-1.1-1.2c0-0.7,0.7-1.4,1.5-1.4c1.2,0,1.6,0.8,1.6,1.2l-0.7,0.3c0-0.2-0.2-0.7-0.9-0.7c-0.4,0-0.7,0.3-0.7,0.6
					c0,0.3,0.2,0.5,0.5,0.5l0.7,0.2c0.8,0.2,1.2,0.6,1.2,1.3c0,0.6-0.5,1.3-1.6,1.3c-1.2,0-1.7-0.8-1.8-1.3L86.9,117.6z"/>
				<path class="st2" d="M94.3,117.8c-0.2,0.8-0.9,1.4-1.9,1.4c-1.2,0-2.2-0.8-2.2-2.3c0-1.4,1-2.3,2.1-2.3c1.3,0,2.1,0.9,2.1,2.3
					c0,0.1,0,0.2,0,0.3H91c0,0.8,0.6,1.3,1.3,1.3c0.7,0,1.1-0.4,1.2-0.9L94.3,117.8z M93.4,116.4c0-0.6-0.4-1.1-1.2-1.1
					c-0.7,0-1.1,0.5-1.2,1.1H93.4z"/>
				<path class="st2" d="M96.2,119h-0.8v-4.3h0.8v0.6c0.3-0.5,0.8-0.7,1.3-0.7c1,0,1.5,0.7,1.5,1.7v2.7h-0.8v-2.6
					c0-0.6-0.3-1.1-1-1.1c-0.7,0-1,0.5-1,1.2V119z"/>
				<path class="st2" d="M101.5,114.7h0.9v0.8h-0.9v2.3c0,0.4,0.2,0.6,0.6,0.6c0.1,0,0.3,0,0.3,0v0.7c-0.1,0-0.3,0.1-0.6,0.1
					c-0.7,0-1.2-0.5-1.2-1.2v-2.4h-0.8v-0.8h0.2c0.5,0,0.7-0.3,0.7-0.7v-0.7h0.8V114.7z"/>
				<path class="st2" d="M103.9,112.4c0.3,0,0.6,0.3,0.6,0.6c0,0.3-0.3,0.6-0.6,0.6c-0.3,0-0.6-0.3-0.6-0.6
					C103.3,112.7,103.6,112.4,103.9,112.4z M103.5,119v-4.3h0.8v4.3H103.5z"/>
				<path class="st2" d="M106.6,119h-0.8v-4.3h0.8v0.6c0.3-0.5,0.8-0.7,1.3-0.7c1,0,1.5,0.7,1.5,1.7v2.7h-0.8v-2.6
					c0-0.6-0.3-1.1-1-1.1c-0.7,0-1,0.5-1,1.2V119z"/>
				<path class="st2" d="M111.3,119c0.1,0.6,0.5,1.1,1.2,1.1c0.9,0,1.3-0.5,1.3-1.4v-0.6c-0.2,0.4-0.7,0.7-1.3,0.7
					c-1.2,0-2-0.9-2-2.1c0-1.2,0.8-2.1,2-2.1c0.7,0,1.1,0.3,1.3,0.7v-0.6h0.8v4c0,1.1-0.5,2.2-2.2,2.2c-1.1,0-1.9-0.7-2-1.6
					L111.3,119z M113.8,116.7c0-0.8-0.5-1.4-1.2-1.4c-0.7,0-1.3,0.5-1.3,1.4c0,0.8,0.5,1.4,1.3,1.4
					C113.3,118.1,113.8,117.5,113.8,116.7z"/>
				<path class="st2" d="M119.2,114.7h0.9v0.8h-0.9v2.3c0,0.4,0.2,0.6,0.6,0.6c0.1,0,0.3,0,0.3,0v0.7c-0.1,0-0.3,0.1-0.6,0.1
					c-0.7,0-1.2-0.5-1.2-1.2v-2.4h-0.8v-0.8h0.2c0.5,0,0.7-0.3,0.7-0.7v-0.7h0.8V114.7z"/>
				<path class="st2" d="M122.1,119h-0.8v-6.5h0.8v2.7c0.3-0.5,0.8-0.6,1.3-0.6c1,0,1.5,0.7,1.5,1.7v2.7h-0.8v-2.6
					c0-0.6-0.3-1.1-1-1.1c-0.6,0-1,0.5-1,1.1V119z"/>
				<path class="st2" d="M130.1,117.8c-0.2,0.8-0.9,1.4-1.9,1.4c-1.2,0-2.2-0.8-2.2-2.3c0-1.4,1-2.3,2.1-2.3c1.3,0,2.1,0.9,2.1,2.3
					c0,0.1,0,0.2,0,0.3h-3.3c0,0.8,0.6,1.3,1.3,1.3c0.7,0,1.1-0.4,1.2-0.9L130.1,117.8z M129.2,116.4c0-0.6-0.4-1.1-1.2-1.1
					c-0.7,0-1.1,0.5-1.2,1.1H129.2z"/>
				<path class="st2" d="M133.7,117.6c0.1,0.5,0.4,0.8,1,0.8c0.5,0,0.7-0.3,0.7-0.6c0-0.3-0.2-0.5-0.6-0.6l-0.7-0.2
					c-0.7-0.1-1.1-0.6-1.1-1.2c0-0.7,0.7-1.4,1.5-1.4c1.2,0,1.6,0.8,1.6,1.2l-0.7,0.3c0-0.2-0.2-0.7-0.9-0.7c-0.4,0-0.7,0.3-0.7,0.6
					c0,0.3,0.2,0.5,0.5,0.5l0.7,0.2c0.8,0.2,1.2,0.6,1.2,1.3c0,0.6-0.5,1.3-1.6,1.3c-1.2,0-1.7-0.8-1.8-1.3L133.7,117.6z"/>
				<path class="st2" d="M138.5,114.7h0.9v0.8h-0.9v2.3c0,0.4,0.2,0.6,0.6,0.6c0.1,0,0.3,0,0.3,0v0.7c-0.1,0-0.3,0.1-0.6,0.1
					c-0.7,0-1.2-0.5-1.2-1.2v-2.4h-0.8v-0.8h0.2c0.5,0,0.7-0.3,0.7-0.7v-0.7h0.8V114.7z"/>
				<path class="st2" d="M141.5,116.5l1.2-0.2c0.3,0,0.3-0.2,0.3-0.3c0-0.4-0.3-0.8-0.9-0.8c-0.6,0-0.9,0.4-1,0.9l-0.8-0.2
					c0.1-0.8,0.8-1.4,1.8-1.4c1.3,0,1.8,0.7,1.8,1.6v2.2c0,0.4,0,0.6,0.1,0.7h-0.8c0-0.1,0-0.3,0-0.6c-0.2,0.3-0.6,0.7-1.4,0.7
					c-0.9,0-1.4-0.6-1.4-1.3C140.2,117.1,140.8,116.6,141.5,116.5z M143,117.1v-0.2l-1.3,0.2c-0.4,0.1-0.6,0.3-0.6,0.6
					c0,0.3,0.3,0.6,0.7,0.6C142.5,118.4,143,118.1,143,117.1z"/>
				<path class="st2" d="M146.3,114.7h0.9v0.8h-0.9v2.3c0,0.4,0.2,0.6,0.6,0.6c0.1,0,0.3,0,0.3,0v0.7c-0.1,0-0.3,0.1-0.6,0.1
					c-0.7,0-1.2-0.5-1.2-1.2v-2.4h-0.8v-0.8h0.2c0.5,0,0.7-0.3,0.7-0.7v-0.7h0.8V114.7z"/>
				<path class="st2" d="M152,117.8c-0.2,0.8-0.9,1.4-1.9,1.4c-1.2,0-2.2-0.8-2.2-2.3c0-1.4,1-2.3,2.1-2.3c1.3,0,2.1,0.9,2.1,2.3
					c0,0.1,0,0.2,0,0.3h-3.3c0,0.8,0.6,1.3,1.3,1.3c0.7,0,1.1-0.4,1.2-0.9L152,117.8z M151.2,116.4c0-0.6-0.4-1.1-1.2-1.1
					c-0.7,0-1.1,0.5-1.2,1.1H151.2z"/>
				<path class="st2" d="M159.4,116.8c0,1.3-0.9,2.3-2.2,2.3s-2.2-1-2.2-2.3c0-1.3,0.9-2.3,2.2-2.3S159.4,115.5,159.4,116.8z
					 M158.5,116.8c0-1-0.6-1.5-1.4-1.5s-1.4,0.5-1.4,1.5c0,1,0.6,1.5,1.4,1.5S158.5,117.8,158.5,116.8z"/>
				<path class="st2" d="M161.5,115.4v3.6h-0.9v-3.6h-0.8v-0.8h0.8v-0.7c0-1,0.6-1.5,1.4-1.5c0.3,0,0.5,0.1,0.5,0.1v0.8
					c0,0-0.2-0.1-0.4-0.1c-0.3,0-0.7,0.1-0.7,0.7v0.7h1v0.8H161.5z"/>
			</g>
			<g class="st1">
				<path class="st2" d="M10.4,126.8c0-2.1,1.6-3.3,3.2-3.3c1.5,0,2.5,0.8,2.8,2l-0.8,0.3c-0.2-1-0.9-1.5-2-1.5
					c-1.2,0-2.3,0.8-2.3,2.5c0,1.7,1.1,2.5,2.3,2.5c1.1,0,1.8-0.7,2-1.5l0.8,0.3c-0.3,1.2-1.4,2.1-2.8,2.1
					C11.9,130.1,10.4,128.9,10.4,126.8z"/>
				<path class="st2" d="M18.3,127.5l1.2-0.2c0.3,0,0.3-0.2,0.3-0.3c0-0.4-0.3-0.8-0.9-0.8c-0.6,0-0.9,0.4-1,0.9l-0.8-0.2
					c0.1-0.8,0.8-1.4,1.8-1.4c1.3,0,1.8,0.7,1.8,1.6v2.2c0,0.4,0,0.6,0.1,0.7h-0.8c0-0.1,0-0.3,0-0.6c-0.2,0.3-0.6,0.7-1.4,0.7
					c-0.9,0-1.4-0.6-1.4-1.3C17,128.1,17.5,127.6,18.3,127.5z M19.8,128.1v-0.2l-1.3,0.2c-0.4,0.1-0.6,0.3-0.6,0.6
					c0,0.3,0.3,0.6,0.7,0.6C19.2,129.4,19.8,129.1,19.8,128.1z"/>
				<path class="st2" d="M21.9,130v-4.3h0.8v0.6c0.3-0.5,0.8-0.7,1.3-0.7c0.5,0,1.1,0.3,1.3,0.8c0.3-0.6,0.9-0.8,1.4-0.8
					c0.8,0,1.5,0.5,1.5,1.6v2.8h-0.8v-2.7c0-0.6-0.3-1-0.9-1c-0.6,0-1,0.5-1,1.1v2.6h-0.8v-2.7c0-0.6-0.3-1-0.9-1
					c-0.6,0-1,0.5-1,1.1v2.6H21.9z"/>
				<path class="st2" d="M29.6,130v-6.5h0.8v2.8c0.2-0.4,0.7-0.7,1.4-0.7c1.3,0,2,1,2,2.3c0,1.3-0.7,2.3-2,2.3
					c-0.6,0-1.1-0.3-1.4-0.7v0.6H29.6z M31.7,126.3c-0.7,0-1.3,0.6-1.3,1.5s0.5,1.5,1.3,1.5c0.8,0,1.3-0.6,1.3-1.5
					S32.5,126.3,31.7,126.3z"/>
				<path class="st2" d="M38.9,127.8c0,1.3-0.9,2.3-2.2,2.3s-2.2-1-2.2-2.3c0-1.3,0.9-2.3,2.2-2.3S38.9,126.5,38.9,127.8z
					 M38.1,127.8c0-1-0.6-1.5-1.4-1.5s-1.4,0.5-1.4,1.5c0,1,0.6,1.5,1.4,1.5S38.1,128.8,38.1,127.8z"/>
				<path class="st2" d="M43,129.3c-0.2,0.4-0.7,0.8-1.3,0.8c-1.3,0-2.1-1-2.1-2.3c0-1.2,0.8-2.3,2.1-2.3c0.8,0,1.2,0.4,1.3,0.7
					v-2.8h0.8v5.7c0,0.4,0,0.7,0,0.8H43C43,129.9,43,129.7,43,129.3L43,129.3z M41.7,129.4c0.8,0,1.3-0.7,1.3-1.6
					c0-0.9-0.5-1.5-1.2-1.5c-0.8,0-1.3,0.6-1.3,1.5S40.9,129.4,41.7,129.4z"/>
				<path class="st2" d="M45.6,123.4c0.3,0,0.6,0.3,0.6,0.6c0,0.3-0.3,0.6-0.6,0.6c-0.3,0-0.6-0.3-0.6-0.6
					C45,123.7,45.3,123.4,45.6,123.4z M45.2,130v-4.3h0.8v4.3H45.2z"/>
				<path class="st2" d="M48.5,127.5l1.2-0.2c0.3,0,0.3-0.2,0.3-0.3c0-0.4-0.3-0.8-0.9-0.8c-0.6,0-0.9,0.4-1,0.9l-0.8-0.2
					c0.1-0.8,0.8-1.4,1.8-1.4c1.3,0,1.8,0.7,1.8,1.6v2.2c0,0.4,0,0.6,0.1,0.7h-0.8c0-0.1,0-0.3,0-0.6c-0.2,0.3-0.6,0.7-1.4,0.7
					c-0.9,0-1.4-0.6-1.4-1.3C47.2,128.1,47.7,127.6,48.5,127.5z M50,128.1v-0.2l-1.3,0.2c-0.4,0.1-0.6,0.3-0.6,0.6
					c0,0.3,0.3,0.6,0.7,0.6C49.4,129.4,50,129.1,50,128.1z"/>
				<path class="st2" d="M52.7,128.8c0.4,0,0.7,0.3,0.7,0.9c0,1.2-0.8,1.7-1.3,1.8V131c0.4-0.1,0.7-0.5,0.7-1c0,0-0.1,0-0.2,0
					c-0.3,0-0.6-0.2-0.6-0.6C52,129.1,52.3,128.8,52.7,128.8z"/>
				<path class="st2" d="M58.1,125.7H59v0.8h-0.9v2.3c0,0.4,0.2,0.6,0.6,0.6c0.1,0,0.3,0,0.3,0v0.7c-0.1,0-0.3,0.1-0.6,0.1
					c-0.7,0-1.2-0.5-1.2-1.2v-2.4h-0.8v-0.8h0.2c0.5,0,0.7-0.3,0.7-0.7v-0.7h0.8V125.7z"/>
				<path class="st2" d="M60.9,130h-0.8v-6.5h0.8v2.7c0.3-0.5,0.8-0.6,1.3-0.6c1,0,1.5,0.7,1.5,1.7v2.7h-0.8v-2.6
					c0-0.6-0.3-1.1-1-1.1c-0.6,0-1,0.5-1,1.1V130z"/>
				<path class="st2" d="M68.9,128.8c-0.2,0.8-0.9,1.4-1.9,1.4c-1.2,0-2.2-0.8-2.2-2.3c0-1.4,1-2.3,2.1-2.3c1.3,0,2.1,0.9,2.1,2.3
					c0,0.1,0,0.2,0,0.3h-3.3c0,0.8,0.6,1.3,1.3,1.3c0.7,0,1.1-0.4,1.2-0.9L68.9,128.8z M68,127.4c0-0.6-0.4-1.1-1.2-1.1
					c-0.7,0-1.1,0.5-1.2,1.1H68z"/>
				<path class="st2" d="M73.3,126.4v3.6h-0.9v-3.6h-0.8v-0.8h0.8v-0.7c0-1,0.6-1.5,1.4-1.5c0.3,0,0.5,0.1,0.5,0.1v0.8
					c0,0-0.2-0.1-0.4-0.1c-0.3,0-0.7,0.1-0.7,0.7v0.7h1v0.8H73.3z"/>
				<path class="st2" d="M79,127.8c0,1.3-0.9,2.3-2.2,2.3s-2.2-1-2.2-2.3c0-1.3,0.9-2.3,2.2-2.3S79,126.5,79,127.8z M78.2,127.8
					c0-1-0.6-1.5-1.4-1.5s-1.4,0.5-1.4,1.5c0,1,0.6,1.5,1.4,1.5S78.2,128.8,78.2,127.8z"/>
				<path class="st2" d="M82.5,126.5c-0.1,0-0.3,0-0.4,0c-0.7,0-1.2,0.4-1.2,1.3v2.2h-0.8v-4.3h0.8v0.8c0.3-0.7,0.9-0.8,1.3-0.8
					c0.1,0,0.2,0,0.3,0V126.5z"/>
				<path class="st2" d="M83.3,130v-4.3h0.8v0.6c0.3-0.5,0.8-0.7,1.3-0.7c0.5,0,1.1,0.3,1.3,0.8c0.3-0.6,0.9-0.8,1.4-0.8
					c0.8,0,1.5,0.5,1.5,1.6v2.8h-0.8v-2.7c0-0.6-0.3-1-0.9-1c-0.6,0-1,0.5-1,1.1v2.6h-0.8v-2.7c0-0.6-0.3-1-0.9-1
					c-0.6,0-1,0.5-1,1.1v2.6H83.3z"/>
				<path class="st2" d="M94.8,128.8c-0.2,0.8-0.9,1.4-1.9,1.4c-1.2,0-2.2-0.8-2.2-2.3c0-1.4,1-2.3,2.1-2.3c1.3,0,2.1,0.9,2.1,2.3
					c0,0.1,0,0.2,0,0.3h-3.3c0,0.8,0.6,1.3,1.3,1.3c0.7,0,1.1-0.4,1.2-0.9L94.8,128.8z M93.9,127.4c0-0.6-0.4-1.1-1.2-1.1
					c-0.7,0-1.1,0.5-1.2,1.1H93.9z"/>
				<path class="st2" d="M98.2,126.5c-0.1,0-0.3,0-0.4,0c-0.7,0-1.2,0.4-1.2,1.3v2.2h-0.8v-4.3h0.8v0.8c0.3-0.7,0.9-0.8,1.3-0.8
					c0.1,0,0.2,0,0.3,0V126.5z"/>
				<path class="st2" d="M101.4,130v-6.4h0.9v5.6h3v0.8H101.4z"/>
				<path class="st2" d="M106.6,123.4c0.3,0,0.6,0.3,0.6,0.6c0,0.3-0.3,0.6-0.6,0.6c-0.3,0-0.6-0.3-0.6-0.6
					C106,123.7,106.3,123.4,106.6,123.4z M106.2,130v-4.3h0.8v4.3H106.2z"/>
				<path class="st2" d="M108.4,130v-6.5h0.8v2.8c0.2-0.4,0.7-0.7,1.4-0.7c1.3,0,2,1,2,2.3c0,1.3-0.7,2.3-2,2.3
					c-0.6,0-1.1-0.3-1.4-0.7v0.6H108.4z M110.5,126.3c-0.7,0-1.3,0.6-1.3,1.5s0.5,1.5,1.3,1.5c0.8,0,1.3-0.6,1.3-1.5
					S111.3,126.3,110.5,126.3z"/>
				<path class="st2" d="M113.7,131.8l1.1-2.3l-1.9-3.9h1l1.4,3l1.3-3h0.9l-2.8,6.1H113.7z"/>
				<path class="st2" d="M119.1,127.5l1.2-0.2c0.3,0,0.3-0.2,0.3-0.3c0-0.4-0.3-0.8-0.9-0.8c-0.6,0-0.9,0.4-1,0.9l-0.8-0.2
					c0.1-0.8,0.8-1.4,1.8-1.4c1.3,0,1.8,0.7,1.8,1.6v2.2c0,0.4,0,0.6,0.1,0.7h-0.8c0-0.1,0-0.3,0-0.6c-0.2,0.3-0.6,0.7-1.4,0.7
					c-0.9,0-1.4-0.6-1.4-1.3C117.8,128.1,118.4,127.6,119.1,127.5z M120.6,128.1v-0.2l-1.3,0.2c-0.4,0.1-0.6,0.3-0.6,0.6
					c0,0.3,0.3,0.6,0.7,0.6C120.1,129.4,120.6,129.1,120.6,128.1z"/>
				<path class="st2" d="M123.6,130h-0.8v-4.3h0.8v0.6c0.3-0.5,0.8-0.7,1.3-0.7c1,0,1.5,0.7,1.5,1.7v2.7h-0.8v-2.6
					c0-0.6-0.3-1.1-1-1.1c-0.7,0-1,0.5-1,1.2V130z"/>
				<path class="st2" d="M130,130v-6.4h0.9v6.4H130z"/>
				<path class="st2" d="M133.3,130h-0.8v-4.3h0.8v0.6c0.3-0.5,0.8-0.7,1.3-0.7c1,0,1.5,0.7,1.5,1.7v2.7h-0.8v-2.6
					c0-0.6-0.3-1.1-1-1.1c-0.7,0-1,0.5-1,1.2V130z"/>
				<path class="st2" d="M138.6,125.7h0.9v0.8h-0.9v2.3c0,0.4,0.2,0.6,0.6,0.6c0.1,0,0.3,0,0.3,0v0.7c-0.1,0-0.3,0.1-0.6,0.1
					c-0.7,0-1.2-0.5-1.2-1.2v-2.4h-0.8v-0.8h0.2c0.5,0,0.7-0.3,0.7-0.7v-0.7h0.8V125.7z"/>
				<path class="st2" d="M144.3,128.8c-0.2,0.8-0.9,1.4-1.9,1.4c-1.2,0-2.2-0.8-2.2-2.3c0-1.4,1-2.3,2.1-2.3c1.3,0,2.1,0.9,2.1,2.3
					c0,0.1,0,0.2,0,0.3h-3.3c0,0.8,0.6,1.3,1.3,1.3c0.7,0,1.1-0.4,1.2-0.9L144.3,128.8z M143.5,127.4c0-0.6-0.4-1.1-1.2-1.1
					c-0.7,0-1.1,0.5-1.2,1.1H143.5z"/>
				<path class="st2" d="M145.4,130v-6.5h0.8v6.5H145.4z"/>
				<path class="st2" d="M147.6,130v-6.5h0.8v6.5H147.6z"/>
				<path class="st2" d="M150.3,123.4c0.3,0,0.6,0.3,0.6,0.6c0,0.3-0.3,0.6-0.6,0.6c-0.3,0-0.6-0.3-0.6-0.6
					C149.7,123.7,149.9,123.4,150.3,123.4z M149.8,130v-4.3h0.8v4.3H149.8z"/>
				<path class="st2" d="M152.6,130c0.1,0.6,0.5,1.1,1.2,1.1c0.9,0,1.3-0.5,1.3-1.4v-0.6c-0.2,0.4-0.7,0.7-1.3,0.7
					c-1.2,0-2-0.9-2-2.1c0-1.2,0.8-2.1,2-2.1c0.7,0,1.1,0.3,1.3,0.7v-0.6h0.8v4c0,1.1-0.5,2.2-2.2,2.2c-1.1,0-1.9-0.7-2-1.6
					L152.6,130z M155.1,127.7c0-0.8-0.5-1.4-1.2-1.4c-0.7,0-1.3,0.5-1.3,1.4c0,0.8,0.5,1.4,1.3,1.4
					C154.6,129.1,155.1,128.5,155.1,127.7z"/>
				<path class="st2" d="M161,128.8c-0.2,0.8-0.9,1.4-1.9,1.4c-1.2,0-2.2-0.8-2.2-2.3c0-1.4,1-2.3,2.1-2.3c1.3,0,2.1,0.9,2.1,2.3
					c0,0.1,0,0.2,0,0.3h-3.3c0,0.8,0.6,1.3,1.3,1.3c0.7,0,1.1-0.4,1.2-0.9L161,128.8z M160.2,127.4c0-0.6-0.4-1.1-1.2-1.1
					c-0.7,0-1.1,0.5-1.2,1.1H160.2z"/>
				<path class="st2" d="M162.9,130h-0.8v-4.3h0.8v0.6c0.3-0.5,0.8-0.7,1.3-0.7c1,0,1.5,0.7,1.5,1.7v2.7h-0.8v-2.6
					c0-0.6-0.3-1.1-1-1.1c-0.7,0-1,0.5-1,1.2V130z"/>
				<path class="st2" d="M167.6,127.8c0,1,0.6,1.5,1.3,1.5c0.8,0,1.1-0.5,1.2-0.9l0.7,0.3c-0.2,0.6-0.8,1.4-2,1.4
					c-1.3,0-2.2-1-2.2-2.3c0-1.4,0.9-2.3,2.2-2.3c1.2,0,1.7,0.7,1.9,1.4l-0.8,0.3c-0.1-0.4-0.4-0.9-1.2-0.9
					C168.2,126.3,167.6,126.8,167.6,127.8z"/>
				<path class="st2" d="M175.5,128.8c-0.2,0.8-0.9,1.4-1.9,1.4c-1.2,0-2.2-0.8-2.2-2.3c0-1.4,1-2.3,2.1-2.3c1.3,0,2.1,0.9,2.1,2.3
					c0,0.1,0,0.2,0,0.3h-3.3c0,0.8,0.6,1.3,1.3,1.3c0.7,0,1.1-0.4,1.2-0.9L175.5,128.8z M174.7,127.4c0-0.6-0.4-1.1-1.2-1.1
					c-0.7,0-1.1,0.5-1.2,1.1H174.7z"/>
			</g>
			<g class="st1">
				<path class="st2" d="M10.4,137.8c0-2.1,1.6-3.3,3.2-3.3c1.5,0,2.5,0.8,2.8,2l-0.8,0.3c-0.2-1-0.9-1.5-2-1.5
					c-1.2,0-2.3,0.8-2.3,2.5c0,1.7,1.1,2.5,2.3,2.5c1.1,0,1.8-0.7,2-1.5l0.8,0.3c-0.3,1.2-1.4,2.1-2.8,2.1
					C11.9,141.1,10.4,139.9,10.4,137.8z"/>
				<path class="st2" d="M18.2,141h-0.8v-6.5h0.8v2.7c0.3-0.5,0.8-0.6,1.3-0.6c1,0,1.5,0.7,1.5,1.7v2.7h-0.8v-2.6
					c0-0.6-0.3-1.1-1-1.1c-0.6,0-1,0.5-1,1.1V141z"/>
				<path class="st2" d="M22.8,134.4c0.3,0,0.6,0.3,0.6,0.6c0,0.3-0.3,0.6-0.6,0.6c-0.3,0-0.6-0.3-0.6-0.6
					C22.2,134.7,22.4,134.4,22.8,134.4z M22.3,141v-4.3h0.8v4.3H22.3z"/>
				<path class="st2" d="M28.4,139.8c-0.2,0.8-0.9,1.4-1.9,1.4c-1.2,0-2.2-0.8-2.2-2.3c0-1.4,1-2.3,2.1-2.3c1.3,0,2.1,0.9,2.1,2.3
					c0,0.1,0,0.2,0,0.3h-3.3c0,0.8,0.6,1.3,1.3,1.3c0.7,0,1.1-0.4,1.2-0.9L28.4,139.8z M27.5,138.4c0-0.6-0.4-1.1-1.2-1.1
					c-0.7,0-1.1,0.5-1.2,1.1H27.5z"/>
				<path class="st2" d="M30.5,137.4v3.6h-0.9v-3.6h-0.8v-0.8h0.8v-0.7c0-1,0.6-1.5,1.4-1.5c0.3,0,0.5,0.1,0.5,0.1v0.8
					c0,0-0.2-0.1-0.4-0.1c-0.3,0-0.7,0.1-0.7,0.7v0.7h1v0.8H30.5z"/>
				<path class="st2" d="M32.6,139.8c0.4,0,0.7,0.3,0.7,0.9c0,1.2-0.8,1.7-1.3,1.8V142c0.4-0.1,0.7-0.5,0.7-1c0,0-0.1,0-0.2,0
					c-0.3,0-0.6-0.2-0.6-0.6C31.9,140.1,32.2,139.8,32.6,139.8z"/>
				<path class="st2" d="M44.1,134.6H45l-1.8,6.4h-0.9l-1.7-5.2L39,141h-0.9l-1.8-6.4h0.9l1.4,5l1.6-5h0.9l1.6,5.1L44.1,134.6z"/>
				<path class="st2" d="M46.2,134.4c0.3,0,0.6,0.3,0.6,0.6c0,0.3-0.3,0.6-0.6,0.6c-0.3,0-0.6-0.3-0.6-0.6
					C45.6,134.7,45.9,134.4,46.2,134.4z M45.8,141v-4.3h0.8v4.3H45.8z"/>
				<path class="st2" d="M50.1,138.5l1.9,2.5h-1.1l-1.4-1.9l-0.6,0.6v1.3H48v-6.5h0.8v4.1l1.9-1.9h1.2L50.1,138.5z"/>
				<path class="st2" d="M53.1,134.4c0.3,0,0.6,0.3,0.6,0.6c0,0.3-0.3,0.6-0.6,0.6c-0.3,0-0.6-0.3-0.6-0.6
					C52.5,134.7,52.8,134.4,53.1,134.4z M52.7,141v-4.3h0.8v4.3H52.7z"/>
				<path class="st2" d="M54.9,141v-6.5h0.8v6.5H54.9z"/>
				<path class="st2" d="M61,139.8c-0.2,0.8-0.9,1.4-1.9,1.4c-1.2,0-2.2-0.8-2.2-2.3c0-1.4,1-2.3,2.1-2.3c1.3,0,2.1,0.9,2.1,2.3
					c0,0.1,0,0.2,0,0.3h-3.3c0,0.8,0.6,1.3,1.3,1.3c0.7,0,1.1-0.4,1.2-0.9L61,139.8z M60.1,138.4c0-0.6-0.4-1.1-1.2-1.1
					c-0.7,0-1.1,0.5-1.2,1.1H60.1z"/>
				<path class="st2" d="M63.1,138.5l1.2-0.2c0.3,0,0.3-0.2,0.3-0.3c0-0.4-0.3-0.8-0.9-0.8c-0.6,0-0.9,0.4-1,0.9l-0.8-0.2
					c0.1-0.8,0.8-1.4,1.8-1.4c1.3,0,1.8,0.7,1.8,1.6v2.2c0,0.4,0,0.6,0.1,0.7h-0.8c0-0.1,0-0.3,0-0.6c-0.2,0.3-0.6,0.7-1.4,0.7
					c-0.9,0-1.4-0.6-1.4-1.3C61.7,139.1,62.3,138.6,63.1,138.5z M64.6,139.1v-0.2l-1.3,0.2c-0.4,0.1-0.6,0.3-0.6,0.6
					c0,0.3,0.3,0.6,0.7,0.6C64,140.4,64.6,140.1,64.6,139.1z"/>
				<path class="st2" d="M68.7,138.5l1.9,2.5h-1.1l-1.4-1.9l-0.6,0.6v1.3h-0.8v-6.5h0.8v4.1l1.9-1.9h1.2L68.7,138.5z"/>
				<path class="st2" d="M71.7,139.6c0.1,0.5,0.4,0.8,1,0.8c0.5,0,0.7-0.3,0.7-0.6c0-0.3-0.2-0.5-0.6-0.6l-0.7-0.2
					c-0.7-0.1-1.1-0.6-1.1-1.2c0-0.7,0.7-1.4,1.5-1.4c1.2,0,1.6,0.8,1.6,1.2l-0.7,0.3c0-0.2-0.2-0.7-0.9-0.7c-0.4,0-0.7,0.3-0.7,0.6
					c0,0.3,0.2,0.5,0.5,0.5l0.7,0.2c0.8,0.2,1.2,0.6,1.2,1.3c0,0.6-0.5,1.3-1.6,1.3c-1.2,0-1.7-0.8-1.8-1.3L71.7,139.6z"/>
				<path class="st2" d="M78.7,137.4v3.6h-0.9v-3.6H77v-0.8h0.8v-0.7c0-1,0.6-1.5,1.4-1.5c0.3,0,0.5,0.1,0.5,0.1v0.8
					c0,0-0.2-0.1-0.4-0.1c-0.3,0-0.7,0.1-0.7,0.7v0.7h1v0.8H78.7z"/>
				<path class="st2" d="M84.5,138.8c0,1.3-0.9,2.3-2.2,2.3s-2.2-1-2.2-2.3c0-1.3,0.9-2.3,2.2-2.3S84.5,137.5,84.5,138.8z
					 M83.7,138.8c0-1-0.6-1.5-1.4-1.5s-1.4,0.5-1.4,1.5c0,1,0.6,1.5,1.4,1.5S83.7,139.8,83.7,138.8z"/>
				<path class="st2" d="M87.1,141.1c-1,0-1.6-0.8-1.6-1.7v-2.7h0.8v2.6c0,0.6,0.3,1.1,1,1.1c0.7,0,1-0.5,1-1.1v-2.6h0.8v3.5
					c0,0.3,0,0.6,0,0.8h-0.8c0-0.1,0-0.3,0-0.5C88.1,140.9,87.6,141.1,87.1,141.1z"/>
				<path class="st2" d="M91.4,141h-0.8v-4.3h0.8v0.6c0.3-0.5,0.8-0.7,1.3-0.7c1,0,1.5,0.7,1.5,1.7v2.7h-0.8v-2.6
					c0-0.6-0.3-1.1-1-1.1c-0.7,0-1,0.5-1,1.2V141z"/>
				<path class="st2" d="M98.6,140.3c-0.2,0.4-0.7,0.8-1.3,0.8c-1.3,0-2.1-1-2.1-2.3c0-1.2,0.8-2.3,2.1-2.3c0.8,0,1.2,0.4,1.3,0.7
					v-2.8h0.8v5.7c0,0.4,0,0.7,0,0.8h-0.8C98.6,140.9,98.6,140.7,98.6,140.3L98.6,140.3z M97.3,140.4c0.8,0,1.3-0.7,1.3-1.6
					c0-0.9-0.5-1.5-1.2-1.5c-0.8,0-1.3,0.6-1.3,1.5S96.5,140.4,97.3,140.4z"/>
				<path class="st2" d="M104.6,139.8c-0.2,0.8-0.9,1.4-1.9,1.4c-1.2,0-2.2-0.8-2.2-2.3c0-1.4,1-2.3,2.1-2.3c1.3,0,2.1,0.9,2.1,2.3
					c0,0.1,0,0.2,0,0.3h-3.3c0,0.8,0.6,1.3,1.3,1.3c0.7,0,1.1-0.4,1.2-0.9L104.6,139.8z M103.7,138.4c0-0.6-0.4-1.1-1.2-1.1
					c-0.7,0-1.1,0.5-1.2,1.1H103.7z"/>
				<path class="st2" d="M108.1,137.5c-0.1,0-0.3,0-0.4,0c-0.7,0-1.2,0.4-1.2,1.3v2.2h-0.8v-4.3h0.8v0.8c0.3-0.7,0.9-0.8,1.3-0.8
					c0.1,0,0.2,0,0.3,0V137.5z"/>
				<path class="st2" d="M110.6,138.7l0.9-0.2v0.6c0,0.8,0.5,1.2,1.1,1.2c0.6,0,1-0.4,1-1.2v-4.5h0.9v4.5c0,1.1-0.7,2-1.9,2
					c-1.3,0-2-0.8-2-2V138.7z"/>
				<path class="st2" d="M117.5,141.1c-1,0-1.6-0.8-1.6-1.7v-2.7h0.8v2.6c0,0.6,0.3,1.1,1,1.1c0.7,0,1-0.5,1-1.1v-2.6h0.8v3.5
					c0,0.3,0,0.6,0,0.8h-0.8c0-0.1,0-0.3,0-0.5C118.5,140.9,118,141.1,117.5,141.1z"/>
				<path class="st2" d="M120.9,141v-6.5h0.8v6.5H120.9z"/>
				<path class="st2" d="M123.6,134.4c0.3,0,0.6,0.3,0.6,0.6c0,0.3-0.3,0.6-0.6,0.6c-0.3,0-0.6-0.3-0.6-0.6
					C123,134.7,123.2,134.4,123.6,134.4z M123.2,141v-4.3h0.8v4.3H123.2z"/>
				<path class="st2" d="M126.4,138.5l1.2-0.2c0.3,0,0.3-0.2,0.3-0.3c0-0.4-0.3-0.8-0.9-0.8c-0.6,0-0.9,0.4-1,0.9l-0.8-0.2
					c0.1-0.8,0.8-1.4,1.8-1.4c1.3,0,1.8,0.7,1.8,1.6v2.2c0,0.4,0,0.6,0.1,0.7H128c0-0.1,0-0.3,0-0.6c-0.2,0.3-0.6,0.7-1.4,0.7
					c-0.9,0-1.4-0.6-1.4-1.3C125.1,139.1,125.7,138.6,126.4,138.5z M127.9,139.1v-0.2l-1.3,0.2c-0.4,0.1-0.6,0.3-0.6,0.6
					c0,0.3,0.3,0.6,0.7,0.6C127.4,140.4,127.9,140.1,127.9,139.1z"/>
				<path class="st2" d="M130.9,141h-0.8v-4.3h0.8v0.6c0.3-0.5,0.8-0.7,1.3-0.7c1,0,1.5,0.7,1.5,1.7v2.7h-0.8v-2.6
					c0-0.6-0.3-1.1-1-1.1c-0.7,0-1,0.5-1,1.2V141z"/>
				<path class="st2" d="M141.1,139.2h-2.8l-0.7,1.8h-0.9l2.5-6.4h1l2.5,6.4h-1L141.1,139.2z M138.6,138.4h2.2l-1.1-2.9L138.6,138.4
					z"/>
				<path class="st2" d="M143.9,139.6c0.1,0.5,0.4,0.8,1,0.8c0.5,0,0.7-0.3,0.7-0.6c0-0.3-0.2-0.5-0.6-0.6l-0.7-0.2
					c-0.7-0.1-1.1-0.6-1.1-1.2c0-0.7,0.7-1.4,1.5-1.4c1.2,0,1.6,0.8,1.6,1.2l-0.7,0.3c0-0.2-0.2-0.7-0.9-0.7c-0.4,0-0.7,0.3-0.7,0.6
					c0,0.3,0.2,0.5,0.5,0.5l0.7,0.2c0.8,0.2,1.2,0.6,1.2,1.3c0,0.6-0.5,1.3-1.6,1.3c-1.2,0-1.7-0.8-1.8-1.3L143.9,139.6z"/>
				<path class="st2" d="M147.9,139.6c0.1,0.5,0.4,0.8,1,0.8c0.5,0,0.7-0.3,0.7-0.6c0-0.3-0.2-0.5-0.6-0.6l-0.7-0.2
					c-0.7-0.1-1.1-0.6-1.1-1.2c0-0.7,0.7-1.4,1.5-1.4c1.2,0,1.6,0.8,1.6,1.2l-0.7,0.3c0-0.2-0.2-0.7-0.9-0.7c-0.4,0-0.7,0.3-0.7,0.6
					c0,0.3,0.2,0.5,0.5,0.5l0.7,0.2c0.8,0.2,1.2,0.6,1.2,1.3c0,0.6-0.5,1.3-1.6,1.3c-1.2,0-1.7-0.8-1.8-1.3L147.9,139.6z"/>
				<path class="st2" d="M152.5,138.5l1.2-0.2c0.3,0,0.3-0.2,0.3-0.3c0-0.4-0.3-0.8-0.9-0.8c-0.6,0-0.9,0.4-1,0.9l-0.8-0.2
					c0.1-0.8,0.8-1.4,1.8-1.4c1.3,0,1.8,0.7,1.8,1.6v2.2c0,0.4,0,0.6,0.1,0.7h-0.8c0-0.1,0-0.3,0-0.6c-0.2,0.3-0.6,0.7-1.4,0.7
					c-0.9,0-1.4-0.6-1.4-1.3C151.2,139.1,151.8,138.6,152.5,138.5z M154,139.1v-0.2l-1.3,0.2c-0.4,0.1-0.6,0.3-0.6,0.6
					c0,0.3,0.3,0.6,0.7,0.6C153.5,140.4,154,140.1,154,139.1z"/>
				<path class="st2" d="M157,141h-0.8v-4.3h0.8v0.6c0.3-0.5,0.8-0.7,1.3-0.7c1,0,1.5,0.7,1.5,1.7v2.7H159v-2.6c0-0.6-0.3-1.1-1-1.1
					c-0.7,0-1,0.5-1,1.2V141z"/>
				<path class="st2" d="M161.6,141c0.1,0.6,0.5,1.1,1.2,1.1c0.9,0,1.3-0.5,1.3-1.4v-0.6c-0.2,0.4-0.7,0.7-1.3,0.7
					c-1.2,0-2-0.9-2-2.1c0-1.2,0.8-2.1,2-2.1c0.7,0,1.1,0.3,1.3,0.7v-0.6h0.8v4c0,1.1-0.5,2.2-2.2,2.2c-1.1,0-1.9-0.7-2-1.6
					L161.6,141z M164.2,138.7c0-0.8-0.5-1.4-1.2-1.4c-0.7,0-1.3,0.5-1.3,1.4c0,0.8,0.5,1.4,1.3,1.4
					C163.7,140.1,164.2,139.5,164.2,138.7z"/>
				<path class="st2" d="M170.1,139.8c-0.2,0.8-0.9,1.4-1.9,1.4c-1.2,0-2.2-0.8-2.2-2.3c0-1.4,1-2.3,2.1-2.3c1.3,0,2.1,0.9,2.1,2.3
					c0,0.1,0,0.2,0,0.3h-3.3c0,0.8,0.6,1.3,1.3,1.3c0.7,0,1.1-0.4,1.2-0.9L170.1,139.8z M169.2,138.4c0-0.6-0.4-1.1-1.2-1.1
					c-0.7,0-1.1,0.5-1.2,1.1H169.2z"/>
				<path class="st2" d="M171.6,139.8c0.4,0,0.7,0.3,0.7,0.9c0,1.2-0.8,1.7-1.3,1.8V142c0.4-0.1,0.7-0.5,0.7-1c0,0-0.1,0-0.2,0
					c-0.3,0-0.6-0.2-0.6-0.6C170.9,140.1,171.2,139.8,171.6,139.8z"/>
			</g>
			<g class="st1">
				<path class="st2" d="M11.8,149.5l1.2-0.2c0.3,0,0.3-0.2,0.3-0.3c0-0.4-0.3-0.8-0.9-0.8c-0.6,0-0.9,0.4-1,0.9l-0.8-0.2
					c0.1-0.8,0.8-1.4,1.8-1.4c1.3,0,1.8,0.7,1.8,1.6v2.2c0,0.4,0,0.6,0.1,0.7h-0.8c0-0.1,0-0.3,0-0.6c-0.2,0.3-0.6,0.7-1.4,0.7
					c-0.9,0-1.4-0.6-1.4-1.3C10.5,150.1,11,149.6,11.8,149.5z M13.3,150.1v-0.2l-1.3,0.2c-0.4,0.1-0.6,0.3-0.6,0.6
					c0,0.3,0.3,0.6,0.7,0.6C12.7,151.4,13.3,151.1,13.3,150.1z"/>
				<path class="st2" d="M16.2,152h-0.8v-4.3h0.8v0.6c0.3-0.5,0.8-0.7,1.3-0.7c1,0,1.5,0.7,1.5,1.7v2.7h-0.8v-2.6
					c0-0.6-0.3-1.1-1-1.1c-0.7,0-1,0.5-1,1.2V152z"/>
				<path class="st2" d="M23.4,151.3c-0.2,0.4-0.7,0.8-1.3,0.8c-1.3,0-2.1-1-2.1-2.3c0-1.2,0.8-2.3,2.1-2.3c0.8,0,1.2,0.4,1.3,0.7
					v-2.8h0.8v5.7c0,0.4,0,0.7,0,0.8h-0.8C23.5,151.9,23.4,151.7,23.4,151.3L23.4,151.3z M22.2,151.4c0.8,0,1.3-0.7,1.3-1.6
					c0-0.9-0.5-1.5-1.2-1.5c-0.8,0-1.3,0.6-1.3,1.5S21.4,151.4,22.2,151.4z"/>
				<path class="st2" d="M31.2,147.7l1.1,3.3l1-3.3h0.9l-1.4,4.3h-0.9l-1.2-3.3l-1.1,3.3h-0.9l-1.4-4.3h0.9l1,3.3l1.1-3.3H31.2z"/>
				<path class="st2" d="M35.9,149.5l1.2-0.2c0.3,0,0.3-0.2,0.3-0.3c0-0.4-0.3-0.8-0.9-0.8c-0.6,0-0.9,0.4-1,0.9l-0.8-0.2
					c0.1-0.8,0.8-1.4,1.8-1.4c1.3,0,1.8,0.7,1.8,1.6v2.2c0,0.4,0,0.6,0.1,0.7h-0.8c0-0.1,0-0.3,0-0.6c-0.2,0.3-0.6,0.7-1.4,0.7
					c-0.9,0-1.4-0.6-1.4-1.3C34.6,150.1,35.2,149.6,35.9,149.5z M37.4,150.1v-0.2l-1.3,0.2c-0.4,0.1-0.6,0.3-0.6,0.6
					c0,0.3,0.3,0.6,0.7,0.6C36.9,151.4,37.4,151.1,37.4,150.1z"/>
				<path class="st2" d="M39.9,150.6c0.1,0.5,0.4,0.8,1,0.8c0.5,0,0.7-0.3,0.7-0.6c0-0.3-0.2-0.5-0.6-0.6l-0.7-0.2
					c-0.7-0.1-1.1-0.6-1.1-1.2c0-0.7,0.7-1.4,1.5-1.4c1.2,0,1.6,0.8,1.6,1.2l-0.7,0.3c0-0.2-0.2-0.7-0.9-0.7c-0.4,0-0.7,0.3-0.7,0.6
					c0,0.3,0.2,0.5,0.5,0.5l0.7,0.2c0.8,0.2,1.2,0.6,1.2,1.3c0,0.6-0.5,1.3-1.6,1.3c-1.2,0-1.7-0.8-1.8-1.3L39.9,150.6z"/>
				<path class="st2" d="M46.8,149.5l1.2-0.2c0.3,0,0.3-0.2,0.3-0.3c0-0.4-0.3-0.8-0.9-0.8c-0.6,0-0.9,0.4-1,0.9l-0.8-0.2
					c0.1-0.8,0.8-1.4,1.8-1.4c1.3,0,1.8,0.7,1.8,1.6v2.2c0,0.4,0,0.6,0.1,0.7h-0.8c0-0.1,0-0.3,0-0.6c-0.2,0.3-0.6,0.7-1.4,0.7
					c-0.9,0-1.4-0.6-1.4-1.3C45.5,150.1,46.1,149.6,46.8,149.5z M48.3,150.1v-0.2l-1.3,0.2c-0.4,0.1-0.6,0.3-0.6,0.6
					c0,0.3,0.3,0.6,0.7,0.6C47.8,151.4,48.3,151.1,48.3,150.1z"/>
				<path class="st2" d="M51.3,152h-0.8v-4.3h0.8v0.6c0.3-0.5,0.8-0.7,1.3-0.7c1,0,1.5,0.7,1.5,1.7v2.7h-0.8v-2.6
					c0-0.6-0.3-1.1-1-1.1c-0.7,0-1,0.5-1,1.2V152z"/>
				<path class="st2" d="M58.7,149.5l1.2-0.2c0.3,0,0.3-0.2,0.3-0.3c0-0.4-0.3-0.8-0.9-0.8c-0.6,0-0.9,0.4-1,0.9l-0.8-0.2
					c0.1-0.8,0.8-1.4,1.8-1.4c1.3,0,1.8,0.7,1.8,1.6v2.2c0,0.4,0,0.6,0.1,0.7h-0.8c0-0.1,0-0.3,0-0.6c-0.2,0.3-0.6,0.7-1.4,0.7
					c-0.9,0-1.4-0.6-1.4-1.3C57.4,150.1,58,149.6,58.7,149.5z M60.2,150.1v-0.2l-1.3,0.2c-0.4,0.1-0.6,0.3-0.6,0.6
					c0,0.3,0.3,0.6,0.7,0.6C59.7,151.4,60.2,151.1,60.2,150.1z"/>
				<path class="st2" d="M65.4,151.3c-0.2,0.4-0.7,0.8-1.3,0.8c-1.3,0-2.1-1-2.1-2.3c0-1.2,0.8-2.3,2.1-2.3c0.8,0,1.2,0.4,1.3,0.7
					v-2.8h0.8v5.7c0,0.4,0,0.7,0,0.8h-0.8C65.4,151.9,65.4,151.7,65.4,151.3L65.4,151.3z M64.1,151.4c0.8,0,1.3-0.7,1.3-1.6
					c0-0.9-0.5-1.5-1.2-1.5c-0.8,0-1.3,0.6-1.3,1.5S63.3,151.4,64.1,151.4z"/>
				<path class="st2" d="M69.6,152h-0.9l-1.8-4.3h1l1.2,3.3l1.2-3.3h0.9L69.6,152z"/>
				<path class="st2" d="M72.5,145.4c0.3,0,0.6,0.3,0.6,0.6c0,0.3-0.3,0.6-0.6,0.6c-0.3,0-0.6-0.3-0.6-0.6
					C71.9,145.7,72.1,145.4,72.5,145.4z M72,152v-4.3h0.8v4.3H72z"/>
				<path class="st2" d="M74.6,150.6c0.1,0.5,0.4,0.8,1,0.8c0.5,0,0.7-0.3,0.7-0.6c0-0.3-0.2-0.5-0.6-0.6l-0.7-0.2
					c-0.7-0.1-1.1-0.6-1.1-1.2c0-0.7,0.7-1.4,1.5-1.4c1.2,0,1.6,0.8,1.6,1.2l-0.7,0.3c0-0.2-0.2-0.7-0.9-0.7c-0.4,0-0.7,0.3-0.7,0.6
					c0,0.3,0.2,0.5,0.5,0.5l0.7,0.2c0.8,0.2,1.2,0.6,1.2,1.3c0,0.6-0.5,1.3-1.6,1.3c-1.2,0-1.7-0.8-1.8-1.3L74.6,150.6z"/>
				<path class="st2" d="M82.3,149.8c0,1.3-0.9,2.3-2.2,2.3s-2.2-1-2.2-2.3c0-1.3,0.9-2.3,2.2-2.3S82.3,148.5,82.3,149.8z
					 M81.5,149.8c0-1-0.6-1.5-1.4-1.5s-1.4,0.5-1.4,1.5c0,1,0.6,1.5,1.4,1.5S81.5,150.8,81.5,149.8z"/>
				<path class="st2" d="M85.8,148.5c-0.1,0-0.3,0-0.4,0c-0.7,0-1.2,0.4-1.2,1.3v2.2h-0.8v-4.3h0.8v0.8c0.3-0.7,0.9-0.8,1.3-0.8
					c0.1,0,0.2,0,0.3,0V148.5z"/>
				<path class="st2" d="M90,147.7h0.9v0.8H90v2.3c0,0.4,0.2,0.6,0.6,0.6c0.1,0,0.3,0,0.3,0v0.7c-0.1,0-0.3,0.1-0.6,0.1
					c-0.7,0-1.2-0.5-1.2-1.2v-2.4h-0.8v-0.8h0.2c0.5,0,0.7-0.3,0.7-0.7v-0.7H90V147.7z"/>
				<path class="st2" d="M96,149.8c0,1.3-0.9,2.3-2.2,2.3c-1.3,0-2.2-1-2.2-2.3c0-1.3,0.9-2.3,2.2-2.3C95.1,147.5,96,148.5,96,149.8
					z M95.1,149.8c0-1-0.6-1.5-1.4-1.5s-1.4,0.5-1.4,1.5c0,1,0.6,1.5,1.4,1.5S95.1,150.8,95.1,149.8z"/>
				<path class="st2" d="M100.4,147.7h0.9v0.8h-0.9v2.3c0,0.4,0.2,0.6,0.6,0.6c0.1,0,0.3,0,0.3,0v0.7c-0.1,0-0.3,0.1-0.6,0.1
					c-0.7,0-1.2-0.5-1.2-1.2v-2.4h-0.8v-0.8h0.2c0.5,0,0.7-0.3,0.7-0.7v-0.7h0.8V147.7z"/>
				<path class="st2" d="M103.2,152h-0.8v-6.5h0.8v2.7c0.3-0.5,0.8-0.6,1.3-0.6c1,0,1.5,0.7,1.5,1.7v2.7h-0.8v-2.6
					c0-0.6-0.3-1.1-1-1.1c-0.6,0-1,0.5-1,1.1V152z"/>
				<path class="st2" d="M111.2,150.8c-0.2,0.8-0.9,1.4-1.9,1.4c-1.2,0-2.2-0.8-2.2-2.3c0-1.4,1-2.3,2.1-2.3c1.3,0,2.1,0.9,2.1,2.3
					c0,0.1,0,0.2,0,0.3h-3.3c0,0.8,0.6,1.3,1.3,1.3c0.7,0,1.1-0.4,1.2-0.9L111.2,150.8z M110.3,149.4c0-0.6-0.4-1.1-1.2-1.1
					c-0.7,0-1.1,0.5-1.2,1.1H110.3z"/>
				<path class="st2" d="M116.3,149.1l-0.9,1v1.9h-0.9v-6.4h0.9v3.3l3-3.3h1.2l-2.7,2.8l2.7,3.5h-1.1L116.3,149.1z"/>
				<path class="st2" d="M120.8,145.4c0.3,0,0.6,0.3,0.6,0.6c0,0.3-0.3,0.6-0.6,0.6c-0.3,0-0.6-0.3-0.6-0.6
					C120.2,145.7,120.5,145.4,120.8,145.4z M120.4,152v-4.3h0.8v4.3H120.4z"/>
				<path class="st2" d="M123.5,152h-0.8v-4.3h0.8v0.6c0.3-0.5,0.8-0.7,1.3-0.7c1,0,1.5,0.7,1.5,1.7v2.7h-0.8v-2.6
					c0-0.6-0.3-1.1-1-1.1c-0.7,0-1,0.5-1,1.2V152z"/>
				<path class="st2" d="M128.2,152c0.1,0.6,0.5,1.1,1.2,1.1c0.9,0,1.3-0.5,1.3-1.4v-0.6c-0.2,0.4-0.7,0.7-1.3,0.7
					c-1.2,0-2-0.9-2-2.1c0-1.2,0.8-2.1,2-2.1c0.7,0,1.1,0.3,1.3,0.7v-0.6h0.8v4c0,1.1-0.5,2.2-2.2,2.2c-1.1,0-1.9-0.7-2-1.6
					L128.2,152z M130.7,149.7c0-0.8-0.5-1.4-1.2-1.4c-0.7,0-1.3,0.5-1.3,1.4c0,0.8,0.5,1.4,1.3,1.4
					C130.2,151.1,130.7,150.5,130.7,149.7z"/>
				<path class="st2" d="M139.1,149.8c0,1.3-0.9,2.3-2.2,2.3c-1.3,0-2.2-1-2.2-2.3c0-1.3,0.9-2.3,2.2-2.3
					C138.2,147.5,139.1,148.5,139.1,149.8z M138.2,149.8c0-1-0.6-1.5-1.4-1.5c-0.7,0-1.3,0.5-1.3,1.5c0,1,0.6,1.5,1.3,1.5
					C137.6,151.4,138.2,150.8,138.2,149.8z"/>
				<path class="st2" d="M141.2,148.4v3.6h-0.9v-3.6h-0.8v-0.8h0.8v-0.7c0-1,0.6-1.5,1.4-1.5c0.3,0,0.5,0.1,0.5,0.1v0.8
					c0,0-0.2-0.1-0.4-0.1c-0.3,0-0.7,0.1-0.7,0.7v0.7h1v0.8H141.2z"/>
				<path class="st2" d="M147.5,145.6c1.2,0,1.9,0.7,1.9,1.7c0,0.7-0.4,1.2-1,1.4c0.7,0.2,1.2,0.8,1.2,1.5c0,1-0.8,1.7-2,1.7h-2.2
					v-6.4H147.5z M147.4,148.4c0.7,0,1.1-0.4,1.1-1c0-0.6-0.4-1-1.2-1h-1.1v2H147.4z M147.6,151.2c0.7,0,1.2-0.4,1.2-1
					c0-0.6-0.4-1-1.2-1h-1.3v2.1H147.6z"/>
				<path class="st2" d="M151.7,149.5l1.2-0.2c0.3,0,0.3-0.2,0.3-0.3c0-0.4-0.3-0.8-0.9-0.8c-0.6,0-0.9,0.4-1,0.9l-0.8-0.2
					c0.1-0.8,0.8-1.4,1.8-1.4c1.3,0,1.8,0.7,1.8,1.6v2.2c0,0.4,0,0.6,0.1,0.7h-0.8c0-0.1,0-0.3,0-0.6c-0.2,0.3-0.6,0.7-1.4,0.7
					c-0.9,0-1.4-0.6-1.4-1.3C150.4,150.1,150.9,149.6,151.7,149.5z M153.2,150.1v-0.2l-1.3,0.2c-0.4,0.1-0.6,0.3-0.6,0.6
					c0,0.3,0.3,0.6,0.7,0.6C152.6,151.4,153.2,151.1,153.2,150.1z"/>
				<path class="st2" d="M156.2,152h-0.8v-6.5h0.8v2.7c0.3-0.5,0.8-0.6,1.3-0.6c1,0,1.5,0.7,1.5,1.7v2.7h-0.8v-2.6
					c0-0.6-0.3-1.1-1-1.1c-0.6,0-1,0.5-1,1.1V152z"/>
				<path class="st2" d="M162.7,148.5c-0.1,0-0.3,0-0.4,0c-0.7,0-1.2,0.4-1.2,1.3v2.2h-0.8v-4.3h0.8v0.8c0.3-0.7,0.9-0.8,1.3-0.8
					c0.1,0,0.2,0,0.3,0V148.5z"/>
				<path class="st2" d="M164.6,149.5l1.2-0.2c0.3,0,0.3-0.2,0.3-0.3c0-0.4-0.3-0.8-0.9-0.8c-0.6,0-0.9,0.4-1,0.9l-0.8-0.2
					c0.1-0.8,0.8-1.4,1.8-1.4c1.3,0,1.8,0.7,1.8,1.6v2.2c0,0.4,0,0.6,0.1,0.7h-0.8c0-0.1,0-0.3,0-0.6c-0.2,0.3-0.6,0.7-1.4,0.7
					c-0.9,0-1.4-0.6-1.4-1.3C163.3,150.1,163.9,149.6,164.6,149.5z M166.1,150.1v-0.2l-1.3,0.2c-0.4,0.1-0.6,0.3-0.6,0.6
					c0,0.3,0.3,0.6,0.7,0.6C165.6,151.4,166.1,151.1,166.1,150.1z"/>
				<path class="st2" d="M168.7,145.4c0.3,0,0.6,0.3,0.6,0.6c0,0.3-0.3,0.6-0.6,0.6c-0.3,0-0.6-0.3-0.6-0.6
					C168,145.7,168.3,145.4,168.7,145.4z M168.2,152v-4.3h0.8v4.3H168.2z"/>
				<path class="st2" d="M171.3,152h-0.8v-4.3h0.8v0.6c0.3-0.5,0.8-0.7,1.3-0.7c1,0,1.5,0.7,1.5,1.7v2.7h-0.8v-2.6
					c0-0.6-0.3-1.1-1-1.1c-0.7,0-1,0.5-1,1.2V152z"/>
				<path class="st2" d="M176,150.8c0.4,0,0.6,0.3,0.6,0.6s-0.3,0.6-0.6,0.6c-0.4,0-0.6-0.3-0.6-0.6S175.7,150.8,176,150.8z"/>
			</g>
			<g class="st1">
				<path class="st2" d="M15.1,174l-3.4-5.2v5.2h-0.9v-6.4H12l3.2,4.9v-4.9h0.9v6.4H15.1z"/>
				<path class="st2" d="M21.6,171.8c0,1.3-0.9,2.3-2.2,2.3s-2.2-1-2.2-2.3c0-1.3,0.9-2.3,2.2-2.3S21.6,170.5,21.6,171.8z
					 M20.7,171.8c0-1-0.6-1.5-1.4-1.5s-1.4,0.5-1.4,1.5c0,1,0.6,1.5,1.4,1.5S20.7,172.8,20.7,171.8z"/>
				<path class="st2" d="M23.7,169.7h0.9v0.8h-0.9v2.3c0,0.4,0.2,0.6,0.6,0.6c0.1,0,0.3,0,0.3,0v0.7c-0.1,0-0.3,0.1-0.6,0.1
					c-0.7,0-1.2-0.5-1.2-1.2v-2.4h-0.8v-0.8h0.2c0.5,0,0.7-0.3,0.7-0.7v-0.7h0.8V169.7z"/>
				<path class="st2" d="M28,174v-6.5h0.8v2.8c0.2-0.4,0.7-0.7,1.4-0.7c1.3,0,2,1,2,2.3c0,1.3-0.7,2.3-2,2.3c-0.6,0-1.1-0.3-1.4-0.7
					v0.6H28z M30.1,170.3c-0.7,0-1.3,0.6-1.3,1.5s0.5,1.5,1.3,1.5c0.8,0,1.3-0.6,1.3-1.5S30.9,170.3,30.1,170.3z"/>
				<path class="st2" d="M34.3,171.5l1.2-0.2c0.3,0,0.3-0.2,0.3-0.3c0-0.4-0.3-0.8-0.9-0.8c-0.6,0-0.9,0.4-1,0.9l-0.8-0.2
					c0.1-0.8,0.8-1.4,1.8-1.4c1.3,0,1.8,0.7,1.8,1.6v2.2c0,0.4,0,0.6,0.1,0.7h-0.8c0-0.1,0-0.3,0-0.6c-0.2,0.3-0.6,0.7-1.4,0.7
					c-0.9,0-1.4-0.6-1.4-1.3C33,172.1,33.5,171.6,34.3,171.5z M35.8,172.1v-0.2l-1.3,0.2c-0.4,0.1-0.6,0.3-0.6,0.6
					c0,0.3,0.3,0.6,0.7,0.6C35.2,173.4,35.8,173.1,35.8,172.1z"/>
				<path class="st2" d="M40.9,173.3c-0.2,0.4-0.7,0.8-1.3,0.8c-1.3,0-2.1-1-2.1-2.3c0-1.2,0.8-2.3,2.1-2.3c0.8,0,1.2,0.4,1.3,0.7
					v-2.8h0.8v5.7c0,0.4,0,0.7,0,0.8H41C41,173.9,40.9,173.7,40.9,173.3L40.9,173.3z M39.7,173.4c0.8,0,1.3-0.7,1.3-1.6
					c0-0.9-0.5-1.5-1.2-1.5c-0.8,0-1.3,0.6-1.3,1.5S38.9,173.4,39.7,173.4z"/>
				<path class="st2" d="M44.2,171.5l1.2-0.2c0.3,0,0.3-0.2,0.3-0.3c0-0.4-0.3-0.8-0.9-0.8c-0.6,0-0.9,0.4-1,0.9l-0.8-0.2
					c0.1-0.8,0.8-1.4,1.8-1.4c1.3,0,1.8,0.7,1.8,1.6v2.2c0,0.4,0,0.6,0.1,0.7h-0.8c0-0.1,0-0.3,0-0.6c-0.2,0.3-0.6,0.7-1.4,0.7
					c-0.9,0-1.4-0.6-1.4-1.3C42.9,172.1,43.5,171.6,44.2,171.5z M45.7,172.1v-0.2l-1.3,0.2c-0.4,0.1-0.6,0.3-0.6,0.6
					c0,0.3,0.3,0.6,0.7,0.6C45.1,173.4,45.7,173.1,45.7,172.1z"/>
				<path class="st2" d="M48.2,172.6c0.1,0.5,0.4,0.8,1,0.8c0.5,0,0.7-0.3,0.7-0.6c0-0.3-0.2-0.5-0.6-0.6l-0.7-0.2
					c-0.7-0.1-1.1-0.6-1.1-1.2c0-0.7,0.7-1.4,1.5-1.4c1.2,0,1.6,0.8,1.6,1.2L50,171c0-0.2-0.2-0.7-0.9-0.7c-0.4,0-0.7,0.3-0.7,0.6
					c0,0.3,0.2,0.5,0.5,0.5l0.7,0.2c0.8,0.2,1.2,0.6,1.2,1.3c0,0.6-0.5,1.3-1.6,1.3c-1.2,0-1.7-0.8-1.8-1.3L48.2,172.6z"/>
				<path class="st2" d="M52.2,172.6c0.1,0.5,0.4,0.8,1,0.8c0.5,0,0.7-0.3,0.7-0.6c0-0.3-0.2-0.5-0.6-0.6l-0.7-0.2
					c-0.7-0.1-1.1-0.6-1.1-1.2c0-0.7,0.7-1.4,1.5-1.4c1.2,0,1.6,0.8,1.6,1.2L54,171c0-0.2-0.2-0.7-0.9-0.7c-0.4,0-0.7,0.3-0.7,0.6
					c0,0.3,0.2,0.5,0.5,0.5l0.7,0.2c0.8,0.2,1.2,0.6,1.2,1.3c0,0.6-0.5,1.3-1.6,1.3c-1.2,0-1.7-0.8-1.8-1.3L52.2,172.6z"/>
				<path class="st2" d="M61.8,172.8c-0.2,0.8-0.9,1.4-1.9,1.4c-1.2,0-2.2-0.8-2.2-2.3c0-1.4,1-2.3,2.1-2.3c1.3,0,2.1,0.9,2.1,2.3
					c0,0.1,0,0.2,0,0.3h-3.3c0,0.8,0.6,1.3,1.3,1.3c0.7,0,1.1-0.4,1.2-0.9L61.8,172.8z M61,171.4c0-0.6-0.4-1.1-1.2-1.1
					c-0.7,0-1.1,0.5-1.2,1.1H61z"/>
				<path class="st2" d="M63.7,174h-0.8v-4.3h0.8v0.6c0.3-0.5,0.8-0.7,1.3-0.7c1,0,1.5,0.7,1.5,1.7v2.7h-0.8v-2.6
					c0-0.6-0.3-1.1-1-1.1c-0.7,0-1,0.5-1,1.2V174z"/>
				<path class="st2" d="M72,171.8c0,1.3-0.9,2.3-2.2,2.3s-2.2-1-2.2-2.3c0-1.3,0.9-2.3,2.2-2.3S72,170.5,72,171.8z M71.1,171.8
					c0-1-0.6-1.5-1.4-1.5s-1.4,0.5-1.4,1.5c0,1,0.6,1.5,1.4,1.5S71.1,172.8,71.1,171.8z"/>
				<path class="st2" d="M74.5,174.1c-1,0-1.6-0.8-1.6-1.7v-2.7h0.8v2.6c0,0.6,0.3,1.1,1,1.1c0.7,0,1-0.5,1-1.1v-2.6h0.8v3.5
					c0,0.3,0,0.6,0,0.8h-0.8c0-0.1,0-0.3,0-0.5C75.6,173.9,75.1,174.1,74.5,174.1z"/>
				<path class="st2" d="M78.5,174c0.1,0.6,0.5,1.1,1.2,1.1c0.9,0,1.3-0.5,1.3-1.4v-0.6c-0.2,0.4-0.7,0.7-1.3,0.7
					c-1.2,0-2-0.9-2-2.1c0-1.2,0.8-2.1,2-2.1c0.7,0,1.1,0.3,1.3,0.7v-0.6h0.8v4c0,1.1-0.5,2.2-2.2,2.2c-1.1,0-1.9-0.7-2-1.6
					L78.5,174z M81,171.7c0-0.8-0.5-1.4-1.2-1.4c-0.7,0-1.3,0.5-1.3,1.4c0,0.8,0.5,1.4,1.3,1.4C80.5,173.1,81,172.5,81,171.7z"/>
				<path class="st2" d="M84,174h-0.8v-6.5H84v2.7c0.3-0.5,0.8-0.6,1.3-0.6c1,0,1.5,0.7,1.5,1.7v2.7H86v-2.6c0-0.6-0.3-1.1-1-1.1
					c-0.6,0-1,0.5-1,1.1V174z"/>
				<path class="st2" d="M91.5,170.4v3.6h-0.9v-3.6h-0.8v-0.8h0.8v-0.7c0-1,0.6-1.5,1.4-1.5c0.3,0,0.5,0.1,0.5,0.1v0.8
					c0,0-0.2-0.1-0.4-0.1c-0.3,0-0.7,0.1-0.7,0.7v0.7h1v0.8H91.5z"/>
				<path class="st2" d="M97.3,171.8c0,1.3-0.9,2.3-2.2,2.3c-1.3,0-2.2-1-2.2-2.3c0-1.3,0.9-2.3,2.2-2.3
					C96.4,169.5,97.3,170.5,97.3,171.8z M96.4,171.8c0-1-0.6-1.5-1.3-1.5c-0.7,0-1.4,0.5-1.4,1.5c0,1,0.6,1.5,1.4,1.5
					C95.8,173.4,96.4,172.8,96.4,171.8z"/>
				<path class="st2" d="M100.7,170.5c-0.1,0-0.3,0-0.4,0c-0.7,0-1.2,0.4-1.2,1.3v2.2h-0.8v-4.3h0.8v0.8c0.3-0.7,0.9-0.8,1.3-0.8
					c0.1,0,0.2,0,0.3,0V170.5z"/>
				<path class="st2" d="M103.9,175.8l1.1-2.3l-1.9-3.9h1l1.4,3l1.3-3h0.9l-2.8,6.1H103.9z"/>
				<path class="st2" d="M112.3,171.8c0,1.3-0.9,2.3-2.2,2.3c-1.3,0-2.2-1-2.2-2.3c0-1.3,0.9-2.3,2.2-2.3
					C111.4,169.5,112.3,170.5,112.3,171.8z M111.5,171.8c0-1-0.6-1.5-1.4-1.5c-0.7,0-1.3,0.5-1.3,1.5c0,1,0.6,1.5,1.3,1.5
					C110.8,173.4,111.5,172.8,111.5,171.8z"/>
				<path class="st2" d="M114.9,174.1c-1,0-1.6-0.8-1.6-1.7v-2.7h0.8v2.6c0,0.6,0.3,1.1,1,1.1c0.7,0,1-0.5,1-1.1v-2.6h0.8v3.5
					c0,0.3,0,0.6,0,0.8h-0.8c0-0.1,0-0.3,0-0.5C115.9,173.9,115.4,174.1,114.9,174.1z"/>
				<path class="st2" d="M119.4,172.2c0-0.1,0-0.2,0-0.3c0-0.6,0.2-1,0.7-1.4l0.4-0.3c0.3-0.2,0.5-0.5,0.5-0.9c0-0.5-0.4-1-1.1-1
					c-0.8,0-1.1,0.6-1.1,1.2c0,0.2,0,0.3,0.1,0.4l-0.9-0.1c0-0.1-0.1-0.3-0.1-0.4c0-0.8,0.6-1.8,2-1.8c1.3,0,2,0.9,2,1.8
					c0,0.7-0.4,1.2-0.9,1.6l-0.4,0.3c-0.3,0.2-0.4,0.5-0.4,0.9c0,0,0,0.1,0,0.2H119.4z M119.8,172.9c0.3,0,0.6,0.3,0.6,0.6
					s-0.3,0.6-0.6,0.6c-0.3,0-0.6-0.3-0.6-0.6S119.5,172.9,119.8,172.9z"/>
				<path class="st2" d="M128.5,169.3c-0.1-0.5-0.5-1.1-1.4-1.1c-0.7,0-1.2,0.5-1.2,1.1c0,0.5,0.3,0.8,0.8,0.9l1,0.2
					c1.1,0.2,1.7,0.9,1.7,1.8c0,1-0.8,1.9-2.2,1.9c-1.5,0-2.3-1-2.4-1.9l0.8-0.3c0.1,0.7,0.6,1.4,1.5,1.4c0.9,0,1.3-0.5,1.3-1
					c0-0.5-0.3-0.9-1-1l-0.9-0.2c-0.9-0.2-1.6-0.8-1.6-1.7c0-1,0.9-1.9,2.1-1.9c1.4,0,2,0.9,2.2,1.6L128.5,169.3z"/>
				<path class="st2" d="M131.2,174h-0.8v-6.5h0.8v2.7c0.3-0.5,0.8-0.6,1.3-0.6c1,0,1.5,0.7,1.5,1.7v2.7h-0.8v-2.6
					c0-0.6-0.3-1.1-1-1.1c-0.6,0-1,0.5-1,1.1V174z"/>
				<path class="st2" d="M139.2,172.8c-0.2,0.8-0.9,1.4-1.9,1.4c-1.2,0-2.2-0.8-2.2-2.3c0-1.4,1-2.3,2.1-2.3c1.3,0,2.1,0.9,2.1,2.3
					c0,0.1,0,0.2,0,0.3h-3.3c0,0.8,0.6,1.3,1.3,1.3c0.7,0,1.1-0.4,1.2-0.9L139.2,172.8z M138.3,171.4c0-0.6-0.4-1.1-1.2-1.1
					c-0.7,0-1.1,0.5-1.2,1.1H138.3z"/>
				<path class="st2" d="M142.4,174v-4.3h0.8v0.6c0.3-0.5,0.8-0.7,1.3-0.7c0.5,0,1.1,0.3,1.3,0.8c0.3-0.6,0.9-0.8,1.5-0.8
					c0.8,0,1.5,0.5,1.5,1.6v2.8h-0.8v-2.7c0-0.6-0.3-1-0.9-1c-0.6,0-1,0.5-1,1.1v2.6h-0.8v-2.7c0-0.6-0.3-1-0.9-1
					c-0.6,0-1,0.5-1,1.1v2.6H142.4z"/>
				<path class="st2" d="M154.2,171.8c0,1.3-0.9,2.3-2.2,2.3s-2.2-1-2.2-2.3c0-1.3,0.9-2.3,2.2-2.3S154.2,170.5,154.2,171.8z
					 M153.3,171.8c0-1-0.6-1.5-1.4-1.5s-1.4,0.5-1.4,1.5c0,1,0.6,1.5,1.4,1.5S153.3,172.8,153.3,171.8z"/>
				<path class="st2" d="M155.5,172.6c0.1,0.5,0.4,0.8,1,0.8c0.5,0,0.7-0.3,0.7-0.6c0-0.3-0.2-0.5-0.6-0.6l-0.7-0.2
					c-0.7-0.1-1.1-0.6-1.1-1.2c0-0.7,0.7-1.4,1.5-1.4c1.2,0,1.6,0.8,1.6,1.2l-0.7,0.3c0-0.2-0.2-0.7-0.9-0.7c-0.4,0-0.7,0.3-0.7,0.6
					c0,0.3,0.2,0.5,0.5,0.5l0.7,0.2c0.8,0.2,1.2,0.6,1.2,1.3c0,0.6-0.5,1.3-1.6,1.3c-1.2,0-1.7-0.8-1.8-1.3L155.5,172.6z"/>
				<path class="st2" d="M160.3,169.7h0.9v0.8h-0.9v2.3c0,0.4,0.2,0.6,0.6,0.6c0.1,0,0.3,0,0.3,0v0.7c-0.1,0-0.3,0.1-0.6,0.1
					c-0.7,0-1.2-0.5-1.2-1.2v-2.4h-0.8v-0.8h0.2c0.5,0,0.7-0.3,0.7-0.7v-0.7h0.8V169.7z"/>
			</g>
			<g class="st1">
				<path class="st2" d="M13.1,181.5c-0.1,0-0.3,0-0.4,0c-0.7,0-1.2,0.4-1.2,1.3v2.2h-0.8v-4.3h0.8v0.8c0.3-0.7,0.9-0.8,1.3-0.8
					c0.1,0,0.2,0,0.3,0V181.5z"/>
				<path class="st2" d="M17.7,183.8c-0.2,0.8-0.9,1.4-1.9,1.4c-1.2,0-2.2-0.8-2.2-2.3c0-1.4,1-2.3,2.1-2.3c1.3,0,2.1,0.9,2.1,2.3
					c0,0.1,0,0.2,0,0.3h-3.3c0,0.8,0.6,1.3,1.3,1.3c0.7,0,1.1-0.4,1.2-0.9L17.7,183.8z M16.9,182.4c0-0.6-0.4-1.1-1.2-1.1
					c-0.7,0-1.1,0.5-1.2,1.1H16.9z"/>
				<path class="st2" d="M19.3,182.8c0,1,0.6,1.5,1.3,1.5c0.8,0,1.1-0.5,1.2-0.9l0.7,0.3c-0.2,0.6-0.8,1.4-2,1.4
					c-1.3,0-2.2-1-2.2-2.3c0-1.4,0.9-2.3,2.2-2.3c1.2,0,1.7,0.7,1.9,1.4l-0.8,0.3c-0.1-0.4-0.4-0.9-1.2-0.9
					C19.9,181.3,19.3,181.8,19.3,182.8z"/>
				<path class="st2" d="M27.2,183.8c-0.2,0.8-0.9,1.4-1.9,1.4c-1.2,0-2.2-0.8-2.2-2.3c0-1.4,1-2.3,2.1-2.3c1.3,0,2.1,0.9,2.1,2.3
					c0,0.1,0,0.2,0,0.3H24c0,0.8,0.6,1.3,1.3,1.3c0.7,0,1.1-0.4,1.2-0.9L27.2,183.8z M26.4,182.4c0-0.6-0.4-1.1-1.2-1.1
					c-0.7,0-1.1,0.5-1.2,1.1H26.4z"/>
				<path class="st2" d="M29.1,185h-0.8v-4.3h0.8v0.6c0.3-0.5,0.8-0.7,1.3-0.7c1,0,1.5,0.7,1.5,1.7v2.7h-0.8v-2.6
					c0-0.6-0.3-1.1-1-1.1c-0.7,0-1,0.5-1,1.2V185z"/>
				<path class="st2" d="M34.4,180.7h0.9v0.8h-0.9v2.3c0,0.4,0.2,0.6,0.6,0.6c0.1,0,0.3,0,0.3,0v0.7c-0.1,0-0.3,0.1-0.6,0.1
					c-0.7,0-1.2-0.5-1.2-1.2v-2.4h-0.8v-0.8H33c0.5,0,0.7-0.3,0.7-0.7v-0.7h0.8V180.7z"/>
				<path class="st2" d="M36.4,185v-6.5h0.8v6.5H36.4z"/>
				<path class="st2" d="M38.8,186.8l1.1-2.3l-1.9-3.9h1l1.4,3l1.3-3h0.9l-2.8,6.1H38.8z"/>
				<path class="st2" d="M46.7,180.7h0.9v0.8h-0.9v2.3c0,0.4,0.2,0.6,0.6,0.6c0.1,0,0.3,0,0.3,0v0.7c-0.1,0-0.3,0.1-0.6,0.1
					c-0.7,0-1.2-0.5-1.2-1.2v-2.4H45v-0.8h0.2c0.5,0,0.7-0.3,0.7-0.7v-0.7h0.8V180.7z"/>
				<path class="st2" d="M52.7,182.8c0,1.3-0.9,2.3-2.2,2.3s-2.2-1-2.2-2.3c0-1.3,0.9-2.3,2.2-2.3S52.7,181.5,52.7,182.8z
					 M51.9,182.8c0-1-0.6-1.5-1.4-1.5s-1.4,0.5-1.4,1.5c0,1,0.6,1.5,1.4,1.5S51.9,183.8,51.9,182.8z"/>
				<path class="st2" d="M57.8,182.8c0,1.3-0.9,2.3-2.2,2.3s-2.2-1-2.2-2.3c0-1.3,0.9-2.3,2.2-2.3S57.8,181.5,57.8,182.8z M57,182.8
					c0-1-0.6-1.5-1.4-1.5s-1.4,0.5-1.4,1.5c0,1,0.6,1.5,1.4,1.5S57,183.8,57,182.8z"/>
				<path class="st2" d="M60.9,182.5l1.9,2.5h-1.1l-1.4-1.9l-0.6,0.6v1.3h-0.8v-6.5h0.8v4.1l1.9-1.9h1.2L60.9,182.5z"/>
				<path class="st2" d="M69.8,182.8c0,1.3-0.9,2.3-2.2,2.3s-2.2-1-2.2-2.3c0-1.3,0.9-2.3,2.2-2.3S69.8,181.5,69.8,182.8z M69,182.8
					c0-1-0.6-1.5-1.4-1.5s-1.4,0.5-1.4,1.5c0,1,0.6,1.5,1.4,1.5S69,183.8,69,182.8z"/>
				<path class="st2" d="M71.7,185h-0.8v-4.3h0.8v0.6c0.3-0.5,0.8-0.7,1.3-0.7c1,0,1.5,0.7,1.5,1.7v2.7h-0.8v-2.6
					c0-0.6-0.3-1.1-1-1.1c-0.7,0-1,0.5-1,1.2V185z"/>
				<path class="st2" d="M79.1,182.5l1.2-0.2c0.3,0,0.3-0.2,0.3-0.3c0-0.4-0.3-0.8-0.9-0.8c-0.6,0-0.9,0.4-1,0.9l-0.8-0.2
					c0.1-0.8,0.8-1.4,1.8-1.4c1.3,0,1.8,0.7,1.8,1.6v2.2c0,0.4,0,0.6,0.1,0.7h-0.8c0-0.1,0-0.3,0-0.6c-0.2,0.3-0.6,0.7-1.4,0.7
					c-0.9,0-1.4-0.6-1.4-1.3C77.8,183.1,78.4,182.6,79.1,182.5z M80.6,183.1v-0.2l-1.3,0.2c-0.4,0.1-0.6,0.3-0.6,0.6
					c0,0.3,0.3,0.6,0.7,0.6C80.1,184.4,80.6,184.1,80.6,183.1z"/>
				<path class="st2" d="M85.4,182.8c0,1,0.6,1.5,1.3,1.5c0.8,0,1.1-0.5,1.2-0.9l0.7,0.3c-0.2,0.6-0.8,1.4-2,1.4
					c-1.3,0-2.2-1-2.2-2.3c0-1.4,0.9-2.3,2.2-2.3c1.2,0,1.7,0.7,1.9,1.4l-0.8,0.3c-0.1-0.4-0.4-0.9-1.2-0.9
					C86.1,181.3,85.4,181.8,85.4,182.8z"/>
				<path class="st2" d="M90.1,178.4c0.3,0,0.6,0.3,0.6,0.6c0,0.3-0.3,0.6-0.6,0.6c-0.3,0-0.6-0.3-0.6-0.6
					C89.5,178.7,89.7,178.4,90.1,178.4z M89.7,185v-4.3h0.8v4.3H89.7z"/>
				<path class="st2" d="M93.9,185H93l-1.8-4.3h1l1.2,3.3l1.2-3.3h0.9L93.9,185z"/>
				<path class="st2" d="M96.8,178.4c0.3,0,0.6,0.3,0.6,0.6c0,0.3-0.3,0.6-0.6,0.6c-0.3,0-0.6-0.3-0.6-0.6
					C96.2,178.7,96.4,178.4,96.8,178.4z M96.4,185v-4.3h0.8v4.3H96.4z"/>
				<path class="st2" d="M98.6,185v-6.5h0.8v6.5H98.6z"/>
				<path class="st2" d="M105.4,181.5c-0.1,0-0.3,0-0.4,0c-0.7,0-1.2,0.4-1.2,1.3v2.2H103v-4.3h0.8v0.8c0.3-0.7,0.9-0.8,1.3-0.8
					c0.1,0,0.2,0,0.3,0V181.5z"/>
				<path class="st2" d="M106.7,178.4c0.3,0,0.6,0.3,0.6,0.6c0,0.3-0.3,0.6-0.6,0.6c-0.3,0-0.6-0.3-0.6-0.6
					C106.1,178.7,106.4,178.4,106.7,178.4z M106.3,185v-4.3h0.8v4.3H106.3z"/>
				<path class="st2" d="M109,185c0.1,0.6,0.5,1.1,1.2,1.1c0.9,0,1.3-0.5,1.3-1.4v-0.6c-0.2,0.4-0.7,0.7-1.3,0.7c-1.2,0-2-0.9-2-2.1
					c0-1.2,0.8-2.1,2-2.1c0.7,0,1.1,0.3,1.3,0.7v-0.6h0.8v4c0,1.1-0.5,2.2-2.2,2.2c-1.1,0-1.9-0.7-2-1.6L109,185z M111.6,182.7
					c0-0.8-0.5-1.4-1.2-1.4c-0.7,0-1.3,0.5-1.3,1.4c0,0.8,0.5,1.4,1.3,1.4C111.1,184.1,111.6,183.5,111.6,182.7z"/>
				<path class="st2" d="M114.5,185h-0.8v-6.5h0.8v2.7c0.3-0.5,0.8-0.6,1.3-0.6c1,0,1.5,0.7,1.5,1.7v2.7h-0.8v-2.6
					c0-0.6-0.3-1.1-1-1.1c-0.6,0-1,0.5-1,1.1V185z"/>
				<path class="st2" d="M119.8,180.7h0.9v0.8h-0.9v2.3c0,0.4,0.2,0.6,0.6,0.6c0.1,0,0.3,0,0.3,0v0.7c-0.1,0-0.3,0.1-0.6,0.1
					c-0.7,0-1.2-0.5-1.2-1.2v-2.4h-0.8v-0.8h0.2c0.5,0,0.7-0.3,0.7-0.7v-0.7h0.8V180.7z"/>
				<path class="st2" d="M122.3,183.6c0.1,0.5,0.4,0.8,1,0.8c0.5,0,0.7-0.3,0.7-0.6c0-0.3-0.2-0.5-0.6-0.6l-0.7-0.2
					c-0.7-0.1-1.1-0.6-1.1-1.2c0-0.7,0.7-1.4,1.5-1.4c1.2,0,1.6,0.8,1.6,1.2l-0.7,0.3c0-0.2-0.2-0.7-0.9-0.7c-0.4,0-0.7,0.3-0.7,0.6
					c0,0.3,0.2,0.5,0.5,0.5l0.7,0.2c0.8,0.2,1.2,0.6,1.2,1.3c0,0.6-0.5,1.3-1.6,1.3c-1.2,0-1.7-0.8-1.8-1.3L122.3,183.6z"/>
				<path class="st2" d="M128.6,182.8c0,1,0.6,1.5,1.3,1.5c0.8,0,1.1-0.5,1.2-0.9l0.7,0.3c-0.2,0.6-0.8,1.4-2,1.4
					c-1.3,0-2.2-1-2.2-2.3c0-1.4,0.9-2.3,2.2-2.3c1.2,0,1.7,0.7,1.9,1.4l-0.8,0.3c-0.1-0.4-0.4-0.9-1.2-0.9
					C129.3,181.3,128.6,181.8,128.6,182.8z"/>
				<path class="st2" d="M133.8,182.5l1.2-0.2c0.3,0,0.3-0.2,0.3-0.3c0-0.4-0.3-0.8-0.9-0.8c-0.6,0-0.9,0.4-1,0.9l-0.8-0.2
					c0.1-0.8,0.8-1.4,1.8-1.4c1.3,0,1.8,0.7,1.8,1.6v2.2c0,0.4,0,0.6,0.1,0.7h-0.8c0-0.1,0-0.3,0-0.6c-0.2,0.3-0.6,0.7-1.4,0.7
					c-0.9,0-1.4-0.6-1.4-1.3C132.5,183.1,133.1,182.6,133.8,182.5z M135.4,183.1v-0.2l-1.3,0.2c-0.4,0.1-0.6,0.3-0.6,0.6
					c0,0.3,0.3,0.6,0.7,0.6C134.8,184.4,135.4,184.1,135.4,183.1z"/>
				<path class="st2" d="M137.8,183.6c0.1,0.5,0.4,0.8,1,0.8c0.5,0,0.7-0.3,0.7-0.6c0-0.3-0.2-0.5-0.6-0.6l-0.7-0.2
					c-0.7-0.1-1.1-0.6-1.1-1.2c0-0.7,0.7-1.4,1.5-1.4c1.2,0,1.6,0.8,1.6,1.2l-0.7,0.3c0-0.2-0.2-0.7-0.9-0.7c-0.4,0-0.7,0.3-0.7,0.6
					c0,0.3,0.2,0.5,0.5,0.5l0.7,0.2c0.8,0.2,1.2,0.6,1.2,1.3c0,0.6-0.5,1.3-1.6,1.3c-1.2,0-1.7-0.8-1.8-1.3L137.8,183.6z"/>
				<path class="st2" d="M145.2,183.8c-0.2,0.8-0.9,1.4-1.9,1.4c-1.2,0-2.2-0.8-2.2-2.3c0-1.4,1-2.3,2.1-2.3c1.3,0,2.1,0.9,2.1,2.3
					c0,0.1,0,0.2,0,0.3H142c0,0.8,0.6,1.3,1.3,1.3c0.7,0,1.1-0.4,1.2-0.9L145.2,183.8z M144.4,182.4c0-0.6-0.4-1.1-1.2-1.1
					c-0.7,0-1.1,0.5-1.2,1.1H144.4z"/>
				<path class="st2" d="M149.5,182.5l1.2-0.2c0.3,0,0.3-0.2,0.3-0.3c0-0.4-0.3-0.8-0.9-0.8c-0.6,0-0.9,0.4-1,0.9l-0.8-0.2
					c0.1-0.8,0.8-1.4,1.8-1.4c1.3,0,1.8,0.7,1.8,1.6v2.2c0,0.4,0,0.6,0.1,0.7h-0.8c0-0.1,0-0.3,0-0.6c-0.2,0.3-0.6,0.7-1.4,0.7
					c-0.9,0-1.4-0.6-1.4-1.3C148.2,183.1,148.8,182.6,149.5,182.5z M151,183.1v-0.2l-1.3,0.2c-0.4,0.1-0.6,0.3-0.6,0.6
					c0,0.3,0.3,0.6,0.7,0.6C150.5,184.4,151,184.1,151,183.1z"/>
				<path class="st2" d="M153.6,185c0.1,0.6,0.5,1.1,1.2,1.1c0.9,0,1.3-0.5,1.3-1.4v-0.6c-0.2,0.4-0.7,0.7-1.3,0.7
					c-1.2,0-2-0.9-2-2.1c0-1.2,0.8-2.1,2-2.1c0.7,0,1.1,0.3,1.3,0.7v-0.6h0.8v4c0,1.1-0.5,2.2-2.2,2.2c-1.1,0-1.9-0.7-2-1.6
					L153.6,185z M156.2,182.7c0-0.8-0.5-1.4-1.2-1.4c-0.7,0-1.3,0.5-1.3,1.4c0,0.8,0.5,1.4,1.3,1.4
					C155.7,184.1,156.2,183.5,156.2,182.7z"/>
				<path class="st2" d="M159.3,182.5l1.2-0.2c0.3,0,0.3-0.2,0.3-0.3c0-0.4-0.3-0.8-0.9-0.8c-0.6,0-0.9,0.4-1,0.9l-0.8-0.2
					c0.1-0.8,0.8-1.4,1.8-1.4c1.3,0,1.8,0.7,1.8,1.6v2.2c0,0.4,0,0.6,0.1,0.7h-0.8c0-0.1,0-0.3,0-0.6c-0.2,0.3-0.6,0.7-1.4,0.7
					c-0.9,0-1.4-0.6-1.4-1.3C158,183.1,158.6,182.6,159.3,182.5z M160.8,183.1v-0.2l-1.3,0.2c-0.4,0.1-0.6,0.3-0.6,0.6
					c0,0.3,0.3,0.6,0.7,0.6C160.2,184.4,160.8,184.1,160.8,183.1z"/>
				<path class="st2" d="M163.3,178.4c0.3,0,0.6,0.3,0.6,0.6c0,0.3-0.3,0.6-0.6,0.6c-0.3,0-0.6-0.3-0.6-0.6
					C162.7,178.7,163,178.4,163.3,178.4z M162.9,185v-4.3h0.8v4.3H162.9z"/>
				<path class="st2" d="M166,185h-0.8v-4.3h0.8v0.6c0.3-0.5,0.8-0.7,1.3-0.7c1,0,1.5,0.7,1.5,1.7v2.7H168v-2.6c0-0.6-0.3-1.1-1-1.1
					c-0.7,0-1,0.5-1,1.2V185z"/>
				<path class="st2" d="M170.5,183.6c0.1,0.5,0.4,0.8,1,0.8c0.5,0,0.7-0.3,0.7-0.6c0-0.3-0.2-0.5-0.6-0.6l-0.7-0.2
					c-0.7-0.1-1.1-0.6-1.1-1.2c0-0.7,0.7-1.4,1.5-1.4c1.2,0,1.6,0.8,1.6,1.2l-0.7,0.3c0-0.2-0.2-0.7-0.9-0.7c-0.4,0-0.7,0.3-0.7,0.6
					c0,0.3,0.2,0.5,0.5,0.5l0.7,0.2c0.8,0.2,1.2,0.6,1.2,1.3c0,0.6-0.5,1.3-1.6,1.3c-1.2,0-1.7-0.8-1.8-1.3L170.5,183.6z"/>
				<path class="st2" d="M175.3,180.7h0.9v0.8h-0.9v2.3c0,0.4,0.2,0.6,0.6,0.6c0.1,0,0.3,0,0.3,0v0.7c-0.1,0-0.3,0.1-0.6,0.1
					c-0.7,0-1.2-0.5-1.2-1.2v-2.4h-0.8v-0.8h0.2c0.5,0,0.7-0.3,0.7-0.7v-0.7h0.8V180.7z"/>
			</g>
			<g class="st1">
				<path class="st2" d="M10.8,196v-6.4h0.9v6.4H10.8z"/>
				<path class="st2" d="M16.6,191.3c-0.1-0.5-0.5-1.1-1.4-1.1c-0.7,0-1.2,0.5-1.2,1.1c0,0.5,0.3,0.8,0.8,0.9l1,0.2
					c1.1,0.2,1.7,0.9,1.7,1.8c0,1-0.8,1.9-2.2,1.9c-1.5,0-2.3-1-2.4-1.9l0.8-0.3c0.1,0.7,0.6,1.4,1.5,1.4c0.9,0,1.3-0.5,1.3-1
					c0-0.5-0.3-0.9-1-1l-0.9-0.2c-0.9-0.2-1.6-0.8-1.6-1.7c0-1,0.9-1.9,2.1-1.9c1.4,0,2,0.9,2.2,1.6L16.6,191.3z"/>
				<path class="st2" d="M18.6,196v-6.4h0.9v6.4H18.6z"/>
				<path class="st2" d="M24.3,191.3c-0.1-0.5-0.5-1.1-1.4-1.1c-0.7,0-1.2,0.5-1.2,1.1c0,0.5,0.3,0.8,0.8,0.9l1,0.2
					c1.1,0.2,1.7,0.9,1.7,1.8c0,1-0.8,1.9-2.2,1.9c-1.5,0-2.3-1-2.4-1.9l0.8-0.3c0.1,0.7,0.6,1.4,1.5,1.4c0.9,0,1.3-0.5,1.3-1
					c0-0.5-0.3-0.9-1-1l-0.9-0.2c-0.9-0.2-1.6-0.8-1.6-1.7c0-1,0.9-1.9,2.1-1.9c1.4,0,2,0.9,2.2,1.6L24.3,191.3z"/>
				<path class="st2" d="M26.8,194.8c0.4,0,0.6,0.3,0.6,0.6s-0.3,0.6-0.6,0.6s-0.6-0.3-0.6-0.6S26.4,194.8,26.8,194.8z"/>
				<path class="st2" d="M30.3,189.6h1.1l1.7,2.8l1.7-2.8h1l-2.3,3.7v2.7h-0.9v-2.7L30.3,189.6z"/>
				<path class="st2" d="M39.4,194.8c-0.2,0.8-0.9,1.4-1.9,1.4c-1.2,0-2.2-0.8-2.2-2.3c0-1.4,1-2.3,2.1-2.3c1.3,0,2.1,0.9,2.1,2.3
					c0,0.1,0,0.2,0,0.3h-3.3c0,0.8,0.6,1.3,1.3,1.3c0.7,0,1.1-0.4,1.2-0.9L39.4,194.8z M38.5,193.4c0-0.6-0.4-1.1-1.2-1.1
					c-0.7,0-1.1,0.5-1.2,1.1H38.5z"/>
				<path class="st2" d="M41.5,193.5l1.2-0.2c0.3,0,0.3-0.2,0.3-0.3c0-0.4-0.3-0.8-0.9-0.8c-0.6,0-0.9,0.4-1,0.9l-0.8-0.2
					c0.1-0.8,0.8-1.4,1.8-1.4c1.3,0,1.8,0.7,1.8,1.6v2.2c0,0.4,0,0.6,0.1,0.7h-0.8c0-0.1,0-0.3,0-0.6c-0.2,0.3-0.6,0.7-1.4,0.7
					c-0.9,0-1.4-0.6-1.4-1.3C40.2,194.1,40.8,193.6,41.5,193.5z M43,194.1v-0.2l-1.3,0.2c-0.4,0.1-0.6,0.3-0.6,0.6
					c0,0.3,0.3,0.6,0.7,0.6C42.5,195.4,43,195.1,43,194.1z"/>
				<path class="st2" d="M45.7,194.8c0.4,0,0.7,0.3,0.7,0.9c0,1.2-0.8,1.7-1.3,1.8V197c0.4-0.1,0.7-0.5,0.7-1c0,0-0.1,0-0.2,0
					c-0.3,0-0.6-0.2-0.6-0.6C45,195.1,45.3,194.8,45.7,194.8z"/>
				<path class="st2" d="M50,196v-6.4h0.9v6.4H50z"/>
				<path class="st2" d="M55.8,191.3c-0.1-0.5-0.5-1.1-1.4-1.1c-0.7,0-1.2,0.5-1.2,1.1c0,0.5,0.3,0.8,0.8,0.9l1,0.2
					c1.1,0.2,1.7,0.9,1.7,1.8c0,1-0.8,1.9-2.2,1.9c-1.5,0-2.3-1-2.4-1.9l0.8-0.3c0.1,0.7,0.6,1.4,1.5,1.4c0.9,0,1.3-0.5,1.3-1
					c0-0.5-0.3-0.9-1-1l-0.9-0.2c-0.9-0.2-1.6-0.8-1.6-1.7c0-1,0.9-1.9,2.1-1.9c1.4,0,2,0.9,2.2,1.6L55.8,191.3z"/>
				<path class="st2" d="M57.8,196v-6.4h0.9v6.4H57.8z"/>
				<path class="st2" d="M63.5,191.3c-0.1-0.5-0.5-1.1-1.4-1.1c-0.7,0-1.2,0.5-1.2,1.1c0,0.5,0.3,0.8,0.8,0.9l1,0.2
					c1.1,0.2,1.7,0.9,1.7,1.8c0,1-0.8,1.9-2.2,1.9c-1.5,0-2.3-1-2.4-1.9l0.8-0.3c0.1,0.7,0.6,1.4,1.5,1.4c0.9,0,1.3-0.5,1.3-1
					c0-0.5-0.3-0.9-1-1l-0.9-0.2c-0.9-0.2-1.6-0.8-1.6-1.7c0-1,0.9-1.9,2.1-1.9c1.4,0,2,0.9,2.2,1.6L63.5,191.3z"/>
				<path class="st2" d="M66,194.8c0.4,0,0.6,0.3,0.6,0.6S66.3,196,66,196s-0.6-0.3-0.6-0.6S65.6,194.8,66,194.8z"/>
			</g>
		</g>
	</g>
</g>
</svg>
