<?xml version="1.0" encoding="utf-8"?>
<!-- Generator: Adobe Illustrator 20.0.0, SVG Export Plug-In . SVG Version: 6.00 Build 0)  -->
<svg version="1.1" id="Layer_1" xmlns="http://www.w3.org/2000/svg" xmlns:xlink="http://www.w3.org/1999/xlink" x="0px" y="0px"
	 viewBox="0 0 196 266.7" style="enable-background:new 0 0 196 266.7;" xml:space="preserve">
<style type="text/css">
	.st0{fill:#F8E4E3;}
	.st1{fill:#BE1E2D;}
	.st2{fill:#EEC5A6;}
	.st3{fill:#CFAE9A;}
	.st4{fill:#F0D0B3;}
	.st5{fill:#EDCAAF;}
	.st6{fill:#C8A27D;}
	.st7{fill:#6B3720;}
	.st8{fill:#D6817E;}
	.st9{fill:#EDCAAD;}
	.st10{fill:#EBF4F0;}
	.st11{fill:#7BA29E;}
	.st12{fill:#1D1611;}
	.st13{fill:#AE7B37;}
	.st14{opacity:0.8;fill:#EBC19C;}
	.st15{fill:#D39C82;}
	.st16{fill:#F8E8D7;}
	.st17{fill:#EECDB0;}
	.st18{fill:#E3B59D;}
	.st19{opacity:0.11;fill:#E29067;}
	.st20{fill:#E6BE82;}
	.st21{fill:none;stroke:#E3B59D;stroke-width:0.5;stroke-miterlimit:10;}
	.st22{opacity:0.15;}
	.st23{fill:#BB9057;}
	.st24{fill:none;}
	.st25{fill:#FFCD7E;}
	.st26{fill:#FFD594;}
</style>
<title>badbitchcards</title>
<path class="st0" d="M17.1,8.5h161.6c4.7,0,8.5,3.8,8.5,8.5v232.4c0,4.7-3.8,8.5-8.5,8.5H17.1c-4.7,0-8.5-3.8-8.5-8.5V17
	C8.6,12.3,12.4,8.5,17.1,8.5z"/>
<path class="st1" d="M19.9,31.7c0-1.9,1.3-3.5,3.1-4c-1.6-0.6-2.7-2.1-2.7-3.8c0-2.7,2.4-4.5,5.5-4.5s5.5,1.9,5.5,4.5
	c0,1.7-1.1,3.2-2.7,3.8c1.8,0.5,3.1,2.1,3.1,4c0,2.6-2.2,4.7-5.9,4.7S19.9,34.3,19.9,31.7z M29.2,31.5c0-1.6-1.3-2.8-3.4-2.8
	s-3.4,1.2-3.4,2.8s1.2,2.8,3.4,2.8S29.2,33,29.2,31.5z M28.8,23.9c-0.1-1.5-1.3-2.7-2.8-2.6c-0.1,0-0.1,0-0.2,0
	c-1.5-0.2-2.8,0.9-3,2.4c0,0.1,0,0.1,0,0.2c0,1.5,1.3,2.7,2.9,2.7h0.1c1.5,0.1,2.9-1,3-2.5C28.8,24,28.8,24,28.8,23.9z"/>
<path class="st1" d="M21.7,42.9c2.6,0,3.9,1.2,5.1,3.6c1.3-2.4,2.6-3.6,5.1-3.6c2.8-0.1,5.1,2.1,5.2,4.8c0,0,0,0,0,0.1
	c0,4.9-5.2,9.8-10.3,14.7c-5.2-4.9-10.3-9.8-10.3-14.7C16.6,45,18.9,42.8,21.7,42.9L21.7,42.9z"/>
<path class="st1" d="M173.6,224.9c-2.6,0-3.9-1.2-5.1-3.6c-1.3,2.4-2.6,3.6-5.1,3.6c-2.8,0.1-5.1-2.1-5.2-4.8c0,0,0,0,0-0.1
	c0-4.9,5.1-9.8,10.3-14.7c5.2,4.9,10.3,9.8,10.3,14.7C178.7,222.8,176.4,225,173.6,224.9L173.6,224.9z"/>
<path class="st1" d="M175.4,234.9c0,1.9-1.3,3.5-3.1,4c1.6,0.6,2.7,2.1,2.7,3.8c0,2.7-2.4,4.5-5.5,4.5s-5.5-1.9-5.5-4.5
	c0-1.7,1.1-3.2,2.7-3.8c-1.8-0.5-3.1-2.1-3.1-4c0-2.6,2.2-4.7,5.9-4.7S175.4,232.3,175.4,234.9z M166.1,235.1c0,1.6,1.3,2.8,3.4,2.8
	s3.4-1.2,3.4-2.8s-1.2-2.8-3.4-2.8S166.1,233.6,166.1,235.1L166.1,235.1z M166.5,242.7c0.3,1.7,1.9,2.7,3.6,2.4
	c1.2-0.2,2.2-1.2,2.4-2.4c0-1.7-1.3-3-3-3S166.5,241,166.5,242.7L166.5,242.7z"/>
<g>
	<path class="st2" d="M138.6,171.8C140,153.2,138.6,171.8,138.6,171.8s-59.5-6.6-67.3,0.9s0,0,0,0s4.1,15.1,1,26.9
		c-3.1,11.8,20,41.1,33.1,41.1c32.6,0,46.2-53.1,46.2-53.1s-10-4.7-8.8-32.3"/>
	<path class="st3" d="M88,181.5c0,0-2.5,12.5-2,15c0.5,2.5-12.4-3.6-12.4-3.6s-0.2-9.8-2.2-17.1c-2-7.3,14.6,0,14.6,0L88,181.5z"/>
	<g>
		<path class="st3" d="M138.7,170.2C138.7,170.2,138.7,170.2,138.7,170.2C138.7,170.2,138.7,170.2,138.7,170.2z"/>
		<path class="st3" d="M138.8,169.9c0-0.5,0.1-1,0.1-1.6C138.9,168.8,138.8,169.4,138.8,169.9z"/>
		<path class="st3" d="M138.9,168.4c0-0.6,0.1-1.1,0.1-1.5C139,167.3,138.9,167.8,138.9,168.4z"/>
		<path class="st3" d="M138.7,170.2c0-0.1,0-0.2,0-0.3C138.8,170,138.8,170.1,138.7,170.2z"/>
		<path class="st3" d="M138.7,171.4c0,0,0-0.1,0-0.1C138.7,171.3,138.7,171.4,138.7,171.4z"/>
		<path class="st3" d="M138.7,171.3c0-0.1,0-0.2,0-0.3C138.7,171.1,138.7,171.2,138.7,171.3z"/>
		<path class="st3" d="M138.6,171.7C138.6,171.7,138.6,171.6,138.6,171.7C138.6,171.7,138.6,171.7,138.6,171.7z"/>
		<path class="st3" d="M138.6,171.8C138.6,171.8,138.6,171.8,138.6,171.8C138.6,171.7,138.6,171.8,138.6,171.8z"/>
		<path class="st3" d="M138.6,171.6c0-0.1,0-0.1,0-0.2C138.7,171.5,138.6,171.5,138.6,171.6z"/>
		<path class="st3" d="M138.7,171c0-0.3,0-0.5,0.1-0.8C138.7,170.5,138.7,170.8,138.7,171z"/>
		<path class="st3" d="M139.2,163.6C139.3,163.5,139.3,163.5,139.2,163.6L139.2,163.6z"/>
		<path class="st3" d="M139.2,163.8c0-0.1,0-0.1,0-0.2C139.2,163.7,139.2,163.7,139.2,163.8z"/>
		<path class="st3" d="M139.2,164.1c0-0.1,0-0.2,0-0.3C139.2,163.9,139.2,164,139.2,164.1z"/>
		<path class="st3" d="M144.9,177.5l-0.1-0.6c-1.1-3.8-2-8.9-2.1-15.7l-1.6,0.8l-2.5,9.8c0,0-5.7-0.6-13.9-1.3l-16.8,8.8l-7.1,13.5
			c0,0,4.3,6.1,9.6,6.1C115.7,198.8,144.9,177.5,144.9,177.5z"/>
		<path class="st3" d="M139.2,164.5c0-0.2,0-0.3,0-0.4C139.2,164.2,139.2,164.4,139.2,164.5z"/>
		<path class="st3" d="M139.1,165.4c0-0.3,0-0.5,0.1-0.7C139.1,164.9,139.1,165.1,139.1,165.4z"/>
		<path class="st3" d="M139.1,165.7c0-0.1,0-0.2,0-0.4C139.1,165.5,139.1,165.6,139.1,165.7z"/>
		<path class="st3" d="M139,166.8c0-0.4,0.1-0.7,0.1-1.1C139.1,166.1,139,166.4,139,166.8z"/>
		<path class="st3" d="M139.2,164.7c0-0.1,0-0.1,0-0.1C139.2,164.6,139.2,164.6,139.2,164.7z"/>
	</g>
	<path class="st4" d="M96.7,65.5c-29.6,0-44.3,15.2-44.6,55c0,20.7,0,23.7,1.5,25.7c1.5,2.1,3.4,8.9,4,12.3c0.7,3.4-0.7,9,9.3,20.5
		s16.7,18.3,36.8,18.3s37.9-24.4,39.3-37.9s2-41.5,2-41.5s-8.4-2.3-16.5-14.9s-5.4-25.1-16-31.6C96.7,68.7,96.7,65.5,96.7,65.5z"/>
	<path class="st5" d="M75.7,168.8c0,0-2.5,26.9,18.2,26.9s27.4-16.5,26.2-21.2c-1.2-4.7-9.7-14.4-9.7-14.4L75.7,168.8z"/>
	<path class="st6" d="M69.1,125.1c-1.6-1.6-10,1.1-10,4.4L69.1,125.1z"/>
	<path class="st7" d="M88.6,152.7c0,0,0.5-3.3,5.4-3.2"/>
	<path class="st7" d="M80.8,154.3c0,0-1.4-1.4-2.6-1.6s-2.5,0-2.5,0"/>
	<path class="st8" d="M75.7,168.8c-0.2,0.1,8.7-4.6,9.6-5.1c0.9-0.5,3.4-0.3,3.6,0c0,0,1.5-1.1,3.6-1.4c2.1-0.3,15-1.8,15-1.8l3-0.5
		c0,0-4.5,2.4-8.3,7.2c-3.8,4.8-12.7,6.5-15.9,5.5C83.1,171.7,78.8,166.8,75.7,168.8z"/>
	<path class="st4" d="M145,116.5c0,0,1.5-4.8,3-5.8c1.5-1,6.6-0.7,7.9,5.8s2.1,27.1-5.5,29.2s-6.4-1.4-6.4-1.4L145,116.5z"/>
	<path class="st9" d="M78.3,141.8c-0.2-11.6-1.3-16.7-2.4-19c-0.5-1.1,0.1-2.4,1.2-2.8l4.3-1.4c1.3-0.4,2.6,0.5,2.7,1.8l1.6,26.4
		c0,0.8-0.3,1.5-1,1.9c-1.1,0.6-2.9,1.3-4.7,0.2C77.2,147.1,78.4,148.9,78.3,141.8z"/>
	<path class="st6" d="M99.4,118.9c1.9-1.9,12.4-2.2,12.4,3.3L99.4,118.9z"/>
	<path class="st10" d="M93.9,124.8c0,0,4.4-5.6,5.5-5.9c1.1-0.3,8.4-0.3,9.8,0.4c1.4,0.7,2.6,2.9,2.6,2.9s-5.1,2.6-9,2.9
		C99,125.4,93.9,124.8,93.9,124.8z"/>
	<path class="st11" d="M101.2,118.8c0,0-0.2,4.9,3.1,4.8c3.3-0.1,3.6-4.3,3.3-4.7C107.3,118.6,101.2,118.8,101.2,118.8z"/>
	<circle class="st12" cx="104" cy="120.5" r="1.1"/>
	<path class="st10" d="M74.3,128.4c0,0-4.8-3.4-6.4-3.5c-1.6-0.1-7.3,1.6-8.8,4.6c0,0,0.8,1.2,2.8,1.5c2,0.3,10.3-0.4,11-0.8
		c0.8-0.4,1.4-1.1,1.4-1.1V128.4z"/>
	<path class="st11" d="M65.4,125.3c0,0-1,4.3,2.7,4.7c3.6,0.4,2.9-3.8,2.9-3.8S68.6,124,65.4,125.3z"/>
	
		<ellipse transform="matrix(0.9987 -5.105619e-02 5.105619e-02 0.9987 -6.3913 3.6598)" class="st12" cx="68.4" cy="126.9" rx="1" ry="1"/>
	<g>
		<path class="st13" d="M87.3,117.5c0.1-0.5,1-0.7,1.4-1.1"/>
	</g>
	<g>
		<path class="st13" d="M90.2,116.6c0-0.1-0.2-0.2-0.1-0.3c0-0.1,0.6-0.7,0.6-0.8c0.2-0.2,0.5-0.5,0.8-0.6c0.2-0.1,0.5-0.1,0.7-0.3"
			/>
	</g>
	<g>
		<path class="st13" d="M92.1,116.4c0.2-0.2,0.2-0.3,0.3-0.5c0.2-0.3,0.4-0.5,0.7-0.7c0.5-0.3,1.1-0.6,1.6-1"/>
	</g>
	<g>
		<path class="st13" d="M95.6,115.2c0,0,0,0.1,0,0.1c0.3-0.2,0.4-0.5,0.6-0.7c0.2-0.3,0.5-0.5,0.7-0.8c0.5-0.5,0.9-0.8,1.2-1.4"/>
	</g>
	<g>
		<path class="st13" d="M99.1,114.4c-0.7-0.1,0.6-1.2,0.7-1.4c0.4-0.4,0.8-0.6,1.3-0.8c0.3-0.1,0.7-0.3,0.9-0.5"/>
	</g>
	<g>
		<path class="st13" d="M102.8,112.4c0.1-0.3,1.3-0.7,1.5-0.9c0.6-0.3,1.4-0.1,1.9-0.5"/>
	</g>
	<g>
		<path class="st13" d="M106.6,112.1c0,0,0-0.1,0-0.1c0.4-0.1,1,0,1.4,0c0.4,0,1.1,0,1.4,0.3"/>
	</g>
	<g>
		<path class="st13" d="M109.3,113c0.4,0,0.7,0,1.1,0.1c0.6,0.2,1.1,0.5,1.7,0.5"/>
	</g>
	<g>
		<path class="st13" d="M70.7,119.5c-0.8-0.5-1.6-1.1-2.3-1.7"/>
	</g>
	<g>
		<path class="st13" d="M68.1,119.2c-0.5,0-0.8-0.7-1.2-0.9c-0.7-0.4-1.5-0.8-2.3-1.1"/>
	</g>
	<g>
		<path class="st13" d="M65.4,119.3c-0.5-0.1-1-0.4-1.5-0.5c-0.7-0.2-1.3-0.3-2-0.3"/>
	</g>
	<g>
		<path class="st13" d="M62,119.6c-0.2,0.1-0.3-0.1-0.5-0.2c-0.1,0-0.5-0.1-0.6-0.1c-0.4,0-0.7,0.1-1.1,0.1c-0.5,0-1.2-0.2-1.5,0.3"
			/>
	</g>
	<g>
		<path class="st13" d="M58.9,120.6c-0.4,0.1-0.7-0.2-1.1-0.2c-0.7,0.1-1.4,0.5-2,0.8"/>
	</g>
	<g>
		<path class="st13" d="M56.5,122.1c-0.3,0-0.5,0-0.8,0.1c-0.6,0.3-1.1,0.8-1.5,1.3"/>
	</g>
	<g>
		<path class="st13" d="M55.1,124.3c-0.1,0.2-0.1,0.2-0.3,0.3c-0.3,0.3-0.4,0.7-0.6,1.1"/>
	</g>
	<path class="st14" d="M148.5,118.9c0,0,4-1.8,5.1,1.2s-1.6,5.2-2.1,8c-0.5,2.8-0.7,5.8-2.9,4.1"/>
	<path class="st15" d="M93.1,125.7c0.5,0.9,3.5-0.5,3.5-0.5l-1.6-1.6L93.1,125.7z"/>
	<path class="st16" d="M82,168.5c0.2-0.1,7.7-0.1,9.7-0.7c2.1-0.6,8.1-3.2,8.3-3.6c0.1-0.4-7.2,2-9.7,2.4
		C87.8,166.9,82,168.5,82,168.5z"/>
	<path class="st17" d="M98.3,143c0,0,6.9,3.4,9.5,6.5s5.7,4.8,8.7,4.8c3,0,21.7-30,12.4-30s-28,7.9-33.2,5.9
		C95.6,130.2,95.1,139,98.3,143z"/>
	<path class="st5" d="M86.3,70.9C86.3,70.9,86.3,70.9,86.3,70.9c0.7,0.4,1.2,0.9,1.5,1.5c1.9,3.3,8.9,15.8,10.8,24.1
		c1.4,6.3-4.4,8.4-8.7,9.1c-2.3,0.4-4.4-1.1-4.8-3.4l-5-27C79.4,71.8,83.2,69.1,86.3,70.9z"/>
	<path class="st17" d="M74.3,134.7c0,0-0.5,5.4,0.4,6.8c0.9,1.4-6.6,22.6-6.6,22.6s-8.4,0.7-10.7-6.1c-2.3-6.8-3.3-20.5-3.3-20.5
		S65.2,139.8,74.3,134.7z"/>
	<g>
		<g>
			<path class="st18" d="M97.7,142.2c3.6,2.6,7.1,5.3,10.6,8.1c1.7,1.4,3.8,2.7,5.2,4.4c1.7,2,1.3,4.5,0.7,6.8c0,0.1,0.5,0.2,0.5,0
				c0.5-2.1,1-4.6-0.4-6.5c-1.2-1.6-3.2-2.9-4.8-4.1c-3.7-3-7.5-5.8-11.4-8.7C98,142,97.5,142.1,97.7,142.2L97.7,142.2z"/>
		</g>
	</g>
	<g>
		<g>
			<path class="st18" d="M73.2,151.8c-1.2,2.7-2.4,5.5-3.5,8.2c-0.3,0.8-0.8,1.7-0.7,2.5c0.2,1.6,2.6,3.7,3.7,4.8
				c0.1,0.1,0.6,0,0.4-0.1c-1.3-1.2-3.7-3.2-3.7-5c0-1,0.8-2.4,1.2-3.3c1-2.3,2-4.7,3-7C73.7,151.7,73.2,151.6,73.2,151.8
				L73.2,151.8z"/>
		</g>
	</g>
	<path class="st18" d="M115,122.1c0,0,2.7,1.1,5.3-1.7s4.1-5.1,4.1-5.1"/>
	<path class="st18" d="M115,123.6c0,0,11.8-0.8,13.3-0.1"/>
	<path class="st18" d="M121.7,121.6c0,0,4.5-1.8,5.5-3.4"/>
	<path class="st18" d="M125.5,121.2c0,0,2.9-0.1,4.4-1.7"/>
	<path class="st18" d="M57.9,134.7c-0.3-0.9-2.8-0.3-3.7-1.1"/>
	<path class="st18" d="M57.9,137.3c0,0-2.2-0.3-3.7,0.9"/>
	<path class="st19" d="M88.7,195.6c4.1,1.2,8.9,1.8,15,1.8c10.8,0,21-7.1,28.3-15.7c-2.6-1.7-11.8-7.2-11.8-7.2
		C113.2,193.5,95.1,195.5,88.7,195.6z"/>
	<path class="st2" d="M142.8,155.3"/>
	<path class="st20" d="M107.5,48.2c0,0-38.8-7-51.3,29.2C56.2,77.4,70.2,48.2,107.5,48.2z"/>
	<path class="st20" d="M111.5,48.1c0,0,24.6-0.6,36.1,18.9C147.6,67,133.1,48.1,111.5,48.1z"/>
	<path class="st21" d="M82,155.1c0,0,2.3,0.3,3.7,0"/>
	<path class="st21" d="M91.3,141.7c-0.3-0.3,3.7-1.9,4.6-0.5s2.4,6.7,0,8.3"/>
	<path class="st21" d="M74.7,145.6c0,0-1.2,4-0.5,5.4s0.5,0.9,0.5,0.9"/>
	<path class="st10" d="M67.1,125.9c0,0-0.6,0.2-0.7,0.9C66.5,126.8,65.8,125.6,67.1,125.9z"/>
	<g class="st22">
		<g>
			<path class="st23" d="M55.9,123.9c1.3-4.3,10.7-3.4,14.3-3.6c1.3-0.1,3.2-3.7,2.3-3.7c-4.7,0.3-9.4,0.2-13.9,2
				c-3,1.2-4.6,4.2-5.6,7.1C52.4,127.8,55.6,124.9,55.9,123.9L55.9,123.9z"/>
		</g>
	</g>
	<g class="st22">
		<g>
			<path class="st23" d="M112.3,112.2c-3.1-2.2-6-2.4-9.6-1.2c-4.5,1.5-9.1,2.6-13.7,3.7c-0.8,1.2-1.7,2.4-2.5,3.6
				c4.3-2.3,9.6-2.4,14.2-4.2c1.1-0.5,2.3-3.5,2.5-3.6c-4.6,1.9-9.9,2-14.2,4.2c-0.8,0.4-2.7,3.6-2.5,3.6c4.2-0.9,8.4-1.7,12.4-3.2
				c3.9-1.4,7.2-1.9,10.7,0.7C110,116.2,112.8,112.6,112.3,112.2L112.3,112.2z"/>
		</g>
	</g>
	<path class="st24" d="M117.4,123.6"/>
	<path class="st25" d="M52.1,120.5c3.3-0.6,5.9-7.6,13.5-7.4c7.3-2,7.5-3.5,7.5-3.5S67.6,90.1,69,83.2c0,0,3.5,20.7,6.7,24.8
		c6.1,2.2,8.5-1,8.5-1s-11.8-22-1.4-34.2c0,0,8.7-1.6,15.7,28.5c0,0,2.2,2,3.3,1.2c1-0.8-3.9-33.6-4.9-35.2s9,2.4,9.6,13.4
		S104,98.8,104,98.8l1.8,2.2c0,0,10-17.9,3.7-29.9c0,0,13.4,8,10.7,24.2c5.9,11.6,16.9,15.9,18.7,21.4c1.8,5.5,8.3,7.9,8.3,7.9
		s-3.1-10.6,0-13c3.1-2.4,10.1,4.4,9.3,19.3s-6.2,14.5-6.2,14.5s3.9,3.7,4.5,6.7c7.3,2,11.8-16.5,12.6-19.5s8.1-21,5.1-30.9
		c-3.1-10-31.6-67.2-63.9-57.9c0,0-20.7-13.4-46.8,9.4s-29.7,40.3-26,62.6c0,0,6.6,20,15.5,28.6c0.7,0.7,1.5,1.3,2.2,1.9L52.1,120.5
		"/>
	<path class="st26" d="M52.1,120.5c3.3-0.6,5.9-7.6,13.5-7.4c7.3-2,7.5-3.5,7.5-3.5S67.6,90.1,69,83.2c0,0,3.5,20.7,6.7,24.8
		c6.1,2.2,8.5-1,8.5-1s-11.8-22-1.4-34.2c0,0,8.7-1.6,15.7,28.5c0,0,2.2,2,3.3,1.2c1-0.8-3.9-33.6-4.9-35.2s9,2.4,9.6,13.4
		S104,98.8,104,98.8l1.8,2.2c0,0,10-17.9,3.7-29.9c0,0,13.4,8,10.7,24.2c5.9,11.6,16.9,15.9,18.7,21.4c1.8,5.5,8.3,7.9,8.3,7.9
		s-3.1-10.6,0-13c3.1-2.4,10.1,4.4,9.3,19.3s-6.2,14.5-6.2,14.5s3.9,3.7,4.5,6.7c7.3,2,11.8-16.5,12.6-19.5s8.1-21,5.1-30.9
		c-3.1-10-31.6-67.2-63.9-57.9c0,0-20.7-13.4-46.8,9.4s-29.7,40.3-26,62.6c0,0,6.6,20,15.5,28.6c0.7,0.7,1.5,1.3,2.2,1.9L52.1,120.5
		"/>
	<path class="st20" d="M172.6,101.8c-8.2-3.7-21.5-7-37.1-0.5c0,0,2.2-20.9-17.6-21c2,3.8,3.4,8.8,2.4,15.1
		c5.9,11.6,16.9,15.9,18.7,21.4c1.8,5.5,8.3,7.9,8.3,7.9s-3.1-10.6,0-13c3.1-2.4,10.1,4.4,9.3,19.3c-0.8,14.9-6.2,14.5-6.2,14.5
		s3.9,3.7,4.5,6.7c7.3,2,11.8-16.5,12.6-19.5C168.3,129.6,175.5,111.8,172.6,101.8z"/>
	<path class="st20" d="M51.4,144.3c0.7,0.7,1.5,1.3,2.2,1.9l-1.3-22.6l-10.4,6.6C44.5,135.4,47.7,140.8,51.4,144.3z"/>
	<path class="st25" d="M147.3,146c0,0-2.7,6.1-1.3,9.6c0,0-2.4,1.5-3.2-0.3s-1.9-11.2-1.9-11.2L147.3,146z"/>
</g>
</svg>
