<?xml version="1.0" encoding="utf-8"?>
<!-- Generator: Adobe Illustrator 20.0.0, SVG Export Plug-In . SVG Version: 6.00 Build 0)  -->
<svg version="1.1" id="Layer_1" xmlns="http://www.w3.org/2000/svg" xmlns:xlink="http://www.w3.org/1999/xlink" x="0px" y="0px"
	 viewBox="0 0 189 263" style="enable-background:new 0 0 189 263;" xml:space="preserve">
<style type="text/css">
	.st0{fill:#FAE5E5;}
	.st1{enable-background:new    ;}
	.st2{fill:#221F20;}
</style>
<title>Group 29</title>
<desc>Created with Sketch.</desc>
<g id="Page-1">
	<g id="Desktop-Copy-2" transform="translate(-307.000000, -1934.000000)">
		<g id="Group-29" transform="translate(307.000000, 1934.000000)">
			<path id="Rectangle-2-Copy-25" class="st0" d="M8,0h173c4.4,0,8,3.6,8,8v247c0,4.4-3.6,8-8,8H8c-4.4,0-8-3.6-8-8V8
				C0,3.6,3.6,0,8,0z"/>
			<g class="st1">
				<path class="st2" d="M53.1,28.2h-4.4L47.6,31h-1.5l4-9.9h1.6l4,9.9h-1.5L53.1,28.2z M49.2,27h3.4l-1.7-4.5L49.2,27z"/>
				<path class="st2" d="M58.1,31h-1.3v-6.7H58v1c0.5-0.8,1.3-1.2,2.1-1.2c1.6,0,2.4,1.2,2.4,2.7V31h-1.3v-4c0-0.9-0.4-1.7-1.6-1.7
					c-1,0-1.6,0.8-1.6,1.8V31z"/>
				<path class="st2" d="M65.9,31h-1.3v-6.7h1.3v1c0.5-0.8,1.3-1.2,2.1-1.2c1.6,0,2.4,1.2,2.4,2.7V31H69v-4c0-0.9-0.4-1.7-1.6-1.7
					c-1,0-1.6,0.8-1.6,1.8V31z"/>
				<path class="st2" d="M73,20.8c0.5,0,1,0.4,1,1c0,0.5-0.4,0.9-1,0.9c-0.5,0-0.9-0.4-0.9-0.9C72,21.2,72.5,20.8,73,20.8z M72.3,31
					v-6.7h1.3V31H72.3z"/>
				<path class="st2" d="M81.7,29.1c-0.4,1.2-1.5,2.1-3,2.1c-1.8,0-3.4-1.3-3.4-3.6c0-2.1,1.5-3.6,3.2-3.6c2.1,0,3.2,1.4,3.2,3.5
					c0,0.2,0,0.3,0,0.4h-5.1c0,1.2,0.9,2,2,2c1.1,0,1.6-0.6,1.9-1.4L81.7,29.1z M80.3,26.9c0-1-0.7-1.7-1.8-1.7
					c-1.1,0-1.8,0.9-1.8,1.7H80.3z"/>
				<path class="st2" d="M86.9,31v-9.9h1.4v8.6H93V31H86.9z"/>
				<path class="st2" d="M100.2,29.1c-0.4,1.2-1.5,2.1-3,2.1c-1.8,0-3.4-1.3-3.4-3.6c0-2.1,1.5-3.6,3.2-3.6c2.1,0,3.2,1.4,3.2,3.5
					c0,0.2,0,0.3,0,0.4h-5.1c0,1.2,0.9,2,2,2c1.1,0,1.6-0.6,1.9-1.4L100.2,29.1z M98.8,26.9c0-1-0.7-1.7-1.8-1.7
					c-1.1,0-1.8,0.9-1.8,1.7H98.8z"/>
				<path class="st2" d="M102.4,20.8c0.5,0,1,0.4,1,1c0,0.5-0.4,0.9-1,0.9c-0.5,0-0.9-0.4-0.9-0.9C101.5,21.2,101.9,20.8,102.4,20.8
					z M101.8,31v-6.7h1.3V31H101.8z"/>
				<path class="st2" d="M105.3,31V20.9h1.3v4.4c0.3-0.6,1.1-1.1,2.2-1.1c2,0,3.1,1.6,3.1,3.5c0,2-1.1,3.6-3.1,3.6
					c-1,0-1.8-0.4-2.2-1.2v1H105.3z M108.6,25.2c-1.2,0-2,0.9-2,2.4c0,1.5,0.8,2.4,2,2.4c1.2,0,2-1,2-2.4
					C110.6,26.1,109.8,25.2,108.6,25.2z"/>
				<path class="st2" d="M119.8,27.6c0,2.1-1.4,3.6-3.4,3.6s-3.4-1.5-3.4-3.6c0-2,1.4-3.6,3.4-3.6S119.8,25.6,119.8,27.6z
					 M118.5,27.6c0-1.6-1-2.4-2.1-2.4s-2.1,0.8-2.1,2.4c0,1.6,1,2.4,2.1,2.4S118.5,29.2,118.5,27.6z"/>
				<path class="st2" d="M124.3,31H123l-2.7-6.7h1.5l1.9,5.2l1.9-5.2h1.4L124.3,31z"/>
				<path class="st2" d="M128.8,20.8c0.5,0,1,0.4,1,1c0,0.5-0.4,0.9-1,0.9c-0.5,0-0.9-0.4-0.9-0.9C127.9,21.2,128.3,20.8,128.8,20.8
					z M128.2,31v-6.7h1.3V31H128.2z"/>
				<path class="st2" d="M133.4,24.3h1.5v1.2h-1.5V29c0,0.6,0.3,0.9,0.9,0.9c0.2,0,0.4,0,0.5-0.1v1.1c-0.1,0-0.4,0.1-0.9,0.1
					c-1.1,0-1.9-0.7-1.9-1.9v-3.7h-1.3v-1.2h0.4c0.7,0,1-0.4,1-1v-1.1h1.2V24.3z"/>
				<path class="st2" d="M136.3,31v-1.1l3.7-4.4h-3.6v-1.2h5.3v1.1l-3.7,4.4h3.8V31H136.3z"/>
			</g>
			<g id="Group-3-Copy-25" transform="translate(5.500000, 44.000000)">
				<circle id="Oval-2" cx="0.8" cy="0.8" r="0.8"/>
				<circle id="Oval-2-Copy-16" cx="60.7" cy="0.8" r="0.8"/>
				<circle id="Oval-2-Copy-32" cx="120.6" cy="0.8" r="0.8"/>
				<circle id="Oval-2-Copy-8" cx="30.7" cy="0.8" r="0.8"/>
				<circle id="Oval-2-Copy-17" cx="90.6" cy="0.8" r="0.8"/>
				<circle id="Oval-2-Copy-33" cx="150.5" cy="0.8" r="0.8"/>
				<circle id="Oval-2-Copy-4" cx="15.7" cy="0.8" r="0.8"/>
				<circle id="Oval-2-Copy-18" cx="75.6" cy="0.8" r="0.8"/>
				<circle id="Oval-2-Copy-34" cx="135.6" cy="0.8" r="0.8"/>
				<circle id="Oval-2-Copy-9" cx="45.7" cy="0.8" r="0.8"/>
				<circle id="Oval-2-Copy-19" cx="105.6" cy="0.8" r="0.8"/>
				<circle id="Oval-2-Copy-35" cx="165.5" cy="0.8" r="0.8"/>
				<circle id="Oval-2-Copy-2" cx="8.2" cy="0.8" r="0.8"/>
				<circle id="Oval-2-Copy-20" cx="68.2" cy="0.8" r="0.8"/>
				<circle id="Oval-2-Copy-36" cx="128.1" cy="0.8" r="0.8"/>
				<circle id="Oval-2-Copy-10" cx="38.2" cy="0.8" r="0.8"/>
				<circle id="Oval-2-Copy-21" cx="98.1" cy="0.8" r="0.8"/>
				<circle id="Oval-2-Copy-37" cx="158" cy="0.8" r="0.8"/>
				<circle id="Oval-2-Copy-5" cx="23.2" cy="0.8" r="0.8"/>
				<circle id="Oval-2-Copy-22" cx="83.1" cy="0.8" r="0.8"/>
				<circle id="Oval-2-Copy-38" cx="143" cy="0.8" r="0.8"/>
				<circle id="Oval-2-Copy-11" cx="53.2" cy="0.8" r="0.8"/>
				<circle id="Oval-2-Copy-23" cx="113.1" cy="0.8" r="0.8"/>
				<circle id="Oval-2-Copy-39" cx="173" cy="0.8" r="0.8"/>
				<circle id="Oval-2-Copy" cx="4.5" cy="0.8" r="0.8"/>
				<circle id="Oval-2-Copy-24" cx="64.4" cy="0.8" r="0.8"/>
				<circle id="Oval-2-Copy-40" cx="124.3" cy="0.8" r="0.8"/>
				<circle id="Oval-2-Copy-12" cx="34.5" cy="0.8" r="0.8"/>
				<circle id="Oval-2-Copy-25" cx="94.4" cy="0.8" r="0.8"/>
				<circle id="Oval-2-Copy-41" cx="154.3" cy="0.8" r="0.8"/>
				<circle id="Oval-2-Copy-6" cx="19.5" cy="0.8" r="0.8"/>
				<circle id="Oval-2-Copy-26" cx="79.4" cy="0.8" r="0.8"/>
				<circle id="Oval-2-Copy-42" cx="139.3" cy="0.8" r="0.8"/>
				<circle id="Oval-2-Copy-13" cx="49.4" cy="0.8" r="0.8"/>
				<circle id="Oval-2-Copy-27" cx="109.3" cy="0.8" r="0.8"/>
				<circle id="Oval-2-Copy-43" cx="169.3" cy="0.8" r="0.8"/>
				<circle id="Oval-2-Copy-3" cx="12" cy="0.8" r="0.8"/>
				<circle id="Oval-2-Copy-28" cx="71.9" cy="0.8" r="0.8"/>
				<circle id="Oval-2-Copy-44" cx="131.8" cy="0.8" r="0.8"/>
				<circle id="Oval-2-Copy-14" cx="41.9" cy="0.8" r="0.8"/>
				<circle id="Oval-2-Copy-29" cx="101.9" cy="0.8" r="0.8"/>
				<circle id="Oval-2-Copy-45" cx="161.8" cy="0.8" r="0.8"/>
				<circle id="Oval-2-Copy-7" cx="27" cy="0.8" r="0.8"/>
				<circle id="Oval-2-Copy-30" cx="86.9" cy="0.8" r="0.8"/>
				<circle id="Oval-2-Copy-46" cx="146.8" cy="0.8" r="0.8"/>
				<circle id="Oval-2-Copy-15" cx="56.9" cy="0.8" r="0.8"/>
				<circle id="Oval-2-Copy-31" cx="116.8" cy="0.8" r="0.8"/>
				<circle id="Oval-2-Copy-47" cx="176.8" cy="0.8" r="0.8"/>
			</g>
			<g class="st1">
				<path class="st2" d="M13.5,62.2h-2.8L10,64H9.1l2.5-6.4h1l2.5,6.4h-1L13.5,62.2z M11,61.4h2.2l-1.1-2.9L11,61.4z"/>
				<path class="st2" d="M16.7,64h-0.8v-4.3h0.8v0.6c0.3-0.5,0.8-0.7,1.3-0.7c1,0,1.5,0.7,1.5,1.7V64h-0.8v-2.6c0-0.6-0.3-1.1-1-1.1
					c-0.7,0-1,0.5-1,1.2V64z"/>
				<path class="st2" d="M21.8,64h-0.8v-4.3h0.8v0.6c0.3-0.5,0.8-0.7,1.3-0.7c1,0,1.5,0.7,1.5,1.7V64h-0.8v-2.6c0-0.6-0.3-1.1-1-1.1
					c-0.7,0-1,0.5-1,1.2V64z"/>
				<path class="st2" d="M26.3,57.4c0.3,0,0.6,0.3,0.6,0.6c0,0.3-0.3,0.6-0.6,0.6c-0.3,0-0.6-0.3-0.6-0.6
					C25.7,57.7,26,57.4,26.3,57.4z M25.9,64v-4.3h0.8V64H25.9z"/>
				<path class="st2" d="M31.9,62.8c-0.2,0.8-0.9,1.4-1.9,1.4c-1.2,0-2.2-0.8-2.2-2.3c0-1.4,1-2.3,2.1-2.3c1.3,0,2.1,0.9,2.1,2.3
					c0,0.1,0,0.2,0,0.3h-3.3c0,0.8,0.6,1.3,1.3,1.3c0.7,0,1.1-0.4,1.2-0.9L31.9,62.8z M31.1,61.4c0-0.6-0.4-1.1-1.2-1.1
					c-0.7,0-1.1,0.5-1.2,1.1H31.1z"/>
				<path class="st2" d="M35.6,57.4c0.3,0,0.6,0.3,0.6,0.6c0,0.3-0.3,0.6-0.6,0.6c-0.3,0-0.6-0.3-0.6-0.6
					C35,57.7,35.3,57.4,35.6,57.4z M35.2,64v-4.3H36V64H35.2z"/>
				<path class="st2" d="M37.8,62.6c0.1,0.5,0.4,0.8,1,0.8c0.5,0,0.7-0.3,0.7-0.6c0-0.3-0.2-0.5-0.6-0.6l-0.7-0.2
					c-0.7-0.1-1.1-0.6-1.1-1.2c0-0.7,0.7-1.4,1.5-1.4c1.2,0,1.6,0.8,1.6,1.2L39.6,61c0-0.2-0.2-0.7-0.9-0.7c-0.4,0-0.7,0.3-0.7,0.6
					c0,0.3,0.2,0.5,0.5,0.5l0.7,0.2c0.8,0.2,1.2,0.6,1.2,1.3c0,0.6-0.5,1.3-1.6,1.3c-1.2,0-1.7-0.8-1.8-1.3L37.8,62.6z"/>
				<path class="st2" d="M47.7,61.8c0,1.3-0.9,2.3-2.2,2.3s-2.2-1-2.2-2.3c0-1.3,0.9-2.3,2.2-2.3S47.7,60.5,47.7,61.8z M46.9,61.8
					c0-1-0.6-1.5-1.4-1.5s-1.4,0.5-1.4,1.5c0,1,0.6,1.5,1.4,1.5S46.9,62.8,46.9,61.8z"/>
				<path class="st2" d="M49.6,64h-0.8v-4.3h0.8v0.6c0.3-0.5,0.8-0.7,1.3-0.7c1,0,1.5,0.7,1.5,1.7V64h-0.8v-2.6c0-0.6-0.3-1.1-1-1.1
					c-0.7,0-1,0.5-1,1.2V64z"/>
				<path class="st2" d="M57.5,62.8c-0.2,0.8-0.9,1.4-1.9,1.4c-1.2,0-2.2-0.8-2.2-2.3c0-1.4,1-2.3,2.1-2.3c1.3,0,2.1,0.9,2.1,2.3
					c0,0.1,0,0.2,0,0.3h-3.3c0,0.8,0.6,1.3,1.3,1.3c0.7,0,1.1-0.4,1.2-0.9L57.5,62.8z M56.7,61.4c0-0.6-0.4-1.1-1.2-1.1
					c-0.7,0-1.1,0.5-1.2,1.1H56.7z"/>
				<path class="st2" d="M64.9,61.8c0,1.3-0.9,2.3-2.2,2.3s-2.2-1-2.2-2.3c0-1.3,0.9-2.3,2.2-2.3S64.9,60.5,64.9,61.8z M64,61.8
					c0-1-0.6-1.5-1.4-1.5s-1.4,0.5-1.4,1.5c0,1,0.6,1.5,1.4,1.5S64,62.8,64,61.8z"/>
				<path class="st2" d="M67,60.4V64h-0.9v-3.6h-0.8v-0.8h0.8v-0.7c0-1,0.6-1.5,1.4-1.5c0.3,0,0.5,0.1,0.5,0.1v0.8
					c0,0-0.2-0.1-0.4-0.1c-0.3,0-0.7,0.1-0.7,0.7v0.7h1v0.8H67z"/>
				<path class="st2" d="M72.3,59.7h0.9v0.8h-0.9v2.3c0,0.4,0.2,0.6,0.6,0.6c0.1,0,0.3,0,0.3,0V64c-0.1,0-0.3,0.1-0.6,0.1
					c-0.7,0-1.2-0.5-1.2-1.2v-2.4h-0.8v-0.8h0.2c0.5,0,0.7-0.3,0.7-0.7v-0.7h0.8V59.7z"/>
				<path class="st2" d="M75.2,64h-0.8v-6.5h0.8v2.7c0.3-0.5,0.8-0.6,1.3-0.6c1,0,1.5,0.7,1.5,1.7V64h-0.8v-2.6c0-0.6-0.3-1.1-1-1.1
					c-0.6,0-1,0.5-1,1.1V64z"/>
				<path class="st2" d="M83.1,62.8c-0.2,0.8-0.9,1.4-1.9,1.4c-1.2,0-2.2-0.8-2.2-2.3c0-1.4,1-2.3,2.1-2.3c1.3,0,2.1,0.9,2.1,2.3
					c0,0.1,0,0.2,0,0.3h-3.3c0,0.8,0.6,1.3,1.3,1.3c0.7,0,1.1-0.4,1.2-0.9L83.1,62.8z M82.2,61.4c0-0.6-0.4-1.1-1.2-1.1
					c-0.7,0-1.1,0.5-1.2,1.1H82.2z"/>
				<path class="st2" d="M86.4,64v-4.3h0.8v0.6c0.3-0.5,0.8-0.7,1.3-0.7c0.5,0,1.1,0.3,1.3,0.8c0.3-0.6,0.9-0.8,1.4-0.8
					c0.8,0,1.5,0.5,1.5,1.6V64h-0.8v-2.7c0-0.6-0.3-1-0.9-1c-0.6,0-1,0.5-1,1.1V64h-0.8v-2.7c0-0.6-0.3-1-0.9-1c-0.6,0-1,0.5-1,1.1
					V64H86.4z"/>
				<path class="st2" d="M98.1,61.8c0,1.3-0.9,2.3-2.2,2.3c-1.3,0-2.2-1-2.2-2.3c0-1.3,0.9-2.3,2.2-2.3
					C97.2,59.5,98.1,60.5,98.1,61.8z M97.2,61.8c0-1-0.6-1.5-1.4-1.5s-1.4,0.5-1.4,1.5c0,1,0.6,1.5,1.4,1.5S97.2,62.8,97.2,61.8z"/>
				<path class="st2" d="M99.5,62.6c0.1,0.5,0.4,0.8,1,0.8c0.5,0,0.7-0.3,0.7-0.6c0-0.3-0.2-0.5-0.6-0.6l-0.7-0.2
					c-0.7-0.1-1.1-0.6-1.1-1.2c0-0.7,0.7-1.4,1.5-1.4c1.2,0,1.6,0.8,1.6,1.2l-0.7,0.3c0-0.2-0.2-0.7-0.9-0.7c-0.4,0-0.7,0.3-0.7,0.6
					c0,0.3,0.2,0.5,0.5,0.5l0.7,0.2c0.8,0.2,1.2,0.6,1.2,1.3c0,0.6-0.5,1.3-1.6,1.3c-1.2,0-1.7-0.8-1.8-1.3L99.5,62.6z"/>
				<path class="st2" d="M104.3,59.7h0.9v0.8h-0.9v2.3c0,0.4,0.2,0.6,0.6,0.6c0.1,0,0.3,0,0.3,0V64c-0.1,0-0.3,0.1-0.6,0.1
					c-0.7,0-1.2-0.5-1.2-1.2v-2.4h-0.8v-0.8h0.2c0.5,0,0.7-0.3,0.7-0.7v-0.7h0.8V59.7z"/>
				<path class="st2" d="M108.9,62.6c0.1,0.5,0.4,0.8,1,0.8c0.5,0,0.7-0.3,0.7-0.6c0-0.3-0.2-0.5-0.6-0.6l-0.7-0.2
					c-0.7-0.1-1.1-0.6-1.1-1.2c0-0.7,0.7-1.4,1.5-1.4c1.2,0,1.6,0.8,1.6,1.2l-0.7,0.3c0-0.2-0.2-0.7-0.9-0.7c-0.4,0-0.7,0.3-0.7,0.6
					c0,0.3,0.2,0.5,0.5,0.5l0.7,0.2c0.8,0.2,1.2,0.6,1.2,1.3c0,0.6-0.5,1.3-1.6,1.3c-1.2,0-1.7-0.8-1.8-1.3L108.9,62.6z"/>
				<path class="st2" d="M116.6,61.8c0,1.3-0.9,2.3-2.2,2.3s-2.2-1-2.2-2.3c0-1.3,0.9-2.3,2.2-2.3S116.6,60.5,116.6,61.8z
					 M115.7,61.8c0-1-0.6-1.5-1.4-1.5s-1.4,0.5-1.4,1.5c0,1,0.6,1.5,1.4,1.5S115.7,62.8,115.7,61.8z"/>
				<path class="st2" d="M119.1,64.1c-1,0-1.6-0.8-1.6-1.7v-2.7h0.8v2.6c0,0.6,0.3,1.1,1,1.1c0.7,0,1-0.5,1-1.1v-2.6h0.8v3.5
					c0,0.3,0,0.6,0,0.8h-0.8c0-0.1,0-0.3,0-0.5C120.2,63.9,119.6,64.1,119.1,64.1z"/>
				<path class="st2" d="M123.1,64c0.1,0.6,0.5,1.1,1.2,1.1c0.9,0,1.3-0.5,1.3-1.4v-0.6c-0.2,0.4-0.7,0.7-1.3,0.7
					c-1.2,0-2-0.9-2-2.1c0-1.2,0.8-2.1,2-2.1c0.7,0,1.1,0.3,1.3,0.7v-0.6h0.8v4c0,1.1-0.5,2.2-2.2,2.2c-1.1,0-1.9-0.7-2-1.6
					L123.1,64z M125.6,61.7c0-0.8-0.5-1.4-1.2-1.4c-0.7,0-1.3,0.5-1.3,1.4c0,0.8,0.5,1.4,1.3,1.4C125.1,63.1,125.6,62.5,125.6,61.7z
					"/>
				<path class="st2" d="M128.6,64h-0.8v-6.5h0.8v2.7c0.3-0.5,0.8-0.6,1.3-0.6c1,0,1.5,0.7,1.5,1.7V64h-0.8v-2.6
					c0-0.6-0.3-1.1-1-1.1c-0.6,0-1,0.5-1,1.1V64z"/>
				<path class="st2" d="M133.9,59.7h0.9v0.8h-0.9v2.3c0,0.4,0.2,0.6,0.6,0.6c0.1,0,0.3,0,0.3,0V64c-0.1,0-0.3,0.1-0.6,0.1
					c-0.7,0-1.2-0.5-1.2-1.2v-2.4h-0.8v-0.8h0.2c0.5,0,0.7-0.3,0.7-0.7v-0.7h0.8V59.7z"/>
				<path class="st2" d="M135.6,61.8V61h2.4v0.7H135.6z"/>
				<path class="st2" d="M140.1,61.5l1.2-0.2c0.3,0,0.3-0.2,0.3-0.3c0-0.4-0.3-0.8-0.9-0.8c-0.6,0-0.9,0.4-1,0.9l-0.8-0.2
					c0.1-0.8,0.8-1.4,1.8-1.4c1.3,0,1.8,0.7,1.8,1.6v2.2c0,0.4,0,0.6,0.1,0.7h-0.8c0-0.1,0-0.3,0-0.6c-0.2,0.3-0.6,0.7-1.4,0.7
					c-0.9,0-1.4-0.6-1.4-1.3C138.8,62.1,139.4,61.6,140.1,61.5z M141.6,62.1v-0.2l-1.3,0.2c-0.4,0.1-0.6,0.3-0.6,0.6
					c0,0.3,0.3,0.6,0.7,0.6C141.1,63.4,141.6,63.1,141.6,62.1z"/>
				<path class="st2" d="M144.9,60.4V64H144v-3.6h-0.8v-0.8h0.8v-0.7c0-1,0.6-1.5,1.4-1.5c0.3,0,0.5,0.1,0.5,0.1v0.8
					c0,0-0.2-0.1-0.4-0.1c-0.3,0-0.7,0.1-0.7,0.7v0.7h1v0.8H144.9z"/>
				<path class="st2" d="M147.9,59.7h0.9v0.8h-0.9v2.3c0,0.4,0.2,0.6,0.6,0.6c0.1,0,0.3,0,0.3,0V64c-0.1,0-0.3,0.1-0.6,0.1
					c-0.7,0-1.2-0.5-1.2-1.2v-2.4h-0.8v-0.8h0.2c0.5,0,0.7-0.3,0.7-0.7v-0.7h0.8V59.7z"/>
				<path class="st2" d="M153.7,62.8c-0.2,0.8-0.9,1.4-1.9,1.4c-1.2,0-2.2-0.8-2.2-2.3c0-1.4,1-2.3,2.1-2.3c1.3,0,2.1,0.9,2.1,2.3
					c0,0.1,0,0.2,0,0.3h-3.3c0,0.8,0.6,1.3,1.3,1.3c0.7,0,1.1-0.4,1.2-0.9L153.7,62.8z M152.8,61.4c0-0.6-0.4-1.1-1.2-1.1
					c-0.7,0-1.1,0.5-1.2,1.1H152.8z"/>
				<path class="st2" d="M157.1,60.5c-0.1,0-0.3,0-0.4,0c-0.7,0-1.2,0.4-1.2,1.3V64h-0.8v-4.3h0.8v0.8c0.3-0.7,0.9-0.8,1.3-0.8
					c0.1,0,0.2,0,0.3,0V60.5z"/>
			</g>
			<g class="st1">
				<path class="st2" d="M9.7,76.7v-6h0.8v0.7c0.2-0.4,0.7-0.8,1.4-0.8c1.3,0,2,1,2,2.3c0,1.3-0.7,2.3-2,2.3c-0.7,0-1.2-0.3-1.4-0.7
					v2.3H9.7z M11.8,71.3c-0.8,0-1.3,0.6-1.3,1.5c0,0.9,0.5,1.5,1.3,1.5c0.8,0,1.3-0.6,1.3-1.5C13.1,72,12.6,71.3,11.8,71.3z"/>
				<path class="st2" d="M15.9,75H15v-6.5h0.8v2.7c0.3-0.5,0.8-0.6,1.3-0.6c1,0,1.5,0.7,1.5,1.7V75h-0.8v-2.6c0-0.6-0.3-1.1-1-1.1
					c-0.6,0-1,0.5-1,1.1V75z"/>
				<path class="st2" d="M24.1,72.8c0,1.3-0.9,2.3-2.2,2.3s-2.2-1-2.2-2.3c0-1.3,0.9-2.3,2.2-2.3S24.1,71.5,24.1,72.8z M23.2,72.8
					c0-1-0.6-1.5-1.4-1.5s-1.4,0.5-1.4,1.5c0,1,0.6,1.5,1.4,1.5S23.2,73.8,23.2,72.8z"/>
				<path class="st2" d="M26.2,70.7h0.9v0.8h-0.9v2.3c0,0.4,0.2,0.6,0.6,0.6c0.1,0,0.3,0,0.3,0V75c-0.1,0-0.3,0.1-0.6,0.1
					c-0.7,0-1.2-0.5-1.2-1.2v-2.4h-0.8v-0.8h0.2c0.5,0,0.7-0.3,0.7-0.7v-0.7h0.8V70.7z"/>
				<path class="st2" d="M32.3,72.8c0,1.3-0.9,2.3-2.2,2.3s-2.2-1-2.2-2.3c0-1.3,0.9-2.3,2.2-2.3S32.3,71.5,32.3,72.8z M31.4,72.8
					c0-1-0.6-1.5-1.4-1.5s-1.4,0.5-1.4,1.5c0,1,0.6,1.5,1.4,1.5S31.4,73.8,31.4,72.8z"/>
				<path class="st2" d="M33.8,75c0.1,0.6,0.5,1.1,1.2,1.1c0.9,0,1.3-0.5,1.3-1.4v-0.6c-0.2,0.4-0.7,0.7-1.3,0.7c-1.2,0-2-0.9-2-2.1
					c0-1.2,0.8-2.1,2-2.1c0.7,0,1.1,0.3,1.3,0.7v-0.6h0.8v4c0,1.1-0.5,2.2-2.2,2.2c-1.1,0-1.9-0.7-2-1.6L33.8,75z M36.3,72.7
					c0-0.8-0.5-1.4-1.2-1.4c-0.7,0-1.3,0.5-1.3,1.4c0,0.8,0.5,1.4,1.3,1.4C35.8,74.1,36.3,73.5,36.3,72.7z"/>
				<path class="st2" d="M40.9,71.5c-0.1,0-0.3,0-0.4,0c-0.7,0-1.2,0.4-1.2,1.3V75h-0.8v-4.3h0.8v0.8c0.3-0.7,0.9-0.8,1.3-0.8
					c0.1,0,0.2,0,0.3,0V71.5z"/>
				<path class="st2" d="M42.8,72.5l1.2-0.2c0.3,0,0.3-0.2,0.3-0.3c0-0.4-0.3-0.8-0.9-0.8c-0.6,0-0.9,0.4-1,0.9l-0.8-0.2
					c0.1-0.8,0.8-1.4,1.8-1.4c1.3,0,1.8,0.7,1.8,1.6v2.2c0,0.4,0,0.6,0.1,0.7h-0.8c0-0.1,0-0.3,0-0.6c-0.2,0.3-0.6,0.7-1.4,0.7
					c-0.9,0-1.4-0.6-1.4-1.3C41.4,73.1,42,72.6,42.8,72.5z M44.3,73.1v-0.2l-1.3,0.2c-0.4,0.1-0.6,0.3-0.6,0.6
					c0,0.3,0.3,0.6,0.7,0.6C43.7,74.4,44.3,74.1,44.3,73.1z"/>
				<path class="st2" d="M46.4,76.7v-6h0.8v0.7c0.2-0.4,0.7-0.8,1.4-0.8c1.3,0,2,1,2,2.3c0,1.3-0.7,2.3-2,2.3
					c-0.7,0-1.2-0.3-1.4-0.7v2.3H46.4z M48.5,71.3c-0.8,0-1.3,0.6-1.3,1.5c0,0.9,0.5,1.5,1.3,1.5c0.8,0,1.3-0.6,1.3-1.5
					C49.8,72,49.3,71.3,48.5,71.3z"/>
				<path class="st2" d="M52.5,75h-0.8v-6.5h0.8v2.7c0.3-0.5,0.8-0.6,1.3-0.6c1,0,1.5,0.7,1.5,1.7V75h-0.8v-2.6c0-0.6-0.3-1.1-1-1.1
					c-0.6,0-1,0.5-1,1.1V75z"/>
				<path class="st2" d="M60.4,73.8c-0.2,0.8-0.9,1.4-1.9,1.4c-1.2,0-2.2-0.8-2.2-2.3c0-1.4,1-2.3,2.1-2.3c1.3,0,2.1,0.9,2.1,2.3
					c0,0.1,0,0.2,0,0.3h-3.3c0,0.8,0.6,1.3,1.3,1.3c0.7,0,1.1-0.4,1.2-0.9L60.4,73.8z M59.6,72.4c0-0.6-0.4-1.1-1.2-1.1
					c-0.7,0-1.1,0.5-1.2,1.1H59.6z"/>
				<path class="st2" d="M63.9,71.5c-0.1,0-0.3,0-0.4,0c-0.7,0-1.2,0.4-1.2,1.3V75h-0.8v-4.3h0.8v0.8c0.3-0.7,0.9-0.8,1.3-0.8
					c0.1,0,0.2,0,0.3,0V71.5z"/>
				<path class="st2" d="M65.1,73.6c0.1,0.5,0.4,0.8,1,0.8c0.5,0,0.7-0.3,0.7-0.6c0-0.3-0.2-0.5-0.6-0.6l-0.7-0.2
					c-0.7-0.1-1.1-0.6-1.1-1.2c0-0.7,0.7-1.4,1.5-1.4c1.2,0,1.6,0.8,1.6,1.2L66.9,72c0-0.2-0.2-0.7-0.9-0.7c-0.4,0-0.7,0.3-0.7,0.6
					c0,0.3,0.2,0.5,0.5,0.5l0.7,0.2c0.8,0.2,1.2,0.6,1.2,1.3c0,0.6-0.5,1.3-1.6,1.3c-1.2,0-1.7-0.8-1.8-1.3L65.1,73.6z"/>
				<path class="st2" d="M71.4,68.4c0.3,0,0.6,0.3,0.6,0.6c0,0.3-0.3,0.6-0.6,0.6c-0.3,0-0.6-0.3-0.6-0.6
					C70.8,68.7,71.1,68.4,71.4,68.4z M71,75v-4.3h0.8V75H71z"/>
				<path class="st2" d="M74.1,75h-0.8v-4.3h0.8v0.6c0.3-0.5,0.8-0.7,1.3-0.7c1,0,1.5,0.7,1.5,1.7V75h-0.8v-2.6c0-0.6-0.3-1.1-1-1.1
					c-0.7,0-1,0.5-1,1.2V75z"/>
				<path class="st2" d="M81.6,70.7h0.9v0.8h-0.9v2.3c0,0.4,0.2,0.6,0.6,0.6c0.1,0,0.3,0,0.3,0V75c-0.1,0-0.3,0.1-0.6,0.1
					c-0.7,0-1.2-0.5-1.2-1.2v-2.4h-0.8v-0.8h0.2c0.5,0,0.7-0.3,0.7-0.7v-0.7h0.8V70.7z"/>
				<path class="st2" d="M84.4,75h-0.8v-6.5h0.8v2.7c0.3-0.5,0.8-0.6,1.3-0.6c1,0,1.5,0.7,1.5,1.7V75h-0.8v-2.6c0-0.6-0.3-1.1-1-1.1
					c-0.6,0-1,0.5-1,1.1V75z"/>
				<path class="st2" d="M92.4,73.8c-0.2,0.8-0.9,1.4-1.9,1.4c-1.2,0-2.2-0.8-2.2-2.3c0-1.4,1-2.3,2.1-2.3c1.3,0,2.1,0.9,2.1,2.3
					c0,0.1,0,0.2,0,0.3h-3.3c0,0.8,0.6,1.3,1.3,1.3c0.7,0,1.1-0.4,1.2-0.9L92.4,73.8z M91.5,72.4c0-0.6-0.4-1.1-1.2-1.1
					c-0.7,0-1.1,0.5-1.2,1.1H91.5z"/>
				<path class="st2" d="M99,70.7l1.1,3.3l1-3.3h0.9l-1.4,4.3h-0.9l-1.2-3.3L97.4,75h-0.9l-1.4-4.3H96l1,3.3l1.1-3.3H99z"/>
				<path class="st2" d="M106.7,72.8c0,1.3-0.9,2.3-2.2,2.3c-1.3,0-2.2-1-2.2-2.3c0-1.3,0.9-2.3,2.2-2.3
					C105.8,70.5,106.7,71.5,106.7,72.8z M105.8,72.8c0-1-0.6-1.5-1.4-1.5c-0.7,0-1.3,0.5-1.3,1.5c0,1,0.6,1.5,1.3,1.5
					C105.2,74.4,105.8,73.8,105.8,72.8z"/>
				<path class="st2" d="M110.2,71.5c-0.1,0-0.3,0-0.4,0c-0.7,0-1.2,0.4-1.2,1.3V75h-0.8v-4.3h0.8v0.8c0.3-0.7,0.9-0.8,1.3-0.8
					c0.1,0,0.2,0,0.3,0V71.5z"/>
				<path class="st2" d="M111,75v-6.5h0.8V75H111z"/>
				<path class="st2" d="M116.3,74.3c-0.2,0.4-0.7,0.8-1.3,0.8c-1.3,0-2.1-1-2.1-2.3c0-1.2,0.8-2.3,2.1-2.3c0.8,0,1.2,0.4,1.3,0.7
					v-2.8h0.8v5.7c0,0.4,0,0.7,0,0.8h-0.8C116.3,74.9,116.3,74.7,116.3,74.3L116.3,74.3z M115,74.4c0.8,0,1.3-0.7,1.3-1.6
					c0-0.9-0.5-1.5-1.2-1.5c-0.8,0-1.3,0.6-1.3,1.5S114.2,74.4,115,74.4z"/>
				<path class="st2" d="M119,73.8c0.4,0,0.6,0.3,0.6,0.6S119.4,75,119,75s-0.6-0.3-0.6-0.6S118.7,73.8,119,73.8z"/>
				<path class="st2" d="M126.5,70.3c-0.1-0.5-0.5-1.1-1.4-1.1c-0.7,0-1.2,0.5-1.2,1.1c0,0.5,0.3,0.8,0.8,0.9l1,0.2
					c1.1,0.2,1.7,0.9,1.7,1.8c0,1-0.8,1.9-2.2,1.9c-1.5,0-2.3-1-2.4-1.9l0.8-0.3c0.1,0.7,0.6,1.4,1.5,1.4c0.9,0,1.3-0.5,1.3-1
					c0-0.5-0.3-0.9-1-1l-0.9-0.2c-0.9-0.2-1.6-0.8-1.6-1.7c0-1,0.9-1.9,2.1-1.9c1.4,0,2,0.9,2.2,1.6L126.5,70.3z"/>
				<path class="st2" d="M129.3,75h-0.8v-6.5h0.8v2.7c0.3-0.5,0.8-0.6,1.3-0.6c1,0,1.5,0.7,1.5,1.7V75h-0.8v-2.6
					c0-0.6-0.3-1.1-1-1.1c-0.6,0-1,0.5-1,1.1V75z"/>
				<path class="st2" d="M137.2,73.8c-0.2,0.8-0.9,1.4-1.9,1.4c-1.2,0-2.2-0.8-2.2-2.3c0-1.4,1-2.3,2.1-2.3c1.3,0,2.1,0.9,2.1,2.3
					c0,0.1,0,0.2,0,0.3h-3.3c0,0.8,0.6,1.3,1.3,1.3c0.7,0,1.1-0.4,1.2-0.9L137.2,73.8z M136.3,72.4c0-0.6-0.4-1.1-1.2-1.1
					c-0.7,0-1.1,0.5-1.2,1.1H136.3z"/>
				<path class="st2" d="M138.1,68.5c0.4,0,0.7,0.3,0.7,0.8c0,1.1-0.7,1.6-1.2,1.6v-0.4c0.4-0.1,0.7-0.5,0.7-0.9c0,0-0.1,0-0.2,0
					c-0.3,0-0.6-0.2-0.6-0.6C137.5,68.8,137.8,68.5,138.1,68.5z"/>
				<path class="st2" d="M139.7,73.6c0.1,0.5,0.4,0.8,1,0.8c0.5,0,0.7-0.3,0.7-0.6c0-0.3-0.2-0.5-0.6-0.6l-0.7-0.2
					c-0.7-0.1-1.1-0.6-1.1-1.2c0-0.7,0.7-1.4,1.5-1.4c1.2,0,1.6,0.8,1.6,1.2l-0.7,0.3c0-0.2-0.2-0.7-0.9-0.7c-0.4,0-0.7,0.3-0.7,0.6
					c0,0.3,0.2,0.5,0.5,0.5l0.7,0.2c0.8,0.2,1.2,0.6,1.2,1.3c0,0.6-0.5,1.3-1.6,1.3c-1.2,0-1.7-0.8-1.8-1.3L139.7,73.6z"/>
				<path class="st2" d="M146.7,70.7h0.9v0.8h-0.9v2.3c0,0.4,0.2,0.6,0.6,0.6c0.1,0,0.3,0,0.3,0V75c-0.1,0-0.3,0.1-0.6,0.1
					c-0.7,0-1.2-0.5-1.2-1.2v-2.4h-0.8v-0.8h0.2c0.5,0,0.7-0.3,0.7-0.7v-0.7h0.8V70.7z"/>
				<path class="st2" d="M149.6,75h-0.8v-6.5h0.8v2.7c0.3-0.5,0.8-0.6,1.3-0.6c1,0,1.5,0.7,1.5,1.7V75h-0.8v-2.6
					c0-0.6-0.3-1.1-1-1.1c-0.6,0-1,0.5-1,1.1V75z"/>
				<path class="st2" d="M157.5,73.8c-0.2,0.8-0.9,1.4-1.9,1.4c-1.2,0-2.2-0.8-2.2-2.3c0-1.4,1-2.3,2.1-2.3c1.3,0,2.1,0.9,2.1,2.3
					c0,0.1,0,0.2,0,0.3h-3.3c0,0.8,0.6,1.3,1.3,1.3c0.7,0,1.1-0.4,1.2-0.9L157.5,73.8z M156.7,72.4c0-0.6-0.4-1.1-1.2-1.1
					c-0.7,0-1.1,0.5-1.2,1.1H156.7z"/>
				<path class="st2" d="M163,68.5v0.8c0,0-0.2-0.1-0.4-0.1c-0.3,0-0.7,0.1-0.7,0.7v0.7h2.9V75H164v-3.6h-2V75h-0.9v-3.6h-0.8v-0.8
					h0.8v-0.7c0-1,0.6-1.5,1.4-1.5C162.8,68.5,163,68.5,163,68.5z M164.4,68.4c0.3,0,0.6,0.3,0.6,0.6c0,0.3-0.3,0.6-0.6,0.6
					c-0.3,0-0.6-0.3-0.6-0.6C163.8,68.7,164,68.4,164.4,68.4z"/>
				<path class="st2" d="M168.6,71.5c-0.1,0-0.3,0-0.4,0c-0.7,0-1.2,0.4-1.2,1.3V75h-0.8v-4.3h0.8v0.8c0.3-0.7,0.9-0.8,1.3-0.8
					c0.1,0,0.2,0,0.3,0V71.5z"/>
				<path class="st2" d="M169.8,73.6c0.1,0.5,0.4,0.8,1,0.8c0.5,0,0.7-0.3,0.7-0.6c0-0.3-0.2-0.5-0.6-0.6l-0.7-0.2
					c-0.7-0.1-1.1-0.6-1.1-1.2c0-0.7,0.7-1.4,1.5-1.4c1.2,0,1.6,0.8,1.6,1.2l-0.7,0.3c0-0.2-0.2-0.7-0.9-0.7c-0.4,0-0.7,0.3-0.7,0.6
					c0,0.3,0.2,0.5,0.5,0.5l0.7,0.2c0.8,0.2,1.2,0.6,1.2,1.3c0,0.6-0.5,1.3-1.6,1.3c-1.2,0-1.7-0.8-1.8-1.3L169.8,73.6z"/>
				<path class="st2" d="M174.6,70.7h0.9v0.8h-0.9v2.3c0,0.4,0.2,0.6,0.6,0.6c0.1,0,0.3,0,0.3,0V75c-0.1,0-0.3,0.1-0.6,0.1
					c-0.7,0-1.2-0.5-1.2-1.2v-2.4h-0.8v-0.8h0.2c0.5,0,0.7-0.3,0.7-0.7v-0.7h0.8V70.7z"/>
			</g>
			<g class="st1">
				<path class="st2" d="M11.2,78.9l0.5,0.5c-0.9,1-1.5,2.3-1.5,3.8c0,1.6,0.6,2.8,1.5,3.8l-0.5,0.5c-1-1-1.7-2.3-1.7-4.3
					C9.5,81.2,10.2,79.8,11.2,78.9z"/>
				<path class="st2" d="M13.4,83.5l1.2-0.2c0.3,0,0.3-0.2,0.3-0.3c0-0.4-0.3-0.8-0.9-0.8c-0.6,0-0.9,0.4-1,0.9l-0.8-0.2
					c0.1-0.8,0.8-1.4,1.8-1.4c1.3,0,1.8,0.7,1.8,1.6v2.2c0,0.4,0,0.6,0.1,0.7H15c0-0.1,0-0.3,0-0.6c-0.2,0.3-0.6,0.7-1.4,0.7
					c-0.9,0-1.4-0.6-1.4-1.3C12.1,84.1,12.6,83.6,13.4,83.5z M14.9,84.1v-0.2l-1.3,0.2c-0.4,0.1-0.6,0.3-0.6,0.6
					c0,0.3,0.3,0.6,0.7,0.6C14.3,85.4,14.9,85.1,14.9,84.1z"/>
				<path class="st2" d="M17.9,86H17v-4.3h0.8v0.6c0.3-0.5,0.8-0.7,1.3-0.7c1,0,1.5,0.7,1.5,1.7V86h-0.8v-2.6c0-0.6-0.3-1.1-1-1.1
					c-0.7,0-1,0.5-1,1.2V86z"/>
				<path class="st2" d="M25.1,85.3c-0.2,0.4-0.7,0.8-1.3,0.8c-1.3,0-2.1-1-2.1-2.3c0-1.2,0.8-2.3,2.1-2.3c0.8,0,1.2,0.4,1.3,0.7
					v-2.8h0.8v5.7c0,0.4,0,0.7,0,0.8h-0.8C25.1,85.9,25.1,85.7,25.1,85.3L25.1,85.3z M23.8,85.4c0.8,0,1.3-0.7,1.3-1.6
					c0-0.9-0.5-1.5-1.2-1.5c-0.8,0-1.3,0.6-1.3,1.5S23,85.4,23.8,85.4z"/>
				<path class="st2" d="M33.5,83.8c0,1.3-0.9,2.3-2.2,2.3s-2.2-1-2.2-2.3c0-1.3,0.9-2.3,2.2-2.3S33.5,82.5,33.5,83.8z M32.7,83.8
					c0-1-0.6-1.5-1.4-1.5S30,82.8,30,83.8c0,1,0.6,1.5,1.4,1.5S32.7,84.8,32.7,83.8z"/>
				<path class="st2" d="M35.4,86h-0.8v-4.3h0.8v0.6c0.3-0.5,0.8-0.7,1.3-0.7c1,0,1.5,0.7,1.5,1.7V86h-0.8v-2.6c0-0.6-0.3-1.1-1-1.1
					c-0.7,0-1,0.5-1,1.2V86z"/>
				<path class="st2" d="M39.6,86v-6.5h0.8V86H39.6z"/>
				<path class="st2" d="M42,87.8l1.1-2.3l-1.9-3.9h1l1.4,3l1.3-3h0.9l-2.8,6.1H42z"/>
				<path class="st2" d="M46.3,87.4L45.8,87c0.9-1,1.5-2.3,1.5-3.8c0-1.6-0.6-2.8-1.5-3.8l0.5-0.5c1,1,1.7,2.3,1.7,4.3
					C48,85.1,47.3,86.5,46.3,87.4z"/>
				<path class="st2" d="M54.7,81.7l1.1,3.3l1-3.3h0.9L56.3,86h-0.9l-1.2-3.3L53.1,86h-0.9l-1.4-4.3h0.9l1,3.3l1.1-3.3H54.7z"/>
				<path class="st2" d="M62.4,83.8c0,1.3-0.9,2.3-2.2,2.3s-2.2-1-2.2-2.3c0-1.3,0.9-2.3,2.2-2.3S62.4,82.5,62.4,83.8z M61.6,83.8
					c0-1-0.6-1.5-1.4-1.5s-1.4,0.5-1.4,1.5c0,1,0.6,1.5,1.4,1.5S61.6,84.8,61.6,83.8z"/>
				<path class="st2" d="M63.5,86v-4.3h0.8v0.6c0.3-0.5,0.8-0.7,1.3-0.7c0.5,0,1.1,0.3,1.3,0.8c0.3-0.6,0.9-0.8,1.4-0.8
					c0.8,0,1.5,0.5,1.5,1.6V86H69v-2.7c0-0.6-0.3-1-0.9-1c-0.6,0-1,0.5-1,1.1V86h-0.8v-2.7c0-0.6-0.3-1-0.9-1c-0.6,0-1,0.5-1,1.1V86
					H63.5z"/>
				<path class="st2" d="M72.2,83.5l1.2-0.2c0.3,0,0.3-0.2,0.3-0.3c0-0.4-0.3-0.8-0.9-0.8c-0.6,0-0.9,0.4-1,0.9L71,82.9
					c0.1-0.8,0.8-1.4,1.8-1.4c1.3,0,1.8,0.7,1.8,1.6v2.2c0,0.4,0,0.6,0.1,0.7h-0.8c0-0.1,0-0.3,0-0.6c-0.2,0.3-0.6,0.7-1.4,0.7
					c-0.9,0-1.4-0.6-1.4-1.3C70.9,84.1,71.4,83.6,72.2,83.5z M73.7,84.1v-0.2l-1.3,0.2c-0.4,0.1-0.6,0.3-0.6,0.6
					c0,0.3,0.3,0.6,0.7,0.6C73.1,85.4,73.7,85.1,73.7,84.1z"/>
				<path class="st2" d="M76.7,86h-0.8v-4.3h0.8v0.6c0.3-0.5,0.8-0.7,1.3-0.7c1,0,1.5,0.7,1.5,1.7V86h-0.8v-2.6c0-0.6-0.3-1.1-1-1.1
					c-0.7,0-1,0.5-1,1.2V86z"/>
				<path class="st2" d="M84.2,81.7h0.9v0.8h-0.9v2.3c0,0.4,0.2,0.6,0.6,0.6c0.1,0,0.3,0,0.3,0V86C85,86,84.8,86,84.5,86
					c-0.7,0-1.2-0.5-1.2-1.2v-2.4h-0.8v-0.8h0.2c0.5,0,0.7-0.3,0.7-0.7v-0.7h0.8V81.7z"/>
				<path class="st2" d="M90.2,83.8c0,1.3-0.9,2.3-2.2,2.3s-2.2-1-2.2-2.3c0-1.3,0.9-2.3,2.2-2.3S90.2,82.5,90.2,83.8z M89.3,83.8
					c0-1-0.6-1.5-1.4-1.5s-1.4,0.5-1.4,1.5c0,1,0.6,1.5,1.4,1.5S89.3,84.8,89.3,83.8z"/>
				<path class="st2" d="M94.3,86h-0.8v-6.5h0.8v2.7c0.3-0.5,0.8-0.6,1.3-0.6c1,0,1.5,0.7,1.5,1.7V86h-0.8v-2.6c0-0.6-0.3-1.1-1-1.1
					c-0.6,0-1,0.5-1,1.1V86z"/>
				<path class="st2" d="M99.5,83.5l1.2-0.2c0.3,0,0.3-0.2,0.3-0.3c0-0.4-0.3-0.8-0.9-0.8c-0.6,0-0.9,0.4-1,0.9l-0.8-0.2
					c0.1-0.8,0.8-1.4,1.8-1.4c1.3,0,1.8,0.7,1.8,1.6v2.2c0,0.4,0,0.6,0.1,0.7h-0.8c0-0.1,0-0.3,0-0.6c-0.2,0.3-0.6,0.7-1.4,0.7
					c-0.9,0-1.4-0.6-1.4-1.3C98.2,84.1,98.7,83.6,99.5,83.5z M101,84.1v-0.2l-1.3,0.2c-0.4,0.1-0.6,0.3-0.6,0.6
					c0,0.3,0.3,0.6,0.7,0.6C100.4,85.4,101,85.1,101,84.1z"/>
				<path class="st2" d="M105.1,86h-0.9l-1.8-4.3h1l1.2,3.3l1.2-3.3h0.9L105.1,86z"/>
				<path class="st2" d="M111.2,84.8c-0.2,0.8-0.9,1.4-1.9,1.4c-1.2,0-2.2-0.8-2.2-2.3c0-1.4,1-2.3,2.1-2.3c1.3,0,2.1,0.9,2.1,2.3
					c0,0.1,0,0.2,0,0.3H108c0,0.8,0.6,1.3,1.3,1.3c0.7,0,1.1-0.4,1.2-0.9L111.2,84.8z M110.4,83.4c0-0.6-0.4-1.1-1.2-1.1
					c-0.7,0-1.1,0.5-1.2,1.1H110.4z"/>
				<path class="st2" d="M115.3,86h-0.8v-6.5h0.8v2.7c0.3-0.5,0.8-0.6,1.3-0.6c1,0,1.5,0.7,1.5,1.7V86h-0.8v-2.6
					c0-0.6-0.3-1.1-1-1.1c-0.6,0-1,0.5-1,1.1V86z"/>
				<path class="st2" d="M123.3,84.8c-0.2,0.8-0.9,1.4-1.9,1.4c-1.2,0-2.2-0.8-2.2-2.3c0-1.4,1-2.3,2.1-2.3c1.3,0,2.1,0.9,2.1,2.3
					c0,0.1,0,0.2,0,0.3H120c0,0.8,0.6,1.3,1.3,1.3c0.7,0,1.1-0.4,1.2-0.9L123.3,84.8z M122.4,83.4c0-0.6-0.4-1.1-1.2-1.1
					c-0.7,0-1.1,0.5-1.2,1.1H122.4z"/>
				<path class="st2" d="M124.3,86v-6.5h0.8V86H124.3z"/>
				<path class="st2" d="M129.6,85.3c-0.2,0.4-0.7,0.8-1.3,0.8c-1.3,0-2.1-1-2.1-2.3c0-1.2,0.8-2.3,2.1-2.3c0.8,0,1.2,0.4,1.3,0.7
					v-2.8h0.8v5.7c0,0.4,0,0.7,0,0.8h-0.8C129.6,85.9,129.6,85.7,129.6,85.3L129.6,85.3z M128.3,85.4c0.8,0,1.3-0.7,1.3-1.6
					c0-0.9-0.5-1.5-1.2-1.5c-0.8,0-1.3,0.6-1.3,1.5S127.5,85.4,128.3,85.4z"/>
				<path class="st2" d="M135.1,83.5l1.2-0.2c0.3,0,0.3-0.2,0.3-0.3c0-0.4-0.3-0.8-0.9-0.8c-0.6,0-0.9,0.4-1,0.9l-0.8-0.2
					c0.1-0.8,0.8-1.4,1.8-1.4c1.3,0,1.8,0.7,1.8,1.6v2.2c0,0.4,0,0.6,0.1,0.7h-0.8c0-0.1,0-0.3,0-0.6c-0.2,0.3-0.6,0.7-1.4,0.7
					c-0.9,0-1.4-0.6-1.4-1.3C133.8,84.1,134.3,83.6,135.1,83.5z M136.6,84.1v-0.2l-1.3,0.2c-0.4,0.1-0.6,0.3-0.6,0.6
					c0,0.3,0.3,0.6,0.7,0.6C136,85.4,136.6,85.1,136.6,84.1z"/>
				<path class="st2" d="M139.5,86h-0.8v-4.3h0.8v0.6c0.3-0.5,0.8-0.7,1.3-0.7c1,0,1.5,0.7,1.5,1.7V86h-0.8v-2.6
					c0-0.6-0.3-1.1-1-1.1c-0.7,0-1,0.5-1,1.2V86z"/>
				<path class="st2" d="M149.7,84.8c-0.2,0.8-0.9,1.4-1.9,1.4c-1.2,0-2.2-0.8-2.2-2.3c0-1.4,1-2.3,2.1-2.3c1.3,0,2.1,0.9,2.1,2.3
					c0,0.1,0,0.2,0,0.3h-3.3c0,0.8,0.6,1.3,1.3,1.3c0.7,0,1.1-0.4,1.2-0.9L149.7,84.8z M148.8,83.4c0-0.6-0.4-1.1-1.2-1.1
					c-0.7,0-1.1,0.5-1.2,1.1H148.8z"/>
				<path class="st2" d="M151.7,83.8l-1.6-2.1h1l1.1,1.5l1-1.5h1l-1.5,2.1c0.3,0.4,1.3,1.9,1.6,2.2h-1l-1.1-1.6l-1.1,1.6h-1
					L151.7,83.8z"/>
				<path class="st2" d="M155.9,86h-0.8v-6.5h0.8v2.7c0.3-0.5,0.8-0.6,1.3-0.6c1,0,1.5,0.7,1.5,1.7V86h-0.8v-2.6
					c0-0.6-0.3-1.1-1-1.1c-0.6,0-1,0.5-1,1.1V86z"/>
				<path class="st2" d="M160.5,79.4c0.3,0,0.6,0.3,0.6,0.6c0,0.3-0.3,0.6-0.6,0.6c-0.3,0-0.6-0.3-0.6-0.6
					C159.9,79.7,160.2,79.4,160.5,79.4z M160.1,86v-4.3h0.8V86H160.1z"/>
				<path class="st2" d="M162.3,86v-6.5h0.8v2.8c0.2-0.4,0.7-0.7,1.4-0.7c1.3,0,2,1,2,2.3c0,1.3-0.7,2.3-2,2.3
					c-0.6,0-1.1-0.3-1.4-0.7V86H162.3z M164.4,82.3c-0.7,0-1.3,0.6-1.3,1.5s0.5,1.5,1.3,1.5c0.8,0,1.3-0.6,1.3-1.5
					S165.2,82.3,164.4,82.3z"/>
				<path class="st2" d="M168,79.4c0.3,0,0.6,0.3,0.6,0.6c0,0.3-0.3,0.6-0.6,0.6c-0.3,0-0.6-0.3-0.6-0.6
					C167.4,79.7,167.7,79.4,168,79.4z M167.6,86v-4.3h0.8V86H167.6z"/>
				<path class="st2" d="M171,81.7h0.9v0.8H171v2.3c0,0.4,0.2,0.6,0.6,0.6c0.1,0,0.3,0,0.3,0V86c-0.1,0-0.3,0.1-0.6,0.1
					c-0.7,0-1.2-0.5-1.2-1.2v-2.4h-0.8v-0.8h0.2c0.5,0,0.7-0.3,0.7-0.7v-0.7h0.8V81.7z"/>
				<path class="st2" d="M173.4,79.4c0.3,0,0.6,0.3,0.6,0.6c0,0.3-0.3,0.6-0.6,0.6c-0.3,0-0.6-0.3-0.6-0.6
					C172.8,79.7,173.1,79.4,173.4,79.4z M173,86v-4.3h0.8V86H173z"/>
				<path class="st2" d="M179.3,83.8c0,1.3-0.9,2.3-2.2,2.3s-2.2-1-2.2-2.3c0-1.3,0.9-2.3,2.2-2.3S179.3,82.5,179.3,83.8z
					 M178.4,83.8c0-1-0.6-1.5-1.4-1.5s-1.4,0.5-1.4,1.5c0,1,0.6,1.5,1.4,1.5S178.4,84.8,178.4,83.8z"/>
				<path class="st2" d="M181.2,86h-0.8v-4.3h0.8v0.6c0.3-0.5,0.8-0.7,1.3-0.7c1,0,1.5,0.7,1.5,1.7V86h-0.8v-2.6
					c0-0.6-0.3-1.1-1-1.1c-0.7,0-1,0.5-1,1.2V86z"/>
			</g>
			<g class="st1">
				<path class="st2" d="M10.8,94.5l1.2-0.2c0.3,0,0.3-0.2,0.3-0.3c0-0.4-0.3-0.8-0.9-0.8c-0.6,0-0.9,0.4-1,0.9l-0.8-0.2
					c0.1-0.8,0.8-1.4,1.8-1.4c1.3,0,1.8,0.7,1.8,1.6v2.2c0,0.4,0,0.6,0.1,0.7h-0.8c0-0.1,0-0.3,0-0.6c-0.2,0.3-0.6,0.7-1.4,0.7
					c-0.9,0-1.4-0.6-1.4-1.3C9.5,95.1,10,94.6,10.8,94.5z M12.3,95.1v-0.2l-1.3,0.2c-0.4,0.1-0.6,0.3-0.6,0.6c0,0.3,0.3,0.6,0.7,0.6
					C11.7,96.4,12.3,96.1,12.3,95.1z"/>
				<path class="st2" d="M15.5,92.7h0.9v0.8h-0.9v2.3c0,0.4,0.2,0.6,0.6,0.6c0.1,0,0.3,0,0.3,0V97c-0.1,0-0.3,0.1-0.6,0.1
					c-0.7,0-1.2-0.5-1.2-1.2v-2.4h-0.8v-0.8h0.2c0.5,0,0.7-0.3,0.7-0.7v-0.7h0.8V92.7z"/>
				<path class="st2" d="M19.8,97v-6.4h0.9v5.6h3V97H19.8z"/>
				<path class="st2" d="M28.6,94.8c0,1.3-0.9,2.3-2.2,2.3s-2.2-1-2.2-2.3c0-1.3,0.9-2.3,2.2-2.3S28.6,93.5,28.6,94.8z M27.8,94.8
					c0-1-0.6-1.5-1.4-1.5s-1.4,0.5-1.4,1.5c0,1,0.6,1.5,1.4,1.5S27.8,95.8,27.8,94.8z"/>
				<path class="st2" d="M30.5,97h-0.8v-4.3h0.8v0.6c0.3-0.5,0.8-0.7,1.3-0.7c1,0,1.5,0.7,1.5,1.7V97h-0.8v-2.6c0-0.6-0.3-1.1-1-1.1
					c-0.7,0-1,0.5-1,1.2V97z"/>
				<path class="st2" d="M37.7,96.3c-0.2,0.4-0.7,0.8-1.3,0.8c-1.3,0-2.1-1-2.1-2.3c0-1.2,0.8-2.3,2.1-2.3c0.8,0,1.2,0.4,1.3,0.7
					v-2.8h0.8v5.7c0,0.4,0,0.7,0,0.8h-0.8C37.8,96.9,37.7,96.7,37.7,96.3L37.7,96.3z M36.5,96.4c0.8,0,1.3-0.7,1.3-1.6
					c0-0.9-0.5-1.5-1.2-1.5c-0.8,0-1.3,0.6-1.3,1.5S35.7,96.4,36.5,96.4z"/>
				<path class="st2" d="M44,94.8c0,1.3-0.9,2.3-2.2,2.3s-2.2-1-2.2-2.3c0-1.3,0.9-2.3,2.2-2.3S44,93.5,44,94.8z M43.1,94.8
					c0-1-0.6-1.5-1.4-1.5s-1.4,0.5-1.4,1.5c0,1,0.6,1.5,1.4,1.5S43.1,95.8,43.1,94.8z"/>
				<path class="st2" d="M45.9,97H45v-4.3h0.8v0.6c0.3-0.5,0.8-0.7,1.3-0.7c1,0,1.5,0.7,1.5,1.7V97h-0.8v-2.6c0-0.6-0.3-1.1-1-1.1
					c-0.7,0-1,0.5-1,1.2V97z"/>
				<path class="st2" d="M49.9,90.5c0.4,0,0.7,0.3,0.7,0.8c0,1.1-0.7,1.6-1.2,1.6v-0.4c0.4-0.1,0.7-0.5,0.7-0.9c0,0-0.1,0-0.2,0
					c-0.3,0-0.6-0.2-0.6-0.6C49.2,90.8,49.5,90.5,49.9,90.5z"/>
				<path class="st2" d="M51.4,95.6c0.1,0.5,0.4,0.8,1,0.8c0.5,0,0.7-0.3,0.7-0.6c0-0.3-0.2-0.5-0.6-0.6l-0.7-0.2
					c-0.7-0.1-1.1-0.6-1.1-1.2c0-0.7,0.7-1.4,1.5-1.4c1.2,0,1.6,0.8,1.6,1.2L53.3,94c0-0.2-0.2-0.7-0.9-0.7c-0.4,0-0.7,0.3-0.7,0.6
					c0,0.3,0.2,0.5,0.5,0.5l0.7,0.2c0.8,0.2,1.2,0.6,1.2,1.3c0,0.6-0.5,1.3-1.6,1.3c-1.2,0-1.7-0.8-1.8-1.3L51.4,95.6z"/>
				<path class="st2" d="M61.7,97l-3.4-5.2V97h-0.9v-6.4h1.2l3.2,4.9v-4.9h0.9V97H61.7z"/>
				<path class="st2" d="M65.1,94.5l1.2-0.2c0.3,0,0.3-0.2,0.3-0.3c0-0.4-0.3-0.8-0.9-0.8c-0.6,0-0.9,0.4-1,0.9l-0.8-0.2
					c0.1-0.8,0.8-1.4,1.8-1.4c1.3,0,1.8,0.7,1.8,1.6v2.2c0,0.4,0,0.6,0.1,0.7h-0.8c0-0.1,0-0.3,0-0.6c-0.2,0.3-0.6,0.7-1.4,0.7
					c-0.9,0-1.4-0.6-1.4-1.3C63.8,95.1,64.4,94.6,65.1,94.5z M66.6,95.1v-0.2l-1.3,0.2c-0.4,0.1-0.6,0.3-0.6,0.6
					c0,0.3,0.3,0.6,0.7,0.6C66.1,96.4,66.6,96.1,66.6,95.1z"/>
				<path class="st2" d="M69.9,92.7h0.9v0.8h-0.9v2.3c0,0.4,0.2,0.6,0.6,0.6c0.1,0,0.3,0,0.3,0V97c-0.1,0-0.3,0.1-0.6,0.1
					c-0.7,0-1.2-0.5-1.2-1.2v-2.4h-0.8v-0.8h0.2c0.5,0,0.7-0.3,0.7-0.7v-0.7h0.8V92.7z"/>
				<path class="st2" d="M72.3,90.4c0.3,0,0.6,0.3,0.6,0.6c0,0.3-0.3,0.6-0.6,0.6c-0.3,0-0.6-0.3-0.6-0.6
					C71.7,90.7,72,90.4,72.3,90.4z M71.9,97v-4.3h0.8V97H71.9z"/>
				<path class="st2" d="M78.2,94.8c0,1.3-0.9,2.3-2.2,2.3s-2.2-1-2.2-2.3c0-1.3,0.9-2.3,2.2-2.3S78.2,93.5,78.2,94.8z M77.3,94.8
					c0-1-0.6-1.5-1.4-1.5s-1.4,0.5-1.4,1.5c0,1,0.6,1.5,1.4,1.5S77.3,95.8,77.3,94.8z"/>
				<path class="st2" d="M80.1,97h-0.8v-4.3h0.8v0.6c0.3-0.5,0.8-0.7,1.3-0.7c1,0,1.5,0.7,1.5,1.7V97h-0.8v-2.6c0-0.6-0.3-1.1-1-1.1
					c-0.7,0-1,0.5-1,1.2V97z"/>
				<path class="st2" d="M85.3,94.5l1.2-0.2c0.3,0,0.3-0.2,0.3-0.3c0-0.4-0.3-0.8-0.9-0.8c-0.6,0-0.9,0.4-1,0.9l-0.8-0.2
					c0.1-0.8,0.8-1.4,1.8-1.4c1.3,0,1.8,0.7,1.8,1.6v2.2c0,0.4,0,0.6,0.1,0.7h-0.8c0-0.1,0-0.3,0-0.6c-0.2,0.3-0.6,0.7-1.4,0.7
					c-0.9,0-1.4-0.6-1.4-1.3C84,95.1,84.5,94.6,85.3,94.5z M86.8,95.1v-0.2l-1.3,0.2c-0.4,0.1-0.6,0.3-0.6,0.6
					c0,0.3,0.3,0.6,0.7,0.6C86.2,96.4,86.8,96.1,86.8,95.1z"/>
				<path class="st2" d="M88.9,97v-6.5h0.8V97H88.9z"/>
				<path class="st2" d="M94.3,94.4V97h-0.9v-6.4h2.3c1.2,0,2,0.8,2,1.9c0,1.1-0.8,1.9-2,1.9H94.3z M95.6,93.6
					c0.8,0,1.2-0.4,1.2-1.1c0-0.7-0.5-1.1-1.2-1.1h-1.3v2.2H95.6z"/>
				<path class="st2" d="M102.4,94.8c0,1.3-0.9,2.3-2.2,2.3c-1.3,0-2.2-1-2.2-2.3c0-1.3,0.9-2.3,2.2-2.3
					C101.5,92.5,102.4,93.5,102.4,94.8z M101.5,94.8c0-1-0.6-1.5-1.3-1.5c-0.7,0-1.4,0.5-1.4,1.5c0,1,0.6,1.5,1.4,1.5
					C100.9,96.4,101.5,95.8,101.5,94.8z"/>
				<path class="st2" d="M105.8,93.5c-0.1,0-0.3,0-0.4,0c-0.7,0-1.2,0.4-1.2,1.3V97h-0.8v-4.3h0.8v0.8c0.3-0.7,0.9-0.8,1.3-0.8
					c0.1,0,0.2,0,0.3,0V93.5z"/>
				<path class="st2" d="M108,92.7h0.9v0.8H108v2.3c0,0.4,0.2,0.6,0.6,0.6c0.1,0,0.3,0,0.3,0V97c-0.1,0-0.3,0.1-0.6,0.1
					c-0.7,0-1.2-0.5-1.2-1.2v-2.4h-0.8v-0.8h0.2c0.5,0,0.7-0.3,0.7-0.7v-0.7h0.8V92.7z"/>
				<path class="st2" d="M112.4,93.5c-0.1,0-0.3,0-0.4,0c-0.7,0-1.2,0.4-1.2,1.3V97H110v-4.3h0.8v0.8c0.3-0.7,0.9-0.8,1.3-0.8
					c0.1,0,0.2,0,0.3,0V93.5z"/>
				<path class="st2" d="M114.3,94.5l1.2-0.2c0.3,0,0.3-0.2,0.3-0.3c0-0.4-0.3-0.8-0.9-0.8c-0.6,0-0.9,0.4-1,0.9l-0.8-0.2
					c0.1-0.8,0.8-1.4,1.8-1.4c1.3,0,1.8,0.7,1.8,1.6v2.2c0,0.4,0,0.6,0.1,0.7h-0.8c0-0.1,0-0.3,0-0.6c-0.2,0.3-0.6,0.7-1.4,0.7
					c-0.9,0-1.4-0.6-1.4-1.3C113,95.1,113.5,94.6,114.3,94.5z M115.8,95.1v-0.2l-1.3,0.2c-0.4,0.1-0.6,0.3-0.6,0.6
					c0,0.3,0.3,0.6,0.7,0.6C115.2,96.4,115.8,96.1,115.8,95.1z"/>
				<path class="st2" d="M118.3,90.4c0.3,0,0.6,0.3,0.6,0.6c0,0.3-0.3,0.6-0.6,0.6c-0.3,0-0.6-0.3-0.6-0.6
					C117.7,90.7,118,90.4,118.3,90.4z M117.9,97v-4.3h0.8V97H117.9z"/>
				<path class="st2" d="M121.3,92.7h0.9v0.8h-0.9v2.3c0,0.4,0.2,0.6,0.6,0.6c0.1,0,0.3,0,0.3,0V97c-0.1,0-0.3,0.1-0.6,0.1
					c-0.7,0-1.2-0.5-1.2-1.2v-2.4h-0.8v-0.8h0.2c0.5,0,0.7-0.3,0.7-0.7v-0.7h0.8V92.7z"/>
				<path class="st2" d="M130.4,97l-0.1-0.9c-0.3,0.5-1,1-2,1c-1.6,0-3.1-1.2-3.1-3.3c0-2.2,1.6-3.3,3.2-3.3c1.4,0,2.5,0.8,2.8,1.9
					l-0.8,0.3c-0.3-0.9-1-1.5-2-1.5c-1.1,0-2.3,0.8-2.3,2.5s1.1,2.5,2.2,2.5c1.4,0,1.9-1,2-1.7H128v-0.8h3.1V97H130.4z"/>
				<path class="st2" d="M133.4,94.5l1.2-0.2c0.3,0,0.3-0.2,0.3-0.3c0-0.4-0.3-0.8-0.9-0.8c-0.6,0-0.9,0.4-1,0.9l-0.8-0.2
					c0.1-0.8,0.8-1.4,1.8-1.4c1.3,0,1.8,0.7,1.8,1.6v2.2c0,0.4,0,0.6,0.1,0.7h-0.8c0-0.1,0-0.3,0-0.6c-0.2,0.3-0.6,0.7-1.4,0.7
					c-0.9,0-1.4-0.6-1.4-1.3C132,95.1,132.6,94.6,133.4,94.5z M134.9,95.1v-0.2l-1.3,0.2c-0.4,0.1-0.6,0.3-0.6,0.6
					c0,0.3,0.3,0.6,0.7,0.6C134.3,96.4,134.9,96.1,134.9,95.1z"/>
				<path class="st2" d="M137,97v-6.5h0.8V97H137z"/>
				<path class="st2" d="M139.2,97v-6.5h0.8V97H139.2z"/>
				<path class="st2" d="M145.2,95.8c-0.2,0.8-0.9,1.4-1.9,1.4c-1.2,0-2.2-0.8-2.2-2.3c0-1.4,1-2.3,2.1-2.3c1.3,0,2.1,0.9,2.1,2.3
					c0,0.1,0,0.2,0,0.3H142c0,0.8,0.6,1.3,1.3,1.3c0.7,0,1.1-0.4,1.2-0.9L145.2,95.8z M144.4,94.4c0-0.6-0.4-1.1-1.2-1.1
					c-0.7,0-1.1,0.5-1.2,1.1H144.4z"/>
				<path class="st2" d="M148.7,93.5c-0.1,0-0.3,0-0.4,0c-0.7,0-1.2,0.4-1.2,1.3V97h-0.8v-4.3h0.8v0.8c0.3-0.7,0.9-0.8,1.3-0.8
					c0.1,0,0.2,0,0.3,0V93.5z"/>
				<path class="st2" d="M149.8,98.8l1.1-2.3l-1.9-3.9h1l1.3,3l1.3-3h0.9l-2.8,6.1H149.8z"/>
				<path class="st2" d="M153.9,95.8c0.4,0,0.6,0.3,0.6,0.6s-0.3,0.6-0.6,0.6c-0.4,0-0.6-0.3-0.6-0.6S153.5,95.8,153.9,95.8z"/>
			</g>
			<g class="st1">
				<path class="st2" d="M13.1,114.3c-0.1-0.5-0.5-1.1-1.4-1.1c-0.7,0-1.2,0.5-1.2,1.1c0,0.5,0.3,0.8,0.8,0.9l1,0.2
					c1.1,0.2,1.7,0.9,1.7,1.8c0,1-0.8,1.9-2.2,1.9c-1.5,0-2.3-1-2.4-1.9l0.8-0.3c0.1,0.7,0.6,1.4,1.5,1.4c0.9,0,1.3-0.5,1.3-1
					c0-0.5-0.3-0.9-1-1l-0.9-0.2c-0.9-0.2-1.6-0.8-1.6-1.7c0-1,0.9-1.9,2.1-1.9c1.4,0,2,0.9,2.2,1.6L13.1,114.3z"/>
				<path class="st2" d="M15.8,119H15v-6.5h0.8v2.7c0.3-0.5,0.8-0.6,1.3-0.6c1,0,1.5,0.7,1.5,1.7v2.7h-0.8v-2.6c0-0.6-0.3-1.1-1-1.1
					c-0.6,0-1,0.5-1,1.1V119z"/>
				<path class="st2" d="M23.8,117.8c-0.2,0.8-0.9,1.4-1.9,1.4c-1.2,0-2.2-0.8-2.2-2.3c0-1.4,1-2.3,2.1-2.3c1.3,0,2.1,0.9,2.1,2.3
					c0,0.1,0,0.2,0,0.3h-3.3c0,0.8,0.6,1.3,1.3,1.3c0.7,0,1.1-0.4,1.2-0.9L23.8,117.8z M22.9,116.4c0-0.6-0.4-1.1-1.2-1.1
					c-0.7,0-1.1,0.5-1.2,1.1H22.9z"/>
				<path class="st2" d="M31.1,116.8c0,1.3-0.9,2.3-2.2,2.3s-2.2-1-2.2-2.3c0-1.3,0.9-2.3,2.2-2.3S31.1,115.5,31.1,116.8z
					 M30.2,116.8c0-1-0.6-1.5-1.4-1.5s-1.4,0.5-1.4,1.5c0,1,0.6,1.5,1.4,1.5S30.2,117.8,30.2,116.8z"/>
				<path class="st2" d="M34.5,115.5c-0.1,0-0.3,0-0.4,0c-0.7,0-1.2,0.4-1.2,1.3v2.2h-0.8v-4.3h0.8v0.8c0.3-0.7,0.9-0.8,1.3-0.8
					c0.1,0,0.2,0,0.3,0V115.5z"/>
				<path class="st2" d="M35.8,112.4c0.3,0,0.6,0.3,0.6,0.6c0,0.3-0.3,0.6-0.6,0.6c-0.3,0-0.6-0.3-0.6-0.6
					C35.2,112.7,35.5,112.4,35.8,112.4z M35.4,119v-4.3h0.8v4.3H35.4z"/>
				<path class="st2" d="M38.1,119c0.1,0.6,0.5,1.1,1.2,1.1c0.9,0,1.3-0.5,1.3-1.4v-0.6c-0.2,0.4-0.7,0.7-1.3,0.7
					c-1.2,0-2-0.9-2-2.1c0-1.2,0.8-2.1,2-2.1c0.7,0,1.1,0.3,1.3,0.7v-0.6h0.8v4c0,1.1-0.5,2.2-2.2,2.2c-1.1,0-1.9-0.7-2-1.6
					L38.1,119z M40.7,116.7c0-0.8-0.5-1.4-1.2-1.4c-0.7,0-1.3,0.5-1.3,1.4c0,0.8,0.5,1.4,1.3,1.4C40.1,118.1,40.7,117.5,40.7,116.7z
					"/>
				<path class="st2" d="M43.2,112.4c0.3,0,0.6,0.3,0.6,0.6c0,0.3-0.3,0.6-0.6,0.6c-0.3,0-0.6-0.3-0.6-0.6
					C42.6,112.7,42.8,112.4,43.2,112.4z M42.8,119v-4.3h0.8v4.3H42.8z"/>
				<path class="st2" d="M45.8,119H45v-4.3h0.8v0.6c0.3-0.5,0.8-0.7,1.3-0.7c1,0,1.5,0.7,1.5,1.7v2.7h-0.8v-2.6c0-0.6-0.3-1.1-1-1.1
					c-0.7,0-1,0.5-1,1.2V119z"/>
				<path class="st2" d="M51.1,116.5l1.2-0.2c0.3,0,0.3-0.2,0.3-0.3c0-0.4-0.3-0.8-0.9-0.8c-0.6,0-0.9,0.4-1,0.9l-0.8-0.2
					c0.1-0.8,0.8-1.4,1.8-1.4c1.3,0,1.8,0.7,1.8,1.6v2.2c0,0.4,0,0.6,0.1,0.7h-0.8c0-0.1,0-0.3,0-0.6c-0.2,0.3-0.6,0.7-1.4,0.7
					c-0.9,0-1.4-0.6-1.4-1.3C49.7,117.1,50.3,116.6,51.1,116.5z M52.6,117.1v-0.2l-1.3,0.2c-0.4,0.1-0.6,0.3-0.6,0.6
					c0,0.3,0.3,0.6,0.7,0.6C52,118.4,52.6,118.1,52.6,117.1z"/>
				<path class="st2" d="M54.7,119v-6.5h0.8v6.5H54.7z"/>
				<path class="st2" d="M56.9,119v-6.5h0.8v6.5H56.9z"/>
				<path class="st2" d="M59.3,120.8l1.1-2.3l-1.9-3.9h1l1.4,3l1.3-3h0.9l-2.8,6.1H59.3z"/>
				<path class="st2" d="M66.5,116.8c0,1,0.6,1.5,1.3,1.5c0.8,0,1.1-0.5,1.2-0.9l0.7,0.3c-0.2,0.6-0.8,1.4-2,1.4
					c-1.3,0-2.2-1-2.2-2.3c0-1.4,0.9-2.3,2.2-2.3c1.2,0,1.7,0.7,1.9,1.4l-0.8,0.3c-0.1-0.4-0.4-0.9-1.2-0.9
					C67.2,115.3,66.5,115.8,66.5,116.8z"/>
				<path class="st2" d="M71.7,116.5l1.2-0.2c0.3,0,0.3-0.2,0.3-0.3c0-0.4-0.3-0.8-0.9-0.8c-0.6,0-0.9,0.4-1,0.9l-0.8-0.2
					c0.1-0.8,0.8-1.4,1.8-1.4c1.3,0,1.8,0.7,1.8,1.6v2.2c0,0.4,0,0.6,0.1,0.7h-0.8c0-0.1,0-0.3,0-0.6c-0.2,0.3-0.6,0.7-1.4,0.7
					c-0.9,0-1.4-0.6-1.4-1.3C70.4,117.1,71,116.6,71.7,116.5z M73.3,117.1v-0.2l-1.3,0.2c-0.4,0.1-0.6,0.3-0.6,0.6
					c0,0.3,0.3,0.6,0.7,0.6C72.7,118.4,73.3,118.1,73.3,117.1z"/>
				<path class="st2" d="M75.4,119v-4.3h0.8v0.6c0.3-0.5,0.8-0.7,1.3-0.7c0.5,0,1.1,0.3,1.3,0.8c0.3-0.6,0.9-0.8,1.4-0.8
					c0.8,0,1.5,0.5,1.5,1.6v2.8h-0.8v-2.7c0-0.6-0.3-1-0.9-1c-0.6,0-1,0.5-1,1.1v2.6h-0.8v-2.7c0-0.6-0.3-1-0.9-1
					c-0.6,0-1,0.5-1,1.1v2.6H75.4z"/>
				<path class="st2" d="M86.8,117.8c-0.2,0.8-0.9,1.4-1.9,1.4c-1.2,0-2.2-0.8-2.2-2.3c0-1.4,1-2.3,2.1-2.3c1.3,0,2.1,0.9,2.1,2.3
					c0,0.1,0,0.2,0,0.3h-3.3c0,0.8,0.6,1.3,1.3,1.3c0.7,0,1.1-0.4,1.2-0.9L86.8,117.8z M86,116.4c0-0.6-0.4-1.1-1.2-1.1
					c-0.7,0-1.1,0.5-1.2,1.1H86z"/>
				<path class="st2" d="M90.5,112.4c0.3,0,0.6,0.3,0.6,0.6c0,0.3-0.3,0.6-0.6,0.6c-0.3,0-0.6-0.3-0.6-0.6
					C89.9,112.7,90.2,112.4,90.5,112.4z M90.1,119v-4.3h0.8v4.3H90.1z"/>
				<path class="st2" d="M93.1,119h-0.8v-4.3h0.8v0.6c0.3-0.5,0.8-0.7,1.3-0.7c1,0,1.5,0.7,1.5,1.7v2.7h-0.8v-2.6
					c0-0.6-0.3-1.1-1-1.1c-0.7,0-1,0.5-1,1.2V119z"/>
				<path class="st2" d="M98.5,114.7h0.9v0.8h-0.9v2.3c0,0.4,0.2,0.6,0.6,0.6c0.1,0,0.3,0,0.3,0v0.7c-0.1,0-0.3,0.1-0.6,0.1
					c-0.7,0-1.2-0.5-1.2-1.2v-2.4h-0.8v-0.8H97c0.5,0,0.7-0.3,0.7-0.7v-0.7h0.8V114.7z"/>
				<path class="st2" d="M104.5,116.8c0,1.3-0.9,2.3-2.2,2.3c-1.3,0-2.2-1-2.2-2.3c0-1.3,0.9-2.3,2.2-2.3
					C103.6,114.5,104.5,115.5,104.5,116.8z M103.6,116.8c0-1-0.6-1.5-1.4-1.5c-0.7,0-1.3,0.5-1.3,1.5c0,1,0.6,1.5,1.3,1.5
					C103,118.4,103.6,117.8,103.6,116.8z"/>
				<path class="st2" d="M107.7,120.7v-6h0.8v0.7c0.2-0.4,0.7-0.8,1.4-0.8c1.3,0,2,1,2,2.3c0,1.3-0.7,2.3-2,2.3
					c-0.7,0-1.2-0.3-1.4-0.7v2.3H107.7z M109.8,115.3c-0.8,0-1.3,0.6-1.3,1.5c0,0.9,0.5,1.5,1.3,1.5c0.8,0,1.3-0.6,1.3-1.5
					C111.1,116,110.6,115.3,109.8,115.3z"/>
				<path class="st2" d="M115.4,115.5c-0.1,0-0.3,0-0.4,0c-0.7,0-1.2,0.4-1.2,1.3v2.2H113v-4.3h0.8v0.8c0.3-0.7,0.9-0.8,1.3-0.8
					c0.1,0,0.2,0,0.3,0V115.5z"/>
				<path class="st2" d="M120.3,116.8c0,1.3-0.9,2.3-2.2,2.3c-1.3,0-2.2-1-2.2-2.3c0-1.3,0.9-2.3,2.2-2.3
					C119.4,114.5,120.3,115.5,120.3,116.8z M119.4,116.8c0-1-0.6-1.5-1.4-1.5c-0.7,0-1.3,0.5-1.3,1.5c0,1,0.6,1.5,1.3,1.5
					C118.8,118.4,119.4,117.8,119.4,116.8z"/>
				<path class="st2" d="M121.3,119v-4.3h0.8v0.6c0.3-0.5,0.8-0.7,1.3-0.7c0.5,0,1.1,0.3,1.3,0.8c0.3-0.6,0.9-0.8,1.4-0.8
					c0.8,0,1.5,0.5,1.5,1.6v2.8h-0.8v-2.7c0-0.6-0.3-1-0.9-1c-0.6,0-1,0.5-1,1.1v2.6h-0.8v-2.7c0-0.6-0.3-1-0.9-1
					c-0.6,0-1,0.5-1,1.1v2.6H121.3z"/>
				<path class="st2" d="M129.4,112.4c0.3,0,0.6,0.3,0.6,0.6c0,0.3-0.3,0.6-0.6,0.6c-0.3,0-0.6-0.3-0.6-0.6
					C128.8,112.7,129.1,112.4,129.4,112.4z M129,119v-4.3h0.8v4.3H129z"/>
				<path class="st2" d="M132.1,119h-0.8v-4.3h0.8v0.6c0.3-0.5,0.8-0.7,1.3-0.7c1,0,1.5,0.7,1.5,1.7v2.7h-0.8v-2.6
					c0-0.6-0.3-1.1-1-1.1c-0.7,0-1,0.5-1,1.2V119z"/>
				<path class="st2" d="M140,117.8c-0.2,0.8-0.9,1.4-1.9,1.4c-1.2,0-2.2-0.8-2.2-2.3c0-1.4,1-2.3,2.1-2.3c1.3,0,2.1,0.9,2.1,2.3
					c0,0.1,0,0.2,0,0.3h-3.3c0,0.8,0.6,1.3,1.3,1.3c0.7,0,1.1-0.4,1.2-0.9L140,117.8z M139.2,116.4c0-0.6-0.4-1.1-1.2-1.1
					c-0.7,0-1.1,0.5-1.2,1.1H139.2z"/>
				<path class="st2" d="M141.9,119h-0.8v-4.3h0.8v0.6c0.3-0.5,0.8-0.7,1.3-0.7c1,0,1.5,0.7,1.5,1.7v2.7h-0.8v-2.6
					c0-0.6-0.3-1.1-1-1.1c-0.7,0-1,0.5-1,1.2V119z"/>
				<path class="st2" d="M146.6,116.8c0,1,0.6,1.5,1.3,1.5c0.8,0,1.1-0.5,1.2-0.9l0.7,0.3c-0.2,0.6-0.8,1.4-2,1.4
					c-1.3,0-2.2-1-2.2-2.3c0-1.4,0.9-2.3,2.2-2.3c1.2,0,1.7,0.7,1.9,1.4l-0.8,0.3c-0.1-0.4-0.4-0.9-1.2-0.9
					C147.2,115.3,146.6,115.8,146.6,116.8z"/>
				<path class="st2" d="M154.5,117.8c-0.2,0.8-0.9,1.4-1.9,1.4c-1.2,0-2.2-0.8-2.2-2.3c0-1.4,1-2.3,2.1-2.3c1.3,0,2.1,0.9,2.1,2.3
					c0,0.1,0,0.2,0,0.3h-3.3c0,0.8,0.6,1.3,1.3,1.3c0.7,0,1.1-0.4,1.2-0.9L154.5,117.8z M153.7,116.4c0-0.6-0.4-1.1-1.2-1.1
					c-0.7,0-1.1,0.5-1.2,1.1H153.7z"/>
			</g>
			<g class="st1">
				<path class="st2" d="M10.1,123.4c0.3,0,0.6,0.3,0.6,0.6c0,0.3-0.3,0.6-0.6,0.6c-0.3,0-0.6-0.3-0.6-0.6
					C9.5,123.7,9.8,123.4,10.1,123.4z M9.7,130v-4.3h0.8v4.3H9.7z"/>
				<path class="st2" d="M12.8,130H12v-4.3h0.8v0.6c0.3-0.5,0.8-0.7,1.3-0.7c1,0,1.5,0.7,1.5,1.7v2.7h-0.8v-2.6c0-0.6-0.3-1.1-1-1.1
					c-0.7,0-1,0.5-1,1.2V130z"/>
				<path class="st2" d="M20,130h-0.8v-6.5H20v2.7c0.3-0.5,0.8-0.6,1.3-0.6c1,0,1.5,0.7,1.5,1.7v2.7H22v-2.6c0-0.6-0.3-1.1-1-1.1
					c-0.6,0-1,0.5-1,1.1V130z"/>
				<path class="st2" d="M28,128.8c-0.2,0.8-0.9,1.4-1.9,1.4c-1.2,0-2.2-0.8-2.2-2.3c0-1.4,1-2.3,2.1-2.3c1.3,0,2.1,0.9,2.1,2.3
					c0,0.1,0,0.2,0,0.3h-3.3c0,0.8,0.6,1.3,1.3,1.3c0.7,0,1.1-0.4,1.2-0.9L28,128.8z M27.1,127.4c0-0.6-0.4-1.1-1.2-1.1
					c-0.7,0-1.1,0.5-1.2,1.1H27.1z"/>
				<path class="st2" d="M31.4,126.5c-0.1,0-0.3,0-0.4,0c-0.7,0-1.2,0.4-1.2,1.3v2.2H29v-4.3h0.8v0.8c0.3-0.7,0.9-0.8,1.3-0.8
					c0.1,0,0.2,0,0.3,0V126.5z"/>
				<path class="st2" d="M36.9,126.5c-0.1,0-0.3,0-0.4,0c-0.7,0-1.2,0.4-1.2,1.3v2.2h-0.8v-4.3h0.8v0.8c0.3-0.7,0.9-0.8,1.3-0.8
					c0.1,0,0.2,0,0.3,0V126.5z"/>
				<path class="st2" d="M41.8,127.8c0,1.3-0.9,2.3-2.2,2.3s-2.2-1-2.2-2.3c0-1.3,0.9-2.3,2.2-2.3S41.8,126.5,41.8,127.8z
					 M40.9,127.8c0-1-0.6-1.5-1.4-1.5s-1.4,0.5-1.4,1.5c0,1,0.6,1.5,1.4,1.5S40.9,128.8,40.9,127.8z"/>
				<path class="st2" d="M42.8,130v-6.5h0.8v6.5H42.8z"/>
				<path class="st2" d="M48.8,128.8c-0.2,0.8-0.9,1.4-1.9,1.4c-1.2,0-2.2-0.8-2.2-2.3c0-1.4,1-2.3,2.1-2.3c1.3,0,2.1,0.9,2.1,2.3
					c0,0.1,0,0.2,0,0.3h-3.3c0,0.8,0.6,1.3,1.3,1.3c0.7,0,1.1-0.4,1.2-0.9L48.8,128.8z M48,127.4c0-0.6-0.4-1.1-1.2-1.1
					c-0.7,0-1.1,0.5-1.2,1.1H48z"/>
				<path class="st2" d="M53.1,127.5l1.2-0.2c0.3,0,0.3-0.2,0.3-0.3c0-0.4-0.3-0.8-0.9-0.8c-0.6,0-0.9,0.4-1,0.9l-0.8-0.2
					c0.1-0.8,0.8-1.4,1.8-1.4c1.3,0,1.8,0.7,1.8,1.6v2.2c0,0.4,0,0.6,0.1,0.7h-0.8c0-0.1,0-0.3,0-0.6c-0.2,0.3-0.6,0.7-1.4,0.7
					c-0.9,0-1.4-0.6-1.4-1.3C51.8,128.1,52.4,127.6,53.1,127.5z M54.6,128.1v-0.2l-1.3,0.2c-0.4,0.1-0.6,0.3-0.6,0.6
					c0,0.3,0.3,0.6,0.7,0.6C54.1,129.4,54.6,129.1,54.6,128.1z"/>
				<path class="st2" d="M57.1,128.6c0.1,0.5,0.4,0.8,1,0.8c0.5,0,0.7-0.3,0.7-0.6c0-0.3-0.2-0.5-0.6-0.6l-0.7-0.2
					c-0.7-0.1-1.1-0.6-1.1-1.2c0-0.7,0.7-1.4,1.5-1.4c1.2,0,1.6,0.8,1.6,1.2l-0.7,0.3c0-0.2-0.2-0.7-0.9-0.7c-0.4,0-0.7,0.3-0.7,0.6
					c0,0.3,0.2,0.5,0.5,0.5l0.7,0.2c0.8,0.2,1.2,0.6,1.2,1.3c0,0.6-0.5,1.3-1.6,1.3c-1.2,0-1.7-0.8-1.8-1.3L57.1,128.6z"/>
				<path class="st2" d="M64.1,125.7H65v0.8h-0.9v2.3c0,0.4,0.2,0.6,0.6,0.6c0.1,0,0.3,0,0.3,0v0.7c-0.1,0-0.3,0.1-0.6,0.1
					c-0.7,0-1.2-0.5-1.2-1.2v-2.4h-0.8v-0.8h0.2c0.5,0,0.7-0.3,0.7-0.7v-0.7h0.8V125.7z"/>
				<path class="st2" d="M67,130h-0.8v-6.5H67v2.7c0.3-0.5,0.8-0.6,1.3-0.6c1,0,1.5,0.7,1.5,1.7v2.7H69v-2.6c0-0.6-0.3-1.1-1-1.1
					c-0.6,0-1,0.5-1,1.1V130z"/>
				<path class="st2" d="M74.9,128.8c-0.2,0.8-0.9,1.4-1.9,1.4c-1.2,0-2.2-0.8-2.2-2.3c0-1.4,1-2.3,2.1-2.3c1.3,0,2.1,0.9,2.1,2.3
					c0,0.1,0,0.2,0,0.3h-3.3c0,0.8,0.6,1.3,1.3,1.3c0.7,0,1.1-0.4,1.2-0.9L74.9,128.8z M74,127.4c0-0.6-0.4-1.1-1.2-1.1
					c-0.7,0-1.1,0.5-1.2,1.1H74z"/>
				<path class="st2" d="M78.7,127.8c0,1,0.6,1.5,1.3,1.5c0.8,0,1.1-0.5,1.2-0.9l0.7,0.3c-0.2,0.6-0.8,1.4-2,1.4
					c-1.3,0-2.2-1-2.2-2.3c0-1.4,0.9-2.3,2.2-2.3c1.2,0,1.7,0.7,1.9,1.4l-0.8,0.3c-0.1-0.4-0.4-0.9-1.2-0.9
					C79.3,126.3,78.7,126.8,78.7,127.8z"/>
				<path class="st2" d="M83.7,130h-0.8v-6.5h0.8v2.7c0.3-0.5,0.8-0.6,1.3-0.6c1,0,1.5,0.7,1.5,1.7v2.7h-0.8v-2.6
					c0-0.6-0.3-1.1-1-1.1c-0.6,0-1,0.5-1,1.1V130z"/>
				<path class="st2" d="M88.3,123.4c0.3,0,0.6,0.3,0.6,0.6c0,0.3-0.3,0.6-0.6,0.6c-0.3,0-0.6-0.3-0.6-0.6
					C87.7,123.7,88,123.4,88.3,123.4z M87.9,130v-4.3h0.8v4.3H87.9z"/>
				<path class="st2" d="M93.9,128.8c-0.2,0.8-0.9,1.4-1.9,1.4c-1.2,0-2.2-0.8-2.2-2.3c0-1.4,1-2.3,2.1-2.3c1.3,0,2.1,0.9,2.1,2.3
					c0,0.1,0,0.2,0,0.3h-3.3c0,0.8,0.6,1.3,1.3,1.3c0.7,0,1.1-0.4,1.2-0.9L93.9,128.8z M93.1,127.4c0-0.6-0.4-1.1-1.2-1.1
					c-0.7,0-1.1,0.5-1.2,1.1H93.1z"/>
				<path class="st2" d="M96.1,126.4v3.6h-0.9v-3.6h-0.8v-0.8h0.8v-0.7c0-1,0.6-1.5,1.4-1.5c0.3,0,0.5,0.1,0.5,0.1v0.8
					c0,0-0.2-0.1-0.4-0.1c-0.3,0-0.7,0.1-0.7,0.7v0.7h1v0.8H96.1z"/>
				<path class="st2" d="M100.2,131.7v-6h0.8v0.7c0.2-0.4,0.7-0.8,1.4-0.8c1.3,0,2,1,2,2.3c0,1.3-0.7,2.3-2,2.3
					c-0.7,0-1.2-0.3-1.4-0.7v2.3H100.2z M102.3,126.3c-0.8,0-1.3,0.6-1.3,1.5c0,0.9,0.5,1.5,1.3,1.5c0.8,0,1.3-0.6,1.3-1.5
					C103.6,127,103.1,126.3,102.3,126.3z"/>
				<path class="st2" d="M106.4,130h-0.8v-6.5h0.8v2.7c0.3-0.5,0.8-0.6,1.3-0.6c1,0,1.5,0.7,1.5,1.7v2.7h-0.8v-2.6
					c0-0.6-0.3-1.1-1-1.1c-0.6,0-1,0.5-1,1.1V130z"/>
				<path class="st2" d="M114.6,127.8c0,1.3-0.9,2.3-2.2,2.3c-1.3,0-2.2-1-2.2-2.3c0-1.3,0.9-2.3,2.2-2.3
					C113.7,125.5,114.6,126.5,114.6,127.8z M113.7,127.8c0-1-0.6-1.5-1.4-1.5c-0.7,0-1.3,0.5-1.3,1.5c0,1,0.6,1.5,1.3,1.5
					C113.1,129.4,113.7,128.8,113.7,127.8z"/>
				<path class="st2" d="M116.7,125.7h0.9v0.8h-0.9v2.3c0,0.4,0.2,0.6,0.6,0.6c0.1,0,0.3,0,0.3,0v0.7c-0.1,0-0.3,0.1-0.6,0.1
					c-0.7,0-1.2-0.5-1.2-1.2v-2.4H115v-0.8h0.2c0.5,0,0.7-0.3,0.7-0.7v-0.7h0.8V125.7z"/>
				<path class="st2" d="M122.8,127.8c0,1.3-0.9,2.3-2.2,2.3c-1.3,0-2.2-1-2.2-2.3c0-1.3,0.9-2.3,2.2-2.3
					C121.8,125.5,122.8,126.5,122.8,127.8z M121.9,127.8c0-1-0.6-1.5-1.3-1.5c-0.7,0-1.4,0.5-1.4,1.5c0,1,0.6,1.5,1.4,1.5
					C121.3,129.4,121.9,128.8,121.9,127.8z"/>
				<path class="st2" d="M124.3,130c0.1,0.6,0.5,1.1,1.2,1.1c0.9,0,1.3-0.5,1.3-1.4v-0.6c-0.2,0.4-0.7,0.7-1.3,0.7
					c-1.2,0-2-0.9-2-2.1c0-1.2,0.8-2.1,2-2.1c0.7,0,1.1,0.3,1.3,0.7v-0.6h0.8v4c0,1.1-0.5,2.2-2.2,2.2c-1.1,0-1.9-0.7-2-1.6
					L124.3,130z M126.8,127.7c0-0.8-0.5-1.4-1.2-1.4c-0.7,0-1.3,0.5-1.3,1.4c0,0.8,0.5,1.4,1.3,1.4
					C126.3,129.1,126.8,128.5,126.8,127.7z"/>
				<path class="st2" d="M131.3,126.5c-0.1,0-0.3,0-0.4,0c-0.7,0-1.2,0.4-1.2,1.3v2.2h-0.8v-4.3h0.8v0.8c0.3-0.7,0.9-0.8,1.3-0.8
					c0.1,0,0.2,0,0.3,0V126.5z"/>
				<path class="st2" d="M133.2,127.5l1.2-0.2c0.3,0,0.3-0.2,0.3-0.3c0-0.4-0.3-0.8-0.9-0.8c-0.6,0-0.9,0.4-1,0.9l-0.8-0.2
					c0.1-0.8,0.8-1.4,1.8-1.4c1.3,0,1.8,0.7,1.8,1.6v2.2c0,0.4,0,0.6,0.1,0.7h-0.8c0-0.1,0-0.3,0-0.6c-0.2,0.3-0.6,0.7-1.4,0.7
					c-0.9,0-1.4-0.6-1.4-1.3C131.9,128.1,132.5,127.6,133.2,127.5z M134.7,128.1v-0.2l-1.3,0.2c-0.4,0.1-0.6,0.3-0.6,0.6
					c0,0.3,0.3,0.6,0.7,0.6C134.2,129.4,134.7,129.1,134.7,128.1z"/>
				<path class="st2" d="M136.9,131.7v-6h0.8v0.7c0.2-0.4,0.7-0.8,1.4-0.8c1.3,0,2,1,2,2.3c0,1.3-0.7,2.3-2,2.3
					c-0.7,0-1.2-0.3-1.4-0.7v2.3H136.9z M139,126.3c-0.8,0-1.3,0.6-1.3,1.5c0,0.9,0.5,1.5,1.3,1.5c0.8,0,1.3-0.6,1.3-1.5
					C140.3,127,139.8,126.3,139,126.3z"/>
				<path class="st2" d="M143,130h-0.8v-6.5h0.8v2.7c0.3-0.5,0.8-0.6,1.3-0.6c1,0,1.5,0.7,1.5,1.7v2.7H145v-2.6c0-0.6-0.3-1.1-1-1.1
					c-0.6,0-1,0.5-1,1.1V130z"/>
				<path class="st2" d="M150.9,128.8c-0.2,0.8-0.9,1.4-1.9,1.4c-1.2,0-2.2-0.8-2.2-2.3c0-1.4,1-2.3,2.1-2.3c1.3,0,2.1,0.9,2.1,2.3
					c0,0.1,0,0.2,0,0.3h-3.3c0,0.8,0.6,1.3,1.3,1.3c0.7,0,1.1-0.4,1.2-0.9L150.9,128.8z M150.1,127.4c0-0.6-0.4-1.1-1.2-1.1
					c-0.7,0-1.1,0.5-1.2,1.1H150.1z"/>
				<path class="st2" d="M154.4,126.5c-0.1,0-0.3,0-0.4,0c-0.7,0-1.2,0.4-1.2,1.3v2.2H152v-4.3h0.8v0.8c0.3-0.7,0.9-0.8,1.3-0.8
					c0.1,0,0.2,0,0.3,0V126.5z"/>
				<path class="st2" d="M161.5,127.8c0,1.3-0.9,2.3-2.2,2.3c-1.3,0-2.2-1-2.2-2.3c0-1.3,0.9-2.3,2.2-2.3
					C160.6,125.5,161.5,126.5,161.5,127.8z M160.7,127.8c0-1-0.6-1.5-1.4-1.5c-0.7,0-1.3,0.5-1.3,1.5c0,1,0.6,1.5,1.3,1.5
					C160,129.4,160.7,128.8,160.7,127.8z"/>
				<path class="st2" d="M163.7,126.4v3.6h-0.9v-3.6H162v-0.8h0.8v-0.7c0-1,0.6-1.5,1.4-1.5c0.3,0,0.5,0.1,0.5,0.1v0.8
					c0,0-0.2-0.1-0.4-0.1c-0.3,0-0.7,0.1-0.7,0.7v0.7h1v0.8H163.7z"/>
			</g>
			<g class="st1">
				<path class="st2" d="M11.7,138.4h-1v2.6H9.8v-6.4h2.4c1.2,0,2,0.8,2,1.9c0,0.9-0.6,1.6-1.5,1.8l1.5,2.7h-1L11.7,138.4z
					 M12.1,137.6c0.7,0,1.2-0.4,1.2-1.1c0-0.7-0.5-1.1-1.2-1.1h-1.4v2.2H12.1z"/>
				<path class="st2" d="M19.1,138.8c0,1.3-0.9,2.3-2.2,2.3s-2.2-1-2.2-2.3c0-1.3,0.9-2.3,2.2-2.3S19.1,137.5,19.1,138.8z
					 M18.3,138.8c0-1-0.6-1.5-1.4-1.5s-1.4,0.5-1.4,1.5c0,1,0.6,1.5,1.4,1.5S18.3,139.8,18.3,138.8z"/>
				<path class="st2" d="M20.2,141v-6.5H21v6.5H20.2z"/>
				<path class="st2" d="M22.4,141v-6.5h0.8v6.5H22.4z"/>
				<path class="st2" d="M25.1,134.4c0.3,0,0.6,0.3,0.6,0.6c0,0.3-0.3,0.6-0.6,0.6c-0.3,0-0.6-0.3-0.6-0.6
					C24.5,134.7,24.7,134.4,25.1,134.4z M24.7,141v-4.3h0.8v4.3H24.7z"/>
				<path class="st2" d="M27.7,141h-0.8v-4.3h0.8v0.6c0.3-0.5,0.8-0.7,1.3-0.7c1,0,1.5,0.7,1.5,1.7v2.7h-0.8v-2.6
					c0-0.6-0.3-1.1-1-1.1c-0.7,0-1,0.5-1,1.2V141z"/>
				<path class="st2" d="M32.4,141c0.1,0.6,0.5,1.1,1.2,1.1c0.9,0,1.3-0.5,1.3-1.4v-0.6c-0.2,0.4-0.7,0.7-1.3,0.7
					c-1.2,0-2-0.9-2-2.1c0-1.2,0.8-2.1,2-2.1c0.7,0,1.1,0.3,1.3,0.7v-0.6h0.8v4c0,1.1-0.5,2.2-2.2,2.2c-1.1,0-1.9-0.7-2-1.6
					L32.4,141z M34.9,138.7c0-0.8-0.5-1.4-1.2-1.4c-0.7,0-1.3,0.5-1.3,1.4c0,0.8,0.5,1.4,1.3,1.4C34.4,140.1,34.9,139.5,34.9,138.7z
					"/>
				<path class="st2" d="M42.6,136.3c-0.1-0.5-0.5-1.1-1.4-1.1c-0.7,0-1.2,0.5-1.2,1.1c0,0.5,0.3,0.8,0.8,0.9l1,0.2
					c1.1,0.2,1.7,0.9,1.7,1.8c0,1-0.8,1.9-2.2,1.9c-1.5,0-2.3-1-2.4-1.9l0.8-0.3c0.1,0.7,0.6,1.4,1.5,1.4c0.9,0,1.3-0.5,1.3-1
					c0-0.5-0.3-0.9-1-1l-0.9-0.2c-0.9-0.2-1.6-0.8-1.6-1.7c0-1,0.9-1.9,2.1-1.9c1.4,0,2,0.9,2.2,1.6L42.6,136.3z"/>
				<path class="st2" d="M45.6,136.7h0.9v0.8h-0.9v2.3c0,0.4,0.2,0.6,0.6,0.6c0.1,0,0.3,0,0.3,0v0.7c-0.1,0-0.3,0.1-0.6,0.1
					c-0.7,0-1.2-0.5-1.2-1.2v-2.4h-0.8v-0.8h0.2c0.5,0,0.7-0.3,0.7-0.7v-0.7h0.8V136.7z"/>
				<path class="st2" d="M51.6,138.8c0,1.3-0.9,2.3-2.2,2.3s-2.2-1-2.2-2.3c0-1.3,0.9-2.3,2.2-2.3S51.6,137.5,51.6,138.8z
					 M50.8,138.8c0-1-0.6-1.5-1.4-1.5s-1.4,0.5-1.4,1.5c0,1,0.6,1.5,1.4,1.5S50.8,139.8,50.8,138.8z"/>
				<path class="st2" d="M53.5,141h-0.8v-4.3h0.8v0.6c0.3-0.5,0.8-0.7,1.3-0.7c1,0,1.5,0.7,1.5,1.7v2.7h-0.8v-2.6
					c0-0.6-0.3-1.1-1-1.1c-0.7,0-1,0.5-1,1.2V141z"/>
				<path class="st2" d="M61.5,139.8c-0.2,0.8-0.9,1.4-1.9,1.4c-1.2,0-2.2-0.8-2.2-2.3c0-1.4,1-2.3,2.1-2.3c1.3,0,2.1,0.9,2.1,2.3
					c0,0.1,0,0.2,0,0.3h-3.3c0,0.8,0.6,1.3,1.3,1.3c0.7,0,1.1-0.4,1.2-0.9L61.5,139.8z M60.6,138.4c0-0.6-0.4-1.1-1.2-1.1
					c-0.7,0-1.1,0.5-1.2,1.1H60.6z"/>
				<path class="st2" d="M64.7,141v-4.3h0.8v0.6c0.3-0.5,0.8-0.7,1.3-0.7c0.5,0,1.1,0.3,1.3,0.8c0.3-0.6,0.9-0.8,1.4-0.8
					c0.8,0,1.5,0.5,1.5,1.6v2.8h-0.8v-2.7c0-0.6-0.3-1-0.9-1c-0.6,0-1,0.5-1,1.1v2.6h-0.8v-2.7c0-0.6-0.3-1-0.9-1
					c-0.6,0-1,0.5-1,1.1v2.6H64.7z"/>
				<path class="st2" d="M73.4,138.5l1.2-0.2c0.3,0,0.3-0.2,0.3-0.3c0-0.4-0.3-0.8-0.9-0.8c-0.6,0-0.9,0.4-1,0.9l-0.8-0.2
					c0.1-0.8,0.8-1.4,1.8-1.4c1.3,0,1.8,0.7,1.8,1.6v2.2c0,0.4,0,0.6,0.1,0.7H75c0-0.1,0-0.3,0-0.6c-0.2,0.3-0.6,0.7-1.4,0.7
					c-0.9,0-1.4-0.6-1.4-1.3C72.1,139.1,72.7,138.6,73.4,138.5z M74.9,139.1v-0.2l-1.3,0.2c-0.4,0.1-0.6,0.3-0.6,0.6
					c0,0.3,0.3,0.6,0.7,0.6C74.4,140.4,74.9,140.1,74.9,139.1z"/>
				<path class="st2" d="M77.6,141c0.1,0.6,0.5,1.1,1.2,1.1c0.9,0,1.3-0.5,1.3-1.4v-0.6c-0.2,0.4-0.7,0.7-1.3,0.7
					c-1.2,0-2-0.9-2-2.1c0-1.2,0.8-2.1,2-2.1c0.7,0,1.1,0.3,1.3,0.7v-0.6h0.8v4c0,1.1-0.5,2.2-2.2,2.2c-1.1,0-1.9-0.7-2-1.6
					L77.6,141z M80.1,138.7c0-0.8-0.5-1.4-1.2-1.4c-0.7,0-1.3,0.5-1.3,1.4c0,0.8,0.5,1.4,1.3,1.4C79.6,140.1,80.1,139.5,80.1,138.7z
					"/>
				<path class="st2" d="M83.2,138.5l1.2-0.2c0.3,0,0.3-0.2,0.3-0.3c0-0.4-0.3-0.8-0.9-0.8c-0.6,0-0.9,0.4-1,0.9l-0.8-0.2
					c0.1-0.8,0.8-1.4,1.8-1.4c1.3,0,1.8,0.7,1.8,1.6v2.2c0,0.4,0,0.6,0.1,0.7h-0.8c0-0.1,0-0.3,0-0.6c-0.2,0.3-0.6,0.7-1.4,0.7
					c-0.9,0-1.4-0.6-1.4-1.3C81.9,139.1,82.5,138.6,83.2,138.5z M84.7,139.1v-0.2l-1.3,0.2c-0.4,0.1-0.6,0.3-0.6,0.6
					c0,0.3,0.3,0.6,0.7,0.6C84.2,140.4,84.7,140.1,84.7,139.1z"/>
				<path class="st2" d="M86.5,141v-0.7l2.4-2.8h-2.3v-0.8h3.4v0.7l-2.4,2.8h2.4v0.8H86.5z"/>
				<path class="st2" d="M91.4,134.4c0.3,0,0.6,0.3,0.6,0.6c0,0.3-0.3,0.6-0.6,0.6c-0.3,0-0.6-0.3-0.6-0.6
					C90.8,134.7,91.1,134.4,91.4,134.4z M91,141v-4.3h0.8v4.3H91z"/>
				<path class="st2" d="M94,141h-0.8v-4.3H94v0.6c0.3-0.5,0.8-0.7,1.3-0.7c1,0,1.5,0.7,1.5,1.7v2.7h-0.8v-2.6c0-0.6-0.3-1.1-1-1.1
					c-0.7,0-1,0.5-1,1.2V141z"/>
				<path class="st2" d="M102,139.8c-0.2,0.8-0.9,1.4-1.9,1.4c-1.2,0-2.2-0.8-2.2-2.3c0-1.4,1-2.3,2.1-2.3c1.3,0,2.1,0.9,2.1,2.3
					c0,0.1,0,0.2,0,0.3h-3.3c0,0.8,0.6,1.3,1.3,1.3c0.7,0,1.1-0.4,1.2-0.9L102,139.8z M101.1,138.4c0-0.6-0.4-1.1-1.2-1.1
					c-0.7,0-1.1,0.5-1.2,1.1H101.1z"/>
				<path class="st2" d="M103.5,139.8c0.4,0,0.7,0.3,0.7,0.9c0,1.2-0.8,1.7-1.3,1.8V142c0.4-0.1,0.7-0.5,0.7-1c0,0-0.1,0-0.2,0
					c-0.3,0-0.6-0.2-0.6-0.6C102.8,140.1,103.1,139.8,103.5,139.8z"/>
				<path class="st2" d="M108.8,138.5l1.2-0.2c0.3,0,0.3-0.2,0.3-0.3c0-0.4-0.3-0.8-0.9-0.8c-0.6,0-0.9,0.4-1,0.9l-0.8-0.2
					c0.1-0.8,0.8-1.4,1.8-1.4c1.3,0,1.8,0.7,1.8,1.6v2.2c0,0.4,0,0.6,0.1,0.7h-0.8c0-0.1,0-0.3,0-0.6c-0.2,0.3-0.6,0.7-1.4,0.7
					c-0.9,0-1.4-0.6-1.4-1.3C107.5,139.1,108,138.6,108.8,138.5z M110.3,139.1v-0.2l-1.3,0.2c-0.4,0.1-0.6,0.3-0.6,0.6
					c0,0.3,0.3,0.6,0.7,0.6C109.7,140.4,110.3,140.1,110.3,139.1z"/>
				<path class="st2" d="M114.6,142.7v-6h0.8v0.7c0.2-0.4,0.7-0.8,1.4-0.8c1.3,0,2,1,2,2.3c0,1.3-0.7,2.3-2,2.3
					c-0.7,0-1.2-0.3-1.4-0.7v2.3H114.6z M116.7,137.3c-0.8,0-1.3,0.6-1.3,1.5c0,0.9,0.5,1.5,1.3,1.5c0.8,0,1.3-0.6,1.3-1.5
					C118,138,117.5,137.3,116.7,137.3z"/>
				<path class="st2" d="M123.9,138.8c0,1.3-0.9,2.3-2.2,2.3s-2.2-1-2.2-2.3c0-1.3,0.9-2.3,2.2-2.3S123.9,137.5,123.9,138.8z
					 M123.1,138.8c0-1-0.6-1.5-1.4-1.5s-1.4,0.5-1.4,1.5c0,1,0.6,1.5,1.4,1.5S123.1,139.8,123.1,138.8z"/>
				<path class="st2" d="M125.3,139.6c0.1,0.5,0.4,0.8,1,0.8c0.5,0,0.7-0.3,0.7-0.6c0-0.3-0.2-0.5-0.6-0.6l-0.7-0.2
					c-0.7-0.1-1.1-0.6-1.1-1.2c0-0.7,0.7-1.4,1.5-1.4c1.2,0,1.6,0.8,1.6,1.2l-0.7,0.3c0-0.2-0.2-0.7-0.9-0.7c-0.4,0-0.7,0.3-0.7,0.6
					c0,0.3,0.2,0.5,0.5,0.5l0.7,0.2c0.8,0.2,1.2,0.6,1.2,1.3c0,0.6-0.5,1.3-1.6,1.3c-1.2,0-1.7-0.8-1.8-1.3L125.3,139.6z"/>
				<path class="st2" d="M129.4,134.4c0.3,0,0.6,0.3,0.6,0.6c0,0.3-0.3,0.6-0.6,0.6c-0.3,0-0.6-0.3-0.6-0.6
					C128.8,134.7,129.1,134.4,129.4,134.4z M129,141v-4.3h0.8v4.3H129z"/>
				<path class="st2" d="M132.4,136.7h0.9v0.8h-0.9v2.3c0,0.4,0.2,0.6,0.6,0.6c0.1,0,0.3,0,0.3,0v0.7c-0.1,0-0.3,0.1-0.6,0.1
					c-0.7,0-1.2-0.5-1.2-1.2v-2.4h-0.8v-0.8h0.2c0.5,0,0.7-0.3,0.7-0.7v-0.7h0.8V136.7z"/>
				<path class="st2" d="M134.8,134.4c0.3,0,0.6,0.3,0.6,0.6c0,0.3-0.3,0.6-0.6,0.6c-0.3,0-0.6-0.3-0.6-0.6
					C134.2,134.7,134.5,134.4,134.8,134.4z M134.4,141v-4.3h0.8v4.3H134.4z"/>
				<path class="st2" d="M140.7,138.8c0,1.3-0.9,2.3-2.2,2.3c-1.3,0-2.2-1-2.2-2.3c0-1.3,0.9-2.3,2.2-2.3
					C139.8,136.5,140.7,137.5,140.7,138.8z M139.8,138.8c0-1-0.6-1.5-1.4-1.5c-0.7,0-1.3,0.5-1.3,1.5c0,1,0.6,1.5,1.3,1.5
					C139.2,140.4,139.8,139.8,139.8,138.8z"/>
				<path class="st2" d="M142.6,141h-0.8v-4.3h0.8v0.6c0.3-0.5,0.8-0.7,1.3-0.7c1,0,1.5,0.7,1.5,1.7v2.7h-0.8v-2.6
					c0-0.6-0.3-1.1-1-1.1c-0.7,0-1,0.5-1,1.2V141z"/>
				<path class="st2" d="M150.1,136.7h0.9v0.8h-0.9v2.3c0,0.4,0.2,0.6,0.6,0.6c0.1,0,0.3,0,0.3,0v0.7c-0.1,0-0.3,0.1-0.6,0.1
					c-0.7,0-1.2-0.5-1.2-1.2v-2.4h-0.8v-0.8h0.2c0.5,0,0.7-0.3,0.7-0.7v-0.7h0.8V136.7z"/>
				<path class="st2" d="M152.9,141h-0.8v-6.5h0.8v2.7c0.3-0.5,0.8-0.6,1.3-0.6c1,0,1.5,0.7,1.5,1.7v2.7H155v-2.6
					c0-0.6-0.3-1.1-1-1.1c-0.6,0-1,0.5-1,1.1V141z"/>
				<path class="st2" d="M158.1,138.5l1.2-0.2c0.3,0,0.3-0.2,0.3-0.3c0-0.4-0.3-0.8-0.9-0.8c-0.6,0-0.9,0.4-1,0.9l-0.8-0.2
					c0.1-0.8,0.8-1.4,1.8-1.4c1.3,0,1.8,0.7,1.8,1.6v2.2c0,0.4,0,0.6,0.1,0.7h-0.8c0-0.1,0-0.3,0-0.6c-0.2,0.3-0.6,0.7-1.4,0.7
					c-0.9,0-1.4-0.6-1.4-1.3C156.8,139.1,157.4,138.6,158.1,138.5z M159.7,139.1v-0.2l-1.3,0.2c-0.4,0.1-0.6,0.3-0.6,0.6
					c0,0.3,0.3,0.6,0.7,0.6C159.1,140.4,159.7,140.1,159.7,139.1z"/>
				<path class="st2" d="M162.9,136.7h0.9v0.8h-0.9v2.3c0,0.4,0.2,0.6,0.6,0.6c0.1,0,0.3,0,0.3,0v0.7c-0.1,0-0.3,0.1-0.6,0.1
					c-0.7,0-1.2-0.5-1.2-1.2v-2.4h-0.8v-0.8h0.2c0.5,0,0.7-0.3,0.7-0.7v-0.7h0.8V136.7z"/>
				<path class="st2" d="M167.5,139.6c0.1,0.5,0.4,0.8,1,0.8c0.5,0,0.7-0.3,0.7-0.6c0-0.3-0.2-0.5-0.6-0.6l-0.7-0.2
					c-0.7-0.1-1.1-0.6-1.1-1.2c0-0.7,0.7-1.4,1.5-1.4c1.2,0,1.6,0.8,1.6,1.2l-0.7,0.3c0-0.2-0.2-0.7-0.9-0.7c-0.4,0-0.7,0.3-0.7,0.6
					c0,0.3,0.2,0.5,0.5,0.5l0.7,0.2c0.8,0.2,1.2,0.6,1.2,1.3c0,0.6-0.5,1.3-1.6,1.3c-1.2,0-1.7-0.8-1.8-1.3L167.5,139.6z"/>
				<path class="st2" d="M172,141h-0.8v-6.5h0.8v2.7c0.3-0.5,0.8-0.6,1.3-0.6c1,0,1.5,0.7,1.5,1.7v2.7H174v-2.6c0-0.6-0.3-1.1-1-1.1
					c-0.6,0-1,0.5-1,1.1V141z"/>
				<path class="st2" d="M179.9,139.8c-0.2,0.8-0.9,1.4-1.9,1.4c-1.2,0-2.2-0.8-2.2-2.3c0-1.4,1-2.3,2.1-2.3c1.3,0,2.1,0.9,2.1,2.3
					c0,0.1,0,0.2,0,0.3h-3.3c0,0.8,0.6,1.3,1.3,1.3c0.7,0,1.1-0.4,1.2-0.9L179.9,139.8z M179.1,138.4c0-0.6-0.4-1.1-1.2-1.1
					c-0.7,0-1.1,0.5-1.2,1.1H179.1z"/>
			</g>
			<g class="st1">
				<path class="st2" d="M10.6,152H9.7v-6.5h0.8v2.7c0.3-0.5,0.8-0.6,1.3-0.6c1,0,1.5,0.7,1.5,1.7v2.7h-0.8v-2.6
					c0-0.6-0.3-1.1-1-1.1c-0.6,0-1,0.5-1,1.1V152z"/>
				<path class="st2" d="M18.5,150.8c-0.2,0.8-0.9,1.4-1.9,1.4c-1.2,0-2.2-0.8-2.2-2.3c0-1.4,1-2.3,2.1-2.3c1.3,0,2.1,0.9,2.1,2.3
					c0,0.1,0,0.2,0,0.3h-3.3c0,0.8,0.6,1.3,1.3,1.3c0.7,0,1.1-0.4,1.2-0.9L18.5,150.8z M17.7,149.4c0-0.6-0.4-1.1-1.2-1.1
					c-0.7,0-1.1,0.5-1.2,1.1H17.7z"/>
				<path class="st2" d="M19.6,152v-6.5h0.8v6.5H19.6z"/>
				<path class="st2" d="M24.8,151.3c-0.2,0.4-0.7,0.8-1.3,0.8c-1.3,0-2.1-1-2.1-2.3c0-1.2,0.8-2.3,2.1-2.3c0.8,0,1.2,0.4,1.3,0.7
					v-2.8h0.8v5.7c0,0.4,0,0.7,0,0.8h-0.8C24.9,151.9,24.8,151.7,24.8,151.3L24.8,151.3z M23.6,151.4c0.8,0,1.3-0.7,1.3-1.6
					c0-0.9-0.5-1.5-1.2-1.5c-0.8,0-1.3,0.6-1.3,1.5S22.8,151.4,23.6,151.4z"/>
				<path class="st2" d="M30.4,148.4v3.6h-0.9v-3.6h-0.8v-0.8h0.8v-0.7c0-1,0.6-1.5,1.4-1.5c0.3,0,0.5,0.1,0.5,0.1v0.8
					c0,0-0.2-0.1-0.4-0.1c-0.3,0-0.7,0.1-0.7,0.7v0.7h1v0.8H30.4z"/>
				<path class="st2" d="M36.2,149.8c0,1.3-0.9,2.3-2.2,2.3s-2.2-1-2.2-2.3c0-1.3,0.9-2.3,2.2-2.3S36.2,148.5,36.2,149.8z
					 M35.3,149.8c0-1-0.6-1.5-1.4-1.5s-1.4,0.5-1.4,1.5c0,1,0.6,1.5,1.4,1.5S35.3,150.8,35.3,149.8z"/>
				<path class="st2" d="M39.6,148.5c-0.1,0-0.3,0-0.4,0c-0.7,0-1.2,0.4-1.2,1.3v2.2h-0.8v-4.3h0.8v0.8c0.3-0.7,0.9-0.8,1.3-0.8
					c0.1,0,0.2,0,0.3,0V148.5z"/>
				<path class="st2" d="M43.6,152v-4.1h-1.4v-0.6c0.8,0,1.4-0.5,1.5-1.1h0.8v5.8H43.6z"/>
				<path class="st2" d="M46.1,147c0.4-0.6,1-0.9,1.8-0.9c0.8,0,1.4,0.4,1.8,0.9c0.4,0.6,0.5,1.3,0.5,2.1c0,0.8-0.1,1.5-0.5,2.1
					c-0.4,0.6-1,0.9-1.8,0.9c-0.8,0-1.4-0.4-1.8-0.9c-0.4-0.6-0.5-1.3-0.5-2.1C45.6,148.3,45.7,147.5,46.1,147z M47,151
					c0.2,0.2,0.5,0.4,0.9,0.4s0.7-0.1,0.9-0.4c0.4-0.4,0.5-1,0.5-1.9s-0.2-1.5-0.5-1.9c-0.2-0.2-0.5-0.4-0.9-0.4s-0.7,0.1-0.9,0.4
					c-0.4,0.4-0.5,1-0.5,1.9S46.6,150.6,47,151z"/>
				<path class="st2" d="M53.7,153.8l1.1-2.3l-1.9-3.9h1l1.4,3l1.3-3h0.9l-2.8,6.1H53.7z"/>
				<path class="st2" d="M61.8,150.8c-0.2,0.8-0.9,1.4-1.9,1.4c-1.2,0-2.2-0.8-2.2-2.3c0-1.4,1-2.3,2.1-2.3c1.3,0,2.1,0.9,2.1,2.3
					c0,0.1,0,0.2,0,0.3h-3.3c0,0.8,0.6,1.3,1.3,1.3c0.7,0,1.1-0.4,1.2-0.9L61.8,150.8z M60.9,149.4c0-0.6-0.4-1.1-1.2-1.1
					c-0.7,0-1.1,0.5-1.2,1.1H60.9z"/>
				<path class="st2" d="M63.9,149.5l1.2-0.2c0.3,0,0.3-0.2,0.3-0.3c0-0.4-0.3-0.8-0.9-0.8c-0.6,0-0.9,0.4-1,0.9l-0.8-0.2
					c0.1-0.8,0.8-1.4,1.8-1.4c1.3,0,1.8,0.7,1.8,1.6v2.2c0,0.4,0,0.6,0.1,0.7h-0.8c0-0.1,0-0.3,0-0.6c-0.2,0.3-0.6,0.7-1.4,0.7
					c-0.9,0-1.4-0.6-1.4-1.3C62.6,150.1,63.2,149.6,63.9,149.5z M65.4,150.1v-0.2l-1.3,0.2c-0.4,0.1-0.6,0.3-0.6,0.6
					c0,0.3,0.3,0.6,0.7,0.6C64.9,151.4,65.4,151.1,65.4,150.1z"/>
				<path class="st2" d="M69.9,148.5c-0.1,0-0.3,0-0.4,0c-0.7,0-1.2,0.4-1.2,1.3v2.2h-0.8v-4.3h0.8v0.8c0.3-0.7,0.9-0.8,1.3-0.8
					c0.1,0,0.2,0,0.3,0V148.5z"/>
				<path class="st2" d="M71.1,150.6c0.1,0.5,0.4,0.8,1,0.8c0.5,0,0.7-0.3,0.7-0.6c0-0.3-0.2-0.5-0.6-0.6l-0.7-0.2
					c-0.7-0.1-1.1-0.6-1.1-1.2c0-0.7,0.7-1.4,1.5-1.4c1.2,0,1.6,0.8,1.6,1.2L73,149c0-0.2-0.2-0.7-0.9-0.7c-0.4,0-0.7,0.3-0.7,0.6
					c0,0.3,0.2,0.5,0.5,0.5l0.7,0.2c0.8,0.2,1.2,0.6,1.2,1.3c0,0.6-0.5,1.3-1.6,1.3c-1.2,0-1.7-0.8-1.8-1.3L71.1,150.6z"/>
				<path class="st2" d="M75.3,150.8c0.4,0,0.6,0.3,0.6,0.6s-0.3,0.6-0.6,0.6s-0.6-0.3-0.6-0.6S75,150.8,75.3,150.8z"/>
				<path class="st2" d="M83.7,152v-2.8h-3.3v2.8h-0.9v-6.4h0.9v2.7h3.3v-2.7h0.9v6.4H83.7z"/>
				<path class="st2" d="M89.8,150.8c-0.2,0.8-0.9,1.4-1.9,1.4c-1.2,0-2.2-0.8-2.2-2.3c0-1.4,1-2.3,2.1-2.3c1.3,0,2.1,0.9,2.1,2.3
					c0,0.1,0,0.2,0,0.3h-3.3c0,0.8,0.6,1.3,1.3,1.3c0.7,0,1.1-0.4,1.2-0.9L89.8,150.8z M89,149.4c0-0.6-0.4-1.1-1.2-1.1
					c-0.7,0-1.1,0.5-1.2,1.1H89z"/>
				<path class="st2" d="M93.3,148.5c-0.1,0-0.3,0-0.4,0c-0.7,0-1.2,0.4-1.2,1.3v2.2h-0.8v-4.3h0.8v0.8c0.3-0.7,0.9-0.8,1.3-0.8
					c0.1,0,0.2,0,0.3,0V148.5z"/>
				<path class="st2" d="M96.4,153.7v-6h0.8v0.7c0.2-0.4,0.7-0.8,1.4-0.8c1.3,0,2,1,2,2.3c0,1.3-0.7,2.3-2,2.3
					c-0.7,0-1.2-0.3-1.4-0.7v2.3H96.4z M98.5,148.3c-0.8,0-1.3,0.6-1.3,1.5c0,0.9,0.5,1.5,1.3,1.5c0.8,0,1.3-0.6,1.3-1.5
					C99.8,149,99.3,148.3,98.5,148.3z"/>
				<path class="st2" d="M105.7,149.8c0,1.3-0.9,2.3-2.2,2.3s-2.2-1-2.2-2.3c0-1.3,0.9-2.3,2.2-2.3S105.7,148.5,105.7,149.8z
					 M104.9,149.8c0-1-0.6-1.5-1.4-1.5s-1.4,0.5-1.4,1.5c0,1,0.6,1.5,1.4,1.5S104.9,150.8,104.9,149.8z"/>
				<path class="st2" d="M109.2,148.5c-0.1,0-0.3,0-0.4,0c-0.7,0-1.2,0.4-1.2,1.3v2.2h-0.8v-4.3h0.8v0.8c0.3-0.7,0.9-0.8,1.3-0.8
					c0.1,0,0.2,0,0.3,0V148.5z"/>
				<path class="st2" d="M111.4,147.7h0.9v0.8h-0.9v2.3c0,0.4,0.2,0.6,0.6,0.6c0.1,0,0.3,0,0.3,0v0.7c-0.1,0-0.3,0.1-0.6,0.1
					c-0.7,0-1.2-0.5-1.2-1.2v-2.4h-0.8v-0.8h0.2c0.5,0,0.7-0.3,0.7-0.7v-0.7h0.8V147.7z"/>
				<path class="st2" d="M115.7,148.5c-0.1,0-0.3,0-0.4,0c-0.7,0-1.2,0.4-1.2,1.3v2.2h-0.8v-4.3h0.8v0.8c0.3-0.7,0.9-0.8,1.3-0.8
					c0.1,0,0.2,0,0.3,0V148.5z"/>
				<path class="st2" d="M117.6,149.5l1.2-0.2c0.3,0,0.3-0.2,0.3-0.3c0-0.4-0.3-0.8-0.9-0.8c-0.6,0-0.9,0.4-1,0.9l-0.8-0.2
					c0.1-0.8,0.8-1.4,1.8-1.4c1.3,0,1.8,0.7,1.8,1.6v2.2c0,0.4,0,0.6,0.1,0.7h-0.8c0-0.1,0-0.3,0-0.6c-0.2,0.3-0.6,0.7-1.4,0.7
					c-0.9,0-1.4-0.6-1.4-1.3C116.3,150.1,116.9,149.6,117.6,149.5z M119.1,150.1v-0.2l-1.3,0.2c-0.4,0.1-0.6,0.3-0.6,0.6
					c0,0.3,0.3,0.6,0.7,0.6C118.6,151.4,119.1,151.1,119.1,150.1z"/>
				<path class="st2" d="M121.6,145.4c0.3,0,0.6,0.3,0.6,0.6c0,0.3-0.3,0.6-0.6,0.6c-0.3,0-0.6-0.3-0.6-0.6
					C121,145.7,121.3,145.4,121.6,145.4z M121.2,152v-4.3h0.8v4.3H121.2z"/>
				<path class="st2" d="M124.6,147.7h0.9v0.8h-0.9v2.3c0,0.4,0.2,0.6,0.6,0.6c0.1,0,0.3,0,0.3,0v0.7c-0.1,0-0.3,0.1-0.6,0.1
					c-0.7,0-1.2-0.5-1.2-1.2v-2.4h-0.8v-0.8h0.2c0.5,0,0.7-0.3,0.7-0.7v-0.7h0.8V147.7z"/>
				<path class="st2" d="M127,150.6c0.1,0.5,0.4,0.8,1,0.8c0.5,0,0.7-0.3,0.7-0.6c0-0.3-0.2-0.5-0.6-0.6l-0.7-0.2
					c-0.7-0.1-1.1-0.6-1.1-1.2c0-0.7,0.7-1.4,1.5-1.4c1.2,0,1.6,0.8,1.6,1.2l-0.7,0.3c0-0.2-0.2-0.7-0.9-0.7c-0.4,0-0.7,0.3-0.7,0.6
					c0,0.3,0.2,0.5,0.5,0.5l0.7,0.2c0.8,0.2,1.2,0.6,1.2,1.3c0,0.6-0.5,1.3-1.6,1.3c-1.2,0-1.7-0.8-1.8-1.3L127,150.6z"/>
				<path class="st2" d="M137,149.8c0,1.3-0.9,2.3-2.2,2.3c-1.3,0-2.2-1-2.2-2.3c0-1.3,0.9-2.3,2.2-2.3
					C136,147.5,137,148.5,137,149.8z M136.1,149.8c0-1-0.6-1.5-1.3-1.5c-0.7,0-1.4,0.5-1.4,1.5c0,1,0.6,1.5,1.4,1.5
					C135.5,151.4,136.1,150.8,136.1,149.8z"/>
				<path class="st2" d="M139.1,148.4v3.6h-0.9v-3.6h-0.8v-0.8h0.8v-0.7c0-1,0.6-1.5,1.4-1.5c0.3,0,0.5,0.1,0.5,0.1v0.8
					c0,0-0.2-0.1-0.4-0.1c-0.3,0-0.7,0.1-0.7,0.7v0.7h1v0.8H139.1z"/>
				<path class="st2" d="M144.4,147.7h0.9v0.8h-0.9v2.3c0,0.4,0.2,0.6,0.6,0.6c0.1,0,0.3,0,0.3,0v0.7c-0.1,0-0.3,0.1-0.6,0.1
					c-0.7,0-1.2-0.5-1.2-1.2v-2.4h-0.8v-0.8h0.2c0.5,0,0.7-0.3,0.7-0.7v-0.7h0.8V147.7z"/>
				<path class="st2" d="M147.2,152h-0.8v-6.5h0.8v2.7c0.3-0.5,0.8-0.6,1.3-0.6c1,0,1.5,0.7,1.5,1.7v2.7h-0.8v-2.6
					c0-0.6-0.3-1.1-1-1.1c-0.6,0-1,0.5-1,1.1V152z"/>
				<path class="st2" d="M155.2,150.8c-0.2,0.8-0.9,1.4-1.9,1.4c-1.2,0-2.2-0.8-2.2-2.3c0-1.4,1-2.3,2.1-2.3c1.3,0,2.1,0.9,2.1,2.3
					c0,0.1,0,0.2,0,0.3h-3.3c0,0.8,0.6,1.3,1.3,1.3c0.7,0,1.1-0.4,1.2-0.9L155.2,150.8z M154.3,149.4c0-0.6-0.4-1.1-1.2-1.1
					c-0.7,0-1.1,0.5-1.2,1.1H154.3z"/>
			</g>
			<g class="st1">
				<path class="st2" d="M12.1,159.5c-0.1,0-0.3,0-0.4,0c-0.7,0-1.2,0.4-1.2,1.3v2.2H9.7v-4.3h0.8v0.8c0.3-0.7,0.9-0.8,1.3-0.8
					c0.1,0,0.2,0,0.3,0V159.5z"/>
				<path class="st2" d="M13.4,156.4c0.3,0,0.6,0.3,0.6,0.6c0,0.3-0.3,0.6-0.6,0.6c-0.3,0-0.6-0.3-0.6-0.6
					C12.8,156.7,13.1,156.4,13.4,156.4z M13,163v-4.3h0.8v4.3H13z"/>
				<path class="st2" d="M15.7,160.8c0,1,0.6,1.5,1.3,1.5c0.8,0,1.1-0.5,1.2-0.9l0.7,0.3c-0.2,0.6-0.8,1.4-2,1.4
					c-1.3,0-2.2-1-2.2-2.3c0-1.4,0.9-2.3,2.2-2.3c1.2,0,1.7,0.7,1.9,1.4l-0.8,0.3c-0.1-0.4-0.4-0.9-1.2-0.9
					C16.3,159.3,15.7,159.8,15.7,160.8z"/>
				<path class="st2" d="M20.8,163h-0.8v-6.5h0.8v2.7c0.3-0.5,0.8-0.6,1.3-0.6c1,0,1.5,0.7,1.5,1.7v2.7h-0.8v-2.6
					c0-0.6-0.3-1.1-1-1.1c-0.6,0-1,0.5-1,1.1V163z"/>
				<path class="st2" d="M28.2,160.5l1.2-0.2c0.3,0,0.3-0.2,0.3-0.3c0-0.4-0.3-0.8-0.9-0.8c-0.6,0-0.9,0.4-1,0.9l-0.8-0.2
					c0.1-0.8,0.8-1.4,1.8-1.4c1.3,0,1.8,0.7,1.8,1.6v2.2c0,0.4,0,0.6,0.1,0.7h-0.8c0-0.1,0-0.3,0-0.6c-0.2,0.3-0.6,0.7-1.4,0.7
					c-0.9,0-1.4-0.6-1.4-1.3C26.9,161.1,27.4,160.6,28.2,160.5z M29.7,161.1v-0.2l-1.3,0.2c-0.4,0.1-0.6,0.3-0.6,0.6
					c0,0.3,0.3,0.6,0.7,0.6C29.1,162.4,29.7,162.1,29.7,161.1z"/>
				<path class="st2" d="M32.7,163h-0.8v-4.3h0.8v0.6c0.3-0.5,0.8-0.7,1.3-0.7c1,0,1.5,0.7,1.5,1.7v2.7h-0.8v-2.6
					c0-0.6-0.3-1.1-1-1.1c-0.7,0-1,0.5-1,1.2V163z"/>
				<path class="st2" d="M39.9,162.3c-0.2,0.4-0.7,0.8-1.3,0.8c-1.3,0-2.1-1-2.1-2.3c0-1.2,0.8-2.3,2.1-2.3c0.8,0,1.2,0.4,1.3,0.7
					v-2.8h0.8v5.7c0,0.4,0,0.7,0,0.8h-0.8C39.9,162.9,39.9,162.7,39.9,162.3L39.9,162.3z M38.6,162.4c0.8,0,1.3-0.7,1.3-1.6
					c0-0.9-0.5-1.5-1.2-1.5c-0.8,0-1.3,0.6-1.3,1.5S37.8,162.4,38.6,162.4z"/>
				<path class="st2" d="M45.4,159.4v3.6h-0.9v-3.6h-0.8v-0.8h0.8v-0.7c0-1,0.6-1.5,1.4-1.5c0.3,0,0.5,0.1,0.5,0.1v0.8
					c0,0-0.2-0.1-0.4-0.1c-0.3,0-0.7,0.1-0.7,0.7v0.7h1v0.8H45.4z"/>
				<path class="st2" d="M48.2,160.5l1.2-0.2c0.3,0,0.3-0.2,0.3-0.3c0-0.4-0.3-0.8-0.9-0.8c-0.6,0-0.9,0.4-1,0.9l-0.8-0.2
					c0.1-0.8,0.8-1.4,1.8-1.4c1.3,0,1.8,0.7,1.8,1.6v2.2c0,0.4,0,0.6,0.1,0.7h-0.8c0-0.1,0-0.3,0-0.6c-0.2,0.3-0.6,0.7-1.4,0.7
					c-0.9,0-1.4-0.6-1.4-1.3C46.9,161.1,47.5,160.6,48.2,160.5z M49.7,161.1v-0.2l-1.3,0.2c-0.4,0.1-0.6,0.3-0.6,0.6
					c0,0.3,0.3,0.6,0.7,0.6C49.2,162.4,49.7,162.1,49.7,161.1z"/>
				<path class="st2" d="M51.8,163v-4.3h0.8v0.6c0.3-0.5,0.8-0.7,1.3-0.7c0.5,0,1.1,0.3,1.3,0.8c0.3-0.6,0.9-0.8,1.4-0.8
					c0.8,0,1.5,0.5,1.5,1.6v2.8h-0.8v-2.7c0-0.6-0.3-1-0.9-1c-0.6,0-1,0.5-1,1.1v2.6h-0.8v-2.7c0-0.6-0.3-1-0.9-1
					c-0.6,0-1,0.5-1,1.1v2.6H51.8z"/>
				<path class="st2" d="M63.6,160.8c0,1.3-0.9,2.3-2.2,2.3s-2.2-1-2.2-2.3c0-1.3,0.9-2.3,2.2-2.3S63.6,159.5,63.6,160.8z
					 M62.7,160.8c0-1-0.6-1.5-1.4-1.5s-1.4,0.5-1.4,1.5c0,1,0.6,1.5,1.4,1.5S62.7,161.8,62.7,160.8z"/>
				<path class="st2" d="M66.2,163.1c-1,0-1.6-0.8-1.6-1.7v-2.7h0.8v2.6c0,0.6,0.3,1.1,1,1.1c0.7,0,1-0.5,1-1.1v-2.6h0.8v3.5
					c0,0.3,0,0.6,0,0.8h-0.8c0-0.1,0-0.3,0-0.5C67.2,162.9,66.7,163.1,66.2,163.1z"/>
				<path class="st2" d="M70,161.6c0.1,0.5,0.4,0.8,1,0.8c0.5,0,0.7-0.3,0.7-0.6c0-0.3-0.2-0.5-0.6-0.6l-0.7-0.2
					c-0.7-0.1-1.1-0.6-1.1-1.2c0-0.7,0.7-1.4,1.5-1.4c1.2,0,1.6,0.8,1.6,1.2l-0.7,0.3c0-0.2-0.2-0.7-0.9-0.7c-0.4,0-0.7,0.3-0.7,0.6
					c0,0.3,0.2,0.5,0.5,0.5l0.7,0.2c0.8,0.2,1.2,0.6,1.2,1.3c0,0.6-0.5,1.3-1.6,1.3c-1.2,0-1.7-0.8-1.8-1.3L70,161.6z"/>
				<path class="st2" d="M76.3,156.4c0.3,0,0.6,0.3,0.6,0.6c0,0.3-0.3,0.6-0.6,0.6c-0.3,0-0.6-0.3-0.6-0.6
					C75.7,156.7,75.9,156.4,76.3,156.4z M75.9,163v-4.3h0.8v4.3H75.9z"/>
				<path class="st2" d="M78.9,163h-0.8v-4.3h0.8v0.6c0.3-0.5,0.8-0.7,1.3-0.7c1,0,1.5,0.7,1.5,1.7v2.7h-0.8v-2.6
					c0-0.6-0.3-1.1-1-1.1c-0.7,0-1,0.5-1,1.2V163z"/>
				<path class="st2" d="M83.6,160.8c0,1,0.6,1.5,1.3,1.5c0.8,0,1.1-0.5,1.2-0.9l0.7,0.3c-0.2,0.6-0.8,1.4-2,1.4
					c-1.3,0-2.2-1-2.2-2.3c0-1.4,0.9-2.3,2.2-2.3c1.2,0,1.7,0.7,1.9,1.4l-0.8,0.3c-0.1-0.4-0.4-0.9-1.2-0.9
					C84.2,159.3,83.6,159.8,83.6,160.8z"/>
				<path class="st2" d="M87.8,163v-6.5h0.8v6.5H87.8z"/>
				<path class="st2" d="M91.6,163.1c-1,0-1.6-0.8-1.6-1.7v-2.7h0.8v2.6c0,0.6,0.3,1.1,1,1.1c0.7,0,1-0.5,1-1.1v-2.6h0.8v3.5
					c0,0.3,0,0.6,0,0.8h-0.8c0-0.1,0-0.3,0-0.5C92.6,162.9,92.1,163.1,91.6,163.1z"/>
				<path class="st2" d="M98.1,162.3c-0.2,0.4-0.7,0.8-1.3,0.8c-1.3,0-2.1-1-2.1-2.3c0-1.2,0.8-2.3,2.1-2.3c0.8,0,1.2,0.4,1.3,0.7
					v-2.8h0.8v5.7c0,0.4,0,0.7,0,0.8h-0.8C98.1,162.9,98.1,162.7,98.1,162.3L98.1,162.3z M96.8,162.4c0.8,0,1.3-0.7,1.3-1.6
					c0-0.9-0.5-1.5-1.2-1.5c-0.8,0-1.3,0.6-1.3,1.5S96,162.4,96.8,162.4z"/>
				<path class="st2" d="M104,161.8c-0.2,0.8-0.9,1.4-1.9,1.4c-1.2,0-2.2-0.8-2.2-2.3c0-1.4,1-2.3,2.1-2.3c1.3,0,2.1,0.9,2.1,2.3
					c0,0.1,0,0.2,0,0.3h-3.3c0,0.8,0.6,1.3,1.3,1.3c0.7,0,1.1-0.4,1.2-0.9L104,161.8z M103.2,160.4c0-0.6-0.4-1.1-1.2-1.1
					c-0.7,0-1.1,0.5-1.2,1.1H103.2z"/>
				<path class="st2" d="M109.5,156.6c1.2,0,1.9,0.7,1.9,1.7c0,0.7-0.4,1.2-1,1.4c0.7,0.2,1.2,0.8,1.2,1.5c0,1-0.8,1.7-2,1.7h-2.2
					v-6.4H109.5z M109.4,159.4c0.7,0,1.1-0.4,1.1-1c0-0.6-0.4-1-1.2-1h-1.1v2H109.4z M109.5,162.2c0.7,0,1.2-0.4,1.2-1
					c0-0.6-0.4-1-1.2-1h-1.3v2.1H109.5z"/>
				<path class="st2" d="M116.8,160.8c0,1.3-0.9,2.3-2.2,2.3c-1.3,0-2.2-1-2.2-2.3c0-1.3,0.9-2.3,2.2-2.3
					C115.9,158.5,116.8,159.5,116.8,160.8z M115.9,160.8c0-1-0.6-1.5-1.4-1.5c-0.7,0-1.3,0.5-1.3,1.5c0,1,0.6,1.5,1.3,1.5
					C115.3,162.4,115.9,161.8,115.9,160.8z"/>
				<path class="st2" d="M117.8,163v-6.5h0.8v2.8c0.2-0.4,0.7-0.7,1.4-0.7c1.3,0,2,1,2,2.3c0,1.3-0.7,2.3-2,2.3
					c-0.6,0-1.1-0.3-1.4-0.7v0.6H117.8z M119.9,159.3c-0.7,0-1.3,0.6-1.3,1.5s0.5,1.5,1.3,1.5c0.8,0,1.3-0.6,1.3-1.5
					S120.7,159.3,119.9,159.3z"/>
				<path class="st2" d="M125.4,163v-6.4h2.2c1.6,0,3,1.1,3,3.2c0,2.1-1.4,3.2-3.1,3.2H125.4z M127.6,162.2c1.2,0,2.2-0.8,2.2-2.4
					c0-1.6-1-2.4-2.2-2.4h-1.3v4.8H127.6z"/>
				<path class="st2" d="M131.9,164.8l1.1-2.3l-1.9-3.9h1l1.3,3l1.3-3h0.9l-2.8,6.1H131.9z"/>
				<path class="st2" d="M136.4,163v-6.5h0.8v6.5H136.4z"/>
				<path class="st2" d="M139.7,160.5l1.2-0.2c0.3,0,0.3-0.2,0.3-0.3c0-0.4-0.3-0.8-0.9-0.8c-0.6,0-0.9,0.4-1,0.9l-0.8-0.2
					c0.1-0.8,0.8-1.4,1.8-1.4c1.3,0,1.8,0.7,1.8,1.6v2.2c0,0.4,0,0.6,0.1,0.7h-0.8c0-0.1,0-0.3,0-0.6c-0.2,0.3-0.6,0.7-1.4,0.7
					c-0.9,0-1.4-0.6-1.4-1.3C138.4,161.1,139,160.6,139.7,160.5z M141.2,161.1v-0.2l-1.3,0.2c-0.4,0.1-0.6,0.3-0.6,0.6
					c0,0.3,0.3,0.6,0.7,0.6C140.7,162.4,141.2,162.1,141.2,161.1z"/>
				<path class="st2" d="M144.2,163h-0.8v-4.3h0.8v0.6c0.3-0.5,0.8-0.7,1.3-0.7c1,0,1.5,0.7,1.5,1.7v2.7h-0.8v-2.6
					c0-0.6-0.3-1.1-1-1.1c-0.7,0-1,0.5-1,1.2V163z"/>
				<path class="st2" d="M148.9,161.8c0.4,0,0.7,0.3,0.7,0.9c0,1.2-0.8,1.7-1.3,1.8V164c0.4-0.1,0.7-0.5,0.7-1c0,0-0.1,0-0.2,0
					c-0.3,0-0.6-0.2-0.6-0.6C148.2,162.1,148.5,161.8,148.9,161.8z"/>
				<path class="st2" d="M155.3,156.6c1.2,0,1.9,0.7,1.9,1.7c0,0.7-0.4,1.2-1,1.4c0.7,0.2,1.2,0.8,1.2,1.5c0,1-0.8,1.7-2,1.7h-2.2
					v-6.4H155.3z M155.2,159.4c0.7,0,1.1-0.4,1.1-1c0-0.6-0.4-1-1.2-1h-1.1v2H155.2z M155.3,162.2c0.7,0,1.2-0.4,1.2-1
					c0-0.6-0.4-1-1.2-1h-1.3v2.1H155.3z"/>
				<path class="st2" d="M162.6,160.8c0,1.3-0.9,2.3-2.2,2.3s-2.2-1-2.2-2.3c0-1.3,0.9-2.3,2.2-2.3S162.6,159.5,162.6,160.8z
					 M161.8,160.8c0-1-0.6-1.5-1.4-1.5s-1.4,0.5-1.4,1.5c0,1,0.6,1.5,1.4,1.5S161.8,161.8,161.8,160.8z"/>
				<path class="st2" d="M163.7,163v-6.5h0.8v2.8c0.2-0.4,0.7-0.7,1.4-0.7c1.3,0,2,1,2,2.3c0,1.3-0.7,2.3-2,2.3
					c-0.6,0-1.1-0.3-1.4-0.7v0.6H163.7z M165.8,159.3c-0.7,0-1.3,0.6-1.3,1.5s0.5,1.5,1.3,1.5c0.8,0,1.3-0.6,1.3-1.5
					S166.6,159.3,165.8,159.3z"/>
			</g>
			<g class="st1">
				<path class="st2" d="M15.8,174v-5l-2.2,5h-0.8l-2.2-5v5H9.8v-6.4H11l2.3,5.2l2.3-5.2h1.2v6.4H15.8z"/>
				<path class="st2" d="M19.2,171.5l1.2-0.2c0.3,0,0.3-0.2,0.3-0.3c0-0.4-0.3-0.8-0.9-0.8c-0.6,0-0.9,0.4-1,0.9l-0.8-0.2
					c0.1-0.8,0.8-1.4,1.8-1.4c1.3,0,1.8,0.7,1.8,1.6v2.2c0,0.4,0,0.6,0.1,0.7h-0.8c0-0.1,0-0.3,0-0.6c-0.2,0.3-0.6,0.7-1.4,0.7
					c-0.9,0-1.4-0.6-1.4-1.3C17.9,172.1,18.4,171.6,19.2,171.5z M20.7,172.1v-0.2l-1.3,0.2c-0.4,0.1-0.6,0.3-0.6,0.6
					c0,0.3,0.3,0.6,0.7,0.6C20.1,173.4,20.7,173.1,20.7,172.1z"/>
				<path class="st2" d="M25.2,170.5c-0.1,0-0.3,0-0.4,0c-0.7,0-1.2,0.4-1.2,1.3v2.2h-0.8v-4.3h0.8v0.8c0.3-0.7,0.9-0.8,1.3-0.8
					c0.1,0,0.2,0,0.3,0V170.5z"/>
				<path class="st2" d="M26.1,174v-6.5h0.8v6.5H26.1z"/>
				<path class="st2" d="M32.1,172.8c-0.2,0.8-0.9,1.4-1.9,1.4c-1.2,0-2.2-0.8-2.2-2.3c0-1.4,1-2.3,2.1-2.3c1.3,0,2.1,0.9,2.1,2.3
					c0,0.1,0,0.2,0,0.3h-3.3c0,0.8,0.6,1.3,1.3,1.3c0.7,0,1.1-0.4,1.2-0.9L32.1,172.8z M31.2,171.4c0-0.6-0.4-1.1-1.2-1.1
					c-0.7,0-1.1,0.5-1.2,1.1H31.2z"/>
				<path class="st2" d="M33.2,175.8l1.1-2.3l-1.9-3.9h1l1.4,3l1.3-3h0.9l-2.8,6.1H33.2z"/>
				<path class="st2" d="M37.3,172.8c0.4,0,0.7,0.3,0.7,0.9c0,1.2-0.8,1.7-1.3,1.8V175c0.4-0.1,0.7-0.5,0.7-1c0,0-0.1,0-0.2,0
					c-0.3,0-0.6-0.2-0.6-0.6C36.6,173.1,36.9,172.8,37.3,172.8z"/>
				<path class="st2" d="M47.6,174v-5l-2.2,5h-0.8l-2.2-5v5h-0.9v-6.4h1.2l2.3,5.2l2.3-5.2h1.2v6.4H47.6z"/>
				<path class="st2" d="M50.4,167.4c0.3,0,0.6,0.3,0.6,0.6c0,0.3-0.3,0.6-0.6,0.6c-0.3,0-0.6-0.3-0.6-0.6
					C49.8,167.7,50.1,167.4,50.4,167.4z M50,174v-4.3h0.8v4.3H50z"/>
				<path class="st2" d="M52.7,171.8c0,1,0.6,1.5,1.3,1.5c0.8,0,1.1-0.5,1.2-0.9l0.7,0.3c-0.2,0.6-0.8,1.4-2,1.4
					c-1.3,0-2.2-1-2.2-2.3c0-1.4,0.9-2.3,2.2-2.3c1.2,0,1.7,0.7,1.9,1.4l-0.8,0.3c-0.1-0.4-0.4-0.9-1.2-0.9
					C53.4,170.3,52.7,170.8,52.7,171.8z"/>
				<path class="st2" d="M59,171.5l1.9,2.5h-1.1l-1.4-1.9l-0.6,0.6v1.3H57v-6.5h0.8v4.1l1.9-1.9h1.2L59,171.5z"/>
				<path class="st2" d="M63.3,171.7l0.9-0.2v0.6c0,0.8,0.5,1.2,1.1,1.2c0.6,0,1-0.4,1-1.2v-4.5h0.9v4.5c0,1.1-0.7,2-1.9,2
					c-1.3,0-2-0.8-2-2V171.7z"/>
				<path class="st2" d="M69.6,171.5l1.2-0.2c0.3,0,0.3-0.2,0.3-0.3c0-0.4-0.3-0.8-0.9-0.8c-0.6,0-0.9,0.4-1,0.9l-0.8-0.2
					c0.1-0.8,0.8-1.4,1.8-1.4c1.3,0,1.8,0.7,1.8,1.6v2.2c0,0.4,0,0.6,0.1,0.7h-0.8c0-0.1,0-0.3,0-0.6c-0.2,0.3-0.6,0.7-1.4,0.7
					c-0.9,0-1.4-0.6-1.4-1.3C68.3,172.1,68.9,171.6,69.6,171.5z M71.1,172.1v-0.2l-1.3,0.2c-0.4,0.1-0.6,0.3-0.6,0.6
					c0,0.3,0.3,0.6,0.7,0.6C70.6,173.4,71.1,173.1,71.1,172.1z"/>
				<path class="st2" d="M73.8,174c0.1,0.6,0.5,1.1,1.2,1.1c0.9,0,1.3-0.5,1.3-1.4v-0.6c-0.2,0.4-0.7,0.7-1.3,0.7
					c-1.2,0-2-0.9-2-2.1c0-1.2,0.8-2.1,2-2.1c0.7,0,1.1,0.3,1.3,0.7v-0.6h0.8v4c0,1.1-0.5,2.2-2.2,2.2c-1.1,0-1.9-0.7-2-1.6
					L73.8,174z M76.3,171.7c0-0.8-0.5-1.4-1.2-1.4c-0.7,0-1.3,0.5-1.3,1.4c0,0.8,0.5,1.4,1.3,1.4C75.8,173.1,76.3,172.5,76.3,171.7z
					"/>
				<path class="st2" d="M78.9,174c0.1,0.6,0.5,1.1,1.2,1.1c0.9,0,1.3-0.5,1.3-1.4v-0.6c-0.2,0.4-0.7,0.7-1.3,0.7
					c-1.2,0-2-0.9-2-2.1c0-1.2,0.8-2.1,2-2.1c0.7,0,1.1,0.3,1.3,0.7v-0.6h0.8v4c0,1.1-0.5,2.2-2.2,2.2c-1.1,0-1.9-0.7-2-1.6
					L78.9,174z M81.5,171.7c0-0.8-0.5-1.4-1.2-1.4c-0.7,0-1.3,0.5-1.3,1.4c0,0.8,0.5,1.4,1.3,1.4C81,173.1,81.5,172.5,81.5,171.7z"
					/>
				<path class="st2" d="M87.3,172.8c-0.2,0.8-0.9,1.4-1.9,1.4c-1.2,0-2.2-0.8-2.2-2.3c0-1.4,1-2.3,2.1-2.3c1.3,0,2.1,0.9,2.1,2.3
					c0,0.1,0,0.2,0,0.3h-3.3c0,0.8,0.6,1.3,1.3,1.3c0.7,0,1.1-0.4,1.2-0.9L87.3,172.8z M86.5,171.4c0-0.6-0.4-1.1-1.2-1.1
					c-0.7,0-1.1,0.5-1.2,1.1H86.5z"/>
				<path class="st2" d="M90.8,170.5c-0.1,0-0.3,0-0.4,0c-0.7,0-1.2,0.4-1.2,1.3v2.2h-0.8v-4.3h0.8v0.8c0.3-0.7,0.9-0.8,1.3-0.8
					c0.1,0,0.2,0,0.3,0V170.5z"/>
				<path class="st2" d="M94.9,171.5l1.2-0.2c0.3,0,0.3-0.2,0.3-0.3c0-0.4-0.3-0.8-0.9-0.8c-0.6,0-0.9,0.4-1,0.9l-0.8-0.2
					c0.1-0.8,0.8-1.4,1.8-1.4c1.3,0,1.8,0.7,1.8,1.6v2.2c0,0.4,0,0.6,0.1,0.7h-0.8c0-0.1,0-0.3,0-0.6c-0.2,0.3-0.6,0.7-1.4,0.7
					c-0.9,0-1.4-0.6-1.4-1.3C93.6,172.1,94.2,171.6,94.9,171.5z M96.4,172.1v-0.2l-1.3,0.2c-0.4,0.1-0.6,0.3-0.6,0.6
					c0,0.3,0.3,0.6,0.7,0.6C95.9,173.4,96.4,173.1,96.4,172.1z"/>
				<path class="st2" d="M99.4,174h-0.8v-4.3h0.8v0.6c0.3-0.5,0.8-0.7,1.3-0.7c1,0,1.5,0.7,1.5,1.7v2.7h-0.8v-2.6
					c0-0.6-0.3-1.1-1-1.1c-0.7,0-1,0.5-1,1.2V174z"/>
				<path class="st2" d="M106.6,173.3c-0.2,0.4-0.7,0.8-1.3,0.8c-1.3,0-2.1-1-2.1-2.3c0-1.2,0.8-2.3,2.1-2.3c0.8,0,1.2,0.4,1.3,0.7
					v-2.8h0.8v5.7c0,0.4,0,0.7,0,0.8h-0.8C106.6,173.9,106.6,173.7,106.6,173.3L106.6,173.3z M105.3,173.4c0.8,0,1.3-0.7,1.3-1.6
					c0-0.9-0.5-1.5-1.2-1.5s-1.3,0.6-1.3,1.5S104.5,173.4,105.3,173.4z"/>
				<path class="st2" d="M112,171.4v2.6h-0.9v-6.4h2.3c1.2,0,2,0.8,2,1.9c0,1.1-0.8,1.9-2,1.9H112z M113.2,170.6
					c0.8,0,1.2-0.4,1.2-1.1c0-0.7-0.5-1.1-1.2-1.1H112v2.2H113.2z"/>
				<path class="st2" d="M117.1,171.5l1.2-0.2c0.3,0,0.3-0.2,0.3-0.3c0-0.4-0.3-0.8-0.9-0.8c-0.6,0-0.9,0.4-1,0.9l-0.8-0.2
					c0.1-0.8,0.8-1.4,1.8-1.4c1.3,0,1.8,0.7,1.8,1.6v2.2c0,0.4,0,0.6,0.1,0.7h-0.8c0-0.1,0-0.3,0-0.6c-0.2,0.3-0.6,0.7-1.4,0.7
					c-0.9,0-1.4-0.6-1.4-1.3C115.8,172.1,116.4,171.6,117.1,171.5z M118.6,172.1v-0.2l-1.3,0.2c-0.4,0.1-0.6,0.3-0.6,0.6
					c0,0.3,0.3,0.6,0.7,0.6C118,173.4,118.6,173.1,118.6,172.1z"/>
				<path class="st2" d="M121.9,169.7h0.9v0.8h-0.9v2.3c0,0.4,0.2,0.6,0.6,0.6c0.1,0,0.3,0,0.3,0v0.7c-0.1,0-0.3,0.1-0.6,0.1
					c-0.7,0-1.2-0.5-1.2-1.2v-2.4h-0.8v-0.8h0.2c0.5,0,0.7-0.3,0.7-0.7v-0.7h0.8V169.7z"/>
				<path class="st2" d="M125,169.7h0.9v0.8H125v2.3c0,0.4,0.2,0.6,0.6,0.6c0.1,0,0.3,0,0.3,0v0.7c-0.1,0-0.3,0.1-0.6,0.1
					c-0.7,0-1.2-0.5-1.2-1.2v-2.4h-0.8v-0.8h0.2c0.5,0,0.7-0.3,0.7-0.7v-0.7h0.8V169.7z"/>
				<path class="st2" d="M127.4,167.4c0.3,0,0.6,0.3,0.6,0.6c0,0.3-0.3,0.6-0.6,0.6c-0.3,0-0.6-0.3-0.6-0.6
					C126.8,167.7,127.1,167.4,127.4,167.4z M127,174v-4.3h0.8v4.3H127z"/>
				<path class="st2" d="M134.8,169.3c-0.1-0.5-0.5-1.1-1.4-1.1c-0.7,0-1.2,0.5-1.2,1.1c0,0.5,0.3,0.8,0.8,0.9l1,0.2
					c1.1,0.2,1.7,0.9,1.7,1.8c0,1-0.8,1.9-2.2,1.9c-1.5,0-2.3-1-2.4-1.9l0.8-0.3c0.1,0.7,0.6,1.4,1.5,1.4c0.9,0,1.3-0.5,1.3-1
					c0-0.5-0.3-0.9-1-1l-0.9-0.2c-0.9-0.2-1.6-0.8-1.6-1.7c0-1,0.9-1.9,2.1-1.9c1.4,0,2,0.9,2.2,1.6L134.8,169.3z"/>
				<path class="st2" d="M136.5,174v-4.3h0.8v0.6c0.3-0.5,0.8-0.7,1.3-0.7c0.5,0,1.1,0.3,1.3,0.8c0.3-0.6,0.9-0.8,1.4-0.8
					c0.8,0,1.5,0.5,1.5,1.6v2.8H142v-2.7c0-0.6-0.3-1-0.9-1c-0.6,0-1,0.5-1,1.1v2.6h-0.8v-2.7c0-0.6-0.3-1-0.9-1c-0.6,0-1,0.5-1,1.1
					v2.6H136.5z"/>
				<path class="st2" d="M144.6,167.4c0.3,0,0.6,0.3,0.6,0.6c0,0.3-0.3,0.6-0.6,0.6c-0.3,0-0.6-0.3-0.6-0.6
					C144,167.7,144.2,167.4,144.6,167.4z M144.1,174v-4.3h0.8v4.3H144.1z"/>
				<path class="st2" d="M147.5,169.7h0.9v0.8h-0.9v2.3c0,0.4,0.2,0.6,0.6,0.6c0.1,0,0.3,0,0.3,0v0.7c-0.1,0-0.3,0.1-0.6,0.1
					c-0.7,0-1.2-0.5-1.2-1.2v-2.4h-0.8v-0.8h0.2c0.5,0,0.7-0.3,0.7-0.7v-0.7h0.8V169.7z"/>
				<path class="st2" d="M150.4,174h-0.8v-6.5h0.8v2.7c0.3-0.5,0.8-0.6,1.3-0.6c1,0,1.5,0.7,1.5,1.7v2.7h-0.8v-2.6
					c0-0.6-0.3-1.1-1-1.1c-0.6,0-1,0.5-1,1.1V174z"/>
				<path class="st2" d="M155.1,172.8c0.4,0,0.6,0.3,0.6,0.6s-0.3,0.6-0.6,0.6c-0.4,0-0.6-0.3-0.6-0.6S154.7,172.8,155.1,172.8z"/>
				<path class="st2" d="M162.6,169.3c-0.1-0.5-0.5-1.1-1.4-1.1c-0.7,0-1.2,0.5-1.2,1.1c0,0.5,0.3,0.8,0.8,0.9l1,0.2
					c1.1,0.2,1.7,0.9,1.7,1.8c0,1-0.8,1.9-2.2,1.9c-1.5,0-2.3-1-2.4-1.9l0.8-0.3c0.1,0.7,0.6,1.4,1.5,1.4c0.9,0,1.3-0.5,1.3-1
					c0-0.5-0.3-0.9-1-1l-0.9-0.2c-0.9-0.2-1.6-0.8-1.6-1.7c0-1,0.9-1.9,2.1-1.9c1.4,0,2,0.9,2.2,1.6L162.6,169.3z"/>
				<path class="st2" d="M165.3,174h-0.8v-6.5h0.8v2.7c0.3-0.5,0.8-0.6,1.3-0.6c1,0,1.5,0.7,1.5,1.7v2.7h-0.8v-2.6
					c0-0.6-0.3-1.1-1-1.1c-0.6,0-1,0.5-1,1.1V174z"/>
				<path class="st2" d="M173.2,172.8c-0.2,0.8-0.9,1.4-1.9,1.4c-1.2,0-2.2-0.8-2.2-2.3c0-1.4,1-2.3,2.1-2.3c1.3,0,2.1,0.9,2.1,2.3
					c0,0.1,0,0.2,0,0.3H170c0,0.8,0.6,1.3,1.3,1.3c0.7,0,1.1-0.4,1.2-0.9L173.2,172.8z M172.4,171.4c0-0.6-0.4-1.1-1.2-1.1
					c-0.7,0-1.1,0.5-1.2,1.1H172.4z"/>
			</g>
			<g class="st1">
				<path class="st2" d="M13,180.7l1.1,3.3l1-3.3H16l-1.4,4.3h-0.9l-1.2-3.3l-1.1,3.3h-0.9l-1.4-4.3h0.9l1,3.3l1.1-3.3H13z"/>
				<path class="st2" d="M17.8,182.5l1.2-0.2c0.3,0,0.3-0.2,0.3-0.3c0-0.4-0.3-0.8-0.9-0.8c-0.6,0-0.9,0.4-1,0.9l-0.8-0.2
					c0.1-0.8,0.8-1.4,1.8-1.4c1.3,0,1.8,0.7,1.8,1.6v2.2c0,0.4,0,0.6,0.1,0.7h-0.8c0-0.1,0-0.3,0-0.6c-0.2,0.3-0.6,0.7-1.4,0.7
					c-0.9,0-1.4-0.6-1.4-1.3C16.5,183.1,17.1,182.6,17.8,182.5z M19.3,183.1v-0.2l-1.3,0.2c-0.4,0.1-0.6,0.3-0.6,0.6
					c0,0.3,0.3,0.6,0.7,0.6C18.8,184.4,19.3,184.1,19.3,183.1z"/>
				<path class="st2" d="M21.8,183.6c0.1,0.5,0.4,0.8,1,0.8c0.5,0,0.7-0.3,0.7-0.6c0-0.3-0.2-0.5-0.6-0.6l-0.7-0.2
					c-0.7-0.1-1.1-0.6-1.1-1.2c0-0.7,0.7-1.4,1.5-1.4c1.2,0,1.6,0.8,1.6,1.2l-0.7,0.3c0-0.2-0.2-0.7-0.9-0.7c-0.4,0-0.7,0.3-0.7,0.6
					c0,0.3,0.2,0.5,0.5,0.5l0.7,0.2c0.8,0.2,1.2,0.6,1.2,1.3c0,0.6-0.5,1.3-1.6,1.3c-1.2,0-1.7-0.8-1.8-1.3L21.8,183.6z"/>
				<path class="st2" d="M28.8,180.7h0.9v0.8h-0.9v2.3c0,0.4,0.2,0.6,0.6,0.6c0.1,0,0.3,0,0.3,0v0.7c-0.1,0-0.3,0.1-0.6,0.1
					c-0.7,0-1.2-0.5-1.2-1.2v-2.4h-0.8v-0.8h0.2c0.5,0,0.7-0.3,0.7-0.7v-0.7h0.8V180.7z"/>
				<path class="st2" d="M31.7,185h-0.8v-6.5h0.8v2.7c0.3-0.5,0.8-0.6,1.3-0.6c1,0,1.5,0.7,1.5,1.7v2.7h-0.8v-2.6
					c0-0.6-0.3-1.1-1-1.1c-0.6,0-1,0.5-1,1.1V185z"/>
				<path class="st2" d="M39.6,183.8c-0.2,0.8-0.9,1.4-1.9,1.4c-1.2,0-2.2-0.8-2.2-2.3c0-1.4,1-2.3,2.1-2.3c1.3,0,2.1,0.9,2.1,2.3
					c0,0.1,0,0.2,0,0.3h-3.3c0,0.8,0.6,1.3,1.3,1.3c0.7,0,1.1-0.4,1.2-0.9L39.6,183.8z M38.7,182.4c0-0.6-0.4-1.1-1.2-1.1
					c-0.7,0-1.1,0.5-1.2,1.1H38.7z"/>
				<path class="st2" d="M42.9,185v-6.5h0.8v6.5H42.9z"/>
				<path class="st2" d="M46.1,182.5l1.2-0.2c0.3,0,0.3-0.2,0.3-0.3c0-0.4-0.3-0.8-0.9-0.8c-0.6,0-0.9,0.4-1,0.9l-0.8-0.2
					c0.1-0.8,0.8-1.4,1.8-1.4c1.3,0,1.8,0.7,1.8,1.6v2.2c0,0.4,0,0.6,0.1,0.7h-0.8c0-0.1,0-0.3,0-0.6c-0.2,0.3-0.6,0.7-1.4,0.7
					c-0.9,0-1.4-0.6-1.4-1.3C44.8,183.1,45.4,182.6,46.1,182.5z M47.6,183.1v-0.2l-1.3,0.2c-0.4,0.1-0.6,0.3-0.6,0.6
					c0,0.3,0.3,0.6,0.7,0.6C47.1,184.4,47.6,184.1,47.6,183.1z"/>
				<path class="st2" d="M50.1,183.6c0.1,0.5,0.4,0.8,1,0.8c0.5,0,0.7-0.3,0.7-0.6c0-0.3-0.2-0.5-0.6-0.6l-0.7-0.2
					c-0.7-0.1-1.1-0.6-1.1-1.2c0-0.7,0.7-1.4,1.5-1.4c1.2,0,1.6,0.8,1.6,1.2l-0.7,0.3c0-0.2-0.2-0.7-0.9-0.7c-0.4,0-0.7,0.3-0.7,0.6
					c0,0.3,0.2,0.5,0.5,0.5l0.7,0.2c0.8,0.2,1.2,0.6,1.2,1.3c0,0.6-0.5,1.3-1.6,1.3c-1.2,0-1.7-0.8-1.8-1.3L50.1,183.6z"/>
				<path class="st2" d="M54.9,180.7h0.9v0.8h-0.9v2.3c0,0.4,0.2,0.6,0.6,0.6c0.1,0,0.3,0,0.3,0v0.7c-0.1,0-0.3,0.1-0.6,0.1
					c-0.7,0-1.2-0.5-1.2-1.2v-2.4h-0.8v-0.8h0.2c0.5,0,0.7-0.3,0.7-0.7v-0.7h0.8V180.7z"/>
				<path class="st2" d="M59.1,186.7v-6H60v0.7c0.2-0.4,0.7-0.8,1.4-0.8c1.3,0,2,1,2,2.3c0,1.3-0.7,2.3-2,2.3
					c-0.7,0-1.2-0.3-1.4-0.7v2.3H59.1z M61.3,181.3c-0.8,0-1.3,0.6-1.3,1.5c0,0.9,0.5,1.5,1.3,1.5c0.8,0,1.3-0.6,1.3-1.5
					C62.5,182,62,181.3,61.3,181.3z"/>
				<path class="st2" d="M68.2,183.8c-0.2,0.8-0.9,1.4-1.9,1.4c-1.2,0-2.2-0.8-2.2-2.3c0-1.4,1-2.3,2.1-2.3c1.3,0,2.1,0.9,2.1,2.3
					c0,0.1,0,0.2,0,0.3H65c0,0.8,0.6,1.3,1.3,1.3c0.7,0,1.1-0.4,1.2-0.9L68.2,183.8z M67.3,182.4c0-0.6-0.4-1.1-1.2-1.1
					c-0.7,0-1.1,0.5-1.2,1.1H67.3z"/>
				<path class="st2" d="M71.7,181.5c-0.1,0-0.3,0-0.4,0c-0.7,0-1.2,0.4-1.2,1.3v2.2h-0.8v-4.3h0.8v0.8c0.3-0.7,0.9-0.8,1.3-0.8
					c0.1,0,0.2,0,0.3,0V181.5z"/>
				<path class="st2" d="M72.9,183.6c0.1,0.5,0.4,0.8,1,0.8c0.5,0,0.7-0.3,0.7-0.6c0-0.3-0.2-0.5-0.6-0.6l-0.7-0.2
					c-0.7-0.1-1.1-0.6-1.1-1.2c0-0.7,0.7-1.4,1.5-1.4c1.2,0,1.6,0.8,1.6,1.2l-0.7,0.3c0-0.2-0.2-0.7-0.9-0.7c-0.4,0-0.7,0.3-0.7,0.6
					c0,0.3,0.2,0.5,0.5,0.5l0.7,0.2c0.8,0.2,1.2,0.6,1.2,1.3c0,0.6-0.5,1.3-1.6,1.3c-1.2,0-1.7-0.8-1.8-1.3L72.9,183.6z"/>
				<path class="st2" d="M80.6,182.8c0,1.3-0.9,2.3-2.2,2.3s-2.2-1-2.2-2.3c0-1.3,0.9-2.3,2.2-2.3S80.6,181.5,80.6,182.8z
					 M79.7,182.8c0-1-0.6-1.5-1.4-1.5s-1.4,0.5-1.4,1.5c0,1,0.6,1.5,1.4,1.5S79.7,183.8,79.7,182.8z"/>
				<path class="st2" d="M82.4,185h-0.8v-4.3h0.8v0.6c0.3-0.5,0.8-0.7,1.3-0.7c1,0,1.5,0.7,1.5,1.7v2.7h-0.8v-2.6
					c0-0.6-0.3-1.1-1-1.1c-0.7,0-1,0.5-1,1.2V185z"/>
				<path class="st2" d="M90,180.7h0.9v0.8H90v2.3c0,0.4,0.2,0.6,0.6,0.6c0.1,0,0.3,0,0.3,0v0.7c-0.1,0-0.3,0.1-0.6,0.1
					c-0.7,0-1.2-0.5-1.2-1.2v-2.4h-0.8v-0.8h0.2c0.5,0,0.7-0.3,0.7-0.7v-0.7H90V180.7z"/>
				<path class="st2" d="M96,182.8c0,1.3-0.9,2.3-2.2,2.3c-1.3,0-2.2-1-2.2-2.3c0-1.3,0.9-2.3,2.2-2.3C95.1,180.5,96,181.5,96,182.8
					z M95.1,182.8c0-1-0.6-1.5-1.4-1.5s-1.4,0.5-1.4,1.5c0,1,0.6,1.5,1.4,1.5S95.1,183.8,95.1,182.8z"/>
				<path class="st2" d="M103,183.8c-0.2,0.8-0.9,1.4-1.9,1.4c-1.2,0-2.2-0.8-2.2-2.3c0-1.4,1-2.3,2.1-2.3c1.3,0,2.1,0.9,2.1,2.3
					c0,0.1,0,0.2,0,0.3h-3.3c0,0.8,0.6,1.3,1.3,1.3c0.7,0,1.1-0.4,1.2-0.9L103,183.8z M102.2,182.4c0-0.6-0.4-1.1-1.2-1.1
					c-0.7,0-1.1,0.5-1.2,1.1H102.2z"/>
				<path class="st2" d="M106,185h-0.9l-1.8-4.3h1l1.2,3.3l1.2-3.3h0.9L106,185z"/>
				<path class="st2" d="M112.1,183.8c-0.2,0.8-0.9,1.4-1.9,1.4c-1.2,0-2.2-0.8-2.2-2.3c0-1.4,1-2.3,2.1-2.3c1.3,0,2.1,0.9,2.1,2.3
					c0,0.1,0,0.2,0,0.3h-3.3c0,0.8,0.6,1.3,1.3,1.3c0.7,0,1.1-0.4,1.2-0.9L112.1,183.8z M111.2,182.4c0-0.6-0.4-1.1-1.2-1.1
					c-0.7,0-1.1,0.5-1.2,1.1H111.2z"/>
				<path class="st2" d="M115.6,181.5c-0.1,0-0.3,0-0.4,0c-0.7,0-1.2,0.4-1.2,1.3v2.2h-0.8v-4.3h0.8v0.8c0.3-0.7,0.9-0.8,1.3-0.8
					c0.1,0,0.2,0,0.3,0V181.5z"/>
				<path class="st2" d="M118.6,186.7v-6h0.8v0.7c0.2-0.4,0.7-0.8,1.4-0.8c1.3,0,2,1,2,2.3c0,1.3-0.7,2.3-2,2.3
					c-0.7,0-1.2-0.3-1.4-0.7v2.3H118.6z M120.7,181.3c-0.8,0-1.3,0.6-1.3,1.5c0,0.9,0.5,1.5,1.3,1.5c0.8,0,1.3-0.6,1.3-1.5
					C122,182,121.5,181.3,120.7,181.3z"/>
				<path class="st2" d="M124.7,185h-0.8v-6.5h0.8v2.7c0.3-0.5,0.8-0.6,1.3-0.6c1,0,1.5,0.7,1.5,1.7v2.7h-0.8v-2.6
					c0-0.6-0.3-1.1-1-1.1c-0.6,0-1,0.5-1,1.1V185z"/>
				<path class="st2" d="M133,182.8c0,1.3-0.9,2.3-2.2,2.3s-2.2-1-2.2-2.3c0-1.3,0.9-2.3,2.2-2.3S133,181.5,133,182.8z M132.1,182.8
					c0-1-0.6-1.5-1.4-1.5s-1.4,0.5-1.4,1.5c0,1,0.6,1.5,1.4,1.5S132.1,183.8,132.1,182.8z"/>
				<path class="st2" d="M135.1,180.7h0.9v0.8h-0.9v2.3c0,0.4,0.2,0.6,0.6,0.6c0.1,0,0.3,0,0.3,0v0.7c-0.1,0-0.3,0.1-0.6,0.1
					c-0.7,0-1.2-0.5-1.2-1.2v-2.4h-0.8v-0.8h0.2c0.5,0,0.7-0.3,0.7-0.7v-0.7h0.8V180.7z"/>
				<path class="st2" d="M141.1,182.8c0,1.3-0.9,2.3-2.2,2.3s-2.2-1-2.2-2.3c0-1.3,0.9-2.3,2.2-2.3S141.1,181.5,141.1,182.8z
					 M140.3,182.8c0-1-0.6-1.5-1.4-1.5s-1.4,0.5-1.4,1.5c0,1,0.6,1.5,1.4,1.5S140.3,183.8,140.3,182.8z"/>
				<path class="st2" d="M142.7,185c0.1,0.6,0.5,1.1,1.2,1.1c0.9,0,1.3-0.5,1.3-1.4v-0.6c-0.2,0.4-0.7,0.7-1.3,0.7
					c-1.2,0-2-0.9-2-2.1c0-1.2,0.8-2.1,2-2.1c0.7,0,1.1,0.3,1.3,0.7v-0.6h0.8v4c0,1.1-0.5,2.2-2.2,2.2c-1.1,0-1.9-0.7-2-1.6
					L142.7,185z M145.2,182.7c0-0.8-0.5-1.4-1.2-1.4c-0.7,0-1.3,0.5-1.3,1.4c0,0.8,0.5,1.4,1.3,1.4
					C144.7,184.1,145.2,183.5,145.2,182.7z"/>
				<path class="st2" d="M149.7,181.5c-0.1,0-0.3,0-0.4,0c-0.7,0-1.2,0.4-1.2,1.3v2.2h-0.8v-4.3h0.8v0.8c0.3-0.7,0.9-0.8,1.3-0.8
					c0.1,0,0.2,0,0.3,0V181.5z"/>
				<path class="st2" d="M151.6,182.5l1.2-0.2c0.3,0,0.3-0.2,0.3-0.3c0-0.4-0.3-0.8-0.9-0.8c-0.6,0-0.9,0.4-1,0.9l-0.8-0.2
					c0.1-0.8,0.8-1.4,1.8-1.4c1.3,0,1.8,0.7,1.8,1.6v2.2c0,0.4,0,0.6,0.1,0.7h-0.8c0-0.1,0-0.3,0-0.6c-0.2,0.3-0.6,0.7-1.4,0.7
					c-0.9,0-1.4-0.6-1.4-1.3C150.3,183.1,150.9,182.6,151.6,182.5z M153.1,183.1v-0.2l-1.3,0.2c-0.4,0.1-0.6,0.3-0.6,0.6
					c0,0.3,0.3,0.6,0.7,0.6C152.6,184.4,153.1,184.1,153.1,183.1z"/>
				<path class="st2" d="M155.3,186.7v-6h0.8v0.7c0.2-0.4,0.7-0.8,1.4-0.8c1.3,0,2,1,2,2.3c0,1.3-0.7,2.3-2,2.3
					c-0.7,0-1.2-0.3-1.4-0.7v2.3H155.3z M157.4,181.3c-0.8,0-1.3,0.6-1.3,1.5c0,0.9,0.5,1.5,1.3,1.5c0.8,0,1.3-0.6,1.3-1.5
					C158.7,182,158.2,181.3,157.4,181.3z"/>
				<path class="st2" d="M161.4,185h-0.8v-6.5h0.8v2.7c0.3-0.5,0.8-0.6,1.3-0.6c1,0,1.5,0.7,1.5,1.7v2.7h-0.8v-2.6
					c0-0.6-0.3-1.1-1-1.1c-0.6,0-1,0.5-1,1.1V185z"/>
			</g>
			<g class="st1">
				<path class="st2" d="M9.2,193.7l0.9-0.2v0.6c0,0.8,0.5,1.2,1.1,1.2c0.6,0,1-0.4,1-1.2v-4.5h0.9v4.5c0,1.1-0.7,2-1.9,2
					c-1.3,0-2-0.8-2-2V193.7z"/>
				<path class="st2" d="M18.5,193.8c0,1.3-0.9,2.3-2.2,2.3s-2.2-1-2.2-2.3c0-1.3,0.9-2.3,2.2-2.3S18.5,192.5,18.5,193.8z
					 M17.6,193.8c0-1-0.6-1.5-1.4-1.5s-1.4,0.5-1.4,1.5c0,1,0.6,1.5,1.4,1.5S17.6,194.8,17.6,193.8z"/>
				<path class="st2" d="M20.4,196h-0.8v-6.5h0.8v2.7c0.3-0.5,0.8-0.6,1.3-0.6c1,0,1.5,0.7,1.5,1.7v2.7h-0.8v-2.6
					c0-0.6-0.3-1.1-1-1.1c-0.6,0-1,0.5-1,1.1V196z"/>
				<path class="st2" d="M25.4,196h-0.8v-4.3h0.8v0.6c0.3-0.5,0.8-0.7,1.3-0.7c1,0,1.5,0.7,1.5,1.7v2.7h-0.8v-2.6
					c0-0.6-0.3-1.1-1-1.1c-0.7,0-1,0.5-1,1.2V196z"/>
				<path class="st2" d="M31.9,196v-6.4h0.9v5.6h3v0.8H31.9z"/>
				<path class="st2" d="M40.4,194.8c-0.2,0.8-0.9,1.4-1.9,1.4c-1.2,0-2.2-0.8-2.2-2.3c0-1.4,1-2.3,2.1-2.3c1.3,0,2.1,0.9,2.1,2.3
					c0,0.1,0,0.2,0,0.3h-3.3c0,0.8,0.6,1.3,1.3,1.3c0.7,0,1.1-0.4,1.2-0.9L40.4,194.8z M39.5,193.4c0-0.6-0.4-1.1-1.2-1.1
					c-0.7,0-1.1,0.5-1.2,1.1H39.5z"/>
				<path class="st2" d="M42.3,196h-0.8v-4.3h0.8v0.6c0.3-0.5,0.8-0.7,1.3-0.7c1,0,1.5,0.7,1.5,1.7v2.7h-0.8v-2.6
					c0-0.6-0.3-1.1-1-1.1c-0.7,0-1,0.5-1,1.2V196z"/>
				<path class="st2" d="M47.3,196h-0.8v-4.3h0.8v0.6c0.3-0.5,0.8-0.7,1.3-0.7c1,0,1.5,0.7,1.5,1.7v2.7h-0.8v-2.6
					c0-0.6-0.3-1.1-1-1.1c-0.7,0-1,0.5-1,1.2V196z"/>
				<path class="st2" d="M55.5,193.8c0,1.3-0.9,2.3-2.2,2.3s-2.2-1-2.2-2.3c0-1.3,0.9-2.3,2.2-2.3S55.5,192.5,55.5,193.8z
					 M54.7,193.8c0-1-0.6-1.5-1.4-1.5s-1.4,0.5-1.4,1.5c0,1,0.6,1.5,1.4,1.5S54.7,194.8,54.7,193.8z"/>
				<path class="st2" d="M57.4,196h-0.8v-4.3h0.8v0.6c0.3-0.5,0.8-0.7,1.3-0.7c1,0,1.5,0.7,1.5,1.7v2.7h-0.8v-2.6
					c0-0.6-0.3-1.1-1-1.1c-0.7,0-1,0.5-1,1.2V196z"/>
				<path class="st2" d="M62.1,194.8c0.4,0,0.6,0.3,0.6,0.6s-0.3,0.6-0.6,0.6s-0.6-0.3-0.6-0.6S61.8,194.8,62.1,194.8z"/>
			</g>
		</g>
	</g>
</g>
</svg>
