<?xml version="1.0" encoding="utf-8"?>
<!-- Generator: Adobe Illustrator 20.0.0, SVG Export Plug-In . SVG Version: 6.00 Build 0)  -->
<svg version="1.1" id="Layer_1" xmlns="http://www.w3.org/2000/svg" xmlns:xlink="http://www.w3.org/1999/xlink" x="0px" y="0px"
	 viewBox="0 0 196 266.7" style="enable-background:new 0 0 196 266.7;" xml:space="preserve">
<style type="text/css">
	.st0{fill:#F8E4E3;}
	.st1{fill:#231F20;}
	.st2{fill:#010101;}
	.st3{fill:#DEB18A;}
	.st4{fill:#D3A984;}
	.st5{fill:#E7D8C3;}
	.st6{fill:#786453;}
	.st7{fill:#F8E4D2;}
	.st8{fill:#EEC5A6;}
	.st9{fill:#E1BB9F;}
	.st10{fill:#F0D0B3;}
	.st11{fill:#381C15;}
	.st12{fill:#DA6765;}
	.st13{fill:#EBF4F0;}
	.st14{fill:#1D1611;}
	.st15{fill:#7BA29E;}
	.st16{fill:#E3C5AB;}
	.st17{fill:#6B3720;}
	.st18{fill:#E3B59D;}
	.st19{opacity:7.000000e-02;fill:#443123;enable-background:new    ;}
	.st20{fill:#F5E0CD;}
	.st21{fill:#E5C6AA;}
	.st22{fill:#D39C82;}
	.st23{fill:#ECCBB0;}
	.st24{fill:#DF887D;}
	.st25{fill:#E0C2A8;}
	.st26{fill:#D4AA86;}
</style>
<title>badbitchcards</title>
<path class="st0" d="M17.2,8.7h161.6c4.7,0,8.5,3.8,8.5,8.5v232.4c0,4.7-3.8,8.5-8.5,8.5H17.2c-4.7,0-8.5-3.8-8.5-8.5V17.2
	C8.7,12.5,12.5,8.7,17.2,8.7z"/>
<path class="st1" d="M24,34.4c0.9,0.5,2,0.8,3,0.8c4,0,5.6-2.6,5.7-5.8c-0.9,1.4-2.5,2.2-4.2,2.1c-3,0.1-5.5-2.2-5.6-5.2
	c0-0.1,0-0.2,0-0.4c0.1-3.2,2.7-5.7,5.9-5.7h0.1c3.2,0,6.3,2.3,6.3,7.5c0,6-2.7,9.6-8.2,9.6c-1.3,0-2.6-0.4-3.8-1L24,34.4z
	 M28.8,22.4c-1.9-0.1-3.5,1.4-3.5,3.3c0,0.1,0,0.1,0,0.2c-0.1,1.8,1.4,3.4,3.2,3.5c0.1,0,0.2,0,0.3,0c1.9,0,3.4-1.5,3.4-3.4
	C32.2,24,30.7,22.4,28.8,22.4L28.8,22.4z"/>
<path class="st2" d="M28.9,41.9c4.6,4.4,9.3,8.8,9.3,13.2c-0.1,2.5-2.2,4.5-4.7,4.4c-2.1,0-3.3-0.9-4.3-2.8c1.1,3.8,2.2,5.7,4.3,5.7
	h-9.2c2.1,0,3.3-1.9,4.3-5.7c-1.1,1.8-2.2,2.8-4.3,2.8c-2.5,0.1-4.6-1.9-4.6-4.4C19.6,50.7,24.2,46.3,28.9,41.9z"/>
<path class="st1" d="M174.3,235.4c-0.9-0.5-2-0.8-3-0.8c-4,0-5.6,2.6-5.7,5.8c0.9-1.4,2.5-2.2,4.2-2.1c3-0.1,5.5,2.2,5.6,5.2
	c0,0.1,0,0.2,0,0.4c-0.1,3.2-2.7,5.7-5.8,5.7c-0.1,0-0.1,0-0.2,0c-3.2,0-6.4-2.3-6.4-7.5c0-6,2.7-9.6,8.2-9.6c1.3,0,2.6,0.4,3.8,1
	L174.3,235.4z M169.5,247.4c1.9,0.1,3.5-1.4,3.5-3.3c0-0.1,0-0.1,0-0.2c0.1-1.8-1.4-3.4-3.2-3.5c-0.1,0-0.2,0-0.3,0
	c-1.9,0-3.4,1.5-3.4,3.4S167.6,247.4,169.5,247.4L169.5,247.4z"/>
<path class="st2" d="M167.4,227.9c-4.6-4.4-9.3-8.8-9.3-13.2c0.1-2.5,2.2-4.5,4.6-4.4c2.1,0,3.3,0.9,4.3,2.8
	c-1.1-3.8-2.2-5.7-4.3-5.7h9.2c-2.1,0-3.3,1.9-4.3,5.7c1.1-1.8,2.2-2.8,4.3-2.8c2.5-0.1,4.6,1.9,4.6,4.4
	C176.7,219.1,172.1,223.5,167.4,227.9z"/>
<path class="st3" d="M84.2,60.4c0,0,5.7-7.9,11.2-7.9s10.5,11.7,19,11.7s11.4,8.4,11.4,8.4l-73,21.2l-3.3,23.5c0,0-10-1.3-10-10
	s7.2-17.8,7.2-17.8s-2.1-6.3,0-10.9s4.6-4.3,4.6-4.3s2.9-19.4,23.6-14.6C84.2,60.4,84.2,60.4,84.2,60.4z"/>
<path class="st3" d="M147.2,99.2c0,0,9.1,3.6,10.4,8.9s-2.5,10.8-0.5,19s-5.4,13.2-5.4,13.2l-38.3-65.6l-23.6,2.6
	c0,0-1.2-10,7.3-12.2s12.7,4.9,12.7,4.9s5.6-3.6,10.6-2.7s5.3,3.4,5.3,3.4s19.5,1.7,20,19.4C147.2,99.2,147.2,99.2,147.2,99.2z"/>
<path class="st4" d="M60.6,153H57c-19.9,0-9.1-29.1-9.1-29.1c-10.7,0-5.8-8.3-5.8-8.3c0,11,12,6.4,7.4,1.8s-2.8-7.6-2.8-7.6
	c-7.8-15,6.1-15.9,6.1-15.9c0.2-9.6,9-7.8,9-7.8c4.7-13.3,17.7-4.4,17.7-4.4c7.3-4.1,8.3,0,8.3,0c3.9-14.1,21.6-9.8,21.6-9.8
	c5-2.5,9.1-2.6,12.4-1.4c8.7,3,12.1,14.5,12.1,14.5c10-1.9,12.9,9.9,12.9,9.9c5.5,10.9-0.1,16.5-0.1,16.5s11.1,23.8,4.6,29.1
	c0,0,10.6,15.8-16.6,15.8S60.6,153,60.6,153"/>
<g>
	<g>
		<path class="st5" d="M81.8,87.8c3.5,1,5.7,1.9,8.5-1.2c3.5-3.9,5.3-9,10.8-10.7c6.6-2,12.8,2.8,15.9,8.2c1.5,2.5,2.9,6.6,0.3,8.9
			c-1,0.9-3.2,1.3-4.2,0.5c-0.6-0.5-0.9-1.1-1.1-1.9c-0.2-1.2,0.2-2.3,1.1-3.1c0.2-0.1-0.3-0.2-0.4-0.1c-2.8,2.4-0.3,7.2,3.3,5.9
			c6.5-2.3,1.6-10.8-1.2-13.9c-3.7-4-9.4-6.4-14.7-4.3c-2.7,1.1-4.8,3.1-6.6,5.4c-1.1,1.4-1.9,2.9-3,4.3c-0.5,0.7-1.2,1.5-1.9,2
			c-2.5,1.8-4.3,0.5-6.5-0.1C81.9,87.5,81.5,87.7,81.8,87.8L81.8,87.8z"/>
	</g>
</g>
<g>
	<g>
		<path class="st5" d="M54.9,121.1c-0.3,7.4-11.2,14.5-6,22c1.4,2,4.5,4,7.1,2.9c2-0.9,1.7-3.9-0.6-3.8c-0.3,0-0.3,0.3,0,0.2
			c0.9,0.1,1.4,0.5,1.4,1.3c0.5,1.8-0.9,2.4-4.3,1.8c-0.7-0.2-1.4-0.8-1.9-1.3c-1.2-1.1-2.1-2.7-2.3-4.3c-0.4-2.4,0.5-4.8,1.7-6.9
			c2.1-3.9,5.3-7.3,5.5-12C55.4,121,54.9,120.9,54.9,121.1L54.9,121.1z"/>
	</g>
</g>
<g>
	<g>
		<path class="st5" d="M62.2,74.5c0.8,3.7-4.3,5.3-6.4,2.1c-1.1-1.7-1-3.8-0.2-5.6c0.7-1.8,2.3-3.8,4.2-4.6c3.3-1.3,6.2,0.3,9.1,1.7
			c3.1,1.5,8.5,2.6,9.6-2.1c0-0.1-0.5-0.2-0.5,0c-1.1,5-7.1,2.7-10.2,1.2c-1.6-0.8-3.4-1.7-5.3-1.7c-3.5-0.1-6.6,2.9-7.7,6.1
			c-0.9,2.8,0.2,6.4,3.4,7.1c2.6,0.6,5-1.7,4.4-4.3C62.6,74.4,62.1,74.4,62.2,74.5L62.2,74.5z"/>
	</g>
</g>
<g>
	<g>
		<path class="st5" d="M126.4,70.4c-0.8,5.5,6.8,4.4,9.8,4.9c3.6,0.6,7.5,3.3,8.2,7.1c0.2,0.9,0.1,1.9-0.3,2.8
			c-0.7,1.7-1.3,1.7-3.2,1.8c-1.8,0.2-2.3,0.5-3-1.1c-0.4-1-0.3-2,0.5-2.9c0.1-0.2-0.3-0.2-0.4-0.1c-1.4,1.7-0.6,4.4,1.5,5.1
			c2.4,0.8,4.8-1.2,5.3-3.4c0.9-3.5-2.1-6.8-5-8.3c-1.6-0.8-3.3-1.2-5.1-1.3c-3-0.2-8.5-0.1-7.9-4.5
			C126.9,70.3,126.4,70.2,126.4,70.4L126.4,70.4z"/>
	</g>
</g>
<g>
	<g>
		<path class="st5" d="M149.5,102.1c6,3,2,10.7,1.3,15.4c-0.4,2.9,0.4,7.6,4,8.2c2.8,0.5,2.1-3.4,0.4-4.3c-1.2-0.6-2.7,0.9-1.4,1.5
			c0.1,0.1,0.6-0.1,0.4-0.2c1.2,0.5,1.6-0.9,1.9,0.8c0.3,1.6-2,1.6-3,0.7c-1.1-0.9-1.6-2.7-1.8-4c-0.4-2.8,0.7-5.4,1.4-8.1
			c1-3.7,1.1-8.4-2.8-10.4C149.7,101.8,149.2,102,149.5,102.1L149.5,102.1z"/>
	</g>
</g>
<g>
	<g>
		<path class="st6" d="M107.3,78.1c1-1.3,4.6,1.6,5.3,2.4c1.3,1.2,2.2,2.7,3,4.2c0.7,1.4,1.3,3,1.5,4.6c0.1,0.6,0.2,1.3,0.1,1.9
			c-0.5,3.1-6.3-0.1-2.2-1.8c0.3-0.1-0.2-0.2-0.4-0.2c-2.2,0.9-2.2,4,0.4,4.2c2.7,0.3,2.9-2.9,2.5-4.8c-0.7-3.4-2.5-6.8-5.2-9
			c-1-0.8-4.3-3.1-5.5-1.6C106.7,78.1,107.2,78.2,107.3,78.1L107.3,78.1z"/>
	</g>
</g>
<g>
	<g>
		<path class="st6" d="M132.4,76c2,1.6,4.4,1.1,6.7,1.3c2.2,0.2,3.8,1.3,4.5,3.4c0.3,0.8,0.3,1.6,0.2,2.4c-0.1,0.5-0.2,0.9-0.4,1.4
			c-0.4,1-1.2,0.8-2.4-0.5c0.2,0,0.6-0.1,0.3-0.2c-1.3-0.3-2.6,1-1.4,2.1c1.5,1.4,3.5-0.2,4.1-1.6c1-2.2,0.2-5-1.8-6.4
			c-2.8-2-6.7,0-9.3-2.2C132.7,75.8,132.3,75.9,132.4,76L132.4,76z"/>
	</g>
</g>
<g>
	<g>
		<path class="st6" d="M153.2,110.5c-1.4,3.6-6.6,12.7-0.9,15.3c2.8,1.3,6.1-2.4,2.8-3.7c-0.1-0.1-0.6,0.1-0.4,0.2
			c0.7,0.3,1.2,1.1,1.2,1.9c-2.5,1.5-4.1,1.4-4.9-0.1c-0.1-0.2-0.2-0.4-0.3-0.6c-0.5-1.3-0.5-2.7-0.3-4.1c0.6-3,2.1-5.9,3.2-8.8
			C153.7,110.3,153.2,110.3,153.2,110.5L153.2,110.5z"/>
	</g>
</g>
<g>
	<g>
		<path class="st6" d="M76.7,68.1c-2.2,4.9-7.8,0-10.8-1.1c-1.6-0.6-3.4-0.7-5.1-0.4c-4,0.7-7,4.5-5.8,8.7c0.7,2.3,4.5,5.4,6.7,2.8
			c0.8-0.9,0.6-2.5-0.4-3.2c-1-0.6-1.4-0.1-2.2,0.6c-0.2,0.1,0.3,0.2,0.4,0.1c1.2-1.1,2.2,0.2,2.1,1.5c-0.4,2.7-4.5,1.1-5.5-0.5
			c-0.8-1.3-1-2.9-0.8-4.4c0.9-5.2,7-6.5,11.3-4.6c2.9,1.4,8.5,5.3,10.7,0.6C77.3,68,76.8,67.9,76.7,68.1L76.7,68.1z"/>
	</g>
</g>
<g>
	<g>
		<path class="st6" d="M55,120.4c0.3,3.1,0.3,6.1-1.9,8.5c-1.6,1.8-3.5,3.1-4.7,5.3c-1.8,3.6-1.4,8.3,2.3,10.5
			c2.4,1.4,5.1,1.2,5-2.1c0-1-0.3-2-1.4-2.2c-0.8-0.1-1.6,0.4-1.5,1.2c0,0.2,0.5,0.2,0.5,0c1.2-0.8,1.8-0.7,1.8,0.3
			c0.1,0.3,0.1,0.7,0.1,1c0,0.5-0.1,1.1-0.3,1.6c-0.9,0.2-1.8,0.3-2.6,0.5c-1.7-0.2-3.3-2.3-3.9-3.7c-1.2-2.8-0.4-6,1.3-8.5
			c1.4-2.1,3.8-3.3,5-5.5s1-4.7,0.8-7.1C55.5,120.2,55,120.2,55,120.4L55,120.4z"/>
	</g>
</g>
<g>
	<g>
		<path class="st7" d="M79.1,88.2c3.8,3.8,8.4,2.1,10.9-2.3c1.8-3.1,2.6-6.9,5.4-9.2c2.2-1.7,5.4-1.4,7.2-3.6
			c0.1-0.1-0.4-0.2-0.5-0.1c-1.5,1.8-3.9,1.8-5.9,2.7c-1.6,0.8-2.7,2.2-3.6,3.6c-1.2,1.9-1.9,4.1-2.9,6.1c-0.6,1.1-1.4,2.2-2.3,3.1
			c-2.3,2-5.8,1.6-7.9-0.5C79.4,88,78.9,88.1,79.1,88.2L79.1,88.2z"/>
	</g>
</g>
<g>
	<g>
		<path class="st7" d="M121,97.3c2.2,3.1,4.7,5.9,7.5,8.3c2.2,1.9,4.8,4.2,7.9,4.3c2.1,0.1,3.8-1,4.7-2.9c1-2,1.8-4.8-0.1-6.4
			c-0.1-0.1-0.6,0-0.4,0.1c1.8,1.6,1,4.4,0,6.3c-2.2,4.2-6.8,2.4-9.7,0.2c-3.7-2.8-6.8-6.2-9.5-9.9C121.4,97.1,120.9,97.2,121,97.3
			L121,97.3z"/>
	</g>
</g>
<g>
	<g>
		<path class="st7" d="M133.1,109.3c1.4,1.9,3.9,2.7,6.2,2.2c3.2-0.7,5-3.7,5.6-6.7c0-0.2-0.5-0.2-0.5,0c-0.4,1.9-1.2,3.8-2.7,5.1
			c-2.4,2.1-6.2,2.1-8.2-0.6C133.5,109.1,133,109.1,133.1,109.3L133.1,109.3z"/>
	</g>
</g>
<g>
	<g>
		<path class="st7" d="M62.5,95.6c-3,2.2-6.6,1.6-9.9,0.4c-1.4-0.5-2.7-1.1-4.1-0.8c-3.2,0.7-6.2,4.4-7.1,7.4
			c-0.7,2.4-0.3,6,2.5,6.8c1.9,0.6,4.2-0.6,4.3-2.7c0-0.2-0.5-0.2-0.5,0c-0.1,2-2.2,3.6-4.5,1.9c-0.7-0.5-1.1-1.4-1.3-2.2
			c-0.5-1.6-0.2-3.3,0.4-4.8c1.7-4,5.8-7,10.1-5.4c3.5,1.3,7.4,1.9,10.6-0.5C63.1,95.6,62.6,95.5,62.5,95.6L62.5,95.6z"/>
	</g>
</g>
<g>
	<g>
		<path class="st7" d="M138.1,143.5c-1.7,3.1-6.2,14.8,1.4,13c1.9-0.4,4.7-2.2,4.2-4.5c-0.4-1.6-2.2-2.3-3.5-1.5
			c-0.2,0.1,0.2,0.3,0.4,0.2c2.5-1.5,2.8,1.6,2.5,2.6c-0.3,1.1-1.2,1.9-2.1,2.4c-1.6,0.9-2.1,0.8-3.7-0.3c-1.7-1.2-1.6-1-1.5-2.7
			c0.3-3.2,1.3-6.3,2.8-9.1C138.6,143.4,138.2,143.4,138.1,143.5L138.1,143.5z"/>
	</g>
</g>
<path class="st8" d="M81.3,168.8c0,0,1.1,10.2,1.6,15.9c0.5,5.6-2.8,18.5-2.8,18.5s7.4,35.1,32.8,35.1s34.7-34.7,34.7-34.7
	s-17.1-29.8-12.9-47.2"/>
<path class="st9" d="M82.3,170.5c-0.3,0.7,1.8,18.9-0.4,24.4c0.3,0.6,7.9,4.7,10.7,8.2c2.9,3.5,9.1,9,9.1,9s17.7-1.6,20,0
	c2.4,1.6,12.5-26.7,17.1-28c0,0-6.6-20.2-4.3-24.5C134.6,156.2,82.3,170.5,82.3,170.5z"/>
<path class="st10" d="M121,97.3c1.6,4,7.9,7.4,7.9,7.4s4.9,13.1,3.8,20.1c-1,7,1.9,14.9,3.1,20.1c1.3,5.2-1.3,16.5-2.7,19.2
	c-1.5,2.7-3.8,8.1-5.2,12.9c-1.5,4.8-6.4,14.6-22.1,15.4c-30.6,1.6-38.6-19.6-38.6-19.6c-3.2-3.7-6.3-22.7-6.6-26s-3.5-9.6-4.7-14.1
	c1.3-3.5-3.8-47.7,23.1-44.6c12.2,7.7,16.2,0.3,19.4-0.2c3.2-0.4,9.9-0.8,10.3,8.5C110.3,101.1,117.3,101.6,121,97.3z"/>
<path class="st11" d="M63.6,138.8c3.4-3.2,6.1-6.6,13-4.5L63.6,138.8z"/>
<path class="st11" d="M115.3,126.2c0,0-1.3-2.1-7.5-2.1c-3.7,0-5,1.4-6.5,2.4s-2.3,1.8-2.3,1.8L115.3,126.2z"/>
<path class="st12" d="M81.9,168.3c6.6-5.8,24.6-9.5,35.8-8.5c-2,12.4-17.8,28.5-36.7,9.7C81.9,168.3,81.9,168.3,81.9,168.3z"/>
<path class="st13" d="M99,128.2c3-0.7,3.3-2.3,4.6-3c1.3-0.7,8-1.3,11.7,1c0,0-2.6-0.3-5.8,2.4c-3.6,1.4-6.2,0.1-7.4,0.7
	s-3.3,1.3-3.6,1.1L99,128.2z"/>
<circle class="st14" cx="107.8" cy="125.7" r="1"/>
<path class="st13" d="M63.6,138.8c5.4-3.7,4.4-3.9,6.6-4.4s7.9,0,7.9,0s-4.4,3.2-7.1,3.8C68.2,138.8,63.6,138.8,63.6,138.8z"/>
<path class="st15" d="M70.9,138.2c3.1-1.3,3.7-2,3.1-4c-3.8-0.7-6.2,1.4-6.6,2C66.9,136.8,68.7,138.8,70.9,138.2z"/>
<circle class="st14" cx="71.1" cy="135.4" r="1"/>
<path class="st16" d="M78.7,128.1c2.9,0.7,5.9,2.2,6.3,9c0.3,6.8,0.5,14.3,0.3,15.9c-2.5-2.7-3.3-5.7-3.3-6.4s1-0.3,1.2-1.7
	s1-7.1-0.3-10.8s-2.3-3.8-4.2-4.8C77.8,128.1,78.7,128.1,78.7,128.1z"/>
<path class="st17" d="M96.6,154.9c2.9-3.9,4.7-4.9,7-5.1"/>
<g>
	<g>
		<path class="st18" d="M102.8,145.3c1.8,1.1,2.1,2.9,1.4,4.8c-0.1,0.4,0.9,0.4,1,0.1c0.7-2.2,0.4-4.1-1.7-5.3
			C103.2,144.8,102.3,145,102.8,145.3L102.8,145.3z"/>
	</g>
</g>
<path class="st17" d="M81.8,155.2c2.1,0.3,5.8,2.1,7.5,2.8c3.6,0.7,4.6,0,4.7-0.3"/>
<g>
	<g>
		<path class="st18" d="M81.3,150.6c-0.7,0.8-0.8,1.8-0.8,2.8c0,0.6,0,1.5,0.3,2c0.2,0.3,1.1,0.2,1-0.1c-0.3-0.5-0.3-1.3-0.3-1.9
			c0-1,0.2-1.9,0.8-2.7C82.5,150.4,81.5,150.3,81.3,150.6L81.3,150.6z"/>
	</g>
</g>
<path class="st19" d="M93.1,158c-1.2,1-5.2,2.2-8.3,0.8c-2.2-1-3.3-3.2-3.3-3.2s0.5-0.4,0.8-0.4"/>
<path class="st16" d="M104.3,144.4c5.7,3.7,12.4,9.7,16.9,11c-2.4,8.9-0.5,13,0,14.3s-3.3-4.1-0.6-13.7
	c-7.8-3.2-16.3-10.8-16.3-10.8V144.4z"/>
<path class="st20" d="M85.3,168.3c6.1-2.7,5.7-2,9.4-2.1c3.6-0.1,9-3,10.3-3.5s7.2-2,9.6-2c0,0-5.9,9.1-13.4,11.6
	c-7.6,2.4-14.6-1.3-16.3-2.9C85.3,168.3,85.3,168.3,85.3,168.3z"/>
<path class="st16" d="M105.8,192.5c14.2-4.7,15-14.4,15.2-14.6c0.1-0.3,1.1,0.3,1.1,0.3c-2.3,7.7-6.8,10.6-13.9,14.1"/>
<path class="st21" d="M74.2,174.2c-3.9-1.7-4.1-5.3-4.1-5.3s0.1-0.8,1.4,0s3.8,3.4,4,4.2S74.2,174.2,74.2,174.2z"/>
<path class="st16" d="M80.4,122.1c-0.3,3.2,0,6.5,0,6.5s1.1,1.2,1.1,0.5s0.1-5.7-0.1-5.8C81.2,123.2,80.4,122.1,80.4,122.1z"/>
<path class="st16" d="M88.6,125.1c2.4,2.2,4.1,0.6,4.1,0.6s0.7-0.6-1.7-0.6c-2.4,0-3.5-3.6-3.7-3.8
	C87.1,121.1,86.8,123.5,88.6,125.1z"/>
<path class="st22" d="M96.6,129.9c0.4,0.9,1.9,0.5,1.9,0.5l0.5-2.2C99,128.2,96.7,128.7,96.6,129.9z"/>
<path class="st22" d="M80.3,134.2c0,1.5-3.5,1.2-3.5,1.2l-0.2-1.1C76.6,134.3,80.2,133.6,80.3,134.2z"/>
<path class="st23" d="M133.9,114.6c0,0,2.6,0.7,9.2,6.5c-1.6,10,5.1,25-6.6,27h-0.4c0,0-0.2-3.6-0.8-5.2c-0.5-1.8-1.3-4.5-1.3-4.5
	s-1.5-6.4-1.5-8.2s0-4.9,0.2-5.9s-0.2-5.6-0.5-6.9c-0.2-1.1-0.5-2.5-0.5-2.5L133.9,114.6z"/>
<path class="st8" d="M133.4,134.3"/>
<path class="st19" d="M115.8,126.5c2.5,1,3.5,1.3,3.5,1.7s-0.1,1.2-0.4,0.9s-1.7-1.5-2.3-1.7"/>
<path class="st16" d="M115.3,127.6c-0.3,0.9,0.8,1.6,0.4,2.3c-0.5,0.8-1,1.5-1.6,2.2c-1,1-3,1-4.5,1.4c-1,0.3-2.2,0.5-3.4,0.5
	c-2.3,0.1-4.2,0.5-6.8-0.3C99.4,133.7,110.2,132.5,115.3,127.6z"/>
<path class="st16" d="M74.7,142.2c-5.7,4.4-8.4,1.5-9.4,1.1s-0.4-1.2-0.8-1.3c-0.4-0.2-1.6,0.1-1.5-1.6
	C63,140.4,68.7,143.7,74.7,142.2z"/>
<path class="st16" d="M91.9,132.1c1.5,6.2,3.7,7.5,3.7,7.5s2.4-1.8,1.9-3.5c0,0-2-0.1-2.3-0.8C95,134.6,91.9,132.1,91.9,132.1z"/>
<path class="st21" d="M135.8,144.9c-1.3-5.2-4.2-13.1-3.1-20.1c-5.9,2.4-0.8,16-0.8,19.2c0,3.2,0.3,8.5,3.8,7.9l0.3-0.4
	C136.2,149,136.2,146.6,135.8,144.9z"/>
<path class="st24" d="M94.7,174c-2.7-0.2,0.5,3.2,0.5,3.2s7.1,2.4,15.1-5c0,0,0.9-2.2-0.9-3.2C109.4,169,103.9,174.8,94.7,174z"/>
<path class="st16" d="M97.5,145.6c0,1.7,0.8,4.1,0.8,4.1S95.5,147.7,97.5,145.6z"/>
<path class="st13" d="M71.1,134.5c0.5,0.5,1.1,0.3,1.1,0.3S71.4,133.9,71.1,134.5"/>
<g>
	<g>
		<g>
			<path class="st25" d="M59.2,134.5c4-4.6,12.9-5.2,18.6-5c0.6,0-1.8-4.7-3.4-4.7c-5.7-0.1-15,0.5-19,5.1
				C54.5,131,58.6,135.2,59.2,134.5L59.2,134.5z"/>
		</g>
	</g>
	<g>
		<g>
			<path class="st25" d="M92.6,122.5c6.6-1.5,13.6-7.5,20.6-4.9c1.2-1.6,2.3-3.2,3.5-4.8c-7.6,1.5-15,3.3-21.1,8.4
				c0.3-0.1,0.6-0.3,0.9-0.4c-0.1-0.4-0.2-0.8-0.3-1.2c-0.3,0.6-0.6,1.3-0.9,1.9c0.2-0.2,0.3-0.5,0.5-0.7c-0.8,0.8-1.6,1.7-2.3,2.5
				c3.3-1.6,7.1-3.4,10.8-3.8c1.5-0.2,3.7-4.8,3.3-4.8c-2.4,0.3-4.4,1.1-6.6,2.1c-1.8,0.9-3.9,1.2-5.5,2.5c-1.5,1.3-4.1,4.3-2.7,6.2
				c0.2,0.2,0.9-0.4,0.9-0.4c5.6-4.6,12.7-6.1,19.7-7.5c0.8-0.2,4.2-4.5,3.5-4.8c-7.2-2.7-14.1,3.3-21,4.9
				C94.3,118.1,92.3,122.6,92.6,122.5L92.6,122.5z"/>
		</g>
	</g>
</g>
<g>
	<g>
		<path class="st26" d="M93.7,124.7c-1-0.7-1.3-2.2-0.8-3.3c0.4-1.1,1.5-2,2.6-2.4"/>
	</g>
	<g>
		<path class="st26" d="M94.9,124c-0.3-0.8-0.2-1.7,0.2-2.5c0.4-0.8,1-1.4,1.6-2c0.3-0.3,0.6-0.6,1.1-0.7"/>
	</g>
	<g>
		<path class="st26" d="M96.6,123.3c0.2-1.5,0.7-2.9,1.5-4.2c0.5-0.8,1.2-1.7,2.2-1.8"/>
	</g>
	<g>
		<path class="st26" d="M99,122.1c0.4-0.7,0.4-1.4,0.6-2.1c0.1-0.7,0.3-1.5,0.7-2.1c0.4-0.6,1-1.2,1.8-1.3"/>
	</g>
	<g>
		<path class="st26" d="M101.3,121.3c0.5-1.2,0.3-2.5,0.7-3.8c0.3-0.9,0.9-1.7,1.7-2.2c0.2-0.1,0.4-0.2,0.6-0.1"/>
	</g>
	<g>
		<path class="st26" d="M103.1,120.5c0.3-0.9,0.4-2,0.6-2.9c0.2-1,0.7-2,1.6-2.4c0.1-0.1,0.3-0.1,0.4-0.1"/>
	</g>
	<g>
		<path class="st26" d="M105,119.5c0.6-0.5,0.9-1.4,1-2.2s0.2-1.7,0.5-2.4c0.3-0.7,1.1-1.4,1.9-1.3"/>
	</g>
	<g>
		<path class="st26" d="M107.1,118.9c0.1-0.2,0.2-0.4,0.3-0.6c0.4-1,0.4-2.1,0.8-3.1s1.2-2,2.3-2"/>
	</g>
	<g>
		<path class="st26" d="M108.7,118.4c0.5-0.4,0.7-1.2,0.9-1.8c0.1-0.7,0.2-1.4,0.5-2s1-1.1,1.7-0.9"/>
	</g>
	<g>
		<path class="st26" d="M110.4,117.9c0.4-0.7,0.8-1.4,1.2-2.1c0.2-0.4,0.5-0.8,0.8-1.1c0.8-0.6,1.9-0.6,2.9-0.4"/>
	</g>
	<g>
		<path class="st26" d="M112.4,116.6c0.8-1.2,2.4-2,3.8-1.8"/>
	</g>
	<g>
		<path class="st26" d="M113.3,116.9c0.5-0.6,1.2-1,2-1.1c0.5-0.1,1.1,0,1.6-0.3"/>
	</g>
	<g>
		<path class="st26" d="M112,112.9c0.7-0.4,1.7-0.1,2.4,0.2c0.7,0.4,1.5,0.9,2.3,0.9"/>
	</g>
	<g>
		<path class="st26" d="M75.7,128.6c-0.2-0.7-0.6-1.4-1.2-1.8c-0.5-0.4-1-0.7-1.6-0.9c-0.5-0.2-0.9-0.5-1.4-0.7"/>
	</g>
	<g>
		<path class="st26" d="M74.2,129.3c-0.2-1.2-1.3-2-2.4-2.7c-0.6-0.3-1.1-0.7-1.7-1"/>
	</g>
	<g>
		<path class="st26" d="M72.1,129.2c-0.2-0.9-1-1.5-1.8-2s-1.6-1-2-1.8"/>
	</g>
	<g>
		<path class="st26" d="M70.9,129.3c-0.9-0.7-1.8-1.4-2.7-2.1c-0.5-0.4-1-0.9-0.8-1.5"/>
	</g>
	<g>
		<path class="st26" d="M69.1,129.3c-0.9-1.3-2.3-2.1-3.9-2.3c-0.3,0-0.6-0.1-0.7-0.3"/>
	</g>
	<g>
		<path class="st26" d="M67.7,129.1c-1.1-0.7-2.4-1.2-3.7-1.5c-0.5-0.1-1.1-0.2-1.4-0.7"/>
	</g>
	<g>
		<path class="st26" d="M66,130.2c-0.1-0.7-0.8-1.1-1.4-1.3c-0.7-0.3-1.4-0.5-2.1-0.7c-0.5-0.1-1.1-0.3-1.4-0.8"/>
	</g>
	<g>
		<path class="st26" d="M64.8,130.7c-0.4-0.9-1.4-1.5-2.3-1.8s-2-0.5-2.8-1"/>
	</g>
	<g>
		<path class="st26" d="M63.3,130.8c-0.9-0.8-2.1-1.3-3.3-1.3c-0.5,0-1.2,0-1.4-0.4"/>
	</g>
	<g>
		<path class="st26" d="M61.9,130.9c-1.1-0.9-3-0.1-4-1.1"/>
	</g>
	<g>
		<path class="st26" d="M61.3,132.1c-0.9-0.2-1.9-0.4-2.8-0.6c-0.5-0.1-1-0.2-1.4-0.5"/>
	</g>
	<g>
		<path class="st26" d="M58.9,132.6c-1,0.3-2.3-0.3-2.6-1.3"/>
	</g>
	<g>
		<path class="st26" d="M76.7,128.2c0.2-0.7-0.1-1.5-0.7-2c-0.5-0.5-1.2-0.8-1.9-1.1"/>
	</g>
	<path class="st15" d="M108.2,129c1.3,0,3.5-2.3,3.3-4.2c0,0-5.2-0.9-7.9,0.4C103.6,125.2,105.3,128.9,108.2,129z"/>
</g>
<circle class="st14" cx="108.4" cy="125.9" r="1"/>
<path class="st13" d="M108.3,125.1c0.7,0.6,1.5,0.4,1.5,0.4S108.8,124.4,108.3,125.1"/>
</svg>
