<?xml version="1.0" encoding="utf-8"?>
<!-- Generator: Adobe Illustrator 20.0.0, SVG Export Plug-In . SVG Version: 6.00 Build 0)  -->
<svg version="1.1" id="Layer_1" xmlns="http://www.w3.org/2000/svg" xmlns:xlink="http://www.w3.org/1999/xlink" x="0px" y="0px"
	 viewBox="0 0 196 266.7" style="enable-background:new 0 0 196 266.7;" xml:space="preserve">
<style type="text/css">
	.st0{fill:#F8E4E3;}
	.st1{fill:#BE1E2D;}
	.st2{fill:#7C5E52;}
	.st3{fill:#EFCBAD;}
	.st4{fill:#CFAE9A;}
	.st5{fill:#FED7B8;}
	.st6{opacity:0.5;fill:#DEB9A4;enable-background:new    ;}
	.st7{fill:#F4D0B1;}
	.st8{fill:#D7A688;}
	.st9{fill:#F2CEAF;}
	.st10{fill:#6B3720;}
	.st11{fill:#FDDBBC;}
	.st12{fill:#EBF4F0;}
	.st13{fill:#7D3708;}
	.st14{fill:#1D1611;}
	.st15{fill:#F0CBB0;enable-background:new    ;}
	.st16{opacity:7.000000e-02;fill:#443123;enable-background:new    ;}
	.st17{fill:#3B2314;}
	.st18{fill:#EB9E88;}
	.st19{fill:#F0DBCB;}
	.st20{fill:#F2B5A2;}
	.st21{fill:#F4CFB3;}
	.st22{fill:none;stroke:#DFB89F;stroke-width:0.75;stroke-linecap:round;stroke-miterlimit:10;}
	.st23{opacity:0.16;fill:#D7A688;enable-background:new    ;}
	.st24{fill:#DBB7A2;}
	.st25{opacity:0.5;}
	.st26{fill:#231F20;}
	.st27{fill:#EFC7AF;}
</style>
<title>badbitchcards</title>
<path class="st0" d="M17.1,8.5h161.6c4.7,0,8.5,3.8,8.5,8.5v232.4c0,4.7-3.8,8.5-8.5,8.5H17.1c-4.7,0-8.5-3.8-8.5-8.5V17
	C8.6,12.3,12.4,8.5,17.1,8.5z"/>
<path class="st1" d="M32.2,22.2c-0.9-0.5-1.9-0.7-2.9-0.7c-3.4,0-5.6,2.5-5.8,5.9c1-1.4,2.6-2.2,4.3-2.1c2.9-0.2,5.4,2,5.6,4.8
	c0,0.2,0,0.5,0,0.7c0,3.5-2.9,5.6-6,5.6S21,34.2,21,28.8c0-6.1,3.6-9.5,8.4-9.5c1.2,0,2.5,0.3,3.5,0.9L32.2,22.2z M27.4,34.2
	c1.9,0,3.4-1.5,3.4-3.4s-1.5-3.4-3.4-3.4c-1.8-0.1-3.4,1.3-3.5,3.2c0,0.1,0,0.2,0,0.3c0,1.9,1.5,3.4,3.4,3.5
	C27.3,34.2,27.4,34.2,27.4,34.2L27.4,34.2z"/>
<path class="st1" d="M22.7,42.9c2.6,0,3.9,1.2,5.1,3.6c1.3-2.4,2.6-3.6,5.1-3.6c2.8-0.1,5.1,2.1,5.2,4.8c0,0,0,0,0,0.1
	c0,4.9-5.2,9.8-10.3,14.7c-5.2-4.9-10.3-9.8-10.3-14.7C17.6,45,19.9,42.8,22.7,42.9L22.7,42.9z"/>
<path class="st1" d="M173.6,224.9c-2.6,0-3.9-1.2-5.1-3.6c-1.3,2.4-2.6,3.6-5.1,3.6c-2.8,0.1-5.1-2.1-5.2-4.8c0,0,0,0,0-0.1
	c0-4.9,5.1-9.8,10.3-14.7c5.2,4.9,10.3,9.8,10.3,14.7C178.7,222.8,176.4,225,173.6,224.9L173.6,224.9z"/>
<path class="st1" d="M164.1,244.4c0.9,0.5,1.9,0.7,2.9,0.7c3.4,0,5.6-2.5,5.8-5.9c-1,1.4-2.6,2.2-4.3,2.1c-2.9,0.2-5.4-2-5.6-4.8
	c0-0.2,0-0.5,0-0.7c0-3.5,2.9-5.6,6-5.6s6.4,2.2,6.4,7.6c0,6.1-3.6,9.5-8.4,9.5c-1.2,0-2.5-0.3-3.5-0.9L164.1,244.4z M168.9,232.4
	c-1.9,0-3.4,1.6-3.3,3.5c0,1.9,1.6,3.4,3.5,3.3c1.9,0,3.4-1.6,3.3-3.4c0-1.9-1.5-3.4-3.4-3.5C169,232.4,168.9,232.4,168.9,232.4
	L168.9,232.4z"/>
<path class="st2" d="M142.4,146.2c11.7,9,7.2,37.6,7.2,37.6S151.1,158.2,142.4,146.2z"/>
<path class="st3" d="M77.2,163.1c0,0,1.1,10.4,1.6,16.1c0.5,5.7-2.9,18.8-2.9,18.8s7.6,35.7,33.4,35.7s35.3-35.3,35.3-35.3
	s-14.4-18.2-8.5-36.4"/>
<path class="st4" d="M77.4,162.8c-0.3,0.7,2.8,27.5,3.1,28.1c0.3,0.6,5.3,3.6,8.2,7.1c2.9,3.5,9.2,9.2,9.2,9.2s18-1.6,20.4,0
	s12.9-25.6,17.5-26.9c0,0-1.3-15.4,0.3-18.3C136.2,158.5,77.4,162.8,77.4,162.8z"/>
<path class="st5" d="M110.9,69.5c33.4,0,32.9,16.6,32.9,40.4c0,9.4,0.8,14.9,0.8,16.5c0,1.7-1.4,4.7-1.1,8.1s-1.2,24-10.5,30.5
	c-8.1,8-7.7,9.4-9.7,11.8c-2.1,2.4-5.9,4.7-13.1,5.6c-7.2,0.9-12.7-2.9-17.1-7.7c-4.4-4.7-12.1-8.4-16.8-12.8
	c-5.8-5.6-5.5-11.8-5.5-17.3s-1.5-22.6-1.5-30.7S67.8,69.5,110.9,69.5z"/>
<path class="st6" d="M101.7,123.5c0,0,7.7-11.3-10.6-11.3c-16.1,0-11.9,6.9-11.2,10C80.5,125.3,88.9,126.5,101.7,123.5z"/>
<path class="st6" d="M116.8,122.1c0,0,1.6-8.8,4.7-11.7c6.3-1.6,16.5-1.2,20.2,2.4c-2.5,7.4-4.4,7.9-4.4,7.9S118.7,124,116.8,122.1z
	"/>
<path class="st7" d="M127.7,125.1c3.7-0.3,8.6-3.9,9.5-5.7c-10.9,1.2-18.8,3-18.8,3S119.4,125.4,127.7,125.1z"/>
<path class="st8" d="M119.3,120.6c0,0,2.2-3.4,5.9-4.4s7.9-0.1,10.3,2.1c2.5,2.1,1.7,1.2,1.7,1.2s-1.3,1.4-3.1,1.2
	c-1.8-0.2-13.9,2.2-14.8,2.3C118.4,123,117.9,121.9,119.3,120.6z"/>
<path class="st9" d="M142.4,146.2c0.4-2.2,0.5-3.3,0.5-3.3c-3.2,3.2-9.6,12.5-15.8,25.5c-6.1,13-14,12.6-19.8,12.6
	s-15.2-6.8-17.4-11c-2.2-4.2-13.9-16.9-19.2-22.2c0,0,0,5.3,2.2,10.1c0.8,1.5,1.8,2.9,3.3,4.3c4.7,4.4,12.4,8.1,16.8,12.8
	s9.9,8.6,17.1,7.7c7.2-0.9,11.1-3.2,13.1-5.6s1.6-3.8,9.7-11.8C138.3,161.5,141.1,153.3,142.4,146.2z"/>
<path class="st10" d="M104.2,146.9c0,0,1.8-0.8,3.2-0.8s2.2,0.8,2.2,0.8"/>
<path class="st6" d="M103.7,146.1c0,0,2.1-1.5,3.2-1.5s3.7,0.9,4.5,1.9s2.4,0.5,2.8,0s1.9-2.3,2.7-2.4s1.9-0.5,2.3-0.3
	s0.1,0.8,0,1.2s-0.9,0-1.5,0.5S115,149,113,149s-3-2.8-5.6-2.8c-2.4,0.4-2.4,0.7-3.1,0.8C103.6,147.1,103.7,146.1,103.7,146.1z"/>
<path class="st11" d="M109.5,121.7c-0.3,0.9,2.1,22,2.1,22s2.2,2,3,0c0,0-2.2-20.9-3-22C110.8,120.7,110.2,119.9,109.5,121.7z"/>
<path class="st7" d="M91.1,127c4.6,0,10.6-3.5,10.6-3.5l-18.4-2.2C83.3,121.3,82.7,126.5,91.1,127z"/>
<path class="st8" d="M101.5,122.4c0,0-2.3-4.8-7.7-4.7c-5.4,0.1-10.5,3.6-10.5,3.6s0.2,1.7,1.9,2.2c1.8,0.5,15.6,0.4,15.6,0.4
	S102.2,123.6,101.5,122.4z"/>
<path class="st12" d="M84.8,122.7c0,0,4.7-3.3,7.8-3.3s5.8,2.1,7,3.3c1.2,1.2,1.2,1.2,1.2,1.2s-2.4,1.6-9.1,1.6
	C85,125.4,84.8,122.7,84.8,122.7z"/>
<path class="st13" d="M91.7,125.4c3.1,0,4.9-4.3,3.8-5.5s-6.2-0.2-7.1,0.7C87.6,121.5,89.6,125.5,91.7,125.4z"/>
<path class="st12" d="M91.1,121.3c2.3-0.5,3.4-0.2,3.4-0.2S92.2,118,91.1,121.3z"/>
<circle class="st14" cx="92.2" cy="121.3" r="1.1"/>
<path class="st15" d="M68.6,127c3.9,2.3,2.8,8.5,5.9,12.2c2.1,4.3,5.1,9.7,6.8,10.7c-2.2,2-5.8-5.8-8.5-9.8
	C70.5,136.6,68.6,127,68.6,127z"/>
<path class="st16" d="M86.9,153.7c1.2-1.5,0.9-4.8,9.2-6.3C96.1,147.4,87.3,147.8,86.9,153.7z"/>
<path class="st11" d="M119.3,122.9c0,0,5.2,1.6,8.9,1s6.7-3.3,6.7-3.3h-0.8L119.3,122.9z"/>
<path class="st12" d="M119.3,122.9c0,0,2.8-4.3,6.5-5.1s6.9,1.7,7.6,2.3s0.7,0.5,0.7,0.5s-3.2,2.5-6.5,2.8
	C124.3,123.8,119.3,122.9,119.3,122.9z"/>
<path class="st13" d="M125.7,117.8c2-0.3,3.5,0.1,3.5,0.1s1.6,3.5-2.6,4.7c-4.2,1.2-4.1-3.3-4.1-3.3S124.7,117.9,125.7,117.8z"/>
<path class="st12" d="M125,119.5c2.3-0.5,3.4-0.2,3.4-0.2S126.2,116.2,125,119.5z"/>
<circle class="st14" cx="126.3" cy="119.4" r="1.2"/>
<path class="st17" d="M126.1,70.5c0,0-8.9,4-21.5,16.7s-38,38-38,38S63.4,45,122.5,59L126.1,70.5z"/>
<g>
	<path class="st18" d="M114.4,158.5c-1.3,0.4-9.1,0.6-13.5-0.6c-1.6-0.3-3.5-0.7-4.8-1l0,0c0,0,5.1,8.4,13.2,8.2
		c4.3,0,8.7-1.8,10.7-4.6c1.6-2.3,2.7-3.2,3.1-3.4c-0.8,0.5-1.8,1-2.9,1.1C117.7,158.3,115.7,158.1,114.4,158.5z"/>
	<path class="st18" d="M123.2,156.8L123.2,156.8L123.2,156.8z"/>
	<path class="st18" d="M124.8,155.6c-1,0.5-10.6-0.3-11.4-0.4c-0.7-0.1-1.9,0.7-1.9,0.7l-0.8-0.4c-1.3-0.9-13,0.3-16.9,0l1,0.9
		c0.2,0.1,0.6,0.2,1.3,0.3l13.2,6.7l13.9-6.7C124.2,156.2,124.8,155.6,124.8,155.6z"/>
	<path class="st18" d="M123.2,156.8c0,0,0,0-0.1,0.1C123.1,156.9,123.2,156.9,123.2,156.8z"/>
	<path class="st19" d="M96.1,156.8c1.3,0.3,3.2,0.7,4.8,1c4.3,1.3,12.2,1,13.5,0.6s3.4-0.2,5.9-0.5c1.1-0.1,2.1-0.6,2.9-1.1
		c0.1-0.1,0.1-0.1,0.1-0.1s-3.7,1-4.9,1c-1.1,0-6.6,0.6-8.3,0.6s-6.2-0.3-7.2-0.6s-5.5-0.9-5.8-1C96.7,156.7,96.1,156.8,96.1,156.8z
		"/>
</g>
<path class="st20" d="M105.5,160c2.4,0.2,7.9,0.4,9.5,0c0,0,1.1,1.1,0,1.3c-1.1,0.3-8.6,0.5-9.8,0S105.5,160,105.5,160z"/>
<path class="st15" d="M127.7,161l-0.9-0.4c0,0,0.6-1.4,1.4-3c0.7-1.3-0.4-3.7-1.2-4.9c-0.3-0.6-1-1.5-1.8-2.7
	c-1-1.4-2.1-3.2-3.3-5.1l0.8-0.5c1.2,1.9,2.4,3.7,3.3,5.1c0.8,1.2,1.5,2.2,1.8,2.7c0.9,1.3,2.1,4,1.2,5.9
	C128.3,159.6,127.7,161,127.7,161z"/>
<g>
	<g>
		<path class="st21" d="M86.8,156.6c0-3.9,2.4-6.9,6.1-8c2.6-0.7,6.2-0.4,7.8-2.9c0.4-0.5-1.8-2.5-1.9-2.3c-1.8,2.7-5.9,2.1-8.7,3.1
			c-3.4,1.2-5.3,4.4-5.3,7.9C84.9,155.3,86.8,156.7,86.8,156.6L86.8,156.6z"/>
	</g>
</g>
<path class="st22" d="M119.4,144.2c0,0,2.6-3.1,0.6-4.8"/>
<path class="st22" d="M103,140c-2.3,1.2,0,6.1,0,6.1s0.5,0.6,0.9,0.7"/>
<path class="st23" d="M118.5,124c0.3,0.3,7.1,7.4,15.3,1.1"/>
<path class="st23" d="M100.9,125.2c0,0-4.1,4.7-9.4,4.7c-5.2,0-6.7-2.2-6.7-2.2"/>
<g>
	<g>
		<path class="st24" d="M101.8,113.7c-2.7-1.4-5.6-2.4-8.7-2.5c-3.8-0.2-7.5,1.1-11.4,1.3c-1.6,0.1-4.4,4.9-3.1,4.9
			c0.1,0,0.3,0,0.4,0c1.7,0,4.4-4.9,3.1-4.9c-0.1,0-0.3,0-0.4,0c-1,1.6-2.1,3.3-3.1,4.9c7.2-0.4,12.6-2.5,19.5,1.1
			C99.6,119.2,102.9,114.3,101.8,113.7L101.8,113.7z"/>
	</g>
</g>
<g>
	<g class="st25">
		<path class="st26" d="M101.6,116.2c-0.7-1.3-1.8-2.4-3.1-3"/>
	</g>
	<g>
		<path class="st26" d="M100.1,116.3c-1.1-1.3-2.5-2.3-4-2.9"/>
	</g>
	<g>
		<path class="st26" d="M97.9,116.6c-1.1-1.2-2.2-2.5-3.7-3.1"/>
	</g>
	<g>
		<path class="st26" d="M95.5,116.5c-1-1-2.1-1.9-3.4-2.6"/>
	</g>
	<g>
		<path class="st26" d="M92.5,116.2c-0.6-1.3-1.8-2.1-3-2.9c-0.1-0.1-0.3-0.1-0.3,0"/>
	</g>
	<g>
		<path class="st26" d="M90.4,116.6c-0.8-1.2-2-2.1-3.3-2.6"/>
	</g>
	<g>
		<path class="st26" d="M87.6,116.5c-0.8-1.4-2.2-2.4-3.8-2.6"/>
	</g>
	<g>
		<path class="st26" d="M85.4,116.6c-1-1-2.3-1.7-3.8-2"/>
	</g>
	<g>
		<path class="st26" d="M82.6,116.4c-0.8-0.7-1.8-1.2-2.8-1.2"/>
	</g>
</g>
<g>
	<g>
		<path class="st24" d="M141.2,110.9c-6.5-2.9-11.8-2.3-18.8-1.8c-1.5,0.1-3.8,4.9-3.2,4.8c3-0.3,6-0.7,9-0.7c3.4,0,6.2,1,9.3,2.4
			C138.8,116.2,141.8,111.2,141.2,110.9L141.2,110.9z"/>
	</g>
</g>
<g>
	<g>
		<path class="st26" d="M120.8,113.1c0.6-1.4,1.8-2.5,3.2-2.9"/>
	</g>
	<g>
		<path class="st26" d="M122.6,113.1c1-1.2,2.2-2.3,3.4-3.3c0.3-0.3,0.7-0.5,1.1-0.5"/>
	</g>
	<g>
		<path class="st26" d="M125.3,113.1c0.6-0.7,1-1.4,1.7-2.1c0.9-0.8,2.1-1.3,3.3-1.7"/>
	</g>
	<g>
		<path class="st26" d="M128.8,112.6c-0.1-0.2,0.2-0.5,0.4-0.6c0.7-0.5,1.3-1.1,2-1.6c0.8-0.7,1.8-1.3,2.8-1.3"/>
	</g>
	<g>
		<path class="st26" d="M132.3,111.4c1.1-1.2,2.7-1.9,4.4-2"/>
	</g>
	<g>
		<path class="st26" d="M133.8,112.1c1.4-1,3.1-1.5,4.9-1.5"/>
	</g>
	<g>
		<path class="st26" d="M136.5,112.6c0-0.4,0.4-0.6,0.7-0.7c1.1-0.5,2.3-0.9,3.4-0.5"/>
	</g>
	<g>
		<path class="st26" d="M138.5,112.6c0.7-0.4,1.5-0.4,2.3-0.3"/>
	</g>
</g>
<path class="st17" d="M170.8,153.2c-2.1-3.2-8.6-10.7-9.2-15.1c-0.6-4.5,1.5-15.4-0.9-17.9c-2.4-2.6,3.9-4.7,2.4-11.1
	s-1.8-15.9-6.2-22.5c-4.5-6.5-22.6-49.1-40.5-41.9c0,0-22.6-10.1-42.5,5.4c-20,15.4-23.6,33.8-29.5,45.7S23.3,127,23.3,136.6
	c0,6.9,0,18,5,26.8c0,0,10.6-6.6,12.2-10c0,0-2,15.4-1.1,20.2c11.3,6.7,15.4,8.4,15.4,8.4s15.3,1.1,21.3,0s10.6-1.3,6.5-15.7
	c-14.1-8.7-11-25.1-12.9-42.4c0,0,42.8-49.1,56.3-53.4c0,0,15.6,4.1,17.3,22.7c-1.7,19.7,1.5,30.5,1.2,32.6s-1.6,5.9-1.2,12.5
	c-1,7.1-5.4,20.3-12.7,28.5c-7.2,8.2,3.1,18.7,18.9,17C165.5,182.1,172.9,156.5,170.8,153.2z M26.5,139.6c-2.9,1.8,0-20.6,12-25.8
	C27.2,125.2,26.5,139.6,26.5,139.6z M32.3,157.4c-8.4-12.5,2.5-26.4,6.6-21.9C43.2,140.3,38.1,154.5,32.3,157.4z M159.5,116.1
	c0,0-3.1-4.2,0-10V116.1z"/>
<path class="st2" d="M112.2,50.7C84.9,26.6,56.9,87.2,56.9,87.2S86.8,35.1,112.2,50.7z"/>
<path class="st27" d="M119.6,51.3c0,0,6.4,12.4,7.5,15.4C127.1,61.6,119.6,51.3,119.6,51.3z"/>
<path class="st27" d="M104,64.8c-10.3,15.2-26.8,36-27.8,41.3C80.7,78.3,104,64.8,104,64.8z"/>
</svg>
