<?xml version="1.0" encoding="utf-8"?>
<!-- Generator: Adobe Illustrator 20.0.0, SVG Export Plug-In . SVG Version: 6.00 Build 0)  -->
<svg version="1.1" id="Layer_1" xmlns="http://www.w3.org/2000/svg" xmlns:xlink="http://www.w3.org/1999/xlink" x="0px" y="0px"
	 viewBox="0 0 196 266.7" style="enable-background:new 0 0 196 266.7;" xml:space="preserve">
<style type="text/css">
	.st0{fill:#F8E4E3;}
	.st1{fill:#F5D8BC;}
	.st2{fill:#D9C2AD;enable-background:new    ;}
	.st3{fill:#EACFBA;}
	.st4{fill:#6B3720;}
	.st5{fill:#F0C8A2;}
	.st6{fill:#F0CFB5;}
	.st7{fill:#FEDEC7;}
	.st8{fill:#E6A592;}
	.st9{fill:#F5E0CD;}
	.st10{fill:#F7F8F9;}
	.st11{fill:#CAD1D3;}
	.st12{fill:#EED1BF;}
	.st13{fill:#1D1611;}
	.st14{fill:#EED1B4;}
	.st15{fill:#CBA777;}
	.st16{fill:#DAAF6A;}
	.st17{fill:#F1D4B9;}
	.st18{fill:#F4D3BE;}
	.st19{fill:#F0CFB6;}
	.st20{fill:#BBA4A0;}
	.st21{fill:#FFEBC6;}
	.st22{fill:#DFCCAD;}
	.st23{fill:#BE1E2D;}
	.st24{fill:#3E3B39;}
</style>
<title>badbitchcards</title>
<path class="st0" d="M17.1,8.5h161.6c4.7,0,8.5,3.8,8.5,8.5v232.4c0,4.7-3.8,8.5-8.5,8.5H17.1c-4.7,0-8.5-3.8-8.5-8.5V17
	C8.6,12.3,12.4,8.5,17.1,8.5z"/>
<path class="st1" d="M89.9,205.3c14.2,3.5,24.3-7.1,27.2-9.4s6.7-6.3,9-8.2c2.3-1.9,8.7-10.5,11.3-18.3c4.6,0,8.9-3.8,11.4-13.3
	c4.9-7.4,7.6-12.4,7.4-15.1S147,77,147,77H77.6l-25.7,34.5c0,0-2.9-2.8-4.3-2.8s-5.4,2.3-4.8,11.7s3,15.7,3.2,18.7
	s2.2,10.3,5.6,10.4s4-2.6,4-2.6s-0.6,13,0.4,15.7s3.3,8.5,4.8,12.4s9.1,20.1,16.6,24C85.8,204.1,89.9,205.3,89.9,205.3z"/>
<path class="st1" d="M60,168.6c0,0,1.2,11.3,1.8,17.5s-3.1,20.5-3.1,20.5s8.2,38.8,36.3,38.8s38.5-38.4,38.5-38.4s-14.2-14.8-9.6-34
	"/>
<path class="st2" d="M111.7,131.9c-0.4-0.9,0-2,1-2.4c0,0,0.1,0,0.1-0.1c1.8-0.8,6.8-5.8,13.4-2.8s6.8,8.4,6.8,8.4l-1.1,0.4
	c0,0-18.7-3.4-19.6-2.8L111.7,131.9z"/>
<path class="st2" d="M73.9,124.2c0,0-1.1-1.6-0.7-2.1s5.5-5.2,11.4-3.8s7.2,4.9,8.2,6.8c0.4,0.9,1,1.7,1.7,2.3
	c0.3,0.4-0.4,2.4-1.6,2.1S73.9,124.2,73.9,124.2z"/>
<path class="st3" d="M75.1,153.9c-0.1,0.3-7.3,2.1-7.3,3s2.7,3.2,4.1,3.5s4.3-5.2,4.9-6.4s5.9-9,11.2-10c0,0,2-1.8,1.3-2.3
	S79.4,144.1,75.1,153.9z"/>
<path class="st3" d="M120.8,187.1c6.3-6.8,10.3-9.6,11.6-15.9c0,0,1.8,4.3-5.1,11.3s-8.4,8.6-8.4,8.6L120.8,187.1z"/>
<path class="st4" d="M87.5,150.1c1.8,0.2,5.7,0.5,8.6,6.2"/>
<path class="st5" d="M96.6,157.6c0.9,0.7,2.4,0.8,3.5,0.8c1,0.2,2.1-0.2,2.7-1c0.2-0.3-0.8-0.4-1-0.1c-0.5,0.7-1.3,0.7-2.1,0.6
	c-0.8,0-1.6-0.2-2.3-0.6C97.2,157.2,96.2,157.4,96.6,157.6L96.6,157.6z"/>
<path class="st4" d="M103.4,156.5c1.7-1.3,4.4-3.1,7.8-2.5"/>
<path class="st6" d="M109.5,144c-0.1,1.2-0.3,2.3-0.6,3.5c0,0,1.9-1.1,2.5-1c0,0-0.9-1.1-1.2-1C110.2,145.5,110.2,143.8,109.5,144z"
	/>
<path class="st7" d="M101.3,140.6c-1.7,3.4-4.2,9.7-4.2,11.1s1.7,4,2.7,3.4s5.2-8.7,4.8-10.9C104.3,142.4,103,141,101.3,140.6z"/>
<path class="st8" d="M93.2,178.6c16,2.1,23.5-5.7,26.6-9.9c0,0-18.5-8.4-22.3-6.1c-1.5-1-3.2-1.7-5-1.9c-2.6-0.3-15.1-1.3-18.6-0.5
	C73.9,160.2,75.9,176.7,93.2,178.6z"/>
<path class="st9" d="M74.9,160.9c5.3,0,17.6,4.5,20.2,5.4s9-0.9,22.3,2.2c-6.7,5.5-15.6,7.5-24,5.3
	C79.2,170.1,74.9,160.9,74.9,160.9z"/>
<path class="st10" d="M75.9,123.9c3.4-2.3,10.2-4.7,15.5,3c0,0-0.1,0.9-0.5,1.1c0,0-5.3,0.6-8.2-0.3C80.2,126.7,78,125.4,75.9,123.9
	z"/>
<path class="st10" d="M114.8,131.7c3.5-2.3,8.8-5.4,15,2.8c0,0-5.3,0.9-8.5,0.4c-2.1-0.4-4.2-1.2-6.1-2.2L114.8,131.7z"/>
<path class="st11" d="M121.3,135c3.3,0.8,3.9-0.8,4.1-2.2s-0.3-3.6-3.8-3.6s-3.8,1.6-3.7,3S118.2,134.2,121.3,135z"/>
<path class="st12" d="M129.8,134.6c0,0-5.3,0.9-8.5,0.4c-2-0.4-4-1.1-5.8-2l-0.3,0.3c0,0,4,3.2,7.6,3.2c3.1,0.1,6.1-0.2,9.1-1
	L129.8,134.6z"/>
<path class="st12" d="M82.6,127.6c-2.4-0.9-4.7-2.2-6.7-3.7l-2.2,1.1c0,0,6.1,4.4,9.3,5s7.6-1.4,7.6-1.4l0.2-0.7
	C90.8,127.9,85.6,128.5,82.6,127.6z"/>
<path class="st11" d="M83.5,127.8c3,1,4.4-0.4,4.7-2.1s0.2-3.1-3.1-3.8s-4.2,0.6-4.4,1.9S80.3,126.7,83.5,127.8z"/>
<circle class="st13" cx="121.8" cy="131.9" r="1.3"/>
<circle class="st13" cx="84.7" cy="124.6" r="1.4"/>
<path class="st10" d="M120.6,131.2L120.6,131.2c0.1,0,1.4,0.4,1.9-0.3l-0.1-0.2C121.8,130.3,121,130.5,120.6,131.2
	C120.6,131.1,120.6,131.1,120.6,131.2L120.6,131.2z"/>
<path class="st10" d="M85.7,123.7c-0.5-0.6-1.4-0.7-1.9-0.2c-0.1,0.1-0.1,0.1-0.2,0.2C83.7,123.8,84.4,124.8,85.7,123.7L85.7,123.7z
	"/>
<g>
	<path class="st14" d="M68.6,114.8c4.1-1.2,8.5-3,12.9-2.3c3.8,0.6,7.3,2.8,10.7,4.4c0.8,0.4,3.1-3.4,2.8-3.6
		c-3.9-1.8-7.9-4.4-12.3-4.6c-4-0.2-7.9,1.3-11.6,2.4C70,111.6,68.8,114.8,68.6,114.8L68.6,114.8z"/>
</g>
<g>
	<path class="st14" d="M118.2,116.7l-0.1-0.1l-1.8,2.8c1-0.9,3.9,0.3,4.8,0.8l2.6-3.6c-2,0-4,0.3-5.9,0.7c-0.7,0.2-3.2,3.4-2.6,3.6
		c4.4,0.9,8.5-0.5,13,0.7c4.3,1.1,8.4,2.6,11.7,5.6c0.6,0.5,3.5-2.9,2.8-3.6c-3.4-3-7.4-4.4-11.7-5.6s-8.6,0.3-13-0.7l-2.6,3.6
		c1.9-0.4,3.9-0.7,5.9-0.7c0.7,0,3.3-3.2,2.6-3.6c-2.4-1.2-4.8-1.4-6.9,0.4c-0.4,0.4-2,2.1-1.8,2.8l0.1,0.3c0,0.1,0.1,0.2,0.2,0.2
		c0,0,0,0,0.1,0h0.3C116.8,120.4,118.8,116.7,118.2,116.7L118.2,116.7z"/>
</g>
<path class="st15" d="M69,113.2c0.9-0.8,2.2-1,3.3-0.6"/>
<path class="st15" d="M70.8,111.5c1.1-0.3,2.3,0.1,3,1"/>
<path class="st15" d="M72.6,110.7c1.1-0.2,2.2,0.3,2.7,1.3"/>
<path class="st15" d="M74.8,109.7c1.2,0.1,2.3,1,2.6,2.2"/>
<path class="st15" d="M76.9,109.5c0.4-0.3,0.9,0,1.2,0.3c0.5,0.5,0.9,1.1,1.2,1.7"/>
<path class="st15" d="M79,108.9c1,0.6,1.9,1.5,2.3,2.6"/>
<path class="st15" d="M81.3,109.4c1.2,1,1.9,2.4,2.2,3.9"/>
<path class="st15" d="M82.9,109.4c1.1,1.2,1.8,2.6,2.1,4.2"/>
<path class="st15" d="M85,110.3c0.8,1,1.2,2.2,1.3,3.5"/>
<path class="st15" d="M86.7,110.3c1.2,1.2,1.8,2.8,1.6,4.5"/>
<path class="st15" d="M88.9,110.8c0.8,1.3,1.2,2.8,1.2,4.3"/>
<path class="st15" d="M91.1,115.3c0.4-1.3,0.2-2.8-0.7-3.8"/>
<path class="st15" d="M92.4,115.4c0.2-1,0.2-2.1,0-3.1"/>
<path class="st15" d="M93.7,114.9c0.2-0.7,0.2-1.5,0-2.2"/>
<path class="st15" d="M94.4,115.1c0.1-0.2,0.2-0.5,0.1-0.7"/>
<path class="st15" d="M116.2,119.8c0.2-1.6,1.4-2.8,3-3"/>
<path class="st15" d="M117.4,120c0.8-1.6,2.1-2.8,3.7-3.5"/>
<path class="st15" d="M119.6,119.8c0.5-1.5,1.7-2.6,3.2-3.2"/>
<path class="st15" d="M121.3,119.9c1-1.5,2.2-3.2,4.1-3.3"/>
<path class="st15" d="M123.3,119.8c0.7-1.4,1.9-2.5,3.5-2.9"/>
<path class="st15" d="M125.3,120c0.7-1.6,2.3-2.6,4-2.6"/>
<path class="st15" d="M127.7,119.9c0.4-1.4,1.7-2.2,3.1-2"/>
<path class="st15" d="M129,120.2c1.1-0.8,2.4-1.7,3.7-1.5"/>
<path class="st15" d="M130.9,120.6c0.5-1.1,1.9-1.6,3-1.1"/>
<path class="st15" d="M132.8,120.8c0.9-0.4,1.9-0.4,2.8-0.2"/>
<path class="st15" d="M134.5,121.7c0.8-0.3,1.7-0.5,2.6-0.4"/>
<path class="st15" d="M136.1,122.5c0.8-0.4,1.7-0.5,2.5-0.1"/>
<path class="st15" d="M137.7,123.6c0.3-0.4,0.8-0.6,1.3-0.4"/>
<path class="st15" d="M138.7,124.7c0.3-0.2,0.7-0.2,1-0.1"/>
<path class="st15" d="M139.3,125.8c0.2-0.1,0.5-0.2,0.8-0.1"/>
<path class="st16" d="M139.9,127l0.2-0.1"/>
<path class="st5" d="M66.1,119.4c0,0,2.4,3.7,5,3.5C71.1,122.9,68.1,123.3,66.1,119.4z"/>
<path class="st5" d="M70.7,124c0,0-3.7,0.6-4.7-1.4C66.1,122.6,66.6,124.8,70.7,124z"/>
<path class="st5" d="M72.5,128.9c0,0-3-1.3-4.8-0.2C67.6,128.6,69.2,127.5,72.5,128.9z"/>
<path class="st5" d="M136.1,135.8c0,0,4.1,1.1,6.1-1.8C142.2,134,140.8,137.1,136.1,135.8z"/>
<path class="st5" d="M135,137.7c0,0,7,2.9,9,0.6C143.9,138.3,142.3,141,135,137.7z"/>
<path class="st5" d="M133.6,141.1c0,0,6.1,1,6.9,3.6C140.5,144.8,140.7,141.2,133.6,141.1z"/>
<path class="st17" d="M113.6,134.8c-0.5,0.8-0.8,1.7-0.8,2.6c0,0,10.3,8,19.7,3.3C132.4,140.7,117.7,141.5,113.6,134.8z"/>
<path class="st17" d="M91.1,132.3c0,0-0.2,3.1-1.2,3s-15.4-1.6-17.2-5.4C72.7,129.9,85.3,135,91.1,132.3z"/>
<path class="st6" d="M112.8,122.2c-2.8,2-7.7,6.1-4.8,14.4c0.7,0.3,1.6,0.1,2.1-0.5c-1.9-4.1-0.7-8.9,2.8-11.7
	C112.9,124.5,113.7,122.8,112.8,122.2z"/>
<path class="st6" d="M94.9,120c1.1,0.1,2.2,0.2,3.3,0.5c0.5,0.2,2.8,8.4,0.2,12.3c0,0-2-0.7-1.8-1.3S99.6,127.4,94.9,120z"/>
<path class="st18" d="M59.8,128.6c0,0-3.3,16.9-3.3,22.2c0.1,3.7,0.3,7.4,0.8,11.1c0,0,17.5-12.2,20-20.3
	C77.3,141.7,65.2,123.2,59.8,128.6z"/>
<path class="st18" d="M141.1,147.2c0,0-2.8,8.6-2.8,11.9s-2.8,11.4-2.8,11.4l-9.7-23.6L141.1,147.2z"/>
<path class="st5" d="M49.1,126.3c-0.5,4.4-0.3,9.1,1.9,10.3s0,0.5,2.1,1.2s1.7,0.2,1.5-0.2c-0.4-0.9-0.7-1.9-0.9-2.9
	c-0.1-1.1,0.4-5.9,1.2-7.4s0.3-3.7-0.3-2.9s-1.2-1-1.2-1L49.1,126.3"/>
<path class="st5" d="M151.5,143.8c-1.1,1.1-1.3,4.9-2.3,6.9s-4.5,4.6-5.1,5.6s4.9-2.9,5.6-5s2.1-6.8,2.1-6.8L151.5,143.8z"/>
<path class="st19" d="M91.7,126.8l1.6,1.6c0,0,0.2,0.9-0.3,1c0,0-2.3-0.3-2.8-1L91.7,126.8z"/>
<path class="st19" d="M114.5,131.4l-2.8,1.1c0,0-0.3,0.5,0,0.7c1.3,0,2.6,0,3.8-0.1L114.5,131.4z"/>
<path class="st3" d="M89,208.5c17,1.2,32.4-5.6,36.8-14c-0.6-1.8-1-3.7-1.3-5.6c-2.3,2.5-4.8,4.8-7.3,7c-2.9,2.3-13,12.8-27.2,9.4
	c0,0-4.1-1.1-12.4-6.4c-7.5-3.9-15.1-20.1-16.6-24c0.7,3.1,1,6.2,1.1,9.4C68.1,197.4,76,207.6,89,208.5z"/>
<path class="st20" d="M114,167.9c0.7,0.6,1.2,1.3,1.7,2.1c0.6-0.4,1.2-0.9,1.8-1.4C116.2,168.3,115.1,168.1,114,167.9z"/>
<path class="st20" d="M74.9,160.9c0.4,0.8,0.9,1.5,1.4,2.2c0.3-0.8,0.8-1.4,1.4-1.9C76.8,161.1,75.8,161,74.9,160.9z"/>
<path class="st21" d="M138.4,55.9c-3.8-3.2-7.7-4.1-8.6-5.3s-5.4-5.1-7.5-5.1s-9.9-4.7-18.2,0c0,0-4.1-1.7-6.2-1.1s-6.2,2.8-6.9,4.3
	c0,0-5.3-4.7-11.4,2.1c0,0-29.5-2.6-28,37.5c0,0-4.6,17.6-3.9,20.3s-2.5,7.4,1.5,17.6l3.9,10.1c0,0,0.2-10.5,0.4-14.4
	c0,0,0.8,1.5,1.1,2.4s-1.1-8.6,2.1-11.8s7.3-5.4,8.3-8.1l1.2,4.1c0-0.9,0.4-6.4,2.4-8.3s6-4.9,6-4.9s0.6,2.8,1.3,3.2
	s4.5-5.4,5.6-6.4s24.6-5.1,30.2-10.5c0,0,5.9,0.8,4.9,2.4C116.1,84.8,103,95,99.8,95.2L99.6,98c0,0,17.1-6.4,22.3-12.4
	c0,0,8.1,0,9-1.5c0,0,2.6,2.4,4.5,1.3c0,0-9,7.5-4.9,14.4c0,0,2.8-6.6,6.8-7.1c0,0-2.1,15.4,0.4,18.6c0,0,0.8-14.8,2.4-16.7
	c0,0,1.1,17.4,3.9,24.4s3.9,19.1,2.8,22s-3.8,10.1-3.8,10.1l2.1,2.8c0,0,4.5-10.9,6-12.2c0.9-0.8,1.9-1.4,3-1.9
	c-0.5,2.2-0.9,4.4-1.1,6.6c0,1.7,5.3-5.4,5.8-15s6.6-14.4,1.9-24.8c0,0,4.9-14.6-2.1-21.6c-0.2-0.2-0.8-12-9.6-17.6
	c0,0,7.3,3,9,10.5c0,0,1.9-7.3-10.5-13.7c0,0-0.4-3.9-3-4.5C144.6,59.7,140.3,54.4,138.4,55.9z"/>
<g>
	<path class="st22" d="M132.6,76.4c-9.5,2.4-14.2-7.7-13.3-15.6c0.1-0.6-1.3,0.7-1.3,0.7c-0.7,0.6-1.2,1.4-1.6,2.3
		c-2.1,7.6,4.6,15.1,11.9,15.9c1,0.1,3-3.5,2.5-3.6c-6.8-0.7-13.5-7.9-11.6-15l-2.8,3c-0.9,8.1,4.1,18.4,13.8,16
		c0.8-0.2,1.6-1.3,2-2C132.3,77.9,133.2,76.3,132.6,76.4L132.6,76.4z"/>
</g>
<g>
	<path class="st22" d="M81.1,82.1h7.2c1.4,0,2.9,0.2,4.1-0.6c2.5-1.4,4-4.9,5.3-7.3c0.9-1.6,2.9-6-1-5.1c-1,0.4-1.9,1-2.6,1.9
		c-1.9,2-2.8,4.4-5.4,6c-0.5,0.3-3,2.9-2.4,3.5c1.1,1,2.2,0.3,3.1-0.5c0.9-0.9,1.7-1.9,2.3-3.1c0.2-0.6,0.6-0.7,1.3-0.4l1-0.2
		c0.4-1.6,1.1-3.1,2.1-4.3l-1.8,1c-0.1,0.9-0.5,1.8-1,2.6l1.4-0.3l2.1-3.6l-2.5,2.3c0.1,0.7,0,1.4-0.3,2.1l1.8-1.3
		c0.1-1.1,0.4-2.2,1-3.2l-2.5,2.3c0.1,0.9,0,1.8-0.4,2.6l1.8-1.1l1.2-2.7L95,74.5c0,0.9-2.2,1.1-2.8,1.4c-0.6,0.4-1.1,0.9-1.5,1.4
		C90,78.1,88.5,80,89,81.1c1.5,3.4,5.4-4.4,5.9-5.3l-2.6,2.4c-0.4,1.1-0.7,2.3-0.9,3.5l2.9-3.3c0-0.8,0.1-1.6,0.4-2.3
		c0.4-1.1-2,1.3-2.1,1.6L92.4,78c-0.1,0.2-1,1.3-0.7,1.6l0.3,0.2c0.1,0,0.3,0,0.4-0.1c2.2-1.6,2.9-3.6,3.6-6.2
		c0.2-0.9-0.8,0.1-1,0.2c-0.8,0.7-1.4,1.5-1.8,2.5c-0.2,1-0.5,1.9-0.8,2.9l2.4-3.1L94.4,76l-0.7,1.6l0.2-0.2l-2.1,1.6
		c-0.3,0.9-0.5,1.8-0.5,2.8c0,0.6,1.4-0.8,1.4-0.9c0.7-0.6,1.2-1.5,1.4-2.4c0.1-1,0.4-2,0.8-3c0.3-0.8-0.7,0-0.8,0.1
		c-0.8,0.6-1.4,1.4-1.8,2.3c-0.3,0.6-0.6,1.2-0.8,1.8c0.9-1.6,0.9-2-0.1-1.1c-1,0.5-0.9,0.6,0.3,0.3c1.1-0.2,2.2-0.8,3-1.6
		c1.8-1.5,2.9-3.7,3-6c0-0.6-2.1,1.6-2.2,1.8c-1.1,1.6-1.9,3.3-2.5,5.1c-0.4,1.1,1.6-0.9,1.8-1.1c1.5-2,2.6-3.9,2.5-6.5
		c0-0.6-2.3,2-2.5,2.3c-0.9,1.6-1.5,3.4-1.7,5.2c-0.1,0.6,1.8-1.3,1.8-1.3c1.5-1.7,2.3-3.8,2.4-6c0-0.6-2.3,2-2.5,2.3l-2.1,3.7
		c-1.2,2.1,0.8,0.4,1.4-0.3c1.5-1.7,2.5-3.7,3-5.9c0.2-1.2-1.6,0.9-1.8,1.1c-1.9,2.3-3.3,4.9-4.1,7.8c-0.2,0.9,0.8-0.1,1-0.2
		c0.8-0.8,6.3-7.1,3.5-7.5c-1.2-0.2-2.8,2-3.5,2.8c-0.6,0.7-1.2,1.5-1.7,2.4c-0.8,1.3-0.4,1.5-1.5,0.5l-2.4,3.5
		c1.8-1.1,3.4-2.4,4.8-4c0.8-1,2.7-5.2,4.3-3.4c1,1.1-0.7,3.5-1.4,4.7l-0.5,0.9c-0.3,0.5-0.3,0.6-0.2,0.2c0.6-0.2-0.9-0.2-1-0.2
		c-3-0.2-6.2,0-9.2,0C82.4,78.6,80.6,82.2,81.1,82.1L81.1,82.1z"/>
</g>
<g>
	<path class="st22" d="M153,95.7l1.1,6.5c0.1,0.8,1.5-0.5,1.7-0.7c0.5-0.6,1.4-1.6,1.3-2.5l-1.1-6.6c-0.1-0.8-1.5,0.5-1.7,0.7
		C153.8,93.8,152.9,94.8,153,95.7L153,95.7z"/>
</g>
<path class="st23" d="M28.9,18.7c4.9-0.1,9,3.9,9,8.8c0,0.2,0,0.3,0,0.5c0.1,2.4-0.8,4.8-2.5,6.6l2.1,2.4l-1.7,1.5l-2.2-2.4
	c-1.4,0.8-3,1.3-4.7,1.3c-4.9,0-9-3.9-9-8.9c0-0.2,0-0.3,0-0.5c-0.2-4.9,3.6-9.1,8.5-9.3C28.5,18.7,28.7,18.7,28.9,18.7z M28.9,35.1
	c1.1,0,2.2-0.3,3.1-0.8l-3.1-3.5l1.7-1.5l3.1,3.5c1.1-1.4,1.6-3.1,1.6-4.9c0-4.7-3.1-7-6.5-7s-6.5,2.4-6.5,7S25.5,35.1,28.9,35.1z"
	/>
<path class="st23" d="M168.5,251.1c-4.9,0.1-9-3.9-9-8.8c0-0.2,0-0.3,0-0.5c-0.1-2.4,0.8-4.8,2.5-6.6l-2.1-2.3l1.7-1.5l2.2,2.4
	c1.4-0.9,3-1.3,4.7-1.3c5.1,0.2,9.2,4.5,9,9.6C177.3,247,173.3,250.9,168.5,251.1L168.5,251.1z M168.5,234.7c-1.1,0-2.2,0.3-3.1,0.8
	l3.1,3.5l-1.7,1.5l-3.1-3.5c-1.1,1.4-1.6,3.1-1.6,4.8c0,4.7,3.1,7,6.4,7s6.4-2.4,6.4-7S171.8,234.7,168.5,234.7z"/>
<path class="st23" d="M36.1,52.7l-6.8-10.9c-0.2-0.4-0.7-0.5-1.1-0.2c-0.1,0.1-0.2,0.1-0.2,0.2l-6.8,10.9c-0.2,0.3-0.2,0.6,0,0.8
	L28,64.4c0.2,0.4,0.7,0.5,1.1,0.2c0.1-0.1,0.2-0.1,0.2-0.2l6.8-10.9C36.3,53.3,36.3,53,36.1,52.7z"/>
<path class="st23" d="M176,216.7l-6.8-10.9c-0.2-0.4-0.7-0.5-1.1-0.2c-0.1,0.1-0.2,0.1-0.2,0.2l-6.9,10.9c-0.2,0.3-0.2,0.6,0,0.8
	l6.8,10.9c0.2,0.4,0.7,0.5,1.1,0.2c0.1-0.1,0.2-0.1,0.2-0.2l6.9-10.9C176.2,217.3,176.2,216.9,176,216.7z"/>
<path class="st24" d="M114.8,131.7c3.5-2.3,8.8-5.4,15,2.8c0,0-0.5,0.1-1.3,0.2l3.4,0.7c0,0-1.2-4-7.2-6.3s-10.8,2.8-10.8,2.8
	l0.9,0.2L114.8,131.7z"/>
<path class="st24" d="M75.9,123.9c3.4-2.3,10.2-4.7,15.5,3c0,0.2-0.1,0.3-0.1,0.5l0.9,0.1c-1.8-3.4-4.9-5.9-8.6-6.8
	c-6.2-1.4-9.9,4.1-9.8,4.2l4.8,0.7C77,124.7,75.9,123.9,75.9,123.9z"/>
</svg>
