<?xml version="1.0" encoding="utf-8"?>
<!-- Generator: Adobe Illustrator 20.0.0, SVG Export Plug-In . SVG Version: 6.00 Build 0)  -->
<svg version="1.1" id="Layer_1" xmlns="http://www.w3.org/2000/svg" xmlns:xlink="http://www.w3.org/1999/xlink" x="0px" y="0px"
	 viewBox="0 0 196 266.7" style="enable-background:new 0 0 196 266.7;" xml:space="preserve">
<style type="text/css">
	.st0{fill:#F8E4E3;}
	.st1{fill:#BE1E2D;}
	.st2{fill:#E9C9A0;}
	.st3{fill:#FFE5C7;}
	.st4{fill:#FFECD1;}
	.st5{fill:#F4CDAD;}
	.st6{fill:#FED7B8;}
	.st7{fill:#F9BEAB;}
	.st8{fill:#D39C82;}
	.st9{fill:#DBAF9A;}
	.st10{fill:#6B3720;}
	.st11{fill:#DFB89F;}
	.st12{fill:#EDC6AD;}
	.st13{fill:none;stroke:#FFFFFF;stroke-width:0.25;stroke-miterlimit:10;}
	.st14{fill:#EBF4F0;}
	.st15{fill:#758478;}
	.st16{fill:#1D1611;}
	.st17{fill:#F5E0CD;}
	.st18{fill:#DC7E7B;}
</style>
<title>badbitchcards</title>
<path class="st0" d="M17.1,8.5h161.6c4.7,0,8.5,3.8,8.5,8.5v232.4c0,4.7-3.8,8.5-8.5,8.5H17.1c-4.7,0-8.5-3.8-8.5-8.5V17
	C8.6,12.3,12.4,8.5,17.1,8.5z"/>
<path class="st1" d="M30.8,22c-1.5,1.2-6.1,5.3-6.9,14h-2.5c0.7-9.5,6.7-14.1,6.7-14.1h-9.2v-2.3h11.9V22z"/>
<path class="st1" d="M21.7,42.9c2.6,0,3.9,1.2,5.1,3.6c1.3-2.4,2.6-3.6,5.1-3.6c2.8-0.1,5.1,2.1,5.2,4.8c0,0,0,0,0,0.1
	c0,4.9-5.2,9.8-10.3,14.7c-5.2-4.9-10.3-9.8-10.3-14.7C16.6,45,18.9,42.8,21.7,42.9C21.7,42.9,21.7,42.9,21.7,42.9z"/>
<path class="st1" d="M173.6,224.9c-2.6,0-3.9-1.2-5.1-3.6c-1.3,2.4-2.6,3.6-5.1,3.6c-2.8,0.1-5.1-2.1-5.2-4.8c0,0,0,0,0-0.1
	c0-4.9,5.1-9.8,10.3-14.7c5.2,4.9,10.3,9.8,10.3,14.7C178.7,222.8,176.4,225,173.6,224.9C173.6,224.9,173.6,224.9,173.6,224.9z"/>
<path class="st1" d="M164.5,244.6c1.5-1.2,6.1-5.3,6.9-14h2.6c-0.7,9.5-6.7,14.1-6.7,14.1h9.2v2.3h-11.9V244.6z"/>
<g>
	<path class="st2" d="M91.2,48.5c29.1-8.3,51,12.4,61.8,43c10.7,30.6,14.4,59.6-7.1,87c-13.6,7.6-14.1,0-14.1,0s-38.9-5.3-47.1,4.9
		s-24.4,17.2-30.6,17.2S25.2,171.4,36.3,142C50.8,63.3,54.6,52.6,91.2,48.5z"/>
	<path class="st3" d="M137.3,85.4c0,0,20.6,15,5.4,72.2"/>
	<path class="st2" d="M49.3,92.4c-5.6,25.9-4.9,58.7,13.5,71.6c0,0,8.2,6.6,17.7,8"/>
	<path class="st3" d="M62.8,178.5c6.8,8.3,7.6,10.1,14.7,7.5"/>
	<path class="st3" d="M62.8,168.9c0,0,5.1,6.5,13.4,5.4"/>
	<g>
		<g>
			<path class="st4" d="M55.9,74.2c-7.3,15-12.2,31.1-14.5,47.6c-2.1,14.7-2.8,30.5,1.5,44.8c2.2,7.4,6.1,14.2,11.8,19.4
				c0.1,0.1,0.3,0,0.2-0.1c-10.7-9.6-14.2-24.3-14.8-38.2c-0.7-16,1.6-32.4,6.1-47.8c2.5-8.9,5.9-17.5,9.9-25.9
				C56.2,74.2,56,74.2,55.9,74.2L55.9,74.2z"/>
		</g>
	</g>
	<g>
		<g>
			<path class="st4" d="M82.7,52.3C63.1,59,53.8,79,49.3,97.7c-2.9,11.6-4.5,23.5-4.8,35.5c-0.4,11.3,0.1,23,3.7,33.9
				c3.3,9.9,9.3,18.9,18.3,24.4c0.1,0,0.3,0,0.2-0.1c-18.3-11.3-22.1-34.1-22-53.9c0.1-11.1,1.2-22.3,3.4-33.2
				c2.2-10.6,5.1-21.3,10.5-30.7C64,64.1,72.3,56,82.8,52.4C82.9,52.4,82.8,52.3,82.7,52.3L82.7,52.3z"/>
		</g>
	</g>
	<g>
		<g>
			<path class="st4" d="M104.8,49.3c18.9,1.1,34.3,15.6,41.3,32.4c8.1,19.5,6.9,42,3.5,62.4c-1.9,11.7-5.3,23.2-11.8,33.1
				c0,0.1,0.2,0.1,0.2,0c5.9-9,9.2-19.3,11.2-29.7c2.1-11,3.2-22.3,3.1-33.4c-0.2-20.1-5.9-40.8-21.8-54.2
				c-7.3-6.2-16.2-10.2-25.8-10.7C104.7,49.2,104.7,49.3,104.8,49.3L104.8,49.3z"/>
		</g>
	</g>
	<g>
		<g>
			<path class="st4" d="M111,54.4c8.5,3.9,16.9,8.2,24.1,14.3c7.2,6.1,12.5,13.9,15.7,22.8c7.1,19.4,4.3,40.6,0.9,60.4
				c-1.6,9.4-4,19.4-11.7,25.8c-0.1,0.1,0.2,0.1,0.2,0.1c6.5-5.4,9.3-13.4,10.9-21.4c2.2-10.5,3.6-21.3,4.2-32
				c0.9-19.2-2.9-39.5-17.3-53.3c-7.7-7.4-17.2-12.4-26.9-16.8C111.1,54.3,110.9,54.4,111,54.4L111,54.4z"/>
		</g>
	</g>
	<path class="st5" d="M118.3,236.8c26.8,0,38.8-34.1,38.8-34.1s-23.8-8.1-24.7-27.6s-44.4-17.2-45.8-2.9
		c-1.5,14.3-2.3,28.8-7.6,33.3C80.9,215.5,85.9,235.6,118.3,236.8z"/>
	<path class="st6" d="M89.8,186.9c0,0,7.6,7.4,14.2,6.5c7.7,1.6,9-0.6,9.8-0.9c0.8-0.3,6.5,0.5,9.6-6.3c0,0,3.2-2.5,6-3.3
		s3.6-7.3,4.9-9.3c4.1-4.3,7.7-9.5,8.1-10.1c0.5-6,1.8-45.2,1.3-51.4s0.1-41.6-48.2-41.6S44.1,103.2,60,128.1
		c0.7,2,5.6,12.6,5.8,16.8c0.2,4.3-1.6,9-0.7,10.6s1.6,3.1,2.7,4.7s2.9,7.6,4.5,9.2c1.6,1.6,6.1,9.2,9.4,11.2
		C85.2,182.7,86.3,186,89.8,186.9z"/>
	<path class="st7" d="M80,128.1c2.3,0.1,8.4-2,8.4-2l-15.7-0.8C72.6,125.3,74,127.9,80,128.1z"/>
	<path class="st7" d="M123.5,123.3c2.1-0.4,6-3.9,6-3.9l-13.9,3.4C115.7,122.8,120,123.7,123.5,123.3z"/>
	<path class="st8" d="M114.9,119.3c-0.4,1.1-0.8,2.8,0.7,3.3s1-1.9,1-1.9L114.9,119.3z"/>
	<path class="st8" d="M89.5,124.9c0.1,0.9-1.2,1-1.2,1l-1.3-1l1.9-1.2L89.5,124.9z"/>
	<path class="st9" d="M119,114.6c4.8-2.3,9.6,1.1,11.3,3c-0.8,1.6-0.8,1.6-0.8,1.6l-14.9,0.9C114.7,120.1,114.7,116.7,119,114.6z"/>
	<path class="st9" d="M72.6,125.2l-1.5-1.1c0,0,5.1-4.9,9.3-5.7c4.2-0.8,11,7.3,7.9,6.1C87.4,124.1,72.6,125.2,72.6,125.2z"/>
	<path class="st10" d="M107.6,152c0,0,2-3.2,4-3.5c1.9-0.2,2.7,1.9,1.7,2.8"/>
	<path class="st10" d="M100,153.4c-3.7-3.9-5.3-2.9-4.6-0.9"/>
	<g>
		<g>
			<path class="st11" d="M100.6,155.2c2.4,0.6,5,0.1,7.3-0.8c0.4-0.2-0.3-0.4-0.5-0.3c-2,0.8-4.3,1.3-6.4,0.8
				C100.7,154.8,100.1,155.1,100.6,155.2L100.6,155.2z"/>
		</g>
	</g>
	<g>
		<g>
			<path class="st11" d="M98.4,155.9c-6.8,0.4-5.8-8.3-3.3-12c0.1-0.2-0.6-0.3-0.7-0.1c-1.8,2.7-2.9,6.2-1.4,9.3
				c1,2.2,3.1,3.3,5.4,3.2C98.8,156.2,98.8,155.9,98.4,155.9L98.4,155.9z"/>
		</g>
	</g>
	<g>
		<g>
			<path class="st11" d="M114.3,151.4c4.5-2.2-0.5-9.2-3.3-10.8c-0.2-0.1-0.9,0.1-0.5,0.3c2.5,1.4,7.5,8.2,3.3,10.2
				C113.4,151.3,114.1,151.5,114.3,151.4L114.3,151.4z"/>
		</g>
	</g>
	<path class="st12" d="M82.5,111.5c0,0,12.9,0.9,13.8,6.7s1.3,24.9,1.2,26.8c-0.1,1.9-1.6-3.2-1.6-3.2s1.4-19.6-1.8-23.6
		c-3.2-4-13.7-4.5-13.7-4.5L82.5,111.5z"/>
	<path class="st12" d="M110.7,108.7c-7.6,1.5-7,20.8-0.4,34.4c-0.3-4.7-6.2-19.2-4.1-25.6c1.7-8.2,5.4-7.4,5.4-7.4L110.7,108.7z"/>
	<path class="st13" d="M92.5,126"/>
	<path class="st14" d="M121.2,115.8c6.1-2,8.4,3.4,8.4,3.4s-3.2,3.2-6.5,3.7c-3.2,0.6-7.4-0.3-7.4-0.3l-1-2.5
		C114.7,120.1,117.5,117,121.2,115.8z"/>
	<path class="st14" d="M79.6,127.5c4,0,8.7-1.6,8.7-1.6v-1.5c0,0-4.4-6-9.2-4.3c-4.8,1.7-6.5,5.1-6.5,5.1S74.1,127.5,79.6,127.5z"/>
	<path class="st12" d="M70.8,145.4c6.8,4.9,7.9,6,7.9,7.2c0,1.2,0,8,0.9,9.7c0.9,1.6-0.1,1.9-0.7,1.8c-0.6-0.1-0.9-10.2-2.8-11.9
		c-1.9-1.6-6.4-3.2-5.8-5C70.8,145.4,70.8,145.4,70.8,145.4z"/>
	<path class="st12" d="M75.6,142.5c2.7,2.7,4.3,1.7,4.9,1.2c0.5-0.5-4.1-2.5-4.9-3.7C74.8,138.8,73.9,140.8,75.6,142.5z"/>
	<path class="st12" d="M116.2,145.4c2.3,1.1,6,4.3,8.3,8.1c2.3,3.8,1.8,4.3,1.4,4.2s-4.2-8.5-7.4-9.2l-2.3-1.4V145.4z"/>
	<path class="st15" d="M79.6,127.5c3.8,0,4.8-2.1,4.7-3.5c-0.2-1.4-0.5-4.2-3.8-4.2s-4.7,2.8-4.1,4.6S76.7,127.5,79.6,127.5z"/>
	<path class="st14" d="M79,121.8c2.5-1.2,3.1,0.7,3.1,0.7l-3.6,0.9L79,121.8z"/>
	<circle class="st16" cx="80.3" cy="124" r="1.1"/>
	<path class="st2" d="M91.2,108.7c-4.3,0.1-1.5-14.4-2.9-8.6c-1.4,5.8-1.5,8.3-3.6,11.6c-2.1,3.4-14.1,2-17.8,0
		c-3.7-2-1.7-10.8-6.2-22.8c-4.1,2.9-7.4,26.4-7.4,26.4C39.3,50,91.2,48.5,91.2,48.5c47.8-1.2,53.9,69,51.9,63.1
		c-2-5.9-0.3-3.7-7.9-7.7c-7.7-4-5.6-7-13.9-17c0.2,4.5,3.6,14.1,5,17.8c1.4,3.7-3.5,3.7-14.7,5.5c-11.2,1.8-15.2-16.6-14.5-13
		c2,10.5,2,10.5,2,10.5S92.8,108.7,91.2,108.7z"/>
	<path class="st12" d="M117.7,137.5c0,0,1.9,1.2,6.1,1.2c4.3,0,5.3-1.2,5.3-1.2S123.9,138.2,117.7,137.5z"/>
	<path class="st12" d="M130.3,148.5c0,2.7,1.1,4,1.4,4.9s-0.8,2.4-1.4,1.8s-3.5-4.3-3-7.5c0.5-3.2,3.4-5.3,5.1-5.1
		C134.1,142.9,130.3,145.9,130.3,148.5z"/>
	<path class="st17" d="M60.7,89"/>
	<path class="st17" d="M66.9,111.8"/>
	<path class="st17" d="M84.7,111.8"/>
	<path class="st17" d="M88.3,100.1"/>
	<path class="st17" d="M91.2,108.7"/>
	<path class="st17" d="M99,107.8"/>
	<path class="st17" d="M97,97.2"/>
	<path class="st17" d="M111.5,110.2"/>
	<path class="st17" d="M126.3,104.7"/>
	<path class="st17" d="M135.2,103.9"/>
	<path class="st15" d="M123.1,122.9c1.3-0.2,2.6-0.9,3.7-1.6c0.2-1.2-0.1-3.1-1.4-5.7c0,0,0,0,0,0c-0.2,0-0.3-0.1-0.5-0.1
		c-1.1-0.2-2.3-0.2-3.8,0.3c-1.4,0.5-2.8,1.2-3.8,2l0,0c-0.3,0.6,1.1,3.5,1.9,5.2C120.5,123.1,121.9,123.1,123.1,122.9z"/>
	<path class="st14" d="M121,117.6c2.5-1.2,3.1,0.7,3.1,0.7l-3.6,0.9L121,117.6z"/>
	<circle class="st16" cx="122.1" cy="119.4" r="1.1"/>
	<path class="st18" d="M90.3,170.7c1.7,1.2,5.8,5.8,15.1,5.8s14.7-4.6,17.1-10.1c0,0-12.5,0.1-13.8,0.9c-1.3,0.8-2.7,1.7-2.7,1.7
		s-3.4-2.3-16.8,0.6C89.2,169.6,89.6,170.2,90.3,170.7z"/>
	<path class="st17" d="M121.9,166.4c-2.5,1-13.7,5.3-16.5,5.4c-2.1,0.1-10.3-0.4-14.9-0.9c0.1,0.1,0.2,0.2,0.4,0.3
		c2.7,0.4,6.7,0.7,12,0.9c8,0.4,17.3-4.7,19.2-5.7C122,166.4,122,166.4,121.9,166.4z"/>
	<path class="st3" d="M88.2,51.4c-16.1,6.4-34.1,38.2-34.1,38.2S70.9,53.2,88.2,51.4z"/>
	<path class="st3" d="M95.1,50.4c0,0,23.5-5.9,21.2,53.6C116.3,104,115.6,50.4,95.1,50.4z"/>
	<g>
		<g>
			<path class="st4" d="M93.2,57.3c-2.2-2.2-4.3,3.3-4.9,4.4c-2.5,5.2-4.6,10.6-6.1,16.1c-3,11-3.9,22.4-2.8,33.7
				c0,0.1,0.3,0.1,0.2,0c-0.9-9.2-0.5-18.6,1.4-27.7c1-4.8,2.3-9.4,4-14c0.8-2.2,1.7-4.4,2.7-6.5c0.5-1,3.2-8,5.2-6
				C93,57.4,93.2,57.4,93.2,57.3L93.2,57.3z"/>
		</g>
	</g>
	<g>
		<g>
			<path class="st4" d="M91.5,53.1c0.1,0,0.2-0.1,0-0.1C91.3,52.9,91.3,53.1,91.5,53.1L91.5,53.1z"/>
		</g>
	</g>
	<g>
		<g>
			<path class="st4" d="M91,52.7c-14.4,16-19.9,38.9-14.4,59.7c0,0.1,0.3,0.1,0.2,0c-5.5-20.8,0-43.7,14.3-59.6
				C91.3,52.6,91.1,52.6,91,52.7L91,52.7z"/>
		</g>
	</g>
</g>
</svg>
