<?xml version="1.0" encoding="utf-8"?>
<!-- Generator: Adobe Illustrator 19.2.1, SVG Export Plug-In . SVG Version: 6.00 Build 0)  -->
<svg version="1.1" id="Layer_1" xmlns="http://www.w3.org/2000/svg" xmlns:xlink="http://www.w3.org/1999/xlink" x="0px" y="0px"
	 width="215px" height="326.9px" viewBox="0 0 215 326.9" style="enable-background:new 0 0 215 326.9;" xml:space="preserve">
<style type="text/css">
	.st0{fill:#F2CBB2;}
	.st1{fill:#E5C1AA;}
	.st2{fill:#553727;}
	.st3{fill:#F4CCB1;}
	.st4{fill:#EBF4F0;}
	.st5{fill:#906D36;}
	.st6{fill:#D39C82;}
	.st7{fill:#211010;}
	.st8{fill:#1D1611;}
	.st9{fill:#EB9E88;}
	.st10{fill:#FFFBF8;}
	.st11{fill:#6B3720;}
	.st12{fill:#E4B69D;}
	.st13{fill:#CEA28B;}
	.st14{fill:#EEBEA7;}
	.st15{opacity:0.4784;fill:#381C15;enable-background:new    ;}
	.st16{fill:#DCA48C;}
	.st17{fill:#FED7B8;}
	.st18{fill:#3C2415;}
	.st19{fill:#7C5E52;}
	.st20{fill:#DAB995;}
	.st21{fill:#381C15;}
	.st22{opacity:0.4478;}
	.st23{opacity:0.194;fill:none;stroke:#3C2415;enable-background:new    ;}
</style>
<g id="Page-1">
	<g id="Desktop-Copy" transform="translate(-90.000000, -1606.000000)">
		<g id="Group-10" transform="translate(90.000000, 1606.000000)">
			<g id="julia">
				<g id="ourportraits-_x28_1_x29_">
					<g id="vendela_face">
						<path id="Shape" class="st0" d="M123,136.7c0,0-14.9,49.8,6,70.8c0,16.6-17.6,44.5-44.9,44.5s-36-32.4-36-32.4
							s17.1-21,5.8-62.2C54,157.4,98.9,112.6,123,136.7z"/>
						<path id="Shape_1_" class="st1" d="M87.7,177.4c0,0,8.9,30.1,12.7,47c0.4,2,2.1,3.6,4.1,4c2.1,0.4,4.1-0.5,5.3-2.3
							c5.4-8.1,10.7-19.9,12.8-24.6c0.5-1.2,0.6-2.7,0.1-3.9c-1.7-4.4-5.4-15.7-4.1-26.4c0.2-1.6-0.4-3.3-1.6-4.4
							C109,160.1,87.3,173.3,87.7,177.4z"/>
						<path id="Shape_2_" class="st2" d="M117.1,207.9c0,0-14.7,33.8-10.8,46.4c12.6,48.8-11.5,44.7-11.5,44.7
							c2.2,0.9,19.9-6,12.6-29.1s0.1-45.7,2.3-67.5c0,0-6.1-39.7-31-36.1s-54.8-53.4-54.8-53.4s-4.3-4.7,3.2-43.6s89.9-82.7,110-3.2
							S117.3,205.6,117.1,207.9"/>
						<path id="Shape_3_" d="M58.3,100.5c0-11.3-7.4-10.4-10.8-9.6c-4.4,1.2-8.4,3.3-11.9,6.1c-2.9,2.6-1.7,1-1.7,1s0.7,1.3,3.2,1.1
							S58.3,100.5,58.3,100.5z"/>
						<path id="Shape_4_" d="M107.4,101.8c-3.2-3.2-9-8.7-16.8-8.5c-7.8,0.2-7.7,7.2-7.7,7.2l0,0c2-1.5,4.3-2.7,6.7-3.3
							c5.8-1,11.6,1.2,15.2,5.9c0.7,0.1,1.4,0.3,2.1,0.6c0.9,1.1,4.3,0.9,4.3,0.9C109.7,103.9,108.5,103,107.4,101.8z"/>
						<path id="Shape_5_" class="st0" d="M123.1,136c3.2,2.3,10.8,1,12.2-2c1.4-3,3.3-22.9,0-31.8c0,0-7.1-1.7-8.7,0.4L123.1,136z"
							/>
						<path id="Shape_6_" class="st3" d="M97.3,172.4c10.7-8.2,19.1-19.1,24.2-31.6c4.1-9.8,5.9-34.9,4.7-42.3
							c-0.9-1.3-4.2-10.5-6.4-19.2c0,0-3.8-41.3-45.2-41.3c-32,0-38.9,24.7-41.3,31.9s-4.6,18.5-7.1,27.6s-3.5,25,0,39.1
							c3.5,14.1,20.4,36.4,22.8,38.3c7.2,7.1,12.3,13.2,31.1,7C93.6,175.9,97.3,172.4,97.3,172.4z"/>
						<path id="Shape_7_" class="st4" d="M80.7,102.5c0.2,1.2,2.9,0,2.9,0c7,2.2,14.5,2.7,21.7,1.4c-3.4-5.2-9.6-7.8-15.7-6.7
							C86.2,98.1,83.1,99.9,80.7,102.5z"/>
						<path id="Shape_8_" class="st5" d="M100.6,100.8c0-0.6-0.1-1.1-0.3-1.7c-2.6-1.6-5.7-2.4-8.7-2.2c-2,1.9-2.2,5.1-0.4,7.2
							c2.6,0.4,5.2,0.5,7.8,0.4C100,103.6,100.6,102.3,100.6,100.8z"/>
						<path id="Shape_9_" class="st6" d="M80.7,102.5c0.2,1.2,2.9,0,2.9,0c-0.1-0.7-0.3-1.4-0.7-2C81.9,101.2,81.3,102,80.7,102.5z"
							/>
						<circle id="Oval" class="st7" cx="95.3" cy="100.8" r="1.8"/>
						<path id="Shape_10_" class="st8" d="M80.7,88.9c0.5-1.3,1.4-2.4,2.6-3.1"/>
						<path id="Shape_11_" class="st8" d="M82.9,89.1c0.6-1.7,1.8-3,3.4-3.8"/>
						<path id="Shape_12_" class="st8" d="M86.6,88.8c0.6-1.5,1.7-2.8,3.3-3.4"/>
						<path id="Shape_13_" class="st8" d="M89.6,88.8c0.7-1.7,2.2-2.9,4-3.2"/>
						<path id="Shape_14_" class="st8" d="M92.4,89.1c1-1.8,2.8-3.1,4.8-3.3"/>
						<path id="Shape_15_" class="st8" d="M95.7,88.8c0.9-1.4,2.5-2.3,4.2-2.4"/>
						<path id="Shape_16_" class="st8" d="M99.1,89c0.8-1.1,2-1.9,3.4-2.2"/>
						<path id="Shape_17_" class="st8" d="M101.8,89.3c0.8-0.9,1.9-1.4,3.1-1.5"/>
						<path id="Shape_18_" class="st8" d="M53.4,82.8c1.7,0.3,3,1.8,3.1,3.5"/>
						<path id="Shape_19_" class="st8" d="M53.9,86.1c-0.3-1.6-1.5-2.9-3.1-3.4"/>
						<path id="Shape_20_" class="st8" d="M51.4,85.7l-3.7-3.1"/>
						<path id="Shape_21_" class="st8" d="M47.7,85.9c-0.4-1.8-1.9-3.2-3.7-3.4"/>
						<path id="Shape_22_" class="st8" d="M45.3,85.5c-1.4-1.1-2.8-2.2-4.4-3"/>
						<path id="Shape_23_" class="st8" d="M40.8,84.8c-1.2-1-2.7-1.7-4.2-1.9"/>
						<path id="Shape_24_" class="st8" d="M37.8,85.7c-0.7-1.2-2.3-1.6-3.5-1"/>
						<path id="Shape_25_" class="st8" d="M35.5,86.9c-1-0.7-2.3-0.7-3.4-0.2"/>
						<path id="Shape_26_" class="st8" d="M105.2,89.9c0.4-0.9,1.2-1.4,2.2-1.3"/>
						<path id="Shape_27_" class="st9" d="M63.4,157.5c8,0,14.6,1.2,23.2-6.9l7-6.6c0,0-3.6-5.2-17.3-5.2s-33.1,0.7-33.1,0.7
							s3.4,5.3,5.5,8.7C50.6,151.5,53.1,156.6,63.4,157.5z"/>
						<path id="Shape_28_" class="st10" d="M49.8,141.2c1.5,2.5,3.5,11.4,17,11.4s20.2-3.8,24.5-8.4c-1.4-1.3-3.2-2.2-5.1-2.5
							c-3.2-0.5-10.3,0.5-16.4,0.5S49.8,141.2,49.8,141.2z"/>
						<path id="Shape_29_" class="st11" d="M69.9,130.3c0.8-1.3,2.8-3.6,7-2.6"/>
						<path id="Shape_30_" class="st11" d="M54.9,126.4c2.7-0.3,4.4-0.5,5.7,2.5"/>
						<path id="Shape_31_" class="st12" d="M68.3,131.8h-2.2c-1.4-0.2-2.8-0.6-4.1-1.3l0.2-0.4c1.2,0.6,2.5,1.1,3.9,1.3h2.2
							L68.3,131.8z"/>
						<path id="Shape_32_" class="st12" d="M54.7,119.2c-1.7,1.4-3.4,4.9-1.7,7c0.1,0.1,0.6,0.1,0.5-0.1c-1.6-2,0-5.4,1.6-6.8
							C55.3,119.2,54.8,119.1,54.7,119.2L54.7,119.2z"/>
						<path id="Shape_33_" class="st12" d="M80.4,119.3c1,1.5,1.5,3.4,1.3,5.2c0,0.8-0.2,1.7-0.6,2.4c-0.5,1-1.2,1-2.1,1.4
							c0.2-0.1-0.2-0.2-0.3-0.2c-0.1,0-0.2,0.1-0.2,0.2v0.1c0.3,0.3,1.4,0,1.7-0.1c0.7-0.2,1.2-0.7,1.5-1.4c1.1-2.5,0.9-5.5-0.7-7.8
							C80.8,119.1,80.3,119.2,80.4,119.3L80.4,119.3z"/>
						<path id="Shape_34_" class="st13" d="M99.1,98c-4.8-2.2-9.3-1.7-13.9,1c1.4-0.8,2.9-1.4,4.4-1.8c6.1-1.1,12.3,1.5,15.7,6.7
							c0.5,0.1,1,0.1,1.5-0.2C106.8,103.7,104.7,100.5,99.1,98z"/>
						<path id="Shape_35_" class="st14" d="M76.9,100.8c0-6.3,2.3-10.4,5.1-8.7c0.9,1.9-1.7,3.9-1.3,5.8
							C81.1,99.9,76.9,100.8,76.9,100.8z"/>
						<path id="Shape_36_" class="st15" d="M109.7,92.1c2.4,1.6,0.2-1.8-0.7-2.4c-8-5.6-21.7-6.1-30.5-2.5c-0.5,0.2,1.9,3.7,3.1,3.2
							C89.2,87.3,102.8,87.3,109.7,92.1z"/>
						<path id="Shape_37_" class="st15" d="M56,85.1c-3-2.7-6.2-2.6-10.1-2.5c-6.5,0.2-10.4,0.8-15.3,5.2c-0.3,0.3,2.7,3.6,3.1,3.2
							c2.9-2.6,5.6-4.6,9.6-5c3.8-0.3,10.7-1.8,13.9,1C59.2,88.8,56.6,85.5,56,85.1L56,85.1z"/>
						<path id="Shape_38_" class="st16" d="M112,105.5c7.1,0.3,8.6,1.1,8.6,1.1C117.9,105.4,114.9,105,112,105.5z"/>
						<path id="Shape_39_" class="st16" d="M99.9,106.7c1.9,0.9,3.6,2.1,5.1,3.6C104.9,110.2,102.9,107.1,99.9,106.7z"/>
						<path id="Shape_40_" class="st16" d="M99.1,108.4c2.2,0.6,4.2,1.8,5.8,3.4C103.7,109.8,101.5,108.5,99.1,108.4L99.1,108.4z"/>
						<path id="Shape_41_" class="st16" d="M107.4,137.1c-0.2,5.5-1.6,11.2-3.4,14.3C104,151.4,110,143.6,107.4,137.1z"/>
						<path id="Shape_42_" class="st16" d="M43.1,132.2c-4.7,3.9-4.3,5.4-2.9,9C40.2,141.2,35.6,136,43.1,132.2z"/>
						<path id="Shape_43_" class="st16" d="M83,121.7c5.9,11.2,12.9,13.2,14.3,15.4c1.4,2.2-1.2,7.1-1.2,7.1s3.4-4.5,2.5-7.1
							S88,130.2,83,121.7z"/>
						<path id="Shape_44_" class="st14" d="M59.8,87.6c3.8,7,3.6,10.7,3.2,16.5c-0.4,5.7,0.9,10.6,0.2,14.5
							c-2.6,1-0.7-18.1-1.6-21.9C60.8,92.8,58.9,89.6,59.8,87.6z"/>
						<path id="Shape_45_" class="st4" d="M94.7,99.9c0,0,1.3-0.5,1.7,0.6C96.4,100.5,94.9,100.5,94.7,99.9z"/>
						<g id="Group-7" transform="translate(25.000000, 81.000000)">
							<path id="Shape_46_" class="st4" d="M11.9,18.1c3.8-3.6,9.5-5.7,13.3-5.1s6.5,3.8,8,6.5c0.7,1.3-0.2,1.8-1.3,1.3
								c-1.1-0.5-6.5,0.8-10.8,0C18,20.1,15,19.2,11.9,18.1L11.9,18.1z"/>
							<path id="Shape_47_" class="st5" d="M27.6,13.8c-0.8-0.4-1.6-0.6-2.4-0.8c-1.3-0.2-2.6-0.1-3.8,0.2c-1.2,0.9-2,2.3-2,3.8
								c0,1.5,0.7,2.9,2,3.8c1.7,0.3,3.5,0.3,5.2,0.1c1.4-0.8,2.3-2.4,2.3-4C28.9,15.8,28.5,14.7,27.6,13.8z"/>
							<circle id="Oval_1_" class="st7" cx="24.2" cy="17" r="1.8"/>
							<path id="Shape_48_" class="st6" d="M33.3,19.5c-0.2-0.3-0.4-0.7-0.6-1c-0.4,0.7-0.6,1.5-0.6,2.3
								C33.1,21.3,34,20.8,33.3,19.5z"/>
							<path id="Shape_49_" class="st13" d="M25.2,13c3.3,0.5,5.8,3,7.4,5.5l0,0c0,0-3-6.2-9.9-6.2S10.5,18,10.5,18l1.5,0.1
								C15.7,14.5,21.4,12.4,25.2,13z"/>
							<path id="Shape_50_" class="st17" d="M23.1,17c0.5-0.4,1.1-0.6,1.7-0.6C24.8,16.4,23.4,15.1,23.1,17z"/>
						</g>
						<path id="Shape_51_" class="st1" d="M128.4,128.9c4.8,0.1,8.9-4,8.8-10.3s-2.3-9-3.3-6.7c-1,2.3,1.5,9.2-3.7,12
							C124.9,126.6,128.4,128.9,128.4,128.9z"/>
						<path id="Shape_52_" class="st18" d="M122.4,254.1c-5.6,8.3-20.6,42.5-35.8,47.3c0,0,18.1-13.2,27.2-34.7
							c9.1-21.5-11-53.9-1.5-78.6s32.6-55.1,16.3-98.9S88.2,39.7,88.2,39.7S11.4,17.2,28.6,143.4c-1-2.4-16.1-48-9-71.1
							c16-50.2,62-72.1,89.8-52.5c8.8,0,21.2-3.5,35,31.2s41.7,60.1,53.3,65.1c0,0-27.6-14.7-40.3-36.6c0,0,18.5,40.1,30.6,54.4
							c12.2,14.3,10.1,38.9,9.8,47.2c0,0,3.9-35.6-16.5-49.5c0,0-4.3,0.9,1.9,7.1c14.3,14.3-4.3,36.5,3.7,50.2
							c17.6,51.9-51,126.2-60.2,126.2c-29.6,2.4-30.9-11.9-30.9-11.9S126.4,271.5,122.4,254.1z"/>
						<path id="Shape_53_" class="st19" d="M105.3,33.1c37.5-24,45,60,45,60S139.7,12,105.3,33.1z"/>
						<path id="Shape_54_" class="st19" d="M142.8,138.6c-15.8,43.7-21.6,101-5.7,132.3C137.1,271,109.1,226.2,142.8,138.6z"/>
						<path id="Shape_55_" class="st19" d="M181.8,195.9c0.9,17.7-3.5,35.1-12.2,49C169.6,244.9,189.6,223.4,181.8,195.9z"/>
						<path id="Shape_56_" class="st20" d="M100.8,24.8c-12.6-7-27.6-8.1-41.1-2.9c-14.6,5.6-23.2,18.3-31.5,30.8
							C23.1,60.4,17.9,68,10.6,73.8c-0.1,0.1,0.1,0.1,0.2,0.1c11.2-9,17.5-22.1,26.1-33.4c4.5-6,9.8-11.5,16.3-15.3
							c6.8-3.9,14.4-6.1,22.2-6.3c8.8-0.4,17.5,1.7,25.2,6.1C100.7,24.9,100.9,24.9,100.8,24.8L100.8,24.8z"/>
						<path id="Shape_57_" class="st20" d="M130.9,155.6c-5.2,9.3-10.6,18.8-12.7,29.4c-2.1,10.6-1,21.7,1.2,32.3
							c2.3,11,5.8,21.8,8.2,32.8c2.5,11.1,3.7,22.5,3.6,33.9c0.1,6.1-0.4,12.2-1.4,18.3c-1.3,6.5-6.4,14.8-14.4,11.9
							c-0.1,0-0.3,0-0.1,0.1c3.2,1.1,6.7,0.4,9.3-1.7c3.7-2.8,5.1-7.5,5.8-11.9c1.8-12,1.4-24.6-0.1-36.6c-3-23.6-14.3-46.4-13-70.6
							c0.8-13.9,7-25.9,13.8-37.8C131.2,155.6,131,155.6,130.9,155.6L130.9,155.6z"/>
					</g>
				</g>
			</g>
			<g id="Group-5" transform="translate(22.000000, 78.000000)">
				<path id="Shape_58_" class="st21" d="M29.1,16.5c3.9,0.8,5.7,4,7.1,5.5c-3.8-6.5-10.2-11.1-21.2-3.1c0,0-0.6,0.5,0.6,1.3
					C21.8,16.3,25.2,15.7,29.1,16.5"/>
				<path id="Shape_59_" class="st21" d="M16,20.2c0,0-1.7,0.6-3.4,0.1c-0.2-0.1-0.4-0.1-0.6-0.2c-0.2-0.1-0.3-0.1-0.6-0.3
					c-0.3-0.2-0.6-0.5-0.8-0.7c-0.4-0.5-0.6-0.9-0.6-0.8c0,0,0.2,0.3,0.7,0.7c0.2,0.2,0.6,0.4,0.9,0.5c0.1,0.1,0.3,0.1,0.6,0.1
					c0.2,0.1,0.3,0,0.6,0.1c0.8,0,1.5-0.1,2-0.2c0.6-0.2,0.9-0.4,0.9-0.4L16,20.2z"/>
				<path id="Shape_60_" class="st21" d="M16.4,19.7c0,0-1.6-0.5-3-1.4c-0.3-0.2-0.7-0.5-0.9-0.8c-0.2-0.2-0.5-0.6-0.7-0.8
					c-0.1-0.2-0.2-0.6-0.2-0.7v-0.2c0,0,0,0.1,0.1,0.2c0,0.1,0.2,0.3,0.3,0.6c0.2,0.2,0.5,0.5,0.7,0.7c0.3,0.2,0.7,0.4,1,0.6
					c0.7,0.4,1.5,0.5,2,0.6c0.6,0.1,0.9,0.1,0.9,0.1L16.4,19.7z"/>
				<path id="Shape_61_" class="st21" d="M17.9,18.9c0,0-1.4-0.6-2.5-1.5c-0.6-0.5-1.1-0.9-1.3-1.4c-0.1-0.2-0.2-0.5-0.3-0.6
					c0-0.1-0.1-0.2-0.1-0.2s0,0.1,0.1,0.2c0.1,0.1,0.2,0.4,0.3,0.5c0.3,0.4,0.9,0.8,1.6,1c0.6,0.4,1.2,0.6,1.7,0.7s0.8,0.2,0.8,0.2
					L17.9,18.9z"/>
				<path id="Shape_62_" class="st21" d="M18.8,18.2c0,0-1.2-0.6-2.2-1.5c-0.6-0.5-1-0.9-1.2-1.4c-0.1-0.2-0.1-0.5-0.2-0.6v-0.2v0.2
					c0,0.1,0.1,0.3,0.2,0.5c0.3,0.4,0.8,0.7,1.4,1.1c0.6,0.3,1.1,0.6,1.6,0.7c0.5,0.1,0.8,0.2,0.8,0.2L18.8,18.2z"/>
				<path id="Shape_63_" class="st21" d="M20,17.6c0,0-0.2-0.2-0.6-0.5c-0.3-0.4-0.8-0.7-1.1-1.2c-0.2-0.2-0.3-0.5-0.5-0.8
					c-0.1-0.2-0.2-0.5-0.3-0.7c0-0.2-0.1-0.5-0.1-0.6v-0.2c0,0,0,0.1,0.1,0.2c0,0.1,0.1,0.4,0.2,0.5c0.2,0.4,0.6,0.8,1,1.2
					c0.5,0.4,0.9,0.6,1.4,0.8c0.3,0.2,0.6,0.2,0.6,0.2L20,17.6z"/>
				<path id="Shape_64_" class="st21" d="M21,17c0,0-0.8-0.8-1.5-1.8c-0.3-0.5-0.6-0.9-0.7-1.4c-0.1-0.5-0.1-0.7-0.1-0.7
					s0,0.2,0.2,0.6s0.6,0.7,1,1.1c0.3,0.3,0.8,0.6,1.1,0.8c0.3,0.2,0.6,0.4,0.6,0.4L21,17z"/>
				<path id="Shape_65_" class="st21" d="M23.6,16.1c0,0-0.2-0.2-0.4-0.5s-0.7-0.7-0.9-1.2c-0.3-0.5-0.6-0.9-0.6-1.4v-0.5v-0.2
					c0,0,0,0.2,0.2,0.6c0.1,0.3,0.5,0.7,0.8,1.1c0.3,0.3,0.8,0.6,1.1,0.8c0.3,0.2,0.6,0.2,0.6,0.2L23.6,16.1z"/>
				<path id="Shape_66_" class="st21" d="M24.9,16.1c0,0-0.1-0.2-0.3-0.6c-0.1-0.4-0.3-0.7-0.5-1.2C24,13.9,24,13.4,24,13.1
					c0-0.4,0.1-0.6,0.1-0.6s0,0.2,0.1,0.5c0.1,0.3,0.2,0.7,0.5,1.1c0.2,0.3,0.5,0.6,0.7,0.8c0.2,0.2,0.3,0.2,0.3,0.2L24.9,16.1z"/>
				<path id="Shape_67_" class="st21" d="M25.9,15.9c0,0-0.1-0.2-0.1-0.5c0-0.4-0.1-0.7-0.1-1.2c0-0.5,0.1-0.8,0.1-1.2
					c0.1-0.2,0.2-0.5,0.2-0.5v0.5c0,0.2,0.1,0.7,0.2,0.9c0.1,0.3,0.3,0.7,0.4,0.9c0.1,0.2,0.2,0.3,0.2,0.3L25.9,15.9z"/>
			</g>
			
				<g id="Group-5_1_" transform="translate(86.000000, 88.000000) scale(-1, 1) translate(-86.000000, -88.000000) translate(71.000000, 82.000000)">
				<path id="Shape_68_" class="st21" d="M19.9,20.1c-5.3-5.5-14-8.9-25.6,0.3c0,0-1.2,1.1,0.3,1.7c6.7-4.6,11.1-6.3,15.8-6.2
					S18.1,18.9,19.9,20.1z"/>
				<path id="Shape_69_" class="st21" d="M-4,20.2c0,0-1.7,0.6-3.4,0.1C-7.6,20.2-7.9,20.2-8,20c-0.2-0.1-0.3-0.1-0.6-0.3
					c-0.3-0.2-0.6-0.5-0.8-0.7c-0.4-0.5-0.6-0.9-0.6-0.8c0,0,0.2,0.3,0.7,0.7c0.2,0.2,0.6,0.4,0.9,0.5c0.1,0.1,0.3,0.1,0.6,0.1
					c0.2,0.1,0.3,0,0.6,0.1c0.8,0,1.5-0.1,2-0.2c0.6-0.2,0.9-0.4,0.9-0.4L-4,20.2z"/>
				<path id="Shape_70_" class="st21" d="M-3.6,19.7c0,0-1.6-0.5-3-1.4c-0.3-0.2-0.7-0.5-0.9-0.8c-0.2-0.2-0.4-0.6-0.7-0.8
					c-0.1-0.2-0.2-0.6-0.2-0.7v-0.2c0,0,0,0.1,0.1,0.2c0,0.1,0.2,0.3,0.3,0.6c0.2,0.2,0.4,0.5,0.7,0.7c0.3,0.2,0.7,0.4,1,0.6
					c0.7,0.4,1.5,0.5,2,0.6s0.9,0.1,0.9,0.1L-3.6,19.7z"/>
				<path id="Shape_71_" class="st21" d="M-2.1,18.9c0,0-1.3-0.6-2.5-1.5c-0.6-0.5-1.1-0.9-1.3-1.4c-0.1-0.2-0.2-0.5-0.3-0.6
					c0-0.1-0.1-0.2-0.1-0.2s0,0.1,0.1,0.2c0.1,0.1,0.2,0.4,0.3,0.5c0.3,0.4,0.9,0.8,1.6,1c0.6,0.4,1.2,0.6,1.7,0.7s0.8,0.2,0.8,0.2
					L-2.1,18.9z"/>
				<path id="Shape_72_" class="st21" d="M-1.2,18.2c0,0-1.2-0.6-2.2-1.5c-0.6-0.5-1-0.9-1.2-1.4c-0.1-0.2-0.1-0.5-0.2-0.6v-0.2v0.2
					c0,0.1,0.1,0.3,0.2,0.5c0.3,0.4,0.8,0.7,1.3,1.1c0.6,0.3,1.1,0.6,1.6,0.7C-1.3,17-1,17.1-1,17.1L-1.2,18.2z"/>
				<path id="Shape_73_" class="st21" d="M0,17.6c0,0-0.2-0.2-0.6-0.5c-0.3-0.4-0.8-0.7-1.1-1.2c-0.2-0.2-0.3-0.5-0.4-0.8
					c-0.1-0.2-0.2-0.5-0.3-0.7c0-0.2-0.1-0.5-0.1-0.6v-0.2c0,0,0,0.1,0.1,0.2c0,0.1,0.1,0.4,0.2,0.5c0.2,0.4,0.6,0.8,1,1.2
					c0.5,0.4,0.9,0.6,1.4,0.8c0.3,0.2,0.6,0.2,0.6,0.2L0,17.6z"/>
				<path id="Shape_74_" class="st21" d="M1,17c0,0-0.8-0.8-1.5-1.8c-0.3-0.5-0.6-0.9-0.7-1.4c-0.1-0.5-0.1-0.7-0.1-0.7
					s0,0.2,0.2,0.6s0.6,0.7,1,1.1c0.3,0.3,0.8,0.6,1.1,0.8C1.5,15.9,1.7,16,1.7,16L1,17z"/>
				<path id="Shape_75_" class="st21" d="M3.6,16.1c0,0-0.2-0.2-0.4-0.5c-0.2-0.2-0.7-0.7-0.9-1.2c-0.3-0.5-0.6-0.9-0.6-1.4v-0.5
					v-0.2c0,0,0,0.2,0.2,0.6C2,13.3,2.4,13.6,2.7,14c0.3,0.3,0.8,0.6,1.1,0.8C4.2,15,4.4,15,4.4,15L3.6,16.1z"/>
				<path id="Shape_76_" class="st21" d="M4.9,16.1c0,0-0.1-0.2-0.3-0.6c-0.1-0.4-0.3-0.7-0.4-1.2c-0.1-0.5-0.1-0.9-0.1-1.3
					c0-0.4,0.1-0.6,0.1-0.6s0,0.2,0.1,0.5c0.1,0.3,0.2,0.7,0.4,1.1c0.2,0.3,0.4,0.6,0.7,0.8C5.5,15,5.6,15,5.6,15L4.9,16.1z"/>
				<path id="Shape_77_" class="st21" d="M5.9,15.9c0,0-0.1-0.2-0.1-0.5c0-0.4-0.1-0.7-0.1-1.2c0-0.5,0.1-0.8,0.1-1.2
					C5.9,12.8,6,12.6,6,12.6v0.5c0,0.2,0.1,0.7,0.2,0.9c0.1,0.3,0.3,0.7,0.4,0.9c0.1,0.2,0.2,0.3,0.2,0.3L5.9,15.9z"/>
			</g>
			<g id="Group-9" transform="translate(75.000000, 99.000000)" class="st22">
				<path id="Path-5" class="st23" d="M12,13.1c0.1,0.2,0.2,0.3,0.4,0.5"/>
				<path id="Path-6" class="st23" d="M16.1,14.5c0,0.1,0.1,0.2,0.1,0.4"/>
				<path id="Path-7" class="st23" d="M16.1,17.5c0.1,0.2,0.2,0.5,0.4,0.8"/>
				<path id="Path-8" class="st23" d="M21.4,15.1l0.5,0.4"/>
				<path id="Path-9" class="st23" d="M19.6,12.4c0.2,0.1,0.5,0.2,0.7,0.2"/>
				<path id="Path-10" class="st23" d="M24.9,14.2l0.5,0.2"/>
				<path id="Path-11" class="st23" d="M10.9,16.7l0.5,0.4"/>
				<path id="Path-12" class="st23" d="M24.9,17.7c0,0.2,0.1,0.3,0.1,0.5"/>
				<path id="Path-13" class="st23" d="M30.4,15l0.5,0.4"/>
				<path id="Path-14" class="st23" d="M30.6,18.2l0.4,0.6"/>
				<polyline id="Path-15" class="st23" points="24.1,20 23.6,20 23.5,20 23.4,20 23.2,20 23.1,20 23,20 22.9,20 22.7,20 				"/>
			</g>
			
				<g id="Group-9_1_" transform="translate(31.000000, 103.500000) scale(-1, 1) translate(-31.000000, -103.500000) translate(20.000000, 99.000000)" class="st22">
				<path id="Path-5_1_" class="st23" d="M-8,13.1c0.1,0.2,0.2,0.3,0.4,0.5"/>
				<path id="Path-6_1_" class="st23" d="M-3.9,14.5c0,0.1,0.1,0.2,0.1,0.4"/>
				<path id="Path-7_1_" class="st23" d="M-3.9,17.5c0.1,0.2,0.2,0.5,0.4,0.8"/>
				<path id="Path-8_1_" class="st23" d="M1.4,15.1l0.5,0.4"/>
				<path id="Path-9_1_" class="st23" d="M-0.4,12.4c0.2,0.1,0.5,0.2,0.7,0.2"/>
				<path id="Path-10_1_" class="st23" d="M4.9,14.2l0.5,0.2"/>
				<path id="Path-11_1_" class="st23" d="M-9.1,16.7l0.5,0.4"/>
				<path id="Path-12_1_" class="st23" d="M4.9,17.7c0,0.2,0.1,0.3,0.1,0.5"/>
				<path id="Path-13_1_" class="st23" d="M10.4,15l0.5,0.4"/>
				<path id="Path-14_1_" class="st23" d="M10.6,18.2l0.4,0.6"/>
				<polyline id="Path-15_1_" class="st23" points="4.1,20 3.6,20 3.5,20 3.4,20 3.2,20 3.1,20 3,20 2.9,20 2.7,20 				"/>
			</g>
		</g>
	</g>
</g>
</svg>
