<?xml version="1.0" encoding="utf-8"?>
<!-- Generator: Adobe Illustrator 20.0.0, SVG Export Plug-In . SVG Version: 6.00 Build 0)  -->
<svg version="1.1" id="Layer_1" xmlns="http://www.w3.org/2000/svg" xmlns:xlink="http://www.w3.org/1999/xlink" x="0px" y="0px"
	 viewBox="0 0 196 266.7" style="enable-background:new 0 0 196 266.7;" xml:space="preserve">
<style type="text/css">
	.st0{fill:#F8E4E3;}
	.st1{fill:#231F20;}
	.st2{fill:#010101;}
	.st3{fill:#5D463A;}
	.st4{fill:#483735;}
	.st5{fill:#DFBEA5;}
	.st6{fill:#CFAF9A;enable-background:new    ;}
	.st7{fill:#E6C4AB;}
	.st8{fill:#C4A491;}
	.st9{fill:#1D1611;}
	.st10{fill:#D0AF9B;}
	.st11{fill:#6B3720;}
	.st12{fill:#CCA688;}
	.st13{fill:#DBBCA8;}
	.st14{fill:#C29487;}
	.st15{fill:#F8E8D7;}
	.st16{fill:#B08874;}
	.st17{fill:#D7B79F;}
	.st18{fill:#EBF4F0;}
	.st19{fill:#5A3B34;}
	.st20{fill:#F5E0CD;}
	.st21{fill:#B19585;}
	.st22{fill:none;stroke:#CCA688;stroke-miterlimit:10;}
</style>
<title>badbitchcards</title>
<path class="st0" d="M17.1,8.5h161.6c4.7,0,8.5,3.8,8.5,8.5v232.4c0,4.7-3.8,8.5-8.5,8.5H17.1c-4.7,0-8.5-3.8-8.5-8.5V17
	C8.6,12.3,12.4,8.5,17.1,8.5z"/>
<path class="st1" d="M35.8,23c-1.5,1.2-6.1,5.3-6.9,14h-2.5c0.7-9.5,6.7-14.1,6.7-14.1h-9.2v-2.3h11.9C35.8,20.6,35.8,23,35.8,23z"
	/>
<path class="st2" d="M28.9,41.9c4.6,4.4,9.3,8.8,9.3,13.2c-0.1,2.5-2.2,4.5-4.7,4.4c-2.1,0-3.3-0.9-4.3-2.8c1.1,3.8,2.2,5.7,4.3,5.7
	h-9.2c2.1,0,3.3-1.9,4.3-5.7c-1.1,1.8-2.2,2.8-4.3,2.8c-2.5,0.1-4.6-1.9-4.6-4.4C19.6,50.7,24.2,46.3,28.9,41.9z"/>
<path class="st3" d="M100.8,52.1c-15.8-4.5-59.6,11.8-61,99.4c-0.2,32,4.3,36.7-24.5,35.2c17.1,4.8,23-0.7,24.9-2
	c0.2,7.7,7.1,34.6,22.1,34.6c6.9-13.9,19.2-13.9,19.2-13.9s-3.7-13.6,1.8-20.7s5.1-6.2,5.6-7.1s0.4-14.1,0.4-14.1l35.7,4.2
	c0,0,21.3,47-15,46.4c22.7,16.2,45.6,8.3,52.1-8.8S187.1,44.8,100.8,52.1z"/>
<path class="st4" d="M96.8,79.8c-2.4-12,20.1-10.9,31.7,7.5S96.8,79.8,96.8,79.8z"/>
<path class="st4" d="M75.8,143l-8.9,1.8c-0.3,6.2-0.9,36.4,11.9,42.8c0.2,0.1,0.5,0.1,0.7,0.1c0.4-1,1-2,1.7-2.9
	c5.6-7.1,5.1-6.2,5.6-7.1s0.4-14.1,0.4-14.1l-5.7,0.3L75.8,143z"/>
<path class="st4" d="M71.9,84.6c-14.6,0.7-22.4,38.9-22.4,38.9S58.9,77.5,71.9,84.6z"/>
<path class="st5" d="M77.6,161.6c0,0,1,9.6,1.5,14.9S76.4,194,76.4,194s7,33,30.9,33s32.7-32.7,32.7-32.7s-12.1-12.6-8.2-28.9"/>
<path class="st6" d="M78.5,163.2c-0.3,0.7,1.9,23.6,2.1,24.1s4.9,3.3,7.6,6.6c2.7,3,5.5,5.8,8.6,8.5c0,0,16.6-1.5,18.8,0
	s10.6-22.5,14.9-23.7c0,0,0.8-9.2,0.8-12.5S78.5,163.2,78.5,163.2z"/>
<path class="st7" d="M96.8,79.8c22.2-6.3,42.6,10.4,48.1,38.3c1.7,33.1-6.6,40.9-11.8,49.6s-21,17-28.5,15.6s-28.8-6.9-34.6-40.1
	S70.9,85.8,96.8,79.8z"/>
<g>
	<g>
		<path class="st8" d="M76.1,113.2c7.2-1,14.1,1.7,20.3,5.2c1,0.6,3.5-3.1,2.8-3.6c-6.2-3.5-13.4-6.2-20.7-5.3
			C77.3,109.7,75.5,113.2,76.1,113.2L76.1,113.2z"/>
	</g>
	<g>
		<path class="st8" d="M135.5,110.5c-6.5-1.7-14.2,2.7-19.6,5.9c-0.5,0.3,2.1,3.9,2.9,3.4c5.3-3.2,12.9-7.5,19.3-5.8
			C138.2,114,136.7,110.8,135.5,110.5L135.5,110.5z"/>
	</g>
</g>
<path class="st9" d="M98.5,117.8c0.3-1.5-0.4-3.1-1.7-3.9"/>
<path class="st9" d="M97.7,117.8c-0.1-1.5-0.7-2.9-1.8-4"/>
<path class="st9" d="M95.9,117.2c0.1-1.5-0.3-3-1.3-4.1"/>
<path class="st9" d="M94.4,116.5c0.1-1.5-0.5-3-1.5-4.1"/>
<path class="st9" d="M93.2,116.2c0.1-1.6-0.3-3.3-1.2-4.7"/>
<path class="st9" d="M92.5,116c-0.2-1.6-0.7-3.1-1.6-4.5"/>
<path class="st9" d="M91.3,115.1c-0.4-1.6-1.1-3.1-2.1-4.4"/>
<path class="st9" d="M89.5,114.2c0-1.4-0.5-2.8-1.6-3.8"/>
<path class="st9" d="M88.4,114c0.2-1.4-0.4-2.8-1.6-3.6"/>
<path class="st9" d="M87.4,113.3c-0.3-1.2-0.8-2.3-1.5-3.3"/>
<path class="st9" d="M85.9,113.2c-0.3-1.5-1.1-2.8-2.2-3.7"/>
<path class="st9" d="M84.6,112.5c-0.8-0.9-1.5-1.9-2.1-2.9"/>
<path class="st9" d="M82.7,112.7c0-1.2-0.8-2.3-1.9-2.6"/>
<path class="st9" d="M80.7,111.9c-0.8-0.5-1.6-1.1-2.2-1.9"/>
<path class="st9" d="M81.3,111.9c-0.2-0.9-0.8-1.6-1.6-1.9"/>
<path class="st9" d="M78.7,112.1c-0.2-0.7-1-1.2-1.7-1.1"/>
<path class="st9" d="M77.4,112.1l-0.6-0.3"/>
<path class="st9" d="M117.3,119.5c-0.3-0.7-0.2-1.6,0.2-2.2c0.5-0.6,1.1-1.1,1.7-1.6"/>
<path class="st9" d="M119.2,118.3c0.2-1.9,1.4-3.6,3.2-4.3"/>
<path class="st9" d="M120.7,117.5c0.3-1,0.7-1.9,1.3-2.7c0.6-0.9,1.4-1.5,2.4-1.7"/>
<path class="st9" d="M122.8,116.5c0.4-1.9,1.6-3.5,3.3-4.5"/>
<path class="st9" d="M124.3,116.1c0.5-2.1,2.1-3.8,4.1-4.5"/>
<path class="st9" d="M126.6,114.4c0.8-1.4,2.1-2.5,3.5-3.1"/>
<path class="st9" d="M128.7,114.2c0.8-1.9,2.4-3.3,4.5-3.8"/>
<path class="st9" d="M130.5,113.3l2.2-1.9c0.7-0.6,1.7-1.3,2.6-0.9"/>
<path class="st9" d="M133.4,112.7c0.9-1,2.3-1.4,3.6-1.2"/>
<path class="st9" d="M135.1,112.9c0.8-0.7,2-1.1,3.1-0.9"/>
<path class="st10" d="M109.2,139.7c0.9-2.2,0.4-3.1,0-5.8s1.8-4.3,2.1-5.6s-0.7-7.8,3.6-10.8c0,0,2.5,0.8,1.7,1.7
	c-1.4,1.3-3.5,6.3-3,8.5c0.5,2.1-1.9,5.7-1.6,7.2s0.5,3,0.5,4.5C112.4,140.1,110.6,140.9,109.2,139.7z"/>
<path class="st11" d="M97.7,146.5c3.5-3.1,6.5,1,6.5,1"/>
<path class="st11" d="M108.2,148.3c2.1-3.3,2.4-3.9,4.3-3.9s2.6,1.5,2.4,2.1"/>
<path class="st12" d="M115,138.7c2,2.4,3.9,4.8,2.1,7.9c-0.2,0.3,0.8,0.4,1,0.1c1.8-3.2,0-5.6-2.1-8.2
	C115.8,138.4,114.8,138.5,115,138.7z"/>
<path class="st12" d="M94.8,145.8c0.6,0,0.6-0.5,0-0.5S94.2,145.8,94.8,145.8z"/>
<path class="st12" d="M97.2,137.7c0.6,0,0.6-0.5,0-0.5S96.6,137.7,97.2,137.7z"/>
<path class="st13" d="M81.9,155.5c-1-2.2-1.2-4.8-0.4-7.1c0,0,2.8-2.9,14.3-11.5c0.3-0.3,0.8-0.2,1.1,0.2c0,0.1,0.1,0.1,0.1,0.2
	c0,0-2.5,3.4-13.5,12.7c-1.6,1.1-1.5,2.4-0.7,5.6C82.7,155.5,82.6,156.2,81.9,155.5z"/>
<path class="st13" d="M116.9,138.4c11.3,10.5,11.8,14.1,12.1,15.8s-2.3,11.6-2.2,11.4c0,0-0.4-0.8-0.4-1c0,0,2-9.3,1.6-10.2
	s-8.5-11.3-9.1-12.3s-2.2-3.3-2.2-3.3S116.6,138.3,116.9,138.4z"/>
<path class="st13" d="M99.2,168.5c5.7,0.7,15.5,1.6,16.9,1.3c1.9-1.2,1-6.9,0.9-6.2s-16.8,0.1-17.8,1.4S99.2,168.5,99.2,168.5z"/>
<path class="st14" d="M85.2,154.8c0.8,0.2,1.7,0.4,2.5,0.5c5.6,0.8,16.3,1.2,18,2c2.5,0,1.9-1.1,18.6,0c-3.9,6-10.6,9.6-17.7,9.5
	C95.9,166.3,86.2,155.5,85.2,154.8z"/>
<path class="st15" d="M91.7,157c7.8,1.5,15.7,2.2,23.6,2c0.4,0.1,4.3,0,4.3,0s-4.5,2-13,2C101.4,161.1,96.2,159.8,91.7,157z"/>
<path class="st16" d="M121.1,119.1c4.9-1.8,14.1,1.8,14.1,1.8l-0.1,1.5l-18.1,2.5c0,0-2-0.1-1.4-1S119.4,119.5,121.1,119.1z"/>
<path class="st16" d="M82.4,122.3c-0.3-0.3-3.6,0.4-3.8-0.5s1.9-4.1,6-4.1s7.4,0.2,8.7,0.2c2.1,1.2,4,2.7,5.5,4.6
	c0.4,0.7-0.4,1.6-2.8,1.4L82.4,122.3z"/>
<path class="st13" d="M127.1,129.9c3.1,0,6.1-0.6,8.9-1.9c0,0,0.4-1-0.3-1.2s-7.4,1.6-8.6,1.9S126.4,129.9,127.1,129.9z"/>
<path class="st17" d="M70.3,145.1c0.1-6.6-2.3-22.9-2.3-22.9s-0.7,0.9-5.9,6.1c1.5,6,0.2,17.7,7.4,16.8H70.3z"/>
<path class="st15" d="M64.4,141.5c0,0-1.4,0.8-1.1,3.2c1.5,0.2,2.9,1.2,3.6,2.6v-2.5C65.9,143.8,65.1,142.7,64.4,141.5z"/>
<path class="st17" d="M143,147.6c2.1,1,5.3,2.8,6.1,0.8s3.9-14.5,2.8-17.4c-5-5.4-6.8-6.6-6.8-6.6S145,141.3,143,147.6z"/>
<path class="st4" d="M80.7,120.5c0,0,9-5.8,16.1,2.1L80.7,120.5z"/>
<path class="st4" d="M119.2,123.2c1.8-2.4,4.6-6,15.9-0.8L119.2,123.2z"/>
<path class="st18" d="M96.8,122.6c-5.5-4.2-6.6-5.2-16.1-2.1c0,0,1.6,2.4,8,2.7c2.4,0.1,4.9,0.3,7.3,0.6
	C96,123.8,97,124.1,96.8,122.6z"/>
<path class="st18" d="M119.2,123.2c3.2-2.4,3.7-5.4,15.9-0.8c-5,3.9-12.1,0.7-18.1,2.5c-0.1-0.3,0-0.6,0.2-0.7
	C117.9,123.8,118.6,123.5,119.2,123.2z"/>
<path class="st19" d="M130.5,120.8c-5.7-1.6-7.6-0.7-9.3,0.8c0.5,1.1,1.2,2,2.1,2.7c2,0.1,3.9,0.2,5.8,0.1
	C130,123.4,130.5,122.2,130.5,120.8z"/>
<path class="st19" d="M84.6,119.4c0.1,1.5,0.9,2.8,2.1,3.6c0.6,0.1,1.3,0.2,2,0.2l1.5,0.1c1.7-0.3,2.8-1.8,2.8-3.5
	C90.7,118.5,88.7,118.3,84.6,119.4z"/>
<circle class="st20" cx="64.4" cy="147.3" r="2.6"/>
<ellipse transform="matrix(0.1425 -0.9898 0.9898 0.1425 -22.2251 274.9312)" class="st20" cx="147.6" cy="150.3" rx="2.6" ry="2.6"/>
<path class="st18" d="M124.4,122c0.8-0.4,1.7-0.7,2.6-0.8C127.1,121.2,124.7,119.4,124.4,122z"/>
<path class="st18" d="M87.4,120.6l2.6-0.2C90,120.4,88.5,118.4,87.4,120.6z"/>
<circle class="st9" cx="88.9" cy="121.1" r="1"/>
<circle class="st9" cx="126.1" cy="122.3" r="1"/>
<path class="st21" d="M89.6,155.6c-3.6-1.5-5.4-0.8-5.4-0.5s1.4,1.3,2.5,1.1c0.8-0.1,1.7-0.1,2.5,0.1c0.3,0,0.5-0.3,0.5-0.6
	C89.7,155.7,89.7,155.6,89.6,155.6z"/>
<path class="st22" d="M95.5,145.8c-1.3-1.4-1.4-3.6-0.2-5.1c1.4-1.6,2.4-2,2.7-2.8l0.3-0.8"/>
<path class="st4" d="M84.8,64.4c-18.7,4-30.1,37.5-30.1,37.5S70,55.8,84.8,64.4z"/>
<path class="st1" d="M161.5,246.8c1.5-1.2,6.1-5.3,6.9-14h2.6c-0.7,9.5-6.7,14.1-6.7,14.1h9.2v2.3h-11.9v-2.4H161.5z"/>
<path class="st2" d="M167.4,227.9c-4.6-4.4-9.3-8.8-9.3-13.2c0.1-2.5,2.2-4.5,4.6-4.4c2.1,0,3.3,0.9,4.3,2.8
	c-1.1-3.8-2.2-5.7-4.3-5.7h9.2c-2.1,0-3.3,1.9-4.3,5.7c1.1-1.8,2.2-2.8,4.3-2.8c2.5-0.1,4.6,1.9,4.6,4.4
	C176.7,219.1,172.1,223.5,167.4,227.9z"/>
</svg>
