<?xml version="1.0" encoding="utf-8"?>
<!-- Generator: Adobe Illustrator 20.0.0, SVG Export Plug-In . SVG Version: 6.00 Build 0)  -->
<svg version="1.1" id="Layer_1" xmlns="http://www.w3.org/2000/svg" xmlns:xlink="http://www.w3.org/1999/xlink" x="0px" y="0px"
	 viewBox="0 0 196 266.7" style="enable-background:new 0 0 196 266.7;" xml:space="preserve">
<style type="text/css">
	.st0{fill:#F8E4E3;}
	.st1{fill:#231F20;}
	.st2{fill:#010101;}
	.st3{fill:#EBC0A8;}
	.st4{fill:#CE9D77;}
	.st5{fill:#B98363;}
	.st6{fill:#9E563C;}
	.st7{fill:#D0AE9C;}
	.st8{fill:#EFC7AF;}
	.st9{fill:#D39C82;}
	.st10{fill:#381C15;}
	.st11{fill:#EBF4F0;}
	.st12{fill:#B66229;}
	.st13{fill:#1D1611;}
	.st14{fill:#6B3720;}
	.st15{fill:none;stroke:#E3B59D;stroke-width:0.5;stroke-linecap:round;stroke-miterlimit:10;}
	.st16{fill:#E3B59D;}
	.st17{fill:#EABAA4;}
	.st18{fill:#F8A79B;}
	.st19{fill:#F4D4C3;}
	.st20{fill:#EBBF9B;}
	.st21{fill:#AC615A;}
	.st22{fill:#CFAE9A;}
	.st23{fill:#D7AD90;}
	.st24{fill:#F9BEAA;}
	.st25{fill:#EDC2AB;enable-background:new    ;}
	.st26{fill:#F9CEB5;}
	.st27{fill:#EEC0AC;}
</style>
<title>badbitchcards</title>
<path class="st0" d="M17.1,8.5h161.6c4.7,0,8.5,3.8,8.5,8.5v232.4c0,4.7-3.8,8.5-8.5,8.5H17.1c-4.7,0-8.5-3.8-8.5-8.5V17
	C8.6,12.3,12.4,8.5,17.1,8.5z"/>
<path class="st1" d="M27,28.9l-2.5,2.7V37H22V19.1h2.5v9.2l8.4-9.2h3.3l-7.4,8l7.6,9.9h-3.1L27,28.9z"/>
<path class="st2" d="M28.9,41.9c4.6,4.4,9.3,8.8,9.3,13.2c-0.1,2.5-2.2,4.5-4.7,4.4c-2.1,0-3.3-0.9-4.3-2.8c1.1,3.8,2.2,5.7,4.3,5.7
	h-9.2c2.1,0,3.3-1.9,4.3-5.7c-1.1,1.8-2.2,2.8-4.3,2.8c-2.5,0.1-4.6-1.9-4.6-4.4C19.6,50.7,24.2,46.3,28.9,41.9z"/>
<path class="st1" d="M170.2,240.9l2.6-2.7v-5.4h2.5v17.9h-2.5v-9.2l-8.4,9.2h-3.2l7.4-8l-7.5-9.9h3.1L170.2,240.9z"/>
<path class="st2" d="M167.4,227.9c-4.6-4.4-9.3-8.8-9.3-13.2c0.1-2.5,2.2-4.5,4.6-4.4c2.1,0,3.3,0.9,4.3,2.8
	c-1.1-3.8-2.2-5.7-4.3-5.7h9.2c-2.1,0-3.3,1.9-4.3,5.7c1.1-1.8,2.2-2.8,4.3-2.8c2.5-0.1,4.6,1.9,4.6,4.4
	C176.7,219.1,172.1,223.5,167.4,227.9z"/>
<path class="st3" d="M155.2,143.2c2.8-1.8,5.2-4.4,6.1-10.2c1-5.8,1.3-24.6,1.3-24.6l-11.4,18.5c0,0,1,14.7-0.1,16.7
	C154,143.6,155.2,143.2,155.2,143.2z"/>
<path class="st4" d="M129.1,54.7c0,0,6.6-7.1,13.3-2.9c6.6,4.2,14,15,14.5,32.9c4.9,2.7,13.5,11.3,5.9,23.8c0,0-6.4,15.6,3.8,19.6
	c10.2,3.9,10.2,2,10.2,2s-2.9,2.2-10.3-0.9c-7.4-3.1-7.5-5.2-7.5-5.2s-10.3,7-1.6,15.7c8.6,8.6,8.6,8.6,8.6,8.6s-11.5-9.2-12.9-13.2
	H65.2c0,0-7.9-11.3-12-11.1c0,4.3,1.3,9.9,3,11.8C45.1,129,46.4,97,50.8,89.1c0,0-4.5-15.5,13.6-29.6
	C69.8,39.7,118.7,31.5,129.1,54.7z"/>
<path class="st5" d="M156.8,84.7c0,0-9.9,2.7-14.4-2.5c0,0-0.7-4.8-2.2-4.8L156.8,84.7"/>
<path class="st5" d="M119.4,59.8C87.7,48.2,77.1,73.7,77.1,73.7s-2.3,5.9-1,7.6C76.1,81.3,89.7,53.5,119.4,59.8z"/>
<path class="st6" d="M73.6,61.7c0,0-4.3-3.9-9.2-2.3l-2,1.5C62.5,60.9,67.1,58.5,73.6,61.7z"/>
<g>
	<g>
		<path class="st6" d="M127.8,54.4c-4-5-8.2-10.3-14-13.5c-5.6-3-11.9-3.2-18-1.6c-7.2,1.9-14.5,5.4-20.9,9.3
			c-5.5,3.4-10.2,8.1-11.6,14.5c0,0.1,0.2,0.1,0.2,0C65,56.7,69.8,52,75.2,48.7c5.6-3.5,11.9-6.5,18.2-8.5
			c7.3-2.4,14.9-2.6,21.6,1.6c5.1,3.2,8.9,8,12.6,12.6C127.6,54.5,127.8,54.4,127.8,54.4L127.8,54.4z"/>
	</g>
</g>
<g>
	<g>
		<path class="st6" d="M123.7,63.2c-13.3-3.8-28.5-3.3-39.6,5.9c-5.7,4.7-8.4,11.6-12.9,17.3c-5,6.4-12.1,10.7-20,12.3
			c-0.2,0,0,0.1,0.1,0.1c6-1.3,11.5-4,16.1-8.1c5.2-4.7,7.8-10.9,11.9-16.4c10.3-13.7,28.8-15.4,44.2-11
			C123.7,63.3,123.9,63.3,123.7,63.2L123.7,63.2z"/>
	</g>
</g>
<g>
	<g>
		<path class="st6" d="M129.3,57.6c1.5-3.1,4.7-4.7,8.1-4.6c3.9,0.1,7.2,2.7,9.3,5.8c3.9,5.7,4.2,12.9,5.7,19.4c0,0.1,0.3,0.1,0.2,0
			c-1.9-8-2.1-18.6-9.8-23.6c-4.5-2.9-11.4-2.2-13.8,3C129,57.6,129.2,57.7,129.3,57.6L129.3,57.6z"/>
	</g>
</g>
<g>
	<g>
		<path class="st6" d="M126.7,70.6c13.6,3.7,22,16.4,25.1,29.5c1.7,7.2,2.1,14.5,2.2,21.9c0,6.3-0.7,13.2,2.9,18.7
			c0,0.1,0.3,0,0.2,0c-4.1-6.2-2.8-14.3-2.9-21.4c-0.2-7.6-0.8-15.3-3.1-22.6C147.5,84.9,139.1,73.9,126.7,70.6
			C126.7,70.5,126.5,70.5,126.7,70.6L126.7,70.6z"/>
	</g>
</g>
<g>
	<g>
		<path class="st6" d="M174.9,131.3c-6.1-0.2-12.2-2.7-15.9-7.7c-3.2-4.4-4.1-10.2-2.1-15.3c0-0.1-0.2-0.1-0.2,0
			c-2.2,5.6-0.9,12.1,3.1,16.6c3.8,4.4,9.5,6.5,15.2,6.6C175,131.4,175,131.3,174.9,131.3L174.9,131.3z"/>
	</g>
</g>
<g>
	<g>
		<path class="st6" d="M51,89.6c4,1.6,8.7,0,10.9-3.8c0-0.1-0.2-0.1-0.2,0c-2.1,3.6-6.5,5.3-10.4,3.7C51.1,89.4,50.9,89.5,51,89.6
			L51,89.6z"/>
	</g>
</g>
<g>
	<g>
		<path class="st6" d="M55.4,114.8c-3-3.6-4.8,4.6-5,6.3c-0.5,5.8,1.6,11.6,5.7,15.8c0.1,0.1,0.3,0,0.2-0.1c-2.9-3-4.8-6.7-5.5-10.8
			c-0.3-1.7-0.3-3.5-0.1-5.2c0.1-1.1,0.3-2.2,0.6-3.3c0.3-1,1.6-5.1,3.8-2.6C55.2,114.9,55.5,114.9,55.4,114.8L55.4,114.8z"/>
	</g>
</g>
<g>
	<g>
		<path class="st6" d="M53.4,116.1c-2.4,5.6-2.1,11.8,0.7,17.2c0,0.1,0.3,0,0.2,0c-2.9-5.4-3.1-11.5-0.7-17.1
			C53.7,116,53.5,116,53.4,116.1L53.4,116.1z"/>
	</g>
</g>
<path class="st3" d="M112.6,243.2c-31.9,0-45.2-51.9-45.2-51.9s14.2,0.3,12.9-17.9s-0.2,2.4-0.2,2.4s57.6-45.4,65.3-38
	s0.5,38.9,0.5,38.9s-4,14.8-1,26.3C147.9,214.5,125.4,243.2,112.6,243.2z"/>
<path class="st7" d="M79.5,183.6c0,0,23.7,16.4,28.8,16.4c5.1,0,9.4-5.9,9.4-5.9l-6.9-13.2l-30.7-5L79.5,183.6z"/>
<path class="st7" d="M129.6,182.3c0,0,2.5,12.3,2,14.7s12.2-3.5,12.2-3.5s1.1-20.5,4.1-27.6c2.9-6.8-16.3,11-16.3,11L129.6,182.3z"
	/>
<path class="st7" d="M134.7,183.9c5.1-4.6,9.8-9.7,12.7-15.8v-4l-43,27.8c0,0,6.3,2.9,13.7,0.8S134.7,183.9,134.7,183.9z"/>
<path class="st8" d="M122.7,70.6c-26.6-4.9-32.9,7.5-37.4,13.9s-20.5,27-22.6,28.5c0,3.9-0.8,21.9,1.8,25.7c1.7,4.5,8.4,21,8.9,24.1
	s12.5,29.5,38.7,29.5c8.4-1.3,22.6-8.4,27.7-13.5c5.1-5.1,10.2-16.7,10.5-18.4c0.4-1.8,1-11.4,2.4-17.1
	C154,137.5,152.6,75.6,122.7,70.6z"/>
<path class="st9" d="M75.6,123.3c0,0,0.4,1.3,1.4,2c2.4,0.8,7.3,0.3,9.5-1"/>
<path class="st9" d="M128.5,120.4c1.8-0.4,3.6-1.7,3.6-1.7l-0.3-0.9l-10.4,2.6C121.5,120.4,126.1,120.9,128.5,120.4z"/>
<path class="st10" d="M129.7,114.1c4.1,1.8,5.1,3.7,5.1,3.7s-1-0.1-2.6,0.9s-15.3-1.5-15.3-1.5S119.7,110.2,129.7,114.1z"/>
<path class="st10" d="M75.9,124.5c0,0-2.3-0.7-3.4-0.3c-0.8-2.1,8.1-12.4,16.4-4.1L75.9,124.5z"/>
<path class="st11" d="M114.2,119.6c0,0,3.1-3.1,5-4.1s7.6-2.7,12.6,2.3c-3.4,2.7-6.9,2.6-11.6,2.6s-5.7,0.6-5.7,0.6
	S114.2,120.7,114.2,119.6z"/>
<path class="st11" d="M75.6,123.3c2.7-4,8.2-8.2,16.2-1.1c0,0,0.8,1.5-0.3,1.7c0,0-3.8-0.3-6.8,0.9C81.7,126,76.4,124.8,75.6,123.3z
	"/>
<path class="st12" d="M123.4,120.4c3.6,0,4.1-1.7,4.1-2.7s0.9-3.3-4.1-3.3C118.4,114.4,118.8,120.4,123.4,120.4z"/>
<path class="st12" d="M83.5,118.4c1.9,0,4,0.9,4,0.9s1.1,3.3-0.4,4.8c0,0-1.2,0.3-2.4,0.7c-1.2,0.4-1.9,0.5-1.9,0.5
	s-2.6-1.6-2.6-3.5C80.2,120,79.7,118.4,83.5,118.4z"/>
<path class="st13" d="M83.8,122.6c1.3,0,1.8-2.6,0-2.6S82.3,122.6,83.8,122.6z"/>
<path class="st13" d="M123.1,118.7c1.3,0,1.8-2.6,0-2.6S121.5,118.7,123.1,118.7z"/>
<path class="st14" d="M108.8,151.2c0,0,0.1-0.8,0.5-1.5c0,0,3.3-2.6,4.2-2.6c0.9,0,0.8,0.5,0.8,0.5"/>
<path class="st14" d="M103.1,150.8c-2.8-2.1-4.4-2.2-4.8-2"/>
<path class="st15" d="M105.2,152.4c1.7,0.3,2.8,0,2.8,0"/>
<g>
	<g>
		<path class="st16" d="M97.9,150.6c-0.6-0.2-1.7-0.6-2-1.2c-0.2-0.4-0.1-1.1-0.2-1.5c-0.1-0.5-0.2-1.2,0.1-1.7
			c0.2-0.3-0.8-0.4-1-0.1c-0.3,0.5-0.2,1.3-0.1,1.8s0,1.3,0.3,1.7c0.5,0.7,1.6,1.1,2.4,1.4C97.8,151.1,98.5,150.8,97.9,150.6
			L97.9,150.6z"/>
	</g>
</g>
<path class="st17" d="M96,143.2c1.8-0.4,2.6-4,2.6-5.9c-0.2-4.6-0.2-4.6-0.2-4.6s-0.3-0.5-0.5,0c-0.3,0.5,0.3,3.2-0.2,5.5
	c-0.5,2.2-1.3,2.7-1.7,3C95.7,141.5,95.1,142.4,96,143.2z"/>
<path class="st17" d="M106.6,118.7c0,5.7,3.4,18.9,4.8,19.8c1,0.6,2.8-2.9,3.8,2.1c1.3-0.5-7.3-12.7-7.2-18c0.1-5.3,0.7-7.1,0.7-7.1
	S106.6,115.9,106.6,118.7z"/>
<path class="st17" d="M93.6,116c0,0,3.2,1.7,4.1,4.1s1.5,4.5,1.5,4.5S96.8,119.4,93.6,116z"/>
<path class="st18" d="M93.2,164.4c3.3-0.5,7.1-2.1,8.6-2.6s5.3-0.5,6.4,0c2.1-0.6,1.9-1.4,2.8-1.8c1-0.5,11.9,0.5,13.5,0
	c0,0-6.1,9.7-15.6,9.7S95.5,168.4,93.2,164.4z"/>
<path class="st11" d="M84.2,120.6c-0.2,0.6-0.4,0.8,0.3,1.2C84.5,121.9,85.3,120.7,84.2,120.6z"/>
<path class="st11" d="M122.4,117.4c0.6,0.2,0.8,0.4,1.2-0.3C123.6,117.1,122.5,116.3,122.4,117.4z"/>
<path class="st19" d="M113,121.3c0.9,0.8,1.6-0.6,3-0.7l-1.8-1C114.2,119.6,113.6,119.9,113,121.3z"/>
<path class="st19" d="M91.5,123.9c0,0,1.6,0.4,2,0c0.5-1.3-1.7-1.7-1.7-1.7S90.6,123.1,91.5,123.9z"/>
<path class="st3" d="M67.3,149.8c2,3.9,3.9,2.6,3.9,2.6l-7.5-23.5c0,0-1,7.4,1,13.3C66.6,148.1,67.3,149.8,67.3,149.8z"/>
<path class="st20" d="M126.8,72.1c1.4-6.6,2.3-17.4,2.3-17.4s-3.8,7.5-4.1,10.8c-0.3,3.3-0.7,5.8-0.7,5.8L126.8,72.1z"/>
<path class="st17" d="M126.5,158.9c0.7,0.7-2.3,1.4-2.3,1.4S125.8,158.3,126.5,158.9z"/>
<g>
	<g>
		<path class="st21" d="M90.1,163.1c2.4,1.8,4,2.3,6.9,1.9c3.4-0.5,7.1-1.2,10.6-0.9c2.7,0.2,4.5-1,7.1-1.4
			c4.2-0.6,7.6-1.1,11.4-3.1c0.2-0.1-0.2-0.3-0.4-0.2c-3.8,2.1-7.3,2.4-11.5,3.1c-0.8,0.1-1.7,0.3-2.4,0.6c-1.4,0.6-2.6,0.8-4.1,0.8
			c-2.3,0-4.6,0.1-7,0.4c-1.3,0.1-2.6,0.3-3.9,0.5c-2.5,0.4-4.4-0.3-6.4-1.7C90.4,162.9,89.9,163,90.1,163.1L90.1,163.1z"/>
	</g>
</g>
<path class="st22" d="M124.5,160c1.2-3.5,3.4-1.8,3.4-1.8S126.4,159.5,124.5,160z"/>
<g>
	<g>
		<path class="st23" d="M69.3,115.5c3.3-3.9,7.5-2.2,11.5-1.6c2.8,0.4,5.7,0.8,8.5,1c1.2,0.1,2.5-3.6,2.8-3.5
			c-5.2-0.3-10.2-1.7-15.4-2.1c-3.3-0.2-5.3,2.4-7.3,4.8C68.5,115.3,67.3,117.9,69.3,115.5L69.3,115.5z"/>
	</g>
</g>
<g>
	<g>
		<path class="st23" d="M135.1,106.3c-3.3-2.1-6.1-3-10-1.6c-2.7,1-5.2,2.4-8,3.1c-2.4,0.6-4.7,1-7,2c-0.5,0.2,0.4,1.6,0.5,1.8
			c0.2,0.2,0.3,0.5,0.5,0.7c1,1.6,3.6,2.6,1.9-0.1c-0.2-0.2-0.3-0.5-0.5-0.7c0.2,0.6,0.3,1.2,0.5,1.8c3.4-1.5,7.2-1.7,10.6-3.2
			c4.8-2,7.9-3.7,12.7-0.6C138.1,110.7,135.9,106.9,135.1,106.3L135.1,106.3z"/>
	</g>
</g>
<path class="st24" d="M105.8,165.1"/>
<path class="st24" d="M105.8,165.1L105.8,165.1c-0.4,0.7,0.1,1.6,0.9,1.5l7.2-0.7c0.4,0,0.7-0.3,0.8-0.6c0.2-0.4,0.3-1-0.3-1.1
	C114.5,164.3,110,165.4,105.8,165.1z"/>
<path class="st25" d="M122.4,143.9c0.4,1.5-0.1,4.9-6.8,4.9c0,0,1.6-1.6,1.8-4.2c0.2-2.7-2.5-5.5-2.5-5.5s-4.1-8.1-5.6-11.3
	s-1.3-5-1.3-8c0-4.9,0.7-4,0.7-4s1.1,2.6,2.3,6c1.7,5.1,3.3,9.9,6.7,13.4S121.1,137.1,122.4,143.9z"/>
<path class="st26" d="M104.4,146.1c2.7,0.3,5.4-0.2,5.9-1.1c0.5-0.9-0.3-2-1.5-1.5s-2.6,0.4-4.4,0.3S103.3,146.8,104.4,146.1z"/>
<path class="st27" d="M136.4,132.5c-8.8-11.5,9.4-17.5,12.1-11.5s1,22.1,0,32.6c-3.3,5.3-13-4-12.1-8.7
	C137.3,140.1,139.1,136.1,136.4,132.5z"/>
<path class="st27" d="M67.9,131.3c2,7.1,3.2,15.5,4.8,17.9c1.6,2.4,13.3-0.9,12.1-9.1c-1.2-8.2-2.8-8.4-5.9-9.3
	C75.7,129.8,66.9,127.7,67.9,131.3z"/>
<g>
	<path class="st9" d="M110.8,112.5c0-1.1,0.8-2,1.5-2.8c0.3-0.3,0.5-0.5,0.8-0.8"/>
</g>
<g>
	<path class="st9" d="M112.3,112.1c0.3-1.4,1.1-2.6,2.3-3.5"/>
</g>
<g>
	<path class="st9" d="M113.7,112c0.4-1.5,1.3-2.8,2.6-3.7"/>
</g>
<g>
	<path class="st9" d="M115.6,111.6c0.2-1.6,1.1-3,2.5-3.8"/>
</g>
<g>
	<path class="st9" d="M117.1,111.1c0.5-0.9,1-1.8,1.6-2.7c0.3-0.5,0.7-1.1,1.3-1.2"/>
</g>
<g>
	<path class="st9" d="M118.7,110.3c1.3-1,1.3-3.2,2.8-3.9"/>
</g>
<g>
	<path class="st9" d="M120.5,110c1.2-1.2,1.3-3.2,2.7-4.2"/>
</g>
<g>
	<path class="st9" d="M122.4,109.2c1.3-0.9,1.2-3,2.5-3.9"/>
</g>
<g>
	<path class="st9" d="M124.5,108.6c0.3-0.6,0.6-1.3,0.9-1.9c0.3-0.8,0.8-1.6,1.5-1.9"/>
</g>
<g>
	<path class="st9" d="M125.9,107.9c0.5-0.5,0.7-1.3,1-2s0.8-1.4,1.6-1.4"/>
</g>
<g>
	<path class="st9" d="M128.2,106.2c0.4-0.6,0.9-1.2,1.5-1.6c0.2-0.1,0.5-0.3,0.7-0.1"/>
</g>
<g>
	<path class="st9" d="M129.7,106c0.5-0.7,1.4-1.2,2.3-1.2"/>
</g>
<g>
	<path class="st9" d="M130.8,106.2c0.6-0.5,1.3-0.6,2-0.5"/>
</g>
<g>
	<path class="st9" d="M132.1,106.9c0.5-0.7,1.6-0.9,2.4-0.4"/>
</g>
<g>
	<path class="st9" d="M133.4,107.4"/>
</g>
<g>
	<path class="st9" d="M133.4,107.4c0.7-0.3,1.4-0.4,2.2-0.4"/>
</g>
<g>
	<path class="st9" d="M134.5,108c0.6-0.3,1.3-0.3,1.8,0.1"/>
</g>
<g>
	<path class="st9" d="M135.2,108.6c0.4,0,0.8,0,1.2,0"/>
</g>
<g>
	<path class="st9" d="M74.3,110.7c0.3-0.2,0.6,0,0.9,0.3c0.4,0.4,0.7,0.9,0.8,1.4c0.1,0.5,0.3,1.1,0.8,1.2"/>
</g>
<g>
	<path class="st9" d="M75.4,110c1.2,0.8,2,2.2,2.1,3.6"/>
</g>
<g>
	<path class="st9" d="M76.5,110c0-0.2,0.3-0.1,0.4,0.1c0.9,1,1.4,2.4,1.4,3.7"/>
</g>
<g>
	<path class="st9" d="M77.9,110c0.4,0,0.8,0.4,1,0.8c0.6,0.9,0.9,2,0.9,3.1"/>
</g>
<g>
	<path class="st9" d="M79.4,110.2c0,0.4,0.3,0.8,0.6,1.1c0.6,0.8,0.8,1.9,0.7,2.8"/>
</g>
<g>
	<path class="st9" d="M80.9,110.9c0.9,0.8,1.2,2.1,1,3.3"/>
</g>
<g>
	<path class="st9" d="M81.9,110.7c-0.2,0.1-0.1,0.4,0,0.5c0.5,1,1.2,1.9,0.9,2.9c0,0.1,0.1,0,0,0"/>
</g>
<g>
	<path class="st9" d="M83,111.2L83,111.2c0.3,0,0.6,0.2,0.7,0.5s0.1,0.6,0.2,0.9c0,0.5,0.1,1.1,0.1,1.6"/>
</g>
<g>
	<path class="st9" d="M84.4,111.5c0.7,0.7,1.1,1.8,1,2.8"/>
</g>
<g>
	<path class="st9" d="M85.3,111.8c0.7,0.4,1.2,1.2,1.2,2"/>
</g>
<g>
	<path class="st9" d="M87.2,114.1c0.3-0.9,0.1-2-0.6-2.6"/>
</g>
<g>
	<path class="st9" d="M88.4,114.4c0.1-1-0.1-2.1-0.7-2.9"/>
</g>
<g>
	<path class="st9" d="M89.2,114.4c0.3-0.7,0.1-1.5-0.3-2"/>
</g>
<g>
	<path class="st9" d="M90.7,114.5c-0.1-0.7-0.3-1.4-0.8-1.9"/>
</g>
<g>
	<path class="st9" d="M75.4,113.2c-0.5-1-1.6-1.6-2.6-2.1"/>
</g>
<g>
	<path class="st9" d="M73.6,113.1c-0.3-1-1.2-1.7-2.2-1.8"/>
</g>
<g>
	<path class="st9" d="M72.8,113.8c-0.5-0.6-1.3-1-2.1-1.2"/>
</g>
<g>
	<path class="st9" d="M71.2,113.9c-0.7-0.2-1.5-0.3-2.3-0.2"/>
</g>
<g>
	<path class="st9" d="M70.3,114.7c-0.6-0.3-1.4-0.3-1.9,0.1"/>
</g>
<g>
	<path class="st9" d="M69,115.6c-0.4,0-0.8,0.2-1.1,0.5"/>
</g>
<g>
	<path class="st9" d="M69.5,112.9c0.7,0.3,1.4,0.5,2.1,0.8"/>
</g>
<g>
	<path class="st9" d="M71.6,111.5c0.4,0.3,0.7,0.7,1.1,1"/>
</g>
</svg>
