<?xml version="1.0" encoding="utf-8"?>
<!-- Generator: Adobe Illustrator 20.0.0, SVG Export Plug-In . SVG Version: 6.00 Build 0)  -->
<svg version="1.1" id="Layer_1" xmlns="http://www.w3.org/2000/svg" xmlns:xlink="http://www.w3.org/1999/xlink" x="0px" y="0px"
	 viewBox="0 0 196 266.7" style="enable-background:new 0 0 196 266.7;" xml:space="preserve">
<style type="text/css">
	.st0{fill:#F8E4E3;}
	.st1{fill:#E8B272;}
	.st2{fill:#DAB995;}
	.st3{fill:#927050;}
	.st4{fill:#F5E0CD;}
	.st5{fill:#978466;}
	.st6{fill:#EBF4F0;}
	.st7{fill:#EBC0A8;}
	.st8{fill:#D0AE9C;}
	.st9{fill:#EFC7B0;}
	.st10{fill:#6B3720;}
	.st11{fill:#E4B69D;}
	.st12{fill:#DFB9A3;enable-background:new    ;}
	.st13{fill:#443123;enable-background:new    ;}
	.st14{fill:#DA8091;}
	.st15{fill:#F8E8D7;}
	.st16{fill:#E5BFA9;}
	.st17{fill:#7BA29E;}
	.st18{fill:#F4D4C3;}
	.st19{fill:#C9A391;}
	.st20{fill:#1D1611;}
	.st21{fill:#F7CEB7;}
	.st22{fill:#BE1E2D;}
</style>
<title>badbitchcards</title>
<path class="st0" d="M17.1,8.5h161.6c4.7,0,8.5,3.8,8.5,8.5v232.4c0,4.7-3.8,8.5-8.5,8.5H17.1c-4.7,0-8.5-3.8-8.5-8.5V17
	C8.6,12.3,12.4,8.5,17.1,8.5z"/>
<path class="st1" d="M131.5,145.7c7.4,0.2,5.6,15.7-1.3,14.3c-2.1-0.4-4.6-2-4.9-4.2c-0.3-1.8,0.8-3.6,1.8-5
	c1.7-2.2,3.8-4.1,6.1-5.7c0.8-0.5-0.2-1.2-0.7-1.4c-0.9-0.3-1.9-0.2-2.7,0.4c-4.6,3.2-12.8,11-5.5,15.8c3.5,2.3,8.5,3.1,12.1,0.6
	c2.9-2.1,4.2-6.1,3.8-9.6c-0.6-4.6-4.1-7.2-8.6-7.3C129.1,143.6,129.1,145.6,131.5,145.7z"/>
<path class="st1" d="M62.7,149.8c-0.2,8.2-12.8,6.8-12.4-0.8c0.1-2,1.2-4.9,3-6c1.4-0.9,2.9,0.3,4,1.1c2.1,1.7,4,3.7,5.5,5.9
	c0.8,1.1,4.6,0.6,3.9-0.5c-3.3-4.8-11.1-12.7-17.2-7.3c-3.1,2.8-4.4,8.1-1.6,11.5c2.5,3,6.8,4,10.5,3.7c4.4-0.4,8.2-2.9,8.3-7.6
	C66.8,148.4,62.8,148.4,62.7,149.8z"/>
<path class="st2" d="M43.8,110.7c0-67.3,34-62.3,34-62.3s56.8-21.3,72,20.9s-18.3,75.4-18.3,75.4l-82.6-19.5L43.8,110.7"/>
<path class="st2" d="M45.3,110.6c0.1-18.4,1.4-44,17.3-56.5c3.2-2.6,7-4.2,11.1-4.8c1.6-0.2,3.2,0,4.8-0.3c3.5-0.7,7.9-2.4,11.8-3.2
	c8.1-1.8,16.4-2.3,24.6-1.5c9.5,1,18.8,4.6,25.4,11.7c8.8,9.5,12.2,23.8,12.1,36.5c-0.2,18.7-8.7,38.6-22,51.8l2-0.6
	c-26.9-6.4-53.7-13.8-80.8-19.1c-0.5,0-1.1-0.2-1.6-0.4c0.9,0.6,0-1-0.4-2l-4.2-12c-0.4-1.1-3.3-0.3-2.9,0.8l2.7,7.7
	c0.6,1.8,1.1,5.7,2.5,7s4.8,1.3,6.4,1.7l39.2,9.3l34.7,8.2c1.9,0.4,3.3,1.1,5-0.1c3-2.1,5.6-6.6,7.6-9.5c10.1-14.5,16-32,14.5-49.8
	s-9.9-34.4-27.4-40.6c-12.4-4.4-26.2-3.4-38.8-0.6c-3.6,0.7-7.1,1.6-10.5,2.9c-1.4,0.6-1,0.1-0.1,0.2c-0.6,0-1.1-0.1-1.7-0.1
	c-7.4-0.1-14.6,3.8-19.5,9.2c-13,14-14.5,36.3-14.6,54.3C42.4,112.2,45.3,111.7,45.3,110.6L45.3,110.6z"/>
<path class="st3" d="M58.5,93.2c0,0-8.9,8.8-11.5,19.9s9.8,14.5,9.8,14.5l9.8-31.9L58.5,93.2"/>
<path class="st4" d="M101.8,78.4c2-6.1,7.6-10.3,14.1-10.4c3.8,0,7.1,1.9,10.3,3.8c3.4,2,6.9,4,10.1,6.2c2.9,2,4.2,4.8,6.2,7.6
	c1.5,2.2,3.3,4.1,5.3,5.8c4.1,3.4,9,5.6,14.2,6.5c0.1,0,0.2-0.1,0.1-0.1c-7.7-1.3-14.5-5.6-19.1-11.9c-1.9-2.6-3.1-5.4-5.7-7.4
	c-3-2.1-6.1-4-9.3-5.8c-4.7-2.9-9.4-5.8-15.1-4.5c-5.3,1.1-9.7,5-11.3,10.2C101.6,78.5,101.8,78.5,101.8,78.4L101.8,78.4z"/>
<path class="st4" d="M88.3,71.9c-0.9-10.7-7.4-20.2-17.2-24.8c-0.1,0-0.3,0-0.2,0.1c9.7,4.6,16.2,14,17.1,24.7
	C88,72,88.3,72,88.3,71.9L88.3,71.9z"/>
<path class="st4" d="M70.6,76.8c-1.9-5.8-9.2-4.1-13.6-3.1c-5.9,1.4-12.2,4-14.2,10.3c0,0.1,0.2,0.1,0.2,0c1.6-5,6-7.8,10.8-9.3
	s14.3-4.4,16.5,2.1C70.4,76.9,70.6,76.9,70.6,76.8L70.6,76.8z"/>
<path class="st4" d="M60.4,87.4c-4.6,1-7.9,4.3-10.6,7.9c-3.5,4.8-6.5,10-9,15.4c0,0.1,0.2,0.1,0.2,0c2.1-4.7,4.6-9.2,7.5-13.4
	C51.5,93,55,88.6,60.4,87.4C60.7,87.5,60.5,87.3,60.4,87.4L60.4,87.4z"/>
<path class="st4" d="M58,95c-2.7-2.5-5.4,1-6.9,3.1c-3.7,5.3-6.9,11-9.3,17c0,0.1,0.2,0.1,0.2,0c1.5-3.6,3.2-7.2,5.1-10.5
	c1.3-2.3,6.9-12.9,10.6-9.5C57.8,95.1,58.1,95.1,58,95L58,95z"/>
<path class="st4" d="M137.2,105.2c4.7,5.9,3.3,14.6,3.9,21.6c0.2,3.9,0.8,7.8,1.6,11.6c0.6,2.4,1.6,4.5,3.9,5.6c0.1,0,0.3,0,0.2-0.1
	c-3.4-1.7-3.9-5.8-4.4-9.1c-0.6-3.9-1-7.9-1.2-11.9c-0.3-6.1,0.4-12.8-3.6-17.9C137.4,105.1,137.2,105.1,137.2,105.2L137.2,105.2z"
	/>
<path class="st4" d="M138.5,103.5c2,6.8,3.4,13.7,4.3,20.7c0.6,4.4,1.1,9.3,4.9,12.2c0.1,0,0.3,0,0.2-0.1c-4.5-3.5-4.5-9.8-5.2-15
	c-0.9-6-2.2-12-3.9-17.9C138.8,103.4,138.5,103.5,138.5,103.5z"/>
<path class="st5" d="M90.9,74.4c-1.8-10.6-7.3-20.3-15.6-27.3c-0.1,0-0.3,0-0.2,0.1c8.2,6.9,13.8,16.6,15.5,27.2
	C90.6,74.5,90.9,74.5,90.9,74.4z"/>
<path class="st5" d="M132,80.4c6.8,0.5,8.6-7,9-12.4c0.3-4.2,0.7-8.8,0-12.9c-0.4-2.3-1.7-4.2-4.2-4.2c-0.1,0-0.1,0.1,0,0.1
	c4.3,0,4.1,5.1,4.1,8c0,2.5,0,5-0.1,7.5c-0.3,5.3-1.3,14.2-8.7,13.7C132,80.3,131.9,80.4,132,80.4L132,80.4z"/>
<path class="st5" d="M139.1,93.6c2.4-0.1,2.5,6.4,2.5,7.9c0,2.4-0.4,4.9-0.5,7.3c-0.2,4,0.2,8,2.9,11.1c0.1,0.1,0.3,0,0.2-0.1
	c-4-4.6-2.8-10.8-2.5-16.3c0.1-1.8,0.6-10.2-2.6-10.2C139,93.5,139,93.6,139.1,93.6L139.1,93.6z"/>
<path class="st5" d="M46.3,81.6c1.6-4.8,6.2-6.8,10.9-7.7s13.7-2.5,14.5,4.1c0,0.1,0.3,0.1,0.2,0c-0.7-5.9-7.9-5.1-12-4.6
	c-5.5,0.7-11.8,2.3-13.8,8.2C46.1,81.6,46.3,81.6,46.3,81.6L46.3,81.6z"/>
<path class="st5" d="M107.4,73.3c-0.5-2.6,4.7-3.1,6.3-3.2c1.9,0,3.8,0.2,5.6,0.7c2.9,0.8,5.7,2.1,8.2,3.8c4.7,3,8.7,7.2,10.1,12.7
	c0,0.1,0.3,0.1,0.2,0c-1.8-7.2-8.3-12.5-14.9-15.3c-3.2-1.5-6.6-2.1-10.1-1.9c-1.7,0.2-6.2,0.7-5.7,3.2
	C107.1,73.3,107.4,73.3,107.4,73.3L107.4,73.3z"/>
<path class="st5" d="M109.6,73.2c3.3-4.8,10.9-2.4,15.1-0.2c4.1,2.1,7.6,5.3,10.1,9.2c0,0.1,0.3,0,0.2,0c-3.2-5-8-8.8-13.6-10.7
	c-3.8-1.3-9.4-2.2-12.1,1.7C109.4,73.2,109.5,73.3,109.6,73.2L109.6,73.2z"/>
<path class="st5" d="M110.5,74c7.4-5.6,15.4-0.1,20.7,5.7c0.1,0.1,0.3,0,0.2-0.1c-5.4-5.9-13.6-11.4-21.1-5.7
	C110.2,74,110.5,74.1,110.5,74L110.5,74z"/>
<path class="st5" d="M115.2,73.7c5.9-0.2,11.5,2.7,14.8,7.5c0,0.1,0.3,0,0.2,0C126.9,76.3,121.2,73.4,115.2,73.7
	C115.1,73.6,115.1,73.7,115.2,73.7L115.2,73.7z"/>
<path class="st6" d="M73,118.4c5-2.3,8.5-3.9,12.4,0.7c0,0,0.4,0.8,0,1.3c-2.1,0.5-4.3,0.6-6.4,0.3c-3.1-0.4-4.5-1.2-5.2-1.8
	L73,118.4z"/>
<path class="st7" d="M68.3,175.6c0,0-0.9,27.5-3.1,32.2s10.2,37.4,31.2,37.4s30.6-34.8,30.6-34.8s-8.9-28.8-4.6-34.8
	C122.5,175.6,86.9,157,68.3,175.6z"/>
<path class="st8" d="M98.5,181.7c0,0,10.9,36.7,11.1,43.8c6.2-1.9,16-20.1,16-20.1s-6.7-20.8-3.1-29.8
	C118.3,166.3,98.2,178.2,98.5,181.7z"/>
<path class="st9" d="M100.4,72.2c30.7,0,37.8,10.7,39.6,14.7s-2.7,27.6-2.2,30.2s-5.8,36.2-10.6,48.9s-18.6,29.2-26.8,28.1
	c0,0-5.8,2.8-11.6,0c-11.5-3.4-20.6-12.3-24.4-23.7c-5.2-5.5-7.2-19.6-7.9-23.7c-1.6-8.4-2.3-16.9-2.3-25.4
	c0.1-6.1,0.8-12.2,2.3-18.2C59.6,91,59.4,81.7,70,76.6c2.1-1,4.2-1.7,6.4-2.3C82.1,73,89.8,72.2,100.4,72.2z"/>
<path class="st7" d="M43.8,110.7c6.9,3.8,5.7,8.6,10.4,10.6c0,0,1.3,20,2.3,25.4c0,0-6.2,1.4-11.3-18
	C37.3,110.7,43.8,110.7,43.8,110.7z"/>
<path class="st10" d="M91,151c-1.3-1.4-0.7-2.2,0.6-2s4.4,4.4,5.3,5.1"/>
<path class="st10" d="M101.5,154.2c4-3.1,5.2-4.3,6.1-3.6s-0.6,1-0.6,1"/>
<path class="st11" d="M97.4,154.8c1,0.3,2.1,0.3,3.1,0c0.2-0.1,0.3-0.2,0.2-0.3s-0.5-0.1-0.7-0.1c-0.7,0.2-1.4,0.2-2.1,0
	c-0.2,0-0.6-0.1-0.7,0.1S97.3,154.8,97.4,154.8L97.4,154.8z"/>
<path class="st11" d="M109,144.7c0.4,1.8,1.8,4.9,0.1,6.4c-0.3,0.3,0.6,0.5,0.9,0.2c1.9-1.6,0.5-4.7,0.1-6.6
	C109.9,144.3,108.9,144.4,109,144.7z"/>
<path class="st11" d="M87.1,143c-1.3,2-0.9,6.5,1.6,7.6c0.3,0.1,1.2-0.1,0.7-0.4c-2.3-0.9-2.5-5.2-1.4-7.1
	C88.2,142.8,87.2,142.7,87.1,143L87.1,143z"/>
<path class="st12" d="M75.5,176.8c0.8-5.2-1.5-16.1-1.8-17.2c-0.1-0.9,0.2-1.8,0.7-2.6c2.5-0.3,8.3-6.5,10.9-11.8c0,0.5,0,1,0,1.5
	c-0.1,0.3-7.4,10.8-10.1,11.2c0,0-0.8,1.1-0.7,1.7s2,16.3,1.8,17.2L75.5,176.8z"/>
<path class="st13" d="M117.2,119.2c3.3-1.3,4.6-0.5,7.7,2.1s3.6,3,3.6,3c-2.5,0.5-5.1,0.8-7.7,0.8c-0.9,0-5.8-3.1-5.8-3.1l-1.4,0.8
	C113.7,122.9,115.9,119.6,117.2,119.2z"/>
<path class="st13" d="M79.5,114.4c-6.9,2.5-5.8,2.5-7.4,4.1s-2.4,2.3-2.4,2.3s2.5-0.9,9.2,0l8.1-0.6c0,0-0.2-2.4-3.4-4.5
	S79.5,114.4,79.5,114.4z"/>
<path class="st12" d="M111.1,148c1.8,4,3.9,8.9,4.8,10.9s0.4,3.8,0,5.4s-1.8,9.5-4,12.5c0,0,3.6-11.9,3.8-14.9s-4.4-11.8-4.7-12.4
	C111,149,111,148.5,111.1,148z"/>
<path class="st14" d="M79.5,163.8c5.1,3.4,10.5,9.1,17.3,9s15.7-7.4,15.7-7.4s-13.4-0.5-14.8,0.1c-4.7-1.1-9.5-1.5-14.3-1.2
	C83.4,164.3,80.6,162.3,79.5,163.8z"/>
<path class="st15" d="M86.9,165.9c3.1,0.4,8.4,0.6,9.6,1.5c0,0,7.7-0.5,10.2,0c-3.5,0.8-7.1,1.2-10.7,1.3
	C92.8,168.6,89.6,167.6,86.9,165.9z"/>
<path class="st16" d="M111,128.8c5.5,7.7,10.6,10.4,12.8,10.9c0,0,4.8-4.2,4.2-7.2c0,0-10.6-1.6-14.3-4.8
	C113.8,127.7,111.1,126.8,111,128.8z"/>
<path class="st16" d="M90.3,125.9c-7.2,7.2-13.9,4.6-18.6,2.9c0,0-0.3,0.6,0.3-0.9c0.1-0.2-5.1,2.3-5,2.2s4.1-2.5,5.2-2.5
	c0,0,10.1,1.6,14.6-2.2C86.9,125.3,90.3,123.7,90.3,125.9z"/>
<path class="st6" d="M73,118.4c5-2.3,8.5-3.9,12.4,0.7c0,0,0.4,0.8,0,1.3c-2.1,0.5-4.3,0.6-6.4,0.3c-3.1-0.4-4.5-1.2-5.2-1.8
	L73,118.4z"/>
<path class="st17" d="M82.9,117c-2.4-1.4-4.9-0.8-7.8,0.5c0.3,1.1,0.8,2.1,1.6,2.9c0.8,0.2,1.5,0.4,2.3,0.4c0.6,0.1,1.3,0.1,1.9,0.1
	C82.5,120.1,82.8,118,82.9,117z"/>
<path class="st18" d="M87.6,120.9c0.1,0.9-3.6-0.2-3.6-0.2l1.4-0.2c0.3-0.4,0.3-0.9,0-1.3C85.4,119.2,87.5,120.3,87.6,120.9z"/>
<g>
	<g>
		<path class="st19" d="M69.5,114.5c5.1-3.7,11.3-3.3,17.1-1.9c0.6,0.1,2.1-1.8,1.8-2.3c-1.4-2.5-6.5-1.7-8.9-1.8
			c-3.1-0.2-4.4,0.5-6.2,3c-1,1.4-0.3,1.9,0.7,0.5c1.3-1.7,4.7-0.9,6.5-0.8s5.1-0.4,6,1.4l1.8-2.3c-6.3-1.5-12.7-1.7-18.2,2.3
			C69.7,112.8,68.3,115.3,69.5,114.5L69.5,114.5z"/>
	</g>
	<g>
		<path class="st19" d="M132.1,120.8c-0.8-2.6-2.1-6.1-4.5-7.6c-1.3-0.9-2.6-0.7-4.2-0.7c-2.8,0-5.6,0.1-8.4,0.2
			c-0.8,0,0.8,2.4,1.6,2.4c2.4,0.1,5.8-0.2,8.1,0.4c1,0.3,0.9,0.5,1.6,0.9c0.9,0.3,1.7,0.6,2.5,1l-0.2-1.7c-1.1-0.7-2.2-1.4-3.2-2.2
			l0.9,2.1l2.2,0.9c1.5,1.4,1.3-0.4,0.4-1.3c-1.1-1.1-2.6-1.8-4.2-2c-0.9-0.1,0.7,2,0.9,2.1c1.2,0.9,2.5,1.8,3.8,2.6
			c1.3,0.8,0.2-1.4-0.2-1.7c-4-3.5-9.2-3.1-14.2-3.4l1.6,2.4l7.2-0.1c2,0,3.5-0.4,5,1.6c0.6,1,1,2.1,1.2,3.2
			C130.3,120.5,132.5,122.3,132.1,120.8L132.1,120.8z"/>
	</g>
</g>
<path class="st18" d="M112.6,124.1c0.5,0.5,3.4-0.1,3.4-0.1v-1.7l-0.8-0.3C114.1,122.5,113.2,123.2,112.6,124.1z"/>
<path class="st20" d="M79,118.6c2.2,0.3,1.8-2.3,0-2.3S77.7,118.4,79,118.6z"/>
<path class="st20" d="M88.5,112.2c-0.4-1.2-1.2-2.2-2.2-2.9"/>
<path class="st20" d="M85.8,111c-0.9-0.7-1.7-1.5-2.4-2.3"/>
<path class="st20" d="M83.8,111.5c-1.4-0.2-2.6-0.8-3.7-1.7"/>
<path class="st20" d="M83.3,110.6c-0.7-0.5-1.4-1-2.1-1.6"/>
<path class="st20" d="M78.9,110.2c-0.9-0.1-1.7-0.6-2.1-1.4"/>
<path class="st20" d="M76.3,110.4h-1.8c-0.3,0-0.7-0.1-0.6-0.4"/>
<path class="st20" d="M74.5,111.7c-1.3,0-2.5,0.1-3.8,0.3"/>
<path class="st20" d="M71.4,113c-0.6,0.4-1.4,0.5-2,0.2"/>
<path class="st20" d="M74.6,111c-0.8-0.1-1.5-0.2-2.2-0.5"/>
<path class="st20" d="M114.7,113.8c0.5-0.8,1.8-0.7,2.6-0.3c0.8,0.5,1.7,0.9,2.7,1"/>
<path class="st20" d="M118.2,112.5c0.8,0.1,1.6,0.4,2.2,1s1.3,1.1,2.1,1.4"/>
<path class="st20" d="M122.4,113.2c1.6,0.1,2.2,2.3,3.7,2.6"/>
<path class="st20" d="M126.1,114.2c0.7,0.3,1.5,0.3,2.2,0"/>
<path class="st20" d="M127.1,115.3c1,0,2.1,0.1,3.1,0.5"/>
<path class="st20" d="M127.8,115.9c1.4,0.1,2.7,1,3.3,2.3"/>
<path class="st20" d="M130,118.2c0.8,0.7,1.3,1.6,1.4,2.6"/>
<path class="st6" d="M119.6,119.6c2.8,0.6,5.3,2.2,7.1,4.4c0,0-5.5,2.6-10.7,0l-0.8-2C115.1,122,118,119.3,119.6,119.6z"/>
<path class="st17" d="M121.4,125.1c3-0.3,3.3-2.3,2.2-3.9c-1.2-0.9-2.6-1.4-4.1-1.7c-0.6,0-1.2,0.1-1.7,0.4
	c-1.7,1.6-0.8,4.7,2.2,5.1C120.5,125.1,121,125.1,121.4,125.1z"/>
<path class="st20" d="M120,122.4c2.2,0.3,1.8-2.3,0-2.3S118.7,122.2,120,122.4z"/>
<path class="st16" d="M70.1,126.8c0,0-8.3,1-8,10.8C62.2,137.6,61,126.8,70.1,126.8z"/>
<path class="st16" d="M68.7,121.7c0,0-6,1.6-9.3-0.1C59.4,121.6,62.8,124.3,68.7,121.7z"/>
<path class="st16" d="M68.1,140.5c-4.4,4.8-6,11.5-4.1,17.7l3.2,10.8C67.3,169.1,56.1,147.4,68.1,140.5z"/>
<path class="st16" d="M120.9,147.3c1.2,4.2,4.9,2.9,4.9,5.6s-2,7.4-2,7.4s4.6-7,2.8-9.8C124.6,149.6,122.7,148.5,120.9,147.3z"/>
<path class="st16" d="M128,126.2c0,0,5.3,0.9,5.8,4.4C133.8,130.6,134.2,126.7,128,126.2z"/>
<path class="st16" d="M128,126.2c2,2,3.5,4.5,4.4,7.2C131.9,130.5,130.4,128,128,126.2z"/>
<path class="st16" d="M119.9,161.9c0,0-2,19.4-6.5,23.7l-4.5,4.3c0,0-0.2,0.9,0.1,0.9c2.4-2,4.6-4.1,6.7-6.4
	c1.1-1.4,6.6-21.1,6.1-22.2S119.9,161.9,119.9,161.9z"/>
<path class="st16" d="M95.9,120.5c0,0,6.9-0.3,7.8,0.6C101.3,119.8,98.5,119.6,95.9,120.5z"/>
<path class="st16" d="M99.5,119.1c-1.3,0.1-2.5,0-3.8-0.2C94.6,118.5,98.2,118.5,99.5,119.1z"/>
<path class="st16" d="M93,114.4c0,0,4.9-10.2,4.9-15.3c0,0-4.4,14-5.8,14.4C92.5,114.3,93,114.4,93,114.4z"/>
<path class="st16" d="M103.1,99.3c0,0-1.9,15.9-0.8,16.1S103.1,99.3,103.1,99.3z"/>
<path class="st16" d="M111,106.2c0,0,15-1.2,20.8,3.4C131.8,109.6,126.3,103.2,111,106.2z"/>
<path class="st16" d="M68.9,103.4c0,0,14.5-3.7,21-0.1C89.9,103.3,83.4,97.9,68.9,103.4z"/>
<path class="st16" d="M69.2,97.3c0,0,14.5-3.7,21-0.1C90.2,97.2,83.7,91.8,69.2,97.3z"/>
<path class="st16" d="M111.9,98.9c0,0,14.9-1.2,20.7,3.3C132.7,102.3,127.2,95.9,111.9,98.9z"/>
<path class="st21" d="M100.8,149.5c0,0,4.9-3.6,6.2-2.6c0,0-4.6-18.9,0.7-29c0,0-5.3,3.1-5.4,4.6S100.8,149.5,100.8,149.5z"/>
<path class="st21" d="M113.2,148.6c0,0,3.2-0.3,3.5-1.6c0,0,1.9,11.4,3.8,12.2c0,0-1.3,2.2-2.7,1.9
	C117.8,161,114.8,158.9,113.2,148.6z"/>
<path class="st6" d="M80.8,116.3c0,0,1.3,1.1,0.4,2.1C80.8,117.7,80.6,117,80.8,116.3z"/>
<path class="st6" d="M121.7,120.7c0,0,1.3,1.1,0.4,2.1C121.7,122.2,121.6,121.4,121.7,120.7z"/>
<path class="st22" d="M35.8,23c-1.5,1.2-6.1,5.3-6.9,14h-2.5c0.7-9.5,6.7-14.1,6.7-14.1h-9.2v-2.3h11.9C35.8,20.6,35.8,23,35.8,23z"
	/>
<path class="st22" d="M160.5,246.8c1.5-1.2,6.1-5.3,6.9-14h2.6c-0.7,9.5-6.7,14.1-6.7,14.1h9.2v2.3h-11.9v-2.4H160.5z"/>
<path class="st22" d="M36.1,52.7l-6.8-10.9c-0.2-0.4-0.7-0.5-1.1-0.2c-0.1,0.1-0.2,0.1-0.2,0.2l-6.8,10.9c-0.2,0.3-0.2,0.6,0,0.8
	L28,64.4c0.2,0.4,0.7,0.5,1.1,0.2c0.1-0.1,0.2-0.1,0.2-0.2l6.8-10.9C36.3,53.3,36.3,53,36.1,52.7z"/>
<path class="st22" d="M176,216.7l-6.8-10.9c-0.2-0.4-0.7-0.5-1.1-0.2c-0.1,0.1-0.2,0.1-0.2,0.2l-6.9,10.9c-0.2,0.3-0.2,0.6,0,0.8
	l6.8,10.9c0.2,0.4,0.7,0.5,1.1,0.2c0.1-0.1,0.2-0.1,0.2-0.2l6.9-10.9C176.2,217.3,176.2,216.9,176,216.7z"/>
</svg>
