<?xml version="1.0" encoding="utf-8"?>
<!-- Generator: Adobe Illustrator 20.0.0, SVG Export Plug-In . SVG Version: 6.00 Build 0)  -->
<svg version="1.1" id="Layer_1" xmlns="http://www.w3.org/2000/svg" xmlns:xlink="http://www.w3.org/1999/xlink" x="0px" y="0px"
	 viewBox="0 0 196 266.7" style="enable-background:new 0 0 196 266.7;" xml:space="preserve">
<style type="text/css">
	.st0{fill:#F8E4E3;}
	.st1{fill:#231F20;}
	.st2{fill:#010101;}
	.st3{fill:#985C42;}
	.st4{fill:#A57242;}
	.st5{fill:#C8A27D;}
	.st6{fill:#DCA66D;}
	.st7{fill:none;stroke:#E3B59D;stroke-width:0.5;stroke-linecap:round;stroke-miterlimit:10;}
	.st8{fill:#EEC5A6;}
	.st9{fill:#E1BB9F;}
	.st10{fill:#EAC6AA;}
	.st11{fill:#F6D5B7;}
	.st12{fill:#C09684;}
	.st13{fill:#B08774;}
	.st14{fill:#EBF4F0;}
	.st15{fill:#381C14;}
	.st16{fill:#FFFFFF;}
	.st17{fill:#6B3720;}
	.st18{fill:#E3B59D;}
	.st19{fill:#7E132B;}
	.st20{fill:#F8E8D7;}
	.st21{fill:#D3A58B;}
	.st22{fill:#E2C1A7;}
	.st23{fill:#EFCDB1;}
	.st24{opacity:0.15;}
	.st25{fill:#A26A48;}
</style>
<title>badbitchcards</title>
<path class="st0" d="M17.1,8.5h161.6c4.7,0,8.5,3.8,8.5,8.5v232.4c0,4.7-3.8,8.5-8.5,8.5H17.1c-4.7,0-8.5-3.8-8.5-8.5V17
	C8.6,12.3,12.4,8.5,17.1,8.5z"/>
<path class="st1" d="M33.2,22.2c-0.9-0.5-1.9-0.7-2.9-0.7c-3.4,0-5.6,2.5-5.8,5.9c1-1.4,2.6-2.2,4.3-2.1c2.9-0.2,5.4,2,5.6,4.8
	c0,0.2,0,0.5,0,0.7c0,3.5-2.9,5.6-6,5.6S22,34.2,22,28.8c0-6.1,3.6-9.5,8.4-9.5c1.2,0,2.5,0.3,3.5,0.9L33.2,22.2z M28.4,34.2
	c1.9,0,3.4-1.5,3.4-3.4s-1.5-3.4-3.4-3.4c-1.8-0.1-3.4,1.3-3.5,3.2c0,0.1,0,0.2,0,0.3c0,1.9,1.5,3.4,3.4,3.5
	C28.3,34.2,28.4,34.2,28.4,34.2L28.4,34.2z"/>
<path class="st2" d="M33.1,50.5h-0.2c0.9-2.7-0.5-5.6-3.2-6.6C27,43,24,44.4,23.1,47.1c-0.4,1.1-0.4,2.3,0,3.4h-0.2
	c-2.8,0-5.1,2.3-5.1,5.2c0,2.8,2.3,5.1,5.2,5.1c1.6,0,3.1-0.8,4.1-2C26.5,61,25.8,63.3,25,64h6.2c-0.8-0.7-1.6-3-2.1-5.2
	c1.7,2.3,5,2.7,7.2,1c2.3-1.7,2.7-5,1-7.2C36.2,51.3,34.7,50.5,33.1,50.5L33.1,50.5z M28.2,54L28.2,54z"/>
<path class="st1" d="M162.2,243.6c0.9,0.5,1.9,0.7,2.9,0.7c3.4,0,5.6-2.5,5.8-5.9c-1,1.4-2.6,2.2-4.3,2.1c-2.9,0.2-5.4-2-5.6-4.9
	c0-0.2,0-0.5,0-0.7c0-3.5,2.9-5.6,6-5.6s6.4,2.2,6.4,7.6c0,6.1-3.6,9.5-8.4,9.5c-1.2,0-2.5-0.3-3.5-0.9L162.2,243.6z M167,231.6
	c-1.9,0-3.4,1.6-3.3,3.5c0,1.9,1.6,3.4,3.5,3.3c1.9,0,3.4-1.6,3.3-3.4c0-1.9-1.5-3.4-3.4-3.5C167.1,231.6,167,231.6,167,231.6
	L167,231.6z"/>
<path class="st2" d="M162.4,215.2h0.2c-0.9,2.7,0.5,5.6,3.2,6.6c2.7,0.9,5.6-0.5,6.6-3.2c0.4-1.1,0.4-2.3,0-3.4h0.2
	c2.8,0,5.2-2.3,5.1-5.2c0-2.8-2.3-5.2-5.2-5.1c-1.6,0-3.1,0.8-4.1,2c0.6-2.2,1.3-4.5,2.1-5.2h-6.2c0.8,0.7,1.6,3,2.1,5.2
	c-1.7-2.3-5-2.7-7.2-1c-2.3,1.7-2.7,5-1,7.2C159.2,214.5,160.7,215.2,162.4,215.2L162.4,215.2z M167.2,211.8L167.2,211.8z"/>
<g>
	<g>
		<path class="st3" d="M45.3,71.3c0.6,4.3-0.4,9.5,4.6,11.2c4.4,1.5,10,0.2,14.4-0.8c7.1-1.6,14.4-5.5,21.5-1.9
			c5.2,2.7,8.7,8.1,8.8,14c0,0.1,0.3,0.1,0.2,0c0-9.3-8.5-16.6-17.6-15.5c-3,0.4-5.8,1.4-8.6,2.2c-3.5,1-7,1.8-10.7,2.2
			c-3.4,0.4-7.9,0.9-10.5-2c-2.2-2.5-1.4-6.3-1.9-9.4C45.5,71.2,45.3,71.2,45.3,71.3L45.3,71.3z"/>
	</g>
</g>
<g>
	<g>
		<path class="st3" d="M75.5,119.6c3.2,5.1-3.8,9.1-7.1,11.8c-3.3,2.7-6.5,5.6-9.1,9c-4.9,6.6-7.2,15.7-2.8,23.1c0,0.1,0.3,0,0.2,0
			c-5.3-8.8-1-19.3,5.4-26.1c3-3.2,6.5-5.9,10-8.6c2.7-2.2,5.8-5.5,3.5-9.1C75.7,119.5,75.5,119.5,75.5,119.6L75.5,119.6z"/>
	</g>
</g>
<g>
	<g>
		<path class="st3" d="M106.7,101.1c4.4-4.5,7.5-9,5.8-15.5c-1.8-6.7-5.3-12.9-9.4-18.4c-2.2-3-3.5-5.6-4.3-9.3
			c-0.4-2.1-1-4.6-2.2-6.5c-1.2-2-4.3-0.8-6.3-0.7c-0.1,0-0.2,0.1,0,0.1c1.4-0.1,3.2-0.6,4.6-0.4c1.6,0.2,2,2.3,2.5,3.6
			c0.9,2.4,1.1,5,2,7.5c1,2.6,2.7,4.8,4.4,7c3.4,4.7,6.1,9.8,7.9,15.3c1.1,3.4,1.7,6.8,0.2,10.1c-1.2,2.7-3.4,4.9-5.4,7
			C106.4,101.1,106.6,101.1,106.7,101.1L106.7,101.1z"/>
	</g>
</g>
<g>
	<g>
		<path class="st3" d="M135.1,122.9c12.2-1.2,9.2,22.5,21.2,19.4c3.4-0.9,7.3-5,6.7-8.8c-0.3-2-3-3.3-4.2-1.3c0,0.1,0.2,0.1,0.2,0
			c2.6-0.4,3.9,0.3,3.8,2c0,0.5-0.1,1-0.3,1.4c-0.2,0.9-0.6,1.8-1.2,2.6c-1.1,1.7-2.9,3.3-4.9,3.9c-6.1,1.9-8.8-5.1-10.6-9.4
			c-1.9-4.7-4.9-10.4-10.9-9.9C134.9,122.8,135,122.9,135.1,122.9L135.1,122.9z"/>
	</g>
</g>
<g>
	<g>
		<path class="st3" d="M157.8,87.4c0.4,2.3,0.7,4.9-0.4,7c-2.1,3.8-7,2.1-10,0.7c-0.1,0-0.3,0-0.2,0.1c2.5,1.1,5.7,2.5,8.4,1.2
			c3.4-1.6,3-6,2.5-9C158,87.3,157.8,87.3,157.8,87.4L157.8,87.4z"/>
	</g>
</g>
<g>
	<g>
		<path class="st3" d="M43,75.3c0.1,5.4,4.8,9.3,9.8,10.4c6.5,1.3,13.1-2,18.7-4.8c0.1-0.1-0.1-0.1-0.2-0.1
			c-5.6,2.8-12,6.1-18.4,4.8c-5-1-9.6-4.9-9.7-10.2C43.3,75.2,43,75.2,43,75.3L43,75.3z"/>
	</g>
</g>
<g>
	<g>
		<path class="st3" d="M69.4,138.4c-6.8,2.5-12.7,9.5-11.8,17.1c0.3,2.9,1.9,5.6,4.8,6.6c2.3,0.8,4.8,0.4,6.5-1.5
			c0.1-0.1-0.2-0.1-0.2-0.1c-2.8,3.2-7.8,1.8-9.8-1.6c-1.4-2.4-1.4-5.4-0.8-8C59.5,145.1,63.9,140.5,69.4,138.4
			C69.6,138.4,69.4,138.4,69.4,138.4L69.4,138.4z"/>
	</g>
</g>
<g>
	<g>
		<path class="st3" d="M138.2,154.4c0.9,3.8-0.4,7.7-3.3,10.2c-0.1,0.1,0.2,0.1,0.2,0.1c3-2.6,4.3-6.4,3.4-10.3
			C138.4,154.3,138.2,154.4,138.2,154.4L138.2,154.4z"/>
	</g>
</g>
<g>
	<path class="st4" d="M135.8,165c-0.3,1,2.3,0.2,2.7,0c1.3-0.7,2.1-2,2.6-3.4c0.4-1.1,0.8-2.5,2-3c0.5-0.2,1.1-0.2,1.7-0.4
		c0.4-0.1,0.8-0.2,1.3-0.4c1.2-0.4,2.4-0.8,3.6-1.4c1-0.5,2.1-0.8,2.9-1.6c1-1,2.2-2,2.9-3.4c0.5-1.1,0.6-2.1,0.9-3.3
		c0.1-0.6,0.1-1.1,0.5-1.7c0.3-0.6,0.8-1,1.2-1.5c0.4-0.6,0.7-1.1,1.3-1.5c0.5-0.5,0.9-1,1.4-1.5c0.9-0.9,1.4-2.2,1.6-3.4
		c0.3-1.2,0.6-2.3,0.9-3.5c0.3-1.3,0.7-2.8,1.3-3.9c0.2-0.4,0.4-0.7,0.6-1.1c0.1-0.3,0.1-0.7,0.2-0.9c0.2-0.5,0.7-1,1-1.4
		c0.8-1,1.2-2.5,1.3-3.8c0.1-1.6,0.4-3.2,0.2-4.8c-0.1-1.7-0.5-3.4-0.9-5.1c-0.4-1.6-0.9-3-1.3-4.6c-0.5-1.9-0.8-3.9-1.2-5.8
		c-0.3-1.5-0.4-3.1-0.4-4.6c0-2-0.4-4-1.1-5.9c-0.3-0.8-0.6-1.2-1.1-1.9c-0.4-0.7-0.5-1-1.3-1.5c-0.6-0.3-1.4-0.5-1.8-1
		c-0.5-0.5-0.5-1.2-0.6-1.9c-0.3-1.6-0.5-3.1-0.8-4.7c-0.2-0.8-0.5-1.5-1-2.2c-0.4-0.6-0.7-1.2-1-1.7c-0.1-0.2-0.3-0.3-0.5-0.5
		c-0.4-0.3-0.5-0.6-0.8-1c-0.3-0.5-0.8-0.9-1.1-1.5c-1-1.9-1.6-3.9-2.6-5.8c-0.3-0.5-0.5-1-0.8-1.5c-0.4-0.5-0.8-1-1.2-1.5
		c-0.5-0.8-0.7-1.6-1.3-2.4c-1-1.5-1.6-3.1-2.9-4.4c-1.4-1.3-2.6-2.7-4.2-3.7c-1.7-1.1-3.7-2-5.5-2.8c-1.7-0.8-3.5-1.1-5.3-1.5
		c-1.7-0.4-3.4-1-5.1-1.3c-1.8-0.3-3.6,0.2-5.4-0.2s-3.6-0.6-5.3-1.1c-1.5-0.4-3.2-0.2-4.7-0.2c-1,0-1.8-0.1-2.7-0.3
		c-0.7-0.2-1.3-0.1-2-0.2c-0.7-0.1-1.3-0.2-2-0.2c-0.9,0-1.8-0.1-2.7,0c-0.8,0.1-1.5,0.3-2.3,0.6c-0.6,0.2-1.2,0.3-1.9,0.5
		c-0.7,0.2-1.4,0.7-2.1,0.9c-0.8,0.3-1.7,0.4-2.5,0.7s-1.7,0.5-2.5,0.7c-1.2,0.3-2.1,0.8-3.2,1.3c-0.9,0.4-1.8,0.9-2.6,1.5
		c-0.8,0.5-1.9,1.5-3,1.4c-1.2-0.1-2.7-0.8-3.8-1.2c-0.7-0.2-1.4-0.2-2.1-0.4c-1-0.2-1.9-0.1-2.9-0.2c-1.2-0.2-2.2-0.2-3.5,0
		c-1,0.1-1.8,0.1-2.7,0.4c-0.9,0.3-1.9,0.3-2.8,0.7c-1.8,0.6-3.3,1.6-4.7,2.7C55,59,53.5,60.5,52,62.1c-0.6,0.6-1.1,1.3-1.4,2.1
		c-0.2,0.6-0.5,1.2-0.8,1.8c-0.6,1.2-1.5,2.1-2.2,3.3c-0.3,0.4-0.4,0.9-0.6,1.3c-0.2,0.7-0.7,1.3-0.9,2c-0.3,1-0.5,2-1,2.9
		c-0.7,1.3-1.8,2.2-2.7,3.4c-0.3,0.5-0.7,0.9-1,1.4c-0.3,0.4-0.8,0.7-1.1,1.2c-1,1.7-2.1,3.4-3,5.1c-0.5,0.9-0.6,1.9-0.8,3
		c-0.1,0.7-0.4,1.4-0.4,2.1c-0.1,1.1-0.2,2.2-0.5,3.3c-0.1,0.6-0.4,1.2-0.5,1.8c0,0.5,0,0.7-0.2,1.1c-0.6,1.1-1.2,2.1-1.7,3.2
		s-1.1,2.1-1.4,3.2c-0.4,1.1-0.7,2.3-1,3.5c-0.2,1.3-0.5,2.4-0.5,3.6c0,0.8-0.3,1.6-0.3,2.4c0,0.6,0.3,1.1,0.3,1.7
		c0,1,0.1,2.1,0,3.2c0,0.6-0.2,1.2-0.3,1.9c0,1.5,0,3,0,4.5c0,1.6,0.2,3.1,0.6,4.6c0.3,1.2,0.6,2.7,1,3.8c0.5,1.2,0.9,2.3,1.5,3.4
		c0.6,1.3,1.6,2.3,2.2,3.7c0.5,1,0.9,2,1.3,3c0.3,0.8,0.4,1.6,0.6,2.3c0.5,1.5,1.1,3,1.8,4.4c0.7,1.3,1.6,2.4,2.4,3.5
		c1,1.3,2.4,2.4,3.4,3.7c0.7,1.1,1.1,2.2,1.7,3.3c0.6,1.2,1.6,2.1,2.4,3.2c0.8,1.2,1.8,2.3,2.5,3.5c0.6,1,1.3,2,2.1,2.9
		s1.7,1.9,2.7,2.7c0.4,0.3,1,0.9,1.5,1c0.2,0,0.5,0,0.7,0c0.3,0,0.6,0.2,0.9,0.2c0.5,0.1,1.4,0.1,1.8,0c0.4-0.1,0.8-0.4,1.2-0.6
		c0.9-0.4,2-1,2.9-1.1c0,0,5.1-8.5,4.8-9.5"/>
</g>
<path class="st5" d="M54.6,95.4"/>
<path class="st6" d="M137.9,72.1c0,0,11.8,13.7-1.5,38C136.4,110.1,147.1,88.3,137.9,72.1z"/>
<g>
	<path class="st6" d="M37.8,128.8c11.5-2.3,20-11.7,26.9-21.2c3-3.4,5.7-6.6,9.1-5v-3.7c-6.9,0.2-6,8.8-26,23.1
		c-6.4,4.6-12.5,5.8-17.8,5.3c0.1,0.6,0.2,1.2,0.3,1.8C32.8,129.4,35.3,129.3,37.8,128.8z"/>
</g>
<g>
	<g>
		<path class="st6" d="M105.3,100.6c0,0.4,0,0.7,0,1C105.3,101.3,105.3,100.9,105.3,100.6z"/>
	</g>
	<g>
		<path class="st6" d="M105.5,96.9c0,0.5,0,1.1-0.1,1.7C105.4,98,105.4,97.5,105.5,96.9z"/>
	</g>
	<g>
		<path class="st6" d="M105.4,98.5c0,0.4,0,0.8-0.1,1.2C105.3,99.3,105.4,98.9,105.4,98.5z"/>
	</g>
	<g>
		<path class="st6" d="M105.5,96.8L105.5,96.8L105.5,96.8z"/>
	</g>
	<g>
		<path class="st6" d="M105.5,95.1c0,0.5,0,1-0.1,1.7C105.5,96.2,105.5,95.7,105.5,95.1z"/>
	</g>
	<g>
		<path class="st6" d="M105.6,93.8c0,0,0,0.5-0.1,1.2C105.6,94.6,105.6,94.2,105.6,93.8z"/>
	</g>
	<g>
		<path class="st6" d="M105.5,95C105.5,95,105.5,95.1,105.5,95C105.5,95.1,105.5,95,105.5,95z"/>
	</g>
	<g>
		<path class="st6" d="M105.3,99.7c0,0.3,0,0.6,0,0.8C105.3,100.3,105.3,100,105.3,99.7z"/>
	</g>
	<g>
		<path class="st6" d="M105.1,104.2C105.1,104.4,105.1,104.4,105.1,104.2L105.1,104.2z"/>
	</g>
	<g>
		<path class="st6" d="M105.3,101.6c0,0.1,0,0.2,0,0.3C105.2,101.8,105.2,101.7,105.3,101.6z"/>
	</g>
	<g>
		<path class="st6" d="M103.8,97.4l1.8-3.6c0.9-21.1-11.9-31.7-23.4-39.7l-0.1,0.1c-0.3,0.2-0.6,0.4-0.9,0.6
			C111.1,72.9,103.8,97.4,103.8,97.4z"/>
	</g>
	<g>
		<path class="st6" d="M105.2,103.6c0,0.3,0,0.5,0,0.6C105.1,104.1,105.1,103.9,105.2,103.6z"/>
	</g>
	<g>
		<path class="st6" d="M105.2,103.3c0,0.1,0,0.2,0,0.3C105.2,103.5,105.2,103.4,105.2,103.3z"/>
	</g>
	<g>
		<path class="st6" d="M105.2,101.9c0,0.5,0,0.9-0.1,1.3C105.2,102.8,105.2,102.4,105.2,101.9z"/>
	</g>
	<g>
		<path class="st6" d="M105.2,103.2L105.2,103.2C105.2,103.3,105.2,103.2,105.2,103.2z"/>
	</g>
</g>
<path class="st7" d="M94.1,177.7c0,0,3.4,0.7,3.9,4"/>
<path class="st8" d="M77.2,175.3c0,0,1.1,9.8,1.6,15.2s-2.7,17.7-2.7,17.7s7.1,33.6,31.4,33.6s33.3-33.2,33.3-33.2
	s-12.3-14.3-8.3-30.9"/>
<path class="st9" d="M132.4,177.6l-42.3-1.4c-7,0.4-11.9,0.7-11.9,0.7c0,0.1-0.3,0.6-0.7,1.3c0.4,3.3,0.9,8.7,1.2,12.2
	c0.2,2.4-0.3,6.1-0.9,9.6c0.7,0.5,1.5,1,2.5,1.4c0.6,0.2,5,3.4,7.7,6.7s8.7,8.6,8.7,8.6s16.9-1.5,19.2,0
	c1.7,1.1,10.6-14.3,16.9-22.7C131.6,189.7,131.1,183.1,132.4,177.6z"/>
<path class="st10" d="M105.6,93.8c33.6,3.4,31.2,15.1,31.4,19c0.3,4,0.2,17.1,1.3,20.2c1.1,3.1,2.4,10.6,1.1,16.4
	c-1.3,5.8-4.6,17.7-5.3,22.8s-6.3,14.6-11.3,18.1c-5.1,3.5-6.4,7.7-14.6,7.7s-12.2-2.7-13.5-4.2s-9.1,0.4-16.8-11.5
	c-13.1-25.2-10-29.9-9.7-43.6c3.1-7.5,3.7-13.7,4.2-15.9c0.4-2.2-2.5-10.1-0.6-21C73.3,93,105.6,93.8,105.6,93.8z"/>
<path class="st11" d="M98.7,139.7c0,0,0.9-0.8,0.8-1.2c-0.1-0.5,1.7,0.6,1.5,1.2S100.1,140,98.7,139.7z"/>
<g>
	<path class="st11" d="M86,139c1.6,1.7,4.1,2.4,6.4,2.4c2.3-0.1,4.6-0.9,6.8-1.8c-3.3,1.3-6.9,1.8-10.5,1.3"/>
</g>
<g>
	<path class="st11" d="M120.3,139.3c4,1.2,8.4,1,12.3-0.5"/>
</g>
<path class="st12" d="M93,134.3c-8.7,0.9-12.2,7.8-12.2,7.8s3.8-2.3,4.6-2.3s4-4.9,9.5-4.2c2,0.5,4.4,3.1,4.7,2.9
	C100,138,96.7,133.7,93,134.3z"/>
<path class="st13" d="M126.9,134.6c3.7,0.6,6.5,2.9,7.8,4.1c0.3,0.3,0.1,0.7-0.3,0.7c-0.8-0.1-1.8-0.1-2.2-0.2
	c-0.7-0.1-1.7-4.6-7.2-4c-2,0.6-6.3,3.6-6.6,3.4C117.9,138.2,123.2,134,126.9,134.6z"/>
<path class="st14" d="M99.5,138.4c0,0-3.5-3.7-6.8-3.2c-3.3,0.4-6.3,3.6-6.3,3.6s1.3,2.1,5,2.1s7.6-1.4,7.6-1.4l0.5-0.3
	C99.5,139.2,99.5,138.4,99.5,138.4z"/>
<path class="st15" d="M87,138.3c0,0,1.1,2.4,4.2,2.4s3.6-4.9,2.7-5.5C92.9,134.6,87.2,136.7,87,138.3z"/>
<circle class="st1" cx="91.1" cy="137.4" r="0.9"/>
<path class="st16" d="M90.5,139.2h1l-0.4,0.5C91.1,139.7,90.6,139.7,90.5,139.2z"/>
<path class="st16" d="M92,137.4l0.8-0.9c0,0-0.6-0.4-0.8-0.2c-0.2,0.1-0.5,0.3-0.3,0.5C91.8,136.8,92,137.4,92,137.4z"/>
<path class="st11" d="M117.6,139.3c-0.1-0.6,2.7-1.6,2.7-1.6l0.3,1.3C120.6,139.1,117.7,139.7,117.6,139.3z"/>
<path class="st14" d="M119.7,137.9c0.5,0.3,0.4,1.2,0.4,1.2s2.3,0.5,6,0.5c3.7,0,5.7-0.9,5.7-0.9s-1.1-2-3.1-3.1
	c-2.6-0.8-4.7-0.4-6.1,0.3"/>
<path class="st15" d="M122.5,136c0,0,1.4-0.8,3.7-0.8c2.4,0,2.8,1.5,2.8,2.5s-0.8,1.8-1.1,1.9c-0.4,0.1-4.2,0.2-4.7,0
	C122.7,139.5,122.2,136.9,122.5,136z"/>
<circle class="st1" cx="125.5" cy="137.2" r="0.9"/>
<path class="st16" d="M125.1,138.6h1.3l-0.5,0.7C125.9,139.3,125.1,139.3,125.1,138.6z"/>
<path class="st16" d="M126.3,136.6l0.6-0.5c0,0-0.5-0.2-0.6-0.1c-0.2,0.1-0.4,0.2-0.3,0.3C126.1,136.3,126.3,136.6,126.3,136.6z"/>
<path class="st17" d="M103.8,161.6c0,0,1.4-0.3,2.5,0c1.2,0.3,1.3,0.7,1.3,0.7"/>
<path class="st17" d="M119.1,161.4c0,0-0.5,0.1-1.3,0.8s-0.7,0.8-0.7,0.8"/>
<g>
	<g>
		<path class="st18" d="M109.1,162.4c0.5,0.1,1,0.3,1.3,0.6c0.7,0.6,0.4,1.4,1.2,1.8c1,0.5,2.2,0.4,3.1-0.2c0.2-0.1-0.3-0.2-0.4-0.1
			c-0.9,0.6-2.2,0.6-2.7-0.4c-0.2-0.4-0.3-0.8-0.7-1.1c-0.4-0.4-1-0.6-1.6-0.7C109,162.1,108.8,162.3,109.1,162.4L109.1,162.4z"/>
	</g>
</g>
<g>
	<g>
		<path class="st18" d="M119.4,156.4c0.2,1.2,0.6,2.8,0,4c-0.1,0.2,0.4,0.2,0.5,0.1c0.6-1.2,0.3-2.8,0-4
			C119.8,156.2,119.3,156.2,119.4,156.4L119.4,156.4z"/>
	</g>
</g>
<path class="st19" d="M94.1,174.4c2.7,0,13.6-1.9,14.6-1.6c0.9,0.3,2.7,1.4,3.2,1.3s1.8-1.5,2.7-1.6s8.5-0.4,8.5-0.4
	s0.1,0.4-0.2,0.7c-0.3,0.3-0.7,0.3-0.7,0.7s-1.5,6.8-8.9,6.8S95.9,175.4,94.1,174.4"/>
<path class="st20" d="M120,174c-6.7,3.3-18.8,1-18.8,1s4.2-0.4,5.1-0.2s5.2,1.3,8.8,0C118.7,173.6,120,174,120,174z"/>
<g>
	<path class="st21" d="M100.5,132.8c-0.1-0.4-0.5-1-0.9-1.3"/>
</g>
<g>
	<path class="st21" d="M98.8,132.4L98.8,132.4c-0.1-0.3-0.4-0.6-0.7-0.7c-0.4-0.3-0.7-0.6-1.2-0.9"/>
</g>
<g>
	<path class="st21" d="M96.4,131.8c-0.2-0.2-0.4-0.4-0.6-0.6c-0.5-0.5-1-0.9-1.7-1.2"/>
</g>
<g>
	<path class="st21" d="M93.5,131.4c-0.3,0-0.4-0.2-0.6-0.3c-0.5-0.5-1.1-0.8-1.8-1.1"/>
</g>
<g>
	<path class="st21" d="M90.7,131.8c-0.1-0.1-0.3-0.3-0.4-0.4c-0.3-0.2-0.6-0.2-1-0.3"/>
</g>
<g>
	<path class="st21" d="M87.3,131.9c-0.2-0.3-0.8,0-1.1,0.1"/>
</g>
<g>
	<path class="st21" d="M83.2,133.8"/>
</g>
<g>
	<path class="st21" d="M81.5,135.6c-0.4-0.1-1.1,0.5-1.4,0.6"/>
</g>
<g>
	<path class="st21" d="M84.7,132.9c-0.1,0-0.3,0-0.4,0.1"/>
</g>
<g>
	<path class="st21" d="M120.4,132.5c0.9,0.2,1.6,0.5,2.6,0.2"/>
</g>
<g>
	<path class="st21" d="M123.7,131.7c0.5,0,1,0.1,1.5-0.1"/>
</g>
<g>
	<path class="st21" d="M125.3,132.4c0.4,0,0.9,0,1.3,0"/>
</g>
<g>
	<path class="st21" d="M127.2,131.3c0-0.2,0.5-0.1,0.6-0.1c0.5,0,0.9-0.1,1.3-0.2"/>
</g>
<g>
	<path class="st21" d="M128.8,132c0.5,0,1,0,1.5-0.2"/>
</g>
<g>
	<path class="st21" d="M131.1,130.9c0.6,0,1.2-0.1,1.8-0.1"/>
</g>
<g>
	<path class="st21" d="M132.4,131.6c0.2,0,0.3-0.1,0.5-0.1s0.4,0,0.6-0.1"/>
</g>
<g>
	<path class="st21" d="M135.1,131c0.4,0,0.7,0,1.1,0.3"/>
</g>
<g>
	<path class="st21" d="M137,131.7c0.4,0.1,0.7,0.9,0.9,1.2"/>
</g>
<g>
	<path class="st21" d="M119.1,133.4c0.1,0,0.2,0,0.3,0"/>
</g>
<g>
	<path class="st21" d="M101.9,133c0-0.4-0.2-0.6-0.3-0.9"/>
</g>
<g>
	<g>
		<path class="st22" d="M93.6,175.7c-4-4.7,3.4-10.7,6.2-13.8c-1.2-0.3-2.3-0.7-3.5-1c-0.7,0.8-1.5,1.7-2.2,2.5
			c-1.2,1.4,2.6,2,3.5,1c0.7-0.8,1.5-1.7,2.2-2.5c1.2-1.4-2.6-1.9-3.5-1c-3.6,3.9-11.1,10.1-6.2,15.8
			C91,177.7,94.8,177.2,93.6,175.7L93.6,175.7z"/>
	</g>
</g>
<g>
	<g>
		<path class="st22" d="M104.3,161.3c-0.7-1.9-0.5-4,0.4-5.8c0.7-1.3-3.2-1.7-3.9-0.5c-1.2,2.2-1.3,4.5-0.4,6.8
			C100.9,163,104.8,162.7,104.3,161.3L104.3,161.3z"/>
	</g>
</g>
<g>
	<path class="st13" d="M94.9,131.9c-0.2,0-0.3-0.3-0.4-0.4c-0.2-0.3-0.5-0.5-0.8-0.7c-0.2-0.2-0.4-0.4-0.6-0.4
		c-0.2-0.1-0.3-0.1-0.5-0.3"/>
</g>
<g>
	<path class="st13" d="M97,131.7c0-0.1-0.1-0.1-0.1-0.2c-0.2-0.2-0.3-0.4-0.5-0.5c-0.2-0.2-0.4-0.3-0.7-0.5
		c-0.1-0.1-0.4-0.3-0.5-0.3"/>
</g>
<g>
	<path class="st13" d="M91.7,131.6c-0.1-0.1-0.3-0.2-0.4-0.3c-0.2-0.1-0.4-0.3-0.7-0.4c-0.3-0.2-0.7-0.3-1-0.5"/>
</g>
<g>
	<path class="st13" d="M89.3,131.9c-0.2,0-0.2,0-0.4-0.1c-0.2-0.2-0.5-0.3-0.7-0.4c-0.2-0.1-0.5-0.2-0.7-0.3s-0.4,0-0.6-0.1"/>
</g>
<g>
	<path class="st13" d="M86.5,132.5c-0.2,0-0.3,0-0.5-0.1s-0.4-0.2-0.7-0.2c-0.3,0-0.5,0-0.8-0.1c-0.1,0-0.3-0.1-0.4-0.1
		s-0.2,0.1-0.4,0.1"/>
</g>
<g>
	<path class="st13" d="M84.6,133.7c-0.2,0-0.4,0-0.5-0.1c-0.4-0.1-0.9-0.2-1.3-0.2s-0.7,0.1-1.1,0.1c-0.1,0-0.2,0-0.4,0
		c-0.1,0-0.2,0.1-0.4,0.1"/>
</g>
<g>
	<path class="st13" d="M82.6,134.4c-0.1,0-0.2,0.1-0.3,0.1c-0.3,0-0.6,0.1-0.8,0.1c-0.3,0.1-0.5,0.1-0.8,0.3
		c-0.2,0.1-0.5,0.1-0.7,0.3"/>
</g>
<g>
	<path class="st13" d="M99,131.8c-0.1-0.1-0.2-0.3-0.3-0.4c-0.2-0.3-0.4-0.6-0.7-0.9"/>
</g>
<g>
	<path class="st13" d="M100.9,132.6c0-0.1-0.1-0.3-0.2-0.4c-0.1-0.2-0.2-0.4-0.3-0.6"/>
</g>
<g>
	<path class="st13" d="M121.4,131.8c0.2,0,0.3,0,0.5,0.1s0.5,0.1,0.7,0.1s0.4-0.1,0.6-0.1c0.1,0,0.3,0,0.4,0"/>
</g>
<g>
	<path class="st13" d="M124.5,132.1c0.1,0,0.2-0.1,0.4-0.1c0.2-0.1,0.4-0.1,0.6-0.2c0.3-0.1,0.6-0.4,0.9-0.4"/>
</g>
<g>
	<path class="st13" d="M127.4,131.7L127.4,131.7c0.6,0.2,1.3-0.1,1.7-0.5"/>
</g>
<g>
	<path class="st13" d="M129.9,131.4c0.2,0,0.3,0,0.4,0c0.2-0.1,0.4-0.2,0.7-0.3c0.2-0.1,0.3-0.2,0.5-0.3c0.1-0.1,0.3-0.2,0.4-0.3"/>
</g>
<g>
	<path class="st13" d="M131.9,131.4c0.3,0,0.4-0.2,0.6-0.4c0.2-0.1,0.5-0.3,0.7-0.4c0.5-0.2,0.9-0.1,1.4-0.1"/>
</g>
<g>
	<path class="st13" d="M134.2,131c0.3,0,0.6,0,0.9,0.1c0.1,0,0.3,0.1,0.5,0.1c0.1,0,0.1,0.1,0.2,0.1c0.1,0.1,0.2,0.1,0.3,0.1"/>
</g>
<g>
	<path class="st13" d="M136,131.9c0.5,0,0.8,0.2,1.2,0.5"/>
</g>
<g>
	<path class="st13" d="M120.6,132.6c0.3,0.2,0.7,0.4,1,0.5c0.2,0,0.3,0,0.5,0s0.4,0.1,0.5-0.1"/>
</g>
<g>
	<path class="st13" d="M125,132.5c0.4,0,0.7,0,1-0.1c0.2,0,0.3-0.1,0.5-0.2c0.1-0.1,0.2-0.1,0.3-0.1"/>
</g>
<path class="st23" d="M92.3,95c0,0-3.7,28.8-20.1,28.8c0,0-2.4-23.4,0-24.4S82.4,93.8,92.3,95z"/>
<g class="st24">
	<g>
		<path class="st25" d="M138.3,131c-1.5-1.9-4.8-1.5-6.9-1.3c-2.8,0.3-5.7,1.6-8.5,1.3c-1.1-0.1-3.1,3.6-2.4,3.6
			c4.1,0.3,11.9-4,15.1-0.1C135.9,135,139,131.8,138.3,131L138.3,131z"/>
	</g>
</g>
<g class="st24">
	<g>
		<path class="st25" d="M81.6,135.9c1.8-2.5,6.5-2.3,9.2-2.6c3.3-0.4,6.5-0.5,9.6,0.8c0.9,0.4,3-3.4,2.8-3.5c-4.8-2-10-0.9-15-0.1
			c-3.9,0.6-5.8,2.9-8.1,6C78.4,138.9,80.7,137.2,81.6,135.9L81.6,135.9z"/>
	</g>
</g>
<g>
	<g>
		<path class="st18" d="M101.4,155c-1.2,1.9-1.9,5.5,0.3,6.9c0.1,0.1,0.6,0,0.4-0.1c-2.1-1.4-1.4-4.9-0.2-6.7
			C102,154.9,101.5,154.8,101.4,155L101.4,155z"/>
	</g>
</g>
<g>
	<g>
		<path class="st18" d="M92.9,176.1c-0.4-1.1-0.8-2.3-0.9-3.4c-0.2-1.8,0.6-2.8,1.7-4.1c2-2.3,4.3-4.4,5.8-7.1
			c0.1-0.2-0.4-0.2-0.5-0.1c-1.7,3.1-4.6,5.4-6.7,8.3c-1.5,2-0.7,4.4,0.2,6.5C92.4,176.3,92.9,176.3,92.9,176.1L92.9,176.1z"/>
	</g>
</g>
</svg>
