<?xml version="1.0" encoding="utf-8"?>
<!-- Generator: Adobe Illustrator 20.0.0, SVG Export Plug-In . SVG Version: 6.00 Build 0)  -->
<svg version="1.1" id="Layer_1" xmlns="http://www.w3.org/2000/svg" xmlns:xlink="http://www.w3.org/1999/xlink" x="0px" y="0px"
	 viewBox="0 0 196 266.7" style="enable-background:new 0 0 196 266.7;" xml:space="preserve">
<style type="text/css">
	.st0{fill:#F8E4E3;}
	.st1{fill:#BE1E2D;}
	.st2{fill:#1D1611;}
	.st3{fill:#DACCBF;}
	.st4{fill:#D39272;}
	.st5{fill:#C68B6F;}
	.st6{fill:#DA9F7C;}
	.st7{fill:#EBF4F0;}
	.st8{fill:#561F00;}
	.st9{fill:#6B3720;}
	.st10{fill:#CC896E;}
	.st11{fill:none;stroke:#D28867;stroke-miterlimit:10;}
	.st12{fill:#B9866C;}
	.st13{fill:#231F20;}
	.st14{fill:#D29876;}
	.st15{fill:#D8CAC6;}
	.st16{fill:#3F3C3C;}
	.st17{fill:#545456;}
	.st18{fill:#C13122;}
	.st19{fill:#F5E0CD;}
</style>
<title>badbitchcards</title>
<path class="st0" d="M17.1,8.5h161.6c4.7,0,8.5,3.8,8.5,8.5v232.4c0,4.7-3.8,8.5-8.5,8.5H17.1c-4.7,0-8.5-3.8-8.5-8.5V17
	C8.6,12.3,12.4,8.5,17.1,8.5z"/>
<path class="st1" d="M20.2,29.5l2.5-0.5v1.7c0,2.4,1.3,3.4,3.1,3.4s2.9-1.2,2.9-3.2V18.1h2.5v12.5c0,3.1-2,5.7-5.4,5.7
	c-3.5,0-5.6-2.3-5.6-5.7V29.5z"/>
<path class="st1" d="M21.7,42.9c2.6,0,3.9,1.2,5.1,3.6c1.3-2.4,2.6-3.6,5.1-3.6c2.8-0.1,5.1,2.1,5.2,4.8c0,0,0,0,0,0.1
	c0,4.9-5.2,9.8-10.3,14.7c-5.2-4.9-10.3-9.8-10.3-14.7C16.6,45,18.9,42.8,21.7,42.9C21.7,42.9,21.7,42.9,21.7,42.9z"/>
<path class="st1" d="M173.6,224.9c-2.6,0-3.9-1.2-5.1-3.6c-1.3,2.4-2.6,3.6-5.1,3.6c-2.8,0.1-5.1-2.1-5.2-4.8c0,0,0,0,0-0.1
	c0-4.9,5.1-9.8,10.3-14.7c5.2,4.9,10.3,9.8,10.3,14.7C178.7,222.8,176.4,225,173.6,224.9C173.6,224.9,173.6,224.9,173.6,224.9z"/>
<path class="st1" d="M175.1,237.1l-2.5,0.6V236c0-2.4-1.3-3.4-3.1-3.4s-2.9,1.2-2.9,3.2v12.7h-2.5V236c0-3.1,2-5.7,5.4-5.7
	c3.5,0,5.6,2.3,5.6,5.7V237.1z"/>
<path class="st2" d="M57.5,128.6c-2.8-6.6-4.8-10.5-10.3-7c-2.4-15.2-6-36.2,0-42.6c6-6.4,10-9.3,5.6-9.2C42,73,69.4,39.6,96.5,40
	c0,0,8.8-2,12.5,0c3.8,2,2.2,0.8,2.2,0.8s8.2-7.9,16.4,4c0,0,11.9,1.2,15.1,14.7c0,0,19.5,0.4,13.2,17.1c0,0,4.4,7.7,4.8,13.9
	c0.6,9.2,1.2,18.7,0,23.7c-2.8,12-10.5,15.4-10.5,15.4l-7.5,0l-80.4,3.8L57.5,128.6"/>
<path class="st2" d="M107,53.9c-0.9,1.6-7.6,7.1-3.6,16"/>
<path class="st2" d="M120.5,58.2c0,0-7.1,3.3-5.1,11.5"/>
<g>
	<g>
		<path class="st3" d="M123.1,52.8c1.3,1.1,2.6,0.4,3.4-1c1.5-2.5,1.4-5.5,0.1-8c0-0.1-0.3,0-0.2,0c0.7,1.4,1.1,2.9,1,4.4
			c0,0.8-0.2,1.5-0.5,2.2c-0.4,1.1-1.7,3.8-3.6,2.3C123.3,52.7,123,52.8,123.1,52.8L123.1,52.8z"/>
	</g>
</g>
<g>
	<g>
		<path class="st3" d="M144.5,65.8c4.1-1.1,6.2,2.6,5.9,6c-0.2,2.3-1.2,4.4-1.6,6.7c-0.3,2,0.2,4.5,2.6,4.1c0.2,0,0.1-0.1-0.1-0.1
			c-0.7-0.4-1.5-0.8-2.2-1.1c-0.1-0.5-0.2-0.9-0.3-1.4c0-0.6,0.1-1.3,0.3-1.9c0.3-1.3,0.7-2.5,1-3.8c0.5-1.8,0.7-3.7,0.1-5.5
			c-0.9-2.6-3.4-3.7-5.9-3C144.2,65.7,144.4,65.8,144.5,65.8L144.5,65.8z"/>
	</g>
</g>
<g>
	<g>
		<path class="st3" d="M52,69c0-0.4,0-1.2,0.3-1.5c1.1-0.1,2.2-0.3,3.3-0.4c0.2,0.2,0.4,0.5,0.6,0.7c0.5,0.7,0.9,1.4,1.2,2.2
			c0.7,1.8,0.8,3.6,0.5,5.4c0,0.1,0.2,0.1,0.2,0c0.4-2.8-0.1-6.9-2.7-8.7c-2-1.4-3.5,0.2-3.7,2.3C51.7,69.1,52,69.1,52,69L52,69z"/>
	</g>
</g>
<g>
	<g>
		<path class="st3" d="M114.7,48.5c0.8-2.5-0.3-5-2.4-6.5c-2.1-1.4-10.6-2.3-7.7-5.9c0.1-0.1-0.2-0.1-0.2,0c-1.3,1.7,0.1,3.4,1.8,4
			c2.1,0.8,4.3,0.7,6.3,2.2c1.9,1.5,2.8,3.8,2.1,6.2C114.4,48.6,114.6,48.6,114.7,48.5L114.7,48.5z"/>
	</g>
</g>
<g>
	<g>
		<path class="st3" d="M86.6,70.1c-4.2-3.1-7.6-7.4-9.3-12.4c-0.5-1.5-1-3.1-1-4.7c0-0.9,0.2-1.8,0.6-2.6c0.3-0.3,0.5-0.7,0.8-1
			c1.5-0.1,2.9-0.2,4.4-0.2c4.1,1.5,4.5,9.7-1.2,8.8c-0.1,0-0.2,0.1-0.1,0.1c2.9,0.4,5.2-2.2,4.6-5.1c-0.6-2.6-4-5.5-6.8-4.4
			c-4,1.6-2.5,7-1.4,9.9c1.8,4.7,5,8.7,9.1,11.7C86.5,70.2,86.7,70.2,86.6,70.1L86.6,70.1z"/>
	</g>
</g>
<g>
	<g>
		<path class="st3" d="M127,74.3c6-0.5,6.9,7.2,11.9,8.9c2.1,0.7,5,0.2,5.5-2.3c0.5-2.4-1.7-4.3-4-3.7c-3,0.7-3,4.4-0.6,5.9
			c0.1,0,0.3,0,0.2-0.1c-1.1-0.7-2.4-3-1.3-4.3c1.7-0.1,3.4-0.2,5.1-0.2c0.2,0.4,0.4,0.7,0.4,1.2c0.2,0.9,0.1,1.6-0.4,2.3
			c-0.7,1-3.7,1.4-4.9,1c-0.8-0.3-1.4-0.8-2-1.3c-1.1-0.9-1.9-2.1-2.7-3.2c-1.8-2.3-3.9-4.5-7.1-4.2C126.8,74.2,126.9,74.3,127,74.3
			L127,74.3z"/>
	</g>
</g>
<g>
	<g>
		<path class="st3" d="M58.9,96.4c2.5-2.5-0.5-5.2-3-5.9c-2.8-0.7-6.3-0.6-8.3,1.7c-1.6,1.9-1.9,5.4,0.7,6.5
			c1.8,0.8,4.1,0.1,4.7-1.8c0-0.1-0.1-0.1-0.2-0.1c-0.8,0.1-1.1,0.5-1,1.3c0,0.1,0.3,0.1,0.2,0c0.7-1,0.7-1,0,0
			c-0.6,0.3-1.1,0.5-1.7,0.8c-2,0.3-3.4-1-3.7-2.7c-0.3-1.6,0.4-3.2,1.6-4.3c2-1.9,5.4-1.9,7.9-1.1c2.3,0.7,4.9,3.3,2.6,5.6
			C58.6,96.4,58.8,96.4,58.9,96.4L58.9,96.4z"/>
	</g>
</g>
<path class="st4" d="M69.4,168.5c0,0,1.2,11.4,1.8,17.7c0.6,6.3-3.1,20.6-3.1,20.6s8.3,39.1,36.6,39.1s38.8-38.7,38.8-38.7
	s-14.3-14.9-9.7-34.3"/>
<path class="st5" d="M70.5,170.4c-0.3,0.8,2.2,28,2.5,28.6c0.3,0.6,5.8,3.9,9,7.8c3.2,3.9,10.1,10.1,10.1,10.1s19.7-1.7,22.4,0
	c2.6,1.7,12.6-26.7,17.6-28.1c0,0,1-10.9,1-14.8C133.2,170.1,70.5,170.4,70.5,170.4z"/>
<path class="st2" d="M97.8,194.1c17.6,0.5,34.4-15.4,34.4-15.4l2-11.6l-65.6,5.5C68.7,172.5,74,193.4,97.8,194.1z"/>
<path class="st6" d="M97.5,69.7c32.9,0,39.8,14.4,42.3,41.8c0,7.7,2.5,10.7,2.7,13.2s-1.5,10-1,12.9c0.5,3,0.7,16.7-1.2,22.4
	c-2,5.7-7.2,20.7-24.9,26.1s-23.4,3.2-29.4,0s-11.7-7.7-20.2-16.6c-6-14.3-3.2-28.3-3.7-36.2c-0.5-8,1.7-25.4,2-33.4
	C64.4,92.1,68.9,71.2,97.5,69.7z"/>
<path class="st4" d="M116.4,114.2c7.3-2.2,11.4,3,14.7,5.7c-2.5,0.1-1.2-0.1-2.5,0.1c-1.3,0.2-16.7,0-16.7,0
	C109.7,119.6,113.1,115.2,116.4,114.2z"/>
<path class="st4" d="M70.4,121.3h-1.7c0,0,2.2-6.6,7.6-7.7c5.4-1,10.1,3.8,10.1,3.8s0.5,0.7-1.2,1.9L70.4,121.3z"/>
<path class="st7" d="M70.4,121.3c4.7-3.6,7.3-7.3,14.8-1.9C82.7,122.2,75.2,121.7,70.4,121.3z"/>
<path class="st7" d="M111.9,119.9c3.8-4.3,8.5-7.3,16.7,0c-11.5,1.7-13.8,0-15.2,0C113.4,119.9,112.5,119.6,111.9,119.9z"/>
<path class="st8" d="M75.7,117.4c0,0-0.6,3.4,0.7,4.2c2.5,0,5.3-0.4,5.3-0.4s1.2-2.1,0.2-3.7C79.2,115.5,75.7,117.4,75.7,117.4z"/>
<path class="st7" d="M78.7,118.1c1.2-0.2,0.4-0.7-0.1-0.7S77.8,118.1,78.7,118.1z"/>
<circle class="st2" cx="78.7" cy="119.3" r="1.2"/>
<path class="st8" d="M117.8,120.6c0,0-1.9-2.5-0.5-4.7c3.9-1.4,7,0.9,7,0.9s-0.3,3.8-1.3,3.8C121.9,120.6,117.8,120.6,117.8,120.6z"
	/>
<circle class="st2" cx="120.5" cy="118" r="1.2"/>
<path class="st9" d="M98.4,141.5c-3.5-2.3-3.9-4.2-9.1-3.5"/>
<path class="st9" d="M103.4,140c1.1-2.8,1.2-3,3.2-3c2,0,2.8,0,2.8,0s0.5,0.2,0,1.5"/>
<path class="st10" d="M105,126.2c1.5,2.7,1.3,4.8,2.1,4.9c0.8,0.1,2.1-0.8,2-1.4C108.9,129,105,126.2,105,126.2z"/>
<path class="st11" d="M118.3,138.5c0,0,9.5,9.1,10.3,10.4c0.8,1.3-0.1,2.3,0,3"/>
<g>
	<g>
		<path class="st12" d="M65,112.8c0.5-3.3,1.2-6.9,3.9-8.9c2.2-1.6,5.2-1.6,7.9-1.5c3.5,0.1,7.3,0.3,10.2,2.3
			c-0.9,0.2-1.8,0.1-2.7,0c-5.1-0.6-10.3-0.6-15.4,0"/>
		<g>
			<path class="st12" d="M66,111.9c0.5-3.1,0.8-6.4,4.6-7.9c1.4-0.6,3.3-0.4,4.8-0.4c3.8,0.1,7.5,0.3,10.8,2.3
				c0.6-0.8,1.2-1.6,1.7-2.4c-2.9,0.2-5.8-0.4-8.7-0.5c-3.2-0.1-6.3,0.1-9.4,0.5c-0.8,0.1-1.9,2.4-1.6,2.4c3.1-0.4,6.3-0.6,9.4-0.5
				c2.9,0.1,5.8,0.7,8.7,0.5c0.4,0,2.2-2.1,1.7-2.4c-4.6-2.8-13.7-4-18.4-0.8c-3.6,2.5-4.8,6.8-5.5,10.9
				C64,114.4,65.9,112.6,66,111.9L66,111.9z"/>
		</g>
	</g>
	<g>
		<path class="st12" d="M114.8,104.7c1.9-0.5,3.7-1,5.6-1.5c1.2-0.3,2.3-0.6,3.5-0.8c4.7-0.5,9.5,2.5,11.2,6.9c-1.4-1-2-2.8-3.2-4
			c-2-2.1-5.4-2.1-8.2-1.5c-2.9,0.6-5.8,1.5-8.6,0.7c1.8-1.6,4.5-2.2,6.9-1.6"/>
		<g>
			<path class="st12" d="M115.8,105.8c3.7-1,7.8-2.8,11.7-2.2c1.1,0.2,2.4,0.6,3.4,1.2c0.5,0.3,3.9,4,2.4,1.6
				c-0.4-0.7-1-1.3-1.5-1.8c-4.9-4.9-11.8-0.3-17.6-1.3c0.6,0.8,1.2,1.5,1.8,2.3c2.1-1.5,4.2-2,6.8-1.6c0.1,0-0.9-2.2-1.7-2.3
				c-2.7-0.5-4.8-0.1-7,1.6c-0.5,0.3,1.4,2.2,1.8,2.3c4.3,0.7,8.2-1.4,12.5-1c3.4,0.3,4.6,3.4,6.9,5.4c0.4,0.3,1,0.6,0.6-0.1
				c-1.4-3.2-3.8-6-7-7.5c-5-2.5-10.1-0.2-15.1,1.2C113.7,103.6,115,106,115.8,105.8L115.8,105.8z"/>
		</g>
	</g>
</g>
<path class="st11" d="M82.2,141.5c-1.3,0.6-8.1,4.2-9.1,10.3"/>
<path class="st11" d="M88.7,131.1c-4.9,1.4-5.2,10.8,3.1,11.6"/>
<path class="st11" d="M111.9,132.2c0,0,5.7,5.9-0.7,9.3"/>
<g>
	<path class="st13" d="M87.1,106.7c-0.6-1.8-1.8-3.3-3.3-4.3"/>
</g>
<g>
	<path class="st13" d="M83.6,105.2c-0.5-1-1.5-1.8-2.7-2"/>
</g>
<g>
	<path class="st13" d="M80.4,104.5c-0.9-1.1-2.2-1.9-3.6-2.3"/>
</g>
<g>
	<path class="st13" d="M76.8,104.3c-1.1-1.1-2.6-1.7-4.2-1.7"/>
</g>
<g>
	<path class="st13" d="M78.1,104.1c-0.8-0.9-1.8-1.6-2.9-2.1"/>
</g>
<g>
	<path class="st13" d="M81.5,104.5c-0.4-0.4-0.7-0.7-1.1-1.1"/>
</g>
<g>
	<path class="st13" d="M85.2,105.4c-0.3-0.9-0.9-1.6-1.5-2.3"/>
</g>
<g>
	<path class="st13" d="M72.7,103.6c-1.1-0.5-2.3-0.6-3.4-0.5"/>
</g>
<g>
	<path class="st13" d="M71.6,104.3c-1.1-0.2-2.2-0.2-3.3-0.1"/>
</g>
<g>
	<path class="st13" d="M69.2,104.8c-1.3,0.2-2.5,0.9-3.4,1.9"/>
</g>
<g>
	<path class="st13" d="M68,106.4c-1.1,0-2.1,0.9-2.2,1.9"/>
</g>
<g>
	<path class="st13" d="M66.2,109.7c-0.9,0.2-1.6,1.1-1.7,2"/>
</g>
<g>
	<path class="st13" d="M65.1,112.5c-0.4,0.5-0.4,1.2-0.2,1.8"/>
</g>
<g>
	<path class="st13" d="M114,105.8c-0.6-1,0.3-2.5,1.5-2.5"/>
</g>
<g>
	<path class="st13" d="M116.2,105.4c0.4-1.1,1.4-2,2.5-2.4"/>
</g>
<g>
	<path class="st13" d="M119.5,104.9c0.2-1,1.1-1.8,2.1-2.1"/>
</g>
<g>
	<path class="st13" d="M122.9,104.8c0.7-0.7,1.6-1.4,2.5-1.9"/>
</g>
<g>
	<path class="st13" d="M126.3,104.5c0.5-0.9,1.5-1.4,2.6-1.4"/>
</g>
<g>
	<path class="st13" d="M129.3,104.5c0.7-0.4,1.4-0.5,2.2-0.3"/>
</g>
<g>
	<path class="st13" d="M131.3,105.8c0.8-0.3,1.7-0.3,2.4,0.1"/>
</g>
<g>
	<path class="st13" d="M133,107.2c0.7,0,1.3,0.3,1.8,0.8"/>
</g>
<g>
	<path class="st13" d="M134.2,108.7c0.6,0.1,1.2,0.5,1.4,1.1"/>
</g>
<g>
	<path class="st13" d="M135.5,111c0.2,0.4,0.4,0.7,0.5,1.1"/>
</g>
<g>
	<path class="st13" d="M125.3,104.8c-0.4-0.7,0.1-1.7,0.8-1.8"/>
</g>
<g>
	<path class="st13" d="M121.7,104.5c0.3-0.6,0.7-1.1,1.2-1.5"/>
</g>
<g>
	<path class="st13" d="M117.9,105c0.3-0.6,0.8-1,1.4-1.4"/>
</g>
<g>
	<path class="st13" d="M132.2,106.6c0.7,0.1,1.3,0.2,2,0.3"/>
</g>
<path class="st14" d="M141.7,149.1c0,0-2.8-1.9-7.5,1.9s-5.1,12.9-8,22.1c-2.9,9.1-16.8,12.5-26.8,11.7c-10-0.8-12.5-2.5-15.8-7.4
	c-3.3-4.9-5.4-13.9-21-19.9c0.6,3.9,1.6,8.1,3.3,12.2c8.5,8.8,14.2,13.3,20.2,16.6c6,3.2,11.7,5.5,29.4,0
	c17.7-5.5,22.9-20.4,24.9-26.1c0.8-2.4,1.3-6.3,1.5-10.1C141.8,149.4,141.7,149.1,141.7,149.1z"/>
<path class="st6" d="M140.7,129.1c4.4-0.1,9,0.7,9.7-0.5c0.6-1.2,3.6,5.6-1.5,11.3c-3.2,5.2-2.8,8.6-2.3,8.6c0.4,0.1-2.7,5.9-3.9,6
	c-1.2,0.1-1-17-1-17L140.7,129.1z"/>
<path class="st6" d="M62.1,131.1c-7.9-5.1-6.6-2.6-4.7,4c1.9,6.6,4.5,12.8,4.5,13.5S62.1,131.1,62.1,131.1z"/>
<ellipse transform="matrix(0.9249 -0.3803 0.3803 0.9249 -52.6746 34.8748)" class="st15" cx="61.9" cy="150.7" rx="2.7" ry="4.9"/>
<ellipse transform="matrix(0.5376 -0.8432 0.8432 0.5376 -61.7825 193.4539)" class="st15" cx="145.5" cy="153.1" rx="4.9" ry="2.7"/>
<path class="st16" d="M64.1,100.1C64.7,81.2,77.9,78.4,82,73.7c4.1-4.7,22.4-1.3,25.6-2.5c3.2-1.3,7.3,2.8,12,1.9
	c5.1,3.2,6.9,6,9.2,6c1.5,2.3,6.5,9.6,6.5,9.6s1,8.2,2.7,9.9c0,0,0.4,16.4,2.1,18.9c1.7,2.5,1.4,8,2.5,8.9c0,0,2.8-34.1-10.2-49.1
	s-36.7-8.8-43-11.7s-6.3-14.2-14.6-12.9s-7.5,10-12.1,10.4s-0.8,10.9-5.8,14.2c-5,3.3-7.1,9.6-2.5,12.9s1.7,8.3,4.2,13.8
	s4.7,7,4.7,7L64.1,100.1z"/>
<g>
	<g>
		<path class="st17" d="M143.3,64.1c3.1,0.7,6.9,1.5,8.2,4.8c1.1,2.7-0.7,4.9-1.2,7.5c-0.6,2.6,1,4.2,3.5,3.4c1-0.3,0.1-0.6-0.5-0.4
			c-1.7,0.6-1.8-2.4-1.6-3.3c0.2-0.9,0.7-1.8,1-2.7c0.5-1.6,0.9-3.3,0.2-4.9c-1.3-3.4-5.4-4.3-8.5-5C144.2,63.5,142.9,64,143.3,64.1
			L143.3,64.1z"/>
	</g>
</g>
<g>
	<g>
		<path class="st17" d="M111.1,41.8c6.6,0.9,4.3,8.3,2.4,12.2c-0.3,0.7,1.1,0.7,1.4,0.1c1.3-2.7,2.7-5.7,2-8.7
			c-0.6-2.7-2.6-4.3-5.3-4.6C110.9,40.7,110.1,41.6,111.1,41.8L111.1,41.8z"/>
	</g>
</g>
<g>
	<g>
		<path class="st17" d="M127,45.7c1,2,1.6,4.4,0.6,6.5c-1.2,2.5-4.8,3.2-6,0.3c-0.2-0.6-1.7-0.2-1.4,0.4c1.1,2.6,4.3,3.2,6.6,1.8
			c3.4-2,3.3-6.3,1.7-9.4C128.2,44.7,126.7,45.2,127,45.7L127,45.7z"/>
	</g>
</g>
<g>
	<g>
		<path class="st17" d="M48.6,121.5c0.4-1.9,1.2-4,2.8-5.2c2.2-1.5,4.9-0.3,5.3,2.2c0.3,2,0.1,4.6,2.9,4.3c0.8-0.1,1.2-1,0.2-0.9
			c-2,0.2-1.3-4.6-2.5-5.9c-1-1-2.5-1.3-3.8-1.3c-3.7,0.3-5.5,3.7-6.3,6.9C47,122.2,48.4,122,48.6,121.5L48.6,121.5z"/>
	</g>
</g>
<g>
	<g>
		<path class="st17" d="M51.5,69.7c0.8-1.6,1.8-6.4,4.6-4.1c1.5,1.3,2.4,3.6,3,5.4c0.2,0.5,1.6,0.1,1.4-0.4
			c-0.8-2.3-2.5-6.8-5.4-6.7c-3.2,0.1-3.8,3.4-4.9,5.7C49.8,70.3,51.2,70.2,51.5,69.7L51.5,69.7z"/>
	</g>
</g>
<g>
	<g>
		<path class="st17" d="M51.4,123.8c0.4-1.8,2.4,0.5,2.7,0.9c0.6,0.8,1.2,1.6,1.7,2.5c0.6,1,1.1,1.9,2.3,1.1
			c0.8-0.5-0.4-0.7-0.9-0.4c-0.1,0-0.1,0.1-0.2,0.1c0.3,0,0.7-0.1,1-0.1c-0.5-0.2-0.9-1.2-1.1-1.7c-0.3-0.5-0.7-1-1-1.5
			c-0.6-0.9-1.3-1.8-2.4-2.2c-1.3-0.5-3.2,0.1-3.5,1.5C49.8,124.5,51.2,124.3,51.4,123.8L51.4,123.8z"/>
	</g>
</g>
<g>
	<g>
		<path class="st17" d="M151.4,116.7c4.3-0.1,6.1,5.4,2.5,7.8c-0.6,0.4,0.8,0.2,1.1,0c4-2.7,2.2-8.6-2.7-8.5
			C152,116.2,150.7,116.8,151.4,116.7L151.4,116.7z"/>
	</g>
</g>
<path class="st7" d="M120.9,116.8c-0.1-0.7,0.9-0.3,1.1,0.2C122.1,117,121.1,117.8,120.9,116.8z"/>
<path class="st18" d="M80.6,156.1c4.4-3.8,2.5-4.6,20.6-4c5.8,0.4,7.4-0.8,12.5-0.2c5.2,0.6,8.6,2,8.6,2s1.5,3.2-3.6,8.9
	c-5,5.7-11.1,6.2-16.4,6.2s-15.4-0.9-18.2-3.7S81.4,159.5,80.6,156.1z"/>
<path class="st14" d="M82.9,155.5c-0.9,1.1-0.2,2.9,0.9,4.6c1.2,1.7,1.4,2,1.4,2v-5.5C85.2,156.6,83.8,154.5,82.9,155.5z"/>
<path class="st14" d="M121.3,155c0.3,1-1.9,2-2.7,3.6l-1.7-3.4C116.9,155.2,120.4,152.6,121.3,155z"/>
<path class="st19" d="M83,158.3c-0.3-0.9,0.4-1.9,1.3-1.8c1.7,0.1,3.3,0.6,4.9,0.1c2.1-0.7,5.3-1.2,8.7,0.2c3.2,1.3,6.7-0.6,8.4-1.6
	c0.2-0.1,0.4-0.2,0.7-0.2c2.4,0,7.9,0.4,11.5,0.1c0.8-0.1,1.6,0.6,1.5,1.5c0,0.2-0.2,0.5-0.4,0.6c-0.9,0.7-1.3,2-2,3.1
	s-2.7,2.6-5.6,2.6s-23.2,0.1-25.3,0C85.3,162.9,83.7,160.2,83,158.3z"/>
</svg>
