<?xml version="1.0" encoding="utf-8"?>
<!-- Generator: Adobe Illustrator 20.0.0, SVG Export Plug-In . SVG Version: 6.00 Build 0)  -->
<svg version="1.1" id="Layer_1" xmlns="http://www.w3.org/2000/svg" xmlns:xlink="http://www.w3.org/1999/xlink" x="0px" y="0px"
	 viewBox="0 0 189 263" style="enable-background:new 0 0 189 263;" xml:space="preserve">
<style type="text/css">
	.st0{fill:#FAE5E5;}
	.st1{enable-background:new    ;}
	.st2{fill:#221F20;}
</style>
<title>Group 27</title>
<desc>Created with Sketch.</desc>
<g id="Page-1">
	<g id="Desktop-Copy-2" transform="translate(-752.000000, -1639.000000)">
		<g id="Group-27" transform="translate(752.000000, 1639.000000)">
			<path id="Rectangle-2-Copy-23" class="st0" d="M8,0h173c4.4,0,8,3.6,8,8v247c0,4.4-3.6,8-8,8H8c-4.4,0-8-3.6-8-8V8
				C0,3.6,3.6,0,8,0z"/>
			<g class="st1">
				<path class="st2" d="M59.6,31v-7.7L56.2,31H55l-3.4-7.7V31h-1.4v-9.9h1.9l3.5,8.1l3.5-8.1H61V31H59.6z"/>
				<path class="st2" d="M64.8,27.1l1.8-0.3c0.4-0.1,0.5-0.3,0.5-0.5c0-0.7-0.4-1.2-1.5-1.2c-0.9,0-1.4,0.6-1.5,1.4l-1.3-0.3
					c0.1-1.3,1.3-2.2,2.8-2.2c2,0,2.8,1.1,2.8,2.5v3.4c0,0.6,0.1,0.9,0.1,1.1h-1.3c0-0.2-0.1-0.4-0.1-0.9c-0.3,0.5-1,1.1-2.2,1.1
					c-1.4,0-2.3-1-2.3-2C62.8,28,63.7,27.3,64.8,27.1z M67.2,28.1v-0.3l-2.1,0.3c-0.6,0.1-1,0.4-1,1c0,0.5,0.4,1,1.1,1
					C66.3,30.1,67.2,29.6,67.2,28.1z"/>
				<path class="st2" d="M70.6,33.8l1.7-3.6l-2.9-6h1.5l2.1,4.7l2-4.7h1.4L72,33.8H70.6z"/>
				<path class="st2" d="M79,27.1l1.8-0.3c0.4-0.1,0.5-0.3,0.5-0.5c0-0.7-0.4-1.2-1.5-1.2c-0.9,0-1.4,0.6-1.5,1.4l-1.3-0.3
					c0.1-1.3,1.3-2.2,2.8-2.2c2,0,2.8,1.1,2.8,2.5v3.4c0,0.6,0.1,0.9,0.1,1.1h-1.3c0-0.2-0.1-0.4-0.1-0.9c-0.3,0.5-1,1.1-2.2,1.1
					c-1.4,0-2.3-1-2.3-2C77,28,77.8,27.3,79,27.1z M81.3,28.1v-0.3l-2.1,0.3c-0.6,0.1-1,0.4-1,1c0,0.5,0.4,1,1.1,1
					C80.5,30.1,81.3,29.6,81.3,28.1z"/>
				<path class="st2" d="M94,28.2h-4.4L88.6,31h-1.5l4-9.9h1.6l3.9,9.9h-1.5L94,28.2z M90.1,27h3.4l-1.7-4.5L90.1,27z"/>
				<path class="st2" d="M99,31h-1.3v-6.7H99v1c0.5-0.8,1.3-1.2,2.1-1.2c1.6,0,2.4,1.2,2.4,2.7V31h-1.3v-4c0-0.9-0.4-1.7-1.6-1.7
					c-1,0-1.6,0.8-1.6,1.8V31z"/>
				<path class="st2" d="M106.3,31.1c0.1,0.9,0.8,1.7,1.8,1.7c1.4,0,2.1-0.7,2.1-2.2v-1c-0.3,0.6-1.1,1.1-2.1,1.1
					c-1.8,0-3.1-1.4-3.1-3.3c0-1.8,1.2-3.3,3.1-3.3c1,0,1.7,0.4,2.1,1.1v-0.9h1.3v6.2c0,1.7-0.8,3.4-3.4,3.4c-1.7,0-2.9-1.1-3.1-2.5
					L106.3,31.1z M110.2,27.4c0-1.3-0.8-2.2-1.9-2.2c-1.2,0-1.9,0.9-1.9,2.2c0,1.3,0.8,2.2,1.9,2.2
					C109.4,29.6,110.2,28.7,110.2,27.4z"/>
				<path class="st2" d="M119.4,29.1c-0.4,1.2-1.5,2.1-3,2.1c-1.8,0-3.4-1.3-3.4-3.6c0-2.1,1.5-3.6,3.2-3.6c2.1,0,3.2,1.4,3.2,3.5
					c0,0.2,0,0.3,0,0.4h-5.1c0,1.2,0.9,2,2,2c1.1,0,1.6-0.6,1.9-1.4L119.4,29.1z M118,26.9c0-1-0.7-1.7-1.8-1.7
					c-1.1,0-1.8,0.9-1.8,1.7H118z"/>
				<path class="st2" d="M121,31V20.9h1.3V31H121z"/>
				<path class="st2" d="M130.8,27.6c0,2.1-1.4,3.6-3.4,3.6c-2,0-3.4-1.5-3.4-3.6c0-2,1.4-3.6,3.4-3.6
					C129.4,24.1,130.8,25.6,130.8,27.6z M129.5,27.6c0-1.6-1-2.4-2.1-2.4c-1.1,0-2.1,0.8-2.1,2.4c0,1.6,1,2.4,2.1,2.4
					C128.5,30,129.5,29.2,129.5,27.6z"/>
				<path class="st2" d="M134.8,31.2c-1.6,0-2.5-1.2-2.5-2.7v-4.2h1.3v4c0,0.9,0.4,1.7,1.5,1.7c1.1,0,1.6-0.7,1.6-1.7v-4.1h1.3v5.5
					c0,0.5,0,1,0.1,1.2h-1.3c0-0.2-0.1-0.5-0.1-0.8C136.4,30.9,135.6,31.2,134.8,31.2z"/>
			</g>
			<g id="Group-3-Copy-23" transform="translate(6.000000, 44.000000)">
				<circle id="Oval-2" cx="0.8" cy="0.8" r="0.8"/>
				<circle id="Oval-2-Copy-16" cx="60.7" cy="0.8" r="0.8"/>
				<circle id="Oval-2-Copy-32" cx="120.6" cy="0.8" r="0.8"/>
				<circle id="Oval-2-Copy-8" cx="30.7" cy="0.8" r="0.8"/>
				<circle id="Oval-2-Copy-17" cx="90.6" cy="0.8" r="0.8"/>
				<circle id="Oval-2-Copy-33" cx="150.5" cy="0.8" r="0.8"/>
				<circle id="Oval-2-Copy-4" cx="15.7" cy="0.8" r="0.8"/>
				<circle id="Oval-2-Copy-18" cx="75.6" cy="0.8" r="0.8"/>
				<circle id="Oval-2-Copy-34" cx="135.6" cy="0.8" r="0.8"/>
				<circle id="Oval-2-Copy-9" cx="45.7" cy="0.8" r="0.8"/>
				<circle id="Oval-2-Copy-19" cx="105.6" cy="0.8" r="0.8"/>
				<circle id="Oval-2-Copy-35" cx="165.5" cy="0.8" r="0.8"/>
				<circle id="Oval-2-Copy-2" cx="8.2" cy="0.8" r="0.8"/>
				<circle id="Oval-2-Copy-20" cx="68.2" cy="0.8" r="0.8"/>
				<circle id="Oval-2-Copy-36" cx="128.1" cy="0.8" r="0.8"/>
				<circle id="Oval-2-Copy-10" cx="38.2" cy="0.8" r="0.8"/>
				<circle id="Oval-2-Copy-21" cx="98.1" cy="0.8" r="0.8"/>
				<circle id="Oval-2-Copy-37" cx="158" cy="0.8" r="0.8"/>
				<circle id="Oval-2-Copy-5" cx="23.2" cy="0.8" r="0.8"/>
				<circle id="Oval-2-Copy-22" cx="83.1" cy="0.8" r="0.8"/>
				<circle id="Oval-2-Copy-38" cx="143" cy="0.8" r="0.8"/>
				<circle id="Oval-2-Copy-11" cx="53.2" cy="0.8" r="0.8"/>
				<circle id="Oval-2-Copy-23" cx="113.1" cy="0.8" r="0.8"/>
				<circle id="Oval-2-Copy-39" cx="173" cy="0.8" r="0.8"/>
				<circle id="Oval-2-Copy" cx="4.5" cy="0.8" r="0.8"/>
				<circle id="Oval-2-Copy-24" cx="64.4" cy="0.8" r="0.8"/>
				<circle id="Oval-2-Copy-40" cx="124.3" cy="0.8" r="0.8"/>
				<circle id="Oval-2-Copy-12" cx="34.5" cy="0.8" r="0.8"/>
				<circle id="Oval-2-Copy-25" cx="94.4" cy="0.8" r="0.8"/>
				<circle id="Oval-2-Copy-41" cx="154.3" cy="0.8" r="0.8"/>
				<circle id="Oval-2-Copy-6" cx="19.5" cy="0.8" r="0.8"/>
				<circle id="Oval-2-Copy-26" cx="79.4" cy="0.8" r="0.8"/>
				<circle id="Oval-2-Copy-42" cx="139.3" cy="0.8" r="0.8"/>
				<circle id="Oval-2-Copy-13" cx="49.4" cy="0.8" r="0.8"/>
				<circle id="Oval-2-Copy-27" cx="109.3" cy="0.8" r="0.8"/>
				<circle id="Oval-2-Copy-43" cx="169.3" cy="0.8" r="0.8"/>
				<circle id="Oval-2-Copy-3" cx="12" cy="0.8" r="0.8"/>
				<circle id="Oval-2-Copy-28" cx="71.9" cy="0.8" r="0.8"/>
				<circle id="Oval-2-Copy-44" cx="131.8" cy="0.8" r="0.8"/>
				<circle id="Oval-2-Copy-14" cx="41.9" cy="0.8" r="0.8"/>
				<circle id="Oval-2-Copy-29" cx="101.9" cy="0.8" r="0.8"/>
				<circle id="Oval-2-Copy-45" cx="161.8" cy="0.8" r="0.8"/>
				<circle id="Oval-2-Copy-7" cx="27" cy="0.8" r="0.8"/>
				<circle id="Oval-2-Copy-30" cx="86.9" cy="0.8" r="0.8"/>
				<circle id="Oval-2-Copy-46" cx="146.8" cy="0.8" r="0.8"/>
				<circle id="Oval-2-Copy-15" cx="56.9" cy="0.8" r="0.8"/>
				<circle id="Oval-2-Copy-31" cx="116.8" cy="0.8" r="0.8"/>
				<circle id="Oval-2-Copy-47" cx="176.8" cy="0.8" r="0.8"/>
			</g>
			<g class="st1">
				<path class="st2" d="M16.8,64v-5l-2.2,5h-0.8l-2.2-5v5h-0.9v-6.4H12l2.3,5.2l2.3-5.2h1.2V64H16.8z"/>
				<path class="st2" d="M20.2,61.5l1.2-0.2c0.3,0,0.3-0.2,0.3-0.3c0-0.4-0.3-0.8-0.9-0.8c-0.6,0-0.9,0.4-1,0.9L19,60.9
					c0.1-0.8,0.8-1.4,1.8-1.4c1.3,0,1.8,0.7,1.8,1.6v2.2c0,0.4,0,0.6,0.1,0.7h-0.8c0-0.1,0-0.3,0-0.6c-0.2,0.3-0.6,0.7-1.4,0.7
					c-0.9,0-1.4-0.6-1.4-1.3C18.9,62.1,19.4,61.6,20.2,61.5z M21.7,62.1v-0.2l-1.3,0.2c-0.4,0.1-0.6,0.3-0.6,0.6
					c0,0.3,0.3,0.6,0.7,0.6C21.1,63.4,21.7,63.1,21.7,62.1z"/>
				<path class="st2" d="M23.9,65.8l1.1-2.3l-1.9-3.9h1l1.4,3l1.3-3h0.9l-2.8,6.1H23.9z"/>
				<path class="st2" d="M29.3,61.5l1.2-0.2c0.3,0,0.3-0.2,0.3-0.3c0-0.4-0.3-0.8-0.9-0.8c-0.6,0-0.9,0.4-1,0.9l-0.8-0.2
					c0.1-0.8,0.8-1.4,1.8-1.4c1.3,0,1.8,0.7,1.8,1.6v2.2c0,0.4,0,0.6,0.1,0.7h-0.8c0-0.1,0-0.3,0-0.6c-0.2,0.3-0.6,0.7-1.4,0.7
					c-0.9,0-1.4-0.6-1.4-1.3C28,62.1,28.5,61.6,29.3,61.5z M30.8,62.1v-0.2l-1.3,0.2c-0.4,0.1-0.6,0.3-0.6,0.6
					c0,0.3,0.3,0.6,0.7,0.6C30.2,63.4,30.8,63.1,30.8,62.1z"/>
				<path class="st2" d="M35.5,57.4c0.3,0,0.6,0.3,0.6,0.6c0,0.3-0.3,0.6-0.6,0.6c-0.3,0-0.6-0.3-0.6-0.6
					C34.9,57.7,35.2,57.4,35.5,57.4z M35.1,64v-4.3h0.8V64H35.1z"/>
				<path class="st2" d="M37.7,62.6c0.1,0.5,0.4,0.8,1,0.8c0.5,0,0.7-0.3,0.7-0.6c0-0.3-0.2-0.5-0.6-0.6l-0.7-0.2
					c-0.7-0.1-1.1-0.6-1.1-1.2c0-0.7,0.7-1.4,1.5-1.4c1.2,0,1.6,0.8,1.6,1.2L39.5,61c0-0.2-0.2-0.7-0.9-0.7c-0.4,0-0.7,0.3-0.7,0.6
					c0,0.3,0.2,0.5,0.5,0.5l0.7,0.2c0.8,0.2,1.2,0.6,1.2,1.3c0,0.6-0.5,1.3-1.6,1.3c-1.2,0-1.7-0.8-1.8-1.3L37.7,62.6z"/>
				<path class="st2" d="M45.6,61.5l1.9,2.5h-1.1L45,62.1l-0.6,0.6V64h-0.8v-6.5h0.8v4.1l1.9-1.9h1.2L45.6,61.5z"/>
				<path class="st2" d="M49.1,64h-0.8v-4.3h0.8v0.6c0.3-0.5,0.8-0.7,1.3-0.7c1,0,1.5,0.7,1.5,1.7V64h-0.8v-2.6c0-0.6-0.3-1.1-1-1.1
					c-0.7,0-1,0.5-1,1.2V64z"/>
				<path class="st2" d="M57.3,61.8c0,1.3-0.9,2.3-2.2,2.3s-2.2-1-2.2-2.3c0-1.3,0.9-2.3,2.2-2.3S57.3,60.5,57.3,61.8z M56.5,61.8
					c0-1-0.6-1.5-1.4-1.5s-1.4,0.5-1.4,1.5c0,1,0.6,1.5,1.4,1.5S56.5,62.8,56.5,61.8z"/>
				<path class="st2" d="M61.6,59.7l1.1,3.3l1-3.3h0.9L63.2,64h-0.9l-1.2-3.3L60,64h-0.9l-1.4-4.3h0.9l1,3.3l1.1-3.3H61.6z"/>
				<path class="st2" d="M66.2,64h-0.8v-4.3h0.8v0.6c0.3-0.5,0.8-0.7,1.3-0.7c1,0,1.5,0.7,1.5,1.7V64h-0.8v-2.6c0-0.6-0.3-1.1-1-1.1
					c-0.7,0-1,0.5-1,1.2V64z"/>
				<path class="st2" d="M73.6,61.5l1.2-0.2c0.3,0,0.3-0.2,0.3-0.3c0-0.4-0.3-0.8-0.9-0.8c-0.6,0-0.9,0.4-1,0.9l-0.8-0.2
					c0.1-0.8,0.8-1.4,1.8-1.4c1.3,0,1.8,0.7,1.8,1.6v2.2c0,0.4,0,0.6,0.1,0.7h-0.8c0-0.1,0-0.3,0-0.6c-0.2,0.3-0.6,0.7-1.4,0.7
					c-0.9,0-1.4-0.6-1.4-1.3C72.3,62.1,72.9,61.6,73.6,61.5z M75.1,62.1v-0.2l-1.3,0.2c-0.4,0.1-0.6,0.3-0.6,0.6
					c0,0.3,0.3,0.6,0.7,0.6C74.6,63.4,75.1,63.1,75.1,62.1z"/>
				<path class="st2" d="M77.6,62.6c0.1,0.5,0.4,0.8,1,0.8c0.5,0,0.7-0.3,0.7-0.6c0-0.3-0.2-0.5-0.6-0.6l-0.7-0.2
					C77.4,62,77,61.5,77,60.9c0-0.7,0.7-1.4,1.5-1.4c1.2,0,1.6,0.8,1.6,1.2L79.4,61c0-0.2-0.2-0.7-0.9-0.7c-0.4,0-0.7,0.3-0.7,0.6
					c0,0.3,0.2,0.5,0.5,0.5l0.7,0.2c0.8,0.2,1.2,0.6,1.2,1.3c0,0.6-0.5,1.3-1.6,1.3c-1.2,0-1.7-0.8-1.8-1.3L77.6,62.6z"/>
				<path class="st2" d="M87.5,61.8c0,1.3-0.9,2.3-2.2,2.3s-2.2-1-2.2-2.3c0-1.3,0.9-2.3,2.2-2.3S87.5,60.5,87.5,61.8z M86.7,61.8
					c0-1-0.6-1.5-1.4-1.5S84,60.8,84,61.8c0,1,0.6,1.5,1.4,1.5S86.7,62.8,86.7,61.8z"/>
				<path class="st2" d="M89.4,64h-0.8v-4.3h0.8v0.6c0.3-0.5,0.8-0.7,1.3-0.7c1,0,1.5,0.7,1.5,1.7V64h-0.8v-2.6c0-0.6-0.3-1.1-1-1.1
					c-0.7,0-1,0.5-1,1.2V64z"/>
				<path class="st2" d="M97.4,62.8c-0.2,0.8-0.9,1.4-1.9,1.4c-1.2,0-2.2-0.8-2.2-2.3c0-1.4,1-2.3,2.1-2.3c1.3,0,2.1,0.9,2.1,2.3
					c0,0.1,0,0.2,0,0.3h-3.3c0,0.8,0.6,1.3,1.3,1.3c0.7,0,1.1-0.4,1.2-0.9L97.4,62.8z M96.5,61.4c0-0.6-0.4-1.1-1.2-1.1
					c-0.7,0-1.1,0.5-1.2,1.1H96.5z"/>
				<path class="st2" d="M104.7,61.8c0,1.3-0.9,2.3-2.2,2.3s-2.2-1-2.2-2.3c0-1.3,0.9-2.3,2.2-2.3S104.7,60.5,104.7,61.8z
					 M103.8,61.8c0-1-0.6-1.5-1.4-1.5s-1.4,0.5-1.4,1.5c0,1,0.6,1.5,1.4,1.5S103.8,62.8,103.8,61.8z"/>
				<path class="st2" d="M106.9,60.4V64H106v-3.6h-0.8v-0.8h0.8v-0.7c0-1,0.6-1.5,1.4-1.5c0.3,0,0.5,0.1,0.5,0.1v0.8
					c0,0-0.2-0.1-0.4-0.1c-0.3,0-0.7,0.1-0.7,0.7v0.7h1v0.8H106.9z"/>
				<path class="st2" d="M112.1,59.7h0.9v0.8h-0.9v2.3c0,0.4,0.2,0.6,0.6,0.6c0.1,0,0.3,0,0.3,0V64c-0.1,0-0.3,0.1-0.6,0.1
					c-0.7,0-1.2-0.5-1.2-1.2v-2.4h-0.8v-0.8h0.2c0.5,0,0.7-0.3,0.7-0.7v-0.7h0.8V59.7z"/>
				<path class="st2" d="M115,64h-0.8v-6.5h0.8v2.7c0.3-0.5,0.8-0.6,1.3-0.6c1,0,1.5,0.7,1.5,1.7V64H117v-2.6c0-0.6-0.3-1.1-1-1.1
					c-0.6,0-1,0.5-1,1.1V64z"/>
				<path class="st2" d="M122.9,62.8c-0.2,0.8-0.9,1.4-1.9,1.4c-1.2,0-2.2-0.8-2.2-2.3c0-1.4,1-2.3,2.1-2.3c1.3,0,2.1,0.9,2.1,2.3
					c0,0.1,0,0.2,0,0.3h-3.3c0,0.8,0.6,1.3,1.3,1.3c0.7,0,1.1-0.4,1.2-0.9L122.9,62.8z M122.1,61.4c0-0.6-0.4-1.1-1.2-1.1
					c-0.7,0-1.1,0.5-1.2,1.1H122.1z"/>
				<path class="st2" d="M126.2,64v-4.3h0.8v0.6c0.3-0.5,0.8-0.7,1.3-0.7c0.5,0,1.1,0.3,1.3,0.8c0.3-0.6,0.9-0.8,1.4-0.8
					c0.8,0,1.5,0.5,1.5,1.6V64h-0.8v-2.7c0-0.6-0.3-1-0.9-1c-0.6,0-1,0.5-1,1.1V64h-0.8v-2.7c0-0.6-0.3-1-0.9-1c-0.6,0-1,0.5-1,1.1
					V64H126.2z"/>
				<path class="st2" d="M137.9,61.8c0,1.3-0.9,2.3-2.2,2.3c-1.3,0-2.2-1-2.2-2.3c0-1.3,0.9-2.3,2.2-2.3
					C137,59.5,137.9,60.5,137.9,61.8z M137.1,61.8c0-1-0.6-1.5-1.3-1.5c-0.7,0-1.4,0.5-1.4,1.5c0,1,0.6,1.5,1.4,1.5
					C136.4,63.4,137.1,62.8,137.1,61.8z"/>
				<path class="st2" d="M139.3,62.6c0.1,0.5,0.4,0.8,1,0.8c0.5,0,0.7-0.3,0.7-0.6c0-0.3-0.2-0.5-0.6-0.6l-0.7-0.2
					c-0.7-0.1-1.1-0.6-1.1-1.2c0-0.7,0.7-1.4,1.5-1.4c1.2,0,1.6,0.8,1.6,1.2l-0.7,0.3c0-0.2-0.2-0.7-0.9-0.7c-0.4,0-0.7,0.3-0.7,0.6
					c0,0.3,0.2,0.5,0.5,0.5l0.7,0.2c0.8,0.2,1.2,0.6,1.2,1.3c0,0.6-0.5,1.3-1.6,1.3c-1.2,0-1.7-0.8-1.8-1.3L139.3,62.6z"/>
				<path class="st2" d="M144.1,59.7h0.9v0.8h-0.9v2.3c0,0.4,0.2,0.6,0.6,0.6c0.1,0,0.3,0,0.3,0V64c-0.1,0-0.3,0.1-0.6,0.1
					c-0.7,0-1.2-0.5-1.2-1.2v-2.4h-0.8v-0.8h0.2c0.5,0,0.7-0.3,0.7-0.7v-0.7h0.8V59.7z"/>
				<path class="st2" d="M149.5,60.4V64h-0.9v-3.6h-0.8v-0.8h0.8v-0.7c0-1,0.6-1.5,1.4-1.5c0.3,0,0.5,0.1,0.5,0.1v0.8
					c0,0-0.2-0.1-0.4-0.1c-0.3,0-0.7,0.1-0.7,0.7v0.7h1v0.8H149.5z"/>
				<path class="st2" d="M152.3,61.5l1.2-0.2c0.3,0,0.3-0.2,0.3-0.3c0-0.4-0.3-0.8-0.9-0.8c-0.6,0-0.9,0.4-1,0.9l-0.8-0.2
					c0.1-0.8,0.8-1.4,1.8-1.4c1.3,0,1.8,0.7,1.8,1.6v2.2c0,0.4,0,0.6,0.1,0.7h-0.8c0-0.1,0-0.3,0-0.6c-0.2,0.3-0.6,0.7-1.4,0.7
					c-0.9,0-1.4-0.6-1.4-1.3C151,62.1,151.5,61.6,152.3,61.5z M153.8,62.1v-0.2l-1.3,0.2c-0.4,0.1-0.6,0.3-0.6,0.6
					c0,0.3,0.3,0.6,0.7,0.6C153.2,63.4,153.8,63.1,153.8,62.1z"/>
				<path class="st2" d="M155.9,64v-4.3h0.8v0.6c0.3-0.5,0.8-0.7,1.3-0.7c0.5,0,1.1,0.3,1.3,0.8c0.3-0.6,0.9-0.8,1.5-0.8
					c0.8,0,1.5,0.5,1.5,1.6V64h-0.8v-2.7c0-0.6-0.3-1-0.9-1c-0.6,0-1,0.5-1,1.1V64h-0.8v-2.7c0-0.6-0.3-1-0.9-1c-0.6,0-1,0.5-1,1.1
					V64H155.9z"/>
				<path class="st2" d="M167.6,61.8c0,1.3-0.9,2.3-2.2,2.3c-1.3,0-2.2-1-2.2-2.3c0-1.3,0.9-2.3,2.2-2.3
					C166.7,59.5,167.6,60.5,167.6,61.8z M166.8,61.8c0-1-0.6-1.5-1.4-1.5c-0.7,0-1.3,0.5-1.3,1.5c0,1,0.6,1.5,1.3,1.5
					C166.1,63.4,166.8,62.8,166.8,61.8z"/>
				<path class="st2" d="M170.2,64.1c-1,0-1.6-0.8-1.6-1.7v-2.7h0.8v2.6c0,0.6,0.3,1.1,1,1.1c0.7,0,1-0.5,1-1.1v-2.6h0.8v3.5
					c0,0.3,0,0.6,0,0.8h-0.8c0-0.1,0-0.3,0-0.5C171.2,63.9,170.7,64.1,170.2,64.1z"/>
				<path class="st2" d="M174,62.6c0.1,0.5,0.4,0.8,1,0.8c0.5,0,0.7-0.3,0.7-0.6c0-0.3-0.2-0.5-0.6-0.6l-0.7-0.2
					c-0.7-0.1-1.1-0.6-1.1-1.2c0-0.7,0.7-1.4,1.5-1.4c1.2,0,1.6,0.8,1.6,1.2l-0.7,0.3c0-0.2-0.2-0.7-0.9-0.7c-0.4,0-0.7,0.3-0.7,0.6
					c0,0.3,0.2,0.5,0.5,0.5l0.7,0.2c0.8,0.2,1.2,0.6,1.2,1.3c0,0.6-0.5,1.3-1.6,1.3c-1.2,0-1.7-0.8-1.8-1.3L174,62.6z"/>
			</g>
			<g class="st1">
				<path class="st2" d="M11.8,72.5l1.2-0.2c0.3,0,0.3-0.2,0.3-0.3c0-0.4-0.3-0.8-0.9-0.8c-0.6,0-0.9,0.4-1,0.9l-0.8-0.2
					c0.1-0.8,0.8-1.4,1.8-1.4c1.3,0,1.8,0.7,1.8,1.6v2.2c0,0.4,0,0.6,0.1,0.7h-0.8c0-0.1,0-0.3,0-0.6c-0.2,0.3-0.6,0.7-1.4,0.7
					c-0.9,0-1.4-0.6-1.4-1.3C10.5,73.1,11,72.6,11.8,72.5z M13.3,73.1v-0.2l-1.3,0.2c-0.4,0.1-0.6,0.3-0.6,0.6
					c0,0.3,0.3,0.6,0.7,0.6C12.7,74.4,13.3,74.1,13.3,73.1z"/>
				<path class="st2" d="M16.2,75h-0.8v-4.3h0.8v0.6c0.3-0.5,0.8-0.7,1.3-0.7c1,0,1.5,0.7,1.5,1.7V75h-0.8v-2.6c0-0.6-0.3-1.1-1-1.1
					c-0.7,0-1,0.5-1,1.2V75z"/>
				<path class="st2" d="M23.4,74.3c-0.2,0.4-0.7,0.8-1.3,0.8c-1.3,0-2.1-1-2.1-2.3c0-1.2,0.8-2.3,2.1-2.3c0.8,0,1.2,0.4,1.3,0.7
					v-2.8h0.8v5.7c0,0.4,0,0.7,0,0.8h-0.8C23.5,74.9,23.4,74.7,23.4,74.3L23.4,74.3z M22.2,74.4c0.8,0,1.3-0.7,1.3-1.6
					c0-0.9-0.5-1.5-1.2-1.5c-0.8,0-1.3,0.6-1.3,1.5S21.4,74.4,22.2,74.4z"/>
				<path class="st2" d="M28.9,72.5l1.2-0.2c0.3,0,0.3-0.2,0.3-0.3c0-0.4-0.3-0.8-0.9-0.8c-0.6,0-0.9,0.4-1,0.9l-0.8-0.2
					c0.1-0.8,0.8-1.4,1.8-1.4c1.3,0,1.8,0.7,1.8,1.6v2.2c0,0.4,0,0.6,0.1,0.7h-0.8c0-0.1,0-0.3,0-0.6c-0.2,0.3-0.6,0.7-1.4,0.7
					c-0.9,0-1.4-0.6-1.4-1.3C27.6,73.1,28.1,72.6,28.9,72.5z M30.4,73.1v-0.2l-1.3,0.2c-0.4,0.1-0.6,0.3-0.6,0.6
					c0,0.3,0.3,0.6,0.7,0.6C29.8,74.4,30.4,74.1,30.4,73.1z"/>
				<path class="st2" d="M33,72.8c0,1,0.6,1.5,1.3,1.5c0.8,0,1.1-0.5,1.2-0.9l0.7,0.3c-0.2,0.6-0.8,1.4-2,1.4c-1.3,0-2.2-1-2.2-2.3
					c0-1.4,0.9-2.3,2.2-2.3c1.2,0,1.7,0.7,1.9,1.4l-0.8,0.3c-0.1-0.4-0.4-0.9-1.2-0.9C33.6,71.3,33,71.8,33,72.8z"/>
				<path class="st2" d="M37.7,72.8c0,1,0.6,1.5,1.3,1.5c0.8,0,1.1-0.5,1.2-0.9l0.7,0.3c-0.2,0.6-0.8,1.4-2,1.4
					c-1.3,0-2.2-1-2.2-2.3c0-1.4,0.9-2.3,2.2-2.3c1.2,0,1.7,0.7,1.9,1.4l-0.8,0.3c-0.1-0.4-0.4-0.9-1.2-0.9
					C38.3,71.3,37.7,71.8,37.7,72.8z"/>
				<path class="st2" d="M45.9,72.8c0,1.3-0.9,2.3-2.2,2.3s-2.2-1-2.2-2.3c0-1.3,0.9-2.3,2.2-2.3S45.9,71.5,45.9,72.8z M45.1,72.8
					c0-1-0.6-1.5-1.4-1.5s-1.4,0.5-1.4,1.5c0,1,0.6,1.5,1.4,1.5S45.1,73.8,45.1,72.8z"/>
				<path class="st2" d="M47,75v-4.3h0.8v0.6c0.3-0.5,0.8-0.7,1.3-0.7c0.5,0,1.1,0.3,1.3,0.8c0.3-0.6,0.9-0.8,1.4-0.8
					c0.8,0,1.5,0.5,1.5,1.6V75h-0.8v-2.7c0-0.6-0.3-1-0.9-1c-0.6,0-1,0.5-1,1.1V75h-0.8v-2.7c0-0.6-0.3-1-0.9-1c-0.6,0-1,0.5-1,1.1
					V75H47z"/>
				<path class="st2" d="M54.6,76.7v-6h0.8v0.7c0.2-0.4,0.7-0.8,1.4-0.8c1.3,0,2,1,2,2.3c0,1.3-0.7,2.3-2,2.3
					c-0.7,0-1.2-0.3-1.4-0.7v2.3H54.6z M56.8,71.3c-0.8,0-1.3,0.6-1.3,1.5c0,0.9,0.5,1.5,1.3,1.5c0.8,0,1.3-0.6,1.3-1.5
					C58,72,57.5,71.3,56.8,71.3z"/>
				<path class="st2" d="M59.9,75v-6.5h0.8V75H59.9z"/>
				<path class="st2" d="M62.6,68.4c0.3,0,0.6,0.3,0.6,0.6c0,0.3-0.3,0.6-0.6,0.6c-0.3,0-0.6-0.3-0.6-0.6
					C62,68.7,62.3,68.4,62.6,68.4z M62.2,75v-4.3H63V75H62.2z"/>
				<path class="st2" d="M64.8,73.6c0.1,0.5,0.4,0.8,1,0.8c0.5,0,0.7-0.3,0.7-0.6c0-0.3-0.2-0.5-0.6-0.6l-0.7-0.2
					c-0.7-0.1-1.1-0.6-1.1-1.2c0-0.7,0.7-1.4,1.5-1.4c1.2,0,1.6,0.8,1.6,1.2L66.6,72c0-0.2-0.2-0.7-0.9-0.7c-0.4,0-0.7,0.3-0.7,0.6
					c0,0.3,0.2,0.5,0.5,0.5l0.7,0.2c0.8,0.2,1.2,0.6,1.2,1.3c0,0.6-0.5,1.3-1.6,1.3c-1.2,0-1.7-0.8-1.8-1.3L64.8,73.6z"/>
				<path class="st2" d="M69.3,75h-0.8v-6.5h0.8v2.7c0.3-0.5,0.8-0.6,1.3-0.6c1,0,1.5,0.7,1.5,1.7V75h-0.8v-2.6c0-0.6-0.3-1.1-1-1.1
					c-0.6,0-1,0.5-1,1.1V75z"/>
				<path class="st2" d="M77.2,73.8c-0.2,0.8-0.9,1.4-1.9,1.4c-1.2,0-2.2-0.8-2.2-2.3c0-1.4,1-2.3,2.1-2.3c1.3,0,2.1,0.9,2.1,2.3
					c0,0.1,0,0.2,0,0.3H74c0,0.8,0.6,1.3,1.3,1.3c0.7,0,1.1-0.4,1.2-0.9L77.2,73.8z M76.4,72.4c0-0.6-0.4-1.1-1.2-1.1
					c-0.7,0-1.1,0.5-1.2,1.1H76.4z"/>
				<path class="st2" d="M81.3,74.3c-0.2,0.4-0.7,0.8-1.3,0.8c-1.3,0-2.1-1-2.1-2.3c0-1.2,0.8-2.3,2.1-2.3c0.8,0,1.2,0.4,1.3,0.7
					v-2.8h0.8v5.7c0,0.4,0,0.7,0,0.8h-0.8C81.3,74.9,81.3,74.7,81.3,74.3L81.3,74.3z M80,74.4c0.8,0,1.3-0.7,1.3-1.6
					c0-0.9-0.5-1.5-1.2-1.5c-0.8,0-1.3,0.6-1.3,1.5S79.2,74.4,80,74.4z"/>
				<path class="st2" d="M89.5,73.2h-2.8L86,75h-0.9l2.5-6.4h1l2.5,6.4h-1L89.5,73.2z M87,72.4h2.2l-1.1-2.9L87,72.4z"/>
				<path class="st2" d="M91.9,75v-4.3h0.8v0.6c0.3-0.5,0.8-0.7,1.3-0.7c0.5,0,1.1,0.3,1.3,0.8c0.3-0.6,0.9-0.8,1.4-0.8
					c0.8,0,1.5,0.5,1.5,1.6V75h-0.8v-2.7c0-0.6-0.3-1-0.9-1c-0.6,0-1,0.5-1,1.1V75h-0.8v-2.7c0-0.6-0.3-1-0.9-1c-0.6,0-1,0.5-1,1.1
					V75H91.9z"/>
				<path class="st2" d="M103.3,73.8c-0.2,0.8-0.9,1.4-1.9,1.4c-1.2,0-2.2-0.8-2.2-2.3c0-1.4,1-2.3,2.1-2.3c1.3,0,2.1,0.9,2.1,2.3
					c0,0.1,0,0.2,0,0.3h-3.3c0,0.8,0.6,1.3,1.3,1.3c0.7,0,1.1-0.4,1.2-0.9L103.3,73.8z M102.5,72.4c0-0.6-0.4-1.1-1.2-1.1
					c-0.7,0-1.1,0.5-1.2,1.1H102.5z"/>
				<path class="st2" d="M106.8,71.5c-0.1,0-0.3,0-0.4,0c-0.7,0-1.2,0.4-1.2,1.3V75h-0.8v-4.3h0.8v0.8c0.3-0.7,0.9-0.8,1.3-0.8
					c0.1,0,0.2,0,0.3,0V71.5z"/>
				<path class="st2" d="M108.1,68.4c0.3,0,0.6,0.3,0.6,0.6c0,0.3-0.3,0.6-0.6,0.6c-0.3,0-0.6-0.3-0.6-0.6
					C107.5,68.7,107.7,68.4,108.1,68.4z M107.7,75v-4.3h0.8V75H107.7z"/>
				<path class="st2" d="M110.4,72.8c0,1,0.6,1.5,1.3,1.5c0.8,0,1.1-0.5,1.2-0.9l0.7,0.3c-0.2,0.6-0.8,1.4-2,1.4
					c-1.3,0-2.2-1-2.2-2.3c0-1.4,0.9-2.3,2.2-2.3c1.2,0,1.7,0.7,1.9,1.4l-0.8,0.3c-0.1-0.4-0.4-0.9-1.2-0.9
					C111,71.3,110.4,71.8,110.4,72.8z"/>
				<path class="st2" d="M115.6,72.5l1.2-0.2c0.3,0,0.3-0.2,0.3-0.3c0-0.4-0.3-0.8-0.9-0.8c-0.6,0-0.9,0.4-1,0.9l-0.8-0.2
					c0.1-0.8,0.8-1.4,1.8-1.4c1.3,0,1.8,0.7,1.8,1.6v2.2c0,0.4,0,0.6,0.1,0.7h-0.8c0-0.1,0-0.3,0-0.6c-0.2,0.3-0.6,0.7-1.4,0.7
					c-0.9,0-1.4-0.6-1.4-1.3C114.3,73.1,114.9,72.6,115.6,72.5z M117.1,73.1v-0.2l-1.3,0.2c-0.4,0.1-0.6,0.3-0.6,0.6
					c0,0.3,0.3,0.6,0.7,0.6C116.6,74.4,117.1,74.1,117.1,73.1z"/>
				<path class="st2" d="M120.1,75h-0.8v-4.3h0.8v0.6c0.3-0.5,0.8-0.7,1.3-0.7c1,0,1.5,0.7,1.5,1.7V75h-0.8v-2.6
					c0-0.6-0.3-1.1-1-1.1c-0.7,0-1,0.5-1,1.2V75z"/>
				<path class="st2" d="M126.5,76.7v-6h0.8v0.7c0.2-0.4,0.7-0.8,1.4-0.8c1.3,0,2,1,2,2.3c0,1.3-0.7,2.3-2,2.3
					c-0.7,0-1.2-0.3-1.4-0.7v2.3H126.5z M128.6,71.3c-0.8,0-1.3,0.6-1.3,1.5c0,0.9,0.5,1.5,1.3,1.5c0.8,0,1.3-0.6,1.3-1.5
					C129.9,72,129.4,71.3,128.6,71.3z"/>
				<path class="st2" d="M135.8,72.8c0,1.3-0.9,2.3-2.2,2.3c-1.3,0-2.2-1-2.2-2.3c0-1.3,0.9-2.3,2.2-2.3
					C134.9,70.5,135.8,71.5,135.8,72.8z M135,72.8c0-1-0.6-1.5-1.4-1.5c-0.7,0-1.3,0.5-1.3,1.5c0,1,0.6,1.5,1.3,1.5
					C134.3,74.4,135,73.8,135,72.8z"/>
				<path class="st2" d="M140.6,73.8c-0.2,0.8-0.9,1.4-1.9,1.4c-1.2,0-2.2-0.8-2.2-2.3c0-1.4,1-2.3,2.1-2.3c1.3,0,2.1,0.9,2.1,2.3
					c0,0.1,0,0.2,0,0.3h-3.3c0,0.8,0.6,1.3,1.3,1.3c0.7,0,1.1-0.4,1.2-0.9L140.6,73.8z M139.8,72.4c0-0.6-0.4-1.1-1.2-1.1
					c-0.7,0-1.1,0.5-1.2,1.1H139.8z"/>
				<path class="st2" d="M142.8,70.7h0.9v0.8h-0.9v2.3c0,0.4,0.2,0.6,0.6,0.6c0.1,0,0.3,0,0.3,0V75c-0.1,0-0.3,0.1-0.6,0.1
					c-0.7,0-1.2-0.5-1.2-1.2v-2.4h-0.8v-0.8h0.2c0.5,0,0.7-0.3,0.7-0.7v-0.7h0.8V70.7z"/>
				<path class="st2" d="M145.2,73.6c0.1,0.5,0.4,0.8,1,0.8c0.5,0,0.7-0.3,0.7-0.6c0-0.3-0.2-0.5-0.6-0.6l-0.7-0.2
					c-0.7-0.1-1.1-0.6-1.1-1.2c0-0.7,0.7-1.4,1.5-1.4c1.2,0,1.6,0.8,1.6,1.2l-0.7,0.3c0-0.2-0.2-0.7-0.9-0.7c-0.4,0-0.7,0.3-0.7,0.6
					c0,0.3,0.2,0.5,0.5,0.5l0.7,0.2c0.8,0.2,1.2,0.6,1.2,1.3c0,0.6-0.5,1.3-1.6,1.3c-1.2,0-1.7-0.8-1.8-1.3L145.2,73.6z"/>
				<path class="st2" d="M152.2,72.5l1.2-0.2c0.3,0,0.3-0.2,0.3-0.3c0-0.4-0.3-0.8-0.9-0.8c-0.6,0-0.9,0.4-1,0.9l-0.8-0.2
					c0.1-0.8,0.8-1.4,1.8-1.4c1.3,0,1.8,0.7,1.8,1.6v2.2c0,0.4,0,0.6,0.1,0.7h-0.8c0-0.1,0-0.3,0-0.6c-0.2,0.3-0.6,0.7-1.4,0.7
					c-0.9,0-1.4-0.6-1.4-1.3C150.8,73.1,151.4,72.6,152.2,72.5z M153.7,73.1v-0.2l-1.3,0.2c-0.4,0.1-0.6,0.3-0.6,0.6
					c0,0.3,0.3,0.6,0.7,0.6C153.1,74.4,153.7,74.1,153.7,73.1z"/>
				<path class="st2" d="M156.6,75h-0.8v-4.3h0.8v0.6c0.3-0.5,0.8-0.7,1.3-0.7c1,0,1.5,0.7,1.5,1.7V75h-0.8v-2.6
					c0-0.6-0.3-1.1-1-1.1c-0.7,0-1,0.5-1,1.2V75z"/>
				<path class="st2" d="M163.8,74.3c-0.2,0.4-0.7,0.8-1.3,0.8c-1.3,0-2.1-1-2.1-2.3c0-1.2,0.8-2.3,2.1-2.3c0.8,0,1.2,0.4,1.3,0.7
					v-2.8h0.8v5.7c0,0.4,0,0.7,0,0.8h-0.8C163.8,74.9,163.8,74.7,163.8,74.3L163.8,74.3z M162.6,74.4c0.8,0,1.3-0.7,1.3-1.6
					c0-0.9-0.5-1.5-1.2-1.5c-0.8,0-1.3,0.6-1.3,1.5S161.7,74.4,162.6,74.4z"/>
				<path class="st2" d="M168.7,72.8c0,1,0.6,1.5,1.3,1.5c0.8,0,1.1-0.5,1.2-0.9l0.7,0.3c-0.2,0.6-0.8,1.4-2,1.4
					c-1.3,0-2.2-1-2.2-2.3c0-1.4,0.9-2.3,2.2-2.3c1.2,0,1.7,0.7,1.9,1.4l-0.8,0.3c-0.1-0.4-0.4-0.9-1.2-0.9
					C169.4,71.3,168.7,71.8,168.7,72.8z"/>
				<path class="st2" d="M173.4,68.4c0.3,0,0.6,0.3,0.6,0.6c0,0.3-0.3,0.6-0.6,0.6c-0.3,0-0.6-0.3-0.6-0.6
					C172.8,68.7,173,68.4,173.4,68.4z M173,75v-4.3h0.8V75H173z"/>
				<path class="st2" d="M177.2,75h-0.9l-1.8-4.3h1l1.2,3.3l1.2-3.3h0.9L177.2,75z"/>
				<path class="st2" d="M180.1,68.4c0.3,0,0.6,0.3,0.6,0.6c0,0.3-0.3,0.6-0.6,0.6c-0.3,0-0.6-0.3-0.6-0.6
					C179.5,68.7,179.7,68.4,180.1,68.4z M179.7,75v-4.3h0.8V75H179.7z"/>
				<path class="st2" d="M181.9,75v-6.5h0.8V75H181.9z"/>
			</g>
			<g class="st1">
				<path class="st2" d="M13.1,82.5c-0.1,0-0.3,0-0.4,0c-0.7,0-1.2,0.4-1.2,1.3V86h-0.8v-4.3h0.8v0.8c0.3-0.7,0.9-0.8,1.3-0.8
					c0.1,0,0.2,0,0.3,0V82.5z"/>
				<path class="st2" d="M14.4,79.4c0.3,0,0.6,0.3,0.6,0.6c0,0.3-0.3,0.6-0.6,0.6c-0.3,0-0.6-0.3-0.6-0.6
					C13.8,79.7,14.1,79.4,14.4,79.4z M14,86v-4.3h0.8V86H14z"/>
				<path class="st2" d="M16.7,86c0.1,0.6,0.5,1.1,1.2,1.1c0.9,0,1.3-0.5,1.3-1.4v-0.6c-0.2,0.4-0.7,0.7-1.3,0.7c-1.2,0-2-0.9-2-2.1
					c0-1.2,0.8-2.1,2-2.1c0.7,0,1.1,0.3,1.3,0.7v-0.6h0.8v4c0,1.1-0.5,2.2-2.2,2.2c-1.1,0-1.9-0.7-2-1.6L16.7,86z M19.3,83.7
					c0-0.8-0.5-1.4-1.2-1.4c-0.7,0-1.3,0.5-1.3,1.4c0,0.8,0.5,1.4,1.3,1.4C18.7,85.1,19.3,84.5,19.3,83.7z"/>
				<path class="st2" d="M22.2,86h-0.8v-6.5h0.8v2.7c0.3-0.5,0.8-0.6,1.3-0.6c1,0,1.5,0.7,1.5,1.7V86h-0.8v-2.6c0-0.6-0.3-1.1-1-1.1
					c-0.6,0-1,0.5-1,1.1V86z"/>
				<path class="st2" d="M27.5,81.7h0.9v0.8h-0.9v2.3c0,0.4,0.2,0.6,0.6,0.6c0.1,0,0.3,0,0.3,0V86c-0.1,0-0.3,0.1-0.6,0.1
					c-0.7,0-1.2-0.5-1.2-1.2v-2.4h-0.8v-0.8h0.2c0.5,0,0.7-0.3,0.7-0.7v-0.7h0.8V81.7z"/>
				<path class="st2" d="M29.9,84.6c0.1,0.5,0.4,0.8,1,0.8c0.5,0,0.7-0.3,0.7-0.6c0-0.3-0.2-0.5-0.6-0.6l-0.7-0.2
					c-0.7-0.1-1.1-0.6-1.1-1.2c0-0.7,0.7-1.4,1.5-1.4c1.2,0,1.6,0.8,1.6,1.2L31.7,83c0-0.2-0.2-0.7-0.9-0.7c-0.4,0-0.7,0.3-0.7,0.6
					c0,0.3,0.2,0.5,0.5,0.5l0.7,0.2c0.8,0.2,1.2,0.6,1.2,1.3c0,0.6-0.5,1.3-1.6,1.3c-1.2,0-1.7-0.8-1.8-1.3L29.9,84.6z"/>
				<path class="st2" d="M36.8,83.5l1.2-0.2c0.3,0,0.3-0.2,0.3-0.3c0-0.4-0.3-0.8-0.9-0.8c-0.6,0-0.9,0.4-1,0.9l-0.8-0.2
					c0.1-0.8,0.8-1.4,1.8-1.4c1.3,0,1.8,0.7,1.8,1.6v2.2c0,0.4,0,0.6,0.1,0.7h-0.8c0-0.1,0-0.3,0-0.6c-0.2,0.3-0.6,0.7-1.4,0.7
					c-0.9,0-1.4-0.6-1.4-1.3C35.5,84.1,36.1,83.6,36.8,83.5z M38.4,84.1v-0.2L37,84.1c-0.4,0.1-0.6,0.3-0.6,0.6
					c0,0.3,0.3,0.6,0.7,0.6C37.8,85.4,38.4,85.1,38.4,84.1z"/>
				<path class="st2" d="M41,83.8c0,1,0.6,1.5,1.3,1.5c0.8,0,1.1-0.5,1.2-0.9l0.7,0.3c-0.2,0.6-0.8,1.4-2,1.4c-1.3,0-2.2-1-2.2-2.3
					c0-1.4,0.9-2.3,2.2-2.3c1.2,0,1.7,0.7,1.9,1.4l-0.8,0.3c-0.1-0.4-0.4-0.9-1.2-0.9C41.6,82.3,41,82.8,41,83.8z"/>
				<path class="st2" d="M46.3,81.7h0.9v0.8h-0.9v2.3c0,0.4,0.2,0.6,0.6,0.6c0.1,0,0.3,0,0.3,0V86C47.2,86,47,86,46.7,86
					c-0.7,0-1.2-0.5-1.2-1.2v-2.4h-0.8v-0.8h0.2c0.5,0,0.7-0.3,0.7-0.7v-0.7h0.8V81.7z"/>
				<path class="st2" d="M48.8,79.4c0.3,0,0.6,0.3,0.6,0.6c0,0.3-0.3,0.6-0.6,0.6c-0.3,0-0.6-0.3-0.6-0.6
					C48.2,79.7,48.4,79.4,48.8,79.4z M48.3,86v-4.3h0.8V86H48.3z"/>
				<path class="st2" d="M52.6,86h-0.9l-1.8-4.3h1l1.2,3.3l1.2-3.3h0.9L52.6,86z"/>
				<path class="st2" d="M55.5,79.4c0.3,0,0.6,0.3,0.6,0.6c0,0.3-0.3,0.6-0.6,0.6c-0.3,0-0.6-0.3-0.6-0.6
					C54.9,79.7,55.1,79.4,55.5,79.4z M55,86v-4.3h0.8V86H55z"/>
				<path class="st2" d="M57.6,84.6c0.1,0.5,0.4,0.8,1,0.8c0.5,0,0.7-0.3,0.7-0.6c0-0.3-0.2-0.5-0.6-0.6l-0.7-0.2
					C57.4,84,57,83.5,57,82.9c0-0.7,0.7-1.4,1.5-1.4c1.2,0,1.6,0.8,1.6,1.2L59.4,83c0-0.2-0.2-0.7-0.9-0.7c-0.4,0-0.7,0.3-0.7,0.6
					c0,0.3,0.2,0.5,0.5,0.5l0.7,0.2c0.8,0.2,1.2,0.6,1.2,1.3c0,0.6-0.5,1.3-1.6,1.3c-1.2,0-1.7-0.8-1.8-1.3L57.6,84.6z"/>
				<path class="st2" d="M62.4,81.7h0.9v0.8h-0.9v2.3c0,0.4,0.2,0.6,0.6,0.6c0.1,0,0.3,0,0.3,0V86c-0.1,0-0.3,0.1-0.6,0.1
					c-0.7,0-1.2-0.5-1.2-1.2v-2.4h-0.8v-0.8H61c0.5,0,0.7-0.3,0.7-0.7v-0.7h0.8V81.7z"/>
				<path class="st2" d="M64.9,84.6c0.1,0.5,0.4,0.8,1,0.8c0.5,0,0.7-0.3,0.7-0.6c0-0.3-0.2-0.5-0.6-0.6l-0.7-0.2
					c-0.7-0.1-1.1-0.6-1.1-1.2c0-0.7,0.7-1.4,1.5-1.4c1.2,0,1.6,0.8,1.6,1.2L66.7,83c0-0.2-0.2-0.7-0.9-0.7c-0.4,0-0.7,0.3-0.7,0.6
					c0,0.3,0.2,0.5,0.5,0.5l0.7,0.2c0.8,0.2,1.2,0.6,1.2,1.3c0,0.6-0.5,1.3-1.6,1.3c-1.2,0-1.7-0.8-1.8-1.3L64.9,84.6z"/>
				<path class="st2" d="M69,84.8c0.4,0,0.6,0.3,0.6,0.6S69.4,86,69,86s-0.6-0.3-0.6-0.6S68.7,84.8,69,84.8z"/>
				<path class="st2" d="M76.6,81.3c-0.1-0.5-0.5-1.1-1.4-1.1c-0.7,0-1.2,0.5-1.2,1.1c0,0.5,0.3,0.8,0.8,0.9l1,0.2
					c1.1,0.2,1.7,0.9,1.7,1.8c0,1-0.8,1.9-2.2,1.9c-1.5,0-2.3-1-2.4-1.9l0.8-0.3c0.1,0.7,0.6,1.4,1.5,1.4c0.9,0,1.3-0.5,1.3-1
					c0-0.5-0.3-0.9-1-1l-0.9-0.2c-0.9-0.2-1.6-0.8-1.6-1.7c0-1,0.9-1.9,2.1-1.9c1.4,0,2,0.9,2.2,1.6L76.6,81.3z"/>
				<path class="st2" d="M79.3,86h-0.8v-6.5h0.8v2.7c0.3-0.5,0.8-0.6,1.3-0.6c1,0,1.5,0.7,1.5,1.7V86h-0.8v-2.6c0-0.6-0.3-1.1-1-1.1
					c-0.6,0-1,0.5-1,1.1V86z"/>
				<path class="st2" d="M87.2,84.8c-0.2,0.8-0.9,1.4-1.9,1.4c-1.2,0-2.2-0.8-2.2-2.3c0-1.4,1-2.3,2.1-2.3c1.3,0,2.1,0.9,2.1,2.3
					c0,0.1,0,0.2,0,0.3H84c0,0.8,0.6,1.3,1.3,1.3c0.7,0,1.1-0.4,1.2-0.9L87.2,84.8z M86.4,83.4c0-0.6-0.4-1.1-1.2-1.1
					c-0.7,0-1.1,0.5-1.2,1.1H86.4z"/>
				<path class="st2" d="M93.8,81.7l1.1,3.3l1-3.3h0.9L95.4,86h-0.9l-1.2-3.3L92.2,86h-0.9l-1.4-4.3h0.9l1,3.3l1.1-3.3H93.8z"/>
				<path class="st2" d="M98.6,83.5l1.2-0.2c0.3,0,0.3-0.2,0.3-0.3c0-0.4-0.3-0.8-0.9-0.8c-0.6,0-0.9,0.4-1,0.9l-0.8-0.2
					c0.1-0.8,0.8-1.4,1.8-1.4c1.3,0,1.8,0.7,1.8,1.6v2.2c0,0.4,0,0.6,0.1,0.7h-0.8c0-0.1,0-0.3,0-0.6c-0.2,0.3-0.6,0.7-1.4,0.7
					c-0.9,0-1.4-0.6-1.4-1.3C97.3,84.1,97.8,83.6,98.6,83.5z M100.1,84.1v-0.2l-1.3,0.2c-0.4,0.1-0.6,0.3-0.6,0.6
					c0,0.3,0.3,0.6,0.7,0.6C99.5,85.4,100.1,85.1,100.1,84.1z"/>
				<path class="st2" d="M102.6,84.6c0.1,0.5,0.4,0.8,1,0.8c0.5,0,0.7-0.3,0.7-0.6c0-0.3-0.2-0.5-0.6-0.6l-0.7-0.2
					c-0.7-0.1-1.1-0.6-1.1-1.2c0-0.7,0.7-1.4,1.5-1.4c1.2,0,1.6,0.8,1.6,1.2l-0.7,0.3c0-0.2-0.2-0.7-0.9-0.7c-0.4,0-0.7,0.3-0.7,0.6
					c0,0.3,0.2,0.5,0.5,0.5l0.7,0.2c0.8,0.2,1.2,0.6,1.2,1.3c0,0.6-0.5,1.3-1.6,1.3c-1.2,0-1.7-0.8-1.8-1.3L102.6,84.6z"/>
				<path class="st2" d="M110.8,82.5c-0.1,0-0.3,0-0.4,0c-0.7,0-1.2,0.4-1.2,1.3V86h-0.8v-4.3h0.8v0.8c0.3-0.7,0.9-0.8,1.3-0.8
					c0.1,0,0.2,0,0.3,0V82.5z"/>
				<path class="st2" d="M115.4,84.8c-0.2,0.8-0.9,1.4-1.9,1.4c-1.2,0-2.2-0.8-2.2-2.3c0-1.4,1-2.3,2.1-2.3c1.3,0,2.1,0.9,2.1,2.3
					c0,0.1,0,0.2,0,0.3h-3.3c0,0.8,0.6,1.3,1.3,1.3c0.7,0,1.1-0.4,1.2-0.9L115.4,84.8z M114.6,83.4c0-0.6-0.4-1.1-1.2-1.1
					c-0.7,0-1.1,0.5-1.2,1.1H114.6z"/>
				<path class="st2" d="M116.8,84.6c0.1,0.5,0.4,0.8,1,0.8c0.5,0,0.7-0.3,0.7-0.6c0-0.3-0.2-0.5-0.6-0.6l-0.7-0.2
					c-0.7-0.1-1.1-0.6-1.1-1.2c0-0.7,0.7-1.4,1.5-1.4c1.2,0,1.6,0.8,1.6,1.2l-0.7,0.3c0-0.2-0.2-0.7-0.9-0.7c-0.4,0-0.7,0.3-0.7,0.6
					c0,0.3,0.2,0.5,0.5,0.5l0.7,0.2c0.8,0.2,1.2,0.6,1.2,1.3c0,0.6-0.5,1.3-1.6,1.3c-1.2,0-1.7-0.8-1.8-1.3L116.8,84.6z"/>
				<path class="st2" d="M120.5,87.7v-6h0.8v0.7c0.2-0.4,0.7-0.8,1.4-0.8c1.3,0,2,1,2,2.3c0,1.3-0.7,2.3-2,2.3
					c-0.7,0-1.2-0.3-1.4-0.7v2.3H120.5z M122.6,82.3c-0.8,0-1.3,0.6-1.3,1.5c0,0.9,0.5,1.5,1.3,1.5c0.8,0,1.3-0.6,1.3-1.5
					C123.9,83,123.4,82.3,122.6,82.3z"/>
				<path class="st2" d="M129.6,84.8c-0.2,0.8-0.9,1.4-1.9,1.4c-1.2,0-2.2-0.8-2.2-2.3c0-1.4,1-2.3,2.1-2.3c1.3,0,2.1,0.9,2.1,2.3
					c0,0.1,0,0.2,0,0.3h-3.3c0,0.8,0.6,1.3,1.3,1.3c0.7,0,1.1-0.4,1.2-0.9L129.6,84.8z M128.7,83.4c0-0.6-0.4-1.1-1.2-1.1
					c-0.7,0-1.1,0.5-1.2,1.1H128.7z"/>
				<path class="st2" d="M131.1,83.8c0,1,0.6,1.5,1.3,1.5c0.8,0,1.1-0.5,1.2-0.9l0.7,0.3c-0.2,0.6-0.8,1.4-2,1.4
					c-1.3,0-2.2-1-2.2-2.3c0-1.4,0.9-2.3,2.2-2.3c1.2,0,1.7,0.7,1.9,1.4l-0.8,0.3c-0.1-0.4-0.4-0.9-1.2-0.9
					C131.8,82.3,131.1,82.8,131.1,83.8z"/>
				<path class="st2" d="M136.5,81.7h0.9v0.8h-0.9v2.3c0,0.4,0.2,0.6,0.6,0.6c0.1,0,0.3,0,0.3,0V86c-0.1,0-0.3,0.1-0.6,0.1
					c-0.7,0-1.2-0.5-1.2-1.2v-2.4h-0.8v-0.8h0.2c0.5,0,0.7-0.3,0.7-0.7v-0.7h0.8V81.7z"/>
				<path class="st2" d="M142.2,84.8c-0.2,0.8-0.9,1.4-1.9,1.4c-1.2,0-2.2-0.8-2.2-2.3c0-1.4,1-2.3,2.1-2.3c1.3,0,2.1,0.9,2.1,2.3
					c0,0.1,0,0.2,0,0.3H139c0,0.8,0.6,1.3,1.3,1.3c0.7,0,1.1-0.4,1.2-0.9L142.2,84.8z M141.4,83.4c0-0.6-0.4-1.1-1.2-1.1
					c-0.7,0-1.1,0.5-1.2,1.1H141.4z"/>
				<path class="st2" d="M146.3,85.3c-0.2,0.4-0.7,0.8-1.3,0.8c-1.3,0-2.1-1-2.1-2.3c0-1.2,0.8-2.3,2.1-2.3c0.8,0,1.2,0.4,1.3,0.7
					v-2.8h0.8v5.7c0,0.4,0,0.7,0,0.8h-0.8C146.3,85.9,146.3,85.7,146.3,85.3L146.3,85.3z M145.1,85.4c0.8,0,1.3-0.7,1.3-1.6
					c0-0.9-0.5-1.5-1.2-1.5c-0.8,0-1.3,0.6-1.3,1.5S144.2,85.4,145.1,85.4z"/>
				<path class="st2" d="M151.8,83.5l1.2-0.2c0.3,0,0.3-0.2,0.3-0.3c0-0.4-0.3-0.8-0.9-0.8c-0.6,0-0.9,0.4-1,0.9l-0.8-0.2
					c0.1-0.8,0.8-1.4,1.8-1.4c1.3,0,1.8,0.7,1.8,1.6v2.2c0,0.4,0,0.6,0.1,0.7h-0.8c0-0.1,0-0.3,0-0.6c-0.2,0.3-0.6,0.7-1.4,0.7
					c-0.9,0-1.4-0.6-1.4-1.3C150.5,84.1,151,83.6,151.8,83.5z M153.3,84.1v-0.2l-1.3,0.2c-0.4,0.1-0.6,0.3-0.6,0.6
					c0,0.3,0.3,0.6,0.7,0.6C152.7,85.4,153.3,85.1,153.3,84.1z"/>
				<path class="st2" d="M155.8,84.6c0.1,0.5,0.4,0.8,1,0.8c0.5,0,0.7-0.3,0.7-0.6c0-0.3-0.2-0.5-0.6-0.6l-0.7-0.2
					c-0.7-0.1-1.1-0.6-1.1-1.2c0-0.7,0.7-1.4,1.5-1.4c1.2,0,1.6,0.8,1.6,1.2l-0.7,0.3c0-0.2-0.2-0.7-0.9-0.7c-0.4,0-0.7,0.3-0.7,0.6
					c0,0.3,0.2,0.5,0.5,0.5l0.7,0.2c0.8,0.2,1.2,0.6,1.2,1.3c0,0.6-0.5,1.3-1.6,1.3c-1.2,0-1.7-0.8-1.8-1.3L155.8,84.6z"/>
				<path class="st2" d="M162.7,83.5l1.2-0.2c0.3,0,0.3-0.2,0.3-0.3c0-0.4-0.3-0.8-0.9-0.8c-0.6,0-0.9,0.4-1,0.9l-0.8-0.2
					c0.1-0.8,0.8-1.4,1.8-1.4c1.3,0,1.8,0.7,1.8,1.6v2.2c0,0.4,0,0.6,0.1,0.7h-0.8c0-0.1,0-0.3,0-0.6c-0.2,0.3-0.6,0.7-1.4,0.7
					c-0.9,0-1.4-0.6-1.4-1.3C161.4,84.1,161.9,83.6,162.7,83.5z M164.2,84.1v-0.2l-1.3,0.2c-0.4,0.1-0.6,0.3-0.6,0.6
					c0,0.3,0.3,0.6,0.7,0.6C163.6,85.4,164.2,85.1,164.2,84.1z"/>
			</g>
			<g class="st1">
				<path class="st2" d="M11.1,95.6c0.1,0.5,0.4,0.8,1,0.8c0.5,0,0.7-0.3,0.7-0.6c0-0.3-0.2-0.5-0.6-0.6l-0.7-0.2
					c-0.7-0.1-1.1-0.6-1.1-1.2c0-0.7,0.7-1.4,1.5-1.4c1.2,0,1.6,0.8,1.6,1.2L12.9,94c0-0.2-0.2-0.7-0.9-0.7c-0.4,0-0.7,0.3-0.7,0.6
					c0,0.3,0.2,0.5,0.5,0.5l0.7,0.2c0.8,0.2,1.2,0.6,1.2,1.3c0,0.6-0.5,1.3-1.6,1.3c-1.2,0-1.7-0.8-1.8-1.3L11.1,95.6z"/>
				<path class="st2" d="M14.7,98.7v-6h0.8v0.7c0.2-0.4,0.7-0.8,1.4-0.8c1.3,0,2,1,2,2.3c0,1.3-0.7,2.3-2,2.3
					c-0.7,0-1.2-0.3-1.4-0.7v2.3H14.7z M16.9,93.3c-0.8,0-1.3,0.6-1.3,1.5c0,0.9,0.5,1.5,1.3,1.5c0.8,0,1.3-0.6,1.3-1.5
					C18.1,94,17.7,93.3,16.9,93.3z"/>
				<path class="st2" d="M24.1,94.8c0,1.3-0.9,2.3-2.2,2.3s-2.2-1-2.2-2.3c0-1.3,0.9-2.3,2.2-2.3S24.1,93.5,24.1,94.8z M23.2,94.8
					c0-1-0.6-1.5-1.4-1.5s-1.4,0.5-1.4,1.5c0,1,0.6,1.5,1.4,1.5S23.2,95.8,23.2,94.8z"/>
				<path class="st2" d="M27.2,94.5l1.9,2.5H28l-1.4-1.9L26,95.7V97h-0.8v-6.5H26v4.1l1.9-1.9H29L27.2,94.5z"/>
				<path class="st2" d="M33.4,95.8c-0.2,0.8-0.9,1.4-1.9,1.4c-1.2,0-2.2-0.8-2.2-2.3c0-1.4,1-2.3,2.1-2.3c1.3,0,2.1,0.9,2.1,2.3
					c0,0.1,0,0.2,0,0.3h-3.3c0,0.8,0.6,1.3,1.3,1.3c0.7,0,1.1-0.4,1.2-0.9L33.4,95.8z M32.5,94.4c0-0.6-0.4-1.1-1.2-1.1
					c-0.7,0-1.1,0.5-1.2,1.1H32.5z"/>
				<path class="st2" d="M34.8,95.6c0.1,0.5,0.4,0.8,1,0.8c0.5,0,0.7-0.3,0.7-0.6c0-0.3-0.2-0.5-0.6-0.6l-0.7-0.2
					c-0.7-0.1-1.1-0.6-1.1-1.2c0-0.7,0.7-1.4,1.5-1.4c1.2,0,1.6,0.8,1.6,1.2L36.6,94c0-0.2-0.2-0.7-0.9-0.7c-0.4,0-0.7,0.3-0.7,0.6
					c0,0.3,0.2,0.5,0.5,0.5l0.7,0.2c0.8,0.2,1.2,0.6,1.2,1.3c0,0.6-0.5,1.3-1.6,1.3c-1.2,0-1.7-0.8-1.8-1.3L34.8,95.6z"/>
				<path class="st2" d="M41.7,92.7l1.1,3.3l1-3.3h0.9L43.3,97h-0.9l-1.2-3.3L40.1,97h-0.9l-1.4-4.3h0.9l1,3.3l1.1-3.3H41.7z"/>
				<path class="st2" d="M49.5,94.8c0,1.3-0.9,2.3-2.2,2.3s-2.2-1-2.2-2.3c0-1.3,0.9-2.3,2.2-2.3S49.5,93.5,49.5,94.8z M48.6,94.8
					c0-1-0.6-1.5-1.4-1.5s-1.4,0.5-1.4,1.5c0,1,0.6,1.5,1.4,1.5S48.6,95.8,48.6,94.8z"/>
				<path class="st2" d="M50.5,97v-4.3h0.8v0.6c0.3-0.5,0.8-0.7,1.3-0.7c0.5,0,1.1,0.3,1.3,0.8c0.3-0.6,0.9-0.8,1.4-0.8
					c0.8,0,1.5,0.5,1.5,1.6V97H56v-2.7c0-0.6-0.3-1-0.9-1c-0.6,0-1,0.5-1,1.1V97h-0.8v-2.7c0-0.6-0.3-1-0.9-1c-0.6,0-1,0.5-1,1.1V97
					H50.5z"/>
				<path class="st2" d="M59.2,94.5l1.2-0.2c0.3,0,0.3-0.2,0.3-0.3c0-0.4-0.3-0.8-0.9-0.8c-0.6,0-0.9,0.4-1,0.9L58,93.9
					c0.1-0.8,0.8-1.4,1.8-1.4c1.3,0,1.8,0.7,1.8,1.6v2.2c0,0.4,0,0.6,0.1,0.7h-0.8c0-0.1,0-0.3,0-0.6c-0.2,0.3-0.6,0.7-1.4,0.7
					c-0.9,0-1.4-0.6-1.4-1.3C57.9,95.1,58.5,94.6,59.2,94.5z M60.7,95.1v-0.2l-1.3,0.2c-0.4,0.1-0.6,0.3-0.6,0.6
					c0,0.3,0.3,0.6,0.7,0.6C60.2,96.4,60.7,96.1,60.7,95.1z"/>
				<path class="st2" d="M63.7,97h-0.8v-4.3h0.8v0.6c0.3-0.5,0.8-0.7,1.3-0.7c1,0,1.5,0.7,1.5,1.7V97h-0.8v-2.6c0-0.6-0.3-1.1-1-1.1
					c-0.7,0-1,0.5-1,1.2V97z"/>
				<path class="st2" d="M71.2,93.4V97h-0.9v-3.6h-0.8v-0.8h0.8v-0.7c0-1,0.6-1.5,1.4-1.5c0.3,0,0.5,0.1,0.5,0.1v0.8
					c0,0-0.2-0.1-0.4-0.1c-0.3,0-0.7,0.1-0.7,0.7v0.7h1v0.8H71.2z"/>
				<path class="st2" d="M77,94.8c0,1.3-0.9,2.3-2.2,2.3s-2.2-1-2.2-2.3c0-1.3,0.9-2.3,2.2-2.3S77,93.5,77,94.8z M76.1,94.8
					c0-1-0.6-1.5-1.4-1.5s-1.4,0.5-1.4,1.5c0,1,0.6,1.5,1.4,1.5S76.1,95.8,76.1,94.8z"/>
				<path class="st2" d="M80.4,93.5c-0.1,0-0.3,0-0.4,0c-0.7,0-1.2,0.4-1.2,1.3V97H78v-4.3h0.8v0.8c0.3-0.7,0.9-0.8,1.3-0.8
					c0.1,0,0.2,0,0.3,0V93.5z"/>
				<path class="st2" d="M83.5,97v-6.5h0.8v2.8c0.2-0.4,0.7-0.7,1.4-0.7c1.3,0,2,1,2,2.3c0,1.3-0.7,2.3-2,2.3
					c-0.6,0-1.1-0.3-1.4-0.7V97H83.5z M85.6,93.3c-0.7,0-1.3,0.6-1.3,1.5s0.5,1.5,1.3,1.5c0.8,0,1.3-0.6,1.3-1.5
					S86.4,93.3,85.6,93.3z"/>
				<path class="st2" d="M88.8,97v-6.5h0.8V97H88.8z"/>
				<path class="st2" d="M92.1,94.5l1.2-0.2c0.3,0,0.3-0.2,0.3-0.3c0-0.4-0.3-0.8-0.9-0.8c-0.6,0-0.9,0.4-1,0.9l-0.8-0.2
					c0.1-0.8,0.8-1.4,1.8-1.4c1.3,0,1.8,0.7,1.8,1.6v2.2c0,0.4,0,0.6,0.1,0.7h-0.8c0-0.1,0-0.3,0-0.6c-0.2,0.3-0.6,0.7-1.4,0.7
					c-0.9,0-1.4-0.6-1.4-1.3C90.7,95.1,91.3,94.6,92.1,94.5z M93.6,95.1v-0.2l-1.3,0.2c-0.4,0.1-0.6,0.3-0.6,0.6
					c0,0.3,0.3,0.6,0.7,0.6C93,96.4,93.6,96.1,93.6,95.1z"/>
				<path class="st2" d="M96.2,94.8c0,1,0.6,1.5,1.3,1.5c0.8,0,1.1-0.5,1.2-0.9l0.7,0.3c-0.2,0.6-0.8,1.4-2,1.4
					c-1.3,0-2.2-1-2.2-2.3c0-1.4,0.9-2.3,2.2-2.3c1.2,0,1.7,0.7,1.9,1.4l-0.8,0.3c-0.1-0.4-0.4-0.9-1.2-0.9
					C96.8,93.3,96.2,93.8,96.2,94.8z"/>
				<path class="st2" d="M102.4,94.5l1.9,2.5h-1.1l-1.4-1.9l-0.6,0.6V97h-0.8v-6.5h0.8v4.1l1.9-1.9h1.2L102.4,94.5z"/>
				<path class="st2" d="M107.3,98.7v-6h0.8v0.7c0.2-0.4,0.7-0.8,1.4-0.8c1.3,0,2,1,2,2.3c0,1.3-0.7,2.3-2,2.3
					c-0.7,0-1.2-0.3-1.4-0.7v2.3H107.3z M109.4,93.3c-0.8,0-1.3,0.6-1.3,1.5c0,0.9,0.5,1.5,1.3,1.5c0.8,0,1.3-0.6,1.3-1.5
					C110.7,94,110.2,93.3,109.4,93.3z"/>
				<path class="st2" d="M116.4,95.8c-0.2,0.8-0.9,1.4-1.9,1.4c-1.2,0-2.2-0.8-2.2-2.3c0-1.4,1-2.3,2.1-2.3c1.3,0,2.1,0.9,2.1,2.3
					c0,0.1,0,0.2,0,0.3h-3.3c0,0.8,0.6,1.3,1.3,1.3c0.7,0,1.1-0.4,1.2-0.9L116.4,95.8z M115.5,94.4c0-0.6-0.4-1.1-1.2-1.1
					c-0.7,0-1.1,0.5-1.2,1.1H115.5z"/>
				<path class="st2" d="M121.5,94.8c0,1.3-0.9,2.3-2.2,2.3s-2.2-1-2.2-2.3c0-1.3,0.9-2.3,2.2-2.3S121.5,93.5,121.5,94.8z
					 M120.6,94.8c0-1-0.6-1.5-1.4-1.5s-1.4,0.5-1.4,1.5c0,1,0.6,1.5,1.4,1.5S120.6,95.8,120.6,94.8z"/>
				<path class="st2" d="M122.5,98.7v-6h0.8v0.7c0.2-0.4,0.7-0.8,1.4-0.8c1.3,0,2,1,2,2.3c0,1.3-0.7,2.3-2,2.3
					c-0.7,0-1.2-0.3-1.4-0.7v2.3H122.5z M124.6,93.3c-0.8,0-1.3,0.6-1.3,1.5c0,0.9,0.5,1.5,1.3,1.5c0.8,0,1.3-0.6,1.3-1.5
					C125.9,94,125.4,93.3,124.6,93.3z"/>
				<path class="st2" d="M127.8,97v-6.5h0.8V97H127.8z"/>
				<path class="st2" d="M133.8,95.8c-0.2,0.8-0.9,1.4-1.9,1.4c-1.2,0-2.2-0.8-2.2-2.3c0-1.4,1-2.3,2.1-2.3c1.3,0,2.1,0.9,2.1,2.3
					c0,0.1,0,0.2,0,0.3h-3.3c0,0.8,0.6,1.3,1.3,1.3c0.7,0,1.1-0.4,1.2-0.9L133.8,95.8z M133,94.4c0-0.6-0.4-1.1-1.2-1.1
					c-0.7,0-1.1,0.5-1.2,1.1H133z"/>
				<path class="st2" d="M138.1,94.5l1.2-0.2c0.3,0,0.3-0.2,0.3-0.3c0-0.4-0.3-0.8-0.9-0.8c-0.6,0-0.9,0.4-1,0.9l-0.8-0.2
					c0.1-0.8,0.8-1.4,1.8-1.4c1.3,0,1.8,0.7,1.8,1.6v2.2c0,0.4,0,0.6,0.1,0.7h-0.8c0-0.1,0-0.3,0-0.6c-0.2,0.3-0.6,0.7-1.4,0.7
					c-0.9,0-1.4-0.6-1.4-1.3C136.8,95.1,137.4,94.6,138.1,94.5z M139.6,95.1v-0.2l-1.3,0.2c-0.4,0.1-0.6,0.3-0.6,0.6
					c0,0.3,0.3,0.6,0.7,0.6C139.1,96.4,139.6,96.1,139.6,95.1z"/>
				<path class="st2" d="M142.6,97h-0.8v-4.3h0.8v0.6c0.3-0.5,0.8-0.7,1.3-0.7c1,0,1.5,0.7,1.5,1.7V97h-0.8v-2.6
					c0-0.6-0.3-1.1-1-1.1c-0.7,0-1,0.5-1,1.2V97z"/>
				<path class="st2" d="M149.8,96.3c-0.2,0.4-0.7,0.8-1.3,0.8c-1.3,0-2.1-1-2.1-2.3c0-1.2,0.8-2.3,2.1-2.3c0.8,0,1.2,0.4,1.3,0.7
					v-2.8h0.8v5.7c0,0.4,0,0.7,0,0.8h-0.8C149.8,96.9,149.8,96.7,149.8,96.3L149.8,96.3z M148.5,96.4c0.8,0,1.3-0.7,1.3-1.6
					c0-0.9-0.5-1.5-1.2-1.5c-0.8,0-1.3,0.6-1.3,1.5S147.7,96.4,148.5,96.4z"/>
				<path class="st2" d="M157.5,92.7l1.1,3.3l1-3.3h0.9l-1.4,4.3h-0.9l-1.2-3.3l-1.1,3.3h-0.9l-1.4-4.3h0.9l1,3.3l1.1-3.3H157.5z"/>
				<path class="st2" d="M165.3,94.8c0,1.3-0.9,2.3-2.2,2.3s-2.2-1-2.2-2.3c0-1.3,0.9-2.3,2.2-2.3S165.3,93.5,165.3,94.8z
					 M164.4,94.8c0-1-0.6-1.5-1.4-1.5s-1.4,0.5-1.4,1.5c0,1,0.6,1.5,1.4,1.5S164.4,95.8,164.4,94.8z"/>
				<path class="st2" d="M166.3,97v-4.3h0.8v0.6c0.3-0.5,0.8-0.7,1.3-0.7c0.5,0,1.1,0.3,1.3,0.8c0.3-0.6,0.9-0.8,1.5-0.8
					c0.8,0,1.5,0.5,1.5,1.6V97h-0.8v-2.7c0-0.6-0.3-1-0.9-1c-0.6,0-1,0.5-1,1.1V97h-0.8v-2.7c0-0.6-0.3-1-0.9-1c-0.6,0-1,0.5-1,1.1
					V97H166.3z"/>
				<path class="st2" d="M177.8,95.8c-0.2,0.8-0.9,1.4-1.9,1.4c-1.2,0-2.2-0.8-2.2-2.3c0-1.4,1-2.3,2.1-2.3c1.3,0,2.1,0.9,2.1,2.3
					c0,0.1,0,0.2,0,0.3h-3.3c0,0.8,0.6,1.3,1.3,1.3c0.7,0,1.1-0.4,1.2-0.9L177.8,95.8z M176.9,94.4c0-0.6-0.4-1.1-1.2-1.1
					c-0.7,0-1.1,0.5-1.2,1.1H176.9z"/>
				<path class="st2" d="M179.7,97h-0.8v-4.3h0.8v0.6c0.3-0.5,0.8-0.7,1.3-0.7c1,0,1.5,0.7,1.5,1.7V97h-0.8v-2.6
					c0-0.6-0.3-1.1-1-1.1c-0.7,0-1,0.5-1,1.2V97z"/>
				<path class="st2" d="M184.4,95.8c0.4,0,0.7,0.3,0.7,0.9c0,1.2-0.8,1.7-1.3,1.8V98c0.4-0.1,0.7-0.5,0.7-1c0,0-0.1,0-0.2,0
					c-0.3,0-0.6-0.2-0.6-0.6C183.7,96.1,184,95.8,184.4,95.8z"/>
			</g>
			<g class="st1">
				<path class="st2" d="M11.8,105.5l1.2-0.2c0.3,0,0.3-0.2,0.3-0.3c0-0.4-0.3-0.8-0.9-0.8c-0.6,0-0.9,0.4-1,0.9l-0.8-0.2
					c0.1-0.8,0.8-1.4,1.8-1.4c1.3,0,1.8,0.7,1.8,1.6v2.2c0,0.4,0,0.6,0.1,0.7h-0.8c0-0.1,0-0.3,0-0.6c-0.2,0.3-0.6,0.7-1.4,0.7
					c-0.9,0-1.4-0.6-1.4-1.3C10.5,106.1,11,105.6,11.8,105.5z M13.3,106.1v-0.2l-1.3,0.2c-0.4,0.1-0.6,0.3-0.6,0.6
					c0,0.3,0.3,0.6,0.7,0.6C12.7,107.4,13.3,107.1,13.3,106.1z"/>
				<path class="st2" d="M16.2,108h-0.8v-4.3h0.8v0.6c0.3-0.5,0.8-0.7,1.3-0.7c1,0,1.5,0.7,1.5,1.7v2.7h-0.8v-2.6
					c0-0.6-0.3-1.1-1-1.1c-0.7,0-1,0.5-1,1.2V108z"/>
				<path class="st2" d="M23.4,107.3c-0.2,0.4-0.7,0.8-1.3,0.8c-1.3,0-2.1-1-2.1-2.3c0-1.2,0.8-2.3,2.1-2.3c0.8,0,1.2,0.4,1.3,0.7
					v-2.8h0.8v5.7c0,0.4,0,0.7,0,0.8h-0.8C23.5,107.9,23.4,107.7,23.4,107.3L23.4,107.3z M22.2,107.4c0.8,0,1.3-0.7,1.3-1.6
					c0-0.9-0.5-1.5-1.2-1.5c-0.8,0-1.3,0.6-1.3,1.5S21.4,107.4,22.2,107.4z"/>
				<path class="st2" d="M28.7,108h-0.8v-6.5h0.8v2.7c0.3-0.5,0.8-0.6,1.3-0.6c1,0,1.5,0.7,1.5,1.7v2.7h-0.8v-2.6
					c0-0.6-0.3-1.1-1-1.1c-0.6,0-1,0.5-1,1.1V108z"/>
				<path class="st2" d="M36.6,106.8c-0.2,0.8-0.9,1.4-1.9,1.4c-1.2,0-2.2-0.8-2.2-2.3c0-1.4,1-2.3,2.1-2.3c1.3,0,2.1,0.9,2.1,2.3
					c0,0.1,0,0.2,0,0.3h-3.3c0,0.8,0.6,1.3,1.3,1.3c0.7,0,1.1-0.4,1.2-0.9L36.6,106.8z M35.8,105.4c0-0.6-0.4-1.1-1.2-1.1
					c-0.7,0-1.1,0.5-1.2,1.1H35.8z"/>
				<path class="st2" d="M40.1,104.5c-0.1,0-0.3,0-0.4,0c-0.7,0-1.2,0.4-1.2,1.3v2.2h-0.8v-4.3h0.8v0.8c0.3-0.7,0.9-0.8,1.3-0.8
					c0.1,0,0.2,0,0.3,0V104.5z"/>
				<path class="st2" d="M43.2,108v-6.5H44v2.8c0.2-0.4,0.7-0.7,1.4-0.7c1.3,0,2,1,2,2.3c0,1.3-0.7,2.3-2,2.3
					c-0.6,0-1.1-0.3-1.4-0.7v0.6H43.2z M45.3,104.3c-0.7,0-1.3,0.6-1.3,1.5s0.5,1.5,1.3,1.5c0.8,0,1.3-0.6,1.3-1.5
					S46.1,104.3,45.3,104.3z"/>
				<path class="st2" d="M52.5,105.8c0,1.3-0.9,2.3-2.2,2.3s-2.2-1-2.2-2.3c0-1.3,0.9-2.3,2.2-2.3S52.5,104.5,52.5,105.8z
					 M51.7,105.8c0-1-0.6-1.5-1.4-1.5s-1.4,0.5-1.4,1.5c0,1,0.6,1.5,1.4,1.5S51.7,106.8,51.7,105.8z"/>
				<path class="st2" d="M57.6,105.8c0,1.3-0.9,2.3-2.2,2.3s-2.2-1-2.2-2.3c0-1.3,0.9-2.3,2.2-2.3S57.6,104.5,57.6,105.8z
					 M56.8,105.8c0-1-0.6-1.5-1.4-1.5s-1.4,0.5-1.4,1.5c0,1,0.6,1.5,1.4,1.5S56.8,106.8,56.8,105.8z"/>
				<path class="st2" d="M60.7,105.5l1.9,2.5h-1.1l-1.4-1.9l-0.6,0.6v1.3h-0.8v-6.5h0.8v4.1l1.9-1.9h1.2L60.7,105.5z"/>
				<path class="st2" d="M63.7,106.6c0.1,0.5,0.4,0.8,1,0.8c0.5,0,0.7-0.3,0.7-0.6c0-0.3-0.2-0.5-0.6-0.6l-0.7-0.2
					c-0.7-0.1-1.1-0.6-1.1-1.2c0-0.7,0.7-1.4,1.5-1.4c1.2,0,1.6,0.8,1.6,1.2l-0.7,0.3c0-0.2-0.2-0.7-0.9-0.7c-0.4,0-0.7,0.3-0.7,0.6
					c0,0.3,0.2,0.5,0.5,0.5l0.7,0.2c0.8,0.2,1.2,0.6,1.2,1.3c0,0.6-0.5,1.3-1.6,1.3c-1.2,0-1.7-0.8-1.8-1.3L63.7,106.6z"/>
				<path class="st2" d="M70.6,105.5l1.2-0.2c0.3,0,0.3-0.2,0.3-0.3c0-0.4-0.3-0.8-0.9-0.8c-0.6,0-0.9,0.4-1,0.9l-0.8-0.2
					c0.1-0.8,0.8-1.4,1.8-1.4c1.3,0,1.8,0.7,1.8,1.6v2.2c0,0.4,0,0.6,0.1,0.7h-0.8c0-0.1,0-0.3,0-0.6c-0.2,0.3-0.6,0.7-1.4,0.7
					c-0.9,0-1.4-0.6-1.4-1.3C69.3,106.1,69.9,105.6,70.6,105.5z M72.1,106.1v-0.2l-1.3,0.2c-0.4,0.1-0.6,0.3-0.6,0.6
					c0,0.3,0.3,0.6,0.7,0.6C71.6,107.4,72.1,107.1,72.1,106.1z"/>
				<path class="st2" d="M75.1,108h-0.8v-4.3h0.8v0.6c0.3-0.5,0.8-0.7,1.3-0.7c1,0,1.5,0.7,1.5,1.7v2.7h-0.8v-2.6
					c0-0.6-0.3-1.1-1-1.1c-0.7,0-1,0.5-1,1.2V108z"/>
				<path class="st2" d="M82.3,107.3c-0.2,0.4-0.7,0.8-1.3,0.8c-1.3,0-2.1-1-2.1-2.3c0-1.2,0.8-2.3,2.1-2.3c0.8,0,1.2,0.4,1.3,0.7
					v-2.8h0.8v5.7c0,0.4,0,0.7,0,0.8h-0.8C82.3,107.9,82.3,107.7,82.3,107.3L82.3,107.3z M81,107.4c0.8,0,1.3-0.7,1.3-1.6
					c0-0.9-0.5-1.5-1.2-1.5c-0.8,0-1.3,0.6-1.3,1.5S80.2,107.4,81,107.4z"/>
				<path class="st2" d="M86.7,108v-6.5h0.8v6.5H86.7z"/>
				<path class="st2" d="M89.3,101.4c0.3,0,0.6,0.3,0.6,0.6c0,0.3-0.3,0.6-0.6,0.6c-0.3,0-0.6-0.3-0.6-0.6
					C88.7,101.7,89,101.4,89.3,101.4z M88.9,108v-4.3h0.8v4.3H88.9z"/>
				<path class="st2" d="M92.3,103.7h0.9v0.8h-0.9v2.3c0,0.4,0.2,0.6,0.6,0.6c0.1,0,0.3,0,0.3,0v0.7c-0.1,0-0.3,0.1-0.6,0.1
					c-0.7,0-1.2-0.5-1.2-1.2v-2.4h-0.8v-0.8h0.2c0.5,0,0.7-0.3,0.7-0.7v-0.7h0.8V103.7z"/>
				<path class="st2" d="M98,106.8c-0.2,0.8-0.9,1.4-1.9,1.4c-1.2,0-2.2-0.8-2.2-2.3c0-1.4,1-2.3,2.1-2.3c1.3,0,2.1,0.9,2.1,2.3
					c0,0.1,0,0.2,0,0.3h-3.3c0,0.8,0.6,1.3,1.3,1.3c0.7,0,1.1-0.4,1.2-0.9L98,106.8z M97.2,105.4c0-0.6-0.4-1.1-1.2-1.1
					c-0.7,0-1.1,0.5-1.2,1.1H97.2z"/>
				<path class="st2" d="M101.5,104.5c-0.1,0-0.3,0-0.4,0c-0.7,0-1.2,0.4-1.2,1.3v2.2h-0.8v-4.3h0.8v0.8c0.3-0.7,0.9-0.8,1.3-0.8
					c0.1,0,0.2,0,0.3,0V104.5z"/>
				<path class="st2" d="M103.4,105.5l1.2-0.2c0.3,0,0.3-0.2,0.3-0.3c0-0.4-0.3-0.8-0.9-0.8c-0.6,0-0.9,0.4-1,0.9l-0.8-0.2
					c0.1-0.8,0.8-1.4,1.8-1.4c1.3,0,1.8,0.7,1.8,1.6v2.2c0,0.4,0,0.6,0.1,0.7H105c0-0.1,0-0.3,0-0.6c-0.2,0.3-0.6,0.7-1.4,0.7
					c-0.9,0-1.4-0.6-1.4-1.3C102.1,106.1,102.7,105.6,103.4,105.5z M104.9,106.1v-0.2l-1.3,0.2c-0.4,0.1-0.6,0.3-0.6,0.6
					c0,0.3,0.3,0.6,0.7,0.6C104.3,107.4,104.9,107.1,104.9,106.1z"/>
				<path class="st2" d="M108.2,103.7h0.9v0.8h-0.9v2.3c0,0.4,0.2,0.6,0.6,0.6c0.1,0,0.3,0,0.3,0v0.7c-0.1,0-0.3,0.1-0.6,0.1
					c-0.7,0-1.2-0.5-1.2-1.2v-2.4h-0.8v-0.8h0.2c0.5,0,0.7-0.3,0.7-0.7v-0.7h0.8V103.7z"/>
				<path class="st2" d="M111.7,108.1c-1,0-1.6-0.8-1.6-1.7v-2.7h0.8v2.6c0,0.6,0.3,1.1,1,1.1c0.7,0,1-0.5,1-1.1v-2.6h0.8v3.5
					c0,0.3,0,0.6,0,0.8h-0.8c0-0.1,0-0.3,0-0.5C112.8,107.9,112.2,108.1,111.7,108.1z"/>
				<path class="st2" d="M117.6,104.5c-0.1,0-0.3,0-0.4,0c-0.7,0-1.2,0.4-1.2,1.3v2.2h-0.8v-4.3h0.8v0.8c0.3-0.7,0.9-0.8,1.3-0.8
					c0.1,0,0.2,0,0.3,0V104.5z"/>
				<path class="st2" d="M122.2,106.8c-0.2,0.8-0.9,1.4-1.9,1.4c-1.2,0-2.2-0.8-2.2-2.3c0-1.4,1-2.3,2.1-2.3c1.3,0,2.1,0.9,2.1,2.3
					c0,0.1,0,0.2,0,0.3H119c0,0.8,0.6,1.3,1.3,1.3c0.7,0,1.1-0.4,1.2-0.9L122.2,106.8z M121.3,105.4c0-0.6-0.4-1.1-1.2-1.1
					c-0.7,0-1.1,0.5-1.2,1.1H121.3z"/>
				<path class="st2" d="M126.6,104.4v3.6h-0.9v-3.6h-0.8v-0.8h0.8v-0.7c0-1,0.6-1.5,1.4-1.5c0.3,0,0.5,0.1,0.5,0.1v0.8
					c0,0-0.2-0.1-0.4-0.1c-0.3,0-0.7,0.1-0.7,0.7v0.7h1v0.8H126.6z"/>
				<path class="st2" d="M132.4,105.8c0,1.3-0.9,2.3-2.2,2.3s-2.2-1-2.2-2.3c0-1.3,0.9-2.3,2.2-2.3S132.4,104.5,132.4,105.8z
					 M131.5,105.8c0-1-0.6-1.5-1.4-1.5s-1.4,0.5-1.4,1.5c0,1,0.6,1.5,1.4,1.5S131.5,106.8,131.5,105.8z"/>
				<path class="st2" d="M133.9,105.8c0,1,0.6,1.5,1.3,1.5c0.8,0,1.1-0.5,1.2-0.9l0.7,0.3c-0.2,0.6-0.8,1.4-2,1.4
					c-1.3,0-2.2-1-2.2-2.3c0-1.4,0.9-2.3,2.2-2.3c1.2,0,1.7,0.7,1.9,1.4l-0.8,0.3c-0.1-0.4-0.4-0.9-1.2-0.9
					C134.6,104.3,133.9,104.8,133.9,105.8z"/>
				<path class="st2" d="M139.7,108.1c-1,0-1.6-0.8-1.6-1.7v-2.7h0.8v2.6c0,0.6,0.3,1.1,1,1.1c0.7,0,1-0.5,1-1.1v-2.6h0.8v3.5
					c0,0.3,0,0.6,0,0.8H141c0-0.1,0-0.3,0-0.5C140.7,107.9,140.2,108.1,139.7,108.1z"/>
				<path class="st2" d="M143.5,106.6c0.1,0.5,0.4,0.8,1,0.8c0.5,0,0.7-0.3,0.7-0.6c0-0.3-0.2-0.5-0.6-0.6l-0.7-0.2
					c-0.7-0.1-1.1-0.6-1.1-1.2c0-0.7,0.7-1.4,1.5-1.4c1.2,0,1.6,0.8,1.6,1.2l-0.7,0.3c0-0.2-0.2-0.7-0.9-0.7c-0.4,0-0.7,0.3-0.7,0.6
					c0,0.3,0.2,0.5,0.5,0.5l0.7,0.2c0.8,0.2,1.2,0.6,1.2,1.3c0,0.6-0.5,1.3-1.6,1.3c-1.2,0-1.7-0.8-1.8-1.3L143.5,106.6z"/>
				<path class="st2" d="M153.5,105.8c0,1.3-0.9,2.3-2.2,2.3c-1.3,0-2.2-1-2.2-2.3c0-1.3,0.9-2.3,2.2-2.3
					C152.5,103.5,153.5,104.5,153.5,105.8z M152.6,105.8c0-1-0.6-1.5-1.3-1.5c-0.7,0-1.4,0.5-1.4,1.5c0,1,0.6,1.5,1.4,1.5
					C152,107.4,152.6,106.8,152.6,105.8z"/>
				<path class="st2" d="M155.3,108h-0.8v-4.3h0.8v0.6c0.3-0.5,0.8-0.7,1.3-0.7c1,0,1.5,0.7,1.5,1.7v2.7h-0.8v-2.6
					c0-0.6-0.3-1.1-1-1.1c-0.7,0-1,0.5-1,1.2V108z"/>
			</g>
			<g class="st1">
				<path class="st2" d="M13.1,115.5c-0.1,0-0.3,0-0.4,0c-0.7,0-1.2,0.4-1.2,1.3v2.2h-0.8v-4.3h0.8v0.8c0.3-0.7,0.9-0.8,1.3-0.8
					c0.1,0,0.2,0,0.3,0V115.5z"/>
				<path class="st2" d="M15,116.5l1.2-0.2c0.3,0,0.3-0.2,0.3-0.3c0-0.4-0.3-0.8-0.9-0.8c-0.6,0-0.9,0.4-1,0.9l-0.8-0.2
					c0.1-0.8,0.8-1.4,1.8-1.4c1.3,0,1.8,0.7,1.8,1.6v2.2c0,0.4,0,0.6,0.1,0.7h-0.8c0-0.1,0-0.3,0-0.6c-0.2,0.3-0.6,0.7-1.4,0.7
					c-0.9,0-1.4-0.6-1.4-1.3C13.7,117.1,14.3,116.6,15,116.5z M16.5,117.1v-0.2l-1.3,0.2c-0.4,0.1-0.6,0.3-0.6,0.6
					c0,0.3,0.3,0.6,0.7,0.6C16,118.4,16.5,118.1,16.5,117.1z"/>
				<path class="st2" d="M19.1,116.8c0,1,0.6,1.5,1.3,1.5c0.8,0,1.1-0.5,1.2-0.9l0.7,0.3c-0.2,0.6-0.8,1.4-2,1.4
					c-1.3,0-2.2-1-2.2-2.3c0-1.4,0.9-2.3,2.2-2.3c1.2,0,1.7,0.7,1.9,1.4l-0.8,0.3c-0.1-0.4-0.4-0.9-1.2-0.9
					C19.8,115.3,19.1,115.8,19.1,116.8z"/>
				<path class="st2" d="M23.8,112.4c0.3,0,0.6,0.3,0.6,0.6c0,0.3-0.3,0.6-0.6,0.6c-0.3,0-0.6-0.3-0.6-0.6
					C23.2,112.7,23.4,112.4,23.8,112.4z M23.4,119v-4.3h0.8v4.3H23.4z"/>
				<path class="st2" d="M26,117.6c0.1,0.5,0.4,0.8,1,0.8c0.5,0,0.7-0.3,0.7-0.6c0-0.3-0.2-0.5-0.6-0.6l-0.7-0.2
					c-0.7-0.1-1.1-0.6-1.1-1.2c0-0.7,0.7-1.4,1.5-1.4c1.2,0,1.6,0.8,1.6,1.2l-0.7,0.3c0-0.2-0.2-0.7-0.9-0.7c-0.4,0-0.7,0.3-0.7,0.6
					c0,0.3,0.2,0.5,0.5,0.5l0.7,0.2c0.8,0.2,1.2,0.6,1.2,1.3c0,0.6-0.5,1.3-1.6,1.3c-1.2,0-1.7-0.8-1.8-1.3L26,117.6z"/>
				<path class="st2" d="M29.6,119v-4.3h0.8v0.6c0.3-0.5,0.8-0.7,1.3-0.7c0.5,0,1.1,0.3,1.3,0.8c0.3-0.6,0.9-0.8,1.4-0.8
					c0.8,0,1.5,0.5,1.5,1.6v2.8h-0.8v-2.7c0-0.6-0.3-1-0.9-1c-0.6,0-1,0.5-1,1.1v2.6h-0.8v-2.7c0-0.6-0.3-1-0.9-1
					c-0.6,0-1,0.5-1,1.1v2.6H29.6z"/>
				<path class="st2" d="M37.9,117.8c0.4,0,0.7,0.3,0.7,0.9c0,1.2-0.8,1.7-1.3,1.8V120c0.4-0.1,0.7-0.5,0.7-1c0,0-0.1,0-0.2,0
					c-0.3,0-0.6-0.2-0.6-0.6C37.2,118.1,37.5,117.8,37.9,117.8z"/>
				<path class="st2" d="M42.5,112.4c0.3,0,0.6,0.3,0.6,0.6c0,0.3-0.3,0.6-0.6,0.6c-0.3,0-0.6-0.3-0.6-0.6
					C41.9,112.7,42.2,112.4,42.5,112.4z M42.1,119v-4.3h0.8v4.3H42.1z"/>
				<path class="st2" d="M47.4,118.3c-0.2,0.4-0.7,0.8-1.3,0.8c-1.3,0-2.1-1-2.1-2.3c0-1.2,0.8-2.3,2.1-2.3c0.8,0,1.2,0.4,1.3,0.7
					v-2.8h0.8v5.7c0,0.4,0,0.7,0,0.8h-0.8C47.4,118.9,47.4,118.7,47.4,118.3L47.4,118.3z M46.1,118.4c0.8,0,1.3-0.7,1.3-1.6
					c0-0.9-0.5-1.5-1.2-1.5c-0.8,0-1.3,0.6-1.3,1.5S45.3,118.4,46.1,118.4z"/>
				<path class="st2" d="M53.3,117.8c-0.2,0.8-0.9,1.4-1.9,1.4c-1.2,0-2.2-0.8-2.2-2.3c0-1.4,1-2.3,2.1-2.3c1.3,0,2.1,0.9,2.1,2.3
					c0,0.1,0,0.2,0,0.3h-3.3c0,0.8,0.6,1.3,1.3,1.3c0.7,0,1.1-0.4,1.2-0.9L53.3,117.8z M52.5,116.4c0-0.6-0.4-1.1-1.2-1.1
					c-0.7,0-1.1,0.5-1.2,1.1H52.5z"/>
				<path class="st2" d="M55.3,119h-0.8v-4.3h0.8v0.6c0.3-0.5,0.8-0.7,1.3-0.7c1,0,1.5,0.7,1.5,1.7v2.7h-0.8v-2.6
					c0-0.6-0.3-1.1-1-1.1c-0.7,0-1,0.5-1,1.2V119z"/>
				<path class="st2" d="M60.6,114.7h0.9v0.8h-0.9v2.3c0,0.4,0.2,0.6,0.6,0.6c0.1,0,0.3,0,0.3,0v0.7c-0.1,0-0.3,0.1-0.6,0.1
					c-0.7,0-1.2-0.5-1.2-1.2v-2.4h-0.8v-0.8h0.2c0.5,0,0.7-0.3,0.7-0.7v-0.7h0.8V114.7z"/>
				<path class="st2" d="M63,112.4c0.3,0,0.6,0.3,0.6,0.6c0,0.3-0.3,0.6-0.6,0.6c-0.3,0-0.6-0.3-0.6-0.6
					C62.4,112.7,62.6,112.4,63,112.4z M62.6,119v-4.3h0.8v4.3H62.6z"/>
				<path class="st2" d="M65.9,114.7h0.9v0.8h-0.9v2.3c0,0.4,0.2,0.6,0.6,0.6c0.1,0,0.3,0,0.3,0v0.7c-0.1,0-0.3,0.1-0.6,0.1
					c-0.7,0-1.2-0.5-1.2-1.2v-2.4h-0.8v-0.8h0.2c0.5,0,0.7-0.3,0.7-0.7v-0.7h0.8V114.7z"/>
				<path class="st2" d="M68.1,120.8l1.1-2.3l-1.9-3.9h1l1.4,3l1.3-3h0.9l-2.8,6.1H68.1z"/>
				<path class="st2" d="M75.9,116.5l1.2-0.2c0.3,0,0.3-0.2,0.3-0.3c0-0.4-0.3-0.8-0.9-0.8c-0.6,0-0.9,0.4-1,0.9l-0.8-0.2
					c0.1-0.8,0.8-1.4,1.8-1.4c1.3,0,1.8,0.7,1.8,1.6v2.2c0,0.4,0,0.6,0.1,0.7h-0.8c0-0.1,0-0.3,0-0.6c-0.2,0.3-0.6,0.7-1.4,0.7
					c-0.9,0-1.4-0.6-1.4-1.3C74.6,117.1,75.2,116.6,75.9,116.5z M77.4,117.1v-0.2l-1.3,0.2c-0.4,0.1-0.6,0.3-0.6,0.6
					c0,0.3,0.3,0.6,0.7,0.6C76.9,118.4,77.4,118.1,77.4,117.1z"/>
				<path class="st2" d="M80.4,119h-0.8v-4.3h0.8v0.6c0.3-0.5,0.8-0.7,1.3-0.7c1,0,1.5,0.7,1.5,1.7v2.7h-0.8v-2.6
					c0-0.6-0.3-1.1-1-1.1c-0.7,0-1,0.5-1,1.2V119z"/>
				<path class="st2" d="M87.6,118.3c-0.2,0.4-0.7,0.8-1.3,0.8c-1.3,0-2.1-1-2.1-2.3c0-1.2,0.8-2.3,2.1-2.3c0.8,0,1.2,0.4,1.3,0.7
					v-2.8h0.8v5.7c0,0.4,0,0.7,0,0.8h-0.8C87.6,118.9,87.6,118.7,87.6,118.3L87.6,118.3z M86.3,118.4c0.8,0,1.3-0.7,1.3-1.6
					c0-0.9-0.5-1.5-1.2-1.5c-0.8,0-1.3,0.6-1.3,1.5S85.5,118.4,86.3,118.4z"/>
				<path class="st2" d="M93.1,115.4v3.6h-0.9v-3.6h-0.8v-0.8h0.8v-0.7c0-1,0.6-1.5,1.4-1.5c0.3,0,0.5,0.1,0.5,0.1v0.8
					c0,0-0.2-0.1-0.4-0.1c-0.3,0-0.7,0.1-0.7,0.7v0.7h1v0.8H93.1z"/>
				<path class="st2" d="M95.9,116.5l1.2-0.2c0.3,0,0.3-0.2,0.3-0.3c0-0.4-0.3-0.8-0.9-0.8c-0.6,0-0.9,0.4-1,0.9l-0.8-0.2
					c0.1-0.8,0.8-1.4,1.8-1.4c1.3,0,1.8,0.7,1.8,1.6v2.2c0,0.4,0,0.6,0.1,0.7h-0.8c0-0.1,0-0.3,0-0.6c-0.2,0.3-0.6,0.7-1.4,0.7
					c-0.9,0-1.4-0.6-1.4-1.3C94.6,117.1,95.2,116.6,95.9,116.5z M97.4,117.1v-0.2l-1.3,0.2c-0.4,0.1-0.6,0.3-0.6,0.6
					c0,0.3,0.3,0.6,0.7,0.6C96.9,118.4,97.4,118.1,97.4,117.1z"/>
				<path class="st2" d="M99.6,119v-4.3h0.8v0.6c0.3-0.5,0.8-0.7,1.3-0.7c0.5,0,1.1,0.3,1.3,0.8c0.3-0.6,0.9-0.8,1.5-0.8
					c0.8,0,1.5,0.5,1.5,1.6v2.8h-0.8v-2.7c0-0.6-0.3-1-0.9-1c-0.6,0-1,0.5-1,1.1v2.6h-0.8v-2.7c0-0.6-0.3-1-0.9-1
					c-0.6,0-1,0.5-1,1.1v2.6H99.6z"/>
				<path class="st2" d="M107.6,112.4c0.3,0,0.6,0.3,0.6,0.6c0,0.3-0.3,0.6-0.6,0.6c-0.3,0-0.6-0.3-0.6-0.6
					C107,112.7,107.3,112.4,107.6,112.4z M107.2,119v-4.3h0.8v4.3H107.2z"/>
				<path class="st2" d="M109.5,119v-6.5h0.8v6.5H109.5z"/>
				<path class="st2" d="M111.9,120.8l1.1-2.3l-1.9-3.9h1l1.3,3l1.3-3h0.9l-2.8,6.1H111.9z"/>
				<path class="st2" d="M115.9,117.8c0.4,0,0.6,0.3,0.6,0.6s-0.3,0.6-0.6,0.6s-0.6-0.3-0.6-0.6S115.6,117.8,115.9,117.8z"/>
			</g>
			<g class="st1">
				<path class="st2" d="M12.9,134.6c1.2,0,1.9,0.7,1.9,1.7c0,0.7-0.4,1.2-1,1.4c0.7,0.2,1.2,0.8,1.2,1.5c0,1-0.8,1.7-2,1.7h-2.2
					v-6.4H12.9z M12.8,137.4c0.7,0,1.1-0.4,1.1-1c0-0.6-0.4-1-1.2-1h-1.1v2H12.8z M12.9,140.2c0.7,0,1.2-0.4,1.2-1
					c0-0.6-0.4-1-1.2-1h-1.3v2.1H12.9z"/>
				<path class="st2" d="M19.9,139.8c-0.2,0.8-0.9,1.4-1.9,1.4c-1.2,0-2.2-0.8-2.2-2.3c0-1.4,1-2.3,2.1-2.3c1.3,0,2.1,0.9,2.1,2.3
					c0,0.1,0,0.2,0,0.3h-3.3c0,0.8,0.6,1.3,1.3,1.3c0.7,0,1.1-0.4,1.2-0.9L19.9,139.8z M19.1,138.4c0-0.6-0.4-1.1-1.2-1.1
					c-0.7,0-1.1,0.5-1.2,1.1H19.1z"/>
				<path class="st2" d="M22.1,137.4v3.6h-0.9v-3.6h-0.8v-0.8h0.8v-0.7c0-1,0.6-1.5,1.4-1.5c0.3,0,0.5,0.1,0.5,0.1v0.8
					c0,0-0.2-0.1-0.4-0.1c-0.3,0-0.7,0.1-0.7,0.7v0.7h1v0.8H22.1z"/>
				<path class="st2" d="M27.9,138.8c0,1.3-0.9,2.3-2.2,2.3s-2.2-1-2.2-2.3c0-1.3,0.9-2.3,2.2-2.3S27.9,137.5,27.9,138.8z M27,138.8
					c0-1-0.6-1.5-1.4-1.5s-1.4,0.5-1.4,1.5c0,1,0.6,1.5,1.4,1.5S27,139.8,27,138.8z"/>
				<path class="st2" d="M31.3,137.5c-0.1,0-0.3,0-0.4,0c-0.7,0-1.2,0.4-1.2,1.3v2.2h-0.8v-4.3h0.8v0.8c0.3-0.7,0.9-0.8,1.3-0.8
					c0.1,0,0.2,0,0.3,0V137.5z"/>
				<path class="st2" d="M35.9,139.8c-0.2,0.8-0.9,1.4-1.9,1.4c-1.2,0-2.2-0.8-2.2-2.3c0-1.4,1-2.3,2.1-2.3c1.3,0,2.1,0.9,2.1,2.3
					c0,0.1,0,0.2,0,0.3h-3.3c0,0.8,0.6,1.3,1.3,1.3c0.7,0,1.1-0.4,1.2-0.9L35.9,139.8z M35.1,138.4c0-0.6-0.4-1.1-1.2-1.1
					c-0.7,0-1.1,0.5-1.2,1.1H35.1z"/>
				<path class="st2" d="M39.2,141v-6.5H40v2.8c0.2-0.4,0.7-0.7,1.4-0.7c1.3,0,2,1,2,2.3c0,1.3-0.7,2.3-2,2.3
					c-0.6,0-1.1-0.3-1.4-0.7v0.6H39.2z M41.3,137.3c-0.7,0-1.3,0.6-1.3,1.5s0.5,1.5,1.3,1.5c0.8,0,1.3-0.6,1.3-1.5
					S42.1,137.3,41.3,137.3z"/>
				<path class="st2" d="M48.3,139.8c-0.2,0.8-0.9,1.4-1.9,1.4c-1.2,0-2.2-0.8-2.2-2.3c0-1.4,1-2.3,2.1-2.3c1.3,0,2.1,0.9,2.1,2.3
					c0,0.1,0,0.2,0,0.3H45c0,0.8,0.6,1.3,1.3,1.3c0.7,0,1.1-0.4,1.2-0.9L48.3,139.8z M47.4,138.4c0-0.6-0.4-1.1-1.2-1.1
					c-0.7,0-1.1,0.5-1.2,1.1H47.4z"/>
				<path class="st2" d="M49.8,138.8c0,1,0.6,1.5,1.3,1.5c0.8,0,1.1-0.5,1.2-0.9l0.7,0.3c-0.2,0.6-0.8,1.4-2,1.4
					c-1.3,0-2.2-1-2.2-2.3c0-1.4,0.9-2.3,2.2-2.3c1.2,0,1.7,0.7,1.9,1.4l-0.8,0.3c-0.1-0.4-0.4-0.9-1.2-0.9
					C50.4,137.3,49.8,137.8,49.8,138.8z"/>
				<path class="st2" d="M58.1,138.8c0,1.3-0.9,2.3-2.2,2.3s-2.2-1-2.2-2.3c0-1.3,0.9-2.3,2.2-2.3S58.1,137.5,58.1,138.8z
					 M57.2,138.8c0-1-0.6-1.5-1.4-1.5s-1.4,0.5-1.4,1.5c0,1,0.6,1.5,1.4,1.5S57.2,139.8,57.2,138.8z"/>
				<path class="st2" d="M59.1,141v-4.3h0.8v0.6c0.3-0.5,0.8-0.7,1.3-0.7c0.5,0,1.1,0.3,1.3,0.8c0.3-0.6,0.9-0.8,1.4-0.8
					c0.8,0,1.5,0.5,1.5,1.6v2.8h-0.8v-2.7c0-0.6-0.3-1-0.9-1c-0.6,0-1,0.5-1,1.1v2.6h-0.8v-2.7c0-0.6-0.3-1-0.9-1
					c-0.6,0-1,0.5-1,1.1v2.6H59.1z"/>
				<path class="st2" d="M67.2,134.4c0.3,0,0.6,0.3,0.6,0.6c0,0.3-0.3,0.6-0.6,0.6c-0.3,0-0.6-0.3-0.6-0.6
					C66.6,134.7,66.8,134.4,67.2,134.4z M66.8,141v-4.3h0.8v4.3H66.8z"/>
				<path class="st2" d="M69.8,141H69v-4.3h0.8v0.6c0.3-0.5,0.8-0.7,1.3-0.7c1,0,1.5,0.7,1.5,1.7v2.7h-0.8v-2.6c0-0.6-0.3-1.1-1-1.1
					c-0.7,0-1,0.5-1,1.2V141z"/>
				<path class="st2" d="M74.5,141c0.1,0.6,0.5,1.1,1.2,1.1c0.9,0,1.3-0.5,1.3-1.4v-0.6c-0.2,0.4-0.7,0.7-1.3,0.7
					c-1.2,0-2-0.9-2-2.1c0-1.2,0.8-2.1,2-2.1c0.7,0,1.1,0.3,1.3,0.7v-0.6h0.8v4c0,1.1-0.5,2.2-2.2,2.2c-1.1,0-1.9-0.7-2-1.6
					L74.5,141z M77.1,138.7c0-0.8-0.5-1.4-1.2-1.4c-0.7,0-1.3,0.5-1.3,1.4c0,0.8,0.5,1.4,1.3,1.4C76.5,140.1,77.1,139.5,77.1,138.7z
					"/>
				<path class="st2" d="M82.4,138.5l1.2-0.2c0.3,0,0.3-0.2,0.3-0.3c0-0.4-0.3-0.8-0.9-0.8c-0.6,0-0.9,0.4-1,0.9l-0.8-0.2
					c0.1-0.8,0.8-1.4,1.8-1.4c1.3,0,1.8,0.7,1.8,1.6v2.2c0,0.4,0,0.6,0.1,0.7H84c0-0.1,0-0.3,0-0.6c-0.2,0.3-0.6,0.7-1.4,0.7
					c-0.9,0-1.4-0.6-1.4-1.3C81.1,139.1,81.7,138.6,82.4,138.5z M83.9,139.1v-0.2l-1.3,0.2c-0.4,0.1-0.6,0.3-0.6,0.6
					c0,0.3,0.3,0.6,0.7,0.6C83.4,140.4,83.9,140.1,83.9,139.1z"/>
				<path class="st2" d="M89.4,137.4v3.6h-0.9v-3.6h-0.8v-0.8h0.8v-0.7c0-1,0.6-1.5,1.4-1.5c0.3,0,0.5,0.1,0.5,0.1v0.8
					c0,0-0.2-0.1-0.4-0.1c-0.3,0-0.7,0.1-0.7,0.7v0.7h1v0.8H89.4z"/>
				<path class="st2" d="M92.2,138.5l1.2-0.2c0.3,0,0.3-0.2,0.3-0.3c0-0.4-0.3-0.8-0.9-0.8c-0.6,0-0.9,0.4-1,0.9l-0.8-0.2
					c0.1-0.8,0.8-1.4,1.8-1.4c1.3,0,1.8,0.7,1.8,1.6v2.2c0,0.4,0,0.6,0.1,0.7h-0.8c0-0.1,0-0.3,0-0.6c-0.2,0.3-0.6,0.7-1.4,0.7
					c-0.9,0-1.4-0.6-1.4-1.3C90.9,139.1,91.4,138.6,92.2,138.5z M93.7,139.1v-0.2l-1.3,0.2c-0.4,0.1-0.6,0.3-0.6,0.6
					c0,0.3,0.3,0.6,0.7,0.6C93.1,140.4,93.7,140.1,93.7,139.1z"/>
				<path class="st2" d="M95.8,141v-4.3h0.8v0.6c0.3-0.5,0.8-0.7,1.3-0.7c0.5,0,1.1,0.3,1.3,0.8c0.3-0.6,0.9-0.8,1.4-0.8
					c0.8,0,1.5,0.5,1.5,1.6v2.8h-0.8v-2.7c0-0.6-0.3-1-0.9-1c-0.6,0-1,0.5-1,1.1v2.6h-0.8v-2.7c0-0.6-0.3-1-0.9-1
					c-0.6,0-1,0.5-1,1.1v2.6H95.8z"/>
				<path class="st2" d="M107.5,138.8c0,1.3-0.9,2.3-2.2,2.3c-1.3,0-2.2-1-2.2-2.3c0-1.3,0.9-2.3,2.2-2.3
					C106.6,136.5,107.5,137.5,107.5,138.8z M106.7,138.8c0-1-0.6-1.5-1.3-1.5c-0.7,0-1.4,0.5-1.4,1.5c0,1,0.6,1.5,1.4,1.5
					C106,140.4,106.7,139.8,106.7,138.8z"/>
				<path class="st2" d="M110.1,141.1c-1,0-1.6-0.8-1.6-1.7v-2.7h0.8v2.6c0,0.6,0.3,1.1,1,1.1c0.7,0,1-0.5,1-1.1v-2.6h0.8v3.5
					c0,0.3,0,0.6,0,0.8h-0.8c0-0.1,0-0.3,0-0.5C111.2,140.9,110.6,141.1,110.1,141.1z"/>
				<path class="st2" d="M113.9,139.6c0.1,0.5,0.4,0.8,1,0.8c0.5,0,0.7-0.3,0.7-0.6c0-0.3-0.2-0.5-0.6-0.6l-0.7-0.2
					c-0.7-0.1-1.1-0.6-1.1-1.2c0-0.7,0.7-1.4,1.5-1.4c1.2,0,1.6,0.8,1.6,1.2l-0.7,0.3c0-0.2-0.2-0.7-0.9-0.7c-0.4,0-0.7,0.3-0.7,0.6
					c0,0.3,0.2,0.5,0.5,0.5l0.7,0.2c0.8,0.2,1.2,0.6,1.2,1.3c0,0.6-0.5,1.3-1.6,1.3c-1.2,0-1.7-0.8-1.8-1.3L113.9,139.6z"/>
				<path class="st2" d="M119.8,142.7v-6h0.8v0.7c0.2-0.4,0.7-0.8,1.4-0.8c1.3,0,2,1,2,2.3c0,1.3-0.7,2.3-2,2.3
					c-0.7,0-1.2-0.3-1.4-0.7v2.3H119.8z M121.9,137.3c-0.8,0-1.3,0.6-1.3,1.5c0,0.9,0.5,1.5,1.3,1.5c0.8,0,1.3-0.6,1.3-1.5
					C123.2,138,122.7,137.3,121.9,137.3z"/>
				<path class="st2" d="M129.2,138.8c0,1.3-0.9,2.3-2.2,2.3c-1.3,0-2.2-1-2.2-2.3c0-1.3,0.9-2.3,2.2-2.3
					C128.3,136.5,129.2,137.5,129.2,138.8z M128.3,138.8c0-1-0.6-1.5-1.3-1.5c-0.7,0-1.4,0.5-1.4,1.5c0,1,0.6,1.5,1.4,1.5
					C127.7,140.4,128.3,139.8,128.3,138.8z"/>
				<path class="st2" d="M134,139.8c-0.2,0.8-0.9,1.4-1.9,1.4c-1.2,0-2.2-0.8-2.2-2.3c0-1.4,1-2.3,2.1-2.3c1.3,0,2.1,0.9,2.1,2.3
					c0,0.1,0,0.2,0,0.3h-3.3c0,0.8,0.6,1.3,1.3,1.3c0.7,0,1.1-0.4,1.2-0.9L134,139.8z M133.1,138.4c0-0.6-0.4-1.1-1.2-1.1
					c-0.7,0-1.1,0.5-1.2,1.1H133.1z"/>
				<path class="st2" d="M136.2,136.7h0.9v0.8h-0.9v2.3c0,0.4,0.2,0.6,0.6,0.6c0.1,0,0.3,0,0.3,0v0.7c-0.1,0-0.3,0.1-0.6,0.1
					c-0.7,0-1.2-0.5-1.2-1.2v-2.4h-0.8v-0.8h0.2c0.5,0,0.7-0.3,0.7-0.7v-0.7h0.8V136.7z"/>
				<path class="st2" d="M138.8,139.8c0.4,0,0.7,0.3,0.7,0.9c0,1.2-0.8,1.7-1.3,1.8V142c0.4-0.1,0.7-0.5,0.7-1c0,0-0.1,0-0.2,0
					c-0.3,0-0.6-0.2-0.6-0.6C138.1,140.1,138.4,139.8,138.8,139.8z"/>
				<path class="st2" d="M149.1,141v-5l-2.2,5h-0.8l-2.2-5v5h-0.9v-6.4h1.2l2.2,5.2l2.3-5.2h1.2v6.4H149.1z"/>
				<path class="st2" d="M152.5,138.5l1.2-0.2c0.3,0,0.3-0.2,0.3-0.3c0-0.4-0.3-0.8-0.9-0.8c-0.6,0-0.9,0.4-1,0.9l-0.8-0.2
					c0.1-0.8,0.8-1.4,1.8-1.4c1.3,0,1.8,0.7,1.8,1.6v2.2c0,0.4,0,0.6,0.1,0.7H154c0-0.1,0-0.3,0-0.6c-0.2,0.3-0.6,0.7-1.4,0.7
					c-0.9,0-1.4-0.6-1.4-1.3C151.1,139.1,151.7,138.6,152.5,138.5z M154,139.1v-0.2l-1.3,0.2c-0.4,0.1-0.6,0.3-0.6,0.6
					c0,0.3,0.3,0.6,0.7,0.6C153.4,140.4,154,140.1,154,139.1z"/>
				<path class="st2" d="M156.1,142.8l1.1-2.3l-1.9-3.9h1l1.3,3l1.3-3h0.9l-2.8,6.1H156.1z"/>
				<path class="st2" d="M161.6,138.5l1.2-0.2c0.3,0,0.3-0.2,0.3-0.3c0-0.4-0.3-0.8-0.9-0.8c-0.6,0-0.9,0.4-1,0.9l-0.8-0.2
					c0.1-0.8,0.8-1.4,1.8-1.4c1.3,0,1.8,0.7,1.8,1.6v2.2c0,0.4,0,0.6,0.1,0.7h-0.8c0-0.1,0-0.3,0-0.6c-0.2,0.3-0.6,0.7-1.4,0.7
					c-0.9,0-1.4-0.6-1.4-1.3C160.2,139.1,160.8,138.6,161.6,138.5z M163.1,139.1v-0.2l-1.3,0.2c-0.4,0.1-0.6,0.3-0.6,0.6
					c0,0.3,0.3,0.6,0.7,0.6C162.5,140.4,163.1,140.1,163.1,139.1z"/>
			</g>
			<g class="st1">
				<path class="st2" d="M14,147.7l1.1,3.3l1-3.3H17l-1.4,4.3h-0.9l-1.2-3.3l-1.1,3.3h-0.9l-1.4-4.3h0.9l1,3.3l1.1-3.3H14z"/>
				<path class="st2" d="M18.8,149.5l1.2-0.2c0.3,0,0.3-0.2,0.3-0.3c0-0.4-0.3-0.8-0.9-0.8c-0.6,0-0.9,0.4-1,0.9l-0.8-0.2
					c0.1-0.8,0.8-1.4,1.8-1.4c1.3,0,1.8,0.7,1.8,1.6v2.2c0,0.4,0,0.6,0.1,0.7h-0.8c0-0.1,0-0.3,0-0.6c-0.2,0.3-0.6,0.7-1.4,0.7
					c-0.9,0-1.4-0.6-1.4-1.3C17.5,150.1,18.1,149.6,18.8,149.5z M20.3,150.1v-0.2l-1.3,0.2c-0.4,0.1-0.6,0.3-0.6,0.6
					c0,0.3,0.3,0.6,0.7,0.6C19.8,151.4,20.3,151.1,20.3,150.1z"/>
				<path class="st2" d="M22.8,150.6c0.1,0.5,0.4,0.8,1,0.8c0.5,0,0.7-0.3,0.7-0.6c0-0.3-0.2-0.5-0.6-0.6l-0.7-0.2
					c-0.7-0.1-1.1-0.6-1.1-1.2c0-0.7,0.7-1.4,1.5-1.4c1.2,0,1.6,0.8,1.6,1.2l-0.7,0.3c0-0.2-0.2-0.7-0.9-0.7c-0.4,0-0.7,0.3-0.7,0.6
					c0,0.3,0.2,0.5,0.5,0.5l0.7,0.2c0.8,0.2,1.2,0.6,1.2,1.3c0,0.6-0.5,1.3-1.6,1.3c-1.2,0-1.7-0.8-1.8-1.3L22.8,150.6z"/>
				<path class="st2" d="M29.7,149.5l1.2-0.2c0.3,0,0.3-0.2,0.3-0.3c0-0.4-0.3-0.8-0.9-0.8c-0.6,0-0.9,0.4-1,0.9l-0.8-0.2
					c0.1-0.8,0.8-1.4,1.8-1.4c1.3,0,1.8,0.7,1.8,1.6v2.2c0,0.4,0,0.6,0.1,0.7h-0.8c0-0.1,0-0.3,0-0.6c-0.2,0.3-0.6,0.7-1.4,0.7
					c-0.9,0-1.4-0.6-1.4-1.3C28.4,150.1,29,149.6,29.7,149.5z M31.2,150.1v-0.2l-1.3,0.2c-0.4,0.1-0.6,0.3-0.6,0.6
					c0,0.3,0.3,0.6,0.7,0.6C30.6,151.4,31.2,151.1,31.2,150.1z"/>
				<path class="st2" d="M36.7,148.4v3.6h-0.9v-3.6H35v-0.8h0.8v-0.7c0-1,0.6-1.5,1.4-1.5c0.3,0,0.5,0.1,0.5,0.1v0.8
					c0,0-0.2-0.1-0.4-0.1c-0.3,0-0.7,0.1-0.7,0.7v0.7h1v0.8H36.7z"/>
				<path class="st2" d="M41,148.5c-0.1,0-0.3,0-0.4,0c-0.7,0-1.2,0.4-1.2,1.3v2.2h-0.8v-4.3h0.8v0.8c0.3-0.7,0.9-0.8,1.3-0.8
					c0.1,0,0.2,0,0.3,0V148.5z"/>
				<path class="st2" d="M42.1,153.8l1.1-2.3l-1.9-3.9h1l1.4,3l1.3-3h0.9l-2.8,6.1H42.1z"/>
				<path class="st2" d="M49.3,149.8c0,1,0.6,1.5,1.3,1.5c0.8,0,1.1-0.5,1.2-0.9l0.7,0.3c-0.2,0.6-0.8,1.4-2,1.4
					c-1.3,0-2.2-1-2.2-2.3c0-1.4,0.9-2.3,2.2-2.3c1.2,0,1.7,0.7,1.9,1.4l-0.8,0.3c-0.1-0.4-0.4-0.9-1.2-0.9
					C50,148.3,49.3,148.8,49.3,149.8z"/>
				<path class="st2" d="M57.6,149.8c0,1.3-0.9,2.3-2.2,2.3s-2.2-1-2.2-2.3c0-1.3,0.9-2.3,2.2-2.3S57.6,148.5,57.6,149.8z
					 M56.7,149.8c0-1-0.6-1.5-1.4-1.5s-1.4,0.5-1.4,1.5c0,1,0.6,1.5,1.4,1.5S56.7,150.8,56.7,149.8z"/>
				<path class="st2" d="M62.7,149.8c0,1.3-0.9,2.3-2.2,2.3s-2.2-1-2.2-2.3c0-1.3,0.9-2.3,2.2-2.3S62.7,148.5,62.7,149.8z
					 M61.8,149.8c0-1-0.6-1.5-1.4-1.5s-1.4,0.5-1.4,1.5c0,1,0.6,1.5,1.4,1.5S61.8,150.8,61.8,149.8z"/>
				<path class="st2" d="M65.7,149.5l1.9,2.5h-1.1l-1.4-1.9l-0.6,0.6v1.3h-0.8v-6.5h0.8v4.1l1.9-1.9h1.2L65.7,149.5z"/>
				<path class="st2" d="M69,150.8c0.4,0,0.7,0.3,0.7,0.9c0,1.2-0.8,1.7-1.3,1.8V153c0.4-0.1,0.7-0.5,0.7-1c0,0-0.1,0-0.2,0
					c-0.3,0-0.6-0.2-0.6-0.6C68.3,151.1,68.6,150.8,69,150.8z"/>
				<path class="st2" d="M73.6,150.6c0.1,0.5,0.4,0.8,1,0.8c0.5,0,0.7-0.3,0.7-0.6c0-0.3-0.2-0.5-0.6-0.6l-0.7-0.2
					c-0.7-0.1-1.1-0.6-1.1-1.2c0-0.7,0.7-1.4,1.5-1.4c1.2,0,1.6,0.8,1.6,1.2l-0.7,0.3c0-0.2-0.2-0.7-0.9-0.7c-0.4,0-0.7,0.3-0.7,0.6
					c0,0.3,0.2,0.5,0.5,0.5l0.7,0.2c0.8,0.2,1.2,0.6,1.2,1.3c0,0.6-0.5,1.3-1.6,1.3c-1.2,0-1.7-0.8-1.8-1.3L73.6,150.6z"/>
				<path class="st2" d="M80.9,150.8c-0.2,0.8-0.9,1.4-1.9,1.4c-1.2,0-2.2-0.8-2.2-2.3c0-1.4,1-2.3,2.1-2.3c1.3,0,2.1,0.9,2.1,2.3
					c0,0.1,0,0.2,0,0.3h-3.3c0,0.8,0.6,1.3,1.3,1.3c0.7,0,1.1-0.4,1.2-0.9L80.9,150.8z M80.1,149.4c0-0.6-0.4-1.1-1.2-1.1
					c-0.7,0-1.1,0.5-1.2,1.1H80.1z"/>
				<path class="st2" d="M82.9,149.8l-1.6-2.1h1l1.1,1.5l1-1.5h1l-1.5,2.1c0.3,0.4,1.3,1.9,1.6,2.2h-1l-1.1-1.6l-1.1,1.6h-1
					L82.9,149.8z"/>
				<path class="st2" d="M91.9,147.7l1.1,3.3l1-3.3h0.9l-1.4,4.3h-0.9l-1.2-3.3l-1.1,3.3h-0.9l-1.4-4.3h0.9l1,3.3l1.1-3.3H91.9z"/>
				<path class="st2" d="M99.6,149.8c0,1.3-0.9,2.3-2.2,2.3s-2.2-1-2.2-2.3c0-1.3,0.9-2.3,2.2-2.3S99.6,148.5,99.6,149.8z
					 M98.8,149.8c0-1-0.6-1.5-1.4-1.5s-1.4,0.5-1.4,1.5c0,1,0.6,1.5,1.4,1.5S98.8,150.8,98.8,149.8z"/>
				<path class="st2" d="M103.1,148.5c-0.1,0-0.3,0-0.4,0c-0.7,0-1.2,0.4-1.2,1.3v2.2h-0.8v-4.3h0.8v0.8c0.3-0.7,0.9-0.8,1.3-0.8
					c0.1,0,0.2,0,0.3,0V148.5z"/>
				<path class="st2" d="M105.9,149.5l1.9,2.5h-1.1l-1.4-1.9l-0.6,0.6v1.3h-0.8v-6.5h0.8v4.1l1.9-1.9h1.2L105.9,149.5z"/>
				<path class="st2" d="M112.1,150.8c-0.2,0.8-0.9,1.4-1.9,1.4c-1.2,0-2.2-0.8-2.2-2.3c0-1.4,1-2.3,2.1-2.3c1.3,0,2.1,0.9,2.1,2.3
					c0,0.1,0,0.2,0,0.3h-3.3c0,0.8,0.6,1.3,1.3,1.3c0.7,0,1.1-0.4,1.2-0.9L112.1,150.8z M111.3,149.4c0-0.6-0.4-1.1-1.2-1.1
					c-0.7,0-1.1,0.5-1.2,1.1H111.3z"/>
				<path class="st2" d="M115.6,148.5c-0.1,0-0.3,0-0.4,0c-0.7,0-1.2,0.4-1.2,1.3v2.2h-0.8v-4.3h0.8v0.8c0.3-0.7,0.9-0.8,1.3-0.8
					c0.1,0,0.2,0,0.3,0V148.5z"/>
				<path class="st2" d="M116.2,150.8c0.4,0,0.7,0.3,0.7,0.9c0,1.2-0.8,1.7-1.3,1.8V153c0.4-0.1,0.7-0.5,0.7-1c0,0-0.1,0-0.2,0
					c-0.3,0-0.6-0.2-0.6-0.6C115.6,151.1,115.8,150.8,116.2,150.8z"/>
				<path class="st2" d="M121.5,149.5l1.2-0.2c0.3,0,0.3-0.2,0.3-0.3c0-0.4-0.3-0.8-0.9-0.8c-0.6,0-0.9,0.4-1,0.9l-0.8-0.2
					c0.1-0.8,0.8-1.4,1.8-1.4c1.3,0,1.8,0.7,1.8,1.6v2.2c0,0.4,0,0.6,0.1,0.7h-0.8c0-0.1,0-0.3,0-0.6c-0.2,0.3-0.6,0.7-1.4,0.7
					c-0.9,0-1.4-0.6-1.4-1.3C120.2,150.1,120.7,149.6,121.5,149.5z M123,150.1v-0.2l-1.3,0.2c-0.4,0.1-0.6,0.3-0.6,0.6
					c0,0.3,0.3,0.6,0.7,0.6C122.4,151.4,123,151.1,123,150.1z"/>
				<path class="st2" d="M126,152h-0.8v-4.3h0.8v0.6c0.3-0.5,0.8-0.7,1.3-0.7c1,0,1.5,0.7,1.5,1.7v2.7H128v-2.6c0-0.6-0.3-1.1-1-1.1
					c-0.7,0-1,0.5-1,1.2V152z"/>
				<path class="st2" d="M133.2,151.3c-0.2,0.4-0.7,0.8-1.3,0.8c-1.3,0-2.1-1-2.1-2.3c0-1.2,0.8-2.3,2.1-2.3c0.8,0,1.2,0.4,1.3,0.7
					v-2.8h0.8v5.7c0,0.4,0,0.7,0,0.8h-0.8C133.2,151.9,133.2,151.7,133.2,151.3L133.2,151.3z M131.9,151.4c0.8,0,1.3-0.7,1.3-1.6
					c0-0.9-0.5-1.5-1.2-1.5s-1.3,0.6-1.3,1.5S131.1,151.4,131.9,151.4z"/>
				<path class="st2" d="M138.4,152h-0.8v-4.3h0.8v0.6c0.3-0.5,0.8-0.7,1.3-0.7c1,0,1.5,0.7,1.5,1.7v2.7h-0.8v-2.6
					c0-0.6-0.3-1.1-1-1.1c-0.7,0-1,0.5-1,1.2V152z"/>
				<path class="st2" d="M143,145.4c0.3,0,0.6,0.3,0.6,0.6c0,0.3-0.3,0.6-0.6,0.6c-0.3,0-0.6-0.3-0.6-0.6
					C142.4,145.7,142.7,145.4,143,145.4z M142.6,152v-4.3h0.8v4.3H142.6z"/>
				<path class="st2" d="M145.3,152c0.1,0.6,0.5,1.1,1.2,1.1c0.9,0,1.3-0.5,1.3-1.4v-0.6c-0.2,0.4-0.7,0.7-1.3,0.7
					c-1.2,0-2-0.9-2-2.1c0-1.2,0.8-2.1,2-2.1c0.7,0,1.1,0.3,1.3,0.7v-0.6h0.8v4c0,1.1-0.5,2.2-2.2,2.2c-1.1,0-1.9-0.7-2-1.6
					L145.3,152z M147.9,149.7c0-0.8-0.5-1.4-1.2-1.4c-0.7,0-1.3,0.5-1.3,1.4c0,0.8,0.5,1.4,1.3,1.4
					C147.4,151.1,147.9,150.5,147.9,149.7z"/>
				<path class="st2" d="M150.8,152H150v-6.5h0.8v2.7c0.3-0.5,0.8-0.6,1.3-0.6c1,0,1.5,0.7,1.5,1.7v2.7h-0.8v-2.6
					c0-0.6-0.3-1.1-1-1.1c-0.6,0-1,0.5-1,1.1V152z"/>
				<path class="st2" d="M156.1,147.7h0.9v0.8h-0.9v2.3c0,0.4,0.2,0.6,0.6,0.6c0.1,0,0.3,0,0.3,0v0.7c-0.1,0-0.3,0.1-0.6,0.1
					c-0.7,0-1.2-0.5-1.2-1.2v-2.4h-0.8v-0.8h0.2c0.5,0,0.7-0.3,0.7-0.7v-0.7h0.8V147.7z"/>
				<path class="st2" d="M158.6,149.8c0,1,0.6,1.5,1.3,1.5c0.8,0,1.1-0.5,1.2-0.9l0.7,0.3c-0.2,0.6-0.8,1.4-2,1.4
					c-1.3,0-2.2-1-2.2-2.3c0-1.4,0.9-2.3,2.2-2.3c1.2,0,1.7,0.7,1.9,1.4l-0.8,0.3c-0.1-0.4-0.4-0.9-1.2-0.9
					C159.2,148.3,158.6,148.8,158.6,149.8z"/>
				<path class="st2" d="M162.8,152v-6.5h0.8v6.5H162.8z"/>
				<path class="st2" d="M166.6,152.1c-1,0-1.6-0.8-1.6-1.7v-2.7h0.8v2.6c0,0.6,0.3,1.1,1,1.1c0.7,0,1-0.5,1-1.1v-2.6h0.8v3.5
					c0,0.3,0,0.6,0,0.8h-0.8c0-0.1,0-0.3,0-0.5C167.6,151.9,167.1,152.1,166.6,152.1z"/>
				<path class="st2" d="M170.1,152v-6.5h0.8v2.8c0.2-0.4,0.7-0.7,1.4-0.7c1.3,0,2,1,2,2.3c0,1.3-0.7,2.3-2,2.3
					c-0.6,0-1.1-0.3-1.4-0.7v0.6H170.1z M172.2,148.3c-0.7,0-1.3,0.6-1.3,1.5s0.5,1.5,1.3,1.5c0.8,0,1.3-0.6,1.3-1.5
					S173,148.3,172.2,148.3z"/>
			</g>
			<g class="st1">
				<path class="st2" d="M13.8,162.3c-0.2,0.4-0.7,0.8-1.3,0.8c-1.3,0-2.1-1-2.1-2.3c0-1.2,0.8-2.3,2.1-2.3c0.8,0,1.2,0.4,1.3,0.7
					v-2.8h0.8v5.7c0,0.4,0,0.7,0,0.8h-0.8C13.8,162.9,13.8,162.7,13.8,162.3L13.8,162.3z M12.5,162.4c0.8,0,1.3-0.7,1.3-1.6
					c0-0.9-0.5-1.5-1.2-1.5c-0.8,0-1.3,0.6-1.3,1.5S11.7,162.4,12.5,162.4z"/>
				<path class="st2" d="M17,160.5l1.2-0.2c0.3,0,0.3-0.2,0.3-0.3c0-0.4-0.3-0.8-0.9-0.8c-0.6,0-0.9,0.4-1,0.9l-0.8-0.2
					c0.1-0.8,0.8-1.4,1.8-1.4c1.3,0,1.8,0.7,1.8,1.6v2.2c0,0.4,0,0.6,0.1,0.7h-0.8c0-0.1,0-0.3,0-0.6c-0.2,0.3-0.6,0.7-1.4,0.7
					c-0.9,0-1.4-0.6-1.4-1.3C15.7,161.1,16.3,160.6,17,160.5z M18.5,161.1v-0.2l-1.3,0.2c-0.4,0.1-0.6,0.3-0.6,0.6
					c0,0.3,0.3,0.6,0.7,0.6C18,162.4,18.5,162.1,18.5,161.1z"/>
				<path class="st2" d="M21.5,163h-0.8v-4.3h0.8v0.6c0.3-0.5,0.8-0.7,1.3-0.7c1,0,1.5,0.7,1.5,1.7v2.7h-0.8v-2.6
					c0-0.6-0.3-1.1-1-1.1c-0.7,0-1,0.5-1,1.2V163z"/>
				<path class="st2" d="M26.1,160.8c0,1,0.6,1.5,1.3,1.5c0.8,0,1.1-0.5,1.2-0.9l0.7,0.3c-0.2,0.6-0.8,1.4-2,1.4
					c-1.3,0-2.2-1-2.2-2.3c0-1.4,0.9-2.3,2.2-2.3c1.2,0,1.7,0.7,1.9,1.4l-0.8,0.3c-0.1-0.4-0.4-0.9-1.2-0.9
					C26.8,159.3,26.1,159.8,26.1,160.8z"/>
				<path class="st2" d="M34.1,161.8c-0.2,0.8-0.9,1.4-1.9,1.4c-1.2,0-2.2-0.8-2.2-2.3c0-1.4,1-2.3,2.1-2.3c1.3,0,2.1,0.9,2.1,2.3
					c0,0.1,0,0.2,0,0.3h-3.3c0,0.8,0.6,1.3,1.3,1.3c0.7,0,1.1-0.4,1.2-0.9L34.1,161.8z M33.2,160.4c0-0.6-0.4-1.1-1.2-1.1
					c-0.7,0-1.1,0.5-1.2,1.1H33.2z"/>
				<path class="st2" d="M37.6,159.5c-0.1,0-0.3,0-0.4,0c-0.7,0-1.2,0.4-1.2,1.3v2.2h-0.8v-4.3H36v0.8c0.3-0.7,0.9-0.8,1.3-0.8
					c0.1,0,0.2,0,0.3,0V159.5z"/>
				<path class="st2" d="M38.1,161.8c0.4,0,0.6,0.3,0.6,0.6s-0.3,0.6-0.6,0.6s-0.6-0.3-0.6-0.6S37.8,161.8,38.1,161.8z"/>
				<path class="st2" d="M45.6,158.3c-0.1-0.5-0.5-1.1-1.4-1.1c-0.7,0-1.2,0.5-1.2,1.1c0,0.5,0.3,0.8,0.8,0.9l1,0.2
					c1.1,0.2,1.7,0.9,1.7,1.8c0,1-0.8,1.9-2.2,1.9c-1.5,0-2.3-1-2.4-1.9l0.8-0.3c0.1,0.7,0.6,1.4,1.5,1.4c0.9,0,1.3-0.5,1.3-1
					c0-0.5-0.3-0.9-1-1l-0.9-0.2c-0.9-0.2-1.6-0.8-1.6-1.7c0-1,0.9-1.9,2.1-1.9c1.4,0,2,0.9,2.2,1.6L45.6,158.3z"/>
				<path class="st2" d="M48.4,163h-0.8v-6.5h0.8v2.7c0.3-0.5,0.8-0.6,1.3-0.6c1,0,1.5,0.7,1.5,1.7v2.7h-0.8v-2.6
					c0-0.6-0.3-1.1-1-1.1c-0.6,0-1,0.5-1,1.1V163z"/>
				<path class="st2" d="M56.3,161.8c-0.2,0.8-0.9,1.4-1.9,1.4c-1.2,0-2.2-0.8-2.2-2.3c0-1.4,1-2.3,2.1-2.3c1.3,0,2.1,0.9,2.1,2.3
					c0,0.1,0,0.2,0,0.3h-3.3c0,0.8,0.6,1.3,1.3,1.3c0.7,0,1.1-0.4,1.2-0.9L56.3,161.8z M55.5,160.4c0-0.6-0.4-1.1-1.2-1.1
					c-0.7,0-1.1,0.5-1.2,1.1H55.5z"/>
				<path class="st2" d="M59.6,164.7v-6h0.8v0.7c0.2-0.4,0.7-0.8,1.4-0.8c1.3,0,2,1,2,2.3c0,1.3-0.7,2.3-2,2.3
					c-0.7,0-1.2-0.3-1.4-0.7v2.3H59.6z M61.7,159.3c-0.8,0-1.3,0.6-1.3,1.5c0,0.9,0.5,1.5,1.3,1.5c0.8,0,1.3-0.6,1.3-1.5
					C63,160,62.5,159.3,61.7,159.3z"/>
				<path class="st2" d="M66.4,163.1c-1,0-1.6-0.8-1.6-1.7v-2.7h0.8v2.6c0,0.6,0.3,1.1,1,1.1c0.7,0,1-0.5,1-1.1v-2.6h0.8v3.5
					c0,0.3,0,0.6,0,0.8h-0.8c0-0.1,0-0.3,0-0.5C67.4,162.9,66.9,163.1,66.4,163.1z"/>
				<path class="st2" d="M69.9,163v-6.5h0.8v2.8c0.2-0.4,0.7-0.7,1.4-0.7c1.3,0,2,1,2,2.3c0,1.3-0.7,2.3-2,2.3
					c-0.6,0-1.1-0.3-1.4-0.7v0.6H69.9z M72,159.3c-0.7,0-1.3,0.6-1.3,1.5s0.5,1.5,1.3,1.5c0.8,0,1.3-0.6,1.3-1.5
					S72.8,159.3,72,159.3z"/>
				<path class="st2" d="M75.2,163v-6.5H76v6.5H75.2z"/>
				<path class="st2" d="M77.8,156.4c0.3,0,0.6,0.3,0.6,0.6c0,0.3-0.3,0.6-0.6,0.6c-0.3,0-0.6-0.3-0.6-0.6
					C77.2,156.7,77.5,156.4,77.8,156.4z M77.4,163v-4.3h0.8v4.3H77.4z"/>
				<path class="st2" d="M80.1,160.8c0,1,0.6,1.5,1.3,1.5c0.8,0,1.1-0.5,1.2-0.9l0.7,0.3c-0.2,0.6-0.8,1.4-2,1.4
					c-1.3,0-2.2-1-2.2-2.3c0-1.4,0.9-2.3,2.2-2.3c1.2,0,1.7,0.7,1.9,1.4l-0.8,0.3c-0.1-0.4-0.4-0.9-1.2-0.9
					C80.8,159.3,80.1,159.8,80.1,160.8z"/>
				<path class="st2" d="M84.4,163v-6.5h0.8v6.5H84.4z"/>
				<path class="st2" d="M86.8,164.8l1.1-2.3l-1.9-3.9h1l1.4,3l1.3-3h0.9l-2.8,6.1H86.8z"/>
				<path class="st2" d="M96.5,162.3c-0.2,0.4-0.7,0.8-1.3,0.8c-1.3,0-2.1-1-2.1-2.3c0-1.2,0.8-2.3,2.1-2.3c0.8,0,1.2,0.4,1.3,0.7
					v-2.8h0.8v5.7c0,0.4,0,0.7,0,0.8h-0.8C96.5,162.9,96.5,162.7,96.5,162.3L96.5,162.3z M95.2,162.4c0.8,0,1.3-0.7,1.3-1.6
					c0-0.9-0.5-1.5-1.2-1.5c-0.8,0-1.3,0.6-1.3,1.5S94.4,162.4,95.2,162.4z"/>
				<path class="st2" d="M99.1,156.4c0.3,0,0.6,0.3,0.6,0.6c0,0.3-0.3,0.6-0.6,0.6c-0.3,0-0.6-0.3-0.6-0.6
					C98.5,156.7,98.8,156.4,99.1,156.4z M98.7,163v-4.3h0.8v4.3H98.7z"/>
				<path class="st2" d="M101.3,161.6c0.1,0.5,0.4,0.8,1,0.8c0.5,0,0.7-0.3,0.7-0.6c0-0.3-0.2-0.5-0.6-0.6l-0.7-0.2
					c-0.7-0.1-1.1-0.6-1.1-1.2c0-0.7,0.7-1.4,1.5-1.4c1.2,0,1.6,0.8,1.6,1.2l-0.7,0.3c0-0.2-0.2-0.7-0.9-0.7c-0.4,0-0.7,0.3-0.7,0.6
					c0,0.3,0.2,0.5,0.5,0.5l0.7,0.2c0.8,0.2,1.2,0.6,1.2,1.3c0,0.6-0.5,1.3-1.6,1.3c-1.2,0-1.7-0.8-1.8-1.3L101.3,161.6z"/>
				<path class="st2" d="M105.4,160.8c0,1,0.6,1.5,1.3,1.5c0.8,0,1.1-0.5,1.2-0.9l0.7,0.3c-0.2,0.6-0.8,1.4-2,1.4
					c-1.3,0-2.2-1-2.2-2.3c0-1.4,0.9-2.3,2.2-2.3c1.2,0,1.7,0.7,1.9,1.4l-0.8,0.3c-0.1-0.4-0.4-0.9-1.2-0.9
					C106.1,159.3,105.4,159.8,105.4,160.8z"/>
				<path class="st2" d="M111.2,163.1c-1,0-1.6-0.8-1.6-1.7v-2.7h0.8v2.6c0,0.6,0.3,1.1,1,1.1c0.7,0,1-0.5,1-1.1v-2.6h0.8v3.5
					c0,0.3,0,0.6,0,0.8h-0.8c0-0.1,0-0.3,0-0.5C112.2,162.9,111.7,163.1,111.2,163.1z"/>
				<path class="st2" d="M115,161.6c0.1,0.5,0.4,0.8,1,0.8c0.5,0,0.7-0.3,0.7-0.6c0-0.3-0.2-0.5-0.6-0.6l-0.7-0.2
					c-0.7-0.1-1.1-0.6-1.1-1.2c0-0.7,0.7-1.4,1.5-1.4c1.2,0,1.6,0.8,1.6,1.2l-0.7,0.3c0-0.2-0.2-0.7-0.9-0.7c-0.4,0-0.7,0.3-0.7,0.6
					c0,0.3,0.2,0.5,0.5,0.5l0.7,0.2c0.8,0.2,1.2,0.6,1.2,1.3c0,0.6-0.5,1.3-1.6,1.3c-1.2,0-1.7-0.8-1.8-1.3L115,161.6z"/>
				<path class="st2" d="M119,161.6c0.1,0.5,0.4,0.8,1,0.8c0.5,0,0.7-0.3,0.7-0.6c0-0.3-0.2-0.5-0.6-0.6l-0.7-0.2
					c-0.7-0.1-1.1-0.6-1.1-1.2c0-0.7,0.7-1.4,1.5-1.4c1.2,0,1.6,0.8,1.6,1.2l-0.7,0.3c0-0.2-0.2-0.7-0.9-0.7c-0.4,0-0.7,0.3-0.7,0.6
					c0,0.3,0.2,0.5,0.5,0.5l0.7,0.2c0.8,0.2,1.2,0.6,1.2,1.3c0,0.6-0.5,1.3-1.6,1.3c-1.2,0-1.7-0.8-1.8-1.3L119,161.6z"/>
				<path class="st2" d="M126.4,161.8c-0.2,0.8-0.9,1.4-1.9,1.4c-1.2,0-2.2-0.8-2.2-2.3c0-1.4,1-2.3,2.1-2.3c1.3,0,2.1,0.9,2.1,2.3
					c0,0.1,0,0.2,0,0.3h-3.3c0,0.8,0.6,1.3,1.3,1.3c0.7,0,1.1-0.4,1.2-0.9L126.4,161.8z M125.6,160.4c0-0.6-0.4-1.1-1.2-1.1
					c-0.7,0-1.1,0.5-1.2,1.1H125.6z"/>
				<path class="st2" d="M130.5,162.3c-0.2,0.4-0.7,0.8-1.3,0.8c-1.3,0-2.1-1-2.1-2.3c0-1.2,0.8-2.3,2.1-2.3c0.8,0,1.2,0.4,1.3,0.7
					v-2.8h0.8v5.7c0,0.4,0,0.7,0,0.8h-0.8C130.5,162.9,130.5,162.7,130.5,162.3L130.5,162.3z M129.3,162.4c0.8,0,1.3-0.7,1.3-1.6
					c0-0.9-0.5-1.5-1.2-1.5c-0.8,0-1.3,0.6-1.3,1.5S128.4,162.4,129.3,162.4z"/>
				<path class="st2" d="M134.9,163v-4.3h0.8v0.6c0.3-0.5,0.8-0.7,1.3-0.7c0.5,0,1.1,0.3,1.3,0.8c0.3-0.6,0.9-0.8,1.5-0.8
					c0.8,0,1.5,0.5,1.5,1.6v2.8h-0.8v-2.7c0-0.6-0.3-1-0.9-1c-0.6,0-1,0.5-1,1.1v2.6h-0.8v-2.7c0-0.6-0.3-1-0.9-1
					c-0.6,0-1,0.5-1,1.1v2.6H134.9z"/>
				<path class="st2" d="M143.7,160.5l1.2-0.2c0.3,0,0.3-0.2,0.3-0.3c0-0.4-0.3-0.8-0.9-0.8c-0.6,0-0.9,0.4-1,0.9l-0.8-0.2
					c0.1-0.8,0.8-1.4,1.8-1.4c1.3,0,1.8,0.7,1.8,1.6v2.2c0,0.4,0,0.6,0.1,0.7h-0.8c0-0.1,0-0.3,0-0.6c-0.2,0.3-0.6,0.7-1.4,0.7
					c-0.9,0-1.4-0.6-1.4-1.3C142.3,161.1,142.9,160.6,143.7,160.5z M145.2,161.1v-0.2l-1.3,0.2c-0.4,0.1-0.6,0.3-0.6,0.6
					c0,0.3,0.3,0.6,0.7,0.6C144.6,162.4,145.2,162.1,145.2,161.1z"/>
				<path class="st2" d="M148.1,163h-0.8v-4.3h0.8v0.6c0.3-0.5,0.8-0.7,1.3-0.7c1,0,1.5,0.7,1.5,1.7v2.7h-0.8v-2.6
					c0-0.6-0.3-1.1-1-1.1c-0.7,0-1,0.5-1,1.2V163z"/>
				<path class="st2" d="M152.4,164.8l1.1-2.3l-1.9-3.9h1l1.3,3l1.3-3h0.9l-2.8,6.1H152.4z"/>
			</g>
			<g class="st1">
				<path class="st2" d="M11.8,171.5l1.2-0.2c0.3,0,0.3-0.2,0.3-0.3c0-0.4-0.3-0.8-0.9-0.8c-0.6,0-0.9,0.4-1,0.9l-0.8-0.2
					c0.1-0.8,0.8-1.4,1.8-1.4c1.3,0,1.8,0.7,1.8,1.6v2.2c0,0.4,0,0.6,0.1,0.7h-0.8c0-0.1,0-0.3,0-0.6c-0.2,0.3-0.6,0.7-1.4,0.7
					c-0.9,0-1.4-0.6-1.4-1.3C10.5,172.1,11,171.6,11.8,171.5z M13.3,172.1v-0.2l-1.3,0.2c-0.4,0.1-0.6,0.3-0.6,0.6
					c0,0.3,0.3,0.6,0.7,0.6C12.7,173.4,13.3,173.1,13.3,172.1z"/>
				<path class="st2" d="M15.7,172.6c0.1,0.5,0.4,0.8,1,0.8c0.5,0,0.7-0.3,0.7-0.6c0-0.3-0.2-0.5-0.6-0.6l-0.7-0.2
					c-0.7-0.1-1.1-0.6-1.1-1.2c0-0.7,0.7-1.4,1.5-1.4c1.2,0,1.6,0.8,1.6,1.2l-0.7,0.3c0-0.2-0.2-0.7-0.9-0.7c-0.4,0-0.7,0.3-0.7,0.6
					c0,0.3,0.2,0.5,0.5,0.5l0.7,0.2c0.8,0.2,1.2,0.6,1.2,1.3c0,0.6-0.5,1.3-1.6,1.3c-1.2,0-1.7-0.8-1.8-1.3L15.7,172.6z"/>
				<path class="st2" d="M19.4,175.7v-6h0.8v0.7c0.2-0.4,0.7-0.8,1.4-0.8c1.3,0,2,1,2,2.3c0,1.3-0.7,2.3-2,2.3
					c-0.7,0-1.2-0.3-1.4-0.7v2.3H19.4z M21.5,170.3c-0.8,0-1.3,0.6-1.3,1.5c0,0.9,0.5,1.5,1.3,1.5c0.8,0,1.3-0.6,1.3-1.5
					C22.8,171,22.3,170.3,21.5,170.3z"/>
				<path class="st2" d="M28.5,172.8c-0.2,0.8-0.9,1.4-1.9,1.4c-1.2,0-2.2-0.8-2.2-2.3c0-1.4,1-2.3,2.1-2.3c1.3,0,2.1,0.9,2.1,2.3
					c0,0.1,0,0.2,0,0.3h-3.3c0,0.8,0.6,1.3,1.3,1.3c0.7,0,1.1-0.4,1.2-0.9L28.5,172.8z M27.6,171.4c0-0.6-0.4-1.1-1.2-1.1
					c-0.7,0-1.1,0.5-1.2,1.1H27.6z"/>
				<path class="st2" d="M30,171.8c0,1,0.6,1.5,1.3,1.5c0.8,0,1.1-0.5,1.2-0.9l0.7,0.3c-0.2,0.6-0.8,1.4-2,1.4c-1.3,0-2.2-1-2.2-2.3
					c0-1.4,0.9-2.3,2.2-2.3c1.2,0,1.7,0.7,1.9,1.4l-0.8,0.3c-0.1-0.4-0.4-0.9-1.2-0.9C30.7,170.3,30,170.8,30,171.8z"/>
				<path class="st2" d="M35.4,169.7h0.9v0.8h-0.9v2.3c0,0.4,0.2,0.6,0.6,0.6c0.1,0,0.3,0,0.3,0v0.7c-0.1,0-0.3,0.1-0.6,0.1
					c-0.7,0-1.2-0.5-1.2-1.2v-2.4h-0.8v-0.8h0.2c0.5,0,0.7-0.3,0.7-0.7v-0.7h0.8V169.7z"/>
				<path class="st2" d="M37.8,172.6c0.1,0.5,0.4,0.8,1,0.8c0.5,0,0.7-0.3,0.7-0.6c0-0.3-0.2-0.5-0.6-0.6l-0.7-0.2
					c-0.7-0.1-1.1-0.6-1.1-1.2c0-0.7,0.7-1.4,1.5-1.4c1.2,0,1.6,0.8,1.6,1.2l-0.7,0.3c0-0.2-0.2-0.7-0.9-0.7c-0.4,0-0.7,0.3-0.7,0.6
					c0,0.3,0.2,0.5,0.5,0.5l0.7,0.2c0.8,0.2,1.2,0.6,1.2,1.3c0,0.6-0.5,1.3-1.6,1.3c-1.2,0-1.7-0.8-1.8-1.3L37.8,172.6z"/>
				<path class="st2" d="M47.7,171.8c0,1.3-0.9,2.3-2.2,2.3s-2.2-1-2.2-2.3c0-1.3,0.9-2.3,2.2-2.3S47.7,170.5,47.7,171.8z
					 M46.9,171.8c0-1-0.6-1.5-1.4-1.5s-1.4,0.5-1.4,1.5c0,1,0.6,1.5,1.4,1.5S46.9,172.8,46.9,171.8z"/>
				<path class="st2" d="M49.9,170.4v3.6H49v-3.6h-0.8v-0.8H49v-0.7c0-1,0.6-1.5,1.4-1.5c0.3,0,0.5,0.1,0.5,0.1v0.8
					c0,0-0.2-0.1-0.4-0.1c-0.3,0-0.7,0.1-0.7,0.7v0.7h1v0.8H49.9z"/>
				<path class="st2" d="M54.9,174H54v-6.5h0.8v2.7c0.3-0.5,0.8-0.6,1.3-0.6c1,0,1.5,0.7,1.5,1.7v2.7h-0.8v-2.6c0-0.6-0.3-1.1-1-1.1
					c-0.6,0-1,0.5-1,1.1V174z"/>
				<path class="st2" d="M62.8,172.8c-0.2,0.8-0.9,1.4-1.9,1.4c-1.2,0-2.2-0.8-2.2-2.3c0-1.4,1-2.3,2.1-2.3c1.3,0,2.1,0.9,2.1,2.3
					c0,0.1,0,0.2,0,0.3h-3.3c0,0.8,0.6,1.3,1.3,1.3c0.7,0,1.1-0.4,1.2-0.9L62.8,172.8z M62,171.4c0-0.6-0.4-1.1-1.2-1.1
					c-0.7,0-1.1,0.5-1.2,1.1H62z"/>
				<path class="st2" d="M66.3,170.5c-0.1,0-0.3,0-0.4,0c-0.7,0-1.2,0.4-1.2,1.3v2.2h-0.8v-4.3h0.8v0.8c0.3-0.7,0.9-0.8,1.3-0.8
					c0.1,0,0.2,0,0.3,0V170.5z"/>
				<path class="st2" d="M69.3,175.7v-6h0.8v0.7c0.2-0.4,0.7-0.8,1.4-0.8c1.3,0,2,1,2,2.3c0,1.3-0.7,2.3-2,2.3
					c-0.7,0-1.2-0.3-1.4-0.7v2.3H69.3z M71.5,170.3c-0.8,0-1.3,0.6-1.3,1.5c0,0.9,0.5,1.5,1.3,1.5c0.8,0,1.3-0.6,1.3-1.5
					C72.7,171,72.2,170.3,71.5,170.3z"/>
				<path class="st2" d="M78.4,172.8c-0.2,0.8-0.9,1.4-1.9,1.4c-1.2,0-2.2-0.8-2.2-2.3c0-1.4,1-2.3,2.1-2.3c1.3,0,2.1,0.9,2.1,2.3
					c0,0.1,0,0.2,0,0.3h-3.3c0,0.8,0.6,1.3,1.3,1.3c0.7,0,1.1-0.4,1.2-0.9L78.4,172.8z M77.5,171.4c0-0.6-0.4-1.1-1.2-1.1
					c-0.7,0-1.1,0.5-1.2,1.1H77.5z"/>
				<path class="st2" d="M81.9,170.5c-0.1,0-0.3,0-0.4,0c-0.7,0-1.2,0.4-1.2,1.3v2.2h-0.8v-4.3h0.8v0.8c0.3-0.7,0.9-0.8,1.3-0.8
					c0.1,0,0.2,0,0.3,0V170.5z"/>
				<path class="st2" d="M83.1,172.6c0.1,0.5,0.4,0.8,1,0.8c0.5,0,0.7-0.3,0.7-0.6c0-0.3-0.2-0.5-0.6-0.6l-0.7-0.2
					c-0.7-0.1-1.1-0.6-1.1-1.2c0-0.7,0.7-1.4,1.5-1.4c1.2,0,1.6,0.8,1.6,1.2l-0.7,0.3c0-0.2-0.2-0.7-0.9-0.7c-0.4,0-0.7,0.3-0.7,0.6
					c0,0.3,0.2,0.5,0.5,0.5l0.7,0.2c0.8,0.2,1.2,0.6,1.2,1.3c0,0.6-0.5,1.3-1.6,1.3c-1.2,0-1.7-0.8-1.8-1.3L83.1,172.6z"/>
				<path class="st2" d="M90.8,171.8c0,1.3-0.9,2.3-2.2,2.3s-2.2-1-2.2-2.3c0-1.3,0.9-2.3,2.2-2.3S90.8,170.5,90.8,171.8z
					 M89.9,171.8c0-1-0.6-1.5-1.4-1.5s-1.4,0.5-1.4,1.5c0,1,0.6,1.5,1.4,1.5S89.9,172.8,89.9,171.8z"/>
				<path class="st2" d="M92.6,174h-0.8v-4.3h0.8v0.6c0.3-0.5,0.8-0.7,1.3-0.7c1,0,1.5,0.7,1.5,1.7v2.7h-0.8v-2.6
					c0-0.6-0.3-1.1-1-1.1c-0.7,0-1,0.5-1,1.2V174z"/>
				<path class="st2" d="M97.9,171.5l1.2-0.2c0.3,0,0.3-0.2,0.3-0.3c0-0.4-0.3-0.8-0.9-0.8c-0.6,0-0.9,0.4-1,0.9l-0.8-0.2
					c0.1-0.8,0.8-1.4,1.8-1.4c1.3,0,1.8,0.7,1.8,1.6v2.2c0,0.4,0,0.6,0.1,0.7h-0.8c0-0.1,0-0.3,0-0.6c-0.2,0.3-0.6,0.7-1.4,0.7
					c-0.9,0-1.4-0.6-1.4-1.3C96.5,172.1,97.1,171.6,97.9,171.5z M99.4,172.1v-0.2l-1.3,0.2c-0.4,0.1-0.6,0.3-0.6,0.6
					c0,0.3,0.3,0.6,0.7,0.6C98.8,173.4,99.4,173.1,99.4,172.1z"/>
				<path class="st2" d="M101.5,174v-6.5h0.8v6.5H101.5z"/>
				<path class="st2" d="M105.9,174v-6.5h0.8v6.5H105.9z"/>
				<path class="st2" d="M108.6,167.4c0.3,0,0.6,0.3,0.6,0.6c0,0.3-0.3,0.6-0.6,0.6c-0.3,0-0.6-0.3-0.6-0.6
					C108,167.7,108.2,167.4,108.6,167.4z M108.2,174v-4.3h0.8v4.3H108.2z"/>
				<path class="st2" d="M111.5,170.4v3.6h-0.9v-3.6h-0.8v-0.8h0.8v-0.7c0-1,0.6-1.5,1.4-1.5c0.3,0,0.5,0.1,0.5,0.1v0.8
					c0,0-0.2-0.1-0.4-0.1c-0.3,0-0.7,0.1-0.7,0.7v0.7h1v0.8H111.5z"/>
				<path class="st2" d="M117,172.8c-0.2,0.8-0.9,1.4-1.9,1.4c-1.2,0-2.2-0.8-2.2-2.3c0-1.4,1-2.3,2.1-2.3c1.3,0,2.1,0.9,2.1,2.3
					c0,0.1,0,0.2,0,0.3h-3.3c0,0.8,0.6,1.3,1.3,1.3c0.7,0,1.1-0.4,1.2-0.9L117,172.8z M116.2,171.4c0-0.6-0.4-1.1-1.2-1.1
					c-0.7,0-1.1,0.5-1.2,1.1H116.2z"/>
				<path class="st2" d="M118.5,172.8c0.4,0,0.7,0.3,0.7,0.9c0,1.2-0.8,1.7-1.3,1.8V175c0.4-0.1,0.7-0.5,0.7-1c0,0-0.1,0-0.2,0
					c-0.3,0-0.6-0.2-0.6-0.6C117.9,173.1,118.1,172.8,118.5,172.8z"/>
				<path class="st2" d="M123.8,171.5l1.2-0.2c0.3,0,0.3-0.2,0.3-0.3c0-0.4-0.3-0.8-0.9-0.8c-0.6,0-0.9,0.4-1,0.9l-0.8-0.2
					c0.1-0.8,0.8-1.4,1.8-1.4c1.3,0,1.8,0.7,1.8,1.6v2.2c0,0.4,0,0.6,0.1,0.7h-0.8c0-0.1,0-0.3,0-0.6c-0.2,0.3-0.6,0.7-1.4,0.7
					c-0.9,0-1.4-0.6-1.4-1.3C122.5,172.1,123.1,171.6,123.8,171.5z M125.3,172.1v-0.2l-1.3,0.2c-0.4,0.1-0.6,0.3-0.6,0.6
					c0,0.3,0.3,0.6,0.7,0.6C124.8,173.4,125.3,173.1,125.3,172.1z"/>
				<path class="st2" d="M128.3,174h-0.8v-4.3h0.8v0.6c0.3-0.5,0.8-0.7,1.3-0.7c1,0,1.5,0.7,1.5,1.7v2.7h-0.8v-2.6
					c0-0.6-0.3-1.1-1-1.1c-0.7,0-1,0.5-1,1.2V174z"/>
				<path class="st2" d="M135.5,173.3c-0.2,0.4-0.7,0.8-1.3,0.8c-1.3,0-2.1-1-2.1-2.3c0-1.2,0.8-2.3,2.1-2.3c0.8,0,1.2,0.4,1.3,0.7
					v-2.8h0.8v5.7c0,0.4,0,0.7,0,0.8h-0.8C135.5,173.9,135.5,173.7,135.5,173.3L135.5,173.3z M134.2,173.4c0.8,0,1.3-0.7,1.3-1.6
					c0-0.9-0.5-1.5-1.2-1.5c-0.8,0-1.3,0.6-1.3,1.5S133.4,173.4,134.2,173.4z"/>
				<path class="st2" d="M140.7,174h-0.8v-6.5h0.8v2.7c0.3-0.5,0.8-0.6,1.3-0.6c1,0,1.5,0.7,1.5,1.7v2.7h-0.8v-2.6
					c0-0.6-0.3-1.1-1-1.1c-0.6,0-1,0.5-1,1.1V174z"/>
				<path class="st2" d="M148.7,172.8c-0.2,0.8-0.9,1.4-1.9,1.4c-1.2,0-2.2-0.8-2.2-2.3c0-1.4,1-2.3,2.1-2.3c1.3,0,2.1,0.9,2.1,2.3
					c0,0.1,0,0.2,0,0.3h-3.3c0,0.8,0.6,1.3,1.3,1.3c0.7,0,1.1-0.4,1.2-0.9L148.7,172.8z M147.8,171.4c0-0.6-0.4-1.1-1.2-1.1
					c-0.7,0-1.1,0.5-1.2,1.1H147.8z"/>
				<path class="st2" d="M152.1,170.5c-0.1,0-0.3,0-0.4,0c-0.7,0-1.2,0.4-1.2,1.3v2.2h-0.8v-4.3h0.8v0.8c0.3-0.7,0.9-0.8,1.3-0.8
					c0.1,0,0.2,0,0.3,0V170.5z"/>
				<path class="st2" d="M155.2,175.7v-6h0.8v0.7c0.2-0.4,0.7-0.8,1.4-0.8c1.3,0,2,1,2,2.3c0,1.3-0.7,2.3-2,2.3
					c-0.7,0-1.2-0.3-1.4-0.7v2.3H155.2z M157.3,170.3c-0.8,0-1.3,0.6-1.3,1.5c0,0.9,0.5,1.5,1.3,1.5c0.8,0,1.3-0.6,1.3-1.5
					C158.6,171,158.1,170.3,157.3,170.3z"/>
				<path class="st2" d="M161.5,171.5l1.2-0.2c0.3,0,0.3-0.2,0.3-0.3c0-0.4-0.3-0.8-0.9-0.8c-0.6,0-0.9,0.4-1,0.9l-0.8-0.2
					c0.1-0.8,0.8-1.4,1.8-1.4c1.3,0,1.8,0.7,1.8,1.6v2.2c0,0.4,0,0.6,0.1,0.7h-0.8c0-0.1,0-0.3,0-0.6c-0.2,0.3-0.6,0.7-1.4,0.7
					c-0.9,0-1.4-0.6-1.4-1.3C160.2,172.1,160.8,171.6,161.5,171.5z M163,172.1v-0.2l-1.3,0.2c-0.4,0.1-0.6,0.3-0.6,0.6
					c0,0.3,0.3,0.6,0.7,0.6C162.5,173.4,163,173.1,163,172.1z"/>
				<path class="st2" d="M166.3,169.7h0.9v0.8h-0.9v2.3c0,0.4,0.2,0.6,0.6,0.6c0.1,0,0.3,0,0.3,0v0.7c-0.1,0-0.3,0.1-0.6,0.1
					c-0.7,0-1.2-0.5-1.2-1.2v-2.4h-0.8v-0.8h0.2c0.5,0,0.7-0.3,0.7-0.7v-0.7h0.8V169.7z"/>
				<path class="st2" d="M169.1,174h-0.8v-6.5h0.8v2.7c0.3-0.5,0.8-0.6,1.3-0.6c1,0,1.5,0.7,1.5,1.7v2.7h-0.8v-2.6
					c0-0.6-0.3-1.1-1-1.1c-0.6,0-1,0.5-1,1.1V174z"/>
			</g>
			<g class="st1">
				<path class="st2" d="M11.9,180.7h0.9v0.8h-0.9v2.3c0,0.4,0.2,0.6,0.6,0.6c0.1,0,0.3,0,0.3,0v0.7c-0.1,0-0.3,0.1-0.6,0.1
					c-0.7,0-1.2-0.5-1.2-1.2v-2.4h-0.8v-0.8h0.2c0.5,0,0.7-0.3,0.7-0.7v-0.7h0.8V180.7z"/>
				<path class="st2" d="M17.9,182.8c0,1.3-0.9,2.3-2.2,2.3s-2.2-1-2.2-2.3c0-1.3,0.9-2.3,2.2-2.3S17.9,181.5,17.9,182.8z M17,182.8
					c0-1-0.6-1.5-1.4-1.5s-1.4,0.5-1.4,1.5c0,1,0.6,1.5,1.4,1.5S17,183.8,17,182.8z"/>
				<path class="st2" d="M21.1,185v-6.5H22v2.8c0.2-0.4,0.7-0.7,1.4-0.7c1.3,0,2,1,2,2.3c0,1.3-0.7,2.3-2,2.3
					c-0.6,0-1.1-0.3-1.4-0.7v0.6H21.1z M23.2,181.3c-0.7,0-1.3,0.6-1.3,1.5s0.5,1.5,1.3,1.5c0.8,0,1.3-0.6,1.3-1.5
					S24,181.3,23.2,181.3z"/>
				<path class="st2" d="M30.2,183.8c-0.2,0.8-0.9,1.4-1.9,1.4c-1.2,0-2.2-0.8-2.2-2.3c0-1.4,1-2.3,2.1-2.3c1.3,0,2.1,0.9,2.1,2.3
					c0,0.1,0,0.2,0,0.3h-3.3c0,0.8,0.6,1.3,1.3,1.3c0.7,0,1.1-0.4,1.2-0.9L30.2,183.8z M29.3,182.4c0-0.6-0.4-1.1-1.2-1.1
					c-0.7,0-1.1,0.5-1.2,1.1H29.3z"/>
				<path class="st2" d="M31.8,182.8c0,1,0.6,1.5,1.3,1.5c0.8,0,1.1-0.5,1.2-0.9l0.7,0.3c-0.2,0.6-0.8,1.4-2,1.4
					c-1.3,0-2.2-1-2.2-2.3c0-1.4,0.9-2.3,2.2-2.3c1.2,0,1.7,0.7,1.9,1.4l-0.8,0.3c-0.1-0.4-0.4-0.9-1.2-0.9
					C32.4,181.3,31.8,181.8,31.8,182.8z"/>
				<path class="st2" d="M40,182.8c0,1.3-0.9,2.3-2.2,2.3s-2.2-1-2.2-2.3c0-1.3,0.9-2.3,2.2-2.3S40,181.5,40,182.8z M39.1,182.8
					c0-1-0.6-1.5-1.4-1.5s-1.4,0.5-1.4,1.5c0,1,0.6,1.5,1.4,1.5S39.1,183.8,39.1,182.8z"/>
				<path class="st2" d="M41,185v-4.3h0.8v0.6c0.3-0.5,0.8-0.7,1.3-0.7c0.5,0,1.1,0.3,1.3,0.8c0.3-0.6,0.9-0.8,1.4-0.8
					c0.8,0,1.5,0.5,1.5,1.6v2.8h-0.8v-2.7c0-0.6-0.3-1-0.9-1c-0.6,0-1,0.5-1,1.1v2.6h-0.8v-2.7c0-0.6-0.3-1-0.9-1
					c-0.6,0-1,0.5-1,1.1v2.6H41z"/>
				<path class="st2" d="M49.1,178.4c0.3,0,0.6,0.3,0.6,0.6c0,0.3-0.3,0.6-0.6,0.6c-0.3,0-0.6-0.3-0.6-0.6
					C48.5,178.7,48.8,178.4,49.1,178.4z M48.7,185v-4.3h0.8v4.3H48.7z"/>
				<path class="st2" d="M51.8,185h-0.8v-4.3h0.8v0.6c0.3-0.5,0.8-0.7,1.3-0.7c1,0,1.5,0.7,1.5,1.7v2.7h-0.8v-2.6
					c0-0.6-0.3-1.1-1-1.1c-0.7,0-1,0.5-1,1.2V185z"/>
				<path class="st2" d="M56.5,185c0.1,0.6,0.5,1.1,1.2,1.1c0.9,0,1.3-0.5,1.3-1.4v-0.6c-0.2,0.4-0.7,0.7-1.3,0.7
					c-1.2,0-2-0.9-2-2.1c0-1.2,0.8-2.1,2-2.1c0.7,0,1.1,0.3,1.3,0.7v-0.6h0.8v4c0,1.1-0.5,2.2-2.2,2.2c-1.1,0-1.9-0.7-2-1.6
					L56.5,185z M59,182.7c0-0.8-0.5-1.4-1.2-1.4c-0.7,0-1.3,0.5-1.3,1.4c0,0.8,0.5,1.4,1.3,1.4C58.5,184.1,59,183.5,59,182.7z"/>
				<path class="st2" d="M67.4,182.8c0,1.3-0.9,2.3-2.2,2.3s-2.2-1-2.2-2.3c0-1.3,0.9-2.3,2.2-2.3S67.4,181.5,67.4,182.8z
					 M66.5,182.8c0-1-0.6-1.5-1.4-1.5s-1.4,0.5-1.4,1.5c0,1,0.6,1.5,1.4,1.5S66.5,183.8,66.5,182.8z"/>
				<path class="st2" d="M69.3,185h-0.8v-4.3h0.8v0.6c0.3-0.5,0.8-0.7,1.3-0.7c1,0,1.5,0.7,1.5,1.7v2.7h-0.8v-2.6
					c0-0.6-0.3-1.1-1-1.1c-0.7,0-1,0.5-1,1.2V185z"/>
				<path class="st2" d="M77.2,183.8c-0.2,0.8-0.9,1.4-1.9,1.4c-1.2,0-2.2-0.8-2.2-2.3c0-1.4,1-2.3,2.1-2.3c1.3,0,2.1,0.9,2.1,2.3
					c0,0.1,0,0.2,0,0.3H74c0,0.8,0.6,1.3,1.3,1.3c0.7,0,1.1-0.4,1.2-0.9L77.2,183.8z M76.3,182.4c0-0.6-0.4-1.1-1.2-1.1
					c-0.7,0-1.1,0.5-1.2,1.1H76.3z"/>
				<path class="st2" d="M84.5,182.8c0,1.3-0.9,2.3-2.2,2.3s-2.2-1-2.2-2.3c0-1.3,0.9-2.3,2.2-2.3S84.5,181.5,84.5,182.8z
					 M83.7,182.8c0-1-0.6-1.5-1.4-1.5s-1.4,0.5-1.4,1.5c0,1,0.6,1.5,1.4,1.5S83.7,183.8,83.7,182.8z"/>
				<path class="st2" d="M86.7,181.4v3.6h-0.9v-3.6H85v-0.8h0.8v-0.7c0-1,0.6-1.5,1.4-1.5c0.3,0,0.5,0.1,0.5,0.1v0.8
					c0,0-0.2-0.1-0.4-0.1c-0.3,0-0.7,0.1-0.7,0.7v0.7h1v0.8H86.7z"/>
				<path class="st2" d="M92,180.7h0.9v0.8H92v2.3c0,0.4,0.2,0.6,0.6,0.6c0.1,0,0.3,0,0.3,0v0.7c-0.1,0-0.3,0.1-0.6,0.1
					c-0.7,0-1.2-0.5-1.2-1.2v-2.4h-0.8v-0.8h0.2c0.5,0,0.7-0.3,0.7-0.7v-0.7H92V180.7z"/>
				<path class="st2" d="M94.8,185H94v-6.5h0.8v2.7c0.3-0.5,0.8-0.6,1.3-0.6c1,0,1.5,0.7,1.5,1.7v2.7h-0.8v-2.6c0-0.6-0.3-1.1-1-1.1
					c-0.6,0-1,0.5-1,1.1V185z"/>
				<path class="st2" d="M102.8,183.8c-0.2,0.8-0.9,1.4-1.9,1.4c-1.2,0-2.2-0.8-2.2-2.3c0-1.4,1-2.3,2.1-2.3c1.3,0,2.1,0.9,2.1,2.3
					c0,0.1,0,0.2,0,0.3h-3.3c0,0.8,0.6,1.3,1.3,1.3c0.7,0,1.1-0.4,1.2-0.9L102.8,183.8z M101.9,182.4c0-0.6-0.4-1.1-1.2-1.1
					c-0.7,0-1.1,0.5-1.2,1.1H101.9z"/>
				<path class="st2" d="M106,185v-4.3h0.8v0.6c0.3-0.5,0.8-0.7,1.3-0.7c0.5,0,1.1,0.3,1.3,0.8c0.3-0.6,0.9-0.8,1.4-0.8
					c0.8,0,1.5,0.5,1.5,1.6v2.8h-0.8v-2.7c0-0.6-0.3-1-0.9-1c-0.6,0-1,0.5-1,1.1v2.6h-0.8v-2.7c0-0.6-0.3-1-0.9-1
					c-0.6,0-1,0.5-1,1.1v2.6H106z"/>
				<path class="st2" d="M117.8,182.8c0,1.3-0.9,2.3-2.2,2.3c-1.3,0-2.2-1-2.2-2.3c0-1.3,0.9-2.3,2.2-2.3
					C116.8,180.5,117.8,181.5,117.8,182.8z M116.9,182.8c0-1-0.6-1.5-1.3-1.5c-0.7,0-1.4,0.5-1.4,1.5c0,1,0.6,1.5,1.4,1.5
					C116.3,184.4,116.9,183.8,116.9,182.8z"/>
				<path class="st2" d="M119.2,183.6c0.1,0.5,0.4,0.8,1,0.8c0.5,0,0.7-0.3,0.7-0.6c0-0.3-0.2-0.5-0.6-0.6l-0.7-0.2
					c-0.7-0.1-1.1-0.6-1.1-1.2c0-0.7,0.7-1.4,1.5-1.4c1.2,0,1.6,0.8,1.6,1.2L121,182c0-0.2-0.2-0.7-0.9-0.7c-0.4,0-0.7,0.3-0.7,0.6
					c0,0.3,0.2,0.5,0.5,0.5l0.7,0.2c0.8,0.2,1.2,0.6,1.2,1.3c0,0.6-0.5,1.3-1.6,1.3c-1.2,0-1.7-0.8-1.8-1.3L119.2,183.6z"/>
				<path class="st2" d="M123.9,180.7h0.9v0.8h-0.9v2.3c0,0.4,0.2,0.6,0.6,0.6c0.1,0,0.3,0,0.3,0v0.7c-0.1,0-0.3,0.1-0.6,0.1
					c-0.7,0-1.2-0.5-1.2-1.2v-2.4h-0.8v-0.8h0.2c0.5,0,0.7-0.3,0.7-0.7v-0.7h0.8V180.7z"/>
				<path class="st2" d="M131.5,180.7l1.1,3.3l1-3.3h0.9L133,185h-0.9l-1.2-3.3l-1.1,3.3H129l-1.4-4.3h0.9l1,3.3l1.1-3.3H131.5z"/>
				<path class="st2" d="M138.9,183.8c-0.2,0.8-0.9,1.4-1.9,1.4c-1.2,0-2.2-0.8-2.2-2.3c0-1.4,1-2.3,2.1-2.3c1.3,0,2.1,0.9,2.1,2.3
					c0,0.1,0,0.2,0,0.3h-3.3c0,0.8,0.6,1.3,1.3,1.3c0.7,0,1.1-0.4,1.2-0.9L138.9,183.8z M138.1,182.4c0-0.6-0.4-1.1-1.2-1.1
					c-0.7,0-1.1,0.5-1.2,1.1H138.1z"/>
				<path class="st2" d="M140,185v-6.5h0.8v6.5H140z"/>
				<path class="st2" d="M142.2,185v-6.5h0.8v6.5H142.2z"/>
				<path class="st2" d="M144.2,182.8V182h2.4v0.7H144.2z"/>
				<path class="st2" d="M149.7,182.5l1.9,2.5h-1.1l-1.4-1.9l-0.6,0.6v1.3h-0.8v-6.5h0.8v4.1l1.9-1.9h1.2L149.7,182.5z"/>
				<path class="st2" d="M153.2,185h-0.8v-4.3h0.8v0.6c0.3-0.5,0.8-0.7,1.3-0.7c1,0,1.5,0.7,1.5,1.7v2.7h-0.8v-2.6
					c0-0.6-0.3-1.1-1-1.1c-0.7,0-1,0.5-1,1.2V185z"/>
				<path class="st2" d="M161.5,182.8c0,1.3-0.9,2.3-2.2,2.3s-2.2-1-2.2-2.3c0-1.3,0.9-2.3,2.2-2.3S161.5,181.5,161.5,182.8z
					 M160.6,182.8c0-1-0.6-1.5-1.4-1.5s-1.4,0.5-1.4,1.5c0,1,0.6,1.5,1.4,1.5S160.6,183.8,160.6,182.8z"/>
				<path class="st2" d="M165.7,180.7l1.1,3.3l1-3.3h0.9l-1.4,4.3h-0.9l-1.2-3.3l-1.1,3.3h-0.9l-1.4-4.3h0.9l1,3.3l1.1-3.3H165.7z"
					/>
				<path class="st2" d="M170.3,185h-0.8v-4.3h0.8v0.6c0.3-0.5,0.8-0.7,1.3-0.7c1,0,1.5,0.7,1.5,1.7v2.7h-0.8v-2.6
					c0-0.6-0.3-1.1-1-1.1c-0.7,0-1,0.5-1,1.2V185z"/>
			</g>
			<g class="st1">
				<path class="st2" d="M10.7,197.7v-6h0.8v0.7c0.2-0.4,0.7-0.8,1.4-0.8c1.3,0,2,1,2,2.3c0,1.3-0.7,2.3-2,2.3
					c-0.7,0-1.2-0.3-1.4-0.7v2.3H10.7z M12.8,192.3c-0.8,0-1.3,0.6-1.3,1.5c0,0.9,0.5,1.5,1.3,1.5c0.8,0,1.3-0.6,1.3-1.5
					C14.1,193,13.6,192.3,12.8,192.3z"/>
				<path class="st2" d="M20.1,193.8c0,1.3-0.9,2.3-2.2,2.3s-2.2-1-2.2-2.3c0-1.3,0.9-2.3,2.2-2.3S20.1,192.5,20.1,193.8z
					 M19.2,193.8c0-1-0.6-1.5-1.4-1.5s-1.4,0.5-1.4,1.5c0,1,0.6,1.5,1.4,1.5S19.2,194.8,19.2,193.8z"/>
				<path class="st2" d="M24.9,194.8c-0.2,0.8-0.9,1.4-1.9,1.4c-1.2,0-2.2-0.8-2.2-2.3c0-1.4,1-2.3,2.1-2.3c1.3,0,2.1,0.9,2.1,2.3
					c0,0.1,0,0.2,0,0.3h-3.3c0,0.8,0.6,1.3,1.3,1.3c0.7,0,1.1-0.4,1.2-0.9L24.9,194.8z M24,193.4c0-0.6-0.4-1.1-1.2-1.1
					c-0.7,0-1.1,0.5-1.2,1.1H24z"/>
				<path class="st2" d="M27.1,191.7H28v0.8h-0.9v2.3c0,0.4,0.2,0.6,0.6,0.6c0.1,0,0.3,0,0.3,0v0.7c-0.1,0-0.3,0.1-0.6,0.1
					c-0.7,0-1.2-0.5-1.2-1.2v-2.4h-0.8v-0.8h0.2c0.5,0,0.7-0.3,0.7-0.7v-0.7h0.8V191.7z"/>
				<path class="st2" d="M29.5,194.6c0.1,0.5,0.4,0.8,1,0.8c0.5,0,0.7-0.3,0.7-0.6c0-0.3-0.2-0.5-0.6-0.6l-0.7-0.2
					c-0.7-0.1-1.1-0.6-1.1-1.2c0-0.7,0.7-1.4,1.5-1.4c1.2,0,1.6,0.8,1.6,1.2l-0.7,0.3c0-0.2-0.2-0.7-0.9-0.7c-0.4,0-0.7,0.3-0.7,0.6
					c0,0.3,0.2,0.5,0.5,0.5l0.7,0.2c0.8,0.2,1.2,0.6,1.2,1.3c0,0.6-0.5,1.3-1.6,1.3c-1.2,0-1.7-0.8-1.8-1.3L29.5,194.6z"/>
				<path class="st2" d="M39.4,193.8c0,1.3-0.9,2.3-2.2,2.3s-2.2-1-2.2-2.3c0-1.3,0.9-2.3,2.2-2.3S39.4,192.5,39.4,193.8z
					 M38.6,193.8c0-1-0.6-1.5-1.4-1.5s-1.4,0.5-1.4,1.5c0,1,0.6,1.5,1.4,1.5S38.6,194.8,38.6,193.8z"/>
				<path class="st2" d="M41.6,192.4v3.6h-0.9v-3.6h-0.8v-0.8h0.8v-0.7c0-1,0.6-1.5,1.4-1.5c0.3,0,0.5,0.1,0.5,0.1v0.8
					c0,0-0.2-0.1-0.4-0.1c-0.3,0-0.7,0.1-0.7,0.7v0.7h1v0.8H41.6z"/>
				<path class="st2" d="M46.6,196h-0.8v-6.5h0.8v2.7c0.3-0.5,0.8-0.6,1.3-0.6c1,0,1.5,0.7,1.5,1.7v2.7h-0.8v-2.6
					c0-0.6-0.3-1.1-1-1.1c-0.6,0-1,0.5-1,1.1V196z"/>
				<path class="st2" d="M54.5,194.8c-0.2,0.8-0.9,1.4-1.9,1.4c-1.2,0-2.2-0.8-2.2-2.3c0-1.4,1-2.3,2.1-2.3c1.3,0,2.1,0.9,2.1,2.3
					c0,0.1,0,0.2,0,0.3h-3.3c0,0.8,0.6,1.3,1.3,1.3c0.7,0,1.1-0.4,1.2-0.9L54.5,194.8z M53.7,193.4c0-0.6-0.4-1.1-1.2-1.1
					c-0.7,0-1.1,0.5-1.2,1.1H53.7z"/>
				<path class="st2" d="M58,192.5c-0.1,0-0.3,0-0.4,0c-0.7,0-1.2,0.4-1.2,1.3v2.2h-0.8v-4.3h0.8v0.8c0.3-0.7,0.9-0.8,1.3-0.8
					c0.1,0,0.2,0,0.3,0V192.5z"/>
				<path class="st2" d="M62.2,191.7h0.9v0.8h-0.9v2.3c0,0.4,0.2,0.6,0.6,0.6c0.1,0,0.3,0,0.3,0v0.7c-0.1,0-0.3,0.1-0.6,0.1
					c-0.7,0-1.2-0.5-1.2-1.2v-2.4h-0.8v-0.8h0.2c0.5,0,0.7-0.3,0.7-0.7v-0.7h0.8V191.7z"/>
				<path class="st2" d="M64.6,189.4c0.3,0,0.6,0.3,0.6,0.6c0,0.3-0.3,0.6-0.6,0.6c-0.3,0-0.6-0.3-0.6-0.6
					C64,189.7,64.3,189.4,64.6,189.4z M64.2,196v-4.3H65v4.3H64.2z"/>
				<path class="st2" d="M66.4,196v-4.3h0.8v0.6c0.3-0.5,0.8-0.7,1.3-0.7c0.5,0,1.1,0.3,1.3,0.8c0.3-0.6,0.9-0.8,1.4-0.8
					c0.8,0,1.5,0.5,1.5,1.6v2.8h-0.8v-2.7c0-0.6-0.3-1-0.9-1c-0.6,0-1,0.5-1,1.1v2.6h-0.8v-2.7c0-0.6-0.3-1-0.9-1
					c-0.6,0-1,0.5-1,1.1v2.6H66.4z"/>
				<path class="st2" d="M77.9,194.8c-0.2,0.8-0.9,1.4-1.9,1.4c-1.2,0-2.2-0.8-2.2-2.3c0-1.4,1-2.3,2.1-2.3c1.3,0,2.1,0.9,2.1,2.3
					c0,0.1,0,0.2,0,0.3h-3.3c0,0.8,0.6,1.3,1.3,1.3c0.7,0,1.1-0.4,1.2-0.9L77.9,194.8z M77,193.4c0-0.6-0.4-1.1-1.2-1.1
					c-0.7,0-1.1,0.5-1.2,1.1H77z"/>
				<path class="st2" d="M79.3,194.8c0.4,0,0.6,0.3,0.6,0.6s-0.3,0.6-0.6,0.6s-0.6-0.3-0.6-0.6S79,194.8,79.3,194.8z"/>
			</g>
		</g>
	</g>
</g>
</svg>
