<?xml version="1.0" encoding="utf-8"?>
<!-- Generator: Adobe Illustrator 20.0.0, SVG Export Plug-In . SVG Version: 6.00 Build 0)  -->
<svg version="1.1" id="Layer_1" xmlns="http://www.w3.org/2000/svg" xmlns:xlink="http://www.w3.org/1999/xlink" x="0px" y="0px"
	 viewBox="0 0 196 266.7" style="enable-background:new 0 0 196 266.7;" xml:space="preserve">
<style type="text/css">
	.st0{fill:#F8E4E3;}
	.st1{fill:#231F20;}
	.st2{fill:#010101;}
	.st3{fill:#F3D7AF;}
	.st4{fill:#EECCA4;}
	.st5{fill:#E8BA9A;enable-background:new    ;}
	.st6{fill:#FFEBC6;}
	.st7{fill:#EDCBB0;}
	.st8{fill:#DEBCA4;enable-background:new    ;}
	.st9{fill:#F0D0B9;}
	.st10{fill:#D9BEA9;}
	.st11{fill:#6B3720;}
	.st12{fill:#DBBFAA;}
	.st13{fill:#EEC5A6;}
	.st14{fill:#B86764;}
	.st15{fill:#F5E0CD;}
	.st16{fill:#381C15;}
	.st17{fill:#EBF4F0;}
	.st18{fill:#C68079;}
	.st19{fill:#3C3839;}
	.st20{fill:#1D1611;}
	.st21{fill:#F0D0B3;}
	.st22{fill:#C8A27D;}
	.st23{fill:#9B7761;}
</style>
<title>badbitchcards</title>
<path class="st0" d="M17.1,8.5h161.6c4.7,0,8.5,3.8,8.5,8.5v232.4c0,4.7-3.8,8.5-8.5,8.5H17.1c-4.7,0-8.5-3.8-8.5-8.5V17
	C8.6,12.3,12.4,8.5,17.1,8.5z"/>
<path class="st1" d="M20.6,30.5l7-9.8H31V31h2.8v2.3H31V37h-2.4v-3.7h-8V30.5z M28.6,23l-5.7,8h5.8L28.6,23z"/>
<path class="st2" d="M28.9,41.9c4.6,4.4,9.3,8.8,9.3,13.2c-0.1,2.5-2.2,4.5-4.7,4.4c-2.1,0-3.3-0.9-4.3-2.8c1.1,3.8,2.2,5.7,4.3,5.7
	h-9.2c2.1,0,3.3-1.9,4.3-5.7c-1.1,1.8-2.2,2.8-4.3,2.8c-2.5,0.1-4.6-1.9-4.6-4.4C19.6,50.7,24.2,46.3,28.9,41.9z"/>
<path class="st3" d="M111.5,54.4c-20.9-21.4-52-14.2-63.4,17c-18.9,23-11.8,65.2-11.4,66.1c6.4,27.3,8.2,35.1,6.1,42.3
	s-15,17.5-25.7,12.1c-3.9,10.7,11.7,30.5,30,20s24.7-20.9,28.1-25.7s-7.7-18-7.7-18l58,1.6c0,0-7.4,46.7,14.2,54.5
	s39.9-10.7,39.9-10.7s-31.4-4.6-26.8-19.6c16.1-21,24.6-47.3,16.4-59c-1.8-16-0.7-29.2-6.1-32.8C166.7,93,161.7,39.7,111.5,54.4z"/>
<path class="st4" d="M96.1,66.7c26,0,40.5,2,43.9,56.9s0,0,0,0L61.3,122C61.3,122,43.1,66.7,96.1,66.7z"/>
<path class="st4" d="M63.2,121.2c-4.2-7.2-34.3-8.1-11.5,19.5s22.9,27.6,22.9,27.6l-22.9-27.6l13.4,7L63.2,121.2z"/>
<path class="st4" d="M55.3,150.9c-3.3,9.1,1.1,18.5,3.1,30.5s0.5,16.7,0.5,16.7s4.6-27.5,8.5-29.8s-2.3-22.9-2.3-22.9L55.3,150.9"/>
<path class="st5" d="M107,65.3c-1.4-7.5-46.1-19.4-48.6,23.6l0.3,6.1L107,68.4V65.3z"/>
<path class="st5" d="M143.8,114.6c8.7,8.7-0.3,45-0.3,65.5c0,20-12.4,37.9-12.4,37.9l-4.3-16.5c0,0-2.9-20.9,0-28.5
	c2.9-7.6,9.8-22.8,9.8-22.8L143.8,114.6z"/>
<path class="st4" d="M124.4,76.3c0.6,0.8,18.6,13.2,24.4,15.4c5.8,2.2,2.8,24.4,2.2,28.3c-0.6,3.9-11.1,3.6-11.1,3.6L124.4,76.3z"/>
<g>
	<g>
		<path class="st6" d="M147.4,121.8c8.3,1.1,15.7,6.6,19.3,14.1c4.3,9,1.9,19.1-2.2,27.7c-5.9,12.4-25,34.4-9.4,46.8
			c5.9,4.7,14.3,4.2,20-0.5c0.3-0.3-0.6-0.5-0.9-0.3c-7.5,6.2-18.7,3.7-22.7-5.2c-4-8.8,1.8-19,6.1-26.6
			c7.7-13.6,18.6-30.6,7.9-45.7c-4.2-5.9-10.7-9.9-17.8-10.8C147.2,121.2,146.7,121.7,147.4,121.8L147.4,121.8z"/>
	</g>
</g>
<g>
	<g>
		<path class="st6" d="M59.3,115.5c-4.9-3.1-11-1.9-15.5,1.4c-6.4,4.7-8.1,12.6-7.9,20.2c0.2,9.7,2.2,19.4,3.5,29
			c1.2,9,3.2,18.2,3,27.2c-0.1,4.4-0.9,9-3.2,12.8c-3,4.8-9.8,8.7-15,4.5c-0.2-0.2-1.2,0-0.9,0.3c4.9,4,11.9,1.5,15.6-2.9
			c4.8-5.8,4.9-13.8,4.3-20.9c-0.8-9.7-2.5-19.5-3.9-29.1c-1.3-9.2-3.6-19.1-1.9-28.4c0.9-4.8,3.1-9.1,7-12.1
			c4.1-3.1,9.6-4.4,14.2-1.5C58.8,116,59.8,115.8,59.3,115.5L59.3,115.5z"/>
	</g>
</g>
<g>
	<g>
		<path class="st6" d="M116.3,62.2c-2.8-7.3-10.8-10.9-18-12.4c-6.8-1.4-14.4-1.1-20.6,2.2c-7.3,3.8-10.8,11-12.8,18.6
			c-2.8,10.4-4.7,21-7,31.4c-2.3,10.5-4.5,21.7-12,30c-0.3,0.3,0.7,0.5,0.9,0.3c5.2-5.7,7.9-12.9,9.8-20.3
			c2.4-9.2,4.2-18.6,6.2-27.8c1.8-8.2,2.9-17.3,7.6-24.5c4.8-7.3,13.3-10.3,21.8-10c8.7,0.4,19.7,3.9,23.1,12.7
			C115.4,62.6,116.4,62.6,116.3,62.2L116.3,62.2z"/>
	</g>
</g>
<g>
	<g>
		<path class="st6" d="M117.2,56.3c13.2-5.7,27.8,0.1,36.3,11c3.9,5,7,11.1,7.8,17.4c0.9,6.7-2.6,13.1-1.3,19.8c0.1,0.4,1.1,0.3,1,0
			c-0.8-4.1,0.3-8,1-12.1c0.7-3.8,0.6-7.6-0.4-11.3c-1.7-6.5-5.4-12.7-10.2-17.5c-9-9.1-22.8-12.9-34.8-7.6
			C116,56.2,116.9,56.5,117.2,56.3L117.2,56.3z"/>
	</g>
</g>
<g>
	<g>
		<path class="st6" d="M119.7,75.9c-0.8,3.4,0.8,6.3,2.5,9.1c1.7,2.9,3.5,5.8,5.4,8.6c3.7,5.3,7.9,10.3,13,14.3
			c9,7,21.2,10.6,32.2,6.5c0.6-0.2-0.2-0.6-0.5-0.4c-11.8,4.3-24.5-0.5-33.4-8.5c-4.3-3.8-7.8-8.3-11-13.1c-1.6-2.3-3-4.8-4.4-7.2
			c-1.7-2.9-3.4-5.9-2.6-9.3C120.8,75.6,119.8,75.6,119.7,75.9L119.7,75.9z"/>
	</g>
</g>
<g>
	<g>
		<path class="st6" d="M119.3,79.3c-1.1,2,0.9,4,2.1,5.6c1.6,2.3,3.3,4.6,5.1,6.8c3.4,4.3,7.1,8.3,11.5,11.6c9.6,7.2,21,8.3,32.6,8
			c0.6,0,0.6-0.5,0-0.5c-11.6,0.3-22.9-0.8-32.4-8.2c-3.8-3-7.2-6.6-10.2-10.4c-1.5-1.9-3-3.8-4.4-5.8c-1.2-1.6-4.4-4.8-3.2-7
			C120.5,79.1,119.5,79,119.3,79.3L119.3,79.3z"/>
	</g>
</g>
<g>
	<g>
		<path class="st6" d="M109.7,80.9c-0.1-7.7-1.6-15.7-6.4-21.9c-3.9-5.1-9.7-8.6-16.1-9.1c-0.5,0-0.9,0.4-0.3,0.5
			c15.3,1.2,21.7,17.2,21.8,30.5C108.7,81.2,109.7,81.2,109.7,80.9L109.7,80.9z"/>
	</g>
</g>
<g>
	<g>
		<path class="st6" d="M112.7,76.2c-2.2-10.4-5.6-23.3-17.5-26.1c-0.3-0.1-1.1,0.3-0.5,0.4c11.6,2.8,14.9,15.5,17,25.6
			C111.8,76.5,112.8,76.5,112.7,76.2L112.7,76.2z"/>
	</g>
</g>
<g>
	<g>
		<path class="st6" d="M63.9,152.1c-6.9,16.7-6.3,36.5-17.9,51.1c-0.2,0.3,0.8,0.4,1,0.1c11.6-14.6,11-34.5,17.9-51.1
			C65.1,151.9,64.1,151.8,63.9,152.1L63.9,152.1z"/>
	</g>
</g>
<path class="st7" d="M65.5,162.8c0,0,1.2,10.9,1.7,17c0.5,6-3,19.8-3,19.8s8,37.5,35.1,37.5s37.2-37.1,37.2-37.1
	s-13.8-14.3-9.3-32.9"/>
<path class="st8" d="M66.6,164.6c-0.3,0.7,2.1,26.8,2.4,27.4s5.6,3.8,8.6,7.5s9.7,9.6,9.7,9.6s18.9-1.7,21.4,0s12-25.6,16.9-27
	c0,0,0.9-10.5,0.9-14.2C126.6,164.3,66.6,164.6,66.6,164.6z"/>
<path class="st9" d="M99.9,189.2c6.5,0,16.3-1.1,29.9-19.2c0,0,4.6-6.9,6-16.1c1.4-9.2,4.9-22.6,5.8-25.3s-2.5-8.3-2.8-10.3
	s-13.4-37.9-14.6-42.5c-19.7-9.5-50.4-0.6-55.3,1.8c-4.9,2.5-0.3,26.1-4.9,32.9c-1.8,11.1-3.4,34.7-2.8,37.5s0.6,16.9,9.5,24.3
	C79.8,179.5,89,188.4,99.9,189.2z"/>
<path class="st10" d="M112.6,123.6c1.3-0.7,11.9-0.4,12.9-1.7l-7.7-1.4L112.6,123.6z"/>
<path class="st10" d="M76.8,121.9c0-0.1,12.5,1.1,14.6-0.5C91.4,121.4,77.9,120.1,76.8,121.9z"/>
<path class="st11" d="M102.1,149.5c4.4-3.4,5-5.3,7.2-4.8c1,0.3,1,0.8,1,0.8"/>
<path class="st11" d="M93.9,143.9c0.8-0.6,3.4,1.5,6.4,5.7"/>
<path class="st12" d="M105.1,122.2c0-1.7,0.7,4.8,1.7,6.4c0.5,2.3-0.2,8.3-0.9,8.8s-0.8-0.2-0.9-0.5S105.1,127.1,105.1,122.2z"/>
<path class="st12" d="M99.3,121.9c0.3,6.4,0.1,11.5-1,13.1c-2.6,0-1.4-4.7-1.4-4.7S98.7,128.6,99.3,121.9z"/>
<path class="st13" d="M79.5,149.5c1.3-1.6,7.3-5.6,7.3-5.6c0.2-1.1-0.6-0.9-1.9,0s-5.5,4.2-6.2,4.9s-0.7,2.3,0.5,5.9
	C80,154.7,78.9,150.5,79.5,149.5z"/>
<path class="st13" d="M123.6,151.7c-1.9-2.8-3-5-4.1-5.5s-0.9,0.2,0,1.3s2.5,3.3,2.8,4.1c0.4,0.9,0.6,4.3,0,5.8
	c1,0.5,1.1,0.4,1.3-0.2C123.9,156.7,124.3,152.7,123.6,151.7z"/>
<path class="st14" d="M81.8,153.6c3.3-0.9,16.8,0.2,19.8,1.1c3.3-0.2,13.7-0.8,16.7,0.4c0,3.3-2.2,13.8-16.3,13.8
	S81.8,153.6,81.8,153.6z"/>
<path class="st15" d="M83.7,155.3c4-0.2,14.7,2.8,19.1,3.1s11.4-3,14.5-1.6c0,0-0.9,3.8-7.2,5.5c-6.3,1.6-15.2,0.2-17.1-0.5
	C91.1,161,86.6,159.1,83.7,155.3z"/>
<path class="st16" d="M76.4,121.8c-0.3-0.1-0.8-0.2-1.2-0.3c-0.6-0.1-0.8-0.8-0.4-1.2c2-2.3,6.3-5.2,12.4-3.7c0.2,0,0.3,0.1,0.4,0.3
	c2.2,2.9,4.3,4.2,4.3,4.2s0.6,0.1-0.4,0.4c-0.9,0.2-12-1.6-14.4,0.3C76.8,121.8,76.6,121.9,76.4,121.8z"/>
<path class="st16" d="M125.5,121.9c0,0,0.8,0.1,2.9,0c-0.5-1.7-4.8-4.8-10.1-4.7c-4,2.6-5.3,3.7-6.7,4.7c-1.3,1,1.6,0.3,1.6,0.3
	S121.6,120.1,125.5,121.9z"/>
<path class="st12" d="M116.6,183.7c5.9-11.9,9.4-23.3,9.3-23.7s-1-0.3-1.4,1.1c-0.4,1.3-10.2,24.3-11.9,25.2L116.6,183.7z"/>
<path class="st12" d="M89.8,184.7c-5.1-5.3-10.4-15.9-11.6-19.9c-3-1.7,1.9,9.1,5,14.3s3.1,5.2,3.1,5.2l3.6,2L89.8,184.7z"/>
<path class="st17" d="M111.7,122.3c3.9-3.6,8.8-4.4,13.8-0.4c-3.8,1.3-11.4,0.9-12.2,1.3c-0.7,0.4-0.7,0.4-0.7,0.4
	S111,122.9,111.7,122.3z"/>
<path class="st17" d="M76.8,120.7c2.5-2.5,7.7-5.2,14.6,0.7c-1,0.5-6.5,0.8-9.6,0.5s-5,0-5,0S76,121.5,76.8,120.7z"/>
<path class="st18" d="M98.3,165.7c8.1,0.1,8.5,1.3,8.5,1.3S100.6,168.9,98.3,165.7z"/>
<path class="st19" d="M83.6,121.9c2.9,0,4.1-0.3,3.5-3.3c-3.4-1.9-6.7-0.2-6.7-0.2S79.6,122.2,83.6,121.9z"/>
<path class="st19" d="M117.5,122.9c4.5,0,4.1-0.5,4-3.2c-4-1.7-6.2,0.3-6.2,0.3S114.4,123.2,117.5,122.9z"/>
<circle class="st20" cx="83.7" cy="120" r="0.8"/>
<circle class="st20" cx="118.7" cy="121" r="0.7"/>
<path class="st17" d="M83.7,118.4c0,0,1.5,0,1.2,0.8S83.7,118.4,83.7,118.4z"/>
<path class="st17" d="M118.8,119.8c0,0,1.5,0,1.2,0.8C119.6,121.3,118.8,119.8,118.8,119.8z"/>
<path class="st13" d="M52.5,125.3c-1.5,6.2-0.6,11.2,0,12.2s-4.2,15.4,8.9,10.4C62.2,128.2,52.5,125.3,52.5,125.3z"/>
<path class="st21" d="M143.5,123.6c0.2,5.5-2,13.8-1.6,15.8s1.9,6.9,0.8,8.2c-1.2,1.3-3.6,4.8-6.2,2.6c-2.6-2.2,3.5-26.6,3.5-26.6
	S142,121,143.5,123.6z"/>
<circle class="st17" cx="55.3" cy="147.8" r="3.1"/>
<circle class="st17" cx="141.9" cy="150.2" r="3.1"/>
<g>
	<g>
		<path class="st22" d="M32.5,163.9c0.4,1.2,0.8,2.4,1.2,3.6c0.1,0.4,0.8-0.7,0.8-0.8c0.2-0.4,0.8-1.3,0.6-1.7
			c-0.4-1.2-0.8-2.4-1.2-3.6c-0.1-0.4-0.8,0.7-0.8,0.8C32.9,162.5,32.3,163.4,32.5,163.9L32.5,163.9z"/>
	</g>
</g>
<g>
	<g>
		<path class="st22" d="M70.1,114c2.4-2.7,4.3-3.9,7.7-3.7c2.8,0.1,5.7,0.4,8.2,1.7c2.1,1.1,4.1,3.3,6,0.6c1-1.3,1.1-3.1-0.4-4.1
			c-0.7-0.5-1.4-0.3-2.2-0.4c-1.7-0.2-3.5-0.1-5.2-0.3c-2.5-0.4-4.5-0.4-7,0c-0.6,0.1-1.8,2.2-1.2,2.7c0.2,0.1,0.3,0.2,0.5,0.4
			c0.4,0.4,2-2.1,1.4-2.7c-0.2-0.1-0.3-0.2-0.5-0.4c-0.4,0.9-0.8,1.8-1.2,2.7c1.1-0.2,15.3-0.3,14.8,2.3c0.4-0.7,0.8-1.4,1.2-2.1
			c-1.9,1.1-5.5-1.9-7.3-2.5c-2.1-0.6-4.4-0.7-6.6-0.8c-3.8,0-5.8,1.9-8.2,4.7C69.4,112.9,68.8,115.5,70.1,114L70.1,114z"/>
	</g>
</g>
<g>
	<g>
		<path class="st22" d="M133.6,115.3c-1.1-2.7-3-5-5.7-6.2c-4.9-2.1-10.4,0.4-15.1,1.9c0.6,0.8,1.3,1.5,1.9,2.3
			c1.9-5.1,11.1-3.6,15.2-3c-0.6-0.8-1.1-1.6-1.7-2.3c-1.5,0-3.1-0.1-4.6-0.1c0.6,0.8,1.2,1.5,1.8,2.3c3.8-1.5,5.7,1.6,7.9,4.1
			c1.1,1.3,1.7,0.9,0.5-0.4c-2.7-3.2-5.4-7.9-10.3-6c-0.3,0.1,1.3,2.3,1.8,2.3c1.5,0,3.1,0.1,4.6,0.1c0.3,0-1-2.2-1.7-2.3
			c-4-0.5-13.5-2-15.4,3.1c-0.2,0.6,1.3,2.5,1.9,2.3c4-1.3,14.6-5.8,17,0.2C131.9,114.1,133.8,115.8,133.6,115.3L133.6,115.3z"/>
	</g>
</g>
<g>
	<path class="st23" d="M90.5,112.5c0.1,0,0.3-0.1,0.3-0.2s0-0.3,0-0.4c-0.1-0.7-0.3-1.4-0.6-2.1c-0.1-0.3-0.2-0.5-0.5-0.6"/>
</g>
<g>
	<path class="st23" d="M89.6,112.9c-0.2-1.4-0.7-2.8-1.5-4.1"/>
</g>
<g>
	<path class="st23" d="M87.6,112.2L87.6,112.2c0-1.2-0.4-2.4-1.1-3.4"/>
</g>
<g>
	<path class="st23" d="M85.8,111.8c0-1.2-0.5-2.3-1.2-3.2"/>
</g>
<g>
	<path class="st23" d="M84.3,111.9c-0.1-1.2-0.6-2.4-1.5-3.3"/>
</g>
<g>
	<path class="st23" d="M83,111.3c-0.5-0.5-0.7-1.2-1.1-1.8c-0.3-0.6-0.7-1.3-1.4-1.5"/>
</g>
<g>
	<path class="st23" d="M80.3,109.8c-0.7-1-1.6-1.8-2.7-2.2"/>
</g>
<g>
	<path class="st23" d="M78.4,109.7c-0.7-0.6-1.5-1.2-2.3-1.6"/>
</g>
<g>
	<path class="st23" d="M76.1,109.9c-0.4-0.7-1.1-1.2-1.9-1.2"/>
</g>
<g>
	<path class="st23" d="M74.6,110.1c-0.6-0.5-1.4-0.7-2.1-0.6"/>
</g>
<g>
	<path class="st23" d="M73.4,110.3c-0.7,0-1.4,0.1-2.1,0.1"/>
</g>
<g>
	<path class="st23" d="M72.3,111.4c-0.6-0.3-1.4-0.1-1.8,0.5"/>
</g>
<g>
	<path class="st23" d="M71.4,112c-0.5-0.1-1.1,0.3-1.2,0.9"/>
</g>
<g>
	<path class="st23" d="M70.5,113c-0.3,0.1-0.5,0.4-0.6,0.6"/>
</g>
<g>
	<path class="st23" d="M91.7,113.4c0.7-1.3,0.6-3-0.2-4.2"/>
</g>
<g>
	<path class="st23" d="M114.1,113.7c-0.1-0.7-0.2-1.5-0.2-2.2c0-0.8,0.2-1.7,0.9-2.1"/>
</g>
<g>
	<path class="st23" d="M115.4,113.4c-0.2-0.5-0.3-1-0.3-1.5s0.1-1,0.2-1.5c0.1-0.4,0.2-0.9,0.6-1.1"/>
</g>
<g>
	<path class="st23" d="M116.7,113c-0.2-1.2-0.1-2.5,0.2-3.7c0.1-0.4,0.3-0.8,0.6-0.8"/>
</g>
<g>
	<path class="st23" d="M118.3,112.6c-0.1-1.2,0.1-2.5,0.5-3.7c0.1-0.3,0.3-0.6,0.5-0.5"/>
</g>
<g>
	<path class="st23" d="M119.9,111.9c0-0.6-0.1-1.3,0-1.9s0.3-1.3,0.8-1.7"/>
</g>
<g>
	<path class="st23" d="M121.5,111.7c0.1-0.7,0.2-1.4,0.2-2.1c0-0.3,0.1-0.5,0.2-0.8c0.2-0.2,0.5-0.4,0.7-0.2"/>
</g>
<g>
	<path class="st23" d="M122.9,110.9c0-0.7,0.3-1.3,0.6-2c0.1-0.2,0.2-0.5,0.4-0.7c0.2-0.2,0.5-0.3,0.7-0.3"/>
</g>
<g>
	<path class="st23" d="M124.4,110.4c-0.1-0.4,0.1-0.7,0.3-1s0.4-0.6,0.6-0.9c0.1-0.2,0.1-0.4,0.3-0.5c0.3-0.4,0.8-0.4,1.2-0.4"/>
</g>
<g>
	<path class="st23" d="M126.2,109.2c0.3-0.5,0.7-0.9,1.2-1.2s1.1-0.4,1.6-0.2"/>
</g>
<g>
	<path class="st23" d="M127.2,109.7c-0.2-0.2,0-0.5,0.2-0.7c0.6-0.5,1.6-0.5,2.2,0.1"/>
</g>
<g>
	<path class="st23" d="M129.1,110.3c0.8-0.4,1.8-0.1,2.3,0.6"/>
</g>
<g>
	<path class="st23" d="M130.7,111.6c0.8-0.2,1.6,0.2,2,0.9"/>
</g>
<g>
	<path class="st23" d="M132.3,113.4c0.5-0.1,1.1,0.3,1.3,0.8"/>
</g>
<g>
	<path class="st23" d="M133.5,115.5c0.2,0.2,0.4,0.4,0.6,0.5"/>
</g>
<path class="st1" d="M175.6,239.4l-7,9.8h-3.4v-10.4h-2.8v-2.3h2.8v-3.7h2.4v3.7h8V239.4z M167.6,246.8l5.8-8h-5.8V246.8z"/>
<path class="st2" d="M167.4,227.9c-4.6-4.4-9.3-8.8-9.3-13.2c0.1-2.5,2.2-4.5,4.6-4.4c2.1,0,3.3,0.9,4.3,2.8
	c-1.1-3.8-2.2-5.7-4.3-5.7h9.2c-2.1,0-3.3,1.9-4.3,5.7c1.1-1.8,2.2-2.8,4.3-2.8c2.5-0.1,4.6,1.9,4.6,4.4
	C176.7,219.1,172.1,223.5,167.4,227.9z"/>
</svg>
