<?xml version="1.0" encoding="utf-8"?>
<!-- Generator: Adobe Illustrator 20.0.0, SVG Export Plug-In . SVG Version: 6.00 Build 0)  -->
<svg version="1.1" id="Layer_1" xmlns="http://www.w3.org/2000/svg" xmlns:xlink="http://www.w3.org/1999/xlink" x="0px" y="0px"
	 viewBox="0 0 196 266.7" style="enable-background:new 0 0 196 266.7;" xml:space="preserve">
<style type="text/css">
	.st0{fill:#F8E4E3;}
	.st1{fill:#231F20;}
	.st2{fill:#010101;}
	.st3{fill:#58595B;}
	.st4{fill:#1D1611;}
	.st5{fill:#D39372;}
	.st6{fill:#DA9F7B;}
	.st7{fill:#8F3D30;}
	.st8{fill:#F8E8D7;}
	.st9{fill:#6B3720;}
	.st10{opacity:0.5;}
	.st11{fill:#BE6D48;}
	.st12{fill:#D28867;}
	.st13{fill:#381C15;}
	.st14{fill:#EBF4F0;}
	.st15{opacity:0.67;fill:#D7946D;}
	.st16{fill:#5F513B;}
	.st17{fill:#FFFFFF;}
	.st18{opacity:0.46;}
	.st19{opacity:0.15;}
</style>
<title>badbitchcards</title>
<path class="st0" d="M17.1,8.5h161.6c4.7,0,8.5,3.8,8.5,8.5v232.4c0,4.7-3.8,8.5-8.5,8.5H17.1c-4.7,0-8.5-3.8-8.5-8.5V17
	C8.6,12.3,12.4,8.5,17.1,8.5z"/>
<path class="st1" d="M25.2,26.4l4.8-4.4h-7.8v-2.3h11.1v2.2l-4.7,4.3c2.7-0.1,4.9,2,5,4.7c0,0.1,0,0.2,0,0.3c0,2.8-2.1,5.2-5.9,5.2
	s-5.9-2.5-6.1-5.1l2.4-0.5c0,1.9,1.6,3.5,3.5,3.5c0,0,0.1,0,0.1,0c2.2,0,3.5-1.4,3.5-3c0-1.7-1.3-3-3-3c-0.1,0-0.2,0-0.3,0
	c-0.5,0-1,0.1-1.4,0.2L25.2,26.4z"/>
<path class="st2" d="M33.1,50.5h-0.2c0.9-2.7-0.5-5.6-3.2-6.6C27,43,24,44.4,23.1,47.1c-0.4,1.1-0.4,2.3,0,3.4h-0.2
	c-2.8,0-5.1,2.3-5.1,5.2c0,2.8,2.3,5.1,5.2,5.1c1.6,0,3.1-0.8,4.1-2c-0.6,2.2-1.3,4.5-2.1,5.2h6.2c-0.8-0.7-1.6-3-2.1-5.2
	c1.7,2.3,5,2.7,7.2,1c2.3-1.7,2.7-5,1-7.2C36.2,51.3,34.7,50.5,33.1,50.5L33.1,50.5z M28.2,54L28.2,54z"/>
<path class="st1" d="M170.2,239.4l-4.8,4.4h7.8v2.3h-11.1v-2.2l4.7-4.3c-2.7,0.1-4.9-2-5-4.7c0-0.1,0-0.2,0-0.3
	c0-2.8,2.1-5.2,5.9-5.2s5.9,2.5,6.1,5.1l-2.4,0.6c0-1.9-1.6-3.5-3.5-3.5c0,0-0.1,0-0.1,0c-2.2,0-3.4,1.4-3.4,3c0,1.7,1.3,3,3,3
	c0.1,0,0.2,0,0.3,0c0.5,0,1-0.1,1.4-0.2L170.2,239.4z"/>
<path class="st2" d="M162.4,215.2h0.2c-0.9,2.7,0.5,5.6,3.2,6.6c2.7,0.9,5.6-0.5,6.6-3.2c0.4-1.1,0.4-2.3,0-3.4h0.2
	c2.8,0,5.2-2.3,5.1-5.2c0-2.8-2.3-5.2-5.2-5.1c-1.6,0-3.1,0.8-4.1,2c0.6-2.2,1.3-4.5,2.1-5.2h-6.2c0.8,0.7,1.6,3,2.1,5.2
	c-1.7-2.3-5-2.7-7.2-1c-2.3,1.7-2.7,5-1,7.2C159.2,214.5,160.7,215.2,162.4,215.2L162.4,215.2z M167.2,211.8L167.2,211.8z"/>
<path class="st3" d="M45.8,108.7c0,0-10.6,13.3,0,40.4C45.8,149.1,36,125.3,45.8,108.7z"/>
<g>
	<path class="st4" d="M100.9,44.4c0,0,18.5-6.1,40.3,14.4s19.2,76.9,18.9,83.9s-11.5,30-11.5,30s-6.2,3.1-15.7,0s-10.5,0-10.5,0
		s-36.9,0.3-42.4,0s-9.3,1.7-17.4,1.4s-12.8,0.3-14.8-1.4c-2-1.7-1.5-12.2-4.9-19.2c-3.4-7-9.3-17.1-5.2-33.4s9.1-45.2,27.6-63.8
		S100.9,44.4,100.9,44.4z"/>
	<path class="st3" d="M104.7,50.9c0,0,31.7,5.3,31.1,28.9C135.8,79.8,138.1,59.4,104.7,50.9z"/>
	<path class="st3" d="M44.6,108.5c0,0-10.6,13.3,0,40.4C44.6,148.9,34.8,125.2,44.6,108.5z"/>
	<path class="st5" d="M92.4,229.8c-28.5,0-41.3-36.2-41.3-36.2s25.3-8.6,26.3-29.4c1-20.8,47.2-18.3,48.7-3s2.5,30.7,8.1,35.4
		C132.2,207.3,126.9,228.6,92.4,229.8z"/>
	<path class="st4" d="M78,163c0,0,12.4,10.6,23,11c10.6,0.4,20.3-4.8,25.5-10l0.5-10.9l-52.6-1.5l0.6,8.8L78,163z"/>
	<path class="st6" d="M99,56.2c-25.4,0-31.8,31.5-31.8,34.6s0.3,55.5,1.7,57.7c1.4,2.2,10.3,22,35.1,22s34.3-29,34.3-29
		s-6.1-11.4-3.9-28.1c2.2-16.7-0.6-35.1-3.9-38.7c-3.3-3.6-7.8-8.6-14.8-12.5C111.1,59.4,99,56.2,99,56.2z"/>
	<path class="st7" d="M87.6,144.6c0,0,7.1-9.2,11.7-8.6c1.9,0,2.8,1.8,2.8,1.8s1.8-2,3.5-1.8s4.7-0.4,11.7,8.1c0,0-3,6.6-14.6,6.6
		S87.6,144.6,87.6,144.6z"/>
	<path class="st8" d="M94.7,142.6c0,0,4.2-1.6,6.6-0.7c0,0,4.8-0.7,9.1,0.7c0,0-7.8,0.7-8.6,1.2S99,142.6,94.7,142.6z"/>
	<path class="st9" d="M100.2,128.7c0,0-2-2.8-5.8-1.5"/>
	<path class="st9" d="M105.1,128.7c0,0,1.6-3.2,5.7-1.9"/>
	<g class="st10">
		<g>
			<path class="st11" d="M100.7,130c1.4,0.5,3,0.5,4.4,0c0.2-0.1,0.1-0.3,0-0.4c-0.2-0.1-0.5-0.1-0.7,0c-1,0.4-2.2,0.3-3.2,0
				C100.8,129.4,100.1,129.8,100.7,130L100.7,130z"/>
		</g>
	</g>
	<g>
		<g>
			<path class="st12" d="M113.1,123.1c1.3,2.3,2.5,6.7-1.4,6.8c-0.6,0-0.6,0.5,0,0.5c2.1-0.1,3.8-1,3.7-3.3
				c-0.1-1.4-0.6-2.9-1.3-4.2C113.9,122.7,112.9,122.8,113.1,123.1L113.1,123.1z"/>
		</g>
	</g>
	<g>
		<g>
			<path class="st12" d="M91.4,122.5c-1.1,2-2.7,6.1,0.1,7.4c0.3,0.1,1.2-0.1,0.7-0.4c-2.5-1.1-0.8-5.2,0.1-6.9
				C92.5,122.3,91.6,122.2,91.4,122.5L91.4,122.5z"/>
		</g>
	</g>
	<path class="st13" d="M75.8,110c0,0-3.5,1.2-4.4,0.4c0.4-3.6,4.9-9.6,16.8-5c0,0,0.5,2.3,0.9,2.5"/>
	<path class="st14" d="M75.8,110c0,0,2.7-3,7-3.2s6.4,1.3,8.6,2.7l-0.9,0.4c0,0-2.2,0.8-4.4,0.7c-1.2,0-4.3,0.1-6.7,0.1
		C77.5,110.6,76.4,110.3,75.8,110z"/>
	<path class="st15" d="M67.5,115.8c0,0,14,6.3,13.6,21.4c-0.4,15.1-12.2,11.3-12.2,11.3L67.5,115.8z"/>
	<path class="st15" d="M133.1,118.9c0.5-0.1-11.9,1.3-9.9,15c1.9,13.5,14,7.7,14,7.7"/>
	<path class="st13" d="M129,109l4.2-2.2c0,0-6.4-5.7-12.3-3.7c0,0-1,1.7-2.2,2.7"/>
	<path class="st14" d="M112.7,109c0,0,7.9-7.9,16.3,0c0,0-3.1,1.5-8.1,1.5C115.8,110.4,112.7,109,112.7,109z"/>
	<path class="st16" d="M80.3,107.3c0,0-1,2.5,0.8,3.7l4.9-0.5c0,0,1.7-1.6,0.7-3.3C86.7,107.2,82.9,106.2,80.3,107.3z"/>
	<path class="st16" d="M117.7,106c0,0-0.3,3,0.6,4.5l5.1-0.1c0,0,1.2-2.8,0.3-4.5C123.8,105.9,120.5,104.9,117.7,106z"/>
	<circle class="st4" cx="121" cy="107.6" r="1.3"/>
	<path class="st17" d="M121.4,106.9c0,0.1-0.5,0.3-0.7,0.3s-0.3-0.1-0.3-0.3s0.1-0.3,0.3-0.3S121.4,106.7,121.4,106.9z"/>
	<g class="st18">
		<g>
			<path class="st1" d="M120,107.4c0.1-0.4,0.5-0.6,0.9-0.6c0.5,0,0.8,0.1,1,0.5c0.2,0.8,1.4,0.4,1.2-0.3c-0.6-2.1-3.7-1.8-4.3,0.1
				C118.6,107.9,119.8,108.2,120,107.4L120,107.4z"/>
		</g>
	</g>
	<path class="st12" d="M112.4,109c0,0-0.6,0.1-0.6,0.6s0.9,0,1.8,0s8.4,2.6,15.5-0.6C129.1,109,122.1,111.8,112.4,109z"/>
	<path class="st12" d="M91.3,109.5c0,0,0.6,0.1,0.6,0.6s-0.9,0-1.8,0c-0.9,0-7.7,2.3-14.3-0.1C75.8,110,81.4,111.9,91.3,109.5z"/>
	<circle class="st4" cx="83.7" cy="108.5" r="1.4"/>
	<path class="st17" d="M84.2,108c0,0.1-0.5,0.3-0.7,0.3s-0.3-0.1-0.3-0.3s0.1-0.3,0.3-0.3S84.2,107.8,84.2,108z"/>
	<g class="st18">
		<g>
			<path class="st1" d="M82.6,108.7c0-0.5,0.7-0.8,1.1-0.9c0.6,0,0.9,0.3,1.1,0.9c0.2,0.8,1.4,0.4,1.2-0.3c-0.3-1.2-1.2-1.9-2.4-1.8
				c-0.6,0.1-1,0.2-1.4,0.7c-0.4,0.4-0.7,0.8-0.7,1.4C81.3,109.5,82.6,109.5,82.6,108.7L82.6,108.7z"/>
		</g>
	</g>
	<g>
		<path class="st4" d="M109.2,97.9C109.2,97.9,109.3,97.9,109.2,97.9c0.1-0.5,0.2-1,0.4-1.4c0.1-0.2,0.2-0.5,0.4-0.7
			c0.2-0.2,0.3-0.5,0.5-0.7"/>
	</g>
	<g>
		<path class="st4" d="M111.1,97.8C111.1,97.8,111.2,97.8,111.1,97.8c0.1-0.3,0.2-0.6,0.3-0.9c0.1-0.3,0.2-0.7,0.4-1
			c0.2-0.3,0.3-0.6,0.6-0.8c0.3-0.3,0.5-0.5,0.8-0.8"/>
	</g>
	<g>
		<path class="st4" d="M113.1,97.5C113.1,97.5,113.2,97.5,113.1,97.5c0.3-0.9,0.8-1.7,1.2-2.5c0.2-0.4,0.4-0.6,0.8-0.8
			c0.2-0.1,0.3-0.2,0.4-0.3c0.1,0,0.3-0.1,0.4-0.2"/>
	</g>
	<g>
		<path class="st4" d="M115.6,96.6c0-0.3,0.1-0.5,0.3-0.8c0.2-0.4,0.5-0.8,0.7-1.2c0.2-0.4,0.6-0.8,1-1.1c0.3-0.2,0.5-0.4,0.8-0.4"
			/>
	</g>
	<g>
		<path class="st4" d="M117.5,96.3c0-0.3,0.4-0.7,0.6-0.9c0.2-0.3,0.4-0.7,0.7-0.9c0.3-0.3,0.6-0.6,0.8-1c0.1-0.2,0.2-0.4,0.4-0.5
			c0.2-0.1,0.4-0.1,0.5-0.3"/>
	</g>
	<g>
		<path class="st4" d="M119.8,95.8c0.1,0,0.2-0.2,0.2-0.3c0.1-0.2,0.1-0.3,0.3-0.4c0.2-0.3,0.4-0.7,0.6-1c0.2-0.4,0.5-0.7,0.9-1
			c0.2-0.1,0.3-0.3,0.5-0.4c0.1-0.1,0.3-0.1,0.4-0.3"/>
	</g>
	<g>
		<path class="st4" d="M122.1,95.2c0-0.4,0.2-0.5,0.4-0.8c0.1-0.2,0.1-0.2,0.2-0.4c0.1-0.1,0.2-0.2,0.3-0.4c0.2-0.2,0.4-0.4,0.5-0.7
			c0.1-0.2,0.6-0.6,0.9-0.6"/>
	</g>
	<g>
		<path class="st4" d="M124.4,94.1C124.4,94.1,124.4,94.1,124.4,94.1c0.2-0.5,0.6-0.8,0.9-1.1c0.3-0.3,0.7-0.3,0.9-0.6"/>
	</g>
	<g>
		<path class="st4" d="M126.4,93.5c0.2,0,0.2-0.2,0.3-0.3c0.1-0.1,0.2-0.2,0.3-0.3c0.1-0.1,0.2-0.2,0.3-0.3c0.1-0.1,0.3-0.1,0.4-0.1
			c0.1-0.1,0.2-0.2,0.3-0.2"/>
	</g>
	<g>
		<path class="st4" d="M128,93.7c0-0.3,0.4-0.5,0.7-0.6c0.3-0.1,0.6-0.2,0.9-0.2"/>
	</g>
	<g>
		<path class="st4" d="M129.6,94.1c0.3,0,0.5-0.1,0.8-0.1c0.2,0,0.4,0,0.6,0c0.2,0,0.3,0.1,0.4,0.1"/>
	</g>
	<g>
		<path class="st4" d="M131.7,94.7c0.1,0,0.1,0.1,0.2,0.1c0.1,0.1,0.2,0.2,0.3,0.2c0.2,0.1,0.5,0,0.7,0"/>
	</g>
	<g>
		<path class="st4" d="M132.4,95.8c0.3,0,0.4,0.2,0.7,0.3c0.1,0.1,0.3,0.1,0.4,0.1c0.1,0.1,0.3,0.2,0.4,0.2"/>
	</g>
	<g>
		<path class="st4" d="M92.5,98.1c0-0.3,0-0.6,0-0.8c0-0.2-0.2-0.3-0.3-0.5C92,96.5,92,96.2,91.8,96c-0.1-0.2-0.3-0.3-0.4-0.4
			c-0.1-0.1-0.2-0.2-0.3-0.4c-0.2-0.2-0.5-0.2-0.7-0.5"/>
	</g>
	<g>
		<path class="st4" d="M90.4,98.2c0-0.4-0.1-0.8-0.3-1.2c-0.1-0.2-0.2-0.4-0.2-0.6c-0.1-0.2-0.2-0.3-0.3-0.5
			c-0.2-0.3-0.3-0.6-0.5-0.9c-0.1-0.2-0.3-0.3-0.5-0.4c-0.2-0.1-0.3-0.3-0.5-0.2"/>
	</g>
	<g>
		<path class="st4" d="M88.4,98C88.4,98,88.4,98,88.4,98c0-0.3,0-0.7-0.1-1c-0.1-0.4-0.2-0.7-0.4-1.1c-0.1-0.4-0.4-0.7-0.5-1
			c-0.1-0.2-0.2-0.3-0.3-0.4c-0.2-0.2-0.2-0.2-0.5-0.4"/>
	</g>
	<g>
		<path class="st4" d="M87,97.8c0-0.3-0.1-0.6-0.3-0.9c-0.2-0.4-0.4-0.8-0.6-1.1c-0.2-0.3-0.3-0.5-0.5-0.8c-0.1-0.3-0.5-0.8-0.8-0.8
			"/>
	</g>
	<g>
		<path class="st4" d="M85,97.5c0.2-0.2,0-0.5,0-0.7c-0.1-0.3-0.3-0.7-0.4-1c-0.1-0.3-0.3-0.5-0.4-0.8c-0.2-0.4-0.6-0.6-0.9-0.9"/>
	</g>
	<g>
		<path class="st4" d="M83.6,97.1c0-0.2-0.2-0.5-0.3-0.7c-0.2-0.3-0.3-0.6-0.5-1c-0.1-0.2-0.3-0.5-0.4-0.7c-0.2-0.4-0.6-0.5-0.9-0.7
			"/>
	</g>
	<g>
		<path class="st4" d="M81.8,96.6C81.8,96.7,81.8,96.7,81.8,96.6c0-0.2-0.2-0.5-0.3-0.8c-0.2-0.3-0.3-0.5-0.4-0.9
			c-0.1-0.3-0.3-0.5-0.5-0.7c-0.2-0.2-0.4-0.4-0.7-0.5"/>
	</g>
	<g>
		<path class="st4" d="M80.3,96.5c-0.2-0.1-0.3-0.4-0.4-0.6c-0.2-0.3-0.4-0.6-0.6-0.9c-0.4-0.4-1-1.2-1.6-1.1"/>
	</g>
	<g>
		<path class="st4" d="M78.6,96.2c0-0.2-0.3-0.5-0.4-0.6c-0.2-0.2-0.4-0.5-0.7-0.6c-0.3-0.2-0.5-0.4-0.8-0.6
			c-0.2-0.1-0.4-0.5-0.8-0.4"/>
	</g>
	<g>
		<path class="st4" d="M77.3,96.5c0-0.3-0.2-0.4-0.4-0.6c-0.2-0.2-0.3-0.3-0.5-0.5c-0.2-0.2-0.5-0.4-0.7-0.5
			c-0.2-0.1-0.3-0.2-0.5-0.3c-0.2-0.1-0.4-0.1-0.5-0.3"/>
	</g>
	<g>
		<path class="st4" d="M76.1,96.6c-0.2-0.1-0.3-0.3-0.5-0.4c-0.2-0.2-0.4-0.3-0.6-0.4c-0.5-0.3-0.9-0.5-1.5-0.5"/>
	</g>
	<g>
		<path class="st4" d="M74.7,96.4c-0.4,0-0.6-0.3-1-0.4c-0.4-0.1-0.9,0.1-1.4-0.1c0,0,0,0,0,0.1"/>
	</g>
	<g>
		<path class="st4" d="M72.2,96.6c-0.2,0-0.5,0-0.8,0c-0.3,0.1-0.5,0.4-0.8,0.4"/>
	</g>
	<g>
		<path class="st4" d="M71.3,97.6c-0.2,0-0.5,0.2-0.7,0.3c-0.1,0-0.2,0.1-0.3,0.1c-0.1,0.1-0.2,0.3-0.4,0.3"/>
	</g>
	<g>
		<path class="st4" d="M122.4,94.2"/>
	</g>
	<path class="st6" d="M100.7,45.9L99,56.2h-1.2C97.8,56.2,101.1,43.7,100.7,45.9z"/>
	<g class="st19">
		<g>
			<path class="st13" d="M71.6,97.5c0.9-2.1,7.4-0.4,8.8-0.1c3.5,0.7,7,0.9,10.4,1.7c1,0.2,3.4-3.4,2.4-3.6c-3.2-0.7-6.5-1-9.7-1.6
				c-2.6-0.5-5.3-1.3-8-0.7c-3.2,0.8-5.3,3.3-6.6,6.2C68.1,101.3,71.3,98.4,71.6,97.5L71.6,97.5z"/>
		</g>
	</g>
	<g class="st19">
		<g>
			<path class="st13" d="M133.2,96c-7-6.4-16.7-2.3-25-0.6c1,1.1,2.1,2.2,3.1,3.2c3.3-2.1,7-2.4,10.8-2.9c3.5-0.5,7.2-1.5,10.4,0.3
				c0.6,0.3-1.5-2.6-2.4-3.1c-3.5-1.9-7.2-1-10.9-0.5c-3.8,0.5-7.7,0.8-11,3c-0.4,0.3,2.3,3.4,3.1,3.2c5.8-1.2,17-5.8,22-1.2
				C135.7,99.5,134.4,97,133.2,96L133.2,96z"/>
		</g>
	</g>
</g>
</svg>
