<?xml version="1.0" encoding="utf-8"?>
<!-- Generator: Adobe Illustrator 20.0.0, SVG Export Plug-In . SVG Version: 6.00 Build 0)  -->
<svg version="1.1" id="Layer_1" xmlns="http://www.w3.org/2000/svg" xmlns:xlink="http://www.w3.org/1999/xlink" x="0px" y="0px"
	 viewBox="0 0 189 263" style="enable-background:new 0 0 189 263;" xml:space="preserve">
<style type="text/css">
	.st0{fill:#FAE5E5;}
	.st1{enable-background:new    ;}
	.st2{fill:#221F20;}
</style>
<title>Group 28</title>
<desc>Created with Sketch.</desc>
<g id="Page-1">
	<g id="Desktop-Copy-2" transform="translate(-83.000000, -1934.000000)">
		<g id="Group-28" transform="translate(83.000000, 1934.000000)">
			<path id="Rectangle-2-Copy-24" class="st0" d="M8,0h173c4.4,0,8,3.6,8,8v247c0,4.4-3.6,8-8,8H8c-4.4,0-8-3.6-8-8V8
				C0,3.6,3.6,0,8,0z"/>
			<g class="st1">
				<path class="st2" d="M58.4,23.8c-0.1-0.7-0.7-1.7-2.1-1.7c-1.1,0-1.9,0.7-1.9,1.7c0,0.7,0.4,1.3,1.3,1.4l1.5,0.3
					c1.7,0.4,2.6,1.4,2.6,2.8c0,1.5-1.3,2.9-3.4,2.9c-2.4,0-3.5-1.5-3.7-3l1.3-0.4c0.1,1.1,0.9,2.1,2.4,2.1c1.4,0,2-0.7,2-1.6
					c0-0.7-0.5-1.3-1.5-1.5l-1.4-0.3C54,26.2,53,25.3,53,23.8c0-1.6,1.4-3,3.3-3c2.2,0,3.1,1.4,3.4,2.5L58.4,23.8z"/>
				<path class="st2" d="M63.5,31.2c-1.6,0-2.5-1.2-2.5-2.7v-4.2h1.3v4c0,0.9,0.4,1.7,1.5,1.7c1.1,0,1.6-0.7,1.6-1.7v-4.1h1.3v5.5
					c0,0.5,0,1,0.1,1.2h-1.3c0-0.2-0.1-0.5-0.1-0.8C65.1,30.9,64.2,31.2,63.5,31.2z"/>
				<path class="st2" d="M69.4,28.8c0.1,0.7,0.6,1.3,1.6,1.3c0.7,0,1.1-0.4,1.1-0.9c0-0.4-0.3-0.7-0.9-0.9l-1.1-0.3
					c-1.1-0.2-1.7-0.9-1.7-1.9c0-1.1,1.1-2.1,2.4-2.1c1.8,0,2.4,1.2,2.6,1.8l-1.2,0.4c-0.1-0.3-0.3-1.1-1.4-1.1
					c-0.7,0-1.1,0.4-1.1,0.9c0,0.4,0.3,0.7,0.8,0.8l1.1,0.2c1.2,0.3,1.9,1,1.9,2c0,1-0.8,2.1-2.5,2.1c-1.8,0-2.6-1.2-2.7-2
					L69.4,28.8z"/>
				<path class="st2" d="M76.6,27.1l1.8-0.3c0.4-0.1,0.5-0.3,0.5-0.5c0-0.7-0.4-1.2-1.5-1.2c-0.9,0-1.4,0.6-1.5,1.4l-1.3-0.3
					c0.1-1.3,1.3-2.2,2.8-2.2c2,0,2.8,1.1,2.8,2.5v3.4c0,0.6,0.1,0.9,0.1,1.1h-1.3c0-0.2-0.1-0.4-0.1-0.9c-0.3,0.5-1,1.1-2.2,1.1
					c-1.4,0-2.3-1-2.3-2C74.6,28,75.4,27.3,76.6,27.1z M78.9,28.1v-0.3l-2.1,0.3c-0.6,0.1-1,0.4-1,1c0,0.5,0.4,1,1.1,1
					C78.1,30.1,78.9,29.6,78.9,28.1z"/>
				<path class="st2" d="M83.5,31h-1.3v-6.7h1.3v1c0.5-0.8,1.3-1.2,2.1-1.2c1.6,0,2.4,1.2,2.4,2.7V31h-1.3v-4c0-0.9-0.4-1.7-1.6-1.7
					c-1,0-1.6,0.8-1.6,1.8V31z"/>
				<path class="st2" d="M98.7,23.8c-0.1-0.7-0.7-1.7-2.1-1.7c-1.1,0-1.9,0.7-1.9,1.7c0,0.7,0.4,1.3,1.3,1.4l1.5,0.3
					c1.7,0.4,2.6,1.4,2.6,2.8c0,1.5-1.3,2.9-3.4,2.9c-2.4,0-3.5-1.5-3.7-3l1.3-0.4c0.1,1.1,0.9,2.1,2.4,2.1c1.4,0,2-0.7,2-1.6
					c0-0.7-0.5-1.3-1.5-1.5l-1.4-0.3c-1.4-0.3-2.4-1.2-2.4-2.7c0-1.6,1.4-3,3.3-3c2.2,0,3.1,1.4,3.4,2.5L98.7,23.8z"/>
				<path class="st2" d="M107.9,27.6c0,2.1-1.4,3.6-3.4,3.6c-2,0-3.4-1.5-3.4-3.6c0-2,1.4-3.6,3.4-3.6
					C106.4,24.1,107.9,25.6,107.9,27.6z M106.5,27.6c0-1.6-1-2.4-2.1-2.4c-1.1,0-2.1,0.8-2.1,2.4c0,1.6,1,2.4,2.1,2.4
					C105.6,30,106.5,29.2,106.5,27.6z"/>
				<path class="st2" d="M110.8,31h-1.3v-6.7h1.3v1c0.5-0.8,1.3-1.2,2.1-1.2c1.6,0,2.4,1.2,2.4,2.7V31h-1.3v-4
					c0-0.9-0.4-1.7-1.6-1.7c-1,0-1.6,0.8-1.6,1.8V31z"/>
				<path class="st2" d="M119,24.3h1.5v1.2H119V29c0,0.6,0.3,0.9,0.9,0.9c0.2,0,0.4,0,0.5-0.1v1.1c-0.1,0-0.4,0.1-0.9,0.1
					c-1.1,0-1.9-0.7-1.9-1.9v-3.7h-1.3v-1.2h0.4c0.7,0,1-0.4,1-1v-1.1h1.2V24.3z"/>
				<path class="st2" d="M123.8,27.1l1.8-0.3c0.4-0.1,0.5-0.3,0.5-0.5c0-0.7-0.4-1.2-1.5-1.2c-0.9,0-1.4,0.6-1.5,1.4l-1.3-0.3
					c0.1-1.3,1.3-2.2,2.8-2.2c2,0,2.8,1.1,2.8,2.5v3.4c0,0.6,0.1,0.9,0.1,1.1h-1.3c0-0.2-0.1-0.4-0.1-0.9c-0.3,0.5-1,1.1-2.2,1.1
					c-1.4,0-2.3-1-2.3-2C121.8,28,122.6,27.3,123.8,27.1z M126.1,28.1v-0.3l-2.1,0.3c-0.6,0.1-1,0.4-1,1c0,0.5,0.4,1,1.1,1
					C125.3,30.1,126.1,29.6,126.1,28.1z"/>
				<path class="st2" d="M130.2,31.1c0.1,0.9,0.8,1.7,1.8,1.7c1.4,0,2.1-0.7,2.1-2.2v-1c-0.3,0.6-1.1,1.1-2.1,1.1
					c-1.8,0-3.1-1.4-3.1-3.3c0-1.8,1.2-3.3,3.1-3.3c1,0,1.7,0.4,2.1,1.1v-0.9h1.3v6.2c0,1.7-0.8,3.4-3.4,3.4c-1.7,0-2.9-1.1-3.1-2.5
					L130.2,31.1z M134.2,27.4c0-1.3-0.8-2.2-1.9-2.2c-1.2,0-1.9,0.9-1.9,2.2c0,1.3,0.8,2.2,1.9,2.2
					C133.4,29.6,134.2,28.7,134.2,27.4z"/>
			</g>
			<g id="Group-3-Copy-24" transform="translate(5.500000, 44.000000)">
				<circle id="Oval-2" cx="0.8" cy="0.8" r="0.8"/>
				<circle id="Oval-2-Copy-16" cx="60.7" cy="0.8" r="0.8"/>
				<circle id="Oval-2-Copy-32" cx="120.6" cy="0.8" r="0.8"/>
				<circle id="Oval-2-Copy-8" cx="30.7" cy="0.8" r="0.8"/>
				<circle id="Oval-2-Copy-17" cx="90.6" cy="0.8" r="0.8"/>
				<circle id="Oval-2-Copy-33" cx="150.5" cy="0.8" r="0.8"/>
				<circle id="Oval-2-Copy-4" cx="15.7" cy="0.8" r="0.8"/>
				<circle id="Oval-2-Copy-18" cx="75.6" cy="0.8" r="0.8"/>
				<circle id="Oval-2-Copy-34" cx="135.6" cy="0.8" r="0.8"/>
				<circle id="Oval-2-Copy-9" cx="45.7" cy="0.8" r="0.8"/>
				<circle id="Oval-2-Copy-19" cx="105.6" cy="0.8" r="0.8"/>
				<circle id="Oval-2-Copy-35" cx="165.5" cy="0.8" r="0.8"/>
				<circle id="Oval-2-Copy-2" cx="8.2" cy="0.8" r="0.8"/>
				<circle id="Oval-2-Copy-20" cx="68.2" cy="0.8" r="0.8"/>
				<circle id="Oval-2-Copy-36" cx="128.1" cy="0.8" r="0.8"/>
				<circle id="Oval-2-Copy-10" cx="38.2" cy="0.8" r="0.8"/>
				<circle id="Oval-2-Copy-21" cx="98.1" cy="0.8" r="0.8"/>
				<circle id="Oval-2-Copy-37" cx="158" cy="0.8" r="0.8"/>
				<circle id="Oval-2-Copy-5" cx="23.2" cy="0.8" r="0.8"/>
				<circle id="Oval-2-Copy-22" cx="83.1" cy="0.8" r="0.8"/>
				<circle id="Oval-2-Copy-38" cx="143" cy="0.8" r="0.8"/>
				<circle id="Oval-2-Copy-11" cx="53.2" cy="0.8" r="0.8"/>
				<circle id="Oval-2-Copy-23" cx="113.1" cy="0.8" r="0.8"/>
				<circle id="Oval-2-Copy-39" cx="173" cy="0.8" r="0.8"/>
				<circle id="Oval-2-Copy" cx="4.5" cy="0.8" r="0.8"/>
				<circle id="Oval-2-Copy-24" cx="64.4" cy="0.8" r="0.8"/>
				<circle id="Oval-2-Copy-40" cx="124.3" cy="0.8" r="0.8"/>
				<circle id="Oval-2-Copy-12" cx="34.5" cy="0.8" r="0.8"/>
				<circle id="Oval-2-Copy-25" cx="94.4" cy="0.8" r="0.8"/>
				<circle id="Oval-2-Copy-41" cx="154.3" cy="0.8" r="0.8"/>
				<circle id="Oval-2-Copy-6" cx="19.5" cy="0.8" r="0.8"/>
				<circle id="Oval-2-Copy-26" cx="79.4" cy="0.8" r="0.8"/>
				<circle id="Oval-2-Copy-42" cx="139.3" cy="0.8" r="0.8"/>
				<circle id="Oval-2-Copy-13" cx="49.4" cy="0.8" r="0.8"/>
				<circle id="Oval-2-Copy-27" cx="109.3" cy="0.8" r="0.8"/>
				<circle id="Oval-2-Copy-43" cx="169.3" cy="0.8" r="0.8"/>
				<circle id="Oval-2-Copy-3" cx="12" cy="0.8" r="0.8"/>
				<circle id="Oval-2-Copy-28" cx="71.9" cy="0.8" r="0.8"/>
				<circle id="Oval-2-Copy-44" cx="131.8" cy="0.8" r="0.8"/>
				<circle id="Oval-2-Copy-14" cx="41.9" cy="0.8" r="0.8"/>
				<circle id="Oval-2-Copy-29" cx="101.9" cy="0.8" r="0.8"/>
				<circle id="Oval-2-Copy-45" cx="161.8" cy="0.8" r="0.8"/>
				<circle id="Oval-2-Copy-7" cx="27" cy="0.8" r="0.8"/>
				<circle id="Oval-2-Copy-30" cx="86.9" cy="0.8" r="0.8"/>
				<circle id="Oval-2-Copy-46" cx="146.8" cy="0.8" r="0.8"/>
				<circle id="Oval-2-Copy-15" cx="56.9" cy="0.8" r="0.8"/>
				<circle id="Oval-2-Copy-31" cx="116.8" cy="0.8" r="0.8"/>
				<circle id="Oval-2-Copy-47" cx="176.8" cy="0.8" r="0.8"/>
			</g>
			<g class="st1">
				<path class="st2" d="M14.1,59.3c-0.1-0.5-0.5-1.1-1.4-1.1c-0.7,0-1.2,0.5-1.2,1.1c0,0.5,0.3,0.8,0.8,0.9l1,0.2
					c1.1,0.2,1.7,0.9,1.7,1.8c0,1-0.8,1.9-2.2,1.9c-1.5,0-2.3-1-2.4-1.9l0.8-0.3c0.1,0.7,0.6,1.4,1.5,1.4c0.9,0,1.3-0.5,1.3-1
					c0-0.5-0.3-0.9-1-1l-0.9-0.2c-0.9-0.2-1.6-0.8-1.6-1.7c0-1,0.9-1.9,2.1-1.9c1.4,0,2,0.9,2.2,1.6L14.1,59.3z"/>
				<path class="st2" d="M17.4,64.1c-1,0-1.6-0.8-1.6-1.7v-2.7h0.8v2.6c0,0.6,0.3,1.1,1,1.1c0.7,0,1-0.5,1-1.1v-2.6h0.8v3.5
					c0,0.3,0,0.6,0,0.8h-0.8c0-0.1,0-0.3,0-0.5C18.4,63.9,17.9,64.1,17.4,64.1z"/>
				<path class="st2" d="M21.2,62.6c0.1,0.5,0.4,0.8,1,0.8c0.5,0,0.7-0.3,0.7-0.6c0-0.3-0.2-0.5-0.6-0.6l-0.7-0.2
					c-0.7-0.1-1.1-0.6-1.1-1.2c0-0.7,0.7-1.4,1.5-1.4c1.2,0,1.6,0.8,1.6,1.2L23,61c0-0.2-0.2-0.7-0.9-0.7c-0.4,0-0.7,0.3-0.7,0.6
					c0,0.3,0.2,0.5,0.5,0.5l0.7,0.2c0.8,0.2,1.2,0.6,1.2,1.3c0,0.6-0.5,1.3-1.6,1.3c-1.2,0-1.7-0.8-1.8-1.3L21.2,62.6z"/>
				<path class="st2" d="M25.8,61.5l1.2-0.2c0.3,0,0.3-0.2,0.3-0.3c0-0.4-0.3-0.8-0.9-0.8c-0.6,0-0.9,0.4-1,0.9l-0.8-0.2
					c0.1-0.8,0.8-1.4,1.8-1.4c1.3,0,1.8,0.7,1.8,1.6v2.2c0,0.4,0,0.6,0.1,0.7h-0.8c0-0.1,0-0.3,0-0.6c-0.2,0.3-0.6,0.7-1.4,0.7
					c-0.9,0-1.4-0.6-1.4-1.3C24.5,62.1,25.1,61.6,25.8,61.5z M27.3,62.1v-0.2L26,62.1c-0.4,0.1-0.6,0.3-0.6,0.6
					c0,0.3,0.3,0.6,0.7,0.6C26.8,63.4,27.3,63.1,27.3,62.1z"/>
				<path class="st2" d="M30.3,64h-0.8v-4.3h0.8v0.6c0.3-0.5,0.8-0.7,1.3-0.7c1,0,1.5,0.7,1.5,1.7V64h-0.8v-2.6c0-0.6-0.3-1.1-1-1.1
					c-0.7,0-1,0.5-1,1.2V64z"/>
				<path class="st2" d="M40,59.7l1.1,3.3l1-3.3h0.9L41.5,64h-0.9l-1.2-3.3L38.4,64h-0.9l-1.4-4.3H37l1,3.3l1.1-3.3H40z"/>
				<path class="st2" d="M44.7,61.5l1.2-0.2c0.3,0,0.3-0.2,0.3-0.3c0-0.4-0.3-0.8-0.9-0.8c-0.6,0-0.9,0.4-1,0.9l-0.8-0.2
					c0.1-0.8,0.8-1.4,1.8-1.4c1.3,0,1.8,0.7,1.8,1.6v2.2c0,0.4,0,0.6,0.1,0.7h-0.8c0-0.1,0-0.3,0-0.6c-0.2,0.3-0.6,0.7-1.4,0.7
					c-0.9,0-1.4-0.6-1.4-1.3C43.4,62.1,44,61.6,44.7,61.5z M46.2,62.1v-0.2l-1.3,0.2c-0.4,0.1-0.6,0.3-0.6,0.6
					c0,0.3,0.3,0.6,0.7,0.6C45.7,63.4,46.2,63.1,46.2,62.1z"/>
				<path class="st2" d="M48.7,62.6c0.1,0.5,0.4,0.8,1,0.8c0.5,0,0.7-0.3,0.7-0.6c0-0.3-0.2-0.5-0.6-0.6l-0.7-0.2
					c-0.7-0.1-1.1-0.6-1.1-1.2c0-0.7,0.7-1.4,1.5-1.4c1.2,0,1.6,0.8,1.6,1.2L50.5,61c0-0.2-0.2-0.7-0.9-0.7c-0.4,0-0.7,0.3-0.7,0.6
					c0,0.3,0.2,0.5,0.5,0.5l0.7,0.2c0.8,0.2,1.2,0.6,1.2,1.3c0,0.6-0.5,1.3-1.6,1.3c-1.2,0-1.7-0.8-1.8-1.3L48.7,62.6z"/>
				<path class="st2" d="M55.7,59.7h0.9v0.8h-0.9v2.3c0,0.4,0.2,0.6,0.6,0.6c0.1,0,0.3,0,0.3,0V64c-0.1,0-0.3,0.1-0.6,0.1
					c-0.7,0-1.2-0.5-1.2-1.2v-2.4H54v-0.8h0.2c0.5,0,0.7-0.3,0.7-0.7v-0.7h0.8V59.7z"/>
				<path class="st2" d="M58.6,64h-0.8v-6.5h0.8v2.7c0.3-0.5,0.8-0.6,1.3-0.6c1,0,1.5,0.7,1.5,1.7V64h-0.8v-2.6c0-0.6-0.3-1.1-1-1.1
					c-0.6,0-1,0.5-1,1.1V64z"/>
				<path class="st2" d="M66.5,62.8c-0.2,0.8-0.9,1.4-1.9,1.4c-1.2,0-2.2-0.8-2.2-2.3c0-1.4,1-2.3,2.1-2.3c1.3,0,2.1,0.9,2.1,2.3
					c0,0.1,0,0.2,0,0.3h-3.3c0,0.8,0.6,1.3,1.3,1.3c0.7,0,1.1-0.4,1.2-0.9L66.5,62.8z M65.7,61.4c0-0.6-0.4-1.1-1.2-1.1
					c-0.7,0-1.1,0.5-1.2,1.1H65.7z"/>
				<path class="st2" d="M72.8,63.3c-0.2,0.4-0.7,0.8-1.3,0.8c-1.3,0-2.1-1-2.1-2.3c0-1.2,0.8-2.3,2.1-2.3c0.8,0,1.2,0.4,1.3,0.7
					v-2.8h0.8v5.7c0,0.4,0,0.7,0,0.8h-0.8C72.8,63.9,72.8,63.7,72.8,63.3L72.8,63.3z M71.6,63.4c0.8,0,1.3-0.7,1.3-1.6
					c0-0.9-0.5-1.5-1.2-1.5c-0.8,0-1.3,0.6-1.3,1.5S70.8,63.4,71.6,63.4z"/>
				<path class="st2" d="M78.8,62.8c-0.2,0.8-0.9,1.4-1.9,1.4c-1.2,0-2.2-0.8-2.2-2.3c0-1.4,1-2.3,2.1-2.3c1.3,0,2.1,0.9,2.1,2.3
					c0,0.1,0,0.2,0,0.3h-3.3c0,0.8,0.6,1.3,1.3,1.3c0.7,0,1.1-0.4,1.2-0.9L78.8,62.8z M78,61.4c0-0.6-0.4-1.1-1.2-1.1
					c-0.7,0-1.1,0.5-1.2,1.1H78z"/>
				<path class="st2" d="M82.1,57.5v0.8c0,0-0.2-0.1-0.4-0.1c-0.3,0-0.7,0.1-0.7,0.7v0.7h2.9V64H83v-3.6h-2V64h-0.9v-3.6h-0.8v-0.8
					h0.8v-0.7c0-1,0.6-1.5,1.4-1.5C81.8,57.5,82,57.5,82.1,57.5z M83.4,57.4c0.3,0,0.6,0.3,0.6,0.6c0,0.3-0.3,0.6-0.6,0.6
					c-0.3,0-0.6-0.3-0.6-0.6C82.8,57.7,83.1,57.4,83.4,57.4z"/>
				<path class="st2" d="M86.1,64h-0.8v-4.3h0.8v0.6c0.3-0.5,0.8-0.7,1.3-0.7c1,0,1.5,0.7,1.5,1.7V64h-0.8v-2.6c0-0.6-0.3-1.1-1-1.1
					c-0.7,0-1,0.5-1,1.2V64z"/>
				<path class="st2" d="M90.7,57.4c0.3,0,0.6,0.3,0.6,0.6c0,0.3-0.3,0.6-0.6,0.6c-0.3,0-0.6-0.3-0.6-0.6
					C90.1,57.7,90.4,57.4,90.7,57.4z M90.3,64v-4.3h0.8V64H90.3z"/>
				<path class="st2" d="M93.6,59.7h0.9v0.8h-0.9v2.3c0,0.4,0.2,0.6,0.6,0.6c0.1,0,0.3,0,0.3,0V64C94.5,64,94.3,64,94,64
					c-0.7,0-1.2-0.5-1.2-1.2v-2.4H92v-0.8h0.2c0.5,0,0.7-0.3,0.7-0.7v-0.7h0.8V59.7z"/>
				<path class="st2" d="M96.1,57.4c0.3,0,0.6,0.3,0.6,0.6c0,0.3-0.3,0.6-0.6,0.6c-0.3,0-0.6-0.3-0.6-0.6
					C95.5,57.7,95.7,57.4,96.1,57.4z M95.7,64v-4.3h0.8V64H95.7z"/>
				<path class="st2" d="M102,61.8c0,1.3-0.9,2.3-2.2,2.3c-1.3,0-2.2-1-2.2-2.3c0-1.3,0.9-2.3,2.2-2.3C101,59.5,102,60.5,102,61.8z
					 M101.1,61.8c0-1-0.6-1.5-1.4-1.5c-0.7,0-1.3,0.5-1.3,1.5c0,1,0.6,1.5,1.3,1.5C100.5,63.4,101.1,62.8,101.1,61.8z"/>
				<path class="st2" d="M103.8,64H103v-4.3h0.8v0.6c0.3-0.5,0.8-0.7,1.3-0.7c1,0,1.5,0.7,1.5,1.7V64h-0.8v-2.6c0-0.6-0.3-1.1-1-1.1
					c-0.7,0-1,0.5-1,1.2V64z"/>
				<path class="st2" d="M114.3,61.8c0,1.3-0.9,2.3-2.2,2.3c-1.3,0-2.2-1-2.2-2.3c0-1.3,0.9-2.3,2.2-2.3
					C113.4,59.5,114.3,60.5,114.3,61.8z M113.4,61.8c0-1-0.6-1.5-1.3-1.5c-0.7,0-1.4,0.5-1.4,1.5c0,1,0.6,1.5,1.4,1.5
					C112.8,63.4,113.4,62.8,113.4,61.8z"/>
				<path class="st2" d="M116.4,60.4V64h-0.9v-3.6h-0.8v-0.8h0.8v-0.7c0-1,0.6-1.5,1.4-1.5c0.3,0,0.5,0.1,0.5,0.1v0.8
					c0,0-0.2-0.1-0.4-0.1c-0.3,0-0.7,0.1-0.7,0.7v0.7h1v0.8H116.4z"/>
				<path class="st2" d="M121.6,61.5l1.2-0.2c0.3,0,0.3-0.2,0.3-0.3c0-0.4-0.3-0.8-0.9-0.8c-0.6,0-0.9,0.4-1,0.9l-0.8-0.2
					c0.1-0.8,0.8-1.4,1.8-1.4c1.3,0,1.8,0.7,1.8,1.6v2.2c0,0.4,0,0.6,0.1,0.7h-0.8c0-0.1,0-0.3,0-0.6c-0.2,0.3-0.6,0.7-1.4,0.7
					c-0.9,0-1.4-0.6-1.4-1.3C120.3,62.1,120.9,61.6,121.6,61.5z M123.1,62.1v-0.2l-1.3,0.2c-0.4,0.1-0.6,0.3-0.6,0.6
					c0,0.3,0.3,0.6,0.7,0.6C122.5,63.4,123.1,63.1,123.1,62.1z"/>
				<path class="st2" d="M127.4,59.7h0.8v4.8c0,0.8-0.4,1.3-1.2,1.3c-0.3,0-0.4,0-0.5-0.1v-0.7c0,0,0.1,0,0.3,0
					c0.4,0,0.6-0.2,0.6-0.6V59.7z M127.8,57.4c0.3,0,0.6,0.3,0.6,0.6c0,0.3-0.3,0.6-0.6,0.6c-0.3,0-0.6-0.3-0.6-0.6
					C127.2,57.7,127.5,57.4,127.8,57.4z"/>
				<path class="st2" d="M130.7,61.5l1.2-0.2c0.3,0,0.3-0.2,0.3-0.3c0-0.4-0.3-0.8-0.9-0.8c-0.6,0-0.9,0.4-1,0.9l-0.8-0.2
					c0.1-0.8,0.8-1.4,1.8-1.4c1.3,0,1.8,0.7,1.8,1.6v2.2c0,0.4,0,0.6,0.1,0.7h-0.8c0-0.1,0-0.3,0-0.6c-0.2,0.3-0.6,0.7-1.4,0.7
					c-0.9,0-1.4-0.6-1.4-1.3C129.4,62.1,130,61.6,130.7,61.5z M132.2,62.1v-0.2l-1.3,0.2c-0.4,0.1-0.6,0.3-0.6,0.6
					c0,0.3,0.3,0.6,0.7,0.6C131.7,63.4,132.2,63.1,132.2,62.1z"/>
				<path class="st2" d="M134.8,61.8c0,1,0.6,1.5,1.3,1.5c0.8,0,1.1-0.5,1.2-0.9l0.7,0.3c-0.2,0.6-0.8,1.4-2,1.4
					c-1.3,0-2.2-1-2.2-2.3c0-1.4,0.9-2.3,2.2-2.3c1.2,0,1.7,0.7,1.9,1.4l-0.8,0.3c-0.1-0.4-0.4-0.9-1.2-0.9
					C135.5,60.3,134.8,60.8,134.8,61.8z"/>
				<path class="st2" d="M141.1,61.5L143,64h-1.1l-1.4-1.9l-0.6,0.6V64H139v-6.5h0.8v4.1l1.9-1.9h1.2L141.1,61.5z"/>
				<path class="st2" d="M150,61.8c0,1.3-0.9,2.3-2.2,2.3c-1.3,0-2.2-1-2.2-2.3c0-1.3,0.9-2.3,2.2-2.3C149.1,59.5,150,60.5,150,61.8
					z M149.1,61.8c0-1-0.6-1.5-1.4-1.5c-0.7,0-1.3,0.5-1.3,1.5c0,1,0.6,1.5,1.3,1.5C148.5,63.4,149.1,62.8,149.1,61.8z"/>
				<path class="st2" d="M152.2,60.4V64h-0.9v-3.6h-0.8v-0.8h0.8v-0.7c0-1,0.6-1.5,1.4-1.5c0.3,0,0.5,0.1,0.5,0.1v0.8
					c0,0-0.2-0.1-0.4-0.1c-0.3,0-0.7,0.1-0.7,0.7v0.7h1v0.8H152.2z"/>
				<path class="st2" d="M157.3,61.5l1.2-0.2c0.3,0,0.3-0.2,0.3-0.3c0-0.4-0.3-0.8-0.9-0.8c-0.6,0-0.9,0.4-1,0.9l-0.8-0.2
					c0.1-0.8,0.8-1.4,1.8-1.4c1.3,0,1.8,0.7,1.8,1.6v2.2c0,0.4,0,0.6,0.1,0.7h-0.8c0-0.1,0-0.3,0-0.6c-0.2,0.3-0.6,0.7-1.4,0.7
					c-0.9,0-1.4-0.6-1.4-1.3C156,62.1,156.6,61.6,157.3,61.5z M158.8,62.1v-0.2l-1.3,0.2c-0.4,0.1-0.6,0.3-0.6,0.6
					c0,0.3,0.3,0.6,0.7,0.6C158.3,63.4,158.8,63.1,158.8,62.1z"/>
				<path class="st2" d="M160.9,64v-6.5h0.8V64H160.9z"/>
				<path class="st2" d="M163.2,64v-6.5h0.8V64H163.2z"/>
			</g>
			<g class="st1">
				<path class="st2" d="M11.9,70.7h0.9v0.8h-0.9v2.3c0,0.4,0.2,0.6,0.6,0.6c0.1,0,0.3,0,0.3,0V75c-0.1,0-0.3,0.1-0.6,0.1
					c-0.7,0-1.2-0.5-1.2-1.2v-2.4h-0.8v-0.8h0.2c0.5,0,0.7-0.3,0.7-0.7v-0.7h0.8V70.7z"/>
				<path class="st2" d="M16.2,71.5c-0.1,0-0.3,0-0.4,0c-0.7,0-1.2,0.4-1.2,1.3V75h-0.8v-4.3h0.8v0.8c0.3-0.7,0.9-0.8,1.3-0.8
					c0.1,0,0.2,0,0.3,0V71.5z"/>
				<path class="st2" d="M18.1,72.5l1.2-0.2c0.3,0,0.3-0.2,0.3-0.3c0-0.4-0.3-0.8-0.9-0.8c-0.6,0-0.9,0.4-1,0.9l-0.8-0.2
					c0.1-0.8,0.8-1.4,1.8-1.4c1.3,0,1.8,0.7,1.8,1.6v2.2c0,0.4,0,0.6,0.1,0.7h-0.8c0-0.1,0-0.3,0-0.6c-0.2,0.3-0.6,0.7-1.4,0.7
					c-0.9,0-1.4-0.6-1.4-1.3C16.8,73.1,17.3,72.6,18.1,72.5z M19.6,73.1v-0.2l-1.3,0.2c-0.4,0.1-0.6,0.3-0.6,0.6
					c0,0.3,0.3,0.6,0.7,0.6C19,74.4,19.6,74.1,19.6,73.1z"/>
				<path class="st2" d="M24.7,74.3c-0.2,0.4-0.7,0.8-1.3,0.8c-1.3,0-2.1-1-2.1-2.3c0-1.2,0.8-2.3,2.1-2.3c0.8,0,1.2,0.4,1.3,0.7
					v-2.8h0.8v5.7c0,0.4,0,0.7,0,0.8h-0.8C24.8,74.9,24.7,74.7,24.7,74.3L24.7,74.3z M23.5,74.4c0.8,0,1.3-0.7,1.3-1.6
					c0-0.9-0.5-1.5-1.2-1.5c-0.8,0-1.3,0.6-1.3,1.5S22.7,74.4,23.5,74.4z"/>
				<path class="st2" d="M30.7,73.8c-0.2,0.8-0.9,1.4-1.9,1.4c-1.2,0-2.2-0.8-2.2-2.3c0-1.4,1-2.3,2.1-2.3c1.3,0,2.1,0.9,2.1,2.3
					c0,0.1,0,0.2,0,0.3h-3.3c0,0.8,0.6,1.3,1.3,1.3c0.7,0,1.1-0.4,1.2-0.9L30.7,73.8z M29.9,72.4c0-0.6-0.4-1.1-1.2-1.1
					c-0.7,0-1.1,0.5-1.2,1.1H29.9z"/>
				<path class="st2" d="M32.1,73.6c0.1,0.5,0.4,0.8,1,0.8c0.5,0,0.7-0.3,0.7-0.6c0-0.3-0.2-0.5-0.6-0.6l-0.7-0.2
					c-0.7-0.1-1.1-0.6-1.1-1.2c0-0.7,0.7-1.4,1.5-1.4c1.2,0,1.6,0.8,1.6,1.2L33.9,72c0-0.2-0.2-0.7-0.9-0.7c-0.4,0-0.7,0.3-0.7,0.6
					c0,0.3,0.2,0.5,0.5,0.5l0.7,0.2c0.8,0.2,1.2,0.6,1.2,1.3c0,0.6-0.5,1.3-1.6,1.3c-1.2,0-1.7-0.8-1.8-1.3L32.1,73.6z"/>
				<path class="st2" d="M37.5,72.8V72h8.6v0.7H37.5z"/>
				<path class="st2" d="M49.6,73.6c0.1,0.5,0.4,0.8,1,0.8c0.5,0,0.7-0.3,0.7-0.6c0-0.3-0.2-0.5-0.6-0.6L50,73.1
					c-0.7-0.1-1.1-0.6-1.1-1.2c0-0.7,0.7-1.4,1.5-1.4c1.2,0,1.6,0.8,1.6,1.2L51.4,72c0-0.2-0.2-0.7-0.9-0.7c-0.4,0-0.7,0.3-0.7,0.6
					c0,0.3,0.2,0.5,0.5,0.5l0.7,0.2c0.8,0.2,1.2,0.6,1.2,1.3c0,0.6-0.5,1.3-1.6,1.3c-1.2,0-1.7-0.8-1.8-1.3L49.6,73.6z"/>
				<path class="st2" d="M54.1,75h-0.8v-6.5h0.8v2.7c0.3-0.5,0.8-0.6,1.3-0.6c1,0,1.5,0.7,1.5,1.7V75h-0.8v-2.6c0-0.6-0.3-1.1-1-1.1
					c-0.6,0-1,0.5-1,1.1V75z"/>
				<path class="st2" d="M62,73.8c-0.2,0.8-0.9,1.4-1.9,1.4c-1.2,0-2.2-0.8-2.2-2.3c0-1.4,1-2.3,2.1-2.3c1.3,0,2.1,0.9,2.1,2.3
					c0,0.1,0,0.2,0,0.3h-3.3c0,0.8,0.6,1.3,1.3,1.3c0.7,0,1.1-0.4,1.2-0.9L62,73.8z M61.1,72.4c0-0.6-0.4-1.1-1.2-1.1
					c-0.7,0-1.1,0.5-1.2,1.1H61.1z"/>
				<path class="st2" d="M68.6,70.7l1.1,3.3l1-3.3h0.9L70.1,75h-0.9l-1.2-3.3L67,75h-0.9l-1.4-4.3h0.9l1,3.3l1.1-3.3H68.6z"/>
				<path class="st2" d="M73.4,72.5l1.2-0.2c0.3,0,0.3-0.2,0.3-0.3c0-0.4-0.3-0.8-0.9-0.8c-0.6,0-0.9,0.4-1,0.9l-0.8-0.2
					c0.1-0.8,0.8-1.4,1.8-1.4c1.3,0,1.8,0.7,1.8,1.6v2.2c0,0.4,0,0.6,0.1,0.7h-0.8c0-0.1,0-0.3,0-0.6c-0.2,0.3-0.6,0.7-1.4,0.7
					c-0.9,0-1.4-0.6-1.4-1.3C72,73.1,72.6,72.6,73.4,72.5z M74.9,73.1v-0.2l-1.3,0.2c-0.4,0.1-0.6,0.3-0.6,0.6
					c0,0.3,0.3,0.6,0.7,0.6C74.3,74.4,74.9,74.1,74.9,73.1z"/>
				<path class="st2" d="M77.3,73.6c0.1,0.5,0.4,0.8,1,0.8c0.5,0,0.7-0.3,0.7-0.6c0-0.3-0.2-0.5-0.6-0.6l-0.7-0.2
					c-0.7-0.1-1.1-0.6-1.1-1.2c0-0.7,0.7-1.4,1.5-1.4c1.2,0,1.6,0.8,1.6,1.2L79.1,72c0-0.2-0.2-0.7-0.9-0.7c-0.4,0-0.7,0.3-0.7,0.6
					c0,0.3,0.2,0.5,0.5,0.5l0.7,0.2c0.8,0.2,1.2,0.6,1.2,1.3c0,0.6-0.5,1.3-1.6,1.3c-1.2,0-1.7-0.8-1.8-1.3L77.3,73.6z"/>
				<path class="st2" d="M84.3,72.5l1.2-0.2c0.3,0,0.3-0.2,0.3-0.3c0-0.4-0.3-0.8-0.9-0.8c-0.6,0-0.9,0.4-1,0.9L83,71.9
					c0.1-0.8,0.8-1.4,1.8-1.4c1.3,0,1.8,0.7,1.8,1.6v2.2c0,0.4,0,0.6,0.1,0.7h-0.8c0-0.1,0-0.3,0-0.6c-0.2,0.3-0.6,0.7-1.4,0.7
					c-0.9,0-1.4-0.6-1.4-1.3C82.9,73.1,83.5,72.6,84.3,72.5z M85.8,73.1v-0.2l-1.3,0.2c-0.4,0.1-0.6,0.3-0.6,0.6
					c0,0.3,0.3,0.6,0.7,0.6C85.2,74.4,85.8,74.1,85.8,73.1z"/>
				<path class="st2" d="M90.1,75v-6.5h0.8v2.8c0.2-0.4,0.7-0.7,1.4-0.7c1.3,0,2,1,2,2.3c0,1.3-0.7,2.3-2,2.3
					c-0.6,0-1.1-0.3-1.4-0.7V75H90.1z M92.2,71.3c-0.7,0-1.3,0.6-1.3,1.5s0.5,1.5,1.3,1.5c0.8,0,1.3-0.6,1.3-1.5S93,71.3,92.2,71.3z
					"/>
				<path class="st2" d="M96.4,72.5l1.2-0.2c0.3,0,0.3-0.2,0.3-0.3c0-0.4-0.3-0.8-0.9-0.8c-0.6,0-0.9,0.4-1,0.9l-0.8-0.2
					c0.1-0.8,0.8-1.4,1.8-1.4c1.3,0,1.8,0.7,1.8,1.6v2.2c0,0.4,0,0.6,0.1,0.7H98c0-0.1,0-0.3,0-0.6c-0.2,0.3-0.6,0.7-1.4,0.7
					c-0.9,0-1.4-0.6-1.4-1.3C95.1,73.1,95.7,72.6,96.4,72.5z M97.9,73.1v-0.2l-1.3,0.2c-0.4,0.1-0.6,0.3-0.6,0.6
					c0,0.3,0.3,0.6,0.7,0.6C97.4,74.4,97.9,74.1,97.9,73.1z"/>
				<path class="st2" d="M103.1,74.3c-0.2,0.4-0.7,0.8-1.3,0.8c-1.3,0-2.1-1-2.1-2.3c0-1.2,0.8-2.3,2.1-2.3c0.8,0,1.2,0.4,1.3,0.7
					v-2.8h0.8v5.7c0,0.4,0,0.7,0,0.8h-0.8C103.1,74.9,103.1,74.7,103.1,74.3L103.1,74.3z M101.8,74.4c0.8,0,1.3-0.7,1.3-1.6
					c0-0.9-0.5-1.5-1.2-1.5s-1.3,0.6-1.3,1.5S101,74.4,101.8,74.4z"/>
				<path class="st2" d="M106.3,72.5l1.2-0.2c0.3,0,0.3-0.2,0.3-0.3c0-0.4-0.3-0.8-0.9-0.8c-0.6,0-0.9,0.4-1,0.9l-0.8-0.2
					c0.1-0.8,0.8-1.4,1.8-1.4c1.3,0,1.8,0.7,1.8,1.6v2.2c0,0.4,0,0.6,0.1,0.7h-0.8c0-0.1,0-0.3,0-0.6c-0.2,0.3-0.6,0.7-1.4,0.7
					c-0.9,0-1.4-0.6-1.4-1.3C105,73.1,105.6,72.6,106.3,72.5z M107.8,73.1v-0.2l-1.3,0.2c-0.4,0.1-0.6,0.3-0.6,0.6
					c0,0.3,0.3,0.6,0.7,0.6C107.3,74.4,107.8,74.1,107.8,73.1z"/>
				<path class="st2" d="M110.3,73.6c0.1,0.5,0.4,0.8,1,0.8c0.5,0,0.7-0.3,0.7-0.6c0-0.3-0.2-0.5-0.6-0.6l-0.7-0.2
					c-0.7-0.1-1.1-0.6-1.1-1.2c0-0.7,0.7-1.4,1.5-1.4c1.2,0,1.6,0.8,1.6,1.2l-0.7,0.3c0-0.2-0.2-0.7-0.9-0.7c-0.4,0-0.7,0.3-0.7,0.6
					c0,0.3,0.2,0.5,0.5,0.5l0.7,0.2c0.8,0.2,1.2,0.6,1.2,1.3c0,0.6-0.5,1.3-1.6,1.3c-1.2,0-1.7-0.8-1.8-1.3L110.3,73.6z"/>
				<path class="st2" d="M114.3,73.6c0.1,0.5,0.4,0.8,1,0.8c0.5,0,0.7-0.3,0.7-0.6c0-0.3-0.2-0.5-0.6-0.6l-0.7-0.2
					c-0.7-0.1-1.1-0.6-1.1-1.2c0-0.7,0.7-1.4,1.5-1.4c1.2,0,1.6,0.8,1.6,1.2l-0.7,0.3c0-0.2-0.2-0.7-0.9-0.7c-0.4,0-0.7,0.3-0.7,0.6
					c0,0.3,0.2,0.5,0.5,0.5l0.7,0.2c0.8,0.2,1.2,0.6,1.2,1.3c0,0.6-0.5,1.3-1.6,1.3c-1.2,0-1.7-0.8-1.8-1.3L114.3,73.6z"/>
				<path class="st2" d="M123.5,70.7l1.1,3.3l1-3.3h0.9l-1.4,4.3h-0.9l-1.2-3.3l-1.1,3.3H121l-1.4-4.3h0.9l1,3.3l1.1-3.3H123.5z"/>
				<path class="st2" d="M129.7,71.5c-0.1,0-0.3,0-0.4,0c-0.7,0-1.2,0.4-1.2,1.3V75h-0.8v-4.3h0.8v0.8c0.3-0.7,0.9-0.8,1.3-0.8
					c0.1,0,0.2,0,0.3,0V71.5z"/>
				<path class="st2" d="M131,68.4c0.3,0,0.6,0.3,0.6,0.6c0,0.3-0.3,0.6-0.6,0.6c-0.3,0-0.6-0.3-0.6-0.6
					C130.3,68.7,130.6,68.4,131,68.4z M130.5,75v-4.3h0.8V75H130.5z"/>
				<path class="st2" d="M133.9,70.7h0.9v0.8h-0.9v2.3c0,0.4,0.2,0.6,0.6,0.6c0.1,0,0.3,0,0.3,0V75c-0.1,0-0.3,0.1-0.6,0.1
					c-0.7,0-1.2-0.5-1.2-1.2v-2.4h-0.8v-0.8h0.2c0.5,0,0.7-0.3,0.7-0.7v-0.7h0.8V70.7z"/>
				<path class="st2" d="M139.6,73.8c-0.2,0.8-0.9,1.4-1.9,1.4c-1.2,0-2.2-0.8-2.2-2.3c0-1.4,1-2.3,2.1-2.3c1.3,0,2.1,0.9,2.1,2.3
					c0,0.1,0,0.2,0,0.3h-3.3c0,0.8,0.6,1.3,1.3,1.3c0.7,0,1.1-0.4,1.2-0.9L139.6,73.8z M138.8,72.4c0-0.6-0.4-1.1-1.2-1.1
					c-0.7,0-1.1,0.5-1.2,1.1H138.8z"/>
				<path class="st2" d="M143.1,71.5c-0.1,0-0.3,0-0.4,0c-0.7,0-1.2,0.4-1.2,1.3V75h-0.8v-4.3h0.8v0.8c0.3-0.7,0.9-0.8,1.3-0.8
					c0.1,0,0.2,0,0.3,0V71.5z"/>
				<path class="st2" d="M143.7,73.8c0.4,0,0.7,0.3,0.7,0.9c0,1.2-0.8,1.7-1.3,1.8V76c0.4-0.1,0.7-0.5,0.7-1c0,0-0.1,0-0.2,0
					c-0.3,0-0.6-0.2-0.6-0.6C143.1,74.1,143.3,73.8,143.7,73.8z"/>
				<path class="st2" d="M150.1,68.5v0.8c0,0-0.2-0.1-0.4-0.1c-0.3,0-0.7,0.1-0.7,0.7v0.7h2.9V75h-0.8v-3.6h-2V75h-0.9v-3.6h-0.8
					v-0.8h0.8v-0.7c0-1,0.6-1.5,1.4-1.5C149.9,68.5,150.1,68.5,150.1,68.5z M151.5,68.4c0.3,0,0.6,0.3,0.6,0.6
					c0,0.3-0.3,0.6-0.6,0.6c-0.3,0-0.6-0.3-0.6-0.6C150.9,68.7,151.2,68.4,151.5,68.4z"/>
				<path class="st2" d="M153.4,75v-6.5h0.8V75H153.4z"/>
				<path class="st2" d="M155.6,75v-4.3h0.8v0.6c0.3-0.5,0.8-0.7,1.3-0.7c0.5,0,1.1,0.3,1.3,0.8c0.3-0.6,0.9-0.8,1.4-0.8
					c0.8,0,1.5,0.5,1.5,1.6V75h-0.8v-2.7c0-0.6-0.3-1-0.9-1c-0.6,0-1,0.5-1,1.1V75h-0.8v-2.7c0-0.6-0.3-1-0.9-1c-0.6,0-1,0.5-1,1.1
					V75H155.6z"/>
				<path class="st2" d="M162.9,72.8V72h2.4v0.7H162.9z"/>
			</g>
			<g class="st1">
				<path class="st2" d="M10.7,86v-4.3h0.8v0.6c0.3-0.5,0.8-0.7,1.3-0.7c0.5,0,1.1,0.3,1.3,0.8c0.3-0.6,0.9-0.8,1.4-0.8
					c0.8,0,1.5,0.5,1.5,1.6V86h-0.8v-2.7c0-0.6-0.3-1-0.9-1c-0.6,0-1,0.5-1,1.1V86h-0.8v-2.7c0-0.6-0.3-1-0.9-1c-0.6,0-1,0.5-1,1.1
					V86H10.7z"/>
				<path class="st2" d="M19.4,83.5l1.2-0.2c0.3,0,0.3-0.2,0.3-0.3c0-0.4-0.3-0.8-0.9-0.8c-0.6,0-0.9,0.4-1,0.9l-0.8-0.2
					c0.1-0.8,0.8-1.4,1.8-1.4c1.3,0,1.8,0.7,1.8,1.6v2.2c0,0.4,0,0.6,0.1,0.7H21c0-0.1,0-0.3,0-0.6c-0.2,0.3-0.6,0.7-1.4,0.7
					c-0.9,0-1.4-0.6-1.4-1.3C18.1,84.1,18.7,83.6,19.4,83.5z M20.9,84.1v-0.2l-1.3,0.2c-0.4,0.1-0.6,0.3-0.6,0.6
					c0,0.3,0.3,0.6,0.7,0.6C20.4,85.4,20.9,85.1,20.9,84.1z"/>
				<path class="st2" d="M25.1,83.5L27,86h-1.1l-1.4-1.9l-0.6,0.6V86h-0.8v-6.5h0.8v4.1l1.9-1.9h1.2L25.1,83.5z"/>
				<path class="st2" d="M31.3,84.8c-0.2,0.8-0.9,1.4-1.9,1.4c-1.2,0-2.2-0.8-2.2-2.3c0-1.4,1-2.3,2.1-2.3c1.3,0,2.1,0.9,2.1,2.3
					c0,0.1,0,0.2,0,0.3H28c0,0.8,0.6,1.3,1.3,1.3c0.7,0,1.1-0.4,1.2-0.9L31.3,84.8z M30.4,83.4c0-0.6-0.4-1.1-1.2-1.1
					c-0.7,0-1.1,0.5-1.2,1.1H30.4z"/>
				<path class="st2" d="M34.7,82.5c-0.1,0-0.3,0-0.4,0c-0.7,0-1.2,0.4-1.2,1.3V86h-0.8v-4.3h0.8v0.8c0.3-0.7,0.9-0.8,1.3-0.8
					c0.1,0,0.2,0,0.3,0V82.5z"/>
				<path class="st2" d="M35.4,84.8c0.4,0,0.7,0.3,0.7,0.9c0,1.2-0.8,1.7-1.3,1.8V87c0.4-0.1,0.7-0.5,0.7-1c0,0-0.1,0-0.2,0
					c-0.3,0-0.6-0.2-0.6-0.6C34.7,85.1,35,84.8,35.4,84.8z"/>
				<path class="st2" d="M40.7,81.7h0.9v0.8h-0.9v2.3c0,0.4,0.2,0.6,0.6,0.6c0.1,0,0.3,0,0.3,0V86c-0.1,0-0.3,0.1-0.6,0.1
					c-0.7,0-1.2-0.5-1.2-1.2v-2.4h-0.8v-0.8h0.2c0.5,0,0.7-0.3,0.7-0.7v-0.7h0.8V81.7z"/>
				<path class="st2" d="M46.5,84.8c-0.2,0.8-0.9,1.4-1.9,1.4c-1.2,0-2.2-0.8-2.2-2.3c0-1.4,1-2.3,2.1-2.3c1.3,0,2.1,0.9,2.1,2.3
					c0,0.1,0,0.2,0,0.3h-3.3c0,0.8,0.6,1.3,1.3,1.3c0.7,0,1.1-0.4,1.2-0.9L46.5,84.8z M45.6,83.4c0-0.6-0.4-1.1-1.2-1.1
					c-0.7,0-1.1,0.5-1.2,1.1H45.6z"/>
				<path class="st2" d="M48.6,83.5l1.2-0.2c0.3,0,0.3-0.2,0.3-0.3c0-0.4-0.3-0.8-0.9-0.8c-0.6,0-0.9,0.4-1,0.9l-0.8-0.2
					c0.1-0.8,0.8-1.4,1.8-1.4c1.3,0,1.8,0.7,1.8,1.6v2.2c0,0.4,0,0.6,0.1,0.7h-0.8c0-0.1,0-0.3,0-0.6c-0.2,0.3-0.6,0.7-1.4,0.7
					c-0.9,0-1.4-0.6-1.4-1.3C47.3,84.1,47.8,83.6,48.6,83.5z M50.1,84.1v-0.2l-1.3,0.2c-0.4,0.1-0.6,0.3-0.6,0.6
					c0,0.3,0.3,0.6,0.7,0.6C49.5,85.4,50.1,85.1,50.1,84.1z"/>
				<path class="st2" d="M52.7,83.8c0,1,0.6,1.5,1.3,1.5c0.8,0,1.1-0.5,1.2-0.9l0.7,0.3c-0.2,0.6-0.8,1.4-2,1.4
					c-1.3,0-2.2-1-2.2-2.3c0-1.4,0.9-2.3,2.2-2.3c1.2,0,1.7,0.7,1.9,1.4l-0.8,0.3c-0.1-0.4-0.4-0.9-1.2-0.9
					C53.3,82.3,52.7,82.8,52.7,83.8z"/>
				<path class="st2" d="M57.8,86h-0.8v-6.5h0.8v2.7c0.3-0.5,0.8-0.6,1.3-0.6c1,0,1.5,0.7,1.5,1.7V86h-0.8v-2.6c0-0.6-0.3-1.1-1-1.1
					c-0.6,0-1,0.5-1,1.1V86z"/>
				<path class="st2" d="M65.7,84.8c-0.2,0.8-0.9,1.4-1.9,1.4c-1.2,0-2.2-0.8-2.2-2.3c0-1.4,1-2.3,2.1-2.3c1.3,0,2.1,0.9,2.1,2.3
					c0,0.1,0,0.2,0,0.3h-3.3c0,0.8,0.6,1.3,1.3,1.3c0.7,0,1.1-0.4,1.2-0.9L65.7,84.8z M64.8,83.4c0-0.6-0.4-1.1-1.2-1.1
					c-0.7,0-1.1,0.5-1.2,1.1H64.8z"/>
				<path class="st2" d="M69.2,82.5c-0.1,0-0.3,0-0.4,0c-0.7,0-1.2,0.4-1.2,1.3V86h-0.8v-4.3h0.8v0.8c0.3-0.7,0.9-0.8,1.3-0.8
					c0.1,0,0.2,0,0.3,0V82.5z"/>
				<path class="st2" d="M69.8,84.8c0.4,0,0.7,0.3,0.7,0.9c0,1.2-0.8,1.7-1.3,1.8V87c0.4-0.1,0.7-0.5,0.7-1c0,0-0.1,0-0.2,0
					c-0.3,0-0.6-0.2-0.6-0.6C69.1,85.1,69.4,84.8,69.8,84.8z"/>
				<path class="st2" d="M75.1,83.5l1.2-0.2c0.3,0,0.3-0.2,0.3-0.3c0-0.4-0.3-0.8-0.9-0.8c-0.6,0-0.9,0.4-1,0.9l-0.8-0.2
					c0.1-0.8,0.8-1.4,1.8-1.4c1.3,0,1.8,0.7,1.8,1.6v2.2c0,0.4,0,0.6,0.1,0.7h-0.8c0-0.1,0-0.3,0-0.6c-0.2,0.3-0.6,0.7-1.4,0.7
					c-0.9,0-1.4-0.6-1.4-1.3C73.7,84.1,74.3,83.6,75.1,83.5z M76.6,84.1v-0.2l-1.3,0.2c-0.4,0.1-0.6,0.3-0.6,0.6
					c0,0.3,0.3,0.6,0.7,0.6C76,85.4,76.6,85.1,76.6,84.1z"/>
				<path class="st2" d="M79.5,86h-0.8v-4.3h0.8v0.6c0.3-0.5,0.8-0.7,1.3-0.7c1,0,1.5,0.7,1.5,1.7V86h-0.8v-2.6c0-0.6-0.3-1.1-1-1.1
					c-0.7,0-1,0.5-1,1.2V86z"/>
				<path class="st2" d="M86.7,85.3c-0.2,0.4-0.7,0.8-1.3,0.8c-1.3,0-2.1-1-2.1-2.3c0-1.2,0.8-2.3,2.1-2.3c0.8,0,1.2,0.4,1.3,0.7
					v-2.8h0.8v5.7c0,0.4,0,0.7,0,0.8h-0.8C86.8,85.9,86.7,85.7,86.7,85.3L86.7,85.3z M85.5,85.4c0.8,0,1.3-0.7,1.3-1.6
					c0-0.9-0.5-1.5-1.2-1.5c-0.8,0-1.3,0.6-1.3,1.5S84.7,85.4,85.5,85.4z"/>
				<path class="st2" d="M91.1,87.7v-6H92v0.7c0.2-0.4,0.7-0.8,1.4-0.8c1.3,0,2,1,2,2.3c0,1.3-0.7,2.3-2,2.3c-0.7,0-1.2-0.3-1.4-0.7
					v2.3H91.1z M93.3,82.3c-0.8,0-1.3,0.6-1.3,1.5c0,0.9,0.5,1.5,1.3,1.5c0.8,0,1.3-0.6,1.3-1.5C94.5,83,94.1,82.3,93.3,82.3z"/>
				<path class="st2" d="M100.5,83.8c0,1.3-0.9,2.3-2.2,2.3s-2.2-1-2.2-2.3c0-1.3,0.9-2.3,2.2-2.3S100.5,82.5,100.5,83.8z
					 M99.6,83.8c0-1-0.6-1.5-1.4-1.5s-1.4,0.5-1.4,1.5c0,1,0.6,1.5,1.4,1.5S99.6,84.8,99.6,83.8z"/>
				<path class="st2" d="M101.5,86v-6.5h0.8V86H101.5z"/>
				<path class="st2" d="M104.2,79.4c0.3,0,0.6,0.3,0.6,0.6c0,0.3-0.3,0.6-0.6,0.6c-0.3,0-0.6-0.3-0.6-0.6
					C103.6,79.7,103.9,79.4,104.2,79.4z M103.8,86v-4.3h0.8V86H103.8z"/>
				<path class="st2" d="M107.1,81.7h0.9v0.8h-0.9v2.3c0,0.4,0.2,0.6,0.6,0.6c0.1,0,0.3,0,0.3,0V86c-0.1,0-0.3,0.1-0.6,0.1
					c-0.7,0-1.2-0.5-1.2-1.2v-2.4h-0.8v-0.8h0.2c0.5,0,0.7-0.3,0.7-0.7v-0.7h0.8V81.7z"/>
				<path class="st2" d="M109.6,79.4c0.3,0,0.6,0.3,0.6,0.6c0,0.3-0.3,0.6-0.6,0.6c-0.3,0-0.6-0.3-0.6-0.6
					C109,79.7,109.2,79.4,109.6,79.4z M109.2,86v-4.3h0.8V86H109.2z"/>
				<path class="st2" d="M111.9,83.8c0,1,0.6,1.5,1.3,1.5c0.8,0,1.1-0.5,1.2-0.9l0.7,0.3c-0.2,0.6-0.8,1.4-2,1.4
					c-1.3,0-2.2-1-2.2-2.3c0-1.4,0.9-2.3,2.2-2.3c1.2,0,1.7,0.7,1.9,1.4l-0.8,0.3c-0.1-0.4-0.4-0.9-1.2-0.9
					C112.5,82.3,111.9,82.8,111.9,83.8z"/>
				<path class="st2" d="M117.1,83.5l1.2-0.2c0.3,0,0.3-0.2,0.3-0.3c0-0.4-0.3-0.8-0.9-0.8c-0.6,0-0.9,0.4-1,0.9l-0.8-0.2
					c0.1-0.8,0.8-1.4,1.8-1.4c1.3,0,1.8,0.7,1.8,1.6v2.2c0,0.4,0,0.6,0.1,0.7h-0.8c0-0.1,0-0.3,0-0.6c-0.2,0.3-0.6,0.7-1.4,0.7
					c-0.9,0-1.4-0.6-1.4-1.3C115.8,84.1,116.4,83.6,117.1,83.5z M118.6,84.1v-0.2l-1.3,0.2c-0.4,0.1-0.6,0.3-0.6,0.6
					c0,0.3,0.3,0.6,0.7,0.6C118.1,85.4,118.6,85.1,118.6,84.1z"/>
				<path class="st2" d="M120.7,86v-6.5h0.8V86H120.7z"/>
				<path class="st2" d="M126.2,83.5l1.2-0.2c0.3,0,0.3-0.2,0.3-0.3c0-0.4-0.3-0.8-0.9-0.8c-0.6,0-0.9,0.4-1,0.9l-0.8-0.2
					c0.1-0.8,0.8-1.4,1.8-1.4c1.3,0,1.8,0.7,1.8,1.6v2.2c0,0.4,0,0.6,0.1,0.7h-0.8c0-0.1,0-0.3,0-0.6c-0.2,0.3-0.6,0.7-1.4,0.7
					c-0.9,0-1.4-0.6-1.4-1.3C124.9,84.1,125.5,83.6,126.2,83.5z M127.7,84.1v-0.2l-1.3,0.2c-0.4,0.1-0.6,0.3-0.6,0.6
					c0,0.3,0.3,0.6,0.7,0.6C127.2,85.4,127.7,85.1,127.7,84.1z"/>
				<path class="st2" d="M130.3,83.8c0,1,0.6,1.5,1.3,1.5c0.8,0,1.1-0.5,1.2-0.9l0.7,0.3c-0.2,0.6-0.8,1.4-2,1.4
					c-1.3,0-2.2-1-2.2-2.3c0-1.4,0.9-2.3,2.2-2.3c1.2,0,1.7,0.7,1.9,1.4l-0.8,0.3c-0.1-0.4-0.4-0.9-1.2-0.9
					C131,82.3,130.3,82.8,130.3,83.8z"/>
				<path class="st2" d="M135.7,81.7h0.9v0.8h-0.9v2.3c0,0.4,0.2,0.6,0.6,0.6c0.1,0,0.3,0,0.3,0V86c-0.1,0-0.3,0.1-0.6,0.1
					c-0.7,0-1.2-0.5-1.2-1.2v-2.4H134v-0.8h0.2c0.5,0,0.7-0.3,0.7-0.7v-0.7h0.8V81.7z"/>
				<path class="st2" d="M138.1,79.4c0.3,0,0.6,0.3,0.6,0.6c0,0.3-0.3,0.6-0.6,0.6c-0.3,0-0.6-0.3-0.6-0.6
					C137.5,79.7,137.8,79.4,138.1,79.4z M137.7,86v-4.3h0.8V86H137.7z"/>
				<path class="st2" d="M141.9,86h-0.9l-1.8-4.3h1l1.2,3.3l1.2-3.3h0.9L141.9,86z"/>
				<path class="st2" d="M144.8,79.4c0.3,0,0.6,0.3,0.6,0.6c0,0.3-0.3,0.6-0.6,0.6c-0.3,0-0.6-0.3-0.6-0.6
					C144.2,79.7,144.5,79.4,144.8,79.4z M144.4,86v-4.3h0.8V86H144.4z"/>
				<path class="st2" d="M147,84.6c0.1,0.5,0.4,0.8,1,0.8c0.5,0,0.7-0.3,0.7-0.6c0-0.3-0.2-0.5-0.6-0.6l-0.7-0.2
					c-0.7-0.1-1.1-0.6-1.1-1.2c0-0.7,0.7-1.4,1.5-1.4c1.2,0,1.6,0.8,1.6,1.2l-0.7,0.3c0-0.2-0.2-0.7-0.9-0.7c-0.4,0-0.7,0.3-0.7,0.6
					c0,0.3,0.2,0.5,0.5,0.5l0.7,0.2c0.8,0.2,1.2,0.6,1.2,1.3c0,0.6-0.5,1.3-1.6,1.3c-1.2,0-1.7-0.8-1.8-1.3L147,84.6z"/>
				<path class="st2" d="M151.8,81.7h0.9v0.8h-0.9v2.3c0,0.4,0.2,0.6,0.6,0.6c0.1,0,0.3,0,0.3,0V86c-0.1,0-0.3,0.1-0.6,0.1
					c-0.7,0-1.2-0.5-1.2-1.2v-2.4h-0.8v-0.8h0.2c0.5,0,0.7-0.3,0.7-0.7v-0.7h0.8V81.7z"/>
				<path class="st2" d="M154.4,84.8c0.4,0,0.6,0.3,0.6,0.6s-0.3,0.6-0.6,0.6c-0.4,0-0.6-0.3-0.6-0.6S154,84.8,154.4,84.8z"/>
				<path class="st2" d="M161.9,81.3c-0.1-0.5-0.5-1.1-1.3-1.1c-0.7,0-1.2,0.5-1.2,1.1c0,0.5,0.3,0.8,0.8,0.9l1,0.2
					c1.1,0.2,1.7,0.9,1.7,1.8c0,1-0.8,1.9-2.2,1.9c-1.5,0-2.3-1-2.4-1.9L159,84c0.1,0.7,0.6,1.4,1.5,1.4c0.9,0,1.3-0.5,1.3-1
					c0-0.5-0.3-0.9-1-1l-0.9-0.2c-0.9-0.2-1.6-0.8-1.6-1.7c0-1,0.9-1.9,2.1-1.9c1.4,0,2,0.9,2.2,1.6L161.9,81.3z"/>
				<path class="st2" d="M164.6,86h-0.8v-6.5h0.8v2.7c0.3-0.5,0.8-0.6,1.3-0.6c1,0,1.5,0.7,1.5,1.7V86h-0.8v-2.6
					c0-0.6-0.3-1.1-1-1.1c-0.6,0-1,0.5-1,1.1V86z"/>
				<path class="st2" d="M172.5,84.8c-0.2,0.8-0.9,1.4-1.9,1.4c-1.2,0-2.2-0.8-2.2-2.3c0-1.4,1-2.3,2.1-2.3c1.3,0,2.1,0.9,2.1,2.3
					c0,0.1,0,0.2,0,0.3h-3.3c0,0.8,0.6,1.3,1.3,1.3c0.7,0,1.1-0.4,1.2-0.9L172.5,84.8z M171.7,83.4c0-0.6-0.4-1.1-1.2-1.1
					c-0.7,0-1.1,0.5-1.2,1.1H171.7z"/>
			</g>
			<g class="st1">
				<path class="st2" d="M14,92.7l1.1,3.3l1-3.3H17L15.6,97h-0.9l-1.2-3.3L12.4,97h-0.9l-1.4-4.3h0.9l1,3.3l1.1-3.3H14z"/>
				<path class="st2" d="M18.8,94.5l1.2-0.2c0.3,0,0.3-0.2,0.3-0.3c0-0.4-0.3-0.8-0.9-0.8c-0.6,0-0.9,0.4-1,0.9l-0.8-0.2
					c0.1-0.8,0.8-1.4,1.8-1.4c1.3,0,1.8,0.7,1.8,1.6v2.2c0,0.4,0,0.6,0.1,0.7h-0.8c0-0.1,0-0.3,0-0.6c-0.2,0.3-0.6,0.7-1.4,0.7
					c-0.9,0-1.4-0.6-1.4-1.3C17.5,95.1,18.1,94.6,18.8,94.5z M20.3,95.1v-0.2L19,95.1c-0.4,0.1-0.6,0.3-0.6,0.6
					c0,0.3,0.3,0.6,0.7,0.6C19.8,96.4,20.3,96.1,20.3,95.1z"/>
				<path class="st2" d="M22.8,95.6c0.1,0.5,0.4,0.8,1,0.8c0.5,0,0.7-0.3,0.7-0.6c0-0.3-0.2-0.5-0.6-0.6l-0.7-0.2
					c-0.7-0.1-1.1-0.6-1.1-1.2c0-0.7,0.7-1.4,1.5-1.4c1.2,0,1.6,0.8,1.6,1.2L24.6,94c0-0.2-0.2-0.7-0.9-0.7c-0.4,0-0.7,0.3-0.7,0.6
					c0,0.3,0.2,0.5,0.5,0.5l0.7,0.2c0.8,0.2,1.2,0.6,1.2,1.3c0,0.6-0.5,1.3-1.6,1.3c-1.2,0-1.7-0.8-1.8-1.3L22.8,95.6z"/>
				<path class="st2" d="M31.7,98.7v-2.3c-0.2,0.4-0.7,0.7-1.4,0.7c-1.2,0-2.1-1-2.1-2.3c0-1.2,0.8-2.3,2-2.3c0.7,0,1.2,0.4,1.4,0.8
					v-0.7h0.8v6H31.7z M30.4,96.4c0.8,0,1.3-0.7,1.3-1.5s-0.5-1.5-1.3-1.5c-0.8,0-1.3,0.6-1.3,1.5S29.7,96.4,30.4,96.4z"/>
				<path class="st2" d="M35.4,97.1c-1,0-1.6-0.8-1.6-1.7v-2.7h0.8v2.6c0,0.6,0.3,1.1,1,1.1c0.7,0,1-0.5,1-1.1v-2.6h0.8v3.5
					c0,0.3,0,0.6,0,0.8h-0.8c0-0.1,0-0.3,0-0.5C36.5,96.9,35.9,97.1,35.4,97.1z"/>
				<path class="st2" d="M39.3,90.4c0.3,0,0.6,0.3,0.6,0.6c0,0.3-0.3,0.6-0.6,0.6c-0.3,0-0.6-0.3-0.6-0.6
					C38.7,90.7,39,90.4,39.3,90.4z M38.9,97v-4.3h0.8V97H38.9z"/>
				<path class="st2" d="M42.3,92.7h0.9v0.8h-0.9v2.3c0,0.4,0.2,0.6,0.6,0.6c0.1,0,0.3,0,0.3,0V97c-0.1,0-0.3,0.1-0.6,0.1
					c-0.7,0-1.2-0.5-1.2-1.2v-2.4h-0.8v-0.8h0.2c0.5,0,0.7-0.3,0.7-0.7v-0.7h0.8V92.7z"/>
				<path class="st2" d="M48,95.8c-0.2,0.8-0.9,1.4-1.9,1.4c-1.2,0-2.2-0.8-2.2-2.3c0-1.4,1-2.3,2.1-2.3c1.3,0,2.1,0.9,2.1,2.3
					c0,0.1,0,0.2,0,0.3h-3.3c0,0.8,0.6,1.3,1.3,1.3c0.7,0,1.1-0.4,1.2-0.9L48,95.8z M47.1,94.4c0-0.6-0.4-1.1-1.2-1.1
					c-0.7,0-1.1,0.5-1.2,1.1H47.1z"/>
				<path class="st2" d="M51.8,94.8c0,1,0.6,1.5,1.3,1.5c0.8,0,1.1-0.5,1.2-0.9l0.7,0.3c-0.2,0.6-0.8,1.4-2,1.4
					c-1.3,0-2.2-1-2.2-2.3c0-1.4,0.9-2.3,2.2-2.3c1.2,0,1.7,0.7,1.9,1.4l-0.8,0.3c-0.1-0.4-0.4-0.9-1.2-0.9
					C52.4,93.3,51.8,93.8,51.8,94.8z"/>
				<path class="st2" d="M60,94.8c0,1.3-0.9,2.3-2.2,2.3s-2.2-1-2.2-2.3c0-1.3,0.9-2.3,2.2-2.3S60,93.5,60,94.8z M59.2,94.8
					c0-1-0.6-1.5-1.4-1.5s-1.4,0.5-1.4,1.5c0,1,0.6,1.5,1.4,1.5S59.2,95.8,59.2,94.8z"/>
				<path class="st2" d="M61,97v-4.3h0.8v0.6c0.3-0.5,0.8-0.7,1.3-0.7c0.5,0,1.1,0.3,1.3,0.8c0.3-0.6,0.9-0.8,1.4-0.8
					c0.8,0,1.5,0.5,1.5,1.6V97h-0.8v-2.7c0-0.6-0.3-1-0.9-1c-0.6,0-1,0.5-1,1.1V97h-0.8v-2.7c0-0.6-0.3-1-0.9-1c-0.6,0-1,0.5-1,1.1
					V97H61z"/>
				<path class="st2" d="M69.9,93.4V97H69v-3.6h-0.8v-0.8H69v-0.7c0-1,0.6-1.5,1.4-1.5c0.3,0,0.5,0.1,0.5,0.1v0.8
					c0,0-0.2-0.1-0.4-0.1c-0.3,0-0.7,0.1-0.7,0.7v0.7h1v0.8H69.9z"/>
				<path class="st2" d="M75.6,94.8c0,1.3-0.9,2.3-2.2,2.3s-2.2-1-2.2-2.3c0-1.3,0.9-2.3,2.2-2.3S75.6,93.5,75.6,94.8z M74.8,94.8
					c0-1-0.6-1.5-1.4-1.5s-1.4,0.5-1.4,1.5c0,1,0.6,1.5,1.4,1.5S74.8,95.8,74.8,94.8z"/>
				<path class="st2" d="M79.1,93.5c-0.1,0-0.3,0-0.4,0c-0.7,0-1.2,0.4-1.2,1.3V97h-0.8v-4.3h0.8v0.8c0.3-0.7,0.9-0.8,1.3-0.8
					c0.1,0,0.2,0,0.3,0V93.5z"/>
				<path class="st2" d="M81.3,92.7h0.9v0.8h-0.9v2.3c0,0.4,0.2,0.6,0.6,0.6c0.1,0,0.3,0,0.3,0V97c-0.1,0-0.3,0.1-0.6,0.1
					c-0.7,0-1.2-0.5-1.2-1.2v-2.4h-0.8v-0.8h0.2c0.5,0,0.7-0.3,0.7-0.7v-0.7h0.8V92.7z"/>
				<path class="st2" d="M84.4,94.5l1.2-0.2c0.3,0,0.3-0.2,0.3-0.3c0-0.4-0.3-0.8-0.9-0.8c-0.6,0-0.9,0.4-1,0.9l-0.8-0.2
					c0.1-0.8,0.8-1.4,1.8-1.4c1.3,0,1.8,0.7,1.8,1.6v2.2c0,0.4,0,0.6,0.1,0.7h-0.8c0-0.1,0-0.3,0-0.6c-0.2,0.3-0.6,0.7-1.4,0.7
					c-0.9,0-1.4-0.6-1.4-1.3C83,95.1,83.6,94.6,84.4,94.5z M85.9,95.1v-0.2l-1.3,0.2c-0.4,0.1-0.6,0.3-0.6,0.6
					c0,0.3,0.3,0.6,0.7,0.6C85.3,96.4,85.9,96.1,85.9,95.1z"/>
				<path class="st2" d="M88,97v-6.5h0.8v2.8c0.2-0.4,0.7-0.7,1.4-0.7c1.3,0,2,1,2,2.3c0,1.3-0.7,2.3-2,2.3c-0.6,0-1.1-0.3-1.4-0.7
					V97H88z M90.1,93.3c-0.7,0-1.3,0.6-1.3,1.5s0.5,1.5,1.3,1.5c0.8,0,1.3-0.6,1.3-1.5S90.9,93.3,90.1,93.3z"/>
				<path class="st2" d="M93.3,97v-6.5h0.8V97H93.3z"/>
				<path class="st2" d="M99.3,95.8c-0.2,0.8-0.9,1.4-1.9,1.4c-1.2,0-2.2-0.8-2.2-2.3c0-1.4,1-2.3,2.1-2.3c1.3,0,2.1,0.9,2.1,2.3
					c0,0.1,0,0.2,0,0.3H96c0,0.8,0.6,1.3,1.3,1.3c0.7,0,1.1-0.4,1.2-0.9L99.3,95.8z M98.4,94.4c0-0.6-0.4-1.1-1.2-1.1
					c-0.7,0-1.1,0.5-1.2,1.1H98.4z"/>
				<path class="st2" d="M105.9,92.7l1.1,3.3l1-3.3h0.9l-1.4,4.3h-0.9l-1.2-3.3l-1.1,3.3h-0.9l-1.4-4.3h0.9l1,3.3l1.1-3.3H105.9z"/>
				<path class="st2" d="M110.1,90.4c0.3,0,0.6,0.3,0.6,0.6c0,0.3-0.3,0.6-0.6,0.6c-0.3,0-0.6-0.3-0.6-0.6
					C109.4,90.7,109.7,90.4,110.1,90.4z M109.6,97v-4.3h0.8V97H109.6z"/>
				<path class="st2" d="M113,92.7h0.9v0.8H113v2.3c0,0.4,0.2,0.6,0.6,0.6c0.1,0,0.3,0,0.3,0V97c-0.1,0-0.3,0.1-0.6,0.1
					c-0.7,0-1.2-0.5-1.2-1.2v-2.4h-0.8v-0.8h0.2c0.5,0,0.7-0.3,0.7-0.7v-0.7h0.8V92.7z"/>
				<path class="st2" d="M115.9,97H115v-6.5h0.8v2.7c0.3-0.5,0.8-0.6,1.3-0.6c1,0,1.5,0.7,1.5,1.7V97h-0.8v-2.6c0-0.6-0.3-1.1-1-1.1
					c-0.6,0-1,0.5-1,1.1V97z"/>
				<path class="st2" d="M125.3,96.3c-0.2,0.4-0.7,0.8-1.3,0.8c-1.3,0-2.1-1-2.1-2.3c0-1.2,0.8-2.3,2.1-2.3c0.8,0,1.2,0.4,1.3,0.7
					v-2.8h0.8v5.7c0,0.4,0,0.7,0,0.8h-0.8C125.3,96.9,125.3,96.7,125.3,96.3L125.3,96.3z M124,96.4c0.8,0,1.3-0.7,1.3-1.6
					c0-0.9-0.5-1.5-1.2-1.5c-0.8,0-1.3,0.6-1.3,1.5S123.2,96.4,124,96.4z"/>
				<path class="st2" d="M129.9,93.5c-0.1,0-0.3,0-0.4,0c-0.7,0-1.2,0.4-1.2,1.3V97h-0.8v-4.3h0.8v0.8c0.3-0.7,0.9-0.8,1.3-0.8
					c0.1,0,0.2,0,0.3,0V93.5z"/>
				<path class="st2" d="M131.8,94.5l1.2-0.2c0.3,0,0.3-0.2,0.3-0.3c0-0.4-0.3-0.8-0.9-0.8c-0.6,0-0.9,0.4-1,0.9l-0.8-0.2
					c0.1-0.8,0.8-1.4,1.8-1.4c1.3,0,1.8,0.7,1.8,1.6v2.2c0,0.4,0,0.6,0.1,0.7h-0.8c0-0.1,0-0.3,0-0.6c-0.2,0.3-0.6,0.7-1.4,0.7
					c-0.9,0-1.4-0.6-1.4-1.3C130.5,95.1,131,94.6,131.8,94.5z M133.3,95.1v-0.2l-1.3,0.2c-0.4,0.1-0.6,0.3-0.6,0.6
					c0,0.3,0.3,0.6,0.7,0.6C132.7,96.4,133.3,96.1,133.3,95.1z"/>
				<path class="st2" d="M138.7,92.7l1.1,3.3l1-3.3h0.9l-1.4,4.3h-0.9l-1.2-3.3l-1.1,3.3h-0.9l-1.4-4.3h0.9l1,3.3l1.1-3.3H138.7z"/>
				<path class="st2" d="M142.9,90.4c0.3,0,0.6,0.3,0.6,0.6c0,0.3-0.3,0.6-0.6,0.6c-0.3,0-0.6-0.3-0.6-0.6
					C142.3,90.7,142.6,90.4,142.9,90.4z M142.5,97v-4.3h0.8V97H142.5z"/>
				<path class="st2" d="M145.6,97h-0.8v-4.3h0.8v0.6c0.3-0.5,0.8-0.7,1.3-0.7c1,0,1.5,0.7,1.5,1.7V97h-0.8v-2.6
					c0-0.6-0.3-1.1-1-1.1c-0.7,0-1,0.5-1,1.2V97z"/>
				<path class="st2" d="M150.2,97c0.1,0.6,0.5,1.1,1.2,1.1c0.9,0,1.3-0.5,1.3-1.4v-0.6c-0.2,0.4-0.7,0.7-1.3,0.7
					c-1.2,0-2-0.9-2-2.1c0-1.2,0.8-2.1,2-2.1c0.7,0,1.1,0.3,1.3,0.7v-0.6h0.8v4c0,1.1-0.5,2.2-2.2,2.2c-1.1,0-1.9-0.7-2-1.6
					L150.2,97z M152.8,94.7c0-0.8-0.5-1.4-1.2-1.4c-0.7,0-1.3,0.5-1.3,1.4c0,0.8,0.5,1.4,1.3,1.4C152.3,96.1,152.8,95.5,152.8,94.7z
					"/>
			</g>
			<g class="st1">
				<path class="st2" d="M11.2,105.8c0,1,0.6,1.5,1.3,1.5c0.8,0,1.1-0.5,1.2-0.9l0.7,0.3c-0.2,0.6-0.8,1.4-2,1.4
					c-1.3,0-2.2-1-2.2-2.3c0-1.4,0.9-2.3,2.2-2.3c1.2,0,1.7,0.7,1.9,1.4l-0.8,0.3c-0.1-0.4-0.4-0.9-1.2-0.9
					C11.9,104.3,11.2,104.8,11.2,105.8z"/>
				<path class="st2" d="M19.5,105.8c0,1.3-0.9,2.3-2.2,2.3s-2.2-1-2.2-2.3c0-1.3,0.9-2.3,2.2-2.3S19.5,104.5,19.5,105.8z
					 M18.6,105.8c0-1-0.6-1.5-1.4-1.5s-1.4,0.5-1.4,1.5c0,1,0.6,1.5,1.4,1.5S18.6,106.8,18.6,105.8z"/>
				<path class="st2" d="M21.3,108h-0.8v-4.3h0.8v0.6c0.3-0.5,0.8-0.7,1.3-0.7c1,0,1.5,0.7,1.5,1.7v2.7h-0.8v-2.6
					c0-0.6-0.3-1.1-1-1.1c-0.7,0-1,0.5-1,1.2V108z"/>
				<path class="st2" d="M26.7,103.7h0.9v0.8h-0.9v2.3c0,0.4,0.2,0.6,0.6,0.6c0.1,0,0.3,0,0.3,0v0.7c-0.1,0-0.3,0.1-0.6,0.1
					c-0.7,0-1.2-0.5-1.2-1.2v-2.4H25v-0.8h0.2c0.5,0,0.7-0.3,0.7-0.7v-0.7h0.8V103.7z"/>
				<path class="st2" d="M31,104.5c-0.1,0-0.3,0-0.4,0c-0.7,0-1.2,0.4-1.2,1.3v2.2h-0.8v-4.3h0.8v0.8c0.3-0.7,0.9-0.8,1.3-0.8
					c0.1,0,0.2,0,0.3,0V104.5z"/>
				<path class="st2" d="M35.9,105.8c0,1.3-0.9,2.3-2.2,2.3s-2.2-1-2.2-2.3c0-1.3,0.9-2.3,2.2-2.3S35.9,104.5,35.9,105.8z M35,105.8
					c0-1-0.6-1.5-1.4-1.5s-1.4,0.5-1.4,1.5c0,1,0.6,1.5,1.4,1.5S35,106.8,35,105.8z"/>
				<path class="st2" d="M38.7,108h-0.9l-1.8-4.3h1l1.2,3.3l1.2-3.3h0.9L38.7,108z"/>
				<path class="st2" d="M44.9,106.8c-0.2,0.8-0.9,1.4-1.9,1.4c-1.2,0-2.2-0.8-2.2-2.3c0-1.4,1-2.3,2.1-2.3c1.3,0,2.1,0.9,2.1,2.3
					c0,0.1,0,0.2,0,0.3h-3.3c0,0.8,0.6,1.3,1.3,1.3c0.7,0,1.1-0.4,1.2-0.9L44.9,106.8z M44,105.4c0-0.6-0.4-1.1-1.2-1.1
					c-0.7,0-1.1,0.5-1.2,1.1H44z"/>
				<path class="st2" d="M48.3,104.5c-0.1,0-0.3,0-0.4,0c-0.7,0-1.2,0.4-1.2,1.3v2.2h-0.8v-4.3h0.8v0.8c0.3-0.7,0.9-0.8,1.3-0.8
					c0.1,0,0.2,0,0.3,0V104.5z"/>
				<path class="st2" d="M49.5,106.6c0.1,0.5,0.4,0.8,1,0.8c0.5,0,0.7-0.3,0.7-0.6c0-0.3-0.2-0.5-0.6-0.6l-0.7-0.2
					c-0.7-0.1-1.1-0.6-1.1-1.2c0-0.7,0.7-1.4,1.5-1.4c1.2,0,1.6,0.8,1.6,1.2l-0.7,0.3c0-0.2-0.2-0.7-0.9-0.7c-0.4,0-0.7,0.3-0.7,0.6
					c0,0.3,0.2,0.5,0.5,0.5l0.7,0.2c0.8,0.2,1.2,0.6,1.2,1.3c0,0.6-0.5,1.3-1.6,1.3c-1.2,0-1.7-0.8-1.8-1.3L49.5,106.6z"/>
				<path class="st2" d="M53.3,109.8l1.1-2.3l-1.9-3.9h1l1.4,3l1.3-3h0.9l-2.8,6.1H53.3z"/>
				<path class="st2" d="M57.4,106.8c0.4,0,0.7,0.3,0.7,0.9c0,1.2-0.8,1.7-1.3,1.8V109c0.4-0.1,0.7-0.5,0.7-1c0,0-0.1,0-0.2,0
					c-0.3,0-0.6-0.2-0.6-0.6C56.7,107.1,57,106.8,57.4,106.8z"/>
				<path class="st2" d="M62.7,105.5l1.2-0.2c0.3,0,0.3-0.2,0.3-0.3c0-0.4-0.3-0.8-0.9-0.8c-0.6,0-0.9,0.4-1,0.9l-0.8-0.2
					c0.1-0.8,0.8-1.4,1.8-1.4c1.3,0,1.8,0.7,1.8,1.6v2.2c0,0.4,0,0.6,0.1,0.7h-0.8c0-0.1,0-0.3,0-0.6c-0.2,0.3-0.6,0.7-1.4,0.7
					c-0.9,0-1.4-0.6-1.4-1.3C61.4,106.1,61.9,105.6,62.7,105.5z M64.2,106.1v-0.2l-1.3,0.2c-0.4,0.1-0.6,0.3-0.6,0.6
					c0,0.3,0.3,0.6,0.7,0.6C63.6,107.4,64.2,107.1,64.2,106.1z"/>
				<path class="st2" d="M67.2,108h-0.8v-4.3h0.8v0.6c0.3-0.5,0.8-0.7,1.3-0.7c1,0,1.5,0.7,1.5,1.7v2.7h-0.8v-2.6
					c0-0.6-0.3-1.1-1-1.1c-0.7,0-1,0.5-1,1.2V108z"/>
				<path class="st2" d="M74.4,107.3c-0.2,0.4-0.7,0.8-1.3,0.8c-1.3,0-2.1-1-2.1-2.3c0-1.2,0.8-2.3,2.1-2.3c0.8,0,1.2,0.4,1.3,0.7
					v-2.8h0.8v5.7c0,0.4,0,0.7,0,0.8h-0.8C74.4,107.9,74.4,107.7,74.4,107.3L74.4,107.3z M73.1,107.4c0.8,0,1.3-0.7,1.3-1.6
					c0-0.9-0.5-1.5-1.2-1.5c-0.8,0-1.3,0.6-1.3,1.5S72.3,107.4,73.1,107.4z"/>
				<path class="st2" d="M82.1,103.7l1.1,3.3l1-3.3h0.9l-1.4,4.3h-0.9l-1.2-3.3l-1.1,3.3h-0.9l-1.4-4.3h0.9l1,3.3l1.1-3.3H82.1z"/>
				<path class="st2" d="M86.9,105.5l1.2-0.2c0.3,0,0.3-0.2,0.3-0.3c0-0.4-0.3-0.8-0.9-0.8c-0.6,0-0.9,0.4-1,0.9l-0.8-0.2
					c0.1-0.8,0.8-1.4,1.8-1.4c1.3,0,1.8,0.7,1.8,1.6v2.2c0,0.4,0,0.6,0.1,0.7h-0.8c0-0.1,0-0.3,0-0.6c-0.2,0.3-0.6,0.7-1.4,0.7
					c-0.9,0-1.4-0.6-1.4-1.3C85.5,106.1,86.1,105.6,86.9,105.5z M88.4,106.1v-0.2l-1.3,0.2c-0.4,0.1-0.6,0.3-0.6,0.6
					c0,0.3,0.3,0.6,0.7,0.6C87.8,107.4,88.4,107.1,88.4,106.1z"/>
				<path class="st2" d="M90.8,106.6c0.1,0.5,0.4,0.8,1,0.8c0.5,0,0.7-0.3,0.7-0.6c0-0.3-0.2-0.5-0.6-0.6l-0.7-0.2
					c-0.7-0.1-1.1-0.6-1.1-1.2c0-0.7,0.7-1.4,1.5-1.4c1.2,0,1.6,0.8,1.6,1.2l-0.7,0.3c0-0.2-0.2-0.7-0.9-0.7c-0.4,0-0.7,0.3-0.7,0.6
					c0,0.3,0.2,0.5,0.5,0.5l0.7,0.2c0.8,0.2,1.2,0.6,1.2,1.3c0,0.6-0.5,1.3-1.6,1.3c-1.2,0-1.7-0.8-1.8-1.3L90.8,106.6z"/>
				<path class="st2" d="M97.6,108h-0.8v-6.5h0.8v2.7c0.3-0.5,0.8-0.6,1.3-0.6c1,0,1.5,0.7,1.5,1.7v2.7h-0.8v-2.6
					c0-0.6-0.3-1.1-1-1.1c-0.6,0-1,0.5-1,1.1V108z"/>
				<path class="st2" d="M102.8,105.5l1.2-0.2c0.3,0,0.3-0.2,0.3-0.3c0-0.4-0.3-0.8-0.9-0.8c-0.6,0-0.9,0.4-1,0.9l-0.8-0.2
					c0.1-0.8,0.8-1.4,1.8-1.4c1.3,0,1.8,0.7,1.8,1.6v2.2c0,0.4,0,0.6,0.1,0.7h-0.8c0-0.1,0-0.3,0-0.6c-0.2,0.3-0.6,0.7-1.4,0.7
					c-0.9,0-1.4-0.6-1.4-1.3C101.4,106.1,102,105.6,102.8,105.5z M104.3,106.1v-0.2l-1.3,0.2c-0.4,0.1-0.6,0.3-0.6,0.6
					c0,0.3,0.3,0.6,0.7,0.6C103.7,107.4,104.3,107.1,104.3,106.1z"/>
				<path class="st2" d="M106.7,106.6c0.1,0.5,0.4,0.8,1,0.8c0.5,0,0.7-0.3,0.7-0.6c0-0.3-0.2-0.5-0.6-0.6l-0.7-0.2
					c-0.7-0.1-1.1-0.6-1.1-1.2c0-0.7,0.7-1.4,1.5-1.4c1.2,0,1.6,0.8,1.6,1.2l-0.7,0.3c0-0.2-0.2-0.7-0.9-0.7c-0.4,0-0.7,0.3-0.7,0.6
					c0,0.3,0.2,0.5,0.5,0.5l0.7,0.2c0.8,0.2,1.2,0.6,1.2,1.3c0,0.6-0.5,1.3-1.6,1.3c-1.2,0-1.7-0.8-1.8-1.3L106.7,106.6z"/>
				<path class="st2" d="M112.6,108v-6.5h0.8v2.8c0.2-0.4,0.7-0.7,1.4-0.7c1.3,0,2,1,2,2.3c0,1.3-0.7,2.3-2,2.3
					c-0.6,0-1.1-0.3-1.4-0.7v0.6H112.6z M114.7,104.3c-0.7,0-1.3,0.6-1.3,1.5s0.5,1.5,1.3,1.5c0.8,0,1.3-0.6,1.3-1.5
					S115.5,104.3,114.7,104.3z"/>
				<path class="st2" d="M121.7,106.8c-0.2,0.8-0.9,1.4-1.9,1.4c-1.2,0-2.2-0.8-2.2-2.3c0-1.4,1-2.3,2.1-2.3c1.3,0,2.1,0.9,2.1,2.3
					c0,0.1,0,0.2,0,0.3h-3.3c0,0.8,0.6,1.3,1.3,1.3c0.7,0,1.1-0.4,1.2-0.9L121.7,106.8z M120.8,105.4c0-0.6-0.4-1.1-1.2-1.1
					c-0.7,0-1.1,0.5-1.2,1.1H120.8z"/>
				<path class="st2" d="M126.5,106.8c-0.2,0.8-0.9,1.4-1.9,1.4c-1.2,0-2.2-0.8-2.2-2.3c0-1.4,1-2.3,2.1-2.3c1.3,0,2.1,0.9,2.1,2.3
					c0,0.1,0,0.2,0,0.3h-3.3c0,0.8,0.6,1.3,1.3,1.3c0.7,0,1.1-0.4,1.2-0.9L126.5,106.8z M125.7,105.4c0-0.6-0.4-1.1-1.2-1.1
					c-0.7,0-1.1,0.5-1.2,1.1H125.7z"/>
				<path class="st2" d="M128.4,108h-0.8v-4.3h0.8v0.6c0.3-0.5,0.8-0.7,1.3-0.7c1,0,1.5,0.7,1.5,1.7v2.7h-0.8v-2.6
					c0-0.6-0.3-1.1-1-1.1c-0.7,0-1,0.5-1,1.2V108z"/>
				<path class="st2" d="M137.8,107.3c-0.2,0.4-0.7,0.8-1.3,0.8c-1.3,0-2.1-1-2.1-2.3c0-1.2,0.8-2.3,2.1-2.3c0.8,0,1.2,0.4,1.3,0.7
					v-2.8h0.8v5.7c0,0.4,0,0.7,0,0.8h-0.8C137.8,107.9,137.8,107.7,137.8,107.3L137.8,107.3z M136.6,107.4c0.8,0,1.3-0.7,1.3-1.6
					c0-0.9-0.5-1.5-1.2-1.5s-1.3,0.6-1.3,1.5S135.7,107.4,136.6,107.4z"/>
				<path class="st2" d="M143.8,106.8c-0.2,0.8-0.9,1.4-1.9,1.4c-1.2,0-2.2-0.8-2.2-2.3c0-1.4,1-2.3,2.1-2.3c1.3,0,2.1,0.9,2.1,2.3
					c0,0.1,0,0.2,0,0.3h-3.3c0,0.8,0.6,1.3,1.3,1.3c0.7,0,1.1-0.4,1.2-0.9L143.8,106.8z M142.9,105.4c0-0.6-0.4-1.1-1.2-1.1
					c-0.7,0-1.1,0.5-1.2,1.1H142.9z"/>
				<path class="st2" d="M145.2,106.6c0.1,0.5,0.4,0.8,1,0.8c0.5,0,0.7-0.3,0.7-0.6c0-0.3-0.2-0.5-0.6-0.6l-0.7-0.2
					c-0.7-0.1-1.1-0.6-1.1-1.2c0-0.7,0.7-1.4,1.5-1.4c1.2,0,1.6,0.8,1.6,1.2L147,105c0-0.2-0.2-0.7-0.9-0.7c-0.4,0-0.7,0.3-0.7,0.6
					c0,0.3,0.2,0.5,0.5,0.5l0.7,0.2c0.8,0.2,1.2,0.6,1.2,1.3c0,0.6-0.5,1.3-1.6,1.3c-1.2,0-1.7-0.8-1.8-1.3L145.2,106.6z"/>
				<path class="st2" d="M149.3,105.8c0,1,0.6,1.5,1.3,1.5c0.8,0,1.1-0.5,1.2-0.9l0.7,0.3c-0.2,0.6-0.8,1.4-2,1.4
					c-1.3,0-2.2-1-2.2-2.3c0-1.4,0.9-2.3,2.2-2.3c1.2,0,1.7,0.7,1.9,1.4l-0.8,0.3c-0.1-0.4-0.4-0.9-1.2-0.9
					C150,104.3,149.3,104.8,149.3,105.8z"/>
				<path class="st2" d="M156,104.5c-0.1,0-0.3,0-0.4,0c-0.7,0-1.2,0.4-1.2,1.3v2.2h-0.8v-4.3h0.8v0.8c0.3-0.7,0.9-0.8,1.3-0.8
					c0.1,0,0.2,0,0.3,0V104.5z"/>
				<path class="st2" d="M157.2,101.4c0.3,0,0.6,0.3,0.6,0.6c0,0.3-0.3,0.6-0.6,0.6c-0.3,0-0.6-0.3-0.6-0.6
					C156.6,101.7,156.9,101.4,157.2,101.4z M156.8,108v-4.3h0.8v4.3H156.8z"/>
				<path class="st2" d="M159.1,108v-6.5h0.8v2.8c0.2-0.4,0.7-0.7,1.4-0.7c1.3,0,2,1,2,2.3c0,1.3-0.7,2.3-2,2.3
					c-0.6,0-1.1-0.3-1.4-0.7v0.6H159.1z M161.2,104.3c-0.7,0-1.3,0.6-1.3,1.5s0.5,1.5,1.3,1.5c0.8,0,1.3-0.6,1.3-1.5
					S162,104.3,161.2,104.3z"/>
				<path class="st2" d="M168.1,106.8c-0.2,0.8-0.9,1.4-1.9,1.4c-1.2,0-2.2-0.8-2.2-2.3c0-1.4,1-2.3,2.1-2.3c1.3,0,2.1,0.9,2.1,2.3
					c0,0.1,0,0.2,0,0.3h-3.3c0,0.8,0.6,1.3,1.3,1.3c0.7,0,1.1-0.4,1.2-0.9L168.1,106.8z M167.3,105.4c0-0.6-0.4-1.1-1.2-1.1
					c-0.7,0-1.1,0.5-1.2,1.1H167.3z"/>
				<path class="st2" d="M172.2,107.3c-0.2,0.4-0.7,0.8-1.3,0.8c-1.3,0-2.1-1-2.1-2.3c0-1.2,0.8-2.3,2.1-2.3c0.8,0,1.2,0.4,1.3,0.7
					v-2.8h0.8v5.7c0,0.4,0,0.7,0,0.8h-0.8C172.2,107.9,172.2,107.7,172.2,107.3L172.2,107.3z M171,107.4c0.8,0,1.3-0.7,1.3-1.6
					c0-0.9-0.5-1.5-1.2-1.5c-0.8,0-1.3,0.6-1.3,1.5S170.1,107.4,171,107.4z"/>
			</g>
			<g class="st1">
				<path class="st2" d="M11.8,116.5l1.2-0.2c0.3,0,0.3-0.2,0.3-0.3c0-0.4-0.3-0.8-0.9-0.8c-0.6,0-0.9,0.4-1,0.9l-0.8-0.2
					c0.1-0.8,0.8-1.4,1.8-1.4c1.3,0,1.8,0.7,1.8,1.6v2.2c0,0.4,0,0.6,0.1,0.7h-0.8c0-0.1,0-0.3,0-0.6c-0.2,0.3-0.6,0.7-1.4,0.7
					c-0.9,0-1.4-0.6-1.4-1.3C10.5,117.1,11,116.6,11.8,116.5z M13.3,117.1v-0.2l-1.3,0.2c-0.4,0.1-0.6,0.3-0.6,0.6
					c0,0.3,0.3,0.6,0.7,0.6C12.7,118.4,13.3,118.1,13.3,117.1z"/>
				<path class="st2" d="M15.7,117.6c0.1,0.5,0.4,0.8,1,0.8c0.5,0,0.7-0.3,0.7-0.6c0-0.3-0.2-0.5-0.6-0.6l-0.7-0.2
					c-0.7-0.1-1.1-0.6-1.1-1.2c0-0.7,0.7-1.4,1.5-1.4c1.2,0,1.6,0.8,1.6,1.2l-0.7,0.3c0-0.2-0.2-0.7-0.9-0.7c-0.4,0-0.7,0.3-0.7,0.6
					c0,0.3,0.2,0.5,0.5,0.5l0.7,0.2c0.8,0.2,1.2,0.6,1.2,1.3c0,0.6-0.5,1.3-1.6,1.3c-1.2,0-1.7-0.8-1.8-1.3L15.7,117.6z"/>
				<path class="st2" d="M25.7,116.8c0,1.3-0.9,2.3-2.2,2.3s-2.2-1-2.2-2.3c0-1.3,0.9-2.3,2.2-2.3S25.7,115.5,25.7,116.8z
					 M24.8,116.8c0-1-0.6-1.5-1.4-1.5s-1.4,0.5-1.4,1.5c0,1,0.6,1.5,1.4,1.5S24.8,117.8,24.8,116.8z"/>
				<path class="st2" d="M27.6,119h-0.8v-4.3h0.8v0.6c0.3-0.5,0.8-0.7,1.3-0.7c1,0,1.5,0.7,1.5,1.7v2.7h-0.8v-2.6
					c0-0.6-0.3-1.1-1-1.1c-0.7,0-1,0.5-1,1.2V119z"/>
				<path class="st2" d="M35.5,117.8c-0.2,0.8-0.9,1.4-1.9,1.4c-1.2,0-2.2-0.8-2.2-2.3c0-1.4,1-2.3,2.1-2.3c1.3,0,2.1,0.9,2.1,2.3
					c0,0.1,0,0.2,0,0.3h-3.3c0,0.8,0.6,1.3,1.3,1.3c0.7,0,1.1-0.4,1.2-0.9L35.5,117.8z M34.6,116.4c0-0.6-0.4-1.1-1.2-1.1
					c-0.7,0-1.1,0.5-1.2,1.1H34.6z"/>
				<path class="st2" d="M42.8,116.8c0,1.3-0.9,2.3-2.2,2.3s-2.2-1-2.2-2.3c0-1.3,0.9-2.3,2.2-2.3S42.8,115.5,42.8,116.8z M42,116.8
					c0-1-0.6-1.5-1.4-1.5s-1.4,0.5-1.4,1.5c0,1,0.6,1.5,1.4,1.5S42,117.8,42,116.8z"/>
				<path class="st2" d="M45,115.4v3.6h-0.9v-3.6h-0.8v-0.8h0.8v-0.7c0-1,0.6-1.5,1.4-1.5c0.3,0,0.5,0.1,0.5,0.1v0.8
					c0,0-0.2-0.1-0.4-0.1c-0.3,0-0.7,0.1-0.7,0.7v0.7h1v0.8H45z"/>
				<path class="st2" d="M50.2,114.7h0.9v0.8h-0.9v2.3c0,0.4,0.2,0.6,0.6,0.6c0.1,0,0.3,0,0.3,0v0.7c-0.1,0-0.3,0.1-0.6,0.1
					c-0.7,0-1.2-0.5-1.2-1.2v-2.4h-0.8v-0.8h0.2c0.5,0,0.7-0.3,0.7-0.7v-0.7h0.8V114.7z"/>
				<path class="st2" d="M53.1,119h-0.8v-6.5h0.8v2.7c0.3-0.5,0.8-0.6,1.3-0.6c1,0,1.5,0.7,1.5,1.7v2.7h-0.8v-2.6
					c0-0.6-0.3-1.1-1-1.1c-0.6,0-1,0.5-1,1.1V119z"/>
				<path class="st2" d="M61,117.8c-0.2,0.8-0.9,1.4-1.9,1.4c-1.2,0-2.2-0.8-2.2-2.3c0-1.4,1-2.3,2.1-2.3c1.3,0,2.1,0.9,2.1,2.3
					c0,0.1,0,0.2,0,0.3h-3.3c0,0.8,0.6,1.3,1.3,1.3c0.7,0,1.1-0.4,1.2-0.9L61,117.8z M60.2,116.4c0-0.6-0.4-1.1-1.2-1.1
					c-0.7,0-1.1,0.5-1.2,1.1H60.2z"/>
				<path class="st2" d="M64.3,119v-4.3h0.8v0.6c0.3-0.5,0.8-0.7,1.3-0.7c0.5,0,1.1,0.3,1.3,0.8c0.3-0.6,0.9-0.8,1.4-0.8
					c0.8,0,1.5,0.5,1.5,1.6v2.8h-0.8v-2.7c0-0.6-0.3-1-0.9-1c-0.6,0-1,0.5-1,1.1v2.6h-0.8v-2.7c0-0.6-0.3-1-0.9-1
					c-0.6,0-1,0.5-1,1.1v2.6H64.3z"/>
				<path class="st2" d="M76.1,116.8c0,1.3-0.9,2.3-2.2,2.3s-2.2-1-2.2-2.3c0-1.3,0.9-2.3,2.2-2.3S76.1,115.5,76.1,116.8z
					 M75.2,116.8c0-1-0.6-1.5-1.4-1.5s-1.4,0.5-1.4,1.5c0,1,0.6,1.5,1.4,1.5S75.2,117.8,75.2,116.8z"/>
				<path class="st2" d="M77.4,117.6c0.1,0.5,0.4,0.8,1,0.8c0.5,0,0.7-0.3,0.7-0.6c0-0.3-0.2-0.5-0.6-0.6l-0.7-0.2
					c-0.7-0.1-1.1-0.6-1.1-1.2c0-0.7,0.7-1.4,1.5-1.4c1.2,0,1.6,0.8,1.6,1.2l-0.7,0.3c0-0.2-0.2-0.7-0.9-0.7c-0.4,0-0.7,0.3-0.7,0.6
					c0,0.3,0.2,0.5,0.5,0.5l0.7,0.2c0.8,0.2,1.2,0.6,1.2,1.3c0,0.6-0.5,1.3-1.6,1.3c-1.2,0-1.7-0.8-1.8-1.3L77.4,117.6z"/>
				<path class="st2" d="M82.2,114.7h0.9v0.8h-0.9v2.3c0,0.4,0.2,0.6,0.6,0.6c0.1,0,0.3,0,0.3,0v0.7c-0.1,0-0.3,0.1-0.6,0.1
					c-0.7,0-1.2-0.5-1.2-1.2v-2.4h-0.8v-0.8h0.2c0.5,0,0.7-0.3,0.7-0.7v-0.7h0.8V114.7z"/>
				<path class="st2" d="M86.9,112.4c0.3,0,0.6,0.3,0.6,0.6c0,0.3-0.3,0.6-0.6,0.6c-0.3,0-0.6-0.3-0.6-0.6
					C86.3,112.7,86.5,112.4,86.9,112.4z M86.5,119v-4.3h0.8v4.3H86.5z"/>
				<path class="st2" d="M89.5,119h-0.8v-4.3h0.8v0.6c0.3-0.5,0.8-0.7,1.3-0.7c1,0,1.5,0.7,1.5,1.7v2.7h-0.8v-2.6
					c0-0.6-0.3-1.1-1-1.1c-0.7,0-1,0.5-1,1.2V119z"/>
				<path class="st2" d="M94.8,114v0.7h2v-2.2h0.8v6.5h-0.8v-3.6h-2v3.6H94v-3.6h-0.8v-0.8H94v-0.7c0-1,0.6-1.5,1.4-1.5
					c0.3,0,0.5,0.1,0.5,0.1v0.8c0,0-0.2-0.1-0.4-0.1C95.2,113.2,94.8,113.4,94.8,114z"/>
				<path class="st2" d="M100.7,119.1c-1,0-1.6-0.8-1.6-1.7v-2.7h0.8v2.6c0,0.6,0.3,1.1,1,1.1c0.7,0,1-0.5,1-1.1v-2.6h0.8v3.5
					c0,0.3,0,0.6,0,0.8H102c0-0.1,0-0.3,0-0.5C101.7,118.9,101.2,119.1,100.7,119.1z"/>
				<path class="st2" d="M107.9,117.8c-0.2,0.8-0.9,1.4-1.9,1.4c-1.2,0-2.2-0.8-2.2-2.3c0-1.4,1-2.3,2.1-2.3c1.3,0,2.1,0.9,2.1,2.3
					c0,0.1,0,0.2,0,0.3h-3.3c0,0.8,0.6,1.3,1.3,1.3c0.7,0,1.1-0.4,1.2-0.9L107.9,117.8z M107,116.4c0-0.6-0.4-1.1-1.2-1.1
					c-0.7,0-1.1,0.5-1.2,1.1H107z"/>
				<path class="st2" d="M109.8,119h-0.8v-4.3h0.8v0.6c0.3-0.5,0.8-0.7,1.3-0.7c1,0,1.5,0.7,1.5,1.7v2.7h-0.8v-2.6
					c0-0.6-0.3-1.1-1-1.1c-0.7,0-1,0.5-1,1.2V119z"/>
				<path class="st2" d="M115.1,114.7h0.9v0.8h-0.9v2.3c0,0.4,0.2,0.6,0.6,0.6c0.1,0,0.3,0,0.3,0v0.7c-0.1,0-0.3,0.1-0.6,0.1
					c-0.7,0-1.2-0.5-1.2-1.2v-2.4h-0.8v-0.8h0.2c0.5,0,0.7-0.3,0.7-0.7v-0.7h0.8V114.7z"/>
				<path class="st2" d="M117.5,112.4c0.3,0,0.6,0.3,0.6,0.6c0,0.3-0.3,0.6-0.6,0.6c-0.3,0-0.6-0.3-0.6-0.6
					C116.9,112.7,117.2,112.4,117.5,112.4z M117.1,119v-4.3h0.8v4.3H117.1z"/>
				<path class="st2" d="M120.4,116.5l1.2-0.2c0.3,0,0.3-0.2,0.3-0.3c0-0.4-0.3-0.8-0.9-0.8c-0.6,0-0.9,0.4-1,0.9l-0.8-0.2
					c0.1-0.8,0.8-1.4,1.8-1.4c1.3,0,1.8,0.7,1.8,1.6v2.2c0,0.4,0,0.6,0.1,0.7h-0.8c0-0.1,0-0.3,0-0.6c-0.2,0.3-0.6,0.7-1.4,0.7
					c-0.9,0-1.4-0.6-1.4-1.3C119,117.1,119.6,116.6,120.4,116.5z M121.9,117.1v-0.2l-1.3,0.2c-0.4,0.1-0.6,0.3-0.6,0.6
					c0,0.3,0.3,0.6,0.7,0.6C121.3,118.4,121.9,118.1,121.9,117.1z"/>
				<path class="st2" d="M124,119v-6.5h0.8v6.5H124z"/>
				<path class="st2" d="M128.9,116.8c0,1,0.6,1.5,1.3,1.5c0.8,0,1.1-0.5,1.2-0.9l0.7,0.3c-0.2,0.6-0.8,1.4-2,1.4
					c-1.3,0-2.2-1-2.2-2.3c0-1.4,0.9-2.3,2.2-2.3c1.2,0,1.7,0.7,1.9,1.4l-0.8,0.3c-0.1-0.4-0.4-0.9-1.2-0.9
					C129.6,115.3,128.9,115.8,128.9,116.8z"/>
				<path class="st2" d="M135.5,115.5c-0.1,0-0.3,0-0.4,0c-0.7,0-1.2,0.4-1.2,1.3v2.2h-0.8v-4.3h0.8v0.8c0.3-0.7,0.9-0.8,1.3-0.8
					c0.1,0,0.2,0,0.3,0V115.5z"/>
				<path class="st2" d="M136.8,112.4c0.3,0,0.6,0.3,0.6,0.6c0,0.3-0.3,0.6-0.6,0.6c-0.3,0-0.6-0.3-0.6-0.6
					C136.2,112.7,136.5,112.4,136.8,112.4z M136.4,119v-4.3h0.8v4.3H136.4z"/>
				<path class="st2" d="M139.8,114.7h0.9v0.8h-0.9v2.3c0,0.4,0.2,0.6,0.6,0.6c0.1,0,0.3,0,0.3,0v0.7c-0.1,0-0.3,0.1-0.6,0.1
					c-0.7,0-1.2-0.5-1.2-1.2v-2.4h-0.8v-0.8h0.2c0.5,0,0.7-0.3,0.7-0.7v-0.7h0.8V114.7z"/>
				<path class="st2" d="M142.2,112.4c0.3,0,0.6,0.3,0.6,0.6c0,0.3-0.3,0.6-0.6,0.6c-0.3,0-0.6-0.3-0.6-0.6
					C141.6,112.7,141.9,112.4,142.2,112.4z M141.8,119v-4.3h0.8v4.3H141.8z"/>
				<path class="st2" d="M144.5,116.8c0,1,0.6,1.5,1.3,1.5c0.8,0,1.1-0.5,1.2-0.9l0.7,0.3c-0.2,0.6-0.8,1.4-2,1.4
					c-1.3,0-2.2-1-2.2-2.3c0-1.4,0.9-2.3,2.2-2.3c1.2,0,1.7,0.7,1.9,1.4l-0.8,0.3c-0.1-0.4-0.4-0.9-1.2-0.9
					C145.2,115.3,144.5,115.8,144.5,116.8z"/>
				<path class="st2" d="M149.1,117.6c0.1,0.5,0.4,0.8,1,0.8c0.5,0,0.7-0.3,0.7-0.6c0-0.3-0.2-0.5-0.6-0.6l-0.7-0.2
					c-0.7-0.1-1.1-0.6-1.1-1.2c0-0.7,0.7-1.4,1.5-1.4c1.2,0,1.6,0.8,1.6,1.2l-0.7,0.3c0-0.2-0.2-0.7-0.9-0.7c-0.4,0-0.7,0.3-0.7,0.6
					c0,0.3,0.2,0.5,0.5,0.5l0.7,0.2c0.8,0.2,1.2,0.6,1.2,1.3c0,0.6-0.5,1.3-1.6,1.3c-1.2,0-1.7-0.8-1.8-1.3L149.1,117.6z"/>
				<path class="st2" d="M159,116.8c0,1.3-0.9,2.3-2.2,2.3s-2.2-1-2.2-2.3c0-1.3,0.9-2.3,2.2-2.3S159,115.5,159,116.8z M158.2,116.8
					c0-1-0.6-1.5-1.4-1.5s-1.4,0.5-1.4,1.5c0,1,0.6,1.5,1.4,1.5S158.2,117.8,158.2,116.8z"/>
				<path class="st2" d="M161.2,115.4v3.6h-0.9v-3.6h-0.8v-0.8h0.8v-0.7c0-1,0.6-1.5,1.4-1.5c0.3,0,0.5,0.1,0.5,0.1v0.8
					c0,0-0.2-0.1-0.4-0.1c-0.3,0-0.7,0.1-0.7,0.7v0.7h1v0.8H161.2z"/>
			</g>
			<g class="st1">
				<path class="st2" d="M11.6,130h-0.8v-6.5h0.8v2.7c0.3-0.5,0.8-0.6,1.3-0.6c1,0,1.5,0.7,1.5,1.7v2.7h-0.8v-2.6
					c0-0.6-0.3-1.1-1-1.1c-0.6,0-1,0.5-1,1.1V130z"/>
				<path class="st2" d="M19.5,128.8c-0.2,0.8-0.9,1.4-1.9,1.4c-1.2,0-2.2-0.8-2.2-2.3c0-1.4,1-2.3,2.1-2.3c1.3,0,2.1,0.9,2.1,2.3
					c0,0.1,0,0.2,0,0.3h-3.3c0,0.8,0.6,1.3,1.3,1.3c0.7,0,1.1-0.4,1.2-0.9L19.5,128.8z M18.7,127.4c0-0.6-0.4-1.1-1.2-1.1
					c-0.7,0-1.1,0.5-1.2,1.1H18.7z"/>
				<path class="st2" d="M23,126.5c-0.1,0-0.3,0-0.4,0c-0.7,0-1.2,0.4-1.2,1.3v2.2h-0.8v-4.3h0.8v0.8c0.3-0.7,0.9-0.8,1.3-0.8
					c0.1,0,0.2,0,0.3,0V126.5z"/>
				<path class="st2" d="M26.5,130c0.1,0.6,0.5,1.1,1.2,1.1c0.9,0,1.3-0.5,1.3-1.4v-0.6c-0.2,0.4-0.7,0.7-1.3,0.7
					c-1.2,0-2-0.9-2-2.1c0-1.2,0.8-2.1,2-2.1c0.7,0,1.1,0.3,1.3,0.7v-0.6h0.8v4c0,1.1-0.5,2.2-2.2,2.2c-1.1,0-1.9-0.7-2-1.6
					L26.5,130z M29.1,127.7c0-0.8-0.5-1.4-1.2-1.4c-0.7,0-1.3,0.5-1.3,1.4c0,0.8,0.5,1.4,1.3,1.4C28.6,129.1,29.1,128.5,29.1,127.7z
					"/>
				<path class="st2" d="M35,128.8c-0.2,0.8-0.9,1.4-1.9,1.4c-1.2,0-2.2-0.8-2.2-2.3c0-1.4,1-2.3,2.1-2.3c1.3,0,2.1,0.9,2.1,2.3
					c0,0.1,0,0.2,0,0.3h-3.3c0,0.8,0.6,1.3,1.3,1.3c0.7,0,1.1-0.4,1.2-0.9L35,128.8z M34.1,127.4c0-0.6-0.4-1.1-1.2-1.1
					c-0.7,0-1.1,0.5-1.2,1.1H34.1z"/>
				<path class="st2" d="M36.9,130H36v-4.3h0.8v0.6c0.3-0.5,0.8-0.7,1.3-0.7c1,0,1.5,0.7,1.5,1.7v2.7h-0.8v-2.6c0-0.6-0.3-1.1-1-1.1
					c-0.7,0-1,0.5-1,1.2V130z"/>
				<path class="st2" d="M44.8,128.8c-0.2,0.8-0.9,1.4-1.9,1.4c-1.2,0-2.2-0.8-2.2-2.3c0-1.4,1-2.3,2.1-2.3c1.3,0,2.1,0.9,2.1,2.3
					c0,0.1,0,0.2,0,0.3h-3.3c0,0.8,0.6,1.3,1.3,1.3c0.7,0,1.1-0.4,1.2-0.9L44.8,128.8z M43.9,127.4c0-0.6-0.4-1.1-1.2-1.1
					c-0.7,0-1.1,0.5-1.2,1.1H43.9z"/>
				<path class="st2" d="M48.3,126.5c-0.1,0-0.3,0-0.4,0c-0.7,0-1.2,0.4-1.2,1.3v2.2h-0.8v-4.3h0.8v0.8c0.3-0.7,0.9-0.8,1.3-0.8
					c0.1,0,0.2,0,0.3,0V126.5z"/>
				<path class="st2" d="M50.2,127.5l1.2-0.2c0.3,0,0.3-0.2,0.3-0.3c0-0.4-0.3-0.8-0.9-0.8c-0.6,0-0.9,0.4-1,0.9l-0.8-0.2
					c0.1-0.8,0.8-1.4,1.8-1.4c1.3,0,1.8,0.7,1.8,1.6v2.2c0,0.4,0,0.6,0.1,0.7h-0.8c0-0.1,0-0.3,0-0.6c-0.2,0.3-0.6,0.7-1.4,0.7
					c-0.9,0-1.4-0.6-1.4-1.3C48.9,128.1,49.4,127.6,50.2,127.5z M51.7,128.1v-0.2l-1.3,0.2c-0.4,0.1-0.6,0.3-0.6,0.6
					c0,0.3,0.3,0.6,0.7,0.6C51.1,129.4,51.7,129.1,51.7,128.1z"/>
				<path class="st2" d="M54.9,125.7h0.9v0.8h-0.9v2.3c0,0.4,0.2,0.6,0.6,0.6c0.1,0,0.3,0,0.3,0v0.7c-0.1,0-0.3,0.1-0.6,0.1
					c-0.7,0-1.2-0.5-1.2-1.2v-2.4h-0.8v-0.8h0.2c0.5,0,0.7-0.3,0.7-0.7v-0.7h0.8V125.7z"/>
				<path class="st2" d="M57.3,123.4c0.3,0,0.6,0.3,0.6,0.6c0,0.3-0.3,0.6-0.6,0.6c-0.3,0-0.6-0.3-0.6-0.6
					C56.7,123.7,57,123.4,57.3,123.4z M56.9,130v-4.3h0.8v4.3H56.9z"/>
				<path class="st2" d="M63.2,127.8c0,1.3-0.9,2.3-2.2,2.3s-2.2-1-2.2-2.3c0-1.3,0.9-2.3,2.2-2.3S63.2,126.5,63.2,127.8z
					 M62.4,127.8c0-1-0.6-1.5-1.4-1.5s-1.4,0.5-1.4,1.5c0,1,0.6,1.5,1.4,1.5S62.4,128.8,62.4,127.8z"/>
				<path class="st2" d="M65.1,130h-0.8v-4.3h0.8v0.6c0.3-0.5,0.8-0.7,1.3-0.7c1,0,1.5,0.7,1.5,1.7v2.7h-0.8v-2.6
					c0-0.6-0.3-1.1-1-1.1c-0.7,0-1,0.5-1,1.2V130z"/>
				<path class="st2" d="M69.8,128.8c0.4,0,0.6,0.3,0.6,0.6s-0.3,0.6-0.6,0.6s-0.6-0.3-0.6-0.6S69.5,128.8,69.8,128.8z"/>
			</g>
			<g class="st1">
				<path class="st2" d="M14.1,147.3c-0.1-0.5-0.5-1.1-1.4-1.1c-0.7,0-1.2,0.5-1.2,1.1c0,0.5,0.3,0.8,0.8,0.9l1,0.2
					c1.1,0.2,1.7,0.9,1.7,1.8c0,1-0.8,1.9-2.2,1.9c-1.5,0-2.3-1-2.4-1.9l0.8-0.3c0.1,0.7,0.6,1.4,1.5,1.4c0.9,0,1.3-0.5,1.3-1
					c0-0.5-0.3-0.9-1-1l-0.9-0.2c-0.9-0.2-1.6-0.8-1.6-1.7c0-1,0.9-1.9,2.1-1.9c1.4,0,2,0.9,2.2,1.6L14.1,147.3z"/>
				<path class="st2" d="M16.8,152H16v-6.5h0.8v2.7c0.3-0.5,0.8-0.6,1.3-0.6c1,0,1.5,0.7,1.5,1.7v2.7h-0.8v-2.6c0-0.6-0.3-1.1-1-1.1
					c-0.6,0-1,0.5-1,1.1V152z"/>
				<path class="st2" d="M24.8,150.8c-0.2,0.8-0.9,1.4-1.9,1.4c-1.2,0-2.2-0.8-2.2-2.3c0-1.4,1-2.3,2.1-2.3c1.3,0,2.1,0.9,2.1,2.3
					c0,0.1,0,0.2,0,0.3h-3.3c0,0.8,0.6,1.3,1.3,1.3c0.7,0,1.1-0.4,1.2-0.9L24.8,150.8z M23.9,149.4c0-0.6-0.4-1.1-1.2-1.1
					c-0.7,0-1.1,0.5-1.2,1.1H23.9z"/>
				<path class="st2" d="M31.3,147.7l1.1,3.3l1-3.3h0.9l-1.4,4.3H32l-1.2-3.3l-1.1,3.3h-0.9l-1.4-4.3h0.9l1,3.3l1.1-3.3H31.3z"/>
				<path class="st2" d="M36.1,149.5l1.2-0.2c0.3,0,0.3-0.2,0.3-0.3c0-0.4-0.3-0.8-0.9-0.8c-0.6,0-0.9,0.4-1,0.9l-0.8-0.2
					c0.1-0.8,0.8-1.4,1.8-1.4c1.3,0,1.8,0.7,1.8,1.6v2.2c0,0.4,0,0.6,0.1,0.7h-0.8c0-0.1,0-0.3,0-0.6c-0.2,0.3-0.6,0.7-1.4,0.7
					c-0.9,0-1.4-0.6-1.4-1.3C34.8,150.1,35.4,149.6,36.1,149.5z M37.6,150.1v-0.2l-1.3,0.2c-0.4,0.1-0.6,0.3-0.6,0.6
					c0,0.3,0.3,0.6,0.7,0.6C37.1,151.4,37.6,151.1,37.6,150.1z"/>
				<path class="st2" d="M40.1,150.6c0.1,0.5,0.4,0.8,1,0.8c0.5,0,0.7-0.3,0.7-0.6c0-0.3-0.2-0.5-0.6-0.6l-0.7-0.2
					c-0.7-0.1-1.1-0.6-1.1-1.2c0-0.7,0.7-1.4,1.5-1.4c1.2,0,1.6,0.8,1.6,1.2l-0.7,0.3c0-0.2-0.2-0.7-0.9-0.7c-0.4,0-0.7,0.3-0.7,0.6
					c0,0.3,0.2,0.5,0.5,0.5l0.7,0.2c0.8,0.2,1.2,0.6,1.2,1.3c0,0.6-0.5,1.3-1.6,1.3c-1.2,0-1.7-0.8-1.8-1.3L40.1,150.6z"/>
				<path class="st2" d="M49.7,150.8c-0.2,0.8-0.9,1.4-1.9,1.4c-1.2,0-2.2-0.8-2.2-2.3c0-1.4,1-2.3,2.1-2.3c1.3,0,2.1,0.9,2.1,2.3
					c0,0.1,0,0.2,0,0.3h-3.3c0,0.8,0.6,1.3,1.3,1.3c0.7,0,1.1-0.4,1.2-0.9L49.7,150.8z M48.9,149.4c0-0.6-0.4-1.1-1.2-1.1
					c-0.7,0-1.1,0.5-1.2,1.1H48.9z"/>
				<path class="st2" d="M51.1,150.6c0.1,0.5,0.4,0.8,1,0.8c0.5,0,0.7-0.3,0.7-0.6c0-0.3-0.2-0.5-0.6-0.6l-0.7-0.2
					c-0.7-0.1-1.1-0.6-1.1-1.2c0-0.7,0.7-1.4,1.5-1.4c1.2,0,1.6,0.8,1.6,1.2L53,149c0-0.2-0.2-0.7-0.9-0.7c-0.4,0-0.7,0.3-0.7,0.6
					c0,0.3,0.2,0.5,0.5,0.5l0.7,0.2c0.8,0.2,1.2,0.6,1.2,1.3c0,0.6-0.5,1.3-1.6,1.3c-1.2,0-1.7-0.8-1.8-1.3L51.1,150.6z"/>
				<path class="st2" d="M54.8,153.7v-6h0.8v0.7c0.2-0.4,0.7-0.8,1.4-0.8c1.3,0,2,1,2,2.3c0,1.3-0.7,2.3-2,2.3
					c-0.7,0-1.2-0.3-1.4-0.7v2.3H54.8z M56.9,148.3c-0.8,0-1.3,0.6-1.3,1.5c0,0.9,0.5,1.5,1.3,1.5c0.8,0,1.3-0.6,1.3-1.5
					C58.2,149,57.7,148.3,56.9,148.3z"/>
				<path class="st2" d="M63.9,150.8c-0.2,0.8-0.9,1.4-1.9,1.4c-1.2,0-2.2-0.8-2.2-2.3c0-1.4,1-2.3,2.1-2.3c1.3,0,2.1,0.9,2.1,2.3
					c0,0.1,0,0.2,0,0.3h-3.3c0,0.8,0.6,1.3,1.3,1.3c0.7,0,1.1-0.4,1.2-0.9L63.9,150.8z M63,149.4c0-0.6-0.4-1.1-1.2-1.1
					c-0.7,0-1.1,0.5-1.2,1.1H63z"/>
				<path class="st2" d="M65.4,149.8c0,1,0.6,1.5,1.3,1.5c0.8,0,1.1-0.5,1.2-0.9l0.7,0.3c-0.2,0.6-0.8,1.4-2,1.4
					c-1.3,0-2.2-1-2.2-2.3c0-1.4,0.9-2.3,2.2-2.3c1.2,0,1.7,0.7,1.9,1.4l-0.8,0.3c-0.1-0.4-0.4-0.9-1.2-0.9
					C66.1,148.3,65.4,148.8,65.4,149.8z"/>
				<path class="st2" d="M70.1,145.4c0.3,0,0.6,0.3,0.6,0.6c0,0.3-0.3,0.6-0.6,0.6c-0.3,0-0.6-0.3-0.6-0.6
					C69.5,145.7,69.7,145.4,70.1,145.4z M69.7,152v-4.3h0.8v4.3H69.7z"/>
				<path class="st2" d="M72.9,149.5l1.2-0.2c0.3,0,0.3-0.2,0.3-0.3c0-0.4-0.3-0.8-0.9-0.8c-0.6,0-0.9,0.4-1,0.9l-0.8-0.2
					c0.1-0.8,0.8-1.4,1.8-1.4c1.3,0,1.8,0.7,1.8,1.6v2.2c0,0.4,0,0.6,0.1,0.7h-0.8c0-0.1,0-0.3,0-0.6c-0.2,0.3-0.6,0.7-1.4,0.7
					c-0.9,0-1.4-0.6-1.4-1.3C71.6,150.1,72.2,149.6,72.9,149.5z M74.4,150.1v-0.2l-1.3,0.2c-0.4,0.1-0.6,0.3-0.6,0.6
					c0,0.3,0.3,0.6,0.7,0.6C73.9,151.4,74.4,151.1,74.4,150.1z"/>
				<path class="st2" d="M76.6,152v-6.5h0.8v6.5H76.6z"/>
				<path class="st2" d="M78.8,152v-6.5h0.8v6.5H78.8z"/>
				<path class="st2" d="M81.2,153.8l1.1-2.3l-1.9-3.9h1l1.4,3l1.3-3h0.9l-2.8,6.1H81.2z"/>
				<path class="st2" d="M88.9,149.5l1.2-0.2c0.3,0,0.3-0.2,0.3-0.3c0-0.4-0.3-0.8-0.9-0.8c-0.6,0-0.9,0.4-1,0.9l-0.8-0.2
					c0.1-0.8,0.8-1.4,1.8-1.4c1.3,0,1.8,0.7,1.8,1.6v2.2c0,0.4,0,0.6,0.1,0.7h-0.8c0-0.1,0-0.3,0-0.6c-0.2,0.3-0.6,0.7-1.4,0.7
					c-0.9,0-1.4-0.6-1.4-1.3C87.6,150.1,88.2,149.6,88.9,149.5z M90.5,150.1v-0.2l-1.3,0.2c-0.4,0.1-0.6,0.3-0.6,0.6
					c0,0.3,0.3,0.6,0.7,0.6C89.9,151.4,90.5,151.1,90.5,150.1z"/>
				<path class="st2" d="M93.1,149.8c0,1,0.6,1.5,1.3,1.5c0.8,0,1.1-0.5,1.2-0.9l0.7,0.3c-0.2,0.6-0.8,1.4-2,1.4
					c-1.3,0-2.2-1-2.2-2.3c0-1.4,0.9-2.3,2.2-2.3c1.2,0,1.7,0.7,1.9,1.4l-0.8,0.3c-0.1-0.4-0.4-0.9-1.2-0.9
					C93.7,148.3,93.1,148.8,93.1,149.8z"/>
				<path class="st2" d="M98.4,147.7h0.9v0.8h-0.9v2.3c0,0.4,0.2,0.6,0.6,0.6c0.1,0,0.3,0,0.3,0v0.7c-0.1,0-0.3,0.1-0.6,0.1
					c-0.7,0-1.2-0.5-1.2-1.2v-2.4h-0.8v-0.8H97c0.5,0,0.7-0.3,0.7-0.7v-0.7h0.8V147.7z"/>
				<path class="st2" d="M100.9,145.4c0.3,0,0.6,0.3,0.6,0.6c0,0.3-0.3,0.6-0.6,0.6c-0.3,0-0.6-0.3-0.6-0.6
					C100.3,145.7,100.5,145.4,100.9,145.4z M100.4,152v-4.3h0.8v4.3H100.4z"/>
				<path class="st2" d="M104.7,152h-0.9l-1.8-4.3h1l1.2,3.3l1.2-3.3h0.9L104.7,152z"/>
				<path class="st2" d="M110.8,150.8c-0.2,0.8-0.9,1.4-1.9,1.4c-1.2,0-2.2-0.8-2.2-2.3c0-1.4,1-2.3,2.1-2.3c1.3,0,2.1,0.9,2.1,2.3
					c0,0.1,0,0.2,0,0.3h-3.3c0,0.8,0.6,1.3,1.3,1.3c0.7,0,1.1-0.4,1.2-0.9L110.8,150.8z M109.9,149.4c0-0.6-0.4-1.1-1.2-1.1
					c-0.7,0-1.1,0.5-1.2,1.1H109.9z"/>
				<path class="st2" d="M114.5,145.4c0.3,0,0.6,0.3,0.6,0.6c0,0.3-0.3,0.6-0.6,0.6c-0.3,0-0.6-0.3-0.6-0.6
					C113.9,145.7,114.1,145.4,114.5,145.4z M114,152v-4.3h0.8v4.3H114z"/>
				<path class="st2" d="M117.1,152h-0.8v-4.3h0.8v0.6c0.3-0.5,0.8-0.7,1.3-0.7c1,0,1.5,0.7,1.5,1.7v2.7h-0.8v-2.6
					c0-0.6-0.3-1.1-1-1.1c-0.7,0-1,0.5-1,1.2V152z"/>
				<path class="st2" d="M126.8,147.7l1.1,3.3l1-3.3h0.9l-1.4,4.3h-0.9l-1.2-3.3l-1.1,3.3h-0.9l-1.4-4.3h0.9l1,3.3l1.1-3.3H126.8z"
					/>
				<path class="st2" d="M133,148.5c-0.1,0-0.3,0-0.4,0c-0.7,0-1.2,0.4-1.2,1.3v2.2h-0.8v-4.3h0.8v0.8c0.3-0.7,0.9-0.8,1.3-0.8
					c0.1,0,0.2,0,0.3,0V148.5z"/>
				<path class="st2" d="M134.3,145.4c0.3,0,0.6,0.3,0.6,0.6c0,0.3-0.3,0.6-0.6,0.6c-0.3,0-0.6-0.3-0.6-0.6
					C133.7,145.7,133.9,145.4,134.3,145.4z M133.8,152v-4.3h0.8v4.3H133.8z"/>
				<path class="st2" d="M137.2,147.7h0.9v0.8h-0.9v2.3c0,0.4,0.2,0.6,0.6,0.6c0.1,0,0.3,0,0.3,0v0.7c-0.1,0-0.3,0.1-0.6,0.1
					c-0.7,0-1.2-0.5-1.2-1.2v-2.4h-0.8v-0.8h0.2c0.5,0,0.7-0.3,0.7-0.7v-0.7h0.8V147.7z"/>
				<path class="st2" d="M139.6,145.4c0.3,0,0.6,0.3,0.6,0.6c0,0.3-0.3,0.6-0.6,0.6c-0.3,0-0.6-0.3-0.6-0.6
					C139,145.7,139.3,145.4,139.6,145.4z M139.2,152v-4.3h0.8v4.3H139.2z"/>
				<path class="st2" d="M142.3,152h-0.8v-4.3h0.8v0.6c0.3-0.5,0.8-0.7,1.3-0.7c1,0,1.5,0.7,1.5,1.7v2.7h-0.8v-2.6
					c0-0.6-0.3-1.1-1-1.1c-0.7,0-1,0.5-1,1.2V152z"/>
				<path class="st2" d="M147,152c0.1,0.6,0.5,1.1,1.2,1.1c0.9,0,1.3-0.5,1.3-1.4v-0.6c-0.2,0.4-0.7,0.7-1.3,0.7c-1.2,0-2-0.9-2-2.1
					c0-1.2,0.8-2.1,2-2.1c0.7,0,1.1,0.3,1.3,0.7v-0.6h0.8v4c0,1.1-0.5,2.2-2.2,2.2c-1.1,0-1.9-0.7-2-1.6L147,152z M149.5,149.7
					c0-0.8-0.5-1.4-1.2-1.4c-0.7,0-1.3,0.5-1.3,1.4c0,0.8,0.5,1.4,1.3,1.4C149,151.1,149.5,150.5,149.5,149.7z"/>
				<path class="st2" d="M154.9,149.5l1.2-0.2c0.3,0,0.3-0.2,0.3-0.3c0-0.4-0.3-0.8-0.9-0.8c-0.6,0-0.9,0.4-1,0.9l-0.8-0.2
					c0.1-0.8,0.8-1.4,1.8-1.4c1.3,0,1.8,0.7,1.8,1.6v2.2c0,0.4,0,0.6,0.1,0.7h-0.8c0-0.1,0-0.3,0-0.6c-0.2,0.3-0.6,0.7-1.4,0.7
					c-0.9,0-1.4-0.6-1.4-1.3C153.6,150.1,154.1,149.6,154.9,149.5z M156.4,150.1v-0.2l-1.3,0.2c-0.4,0.1-0.6,0.3-0.6,0.6
					c0,0.3,0.3,0.6,0.7,0.6C155.8,151.4,156.4,151.1,156.4,150.1z"/>
				<path class="st2" d="M159.3,152h-0.8v-4.3h0.8v0.6c0.3-0.5,0.8-0.7,1.3-0.7c1,0,1.5,0.7,1.5,1.7v2.7h-0.8v-2.6
					c0-0.6-0.3-1.1-1-1.1c-0.7,0-1,0.5-1,1.2V152z"/>
				<path class="st2" d="M166.5,151.3c-0.2,0.4-0.7,0.8-1.3,0.8c-1.3,0-2.1-1-2.1-2.3c0-1.2,0.8-2.3,2.1-2.3c0.8,0,1.2,0.4,1.3,0.7
					v-2.8h0.8v5.7c0,0.4,0,0.7,0,0.8h-0.8C166.6,151.9,166.5,151.7,166.5,151.3L166.5,151.3z M165.3,151.4c0.8,0,1.3-0.7,1.3-1.6
					c0-0.9-0.5-1.5-1.2-1.5c-0.8,0-1.3,0.6-1.3,1.5S164.5,151.4,165.3,151.4z"/>
			</g>
			<g class="st1">
				<path class="st2" d="M11.9,158.7h0.9v0.8h-0.9v2.3c0,0.4,0.2,0.6,0.6,0.6c0.1,0,0.3,0,0.3,0v0.7c-0.1,0-0.3,0.1-0.6,0.1
					c-0.7,0-1.2-0.5-1.2-1.2v-2.4h-0.8v-0.8h0.2c0.5,0,0.7-0.3,0.7-0.7v-0.7h0.8V158.7z"/>
				<path class="st2" d="M16.2,159.5c-0.1,0-0.3,0-0.4,0c-0.7,0-1.2,0.4-1.2,1.3v2.2h-0.8v-4.3h0.8v0.8c0.3-0.7,0.9-0.8,1.3-0.8
					c0.1,0,0.2,0,0.3,0V159.5z"/>
				<path class="st2" d="M18.1,160.5l1.2-0.2c0.3,0,0.3-0.2,0.3-0.3c0-0.4-0.3-0.8-0.9-0.8c-0.6,0-0.9,0.4-1,0.9l-0.8-0.2
					c0.1-0.8,0.8-1.4,1.8-1.4c1.3,0,1.8,0.7,1.8,1.6v2.2c0,0.4,0,0.6,0.1,0.7h-0.8c0-0.1,0-0.3,0-0.6c-0.2,0.3-0.6,0.7-1.4,0.7
					c-0.9,0-1.4-0.6-1.4-1.3C16.8,161.1,17.3,160.6,18.1,160.5z M19.6,161.1v-0.2l-1.3,0.2c-0.4,0.1-0.6,0.3-0.6,0.6
					c0,0.3,0.3,0.6,0.7,0.6C19,162.4,19.6,162.1,19.6,161.1z"/>
				<path class="st2" d="M23.7,163h-0.9l-1.8-4.3h1l1.2,3.3l1.2-3.3h0.9L23.7,163z"/>
				<path class="st2" d="M29.8,161.8c-0.2,0.8-0.9,1.4-1.9,1.4c-1.2,0-2.2-0.8-2.2-2.3c0-1.4,1-2.3,2.1-2.3c1.3,0,2.1,0.9,2.1,2.3
					c0,0.1,0,0.2,0,0.3h-3.3c0,0.8,0.6,1.3,1.3,1.3c0.7,0,1.1-0.4,1.2-0.9L29.8,161.8z M29,160.4c0-0.6-0.4-1.1-1.2-1.1
					c-0.7,0-1.1,0.5-1.2,1.1H29z"/>
				<path class="st2" d="M30.9,163v-6.5h0.8v6.5H30.9z"/>
				<path class="st2" d="M33.5,156.4c0.3,0,0.6,0.3,0.6,0.6c0,0.3-0.3,0.6-0.6,0.6c-0.3,0-0.6-0.3-0.6-0.6
					C32.9,156.7,33.2,156.4,33.5,156.4z M33.1,163v-4.3h0.8v4.3H33.1z"/>
				<path class="st2" d="M36.2,163h-0.8v-4.3h0.8v0.6c0.3-0.5,0.8-0.7,1.3-0.7c1,0,1.5,0.7,1.5,1.7v2.7h-0.8v-2.6
					c0-0.6-0.3-1.1-1-1.1c-0.7,0-1,0.5-1,1.2V163z"/>
				<path class="st2" d="M40.9,163c0.1,0.6,0.5,1.1,1.2,1.1c0.9,0,1.3-0.5,1.3-1.4v-0.6c-0.2,0.4-0.7,0.7-1.3,0.7
					c-1.2,0-2-0.9-2-2.1c0-1.2,0.8-2.1,2-2.1c0.7,0,1.1,0.3,1.3,0.7v-0.6h0.8v4c0,1.1-0.5,2.2-2.2,2.2c-1.1,0-1.9-0.7-2-1.6
					L40.9,163z M43.4,160.7c0-0.8-0.5-1.4-1.2-1.4c-0.7,0-1.3,0.5-1.3,1.4c0,0.8,0.5,1.4,1.3,1.4C42.9,162.1,43.4,161.5,43.4,160.7z
					"/>
				<path class="st2" d="M48.9,158.7h0.9v0.8h-0.9v2.3c0,0.4,0.2,0.6,0.6,0.6c0.1,0,0.3,0,0.3,0v0.7c-0.1,0-0.3,0.1-0.6,0.1
					c-0.7,0-1.2-0.5-1.2-1.2v-2.4h-0.8v-0.8h0.2c0.5,0,0.7-0.3,0.7-0.7v-0.7h0.8V158.7z"/>
				<path class="st2" d="M54.9,160.8c0,1.3-0.9,2.3-2.2,2.3s-2.2-1-2.2-2.3c0-1.3,0.9-2.3,2.2-2.3S54.9,159.5,54.9,160.8z M54,160.8
					c0-1-0.6-1.5-1.4-1.5s-1.4,0.5-1.4,1.5c0,1,0.6,1.5,1.4,1.5S54,161.8,54,160.8z"/>
				<path class="st2" d="M59.2,160.5l1.2-0.2c0.3,0,0.3-0.2,0.3-0.3c0-0.4-0.3-0.8-0.9-0.8c-0.6,0-0.9,0.4-1,0.9l-0.8-0.2
					c0.1-0.8,0.8-1.4,1.8-1.4c1.3,0,1.8,0.7,1.8,1.6v2.2c0,0.4,0,0.6,0.1,0.7h-0.8c0-0.1,0-0.3,0-0.6c-0.2,0.3-0.6,0.7-1.4,0.7
					c-0.9,0-1.4-0.6-1.4-1.3C57.9,161.1,58.4,160.6,59.2,160.5z M60.7,161.1v-0.2l-1.3,0.2c-0.4,0.1-0.6,0.3-0.6,0.6
					c0,0.3,0.3,0.6,0.7,0.6C60.1,162.4,60.7,162.1,60.7,161.1z"/>
				<path class="st2" d="M65.2,159.5c-0.1,0-0.3,0-0.4,0c-0.7,0-1.2,0.4-1.2,1.3v2.2h-0.8v-4.3h0.8v0.8c0.3-0.7,0.9-0.8,1.3-0.8
					c0.1,0,0.2,0,0.3,0V159.5z"/>
				<path class="st2" d="M69.8,161.8c-0.2,0.8-0.9,1.4-1.9,1.4c-1.2,0-2.2-0.8-2.2-2.3c0-1.4,1-2.3,2.1-2.3c1.3,0,2.1,0.9,2.1,2.3
					c0,0.1,0,0.2,0,0.3h-3.3c0,0.8,0.6,1.3,1.3,1.3c0.7,0,1.1-0.4,1.2-0.9L69.8,161.8z M68.9,160.4c0-0.6-0.4-1.1-1.2-1.1
					c-0.7,0-1.1,0.5-1.2,1.1H68.9z"/>
				<path class="st2" d="M71.9,160.5l1.2-0.2c0.3,0,0.3-0.2,0.3-0.3c0-0.4-0.3-0.8-0.9-0.8c-0.6,0-0.9,0.4-1,0.9l-0.8-0.2
					c0.1-0.8,0.8-1.4,1.8-1.4c1.3,0,1.8,0.7,1.8,1.6v2.2c0,0.4,0,0.6,0.1,0.7h-0.8c0-0.1,0-0.3,0-0.6c-0.2,0.3-0.6,0.7-1.4,0.7
					c-0.9,0-1.4-0.6-1.4-1.3C70.6,161.1,71.1,160.6,71.9,160.5z M73.4,161.1v-0.2l-1.3,0.2c-0.4,0.1-0.6,0.3-0.6,0.6
					c0,0.3,0.3,0.6,0.7,0.6C72.8,162.4,73.4,162.1,73.4,161.1z"/>
				<path class="st2" d="M75.9,161.6c0.1,0.5,0.4,0.8,1,0.8c0.5,0,0.7-0.3,0.7-0.6c0-0.3-0.2-0.5-0.6-0.6l-0.7-0.2
					c-0.7-0.1-1.1-0.6-1.1-1.2c0-0.7,0.7-1.4,1.5-1.4c1.2,0,1.6,0.8,1.6,1.2l-0.7,0.3c0-0.2-0.2-0.7-0.9-0.7c-0.4,0-0.7,0.3-0.7,0.6
					c0,0.3,0.2,0.5,0.5,0.5l0.7,0.2c0.8,0.2,1.2,0.6,1.2,1.3c0,0.6-0.5,1.3-1.6,1.3c-1.2,0-1.7-0.8-1.8-1.3L75.9,161.6z"/>
				<path class="st2" d="M85.8,160.8c0,1.3-0.9,2.3-2.2,2.3s-2.2-1-2.2-2.3c0-1.3,0.9-2.3,2.2-2.3S85.8,159.5,85.8,160.8z
					 M84.9,160.8c0-1-0.6-1.5-1.4-1.5s-1.4,0.5-1.4,1.5c0,1,0.6,1.5,1.4,1.5S84.9,161.8,84.9,160.8z"/>
				<path class="st2" d="M88,159.4v3.6h-0.9v-3.6h-0.8v-0.8h0.8v-0.7c0-1,0.6-1.5,1.4-1.5c0.3,0,0.5,0.1,0.5,0.1v0.8
					c0,0-0.2-0.1-0.4-0.1c-0.3,0-0.7,0.1-0.7,0.7v0.7h1v0.8H88z"/>
				<path class="st2" d="M95.9,161.8c-0.2,0.8-0.9,1.4-1.9,1.4c-1.2,0-2.2-0.8-2.2-2.3c0-1.4,1-2.3,2.1-2.3c1.3,0,2.1,0.9,2.1,2.3
					c0,0.1,0,0.2,0,0.3h-3.3c0,0.8,0.6,1.3,1.3,1.3c0.7,0,1.1-0.4,1.2-0.9L95.9,161.8z M95,160.4c0-0.6-0.4-1.1-1.2-1.1
					c-0.7,0-1.1,0.5-1.2,1.1H95z"/>
				<path class="st2" d="M97.8,160.8l-1.6-2.1h1l1.1,1.5l1-1.5h1l-1.5,2.1c0.3,0.4,1.3,1.9,1.6,2.2h-1l-1.1-1.6l-1.1,1.6h-1
					L97.8,160.8z"/>
				<path class="st2" d="M102.4,158.7h0.9v0.8h-0.9v2.3c0,0.4,0.2,0.6,0.6,0.6c0.1,0,0.3,0,0.3,0v0.7c-0.1,0-0.3,0.1-0.6,0.1
					c-0.7,0-1.2-0.5-1.2-1.2v-2.4h-0.8v-0.8h0.2c0.5,0,0.7-0.3,0.7-0.7v-0.7h0.8V158.7z"/>
				<path class="st2" d="M106.8,159.5c-0.1,0-0.3,0-0.4,0c-0.7,0-1.2,0.4-1.2,1.3v2.2h-0.8v-4.3h0.8v0.8c0.3-0.7,0.9-0.8,1.3-0.8
					c0.1,0,0.2,0,0.3,0V159.5z"/>
				<path class="st2" d="M111.3,161.8c-0.2,0.8-0.9,1.4-1.9,1.4c-1.2,0-2.2-0.8-2.2-2.3c0-1.4,1-2.3,2.1-2.3c1.3,0,2.1,0.9,2.1,2.3
					c0,0.1,0,0.2,0,0.3h-3.3c0,0.8,0.6,1.3,1.3,1.3c0.7,0,1.1-0.4,1.2-0.9L111.3,161.8z M110.5,160.4c0-0.6-0.4-1.1-1.2-1.1
					c-0.7,0-1.1,0.5-1.2,1.1H110.5z"/>
				<path class="st2" d="M112.4,163v-4.3h0.8v0.6c0.3-0.5,0.8-0.7,1.3-0.7c0.5,0,1.1,0.3,1.3,0.8c0.3-0.6,0.9-0.8,1.5-0.8
					c0.8,0,1.5,0.5,1.5,1.6v2.8h-0.8v-2.7c0-0.6-0.3-1-0.9-1c-0.6,0-1,0.5-1,1.1v2.6h-0.8v-2.7c0-0.6-0.3-1-0.9-1
					c-0.6,0-1,0.5-1,1.1v2.6H112.4z"/>
				<path class="st2" d="M123.8,161.8c-0.2,0.8-0.9,1.4-1.9,1.4c-1.2,0-2.2-0.8-2.2-2.3c0-1.4,1-2.3,2.1-2.3c1.3,0,2.1,0.9,2.1,2.3
					c0,0.1,0,0.2,0,0.3h-3.3c0,0.8,0.6,1.3,1.3,1.3c0.7,0,1.1-0.4,1.2-0.9L123.8,161.8z M123,160.4c0-0.6-0.4-1.1-1.2-1.1
					c-0.7,0-1.1,0.5-1.2,1.1H123z"/>
				<path class="st2" d="M127.6,160.8c0,1,0.6,1.5,1.3,1.5c0.8,0,1.1-0.5,1.2-0.9l0.7,0.3c-0.2,0.6-0.8,1.4-2,1.4
					c-1.3,0-2.2-1-2.2-2.3c0-1.4,0.9-2.3,2.2-2.3c1.2,0,1.7,0.7,1.9,1.4l-0.8,0.3c-0.1-0.4-0.4-0.9-1.2-0.9
					C128.2,159.3,127.6,159.8,127.6,160.8z"/>
				<path class="st2" d="M135.8,160.8c0,1.3-0.9,2.3-2.2,2.3s-2.2-1-2.2-2.3c0-1.3,0.9-2.3,2.2-2.3S135.8,159.5,135.8,160.8z
					 M135,160.8c0-1-0.6-1.5-1.4-1.5s-1.4,0.5-1.4,1.5c0,1,0.6,1.5,1.4,1.5S135,161.8,135,160.8z"/>
				<path class="st2" d="M137.7,163h-0.8v-4.3h0.8v0.6c0.3-0.5,0.8-0.7,1.3-0.7c1,0,1.5,0.7,1.5,1.7v2.7h-0.8v-2.6
					c0-0.6-0.3-1.1-1-1.1c-0.7,0-1,0.5-1,1.2V163z"/>
				<path class="st2" d="M143,158v0.7h2v-2.2h0.8v6.5H145v-3.6h-2v3.6h-0.9v-3.6h-0.8v-0.8h0.8v-0.7c0-1,0.6-1.5,1.4-1.5
					c0.3,0,0.5,0.1,0.5,0.1v0.8c0,0-0.2-0.1-0.4-0.1C143.4,157.2,143,157.4,143,158z"/>
				<path class="st2" d="M147.7,156.4c0.3,0,0.6,0.3,0.6,0.6c0,0.3-0.3,0.6-0.6,0.6c-0.3,0-0.6-0.3-0.6-0.6
					C147.1,156.7,147.3,156.4,147.7,156.4z M147.3,163v-4.3h0.8v4.3H147.3z"/>
				<path class="st2" d="M150,160.8c0,1,0.6,1.5,1.3,1.5c0.8,0,1.1-0.5,1.2-0.9l0.7,0.3c-0.2,0.6-0.8,1.4-2,1.4
					c-1.3,0-2.2-1-2.2-2.3c0-1.4,0.9-2.3,2.2-2.3c1.2,0,1.7,0.7,1.9,1.4l-0.8,0.3c-0.1-0.4-0.4-0.9-1.2-0.9
					C150.6,159.3,150,159.8,150,160.8z"/>
				<path class="st2" d="M155.4,158.7h0.9v0.8h-0.9v2.3c0,0.4,0.2,0.6,0.6,0.6c0.1,0,0.3,0,0.3,0v0.7c-0.1,0-0.3,0.1-0.6,0.1
					c-0.7,0-1.2-0.5-1.2-1.2v-2.4h-0.8v-0.8h0.2c0.5,0,0.7-0.3,0.7-0.7v-0.7h0.8V158.7z"/>
				<path class="st2" d="M157.9,161.8c0.4,0,0.7,0.3,0.7,0.9c0,1.2-0.8,1.7-1.3,1.8V164c0.4-0.1,0.7-0.5,0.7-1c0,0-0.1,0-0.2,0
					c-0.3,0-0.6-0.2-0.6-0.6C157.3,162.1,157.6,161.8,157.9,161.8z"/>
			</g>
			<g class="st1">
				<path class="st2" d="M11.1,167.4c0.3,0,0.6,0.3,0.6,0.6c0,0.3-0.3,0.6-0.6,0.6c-0.3,0-0.6-0.3-0.6-0.6
					C10.5,167.7,10.8,167.4,11.1,167.4z M10.7,174v-4.3h0.8v4.3H10.7z"/>
				<path class="st2" d="M13.8,174H13v-4.3h0.8v0.6c0.3-0.5,0.8-0.7,1.3-0.7c1,0,1.5,0.7,1.5,1.7v2.7h-0.8v-2.6c0-0.6-0.3-1.1-1-1.1
					c-0.7,0-1,0.5-1,1.2V174z"/>
				<path class="st2" d="M18.5,171.8c0,1,0.6,1.5,1.3,1.5c0.8,0,1.1-0.5,1.2-0.9l0.7,0.3c-0.2,0.6-0.8,1.4-2,1.4
					c-1.3,0-2.2-1-2.2-2.3c0-1.4,0.9-2.3,2.2-2.3c1.2,0,1.7,0.7,1.9,1.4l-0.8,0.3c-0.1-0.4-0.4-0.9-1.2-0.9
					C19.1,170.3,18.5,170.8,18.5,171.8z"/>
				<path class="st2" d="M22.7,174v-6.5h0.8v6.5H22.7z"/>
				<path class="st2" d="M26.5,174.1c-1,0-1.6-0.8-1.6-1.7v-2.7h0.8v2.6c0,0.6,0.3,1.1,1,1.1c0.7,0,1-0.5,1-1.1v-2.6h0.8v3.5
					c0,0.3,0,0.6,0,0.8h-0.8c0-0.1,0-0.3,0-0.5C27.5,173.9,27,174.1,26.5,174.1z"/>
				<path class="st2" d="M32.9,173.3c-0.2,0.4-0.7,0.8-1.3,0.8c-1.3,0-2.1-1-2.1-2.3c0-1.2,0.8-2.3,2.1-2.3c0.8,0,1.2,0.4,1.3,0.7
					v-2.8h0.8v5.7c0,0.4,0,0.7,0,0.8H33C33,173.9,32.9,173.7,32.9,173.3L32.9,173.3z M31.7,173.4c0.8,0,1.3-0.7,1.3-1.6
					c0-0.9-0.5-1.5-1.2-1.5c-0.8,0-1.3,0.6-1.3,1.5S30.9,173.4,31.7,173.4z"/>
				<path class="st2" d="M35.6,167.4c0.3,0,0.6,0.3,0.6,0.6c0,0.3-0.3,0.6-0.6,0.6c-0.3,0-0.6-0.3-0.6-0.6
					C34.9,167.7,35.2,167.4,35.6,167.4z M35.1,174v-4.3H36v4.3H35.1z"/>
				<path class="st2" d="M38.2,174h-0.8v-4.3h0.8v0.6c0.3-0.5,0.8-0.7,1.3-0.7c1,0,1.5,0.7,1.5,1.7v2.7h-0.8v-2.6
					c0-0.6-0.3-1.1-1-1.1c-0.7,0-1,0.5-1,1.2V174z"/>
				<path class="st2" d="M42.9,174c0.1,0.6,0.5,1.1,1.2,1.1c0.9,0,1.3-0.5,1.3-1.4v-0.6c-0.2,0.4-0.7,0.7-1.3,0.7
					c-1.2,0-2-0.9-2-2.1c0-1.2,0.8-2.1,2-2.1c0.7,0,1.1,0.3,1.3,0.7v-0.6h0.8v4c0,1.1-0.5,2.2-2.2,2.2c-1.1,0-1.9-0.7-2-1.6
					L42.9,174z M45.4,171.7c0-0.8-0.5-1.4-1.2-1.4c-0.7,0-1.3,0.5-1.3,1.4c0,0.8,0.5,1.4,1.3,1.4C44.9,173.1,45.4,172.5,45.4,171.7z
					"/>
				<path class="st2" d="M52.8,173.3c-0.2,0.4-0.7,0.8-1.3,0.8c-1.3,0-2.1-1-2.1-2.3c0-1.2,0.8-2.3,2.1-2.3c0.8,0,1.2,0.4,1.3,0.7
					v-2.8h0.8v5.7c0,0.4,0,0.7,0,0.8h-0.8C52.8,173.9,52.8,173.7,52.8,173.3L52.8,173.3z M51.5,173.4c0.8,0,1.3-0.7,1.3-1.6
					c0-0.9-0.5-1.5-1.2-1.5c-0.8,0-1.3,0.6-1.3,1.5S50.7,173.4,51.5,173.4z"/>
				<path class="st2" d="M56.5,174.1c-1,0-1.6-0.8-1.6-1.7v-2.7h0.8v2.6c0,0.6,0.3,1.1,1,1.1c0.7,0,1-0.5,1-1.1v-2.6h0.8v3.5
					c0,0.3,0,0.6,0,0.8h-0.8c0-0.1,0-0.3,0-0.5C57.6,173.9,57,174.1,56.5,174.1z"/>
				<path class="st2" d="M62.4,170.5c-0.1,0-0.3,0-0.4,0c-0.7,0-1.2,0.4-1.2,1.3v2.2H60v-4.3h0.8v0.8c0.3-0.7,0.9-0.8,1.3-0.8
					c0.1,0,0.2,0,0.3,0V170.5z"/>
				<path class="st2" d="M63.7,167.4c0.3,0,0.6,0.3,0.6,0.6c0,0.3-0.3,0.6-0.6,0.6c-0.3,0-0.6-0.3-0.6-0.6
					C63.1,167.7,63.3,167.4,63.7,167.4z M63.3,174v-4.3h0.8v4.3H63.3z"/>
				<path class="st2" d="M66.3,174h-0.8v-4.3h0.8v0.6c0.3-0.5,0.8-0.7,1.3-0.7c1,0,1.5,0.7,1.5,1.7v2.7h-0.8v-2.6
					c0-0.6-0.3-1.1-1-1.1c-0.7,0-1,0.5-1,1.2V174z"/>
				<path class="st2" d="M71,174c0.1,0.6,0.5,1.1,1.2,1.1c0.9,0,1.3-0.5,1.3-1.4v-0.6c-0.2,0.4-0.7,0.7-1.3,0.7c-1.2,0-2-0.9-2-2.1
					c0-1.2,0.8-2.1,2-2.1c0.7,0,1.1,0.3,1.3,0.7v-0.6h0.8v4c0,1.1-0.5,2.2-2.2,2.2c-1.1,0-1.9-0.7-2-1.6L71,174z M73.5,171.7
					c0-0.8-0.5-1.4-1.2-1.4c-0.7,0-1.3,0.5-1.3,1.4c0,0.8,0.5,1.4,1.3,1.4C73,173.1,73.5,172.5,73.5,171.7z"/>
				<path class="st2" d="M79,169.7h0.9v0.8H79v2.3c0,0.4,0.2,0.6,0.6,0.6c0.1,0,0.3,0,0.3,0v0.7c-0.1,0-0.3,0.1-0.6,0.1
					c-0.7,0-1.2-0.5-1.2-1.2v-2.4h-0.8v-0.8h0.2c0.5,0,0.7-0.3,0.7-0.7v-0.7H79V169.7z"/>
				<path class="st2" d="M81.9,174H81v-6.5h0.8v2.7c0.3-0.5,0.8-0.6,1.3-0.6c1,0,1.5,0.7,1.5,1.7v2.7h-0.8v-2.6c0-0.6-0.3-1.1-1-1.1
					c-0.6,0-1,0.5-1,1.1V174z"/>
				<path class="st2" d="M89.8,172.8c-0.2,0.8-0.9,1.4-1.9,1.4c-1.2,0-2.2-0.8-2.2-2.3c0-1.4,1-2.3,2.1-2.3c1.3,0,2.1,0.9,2.1,2.3
					c0,0.1,0,0.2,0,0.3h-3.3c0,0.8,0.6,1.3,1.3,1.3c0.7,0,1.1-0.4,1.2-0.9L89.8,172.8z M88.9,171.4c0-0.6-0.4-1.1-1.2-1.1
					c-0.7,0-1.1,0.5-1.2,1.1H88.9z"/>
				<path class="st2" d="M97.2,167.6h0.9l-2.5,6.4h-0.9l-2.4-6.4h0.9l1.9,5.2L97.2,167.6z"/>
				<path class="st2" d="M99.3,167.4c0.3,0,0.6,0.3,0.6,0.6c0,0.3-0.3,0.6-0.6,0.6c-0.3,0-0.6-0.3-0.6-0.6
					C98.7,167.7,99,167.4,99.3,167.4z M98.9,174v-4.3h0.8v4.3H98.9z"/>
				<path class="st2" d="M104.9,172.8c-0.2,0.8-0.9,1.4-1.9,1.4c-1.2,0-2.2-0.8-2.2-2.3c0-1.4,1-2.3,2.1-2.3c1.3,0,2.1,0.9,2.1,2.3
					c0,0.1,0,0.2,0,0.3h-3.3c0,0.8,0.6,1.3,1.3,1.3c0.7,0,1.1-0.4,1.2-0.9L104.9,172.8z M104.1,171.4c0-0.6-0.4-1.1-1.2-1.1
					c-0.7,0-1.1,0.5-1.2,1.1H104.1z"/>
				<path class="st2" d="M107.1,169.7h0.9v0.8h-0.9v2.3c0,0.4,0.2,0.6,0.6,0.6c0.1,0,0.3,0,0.3,0v0.7c-0.1,0-0.3,0.1-0.6,0.1
					c-0.7,0-1.2-0.5-1.2-1.2v-2.4h-0.8v-0.8h0.2c0.5,0,0.7-0.3,0.7-0.7v-0.7h0.8V169.7z"/>
				<path class="st2" d="M109.9,174h-0.8v-4.3h0.8v0.6c0.3-0.5,0.8-0.7,1.3-0.7c1,0,1.5,0.7,1.5,1.7v2.7h-0.8v-2.6
					c0-0.6-0.3-1.1-1-1.1c-0.7,0-1,0.5-1,1.2V174z"/>
				<path class="st2" d="M115.1,171.5l1.2-0.2c0.3,0,0.3-0.2,0.3-0.3c0-0.4-0.3-0.8-0.9-0.8c-0.6,0-0.9,0.4-1,0.9l-0.8-0.2
					c0.1-0.8,0.8-1.4,1.8-1.4c1.3,0,1.8,0.7,1.8,1.6v2.2c0,0.4,0,0.6,0.1,0.7h-0.8c0-0.1,0-0.3,0-0.6c-0.2,0.3-0.6,0.7-1.4,0.7
					c-0.9,0-1.4-0.6-1.4-1.3C113.8,172.1,114.4,171.6,115.1,171.5z M116.6,172.1v-0.2l-1.3,0.2c-0.4,0.1-0.6,0.3-0.6,0.6
					c0,0.3,0.3,0.6,0.7,0.6C116.1,173.4,116.6,173.1,116.6,172.1z"/>
				<path class="st2" d="M118.7,174v-4.3h0.8v0.6c0.3-0.5,0.8-0.7,1.3-0.7c0.5,0,1.1,0.3,1.3,0.8c0.3-0.6,0.9-0.8,1.5-0.8
					c0.8,0,1.5,0.5,1.5,1.6v2.8h-0.8v-2.7c0-0.6-0.3-1-0.9-1c-0.6,0-1,0.5-1,1.1v2.6h-0.8v-2.7c0-0.6-0.3-1-0.9-1
					c-0.6,0-1,0.5-1,1.1v2.6H118.7z"/>
				<path class="st2" d="M135.9,167.6h0.9L135,174h-0.9l-1.7-5.2l-1.6,5.2h-0.9l-1.8-6.4h0.9l1.4,5l1.6-5h0.9l1.6,5.1L135.9,167.6z"
					/>
				<path class="st2" d="M138.4,171.5l1.2-0.2c0.3,0,0.3-0.2,0.3-0.3c0-0.4-0.3-0.8-0.9-0.8c-0.6,0-0.9,0.4-1,0.9l-0.8-0.2
					c0.1-0.8,0.8-1.4,1.8-1.4c1.3,0,1.8,0.7,1.8,1.6v2.2c0,0.4,0,0.6,0.1,0.7h-0.8c0-0.1,0-0.3,0-0.6c-0.2,0.3-0.6,0.7-1.4,0.7
					c-0.9,0-1.4-0.6-1.4-1.3C137.1,172.1,137.6,171.6,138.4,171.5z M139.9,172.1v-0.2l-1.3,0.2c-0.4,0.1-0.6,0.3-0.6,0.6
					c0,0.3,0.3,0.6,0.7,0.6C139.3,173.4,139.9,173.1,139.9,172.1z"/>
				<path class="st2" d="M144.4,170.5c-0.1,0-0.3,0-0.4,0c-0.7,0-1.2,0.4-1.2,1.3v2.2H142v-4.3h0.8v0.8c0.3-0.7,0.9-0.8,1.3-0.8
					c0.1,0,0.2,0,0.3,0V170.5z"/>
				<path class="st2" d="M148.5,171.5l1.2-0.2c0.3,0,0.3-0.2,0.3-0.3c0-0.4-0.3-0.8-0.9-0.8c-0.6,0-0.9,0.4-1,0.9l-0.8-0.2
					c0.1-0.8,0.8-1.4,1.8-1.4c1.3,0,1.8,0.7,1.8,1.6v2.2c0,0.4,0,0.6,0.1,0.7h-0.8c0-0.1,0-0.3,0-0.6c-0.2,0.3-0.6,0.7-1.4,0.7
					c-0.9,0-1.4-0.6-1.4-1.3C147.2,172.1,147.7,171.6,148.5,171.5z M150,172.1v-0.2l-1.3,0.2c-0.4,0.1-0.6,0.3-0.6,0.6
					c0,0.3,0.3,0.6,0.7,0.6C149.4,173.4,150,173.1,150,172.1z"/>
				<path class="st2" d="M153,174h-0.8v-4.3h0.8v0.6c0.3-0.5,0.8-0.7,1.3-0.7c1,0,1.5,0.7,1.5,1.7v2.7H155v-2.6c0-0.6-0.3-1.1-1-1.1
					c-0.7,0-1,0.5-1,1.2V174z"/>
				<path class="st2" d="M160.2,173.3c-0.2,0.4-0.7,0.8-1.3,0.8c-1.3,0-2.1-1-2.1-2.3c0-1.2,0.8-2.3,2.1-2.3c0.8,0,1.2,0.4,1.3,0.7
					v-2.8h0.8v5.7c0,0.4,0,0.7,0,0.8h-0.8C160.2,173.9,160.2,173.7,160.2,173.3L160.2,173.3z M158.9,173.4c0.8,0,1.3-0.7,1.3-1.6
					c0-0.9-0.5-1.5-1.2-1.5c-0.8,0-1.3,0.6-1.3,1.5S158.1,173.4,158.9,173.4z"/>
				<path class="st2" d="M165.7,169.7h0.9v0.8h-0.9v2.3c0,0.4,0.2,0.6,0.6,0.6c0.1,0,0.3,0,0.3,0v0.7c-0.1,0-0.3,0.1-0.6,0.1
					c-0.7,0-1.2-0.5-1.2-1.2v-2.4H164v-0.8h0.2c0.5,0,0.7-0.3,0.7-0.7v-0.7h0.8V169.7z"/>
				<path class="st2" d="M168.6,174h-0.8v-6.5h0.8v2.7c0.3-0.5,0.8-0.6,1.3-0.6c1,0,1.5,0.7,1.5,1.7v2.7h-0.8v-2.6
					c0-0.6-0.3-1.1-1-1.1c-0.6,0-1,0.5-1,1.1V174z"/>
				<path class="st2" d="M176.5,172.8c-0.2,0.8-0.9,1.4-1.9,1.4c-1.2,0-2.2-0.8-2.2-2.3c0-1.4,1-2.3,2.1-2.3c1.3,0,2.1,0.9,2.1,2.3
					c0,0.1,0,0.2,0,0.3h-3.3c0,0.8,0.6,1.3,1.3,1.3c0.7,0,1.1-0.4,1.2-0.9L176.5,172.8z M175.7,171.4c0-0.6-0.4-1.1-1.2-1.1
					c-0.7,0-1.1,0.5-1.2,1.1H175.7z"/>
			</g>
			<g class="st1">
				<path class="st2" d="M14.1,180.3c-0.1-0.5-0.5-1.1-1.4-1.1c-0.7,0-1.2,0.5-1.2,1.1c0,0.5,0.3,0.8,0.8,0.9l1,0.2
					c1.1,0.2,1.7,0.9,1.7,1.8c0,1-0.8,1.9-2.2,1.9c-1.5,0-2.3-1-2.4-1.9l0.8-0.3c0.1,0.7,0.6,1.4,1.5,1.4c0.9,0,1.3-0.5,1.3-1
					c0-0.5-0.3-0.9-1-1l-0.9-0.2c-0.9-0.2-1.6-0.8-1.6-1.7c0-1,0.9-1.9,2.1-1.9c1.4,0,2,0.9,2.2,1.6L14.1,180.3z"/>
				<path class="st2" d="M16.4,178.4c0.3,0,0.6,0.3,0.6,0.6c0,0.3-0.3,0.6-0.6,0.6c-0.3,0-0.6-0.3-0.6-0.6
					C15.8,178.7,16,178.4,16.4,178.4z M16,185v-4.3h0.8v4.3H16z"/>
				<path class="st2" d="M22,183.8c-0.2,0.8-0.9,1.4-1.9,1.4c-1.2,0-2.2-0.8-2.2-2.3c0-1.4,1-2.3,2.1-2.3c1.3,0,2.1,0.9,2.1,2.3
					c0,0.1,0,0.2,0,0.3h-3.3c0,0.8,0.6,1.3,1.3,1.3c0.7,0,1.1-0.4,1.2-0.9L22,183.8z M21.1,182.4c0-0.6-0.4-1.1-1.2-1.1
					c-0.7,0-1.1,0.5-1.2,1.1H21.1z"/>
				<path class="st2" d="M23.5,185c0.1,0.6,0.5,1.1,1.2,1.1c0.9,0,1.3-0.5,1.3-1.4v-0.6c-0.2,0.4-0.7,0.7-1.3,0.7
					c-1.2,0-2-0.9-2-2.1c0-1.2,0.8-2.1,2-2.1c0.7,0,1.1,0.3,1.3,0.7v-0.6h0.8v4c0,1.1-0.5,2.2-2.2,2.2c-1.1,0-1.9-0.7-2-1.6
					L23.5,185z M26.1,182.7c0-0.8-0.5-1.4-1.2-1.4c-0.7,0-1.3,0.5-1.3,1.4c0,0.8,0.5,1.4,1.3,1.4C25.6,184.1,26.1,183.5,26.1,182.7z
					"/>
				<path class="st2" d="M32,183.8c-0.2,0.8-0.9,1.4-1.9,1.4c-1.2,0-2.2-0.8-2.2-2.3c0-1.4,1-2.3,2.1-2.3c1.3,0,2.1,0.9,2.1,2.3
					c0,0.1,0,0.2,0,0.3h-3.3c0,0.8,0.6,1.3,1.3,1.3c0.7,0,1.1-0.4,1.2-0.9L32,183.8z M31.1,182.4c0-0.6-0.4-1.1-1.2-1.1
					c-0.7,0-1.1,0.5-1.2,1.1H31.1z"/>
				<path class="st2" d="M39.3,182.8c0,1.3-0.9,2.3-2.2,2.3s-2.2-1-2.2-2.3c0-1.3,0.9-2.3,2.2-2.3S39.3,181.5,39.3,182.8z
					 M38.4,182.8c0-1-0.6-1.5-1.4-1.5s-1.4,0.5-1.4,1.5c0,1,0.6,1.5,1.4,1.5S38.4,183.8,38.4,182.8z"/>
				<path class="st2" d="M41.5,181.4v3.6h-0.9v-3.6h-0.8v-0.8h0.8v-0.7c0-1,0.6-1.5,1.4-1.5c0.3,0,0.5,0.1,0.5,0.1v0.8
					c0,0-0.2-0.1-0.4-0.1c-0.3,0-0.7,0.1-0.7,0.7v0.7h1v0.8H41.5z"/>
				<path class="st2" d="M48.9,180.3c-0.1-0.5-0.5-1.1-1.4-1.1c-0.7,0-1.2,0.5-1.2,1.1c0,0.5,0.3,0.8,0.8,0.9l1,0.2
					c1.1,0.2,1.7,0.9,1.7,1.8c0,1-0.8,1.9-2.2,1.9c-1.5,0-2.3-1-2.4-1.9L46,183c0.1,0.7,0.6,1.4,1.5,1.4c0.9,0,1.3-0.5,1.3-1
					c0-0.5-0.3-0.9-1-1l-0.9-0.2c-0.9-0.2-1.6-0.8-1.6-1.7c0-1,0.9-1.9,2.1-1.9c1.4,0,2,0.9,2.2,1.6L48.9,180.3z"/>
				<path class="st2" d="M51.9,182.5l1.2-0.2c0.3,0,0.3-0.2,0.3-0.3c0-0.4-0.3-0.8-0.9-0.8c-0.6,0-0.9,0.4-1,0.9l-0.8-0.2
					c0.1-0.8,0.8-1.4,1.8-1.4c1.3,0,1.8,0.7,1.8,1.6v2.2c0,0.4,0,0.6,0.1,0.7h-0.8c0-0.1,0-0.3,0-0.6c-0.2,0.3-0.6,0.7-1.4,0.7
					c-0.9,0-1.4-0.6-1.4-1.3C50.6,183.1,51.1,182.6,51.9,182.5z M53.4,183.1v-0.2l-1.3,0.2c-0.4,0.1-0.6,0.3-0.6,0.6
					c0,0.3,0.3,0.6,0.7,0.6C52.8,184.4,53.4,184.1,53.4,183.1z"/>
				<path class="st2" d="M57.9,181.5c-0.1,0-0.3,0-0.4,0c-0.7,0-1.2,0.4-1.2,1.3v2.2h-0.8v-4.3h0.8v0.8c0.3-0.7,0.9-0.8,1.3-0.8
					c0.1,0,0.2,0,0.3,0V181.5z"/>
				<path class="st2" d="M59.8,182.5l1.2-0.2c0.3,0,0.3-0.2,0.3-0.3c0-0.4-0.3-0.8-0.9-0.8c-0.6,0-0.9,0.4-1,0.9l-0.8-0.2
					c0.1-0.8,0.8-1.4,1.8-1.4c1.3,0,1.8,0.7,1.8,1.6v2.2c0,0.4,0,0.6,0.1,0.7h-0.8c0-0.1,0-0.3,0-0.6c-0.2,0.3-0.6,0.7-1.4,0.7
					c-0.9,0-1.4-0.6-1.4-1.3C58.5,183.1,59,182.6,59.8,182.5z M61.3,183.1v-0.2l-1.3,0.2c-0.4,0.1-0.6,0.3-0.6,0.6
					c0,0.3,0.3,0.6,0.7,0.6C60.7,184.4,61.3,184.1,61.3,183.1z"/>
				<path class="st2" d="M63.4,180.7h0.8v4.8c0,0.8-0.5,1.3-1.2,1.3c-0.3,0-0.5,0-0.5-0.1v-0.7c0,0,0.1,0,0.3,0
					c0.4,0,0.6-0.2,0.6-0.6V180.7z M63.8,178.4c0.3,0,0.6,0.3,0.6,0.6c0,0.3-0.3,0.6-0.6,0.6c-0.3,0-0.6-0.3-0.6-0.6
					C63.2,178.7,63.5,178.4,63.8,178.4z"/>
				<path class="st2" d="M69.4,183.8c-0.2,0.8-0.9,1.4-1.9,1.4c-1.2,0-2.2-0.8-2.2-2.3c0-1.4,1-2.3,2.1-2.3c1.3,0,2.1,0.9,2.1,2.3
					c0,0.1,0,0.2,0,0.3h-3.3c0,0.8,0.6,1.3,1.3,1.3c0.7,0,1.1-0.4,1.2-0.9L69.4,183.8z M68.6,182.4c0-0.6-0.4-1.1-1.2-1.1
					c-0.7,0-1.1,0.5-1.2,1.1H68.6z"/>
				<path class="st2" d="M72.4,185h-0.9l-1.8-4.3h1l1.2,3.3l1.2-3.3h0.9L72.4,185z"/>
				<path class="st2" d="M78.8,182.8c0,1.3-0.9,2.3-2.2,2.3s-2.2-1-2.2-2.3c0-1.3,0.9-2.3,2.2-2.3S78.8,181.5,78.8,182.8z
					 M77.9,182.8c0-1-0.6-1.5-1.4-1.5s-1.4,0.5-1.4,1.5c0,1,0.6,1.5,1.4,1.5S77.9,183.8,77.9,182.8z"/>
				<path class="st2" d="M80.2,183.8c0.4,0,0.6,0.3,0.6,0.6s-0.3,0.6-0.6,0.6s-0.6-0.3-0.6-0.6S79.9,183.8,80.2,183.8z"/>
			</g>
		</g>
	</g>
</g>
</svg>
