<?xml version="1.0" encoding="utf-8"?>
<!-- Generator: Adobe Illustrator 20.0.0, SVG Export Plug-In . SVG Version: 6.00 Build 0)  -->
<svg version="1.1" id="Layer_1" xmlns="http://www.w3.org/2000/svg" xmlns:xlink="http://www.w3.org/1999/xlink" x="0px" y="0px"
	 viewBox="0 0 189 263" style="enable-background:new 0 0 189 263;" xml:space="preserve">
<style type="text/css">
	.st0{fill:#FAE5E5;}
	.st1{enable-background:new    ;}
	.st2{fill:#221F20;}
</style>
<title>Group 53</title>
<desc>Created with Sketch.</desc>
<g id="Page-1">
	<g id="Desktop-Copy-2" transform="translate(-306.000000, -3710.000000)">
		<g id="Group-53" transform="translate(306.000000, 3710.000000)">
			<path id="Rectangle-2-Copy-49" class="st0" d="M8,0h173c4.4,0,8,3.6,8,8v247c0,4.4-3.6,8-8,8H8c-4.4,0-8-3.6-8-8V8
				C0,3.6,3.6,0,8,0z"/>
			<g class="st1">
				<path class="st2" d="M59.1,31v-1.4l5.9-7.3h-5.8v-1.3h7.5v1.3l-6,7.3h6V31H59.1z"/>
				<path class="st2" d="M70,27.1l1.8-0.3c0.4-0.1,0.5-0.3,0.5-0.5c0-0.7-0.4-1.2-1.5-1.2c-0.9,0-1.4,0.6-1.5,1.4l-1.3-0.3
					c0.1-1.3,1.3-2.2,2.8-2.2c2,0,2.8,1.1,2.8,2.5v3.4c0,0.6,0.1,0.9,0.1,1.1h-1.3c0-0.2-0.1-0.4-0.1-0.9c-0.3,0.5-1,1.1-2.2,1.1
					c-1.4,0-2.3-1-2.3-2C68,28,68.9,27.3,70,27.1z M72.4,28.1v-0.3l-2.1,0.3c-0.6,0.1-1,0.4-1,1c0,0.5,0.4,1,1.1,1
					C71.5,30.1,72.4,29.6,72.4,28.1z"/>
				<path class="st2" d="M77,31h-1.3V20.9H77V25c0.5-0.7,1.3-1,2-1c1.6,0,2.4,1.2,2.4,2.7V31h-1.3v-4c0-0.9-0.4-1.7-1.6-1.7
					c-1,0-1.5,0.8-1.6,1.8V31z"/>
				<path class="st2" d="M85.1,27.1l1.8-0.3c0.4-0.1,0.5-0.3,0.5-0.5c0-0.7-0.4-1.2-1.5-1.2c-0.9,0-1.4,0.6-1.5,1.4l-1.3-0.3
					c0.1-1.3,1.3-2.2,2.8-2.2c2,0,2.8,1.1,2.8,2.5v3.4c0,0.6,0.1,0.9,0.1,1.1h-1.3c0-0.2-0.1-0.4-0.1-0.9c-0.3,0.5-1,1.1-2.2,1.1
					c-1.4,0-2.3-1-2.3-2C83,28,83.9,27.3,85.1,27.1z M87.4,28.1v-0.3l-2.1,0.3c-0.6,0.1-1,0.4-1,1c0,0.5,0.4,1,1.1,1
					C86.5,30.1,87.4,29.6,87.4,28.1z"/>
				<path class="st2" d="M100.7,31v-4.4h-5.1V31h-1.4v-9.9h1.4v4.2h5.1v-4.2h1.4V31H100.7z"/>
				<path class="st2" d="M105.9,27.1l1.8-0.3c0.4-0.1,0.5-0.3,0.5-0.5c0-0.7-0.4-1.2-1.5-1.2c-0.9,0-1.4,0.6-1.5,1.4l-1.3-0.3
					c0.1-1.3,1.3-2.2,2.8-2.2c2,0,2.8,1.1,2.8,2.5v3.4c0,0.6,0.1,0.9,0.1,1.1h-1.3c0-0.2-0.1-0.4-0.1-0.9c-0.3,0.5-1,1.1-2.2,1.1
					c-1.4,0-2.3-1-2.3-2C103.9,28,104.8,27.3,105.9,27.1z M108.3,28.1v-0.3l-2.1,0.3c-0.6,0.1-1,0.4-1,1c0,0.5,0.4,1,1.1,1
					C107.4,30.1,108.3,29.6,108.3,28.1z"/>
				<path class="st2" d="M116.3,30c-0.3,0.6-1,1.2-2.1,1.2c-2,0-3.2-1.6-3.2-3.6c0-1.9,1.3-3.5,3.2-3.5c1.2,0,1.8,0.6,2.1,1.1v-4.4
					h1.3v8.9c0,0.6,0.1,1.1,0.1,1.2h-1.3c0-0.2-0.1-0.5-0.1-0.9V30z M114.3,30c1.2,0,1.9-1.1,1.9-2.4s-0.7-2.3-1.9-2.3s-2,1-2,2.4
					S113.1,30,114.3,30z"/>
				<path class="st2" d="M120.4,20.8c0.5,0,1,0.4,1,1c0,0.5-0.4,0.9-1,0.9c-0.5,0-0.9-0.4-0.9-0.9C119.4,21.2,119.9,20.8,120.4,20.8
					z M119.7,31v-6.7h1.3V31H119.7z"/>
				<path class="st2" d="M127.9,30c-0.3,0.6-1,1.2-2.1,1.2c-2,0-3.2-1.6-3.2-3.6c0-1.9,1.3-3.5,3.2-3.5c1.2,0,1.8,0.6,2.1,1.1v-4.4
					h1.3v8.9c0,0.6,0.1,1.1,0.1,1.2H128c0-0.2-0.1-0.5-0.1-0.9V30z M126,30c1.2,0,1.9-1.1,1.9-2.4s-0.7-2.3-1.9-2.3s-2,1-2,2.4
					S124.7,30,126,30z"/>
			</g>
			<g id="Group-3-Copy-31" transform="translate(5.500000, 44.000000)">
				<ellipse id="Oval-2" cx="0.8" cy="0.8" rx="0.8" ry="0.8"/>
				<ellipse id="Oval-2-Copy-16" cx="60.7" cy="0.8" rx="0.8" ry="0.8"/>
				<ellipse id="Oval-2-Copy-32" cx="120.6" cy="0.8" rx="0.8" ry="0.8"/>
				<ellipse id="Oval-2-Copy-8" cx="30.7" cy="0.8" rx="0.8" ry="0.8"/>
				<ellipse id="Oval-2-Copy-17" cx="90.6" cy="0.8" rx="0.8" ry="0.8"/>
				<ellipse id="Oval-2-Copy-33" cx="150.5" cy="0.8" rx="0.8" ry="0.8"/>
				<ellipse id="Oval-2-Copy-4" cx="15.7" cy="0.8" rx="0.8" ry="0.8"/>
				<ellipse id="Oval-2-Copy-18" cx="75.6" cy="0.8" rx="0.8" ry="0.8"/>
				<ellipse id="Oval-2-Copy-34" cx="135.6" cy="0.8" rx="0.8" ry="0.8"/>
				<ellipse id="Oval-2-Copy-9" cx="45.7" cy="0.8" rx="0.8" ry="0.8"/>
				<ellipse id="Oval-2-Copy-19" cx="105.6" cy="0.8" rx="0.8" ry="0.8"/>
				<ellipse id="Oval-2-Copy-35" cx="165.5" cy="0.8" rx="0.8" ry="0.8"/>
				<ellipse id="Oval-2-Copy-2" cx="8.2" cy="0.8" rx="0.8" ry="0.8"/>
				<ellipse id="Oval-2-Copy-20" cx="68.2" cy="0.8" rx="0.8" ry="0.8"/>
				<ellipse id="Oval-2-Copy-36" cx="128.1" cy="0.8" rx="0.8" ry="0.8"/>
				<ellipse id="Oval-2-Copy-10" cx="38.2" cy="0.8" rx="0.8" ry="0.8"/>
				<ellipse id="Oval-2-Copy-21" cx="98.1" cy="0.8" rx="0.8" ry="0.8"/>
				<ellipse id="Oval-2-Copy-37" cx="158" cy="0.8" rx="0.8" ry="0.8"/>
				<ellipse id="Oval-2-Copy-5" cx="23.2" cy="0.8" rx="0.8" ry="0.8"/>
				<ellipse id="Oval-2-Copy-22" cx="83.1" cy="0.8" rx="0.8" ry="0.8"/>
				<ellipse id="Oval-2-Copy-38" cx="143" cy="0.8" rx="0.8" ry="0.8"/>
				<ellipse id="Oval-2-Copy-11" cx="53.2" cy="0.8" rx="0.8" ry="0.8"/>
				<ellipse id="Oval-2-Copy-23" cx="113.1" cy="0.8" rx="0.8" ry="0.8"/>
				<ellipse id="Oval-2-Copy-39" cx="173" cy="0.8" rx="0.8" ry="0.8"/>
				<ellipse id="Oval-2-Copy" cx="4.5" cy="0.8" rx="0.8" ry="0.8"/>
				<ellipse id="Oval-2-Copy-24" cx="64.4" cy="0.8" rx="0.8" ry="0.8"/>
				<ellipse id="Oval-2-Copy-40" cx="124.3" cy="0.8" rx="0.8" ry="0.8"/>
				<ellipse id="Oval-2-Copy-12" cx="34.5" cy="0.8" rx="0.8" ry="0.8"/>
				<ellipse id="Oval-2-Copy-25" cx="94.4" cy="0.8" rx="0.8" ry="0.8"/>
				<ellipse id="Oval-2-Copy-41" cx="154.3" cy="0.8" rx="0.8" ry="0.8"/>
				<ellipse id="Oval-2-Copy-6" cx="19.5" cy="0.8" rx="0.8" ry="0.8"/>
				<ellipse id="Oval-2-Copy-26" cx="79.4" cy="0.8" rx="0.8" ry="0.8"/>
				<ellipse id="Oval-2-Copy-42" cx="139.3" cy="0.8" rx="0.8" ry="0.8"/>
				<ellipse id="Oval-2-Copy-13" cx="49.4" cy="0.8" rx="0.8" ry="0.8"/>
				<ellipse id="Oval-2-Copy-27" cx="109.3" cy="0.8" rx="0.8" ry="0.8"/>
				<ellipse id="Oval-2-Copy-43" cx="169.3" cy="0.8" rx="0.8" ry="0.8"/>
				<ellipse id="Oval-2-Copy-3" cx="12" cy="0.8" rx="0.8" ry="0.8"/>
				<ellipse id="Oval-2-Copy-28" cx="71.9" cy="0.8" rx="0.8" ry="0.8"/>
				<ellipse id="Oval-2-Copy-44" cx="131.8" cy="0.8" rx="0.8" ry="0.8"/>
				<ellipse id="Oval-2-Copy-14" cx="41.9" cy="0.8" rx="0.8" ry="0.8"/>
				<ellipse id="Oval-2-Copy-29" cx="101.9" cy="0.8" rx="0.8" ry="0.8"/>
				<ellipse id="Oval-2-Copy-45" cx="161.8" cy="0.8" rx="0.8" ry="0.8"/>
				<ellipse id="Oval-2-Copy-7" cx="27" cy="0.8" rx="0.8" ry="0.8"/>
				<ellipse id="Oval-2-Copy-30" cx="86.9" cy="0.8" rx="0.8" ry="0.8"/>
				<ellipse id="Oval-2-Copy-46" cx="146.8" cy="0.8" rx="0.8" ry="0.8"/>
				<ellipse id="Oval-2-Copy-15" cx="56.9" cy="0.8" rx="0.8" ry="0.8"/>
				<ellipse id="Oval-2-Copy-31" cx="116.8" cy="0.8" rx="0.8" ry="0.8"/>
				<ellipse id="Oval-2-Copy-47" cx="176.8" cy="0.8" rx="0.8" ry="0.8"/>
			</g>
			<g class="st1">
				<path class="st2" d="M10.8,64v-6.4h0.9V64H10.8z"/>
				<path class="st2" d="M15.6,60.5c-0.1,0-0.3,0-0.4,0c-0.7,0-1.2,0.4-1.2,1.3V64h-0.8v-4.3H14v0.8c0.3-0.7,0.9-0.8,1.3-0.8
					c0.1,0,0.2,0,0.3,0V60.5z"/>
				<path class="st2" d="M17.5,61.5l1.2-0.2c0.3,0,0.3-0.2,0.3-0.3c0-0.4-0.3-0.8-0.9-0.8c-0.6,0-0.9,0.4-1,0.9l-0.8-0.2
					c0.1-0.8,0.8-1.4,1.8-1.4c1.3,0,1.8,0.7,1.8,1.6v2.2c0,0.4,0,0.6,0.1,0.7h-0.8c0-0.1,0-0.3,0-0.6c-0.2,0.3-0.6,0.7-1.4,0.7
					c-0.9,0-1.4-0.6-1.4-1.3C16.2,62.1,16.8,61.6,17.5,61.5z M19,62.1v-0.2l-1.3,0.2c-0.4,0.1-0.6,0.3-0.6,0.6
					c0,0.3,0.3,0.6,0.7,0.6C18.4,63.4,19,63.1,19,62.1z"/>
				<path class="st2" d="M24.2,65.7v-2.3c-0.2,0.4-0.7,0.7-1.4,0.7c-1.2,0-2.1-1-2.1-2.3c0-1.2,0.8-2.3,2-2.3c0.7,0,1.2,0.4,1.4,0.8
					v-0.7H25v6H24.2z M22.9,63.4c0.8,0,1.3-0.7,1.3-1.5s-0.5-1.5-1.3-1.5c-0.8,0-1.3,0.6-1.3,1.5S22.1,63.4,22.9,63.4z"/>
				<path class="st2" d="M26.7,57.4c0.3,0,0.6,0.3,0.6,0.6c0,0.3-0.3,0.6-0.6,0.6c-0.3,0-0.6-0.3-0.6-0.6
					C26.1,57.7,26.4,57.4,26.7,57.4z M26.3,64v-4.3h0.8V64H26.3z"/>
				<path class="st2" d="M30.7,64v-6.5h0.8v2.8c0.2-0.4,0.7-0.7,1.4-0.7c1.3,0,2,1,2,2.3c0,1.3-0.7,2.3-2,2.3
					c-0.6,0-1.1-0.3-1.4-0.7V64H30.7z M32.9,60.3c-0.7,0-1.3,0.6-1.3,1.5s0.5,1.5,1.3,1.5c0.8,0,1.3-0.6,1.3-1.5
					S33.6,60.3,32.9,60.3z"/>
				<path class="st2" d="M40.1,61.8c0,1.3-0.9,2.3-2.2,2.3s-2.2-1-2.2-2.3c0-1.3,0.9-2.3,2.2-2.3S40.1,60.5,40.1,61.8z M39.2,61.8
					c0-1-0.6-1.5-1.4-1.5s-1.4,0.5-1.4,1.5c0,1,0.6,1.5,1.4,1.5S39.2,62.8,39.2,61.8z"/>
				<path class="st2" d="M43.5,60.5c-0.1,0-0.3,0-0.4,0c-0.7,0-1.2,0.4-1.2,1.3V64h-0.8v-4.3H42v0.8c0.3-0.7,0.9-0.8,1.3-0.8
					c0.1,0,0.2,0,0.3,0V60.5z"/>
				<path class="st2" d="M45.2,64h-0.8v-4.3h0.8v0.6c0.3-0.5,0.8-0.7,1.3-0.7c1,0,1.5,0.7,1.5,1.7V64h-0.8v-2.6c0-0.6-0.3-1.1-1-1.1
					c-0.7,0-1,0.5-1,1.2V64z"/>
				<path class="st2" d="M53.8,57.6c1.2,0,1.9,0.7,1.9,1.7c0,0.7-0.4,1.2-1,1.4c0.7,0.2,1.2,0.8,1.2,1.5c0,1-0.8,1.7-2,1.7h-2.2
					v-6.4H53.8z M53.7,60.4c0.7,0,1.1-0.4,1.1-1c0-0.6-0.4-1-1.2-1h-1.1v2H53.7z M53.8,63.2c0.7,0,1.2-0.4,1.2-1c0-0.6-0.4-1-1.2-1
					h-1.3v2.1H53.8z"/>
				<path class="st2" d="M59.3,60.5c-0.1,0-0.3,0-0.4,0c-0.7,0-1.2,0.4-1.2,1.3V64h-0.8v-4.3h0.8v0.8c0.3-0.7,0.9-0.8,1.3-0.8
					c0.1,0,0.2,0,0.3,0V60.5z"/>
				<path class="st2" d="M60.6,57.4c0.3,0,0.6,0.3,0.6,0.6c0,0.3-0.3,0.6-0.6,0.6c-0.3,0-0.6-0.3-0.6-0.6
					C60,57.7,60.3,57.4,60.6,57.4z M60.2,64v-4.3H61V64H60.2z"/>
				<path class="st2" d="M63.6,59.7h0.9v0.8h-0.9v2.3c0,0.4,0.2,0.6,0.6,0.6c0.1,0,0.3,0,0.3,0V64c-0.1,0-0.3,0.1-0.6,0.1
					c-0.7,0-1.2-0.5-1.2-1.2v-2.4h-0.8v-0.8h0.2c0.5,0,0.7-0.3,0.7-0.7v-0.7h0.8V59.7z"/>
				<path class="st2" d="M66,57.4c0.3,0,0.6,0.3,0.6,0.6c0,0.3-0.3,0.6-0.6,0.6c-0.3,0-0.6-0.3-0.6-0.6C65.4,57.7,65.7,57.4,66,57.4
					z M65.6,64v-4.3h0.8V64H65.6z"/>
				<path class="st2" d="M68.2,62.6c0.1,0.5,0.4,0.8,1,0.8c0.5,0,0.7-0.3,0.7-0.6c0-0.3-0.2-0.5-0.6-0.6l-0.7-0.2
					c-0.7-0.1-1.1-0.6-1.1-1.2c0-0.7,0.7-1.4,1.5-1.4c1.2,0,1.6,0.8,1.6,1.2L70,61c0-0.2-0.2-0.7-0.9-0.7c-0.4,0-0.7,0.3-0.7,0.6
					c0,0.3,0.2,0.5,0.5,0.5l0.7,0.2c0.8,0.2,1.2,0.6,1.2,1.3c0,0.6-0.5,1.3-1.6,1.3c-1.2,0-1.7-0.8-1.8-1.3L68.2,62.6z"/>
				<path class="st2" d="M72.7,64h-0.8v-6.5h0.8v2.7c0.3-0.5,0.8-0.6,1.3-0.6c1,0,1.5,0.7,1.5,1.7V64h-0.8v-2.6c0-0.6-0.3-1.1-1-1.1
					c-0.6,0-1,0.5-1,1.1V64z"/>
				<path class="st2" d="M80.1,61.5l1.2-0.2c0.3,0,0.3-0.2,0.3-0.3c0-0.4-0.3-0.8-0.9-0.8c-0.6,0-0.9,0.4-1,0.9l-0.8-0.2
					c0.1-0.8,0.8-1.4,1.8-1.4c1.3,0,1.8,0.7,1.8,1.6v2.2c0,0.4,0,0.6,0.1,0.7h-0.8c0-0.1,0-0.3,0-0.6c-0.2,0.3-0.6,0.7-1.4,0.7
					c-0.9,0-1.4-0.6-1.4-1.3C78.8,62.1,79.3,61.6,80.1,61.5z M81.6,62.1v-0.2l-1.3,0.2c-0.4,0.1-0.6,0.3-0.6,0.6
					c0,0.3,0.3,0.6,0.7,0.6C81,63.4,81.6,63.1,81.6,62.1z"/>
				<path class="st2" d="M86.1,60.5c-0.1,0-0.3,0-0.4,0c-0.7,0-1.2,0.4-1.2,1.3V64h-0.8v-4.3h0.8v0.8c0.3-0.7,0.9-0.8,1.3-0.8
					c0.1,0,0.2,0,0.3,0V60.5z"/>
				<path class="st2" d="M87.4,61.8c0,1,0.6,1.5,1.3,1.5c0.8,0,1.1-0.5,1.2-0.9l0.7,0.3c-0.2,0.6-0.8,1.4-2,1.4
					c-1.3,0-2.2-1-2.2-2.3c0-1.4,0.9-2.3,2.2-2.3c1.2,0,1.7,0.7,1.9,1.4l-0.8,0.3c-0.1-0.4-0.4-0.9-1.2-0.9
					C88.1,60.3,87.4,60.8,87.4,61.8z"/>
				<path class="st2" d="M92.5,64h-0.8v-6.5h0.8v2.7c0.3-0.5,0.8-0.6,1.3-0.6c1,0,1.5,0.7,1.5,1.7V64h-0.8v-2.6c0-0.6-0.3-1.1-1-1.1
					c-0.6,0-1,0.5-1,1.1V64z"/>
				<path class="st2" d="M97.1,57.4c0.3,0,0.6,0.3,0.6,0.6c0,0.3-0.3,0.6-0.6,0.6c-0.3,0-0.6-0.3-0.6-0.6
					C96.5,57.7,96.7,57.4,97.1,57.4z M96.7,64v-4.3h0.8V64H96.7z"/>
				<path class="st2" d="M100,59.7h0.9v0.8H100v2.3c0,0.4,0.2,0.6,0.6,0.6c0.1,0,0.3,0,0.3,0V64c-0.1,0-0.3,0.1-0.6,0.1
					c-0.7,0-1.2-0.5-1.2-1.2v-2.4h-0.8v-0.8h0.2c0.5,0,0.7-0.3,0.7-0.7v-0.7h0.8V59.7z"/>
				<path class="st2" d="M105.8,62.8c-0.2,0.8-0.9,1.4-1.9,1.4c-1.2,0-2.2-0.8-2.2-2.3c0-1.4,1-2.3,2.1-2.3c1.3,0,2.1,0.9,2.1,2.3
					c0,0.1,0,0.2,0,0.3h-3.3c0,0.8,0.6,1.3,1.3,1.3c0.7,0,1.1-0.4,1.2-0.9L105.8,62.8z M104.9,61.4c0-0.6-0.4-1.1-1.2-1.1
					c-0.7,0-1.1,0.5-1.2,1.1H104.9z"/>
				<path class="st2" d="M107.3,61.8c0,1,0.6,1.5,1.3,1.5c0.8,0,1.1-0.5,1.2-0.9l0.7,0.3c-0.2,0.6-0.8,1.4-2,1.4
					c-1.3,0-2.2-1-2.2-2.3c0-1.4,0.9-2.3,2.2-2.3c1.2,0,1.7,0.7,1.9,1.4l-0.8,0.3c-0.1-0.4-0.4-0.9-1.2-0.9
					C108,60.3,107.3,60.8,107.3,61.8z"/>
				<path class="st2" d="M112.7,59.7h0.9v0.8h-0.9v2.3c0,0.4,0.2,0.6,0.6,0.6c0.1,0,0.3,0,0.3,0V64c-0.1,0-0.3,0.1-0.6,0.1
					c-0.7,0-1.2-0.5-1.2-1.2v-2.4H111v-0.8h0.2c0.5,0,0.7-0.3,0.7-0.7v-0.7h0.8V59.7z"/>
				<path class="st2" d="M118,61.5l1.2-0.2c0.3,0,0.3-0.2,0.3-0.3c0-0.4-0.3-0.8-0.9-0.8c-0.6,0-0.9,0.4-1,0.9l-0.8-0.2
					c0.1-0.8,0.8-1.4,1.8-1.4c1.3,0,1.8,0.7,1.8,1.6v2.2c0,0.4,0,0.6,0.1,0.7h-0.8c0-0.1,0-0.3,0-0.6c-0.2,0.3-0.6,0.7-1.4,0.7
					c-0.9,0-1.4-0.6-1.4-1.3C116.6,62.1,117.2,61.6,118,61.5z M119.5,62.1v-0.2l-1.3,0.2c-0.4,0.1-0.6,0.3-0.6,0.6
					c0,0.3,0.3,0.6,0.7,0.6C118.9,63.4,119.5,63.1,119.5,62.1z"/>
				<path class="st2" d="M122.4,64h-0.8v-4.3h0.8v0.6c0.3-0.5,0.8-0.7,1.3-0.7c1,0,1.5,0.7,1.5,1.7V64h-0.8v-2.6
					c0-0.6-0.3-1.1-1-1.1c-0.7,0-1,0.5-1,1.2V64z"/>
				<path class="st2" d="M129.6,63.3c-0.2,0.4-0.7,0.8-1.3,0.8c-1.3,0-2.1-1-2.1-2.3c0-1.2,0.8-2.3,2.1-2.3c0.8,0,1.2,0.4,1.3,0.7
					v-2.8h0.8v5.7c0,0.4,0,0.7,0,0.8h-0.8C129.6,63.9,129.6,63.7,129.6,63.3L129.6,63.3z M128.4,63.4c0.8,0,1.3-0.7,1.3-1.6
					c0-0.9-0.5-1.5-1.2-1.5c-0.8,0-1.3,0.6-1.3,1.5S127.5,63.4,128.4,63.4z"/>
				<path class="st2" d="M135.2,60.4V64h-0.9v-3.6h-0.8v-0.8h0.8v-0.7c0-1,0.6-1.5,1.4-1.5c0.3,0,0.5,0.1,0.5,0.1v0.8
					c0,0-0.2-0.1-0.4-0.1c-0.3,0-0.7,0.1-0.7,0.7v0.7h1v0.8H135.2z"/>
				<path class="st2" d="M141,61.8c0,1.3-0.9,2.3-2.2,2.3c-1.3,0-2.2-1-2.2-2.3c0-1.3,0.9-2.3,2.2-2.3C140,59.5,141,60.5,141,61.8z
					 M140.1,61.8c0-1-0.6-1.5-1.3-1.5c-0.7,0-1.4,0.5-1.4,1.5c0,1,0.6,1.5,1.4,1.5C139.5,63.4,140.1,62.8,140.1,61.8z"/>
				<path class="st2" d="M143.5,64.1c-1,0-1.6-0.8-1.6-1.7v-2.7h0.8v2.6c0,0.6,0.3,1.1,1,1.1c0.7,0,1-0.5,1-1.1v-2.6h0.8v3.5
					c0,0.3,0,0.6,0,0.8h-0.8c0-0.1,0-0.3,0-0.5C144.6,63.9,144,64.1,143.5,64.1z"/>
				<path class="st2" d="M147.9,64H147v-4.3h0.8v0.6c0.3-0.5,0.8-0.7,1.3-0.7c1,0,1.5,0.7,1.5,1.7V64h-0.8v-2.6c0-0.6-0.3-1.1-1-1.1
					c-0.7,0-1,0.5-1,1.2V64z"/>
				<path class="st2" d="M155.1,63.3c-0.2,0.4-0.7,0.8-1.3,0.8c-1.3,0-2.1-1-2.1-2.3c0-1.2,0.8-2.3,2.1-2.3c0.8,0,1.2,0.4,1.3,0.7
					v-2.8h0.8v5.7c0,0.4,0,0.7,0,0.8h-0.8C155.1,63.9,155.1,63.7,155.1,63.3L155.1,63.3z M153.8,63.4c0.8,0,1.3-0.7,1.3-1.6
					c0-0.9-0.5-1.5-1.2-1.5c-0.8,0-1.3,0.6-1.3,1.5S153,63.4,153.8,63.4z"/>
				<path class="st2" d="M161,62.8c-0.2,0.8-0.9,1.4-1.9,1.4c-1.2,0-2.2-0.8-2.2-2.3c0-1.4,1-2.3,2.1-2.3c1.3,0,2.1,0.9,2.1,2.3
					c0,0.1,0,0.2,0,0.3h-3.3c0,0.8,0.6,1.3,1.3,1.3c0.7,0,1.1-0.4,1.2-0.9L161,62.8z M160.2,61.4c0-0.6-0.4-1.1-1.2-1.1
					c-0.7,0-1.1,0.5-1.2,1.1H160.2z"/>
				<path class="st2" d="M164.5,60.5c-0.1,0-0.3,0-0.4,0c-0.7,0-1.2,0.4-1.2,1.3V64h-0.8v-4.3h0.8v0.8c0.3-0.7,0.9-0.8,1.3-0.8
					c0.1,0,0.2,0,0.3,0V60.5z"/>
				<path class="st2" d="M171.6,61.8c0,1.3-0.9,2.3-2.2,2.3s-2.2-1-2.2-2.3c0-1.3,0.9-2.3,2.2-2.3S171.6,60.5,171.6,61.8z
					 M170.8,61.8c0-1-0.6-1.5-1.4-1.5s-1.4,0.5-1.4,1.5c0,1,0.6,1.5,1.4,1.5S170.8,62.8,170.8,61.8z"/>
				<path class="st2" d="M173.8,60.4V64h-0.9v-3.6h-0.8v-0.8h0.8v-0.7c0-1,0.6-1.5,1.4-1.5c0.3,0,0.5,0.1,0.5,0.1v0.8
					c0,0-0.2-0.1-0.4-0.1c-0.3,0-0.7,0.1-0.7,0.7v0.7h1v0.8H173.8z"/>
			</g>
			<g class="st1">
				<path class="st2" d="M10.4,75v-0.9l3.8-4.7h-3.7v-0.8h4.8v0.9l-3.8,4.7h3.9V75H10.4z"/>
				<path class="st2" d="M17.4,72.5l1.2-0.2c0.3,0,0.3-0.2,0.3-0.3c0-0.4-0.3-0.8-0.9-0.8c-0.6,0-0.9,0.4-1,0.9l-0.8-0.2
					c0.1-0.8,0.8-1.4,1.8-1.4c1.3,0,1.8,0.7,1.8,1.6v2.2c0,0.4,0,0.6,0.1,0.7H19c0-0.1,0-0.3,0-0.6c-0.2,0.3-0.6,0.7-1.4,0.7
					c-0.9,0-1.4-0.6-1.4-1.3C16.1,73.1,16.7,72.6,17.4,72.5z M18.9,73.1v-0.2l-1.3,0.2c-0.4,0.1-0.6,0.3-0.6,0.6
					c0,0.3,0.3,0.6,0.7,0.6C18.4,74.4,18.9,74.1,18.9,73.1z"/>
				<path class="st2" d="M21.9,75H21v-6.5h0.8v2.7c0.3-0.5,0.8-0.6,1.3-0.6c1,0,1.5,0.7,1.5,1.7V75h-0.8v-2.6c0-0.6-0.3-1.1-1-1.1
					c-0.6,0-1,0.5-1,1.1V75z"/>
				<path class="st2" d="M27.1,72.5l1.2-0.2c0.3,0,0.3-0.2,0.3-0.3c0-0.4-0.3-0.8-0.9-0.8c-0.6,0-0.9,0.4-1,0.9l-0.8-0.2
					c0.1-0.8,0.8-1.4,1.8-1.4c1.3,0,1.8,0.7,1.8,1.6v2.2c0,0.4,0,0.6,0.1,0.7h-0.8c0-0.1,0-0.3,0-0.6c-0.2,0.3-0.6,0.7-1.4,0.7
					c-0.9,0-1.4-0.6-1.4-1.3C25.8,73.1,26.3,72.6,27.1,72.5z M28.6,73.1v-0.2l-1.3,0.2c-0.4,0.1-0.6,0.3-0.6,0.6
					c0,0.3,0.3,0.6,0.7,0.6C28,74.4,28.6,74.1,28.6,73.1z"/>
				<path class="st2" d="M37.1,75v-2.8h-3.3V75H33v-6.4h0.9v2.7h3.3v-2.7H38V75H37.1z"/>
				<path class="st2" d="M40.5,72.5l1.2-0.2c0.3,0,0.3-0.2,0.3-0.3c0-0.4-0.3-0.8-0.9-0.8c-0.6,0-0.9,0.4-1,0.9l-0.8-0.2
					c0.1-0.8,0.8-1.4,1.8-1.4c1.3,0,1.8,0.7,1.8,1.6v2.2c0,0.4,0,0.6,0.1,0.7h-0.8c0-0.1,0-0.3,0-0.6c-0.2,0.3-0.6,0.7-1.4,0.7
					c-0.9,0-1.4-0.6-1.4-1.3C39.2,73.1,39.8,72.6,40.5,72.5z M42,73.1v-0.2l-1.3,0.2c-0.4,0.1-0.6,0.3-0.6,0.6
					c0,0.3,0.3,0.6,0.7,0.6C41.4,74.4,42,74.1,42,73.1z"/>
				<path class="st2" d="M47.2,74.3c-0.2,0.4-0.7,0.8-1.3,0.8c-1.3,0-2.1-1-2.1-2.3c0-1.2,0.8-2.3,2.1-2.3c0.8,0,1.2,0.4,1.3,0.7
					v-2.8H48v5.7c0,0.4,0,0.7,0,0.8h-0.8C47.2,74.9,47.2,74.7,47.2,74.3L47.2,74.3z M45.9,74.4c0.8,0,1.3-0.7,1.3-1.6
					c0-0.9-0.5-1.5-1.2-1.5c-0.8,0-1.3,0.6-1.3,1.5S45.1,74.4,45.9,74.4z"/>
				<path class="st2" d="M49.8,68.4c0.3,0,0.6,0.3,0.6,0.6c0,0.3-0.3,0.6-0.6,0.6c-0.3,0-0.6-0.3-0.6-0.6
					C49.2,68.7,49.4,68.4,49.8,68.4z M49.4,75v-4.3h0.8V75H49.4z"/>
				<path class="st2" d="M54.6,74.3c-0.2,0.4-0.7,0.8-1.3,0.8c-1.3,0-2.1-1-2.1-2.3c0-1.2,0.8-2.3,2.1-2.3c0.8,0,1.2,0.4,1.3,0.7
					v-2.8h0.8v5.7c0,0.4,0,0.7,0,0.8h-0.8C54.7,74.9,54.6,74.7,54.6,74.3L54.6,74.3z M53.4,74.4c0.8,0,1.3-0.7,1.3-1.6
					c0-0.9-0.5-1.5-1.2-1.5c-0.8,0-1.3,0.6-1.3,1.5S52.6,74.4,53.4,74.4z"/>
				<path class="st2" d="M62.9,73.2H60L59.4,75h-0.9l2.5-6.4h1l2.5,6.4h-1L62.9,73.2z M60.4,72.4h2.2l-1.1-2.9L60.4,72.4z"/>
				<path class="st2" d="M67.6,71.5c-0.1,0-0.3,0-0.4,0c-0.7,0-1.2,0.4-1.2,1.3V75h-0.8v-4.3h0.8v0.8c0.3-0.7,0.9-0.8,1.3-0.8
					c0.1,0,0.2,0,0.3,0V71.5z"/>
				<path class="st2" d="M69,72.8c0,1,0.6,1.5,1.3,1.5c0.8,0,1.1-0.5,1.2-0.9l0.7,0.3c-0.2,0.6-0.8,1.4-2,1.4c-1.3,0-2.2-1-2.2-2.3
					c0-1.4,0.9-2.3,2.2-2.3c1.2,0,1.7,0.7,1.9,1.4l-0.8,0.3c-0.1-0.4-0.4-0.9-1.2-0.9C69.6,71.3,69,71.8,69,72.8z"/>
				<path class="st2" d="M74,75h-0.8v-6.5H74v2.7c0.3-0.5,0.8-0.6,1.3-0.6c1,0,1.5,0.7,1.5,1.7V75H76v-2.6c0-0.6-0.3-1.1-1-1.1
					c-0.6,0-1,0.5-1,1.1V75z"/>
				<path class="st2" d="M78.6,68.4c0.3,0,0.6,0.3,0.6,0.6c0,0.3-0.3,0.6-0.6,0.6c-0.3,0-0.6-0.3-0.6-0.6
					C78,68.7,78.3,68.4,78.6,68.4z M78.2,75v-4.3H79V75H78.2z"/>
				<path class="st2" d="M81.5,70.7h0.9v0.8h-0.9v2.3c0,0.4,0.2,0.6,0.6,0.6c0.1,0,0.3,0,0.3,0V75c-0.1,0-0.3,0.1-0.6,0.1
					c-0.7,0-1.2-0.5-1.2-1.2v-2.4h-0.8v-0.8h0.2c0.5,0,0.7-0.3,0.7-0.7v-0.7h0.8V70.7z"/>
				<path class="st2" d="M87.3,73.8c-0.2,0.8-0.9,1.4-1.9,1.4c-1.2,0-2.2-0.8-2.2-2.3c0-1.4,1-2.3,2.1-2.3c1.3,0,2.1,0.9,2.1,2.3
					c0,0.1,0,0.2,0,0.3H84c0,0.8,0.6,1.3,1.3,1.3c0.7,0,1.1-0.4,1.2-0.9L87.3,73.8z M86.4,72.4c0-0.6-0.4-1.1-1.2-1.1
					c-0.7,0-1.1,0.5-1.2,1.1H86.4z"/>
				<path class="st2" d="M88.9,72.8c0,1,0.6,1.5,1.3,1.5c0.8,0,1.1-0.5,1.2-0.9l0.7,0.3c-0.2,0.6-0.8,1.4-2,1.4
					c-1.3,0-2.2-1-2.2-2.3c0-1.4,0.9-2.3,2.2-2.3c1.2,0,1.7,0.7,1.9,1.4l-0.8,0.3c-0.1-0.4-0.4-0.9-1.2-0.9
					C89.5,71.3,88.9,71.8,88.9,72.8z"/>
				<path class="st2" d="M94.2,70.7h0.9v0.8h-0.9v2.3c0,0.4,0.2,0.6,0.6,0.6c0.1,0,0.3,0,0.3,0V75c-0.1,0-0.3,0.1-0.6,0.1
					c-0.7,0-1.2-0.5-1.2-1.2v-2.4h-0.8v-0.8h0.2c0.5,0,0.7-0.3,0.7-0.7v-0.7h0.8V70.7z"/>
				<path class="st2" d="M96.6,73.6c0.1,0.5,0.4,0.8,1,0.8c0.5,0,0.7-0.3,0.7-0.6c0-0.3-0.2-0.5-0.6-0.6l-0.7-0.2
					C96.4,73,96,72.5,96,71.9c0-0.7,0.7-1.4,1.5-1.4c1.2,0,1.6,0.8,1.6,1.2L98.4,72c0-0.2-0.2-0.7-0.9-0.7c-0.4,0-0.7,0.3-0.7,0.6
					c0,0.3,0.2,0.5,0.5,0.5l0.7,0.2c0.8,0.2,1.2,0.6,1.2,1.3c0,0.6-0.5,1.3-1.6,1.3c-1.2,0-1.7-0.8-1.8-1.3L96.6,73.6z"/>
				<path class="st2" d="M100.9,73.8c0.4,0,0.7,0.3,0.7,0.9c0,1.2-0.8,1.7-1.3,1.8V76c0.4-0.1,0.7-0.5,0.7-1c0,0-0.1,0-0.2,0
					c-0.3,0-0.6-0.2-0.6-0.6C100.2,74.1,100.5,73.8,100.9,73.8z"/>
				<path class="st2" d="M104.8,75v-0.9l3.8-4.7h-3.7v-0.8h4.8v0.9l-3.8,4.7h3.9V75H104.8z"/>
				<path class="st2" d="M111.8,72.5l1.2-0.2c0.3,0,0.3-0.2,0.3-0.3c0-0.4-0.3-0.8-0.9-0.8c-0.6,0-0.9,0.4-1,0.9l-0.8-0.2
					c0.1-0.8,0.8-1.4,1.8-1.4c1.3,0,1.8,0.7,1.8,1.6v2.2c0,0.4,0,0.6,0.1,0.7h-0.8c0-0.1,0-0.3,0-0.6c-0.2,0.3-0.6,0.7-1.4,0.7
					c-0.9,0-1.4-0.6-1.4-1.3C110.5,73.1,111,72.6,111.8,72.5z M113.3,73.1v-0.2l-1.3,0.2c-0.4,0.1-0.6,0.3-0.6,0.6
					c0,0.3,0.3,0.6,0.7,0.6C112.7,74.4,113.3,74.1,113.3,73.1z"/>
				<path class="st2" d="M116.3,75h-0.8v-6.5h0.8v2.7c0.3-0.5,0.8-0.6,1.3-0.6c1,0,1.5,0.7,1.5,1.7V75h-0.8v-2.6
					c0-0.6-0.3-1.1-1-1.1c-0.6,0-1,0.5-1,1.1V75z"/>
				<path class="st2" d="M121.5,72.5l1.2-0.2c0.3,0,0.3-0.2,0.3-0.3c0-0.4-0.3-0.8-0.9-0.8c-0.6,0-0.9,0.4-1,0.9l-0.8-0.2
					c0.1-0.8,0.8-1.4,1.8-1.4c1.3,0,1.8,0.7,1.8,1.6v2.2c0,0.4,0,0.6,0.1,0.7H123c0-0.1,0-0.3,0-0.6c-0.2,0.3-0.6,0.7-1.4,0.7
					c-0.9,0-1.4-0.6-1.4-1.3C120.2,73.1,120.7,72.6,121.5,72.5z M123,73.1v-0.2l-1.3,0.2c-0.4,0.1-0.6,0.3-0.6,0.6
					c0,0.3,0.3,0.6,0.7,0.6C122.4,74.4,123,74.1,123,73.1z"/>
				<path class="st2" d="M131.5,75v-2.8h-3.3V75h-0.9v-6.4h0.9v2.7h3.3v-2.7h0.9V75H131.5z"/>
				<path class="st2" d="M134.9,72.5l1.2-0.2c0.3,0,0.3-0.2,0.3-0.3c0-0.4-0.3-0.8-0.9-0.8c-0.6,0-0.9,0.4-1,0.9l-0.8-0.2
					c0.1-0.8,0.8-1.4,1.8-1.4c1.3,0,1.8,0.7,1.8,1.6v2.2c0,0.4,0,0.6,0.1,0.7h-0.8c0-0.1,0-0.3,0-0.6c-0.2,0.3-0.6,0.7-1.4,0.7
					c-0.9,0-1.4-0.6-1.4-1.3C133.6,73.1,134.1,72.6,134.9,72.5z M136.4,73.1v-0.2l-1.3,0.2c-0.4,0.1-0.6,0.3-0.6,0.6
					c0,0.3,0.3,0.6,0.7,0.6C135.8,74.4,136.4,74.1,136.4,73.1z"/>
				<path class="st2" d="M141.5,74.3c-0.2,0.4-0.7,0.8-1.3,0.8c-1.3,0-2.1-1-2.1-2.3c0-1.2,0.8-2.3,2.1-2.3c0.8,0,1.2,0.4,1.3,0.7
					v-2.8h0.8v5.7c0,0.4,0,0.7,0,0.8h-0.8C141.6,74.9,141.5,74.7,141.5,74.3L141.5,74.3z M140.3,74.4c0.8,0,1.3-0.7,1.3-1.6
					c0-0.9-0.5-1.5-1.2-1.5c-0.8,0-1.3,0.6-1.3,1.5S139.5,74.4,140.3,74.4z"/>
				<path class="st2" d="M144.2,68.4c0.3,0,0.6,0.3,0.6,0.6c0,0.3-0.3,0.6-0.6,0.6c-0.3,0-0.6-0.3-0.6-0.6
					C143.6,68.7,143.8,68.4,144.2,68.4z M143.7,75v-4.3h0.8V75H143.7z"/>
				<path class="st2" d="M149,74.3c-0.2,0.4-0.7,0.8-1.3,0.8c-1.3,0-2.1-1-2.1-2.3c0-1.2,0.8-2.3,2.1-2.3c0.8,0,1.2,0.4,1.3,0.7
					v-2.8h0.8v5.7c0,0.4,0,0.7,0,0.8h-0.8C149,74.9,149,74.7,149,74.3L149,74.3z M147.8,74.4c0.8,0,1.3-0.7,1.3-1.6
					c0-0.9-0.5-1.5-1.2-1.5s-1.3,0.6-1.3,1.5S146.9,74.4,147.8,74.4z"/>
				<path class="st2" d="M153.8,68.4c0.3,0,0.6,0.3,0.6,0.6c0,0.3-0.3,0.6-0.6,0.6c-0.3,0-0.6-0.3-0.6-0.6
					C153.2,68.7,153.5,68.4,153.8,68.4z M153.4,75v-4.3h0.8V75H153.4z"/>
				<path class="st2" d="M156,73.6c0.1,0.5,0.4,0.8,1,0.8c0.5,0,0.7-0.3,0.7-0.6c0-0.3-0.2-0.5-0.6-0.6l-0.7-0.2
					c-0.7-0.1-1.1-0.6-1.1-1.2c0-0.7,0.7-1.4,1.5-1.4c1.2,0,1.6,0.8,1.6,1.2l-0.7,0.3c0-0.2-0.2-0.7-0.9-0.7c-0.4,0-0.7,0.3-0.7,0.6
					c0,0.3,0.2,0.5,0.5,0.5l0.7,0.2c0.8,0.2,1.2,0.6,1.2,1.3c0,0.6-0.5,1.3-1.6,1.3c-1.2,0-1.7-0.8-1.8-1.3L156,73.6z"/>
				<path class="st2" d="M162.9,72.5l1.2-0.2c0.3,0,0.3-0.2,0.3-0.3c0-0.4-0.3-0.8-0.9-0.8c-0.6,0-0.9,0.4-1,0.9l-0.8-0.2
					c0.1-0.8,0.8-1.4,1.8-1.4c1.3,0,1.8,0.7,1.8,1.6v2.2c0,0.4,0,0.6,0.1,0.7h-0.8c0-0.1,0-0.3,0-0.6c-0.2,0.3-0.6,0.7-1.4,0.7
					c-0.9,0-1.4-0.6-1.4-1.3C161.6,73.1,162.2,72.6,162.9,72.5z M164.4,73.1v-0.2l-1.3,0.2c-0.4,0.1-0.6,0.3-0.6,0.6
					c0,0.3,0.3,0.6,0.7,0.6C163.9,74.4,164.4,74.1,164.4,73.1z"/>
			</g>
			<g class="st1">
				<path class="st2" d="M11.2,86c0.1,0.6,0.5,1.1,1.2,1.1c0.9,0,1.3-0.5,1.3-1.4v-0.6c-0.2,0.4-0.7,0.7-1.3,0.7c-1.2,0-2-0.9-2-2.1
					c0-1.2,0.8-2.1,2-2.1c0.7,0,1.1,0.3,1.3,0.7v-0.6h0.8v4c0,1.1-0.5,2.2-2.2,2.2c-1.1,0-1.9-0.7-2-1.6L11.2,86z M13.8,83.7
					c0-0.8-0.5-1.4-1.2-1.4c-0.7,0-1.3,0.5-1.3,1.4c0,0.8,0.5,1.4,1.3,1.4C13.3,85.1,13.8,84.5,13.8,83.7z"/>
				<path class="st2" d="M18.3,82.5c-0.1,0-0.3,0-0.4,0c-0.7,0-1.2,0.4-1.2,1.3V86h-0.8v-4.3h0.8v0.8c0.3-0.7,0.9-0.8,1.3-0.8
					c0.1,0,0.2,0,0.3,0V82.5z"/>
				<path class="st2" d="M22.9,84.8c-0.2,0.8-0.9,1.4-1.9,1.4c-1.2,0-2.2-0.8-2.2-2.3c0-1.4,1-2.3,2.1-2.3c1.3,0,2.1,0.9,2.1,2.3
					c0,0.1,0,0.2,0,0.3h-3.3c0,0.8,0.6,1.3,1.3,1.3c0.7,0,1.1-0.4,1.2-0.9L22.9,84.8z M22,83.4c0-0.6-0.4-1.1-1.2-1.1
					c-0.7,0-1.1,0.5-1.2,1.1H22z"/>
				<path class="st2" d="M25,83.5l1.2-0.2c0.3,0,0.3-0.2,0.3-0.3c0-0.4-0.3-0.8-0.9-0.8c-0.6,0-0.9,0.4-1,0.9l-0.8-0.2
					c0.1-0.8,0.8-1.4,1.8-1.4c1.3,0,1.8,0.7,1.8,1.6v2.2c0,0.4,0,0.6,0.1,0.7h-0.8c0-0.1,0-0.3,0-0.6c-0.2,0.3-0.6,0.7-1.4,0.7
					c-0.9,0-1.4-0.6-1.4-1.3C23.7,84.1,24.2,83.6,25,83.5z M26.5,84.1v-0.2l-1.3,0.2c-0.4,0.1-0.6,0.3-0.6,0.6
					c0,0.3,0.3,0.6,0.7,0.6C25.9,85.4,26.5,85.1,26.5,84.1z"/>
				<path class="st2" d="M29.7,81.7h0.9v0.8h-0.9v2.3c0,0.4,0.2,0.6,0.6,0.6c0.1,0,0.3,0,0.3,0V86c-0.1,0-0.3,0.1-0.6,0.1
					c-0.7,0-1.2-0.5-1.2-1.2v-2.4H28v-0.8h0.2c0.5,0,0.7-0.3,0.7-0.7v-0.7h0.8V81.7z"/>
				<path class="st2" d="M34.4,79.4c0.3,0,0.6,0.3,0.6,0.6c0,0.3-0.3,0.6-0.6,0.6c-0.3,0-0.6-0.3-0.6-0.6
					C33.8,79.7,34,79.4,34.4,79.4z M33.9,86v-4.3h0.8V86H33.9z"/>
				<path class="st2" d="M37,86h-0.8v-4.3H37v0.6c0.3-0.5,0.8-0.7,1.3-0.7c1,0,1.5,0.7,1.5,1.7V86H39v-2.6c0-0.6-0.3-1.1-1-1.1
					c-0.7,0-1,0.5-1,1.2V86z"/>
				<path class="st2" d="M41.5,84.6c0.1,0.5,0.4,0.8,1,0.8c0.5,0,0.7-0.3,0.7-0.6c0-0.3-0.2-0.5-0.6-0.6L42,84.1
					c-0.7-0.1-1.1-0.6-1.1-1.2c0-0.7,0.7-1.4,1.5-1.4c1.2,0,1.6,0.8,1.6,1.2L43.4,83c0-0.2-0.2-0.7-0.9-0.7c-0.4,0-0.7,0.3-0.7,0.6
					c0,0.3,0.2,0.5,0.5,0.5l0.7,0.2c0.8,0.2,1.2,0.6,1.2,1.3c0,0.6-0.5,1.3-1.6,1.3c-1.2,0-1.7-0.8-1.8-1.3L41.5,84.6z"/>
				<path class="st2" d="M45.2,87.7v-6H46v0.7c0.2-0.4,0.7-0.8,1.4-0.8c1.3,0,2,1,2,2.3c0,1.3-0.7,2.3-2,2.3c-0.7,0-1.2-0.3-1.4-0.7
					v2.3H45.2z M47.3,82.3c-0.8,0-1.3,0.6-1.3,1.5c0,0.9,0.5,1.5,1.3,1.5c0.8,0,1.3-0.6,1.3-1.5C48.6,83,48.1,82.3,47.3,82.3z"/>
				<path class="st2" d="M50.9,79.4c0.3,0,0.6,0.3,0.6,0.6c0,0.3-0.3,0.6-0.6,0.6c-0.3,0-0.6-0.3-0.6-0.6
					C50.3,79.7,50.6,79.4,50.9,79.4z M50.5,86v-4.3h0.8V86H50.5z"/>
				<path class="st2" d="M55.1,82.5c-0.1,0-0.3,0-0.4,0c-0.7,0-1.2,0.4-1.2,1.3V86h-0.8v-4.3h0.8v0.8c0.3-0.7,0.9-0.8,1.3-0.8
					c0.1,0,0.2,0,0.3,0V82.5z"/>
				<path class="st2" d="M57,83.5l1.2-0.2c0.3,0,0.3-0.2,0.3-0.3c0-0.4-0.3-0.8-0.9-0.8c-0.6,0-0.9,0.4-1,0.9l-0.8-0.2
					c0.1-0.8,0.8-1.4,1.8-1.4c1.3,0,1.8,0.7,1.8,1.6v2.2c0,0.4,0,0.6,0.1,0.7h-0.8c0-0.1,0-0.3,0-0.6c-0.2,0.3-0.6,0.7-1.4,0.7
					c-0.9,0-1.4-0.6-1.4-1.3C55.7,84.1,56.3,83.6,57,83.5z M58.5,84.1v-0.2l-1.3,0.2c-0.4,0.1-0.6,0.3-0.6,0.6
					c0,0.3,0.3,0.6,0.7,0.6C58,85.4,58.5,85.1,58.5,84.1z"/>
				<path class="st2" d="M61.8,81.7h0.9v0.8h-0.9v2.3c0,0.4,0.2,0.6,0.6,0.6c0.1,0,0.3,0,0.3,0V86c-0.1,0-0.3,0.1-0.6,0.1
					c-0.7,0-1.2-0.5-1.2-1.2v-2.4h-0.8v-0.8h0.2c0.5,0,0.7-0.3,0.7-0.7v-0.7h0.8V81.7z"/>
				<path class="st2" d="M64.2,79.4c0.3,0,0.6,0.3,0.6,0.6c0,0.3-0.3,0.6-0.6,0.6c-0.3,0-0.6-0.3-0.6-0.6
					C63.6,79.7,63.9,79.4,64.2,79.4z M63.8,86v-4.3h0.8V86H63.8z"/>
				<path class="st2" d="M70.1,83.8c0,1.3-0.9,2.3-2.2,2.3s-2.2-1-2.2-2.3c0-1.3,0.9-2.3,2.2-2.3S70.1,82.5,70.1,83.8z M69.2,83.8
					c0-1-0.6-1.5-1.4-1.5s-1.4,0.5-1.4,1.5c0,1,0.6,1.5,1.4,1.5S69.2,84.8,69.2,83.8z"/>
				<path class="st2" d="M72,86h-0.8v-4.3H72v0.6c0.3-0.5,0.8-0.7,1.3-0.7c1,0,1.5,0.7,1.5,1.7V86H74v-2.6c0-0.6-0.3-1.1-1-1.1
					c-0.7,0-1,0.5-1,1.2V86z"/>
				<path class="st2" d="M79.5,81.7h0.9v0.8h-0.9v2.3c0,0.4,0.2,0.6,0.6,0.6c0.1,0,0.3,0,0.3,0V86c-0.1,0-0.3,0.1-0.6,0.1
					c-0.7,0-1.2-0.5-1.2-1.2v-2.4h-0.8v-0.8H78c0.5,0,0.7-0.3,0.7-0.7v-0.7h0.8V81.7z"/>
				<path class="st2" d="M85.5,83.8c0,1.3-0.9,2.3-2.2,2.3s-2.2-1-2.2-2.3c0-1.3,0.9-2.3,2.2-2.3S85.5,82.5,85.5,83.8z M84.7,83.8
					c0-1-0.6-1.5-1.4-1.5S82,82.8,82,83.8c0,1,0.6,1.5,1.4,1.5S84.7,84.8,84.7,83.8z"/>
				<path class="st2" d="M89.8,83.5l1.2-0.2c0.3,0,0.3-0.2,0.3-0.3c0-0.4-0.3-0.8-0.9-0.8c-0.6,0-0.9,0.4-1,0.9l-0.8-0.2
					c0.1-0.8,0.8-1.4,1.8-1.4c1.3,0,1.8,0.7,1.8,1.6v2.2c0,0.4,0,0.6,0.1,0.7h-0.8c0-0.1,0-0.3,0-0.6c-0.2,0.3-0.6,0.7-1.4,0.7
					c-0.9,0-1.4-0.6-1.4-1.3C88.5,84.1,89.1,83.6,89.8,83.5z M91.3,84.1v-0.2L90,84.1c-0.4,0.1-0.6,0.3-0.6,0.6
					c0,0.3,0.3,0.6,0.7,0.6C90.8,85.4,91.3,85.1,91.3,84.1z"/>
				<path class="st2" d="M95.8,82.5c-0.1,0-0.3,0-0.4,0c-0.7,0-1.2,0.4-1.2,1.3V86h-0.8v-4.3h0.8v0.8c0.3-0.7,0.9-0.8,1.3-0.8
					c0.1,0,0.2,0,0.3,0V82.5z"/>
				<path class="st2" d="M97.1,83.8c0,1,0.6,1.5,1.3,1.5c0.8,0,1.1-0.5,1.2-0.9l0.7,0.3c-0.2,0.6-0.8,1.4-2,1.4
					c-1.3,0-2.2-1-2.2-2.3c0-1.4,0.9-2.3,2.2-2.3c1.2,0,1.7,0.7,1.9,1.4l-0.8,0.3c-0.1-0.4-0.4-0.9-1.2-0.9
					C97.8,82.3,97.1,82.8,97.1,83.8z"/>
				<path class="st2" d="M102.2,86h-0.8v-6.5h0.8v2.7c0.3-0.5,0.8-0.6,1.3-0.6c1,0,1.5,0.7,1.5,1.7V86h-0.8v-2.6
					c0-0.6-0.3-1.1-1-1.1c-0.6,0-1,0.5-1,1.1V86z"/>
				<path class="st2" d="M106.8,79.4c0.3,0,0.6,0.3,0.6,0.6c0,0.3-0.3,0.6-0.6,0.6c-0.3,0-0.6-0.3-0.6-0.6
					C106.2,79.7,106.5,79.4,106.8,79.4z M106.4,86v-4.3h0.8V86H106.4z"/>
				<path class="st2" d="M109.7,81.7h0.9v0.8h-0.9v2.3c0,0.4,0.2,0.6,0.6,0.6c0.1,0,0.3,0,0.3,0V86c-0.1,0-0.3,0.1-0.6,0.1
					c-0.7,0-1.2-0.5-1.2-1.2v-2.4h-0.8v-0.8h0.2c0.5,0,0.7-0.3,0.7-0.7v-0.7h0.8V81.7z"/>
				<path class="st2" d="M115.5,84.8c-0.2,0.8-0.9,1.4-1.9,1.4c-1.2,0-2.2-0.8-2.2-2.3c0-1.4,1-2.3,2.1-2.3c1.3,0,2.1,0.9,2.1,2.3
					c0,0.1,0,0.2,0,0.3h-3.3c0,0.8,0.6,1.3,1.3,1.3c0.7,0,1.1-0.4,1.2-0.9L115.5,84.8z M114.6,83.4c0-0.6-0.4-1.1-1.2-1.1
					c-0.7,0-1.1,0.5-1.2,1.1H114.6z"/>
				<path class="st2" d="M117.1,83.8c0,1,0.6,1.5,1.3,1.5c0.8,0,1.1-0.5,1.2-0.9l0.7,0.3c-0.2,0.6-0.8,1.4-2,1.4
					c-1.3,0-2.2-1-2.2-2.3c0-1.4,0.9-2.3,2.2-2.3c1.2,0,1.7,0.7,1.9,1.4l-0.8,0.3c-0.1-0.4-0.4-0.9-1.2-0.9
					C117.7,82.3,117.1,82.8,117.1,83.8z"/>
				<path class="st2" d="M122.4,81.7h0.9v0.8h-0.9v2.3c0,0.4,0.2,0.6,0.6,0.6c0.1,0,0.3,0,0.3,0V86c-0.1,0-0.3,0.1-0.6,0.1
					c-0.7,0-1.2-0.5-1.2-1.2v-2.4h-0.8v-0.8h0.2c0.5,0,0.7-0.3,0.7-0.7v-0.7h0.8V81.7z"/>
				<path class="st2" d="M124.8,84.6c0.1,0.5,0.4,0.8,1,0.8c0.5,0,0.7-0.3,0.7-0.6c0-0.3-0.2-0.5-0.6-0.6l-0.7-0.2
					c-0.7-0.1-1.1-0.6-1.1-1.2c0-0.7,0.7-1.4,1.5-1.4c1.2,0,1.6,0.8,1.6,1.2l-0.7,0.3c0-0.2-0.2-0.7-0.9-0.7c-0.4,0-0.7,0.3-0.7,0.6
					c0,0.3,0.2,0.5,0.5,0.5l0.7,0.2c0.8,0.2,1.2,0.6,1.2,1.3c0,0.6-0.5,1.3-1.6,1.3c-1.2,0-1.7-0.8-1.8-1.3L124.8,84.6z"/>
				<path class="st2" d="M131.7,83.5l1.2-0.2c0.3,0,0.3-0.2,0.3-0.3c0-0.4-0.3-0.8-0.9-0.8c-0.6,0-0.9,0.4-1,0.9l-0.8-0.2
					c0.1-0.8,0.8-1.4,1.8-1.4c1.3,0,1.8,0.7,1.8,1.6v2.2c0,0.4,0,0.6,0.1,0.7h-0.8c0-0.1,0-0.3,0-0.6c-0.2,0.3-0.6,0.7-1.4,0.7
					c-0.9,0-1.4-0.6-1.4-1.3C130.4,84.1,131,83.6,131.7,83.5z M133.2,84.1v-0.2l-1.3,0.2c-0.4,0.1-0.6,0.3-0.6,0.6
					c0,0.3,0.3,0.6,0.7,0.6C132.7,85.4,133.2,85.1,133.2,84.1z"/>
				<path class="st2" d="M140,82.5c-0.1,0-0.3,0-0.4,0c-0.7,0-1.2,0.4-1.2,1.3V86h-0.8v-4.3h0.8v0.8c0.3-0.7,0.9-0.8,1.3-0.8
					c0.1,0,0.2,0,0.3,0V82.5z"/>
				<path class="st2" d="M144.8,83.8c0,1.3-0.9,2.3-2.2,2.3c-1.3,0-2.2-1-2.2-2.3c0-1.3,0.9-2.3,2.2-2.3
					C143.9,81.5,144.8,82.5,144.8,83.8z M144,83.8c0-1-0.6-1.5-1.3-1.5c-0.7,0-1.4,0.5-1.4,1.5c0,1,0.6,1.5,1.4,1.5
					C143.4,85.4,144,84.8,144,83.8z"/>
				<path class="st2" d="M147.4,86.1c-1,0-1.6-0.8-1.6-1.7v-2.7h0.8v2.6c0,0.6,0.3,1.1,1,1.1c0.7,0,1-0.5,1-1.1v-2.6h0.8v3.5
					c0,0.3,0,0.6,0,0.8h-0.8c0-0.1,0-0.3,0-0.5C148.5,85.9,147.9,86.1,147.4,86.1z"/>
				<path class="st2" d="M151.7,86h-0.8v-4.3h0.8v0.6c0.3-0.5,0.8-0.7,1.3-0.7c1,0,1.5,0.7,1.5,1.7V86h-0.8v-2.6
					c0-0.6-0.3-1.1-1-1.1c-0.7,0-1,0.5-1,1.2V86z"/>
				<path class="st2" d="M158.9,85.3c-0.2,0.4-0.7,0.8-1.3,0.8c-1.3,0-2.1-1-2.1-2.3c0-1.2,0.8-2.3,2.1-2.3c0.8,0,1.2,0.4,1.3,0.7
					v-2.8h0.8v5.7c0,0.4,0,0.7,0,0.8H159C159,85.9,158.9,85.7,158.9,85.3L158.9,85.3z M157.7,85.4c0.8,0,1.3-0.7,1.3-1.6
					c0-0.9-0.5-1.5-1.2-1.5c-0.8,0-1.3,0.6-1.3,1.5S156.9,85.4,157.7,85.4z"/>
				<path class="st2" d="M164.5,81.7h0.9v0.8h-0.9v2.3c0,0.4,0.2,0.6,0.6,0.6c0.1,0,0.3,0,0.3,0V86c-0.1,0-0.3,0.1-0.6,0.1
					c-0.7,0-1.2-0.5-1.2-1.2v-2.4h-0.8v-0.8h0.2c0.5,0,0.7-0.3,0.7-0.7v-0.7h0.8V81.7z"/>
				<path class="st2" d="M167.3,86h-0.8v-6.5h0.8v2.7c0.3-0.5,0.8-0.6,1.3-0.6c1,0,1.5,0.7,1.5,1.7V86h-0.8v-2.6
					c0-0.6-0.3-1.1-1-1.1c-0.6,0-1,0.5-1,1.1V86z"/>
				<path class="st2" d="M175.3,84.8c-0.2,0.8-0.9,1.4-1.9,1.4c-1.2,0-2.2-0.8-2.2-2.3c0-1.4,1-2.3,2.1-2.3c1.3,0,2.1,0.9,2.1,2.3
					c0,0.1,0,0.2,0,0.3H172c0,0.8,0.6,1.3,1.3,1.3c0.7,0,1.1-0.4,1.2-0.9L175.3,84.8z M174.4,83.4c0-0.6-0.4-1.1-1.2-1.1
					c-0.7,0-1.1,0.5-1.2,1.1H174.4z"/>
			</g>
			<g class="st1">
				<path class="st2" d="M11.2,97c0.1,0.6,0.5,1.1,1.2,1.1c0.9,0,1.3-0.5,1.3-1.4v-0.6c-0.2,0.4-0.7,0.7-1.3,0.7c-1.2,0-2-0.9-2-2.1
					c0-1.2,0.8-2.1,2-2.1c0.7,0,1.1,0.3,1.3,0.7v-0.6h0.8v4c0,1.1-0.5,2.2-2.2,2.2c-1.1,0-1.9-0.7-2-1.6L11.2,97z M13.8,94.7
					c0-0.8-0.5-1.4-1.2-1.4c-0.7,0-1.3,0.5-1.3,1.4c0,0.8,0.5,1.4,1.3,1.4C13.3,96.1,13.8,95.5,13.8,94.7z"/>
				<path class="st2" d="M15.9,97v-6.5h0.8V97H15.9z"/>
				<path class="st2" d="M22.2,94.8c0,1.3-0.9,2.3-2.2,2.3s-2.2-1-2.2-2.3c0-1.3,0.9-2.3,2.2-2.3S22.2,93.5,22.2,94.8z M21.3,94.8
					c0-1-0.6-1.5-1.4-1.5s-1.4,0.5-1.4,1.5c0,1,0.6,1.5,1.4,1.5S21.3,95.8,21.3,94.8z"/>
				<path class="st2" d="M23.2,97v-6.5h0.8v2.8c0.2-0.4,0.7-0.7,1.4-0.7c1.3,0,2,1,2,2.3c0,1.3-0.7,2.3-2,2.3
					c-0.6,0-1.1-0.3-1.4-0.7V97H23.2z M25.3,93.3c-0.7,0-1.3,0.6-1.3,1.5s0.5,1.5,1.3,1.5c0.8,0,1.3-0.6,1.3-1.5
					S26.1,93.3,25.3,93.3z"/>
				<path class="st2" d="M32.3,95.8c-0.2,0.8-0.9,1.4-1.9,1.4c-1.2,0-2.2-0.8-2.2-2.3c0-1.4,1-2.3,2.1-2.3c1.3,0,2.1,0.9,2.1,2.3
					c0,0.1,0,0.2,0,0.3H29c0,0.8,0.6,1.3,1.3,1.3c0.7,0,1.1-0.4,1.2-0.9L32.3,95.8z M31.4,94.4c0-0.6-0.4-1.1-1.2-1.1
					c-0.7,0-1.1,0.5-1.2,1.1H31.4z"/>
				<path class="st2" d="M33.8,95.8c0.4,0,0.7,0.3,0.7,0.9c0,1.2-0.8,1.7-1.3,1.8V98c0.4-0.1,0.7-0.5,0.7-1c0,0-0.1,0-0.2,0
					c-0.3,0-0.6-0.2-0.6-0.6C33.1,96.1,33.4,95.8,33.8,95.8z"/>
				<path class="st2" d="M41.8,95.8c-0.2,0.8-0.9,1.4-1.9,1.4c-1.2,0-2.2-0.8-2.2-2.3c0-1.4,1-2.3,2.1-2.3c1.3,0,2.1,0.9,2.1,2.3
					c0,0.1,0,0.2,0,0.3h-3.3c0,0.8,0.6,1.3,1.3,1.3c0.7,0,1.1-0.4,1.2-0.9L41.8,95.8z M40.9,94.4c0-0.6-0.4-1.1-1.2-1.1
					c-0.7,0-1.1,0.5-1.2,1.1H40.9z"/>
				<path class="st2" d="M43.2,95.6c0.1,0.5,0.4,0.8,1,0.8c0.5,0,0.7-0.3,0.7-0.6c0-0.3-0.2-0.5-0.6-0.6l-0.7-0.2
					c-0.7-0.1-1.1-0.6-1.1-1.2c0-0.7,0.7-1.4,1.5-1.4c1.2,0,1.6,0.8,1.6,1.2L45,94c0-0.2-0.2-0.7-0.9-0.7c-0.4,0-0.7,0.3-0.7,0.6
					c0,0.3,0.2,0.5,0.5,0.5l0.7,0.2c0.8,0.2,1.2,0.6,1.2,1.3c0,0.6-0.5,1.3-1.6,1.3c-1.2,0-1.7-0.8-1.8-1.3L43.2,95.6z"/>
				<path class="st2" d="M46.9,98.7v-6h0.8v0.7c0.2-0.4,0.7-0.8,1.4-0.8c1.3,0,2,1,2,2.3c0,1.3-0.7,2.3-2,2.3
					c-0.7,0-1.2-0.3-1.4-0.7v2.3H46.9z M49,93.3c-0.8,0-1.3,0.6-1.3,1.5c0,0.9,0.5,1.5,1.3,1.5c0.8,0,1.3-0.6,1.3-1.5
					C50.3,94,49.8,93.3,49,93.3z"/>
				<path class="st2" d="M55.9,95.8c-0.2,0.8-0.9,1.4-1.9,1.4c-1.2,0-2.2-0.8-2.2-2.3c0-1.4,1-2.3,2.1-2.3c1.3,0,2.1,0.9,2.1,2.3
					c0,0.1,0,0.2,0,0.3h-3.3c0,0.8,0.6,1.3,1.3,1.3c0.7,0,1.1-0.4,1.2-0.9L55.9,95.8z M55.1,94.4c0-0.6-0.4-1.1-1.2-1.1
					c-0.7,0-1.1,0.5-1.2,1.1H55.1z"/>
				<path class="st2" d="M57.5,94.8c0,1,0.6,1.5,1.3,1.5c0.8,0,1.1-0.5,1.2-0.9l0.7,0.3c-0.2,0.6-0.8,1.4-2,1.4
					c-1.3,0-2.2-1-2.2-2.3c0-1.4,0.9-2.3,2.2-2.3c1.2,0,1.7,0.7,1.9,1.4L60,94.2c-0.1-0.4-0.4-0.9-1.2-0.9
					C58.1,93.3,57.5,93.8,57.5,94.8z"/>
				<path class="st2" d="M62.1,90.4c0.3,0,0.6,0.3,0.6,0.6c0,0.3-0.3,0.6-0.6,0.6c-0.3,0-0.6-0.3-0.6-0.6
					C61.5,90.7,61.8,90.4,62.1,90.4z M61.7,97v-4.3h0.8V97H61.7z"/>
				<path class="st2" d="M65,94.5l1.2-0.2c0.3,0,0.3-0.2,0.3-0.3c0-0.4-0.3-0.8-0.9-0.8c-0.6,0-0.9,0.4-1,0.9l-0.8-0.2
					c0.1-0.8,0.8-1.4,1.8-1.4c1.3,0,1.8,0.7,1.8,1.6v2.2c0,0.4,0,0.6,0.1,0.7h-0.8c0-0.1,0-0.3,0-0.6c-0.2,0.3-0.6,0.7-1.4,0.7
					c-0.9,0-1.4-0.6-1.4-1.3C63.7,95.1,64.3,94.6,65,94.5z M66.5,95.1v-0.2l-1.3,0.2c-0.4,0.1-0.6,0.3-0.6,0.6
					c0,0.3,0.3,0.6,0.7,0.6C65.9,96.4,66.5,96.1,66.5,95.1z"/>
				<path class="st2" d="M68.6,97v-6.5h0.8V97H68.6z"/>
				<path class="st2" d="M70.9,97v-6.5h0.8V97H70.9z"/>
				<path class="st2" d="M73.3,98.8l1.1-2.3l-1.9-3.9h1l1.4,3l1.3-3H77l-2.8,6.1H73.3z"/>
				<path class="st2" d="M83.3,92.7l1.1,3.3l1-3.3h0.9L84.8,97H84l-1.2-3.3L81.7,97h-0.9l-1.4-4.3h0.9l1,3.3l1.1-3.3H83.3z"/>
				<path class="st2" d="M91,94.8c0,1.3-0.9,2.3-2.2,2.3s-2.2-1-2.2-2.3c0-1.3,0.9-2.3,2.2-2.3S91,93.5,91,94.8z M90.2,94.8
					c0-1-0.6-1.5-1.4-1.5s-1.4,0.5-1.4,1.5c0,1,0.6,1.5,1.4,1.5S90.2,95.8,90.2,94.8z"/>
				<path class="st2" d="M92.1,97v-4.3h0.8v0.6c0.3-0.5,0.8-0.7,1.3-0.7c0.5,0,1.1,0.3,1.3,0.8c0.3-0.6,0.9-0.8,1.5-0.8
					c0.8,0,1.5,0.5,1.5,1.6V97h-0.8v-2.7c0-0.6-0.3-1-0.9-1c-0.6,0-1,0.5-1,1.1V97h-0.8v-2.7c0-0.6-0.3-1-0.9-1c-0.6,0-1,0.5-1,1.1
					V97H92.1z"/>
				<path class="st2" d="M103.5,95.8c-0.2,0.8-0.9,1.4-1.9,1.4c-1.2,0-2.2-0.8-2.2-2.3c0-1.4,1-2.3,2.1-2.3c1.3,0,2.1,0.9,2.1,2.3
					c0,0.1,0,0.2,0,0.3h-3.3c0,0.8,0.6,1.3,1.3,1.3c0.7,0,1.1-0.4,1.2-0.9L103.5,95.8z M102.7,94.4c0-0.6-0.4-1.1-1.2-1.1
					c-0.7,0-1.1,0.5-1.2,1.1H102.7z"/>
				<path class="st2" d="M105.4,97h-0.8v-4.3h0.8v0.6c0.3-0.5,0.8-0.7,1.3-0.7c1,0,1.5,0.7,1.5,1.7V97h-0.8v-2.6
					c0-0.6-0.3-1.1-1-1.1c-0.7,0-1,0.5-1,1.2V97z"/>
				<path class="st2" d="M110.1,95.8c0.4,0,0.6,0.3,0.6,0.6s-0.3,0.6-0.6,0.6s-0.6-0.3-0.6-0.6S109.8,95.8,110.1,95.8z"/>
			</g>
			<g class="st1">
				<path class="st2" d="M14.1,114.3c-0.1-0.5-0.5-1.1-1.4-1.1c-0.7,0-1.2,0.5-1.2,1.1c0,0.5,0.3,0.8,0.8,0.9l1,0.2
					c1.1,0.2,1.7,0.9,1.7,1.8c0,1-0.8,1.9-2.2,1.9c-1.5,0-2.3-1-2.4-1.9l0.8-0.3c0.1,0.7,0.6,1.4,1.5,1.4c0.9,0,1.3-0.5,1.3-1
					c0-0.5-0.3-0.9-1-1l-0.9-0.2c-0.9-0.2-1.6-0.8-1.6-1.7c0-1,0.9-1.9,2.1-1.9c1.4,0,2,0.9,2.2,1.6L14.1,114.3z"/>
				<path class="st2" d="M16.8,119H16v-6.5h0.8v2.7c0.3-0.5,0.8-0.6,1.3-0.6c1,0,1.5,0.7,1.5,1.7v2.7h-0.8v-2.6c0-0.6-0.3-1.1-1-1.1
					c-0.6,0-1,0.5-1,1.1V119z"/>
				<path class="st2" d="M24.8,117.8c-0.2,0.8-0.9,1.4-1.9,1.4c-1.2,0-2.2-0.8-2.2-2.3c0-1.4,1-2.3,2.1-2.3c1.3,0,2.1,0.9,2.1,2.3
					c0,0.1,0,0.2,0,0.3h-3.3c0,0.8,0.6,1.3,1.3,1.3c0.7,0,1.1-0.4,1.2-0.9L24.8,117.8z M23.9,116.4c0-0.6-0.4-1.1-1.2-1.1
					c-0.7,0-1.1,0.5-1.2,1.1H23.9z"/>
				<path class="st2" d="M28,119v-6.5h0.8v2.8c0.2-0.4,0.7-0.7,1.4-0.7c1.3,0,2,1,2,2.3c0,1.3-0.7,2.3-2,2.3c-0.6,0-1.1-0.3-1.4-0.7
					v0.6H28z M30.1,115.3c-0.7,0-1.3,0.6-1.3,1.5s0.5,1.5,1.3,1.5c0.8,0,1.3-0.6,1.3-1.5S30.9,115.3,30.1,115.3z"/>
				<path class="st2" d="M35.7,115.5c-0.1,0-0.3,0-0.4,0c-0.7,0-1.2,0.4-1.2,1.3v2.2h-0.8v-4.3h0.8v0.8c0.3-0.7,0.9-0.8,1.3-0.8
					c0.1,0,0.2,0,0.3,0V115.5z"/>
				<path class="st2" d="M40.6,116.8c0,1.3-0.9,2.3-2.2,2.3s-2.2-1-2.2-2.3c0-1.3,0.9-2.3,2.2-2.3S40.6,115.5,40.6,116.8z
					 M39.7,116.8c0-1-0.6-1.5-1.4-1.5s-1.4,0.5-1.4,1.5c0,1,0.6,1.5,1.4,1.5S39.7,117.8,39.7,116.8z"/>
				<path class="st2" d="M43.7,116.5l1.9,2.5h-1.1l-1.4-1.9l-0.6,0.6v1.3h-0.8v-6.5h0.8v4.1l1.9-1.9h1.2L43.7,116.5z"/>
				<path class="st2" d="M49.9,117.8c-0.2,0.8-0.9,1.4-1.9,1.4c-1.2,0-2.2-0.8-2.2-2.3c0-1.4,1-2.3,2.1-2.3c1.3,0,2.1,0.9,2.1,2.3
					c0,0.1,0,0.2,0,0.3h-3.3c0,0.8,0.6,1.3,1.3,1.3c0.7,0,1.1-0.4,1.2-0.9L49.9,117.8z M49,116.4c0-0.6-0.4-1.1-1.2-1.1
					c-0.7,0-1.1,0.5-1.2,1.1H49z"/>
				<path class="st2" d="M54,119h-0.8v-4.3h0.8v0.6c0.3-0.5,0.8-0.7,1.3-0.7c1,0,1.5,0.7,1.5,1.7v2.7H56v-2.6c0-0.6-0.3-1.1-1-1.1
					c-0.7,0-1,0.5-1,1.2V119z"/>
				<path class="st2" d="M61.9,117.8c-0.2,0.8-0.9,1.4-1.9,1.4c-1.2,0-2.2-0.8-2.2-2.3c0-1.4,1-2.3,2.1-2.3c1.3,0,2.1,0.9,2.1,2.3
					c0,0.1,0,0.2,0,0.3h-3.3c0,0.8,0.6,1.3,1.3,1.3c0.7,0,1.1-0.4,1.2-0.9L61.9,117.8z M61,116.4c0-0.6-0.4-1.1-1.2-1.1
					c-0.7,0-1.1,0.5-1.2,1.1H61z"/>
				<path class="st2" d="M66.2,114.7l1.1,3.3l1-3.3h0.9l-1.4,4.3h-0.9l-1.2-3.3l-1.1,3.3h-0.9l-1.4-4.3h0.9l1,3.3l1.1-3.3H66.2z"/>
				<path class="st2" d="M72.7,119c0.1,0.6,0.5,1.1,1.2,1.1c0.9,0,1.3-0.5,1.3-1.4v-0.6c-0.2,0.4-0.7,0.7-1.3,0.7
					c-1.2,0-2-0.9-2-2.1c0-1.2,0.8-2.1,2-2.1c0.7,0,1.1,0.3,1.3,0.7v-0.6h0.8v4c0,1.1-0.5,2.2-2.2,2.2c-1.1,0-1.9-0.7-2-1.6
					L72.7,119z M75.3,116.7c0-0.8-0.5-1.4-1.2-1.4c-0.7,0-1.3,0.5-1.3,1.4c0,0.8,0.5,1.4,1.3,1.4C74.8,118.1,75.3,117.5,75.3,116.7z
					"/>
				<path class="st2" d="M79.8,115.5c-0.1,0-0.3,0-0.4,0c-0.7,0-1.2,0.4-1.2,1.3v2.2h-0.8v-4.3h0.8v0.8c0.3-0.7,0.9-0.8,1.3-0.8
					c0.1,0,0.2,0,0.3,0V115.5z"/>
				<path class="st2" d="M84.7,116.8c0,1.3-0.9,2.3-2.2,2.3s-2.2-1-2.2-2.3c0-1.3,0.9-2.3,2.2-2.3S84.7,115.5,84.7,116.8z
					 M83.8,116.8c0-1-0.6-1.5-1.4-1.5s-1.4,0.5-1.4,1.5c0,1,0.6,1.5,1.4,1.5S83.8,117.8,83.8,116.8z"/>
				<path class="st2" d="M87.2,119.1c-1,0-1.6-0.8-1.6-1.7v-2.7h0.8v2.6c0,0.6,0.3,1.1,1,1.1c0.7,0,1-0.5,1-1.1v-2.6h0.8v3.5
					c0,0.3,0,0.6,0,0.8h-0.8c0-0.1,0-0.3,0-0.5C88.3,118.9,87.7,119.1,87.2,119.1z"/>
				<path class="st2" d="M91.5,119h-0.8v-4.3h0.8v0.6c0.3-0.5,0.8-0.7,1.3-0.7c1,0,1.5,0.7,1.5,1.7v2.7h-0.8v-2.6
					c0-0.6-0.3-1.1-1-1.1c-0.7,0-1,0.5-1,1.2V119z"/>
				<path class="st2" d="M98.7,118.3c-0.2,0.4-0.7,0.8-1.3,0.8c-1.3,0-2.1-1-2.1-2.3c0-1.2,0.8-2.3,2.1-2.3c0.8,0,1.2,0.4,1.3,0.7
					v-2.8h0.8v5.7c0,0.4,0,0.7,0,0.8h-0.8C98.8,118.9,98.7,118.7,98.7,118.3L98.7,118.3z M97.5,118.4c0.8,0,1.3-0.7,1.3-1.6
					c0-0.9-0.5-1.5-1.2-1.5s-1.3,0.6-1.3,1.5S96.7,118.4,97.5,118.4z"/>
				<path class="st2" d="M103.6,112.4c0.3,0,0.6,0.3,0.6,0.6c0,0.3-0.3,0.6-0.6,0.6c-0.3,0-0.6-0.3-0.6-0.6
					C103,112.7,103.2,112.4,103.6,112.4z M103.2,119v-4.3h0.8v4.3H103.2z"/>
				<path class="st2" d="M106.2,119h-0.8v-4.3h0.8v0.6c0.3-0.5,0.8-0.7,1.3-0.7c1,0,1.5,0.7,1.5,1.7v2.7h-0.8v-2.6
					c0-0.6-0.3-1.1-1-1.1c-0.7,0-1,0.5-1,1.2V119z"/>
				<path class="st2" d="M113.7,116.5l1.2-0.2c0.3,0,0.3-0.2,0.3-0.3c0-0.4-0.3-0.8-0.9-0.8c-0.6,0-0.9,0.4-1,0.9l-0.8-0.2
					c0.1-0.8,0.8-1.4,1.8-1.4c1.3,0,1.8,0.7,1.8,1.6v2.2c0,0.4,0,0.6,0.1,0.7h-0.8c0-0.1,0-0.3,0-0.6c-0.2,0.3-0.6,0.7-1.4,0.7
					c-0.9,0-1.4-0.6-1.4-1.3C112.3,117.1,112.9,116.6,113.7,116.5z M115.2,117.1v-0.2l-1.3,0.2c-0.4,0.1-0.6,0.3-0.6,0.6
					c0,0.3,0.3,0.6,0.7,0.6C114.6,118.4,115.2,118.1,115.2,117.1z"/>
				<path class="st2" d="M119.5,119v-4.3h0.8v0.6c0.3-0.5,0.8-0.7,1.3-0.7c0.5,0,1.1,0.3,1.3,0.8c0.3-0.6,0.9-0.8,1.4-0.8
					c0.8,0,1.5,0.5,1.5,1.6v2.8H125v-2.7c0-0.6-0.3-1-0.9-1c-0.6,0-1,0.5-1,1.1v2.6h-0.8v-2.7c0-0.6-0.3-1-0.9-1c-0.6,0-1,0.5-1,1.1
					v2.6H119.5z"/>
				<path class="st2" d="M128.2,116.5l1.2-0.2c0.3,0,0.3-0.2,0.3-0.3c0-0.4-0.3-0.8-0.9-0.8c-0.6,0-0.9,0.4-1,0.9l-0.8-0.2
					c0.1-0.8,0.8-1.4,1.8-1.4c1.3,0,1.8,0.7,1.8,1.6v2.2c0,0.4,0,0.6,0.1,0.7h-0.8c0-0.1,0-0.3,0-0.6c-0.2,0.3-0.6,0.7-1.4,0.7
					c-0.9,0-1.4-0.6-1.4-1.3C126.9,117.1,127.4,116.6,128.2,116.5z M129.7,117.1v-0.2l-1.3,0.2c-0.4,0.1-0.6,0.3-0.6,0.6
					c0,0.3,0.3,0.6,0.7,0.6C129.1,118.4,129.7,118.1,129.7,117.1z"/>
				<path class="st2" d="M131.8,119v-6.5h0.8v6.5H131.8z"/>
				<path class="st2" d="M137.8,117.8c-0.2,0.8-0.9,1.4-1.9,1.4c-1.2,0-2.2-0.8-2.2-2.3c0-1.4,1-2.3,2.1-2.3c1.3,0,2.1,0.9,2.1,2.3
					c0,0.1,0,0.2,0,0.3h-3.3c0,0.8,0.6,1.3,1.3,1.3c0.7,0,1.1-0.4,1.2-0.9L137.8,117.8z M137,116.4c0-0.6-0.4-1.1-1.2-1.1
					c-0.7,0-1.1,0.5-1.2,1.1H137z"/>
				<path class="st2" d="M138.6,116.8V116h2.4v0.7H138.6z"/>
				<path class="st2" d="M145.1,118.3c-0.2,0.4-0.7,0.8-1.3,0.8c-1.3,0-2.1-1-2.1-2.3c0-1.2,0.8-2.3,2.1-2.3c0.8,0,1.2,0.4,1.3,0.7
					v-2.8h0.8v5.7c0,0.4,0,0.7,0,0.8h-0.8C145.1,118.9,145.1,118.7,145.1,118.3L145.1,118.3z M143.9,118.4c0.8,0,1.3-0.7,1.3-1.6
					c0-0.9-0.5-1.5-1.2-1.5c-0.8,0-1.3,0.6-1.3,1.5S143,118.4,143.9,118.4z"/>
				<path class="st2" d="M151.4,116.8c0,1.3-0.9,2.3-2.2,2.3s-2.2-1-2.2-2.3c0-1.3,0.9-2.3,2.2-2.3S151.4,115.5,151.4,116.8z
					 M150.5,116.8c0-1-0.6-1.5-1.4-1.5s-1.4,0.5-1.4,1.5c0,1,0.6,1.5,1.4,1.5S150.5,117.8,150.5,116.8z"/>
				<path class="st2" d="M152.4,119v-4.3h0.8v0.6c0.3-0.5,0.8-0.7,1.3-0.7c0.5,0,1.1,0.3,1.3,0.8c0.3-0.6,0.9-0.8,1.5-0.8
					c0.8,0,1.5,0.5,1.5,1.6v2.8H158v-2.7c0-0.6-0.3-1-0.9-1c-0.6,0-1,0.5-1,1.1v2.6h-0.8v-2.7c0-0.6-0.3-1-0.9-1c-0.6,0-1,0.5-1,1.1
					v2.6H152.4z"/>
				<path class="st2" d="M160.5,112.4c0.3,0,0.6,0.3,0.6,0.6c0,0.3-0.3,0.6-0.6,0.6c-0.3,0-0.6-0.3-0.6-0.6
					C159.9,112.7,160.2,112.4,160.5,112.4z M160.1,119v-4.3h0.8v4.3H160.1z"/>
				<path class="st2" d="M163.2,119h-0.8v-4.3h0.8v0.6c0.3-0.5,0.8-0.7,1.3-0.7c1,0,1.5,0.7,1.5,1.7v2.7h-0.8v-2.6
					c0-0.6-0.3-1.1-1-1.1c-0.7,0-1,0.5-1,1.2V119z"/>
				<path class="st2" d="M168.4,116.5l1.2-0.2c0.3,0,0.3-0.2,0.3-0.3c0-0.4-0.3-0.8-0.9-0.8c-0.6,0-0.9,0.4-1,0.9l-0.8-0.2
					c0.1-0.8,0.8-1.4,1.8-1.4c1.3,0,1.8,0.7,1.8,1.6v2.2c0,0.4,0,0.6,0.1,0.7H170c0-0.1,0-0.3,0-0.6c-0.2,0.3-0.6,0.7-1.4,0.7
					c-0.9,0-1.4-0.6-1.4-1.3C167.1,117.1,167.6,116.6,168.4,116.5z M169.9,117.1v-0.2l-1.3,0.2c-0.4,0.1-0.6,0.3-0.6,0.6
					c0,0.3,0.3,0.6,0.7,0.6C169.3,118.4,169.9,118.1,169.9,117.1z"/>
				<path class="st2" d="M173.1,114.7h0.9v0.8h-0.9v2.3c0,0.4,0.2,0.6,0.6,0.6c0.1,0,0.3,0,0.3,0v0.7c-0.1,0-0.3,0.1-0.6,0.1
					c-0.7,0-1.2-0.5-1.2-1.2v-2.4h-0.8v-0.8h0.2c0.5,0,0.7-0.3,0.7-0.7v-0.7h0.8V114.7z"/>
				<path class="st2" d="M178.9,117.8c-0.2,0.8-0.9,1.4-1.9,1.4c-1.2,0-2.2-0.8-2.2-2.3c0-1.4,1-2.3,2.1-2.3c1.3,0,2.1,0.9,2.1,2.3
					c0,0.1,0,0.2,0,0.3h-3.3c0,0.8,0.6,1.3,1.3,1.3c0.7,0,1.1-0.4,1.2-0.9L178.9,117.8z M178,116.4c0-0.6-0.4-1.1-1.2-1.1
					c-0.7,0-1.1,0.5-1.2,1.1H178z"/>
				<path class="st2" d="M183,118.3c-0.2,0.4-0.7,0.8-1.3,0.8c-1.3,0-2.1-1-2.1-2.3c0-1.2,0.8-2.3,2.1-2.3c0.8,0,1.2,0.4,1.3,0.7
					v-2.8h0.8v5.7c0,0.4,0,0.7,0,0.8H183C183,118.9,183,118.7,183,118.3L183,118.3z M181.7,118.4c0.8,0,1.3-0.7,1.3-1.6
					c0-0.9-0.5-1.5-1.2-1.5c-0.8,0-1.3,0.6-1.3,1.5S180.9,118.4,181.7,118.4z"/>
			</g>
			<g class="st1">
				<path class="st2" d="M12.9,123.5v0.8c0,0-0.2-0.1-0.4-0.1c-0.3,0-0.7,0.1-0.7,0.7v0.7h2.9v4.3h-0.8v-3.6h-2v3.6H11v-3.6h-0.8
					v-0.8H11v-0.7c0-1,0.6-1.5,1.4-1.5C12.7,123.5,12.9,123.5,12.9,123.5z M14.3,123.4c0.3,0,0.6,0.3,0.6,0.6c0,0.3-0.3,0.6-0.6,0.6
					c-0.3,0-0.6-0.3-0.6-0.6C13.7,123.7,14,123.4,14.3,123.4z"/>
				<path class="st2" d="M19.9,128.8c-0.2,0.8-0.9,1.4-1.9,1.4c-1.2,0-2.2-0.8-2.2-2.3c0-1.4,1-2.3,2.1-2.3c1.3,0,2.1,0.9,2.1,2.3
					c0,0.1,0,0.2,0,0.3h-3.3c0,0.8,0.6,1.3,1.3,1.3c0.7,0,1.1-0.4,1.2-0.9L19.9,128.8z M19,127.4c0-0.6-0.4-1.1-1.2-1.1
					c-0.7,0-1.1,0.5-1.2,1.1H19z"/>
				<path class="st2" d="M20.9,130v-6.5h0.8v6.5H20.9z"/>
				<path class="st2" d="M26.2,129.3c-0.2,0.4-0.7,0.8-1.3,0.8c-1.3,0-2.1-1-2.1-2.3c0-1.2,0.8-2.3,2.1-2.3c0.8,0,1.2,0.4,1.3,0.7
					v-2.8H27v5.7c0,0.4,0,0.7,0,0.8h-0.8C26.2,129.9,26.2,129.7,26.2,129.3L26.2,129.3z M25,129.4c0.8,0,1.3-0.7,1.3-1.6
					c0-0.9-0.5-1.5-1.2-1.5c-0.8,0-1.3,0.6-1.3,1.5S24.1,129.4,25,129.4z"/>
				<path class="st2" d="M29,128.8c0.4,0,0.7,0.3,0.7,0.9c0,1.2-0.8,1.7-1.3,1.8V131c0.4-0.1,0.7-0.5,0.7-1c0,0-0.1,0-0.2,0
					c-0.3,0-0.6-0.2-0.6-0.6C28.3,129.1,28.6,128.8,29,128.8z"/>
				<path class="st2" d="M36.3,129.3c-0.2,0.4-0.7,0.8-1.3,0.8c-1.3,0-2.1-1-2.1-2.3c0-1.2,0.8-2.3,2.1-2.3c0.8,0,1.2,0.4,1.3,0.7
					v-2.8h0.8v5.7c0,0.4,0,0.7,0,0.8h-0.8C36.3,129.9,36.3,129.7,36.3,129.3L36.3,129.3z M35,129.4c0.8,0,1.3-0.7,1.3-1.6
					c0-0.9-0.5-1.5-1.2-1.5c-0.8,0-1.3,0.6-1.3,1.5S34.2,129.4,35,129.4z"/>
				<path class="st2" d="M42.3,128.8c-0.2,0.8-0.9,1.4-1.9,1.4c-1.2,0-2.2-0.8-2.2-2.3c0-1.4,1-2.3,2.1-2.3c1.3,0,2.1,0.9,2.1,2.3
					c0,0.1,0,0.2,0,0.3H39c0,0.8,0.6,1.3,1.3,1.3c0.7,0,1.1-0.4,1.2-0.9L42.3,128.8z M41.4,127.4c0-0.6-0.4-1.1-1.2-1.1
					c-0.7,0-1.1,0.5-1.2,1.1H41.4z"/>
				<path class="st2" d="M43.7,128.6c0.1,0.5,0.4,0.8,1,0.8c0.5,0,0.7-0.3,0.7-0.6c0-0.3-0.2-0.5-0.6-0.6l-0.7-0.2
					c-0.7-0.1-1.1-0.6-1.1-1.2c0-0.7,0.7-1.4,1.5-1.4c1.2,0,1.6,0.8,1.6,1.2l-0.7,0.3c0-0.2-0.2-0.7-0.9-0.7c-0.4,0-0.7,0.3-0.7,0.6
					c0,0.3,0.2,0.5,0.5,0.5l0.7,0.2c0.8,0.2,1.2,0.6,1.2,1.3c0,0.6-0.5,1.3-1.6,1.3c-1.2,0-1.7-0.8-1.8-1.3L43.7,128.6z"/>
				<path class="st2" d="M47.8,123.4c0.3,0,0.6,0.3,0.6,0.6c0,0.3-0.3,0.6-0.6,0.6c-0.3,0-0.6-0.3-0.6-0.6
					C47.2,123.7,47.4,123.4,47.8,123.4z M47.3,130v-4.3h0.8v4.3H47.3z"/>
				<path class="st2" d="M50.1,130c0.1,0.6,0.5,1.1,1.2,1.1c0.9,0,1.3-0.5,1.3-1.4v-0.6c-0.2,0.4-0.7,0.7-1.3,0.7
					c-1.2,0-2-0.9-2-2.1c0-1.2,0.8-2.1,2-2.1c0.7,0,1.1,0.3,1.3,0.7v-0.6h0.8v4c0,1.1-0.5,2.2-2.2,2.2c-1.1,0-1.9-0.7-2-1.6
					L50.1,130z M52.6,127.7c0-0.8-0.5-1.4-1.2-1.4c-0.7,0-1.3,0.5-1.3,1.4c0,0.8,0.5,1.4,1.3,1.4C52.1,129.1,52.6,128.5,52.6,127.7z
					"/>
				<path class="st2" d="M55.6,130h-0.8v-4.3h0.8v0.6c0.3-0.5,0.8-0.7,1.3-0.7c1,0,1.5,0.7,1.5,1.7v2.7h-0.8v-2.6
					c0-0.6-0.3-1.1-1-1.1c-0.7,0-1,0.5-1,1.2V130z"/>
				<path class="st2" d="M60.2,123.4c0.3,0,0.6,0.3,0.6,0.6c0,0.3-0.3,0.6-0.6,0.6c-0.3,0-0.6-0.3-0.6-0.6
					C59.6,123.7,59.8,123.4,60.2,123.4z M59.7,130v-4.3h0.8v4.3H59.7z"/>
				<path class="st2" d="M62.8,130H62v-4.3h0.8v0.6c0.3-0.5,0.8-0.7,1.3-0.7c1,0,1.5,0.7,1.5,1.7v2.7h-0.8v-2.6c0-0.6-0.3-1.1-1-1.1
					c-0.7,0-1,0.5-1,1.2V130z"/>
				<path class="st2" d="M67.5,130c0.1,0.6,0.5,1.1,1.2,1.1c0.9,0,1.3-0.5,1.3-1.4v-0.6c-0.2,0.4-0.7,0.7-1.3,0.7
					c-1.2,0-2-0.9-2-2.1c0-1.2,0.8-2.1,2-2.1c0.7,0,1.1,0.3,1.3,0.7v-0.6h0.8v4c0,1.1-0.5,2.2-2.2,2.2c-1.1,0-1.9-0.7-2-1.6
					L67.5,130z M70,127.7c0-0.8-0.5-1.4-1.2-1.4c-0.7,0-1.3,0.5-1.3,1.4c0,0.8,0.5,1.4,1.3,1.4C69.5,129.1,70,128.5,70,127.7z"/>
				<path class="st2" d="M75.9,130.1c-1,0-1.6-0.8-1.6-1.7v-2.7h0.8v2.6c0,0.6,0.3,1.1,1,1.1c0.7,0,1-0.5,1-1.1v-2.6H78v3.5
					c0,0.3,0,0.6,0,0.8h-0.8c0-0.1,0-0.3,0-0.5C77,129.9,76.4,130.1,75.9,130.1z"/>
				<path class="st2" d="M80.2,130h-0.8v-4.3h0.8v0.6c0.3-0.5,0.8-0.7,1.3-0.7c1,0,1.5,0.7,1.5,1.7v2.7h-0.8v-2.6
					c0-0.6-0.3-1.1-1-1.1c-0.7,0-1,0.5-1,1.2V130z"/>
				<path class="st2" d="M84.9,127.8c0,1,0.6,1.5,1.3,1.5c0.8,0,1.1-0.5,1.2-0.9l0.7,0.3c-0.2,0.6-0.8,1.4-2,1.4
					c-1.3,0-2.2-1-2.2-2.3c0-1.4,0.9-2.3,2.2-2.3c1.2,0,1.7,0.7,1.9,1.4l-0.8,0.3c-0.1-0.4-0.4-0.9-1.2-0.9
					C85.5,126.3,84.9,126.8,84.9,127.8z"/>
				<path class="st2" d="M93.2,127.8c0,1.3-0.9,2.3-2.2,2.3s-2.2-1-2.2-2.3c0-1.3,0.9-2.3,2.2-2.3S93.2,126.5,93.2,127.8z
					 M92.3,127.8c0-1-0.6-1.5-1.4-1.5s-1.4,0.5-1.4,1.5c0,1,0.6,1.5,1.4,1.5S92.3,128.8,92.3,127.8z"/>
				<path class="st2" d="M95,130h-0.8v-4.3H95v0.6c0.3-0.5,0.8-0.7,1.3-0.7c1,0,1.5,0.7,1.5,1.7v2.7h-0.8v-2.6c0-0.6-0.3-1.1-1-1.1
					c-0.7,0-1,0.5-1,1.2V130z"/>
				<path class="st2" d="M101.2,130h-0.9l-1.8-4.3h1l1.2,3.3l1.2-3.3h0.9L101.2,130z"/>
				<path class="st2" d="M107.3,128.8c-0.2,0.8-0.9,1.4-1.9,1.4c-1.2,0-2.2-0.8-2.2-2.3c0-1.4,1-2.3,2.1-2.3c1.3,0,2.1,0.9,2.1,2.3
					c0,0.1,0,0.2,0,0.3h-3.3c0,0.8,0.6,1.3,1.3,1.3c0.7,0,1.1-0.4,1.2-0.9L107.3,128.8z M106.5,127.4c0-0.6-0.4-1.1-1.2-1.1
					c-0.7,0-1.1,0.5-1.2,1.1H106.5z"/>
				<path class="st2" d="M109.2,130h-0.8v-4.3h0.8v0.6c0.3-0.5,0.8-0.7,1.3-0.7c1,0,1.5,0.7,1.5,1.7v2.7h-0.8v-2.6
					c0-0.6-0.3-1.1-1-1.1c-0.7,0-1,0.5-1,1.2V130z"/>
				<path class="st2" d="M114.5,125.7h0.9v0.8h-0.9v2.3c0,0.4,0.2,0.6,0.6,0.6c0.1,0,0.3,0,0.3,0v0.7c-0.1,0-0.3,0.1-0.6,0.1
					c-0.7,0-1.2-0.5-1.2-1.2v-2.4h-0.8v-0.8h0.2c0.5,0,0.7-0.3,0.7-0.7v-0.7h0.8V125.7z"/>
				<path class="st2" d="M117,123.4c0.3,0,0.6,0.3,0.6,0.6c0,0.3-0.3,0.6-0.6,0.6c-0.3,0-0.6-0.3-0.6-0.6
					C116.4,123.7,116.6,123.4,117,123.4z M116.5,130v-4.3h0.8v4.3H116.5z"/>
				<path class="st2" d="M122.8,127.8c0,1.3-0.9,2.3-2.2,2.3c-1.3,0-2.2-1-2.2-2.3c0-1.3,0.9-2.3,2.2-2.3
					C121.9,125.5,122.8,126.5,122.8,127.8z M122,127.8c0-1-0.6-1.5-1.4-1.5c-0.7,0-1.3,0.5-1.3,1.5c0,1,0.6,1.5,1.3,1.5
					C121.3,129.4,122,128.8,122,127.8z"/>
				<path class="st2" d="M124.7,130h-0.8v-4.3h0.8v0.6c0.3-0.5,0.8-0.7,1.3-0.7c1,0,1.5,0.7,1.5,1.7v2.7h-0.8v-2.6
					c0-0.6-0.3-1.1-1-1.1c-0.7,0-1,0.5-1,1.2V130z"/>
				<path class="st2" d="M129.9,127.5l1.2-0.2c0.3,0,0.3-0.2,0.3-0.3c0-0.4-0.3-0.8-0.9-0.8c-0.6,0-0.9,0.4-1,0.9l-0.8-0.2
					c0.1-0.8,0.8-1.4,1.8-1.4c1.3,0,1.8,0.7,1.8,1.6v2.2c0,0.4,0,0.6,0.1,0.7h-0.8c0-0.1,0-0.3,0-0.6c-0.2,0.3-0.6,0.7-1.4,0.7
					c-0.9,0-1.4-0.6-1.4-1.3C128.6,128.1,129.2,127.6,129.9,127.5z M131.4,128.1v-0.2l-1.3,0.2c-0.4,0.1-0.6,0.3-0.6,0.6
					c0,0.3,0.3,0.6,0.7,0.6C130.9,129.4,131.4,129.1,131.4,128.1z"/>
				<path class="st2" d="M133.6,130v-6.5h0.8v6.5H133.6z"/>
				<path class="st2" d="M136.4,128.8c0.4,0,0.7,0.3,0.7,0.9c0,1.2-0.8,1.7-1.3,1.8V131c0.4-0.1,0.7-0.5,0.7-1c0,0-0.1,0-0.2,0
					c-0.3,0-0.6-0.2-0.6-0.6C135.7,129.1,136,128.8,136.4,128.8z"/>
				<path class="st2" d="M144.4,128.8c-0.2,0.8-0.9,1.4-1.9,1.4c-1.2,0-2.2-0.8-2.2-2.3c0-1.4,1-2.3,2.1-2.3c1.3,0,2.1,0.9,2.1,2.3
					c0,0.1,0,0.2,0,0.3h-3.3c0,0.8,0.6,1.3,1.3,1.3c0.7,0,1.1-0.4,1.2-0.9L144.4,128.8z M143.5,127.4c0-0.6-0.4-1.1-1.2-1.1
					c-0.7,0-1.1,0.5-1.2,1.1H143.5z"/>
				<path class="st2" d="M146.4,127.8l-1.6-2.1h1l1.1,1.5l1-1.5h1l-1.5,2.1c0.3,0.4,1.3,1.9,1.6,2.2h-1l-1.1-1.6l-1.1,1.6h-1
					L146.4,127.8z"/>
				<path class="st2" d="M149.8,131.7v-6h0.8v0.7c0.2-0.4,0.7-0.8,1.4-0.8c1.3,0,2,1,2,2.3c0,1.3-0.7,2.3-2,2.3
					c-0.7,0-1.2-0.3-1.4-0.7v2.3H149.8z M151.9,126.3c-0.8,0-1.3,0.6-1.3,1.5c0,0.9,0.5,1.5,1.3,1.5c0.8,0,1.3-0.6,1.3-1.5
					C153.2,127,152.7,126.3,151.9,126.3z"/>
				<path class="st2" d="M157.5,126.5c-0.1,0-0.3,0-0.4,0c-0.7,0-1.2,0.4-1.2,1.3v2.2h-0.8v-4.3h0.8v0.8c0.3-0.7,0.9-0.8,1.3-0.8
					c0.1,0,0.2,0,0.3,0V126.5z"/>
				<path class="st2" d="M162,128.8c-0.2,0.8-0.9,1.4-1.9,1.4c-1.2,0-2.2-0.8-2.2-2.3c0-1.4,1-2.3,2.1-2.3c1.3,0,2.1,0.9,2.1,2.3
					c0,0.1,0,0.2,0,0.3h-3.3c0,0.8,0.6,1.3,1.3,1.3c0.7,0,1.1-0.4,1.2-0.9L162,128.8z M161.2,127.4c0-0.6-0.4-1.1-1.2-1.1
					c-0.7,0-1.1,0.5-1.2,1.1H161.2z"/>
				<path class="st2" d="M163.5,128.6c0.1,0.5,0.4,0.8,1,0.8c0.5,0,0.7-0.3,0.7-0.6c0-0.3-0.2-0.5-0.6-0.6l-0.7-0.2
					c-0.7-0.1-1.1-0.6-1.1-1.2c0-0.7,0.7-1.4,1.5-1.4c1.2,0,1.6,0.8,1.6,1.2l-0.7,0.3c0-0.2-0.2-0.7-0.9-0.7c-0.4,0-0.7,0.3-0.7,0.6
					c0,0.3,0.2,0.5,0.5,0.5l0.7,0.2c0.8,0.2,1.2,0.6,1.2,1.3c0,0.6-0.5,1.3-1.6,1.3c-1.2,0-1.7-0.8-1.8-1.3L163.5,128.6z"/>
				<path class="st2" d="M167.5,128.6c0.1,0.5,0.4,0.8,1,0.8c0.5,0,0.7-0.3,0.7-0.6c0-0.3-0.2-0.5-0.6-0.6l-0.7-0.2
					c-0.7-0.1-1.1-0.6-1.1-1.2c0-0.7,0.7-1.4,1.5-1.4c1.2,0,1.6,0.8,1.6,1.2l-0.7,0.3c0-0.2-0.2-0.7-0.9-0.7c-0.4,0-0.7,0.3-0.7,0.6
					c0,0.3,0.2,0.5,0.5,0.5l0.7,0.2c0.8,0.2,1.2,0.6,1.2,1.3c0,0.6-0.5,1.3-1.6,1.3c-1.2,0-1.7-0.8-1.8-1.3L167.5,128.6z"/>
				<path class="st2" d="M171.6,123.4c0.3,0,0.6,0.3,0.6,0.6c0,0.3-0.3,0.6-0.6,0.6c-0.3,0-0.6-0.3-0.6-0.6
					C171,123.7,171.2,123.4,171.6,123.4z M171.1,130v-4.3h0.8v4.3H171.1z"/>
				<path class="st2" d="M175.4,130h-0.9l-1.8-4.3h1l1.2,3.3l1.2-3.3h0.9L175.4,130z"/>
				<path class="st2" d="M181.5,128.8c-0.2,0.8-0.9,1.4-1.9,1.4c-1.2,0-2.2-0.8-2.2-2.3c0-1.4,1-2.3,2.1-2.3c1.3,0,2.1,0.9,2.1,2.3
					c0,0.1,0,0.2,0,0.3h-3.3c0,0.8,0.6,1.3,1.3,1.3c0.7,0,1.1-0.4,1.2-0.9L181.5,128.8z M180.6,127.4c0-0.6-0.4-1.1-1.2-1.1
					c-0.7,0-1.1,0.5-1.2,1.1H180.6z"/>
			</g>
			<g class="st1">
				<path class="st2" d="M10.7,141v-6.5h0.8v2.8c0.2-0.4,0.7-0.7,1.4-0.7c1.3,0,2,1,2,2.3c0,1.3-0.7,2.3-2,2.3
					c-0.6,0-1.1-0.3-1.4-0.7v0.6H10.7z M12.8,137.3c-0.7,0-1.3,0.6-1.3,1.5s0.5,1.5,1.3,1.5c0.8,0,1.3-0.6,1.3-1.5
					S13.6,137.3,12.8,137.3z"/>
				<path class="st2" d="M17.5,141.1c-1,0-1.6-0.8-1.6-1.7v-2.7h0.8v2.6c0,0.6,0.3,1.1,1,1.1c0.7,0,1-0.5,1-1.1v-2.6h0.8v3.5
					c0,0.3,0,0.6,0,0.8h-0.8c0-0.1,0-0.3,0-0.5C18.6,140.9,18,141.1,17.5,141.1z"/>
				<path class="st2" d="M21.4,134.4c0.3,0,0.6,0.3,0.6,0.6c0,0.3-0.3,0.6-0.6,0.6c-0.3,0-0.6-0.3-0.6-0.6
					C20.8,134.7,21.1,134.4,21.4,134.4z M21,141v-4.3h0.8v4.3H21z"/>
				<path class="st2" d="M23.2,141v-6.5h0.8v6.5H23.2z"/>
				<path class="st2" d="M28.5,140.3c-0.2,0.4-0.7,0.8-1.3,0.8c-1.3,0-2.1-1-2.1-2.3c0-1.2,0.8-2.3,2.1-2.3c0.8,0,1.2,0.4,1.3,0.7
					v-2.8h0.8v5.7c0,0.4,0,0.7,0,0.8h-0.8C28.6,140.9,28.5,140.7,28.5,140.3L28.5,140.3z M27.3,140.4c0.8,0,1.3-0.7,1.3-1.6
					c0-0.9-0.5-1.5-1.2-1.5c-0.8,0-1.3,0.6-1.3,1.5S26.5,140.4,27.3,140.4z"/>
				<path class="st2" d="M31.1,134.4c0.3,0,0.6,0.3,0.6,0.6c0,0.3-0.3,0.6-0.6,0.6c-0.3,0-0.6-0.3-0.6-0.6
					C30.5,134.7,30.8,134.4,31.1,134.4z M30.7,141v-4.3h0.8v4.3H30.7z"/>
				<path class="st2" d="M33.8,141H33v-4.3h0.8v0.6c0.3-0.5,0.8-0.7,1.3-0.7c1,0,1.5,0.7,1.5,1.7v2.7h-0.8v-2.6c0-0.6-0.3-1.1-1-1.1
					c-0.7,0-1,0.5-1,1.2V141z"/>
				<path class="st2" d="M38.5,141c0.1,0.6,0.5,1.1,1.2,1.1c0.9,0,1.3-0.5,1.3-1.4v-0.6c-0.2,0.4-0.7,0.7-1.3,0.7
					c-1.2,0-2-0.9-2-2.1c0-1.2,0.8-2.1,2-2.1c0.7,0,1.1,0.3,1.3,0.7v-0.6h0.8v4c0,1.1-0.5,2.2-2.2,2.2c-1.1,0-1.9-0.7-2-1.6
					L38.5,141z M41,138.7c0-0.8-0.5-1.4-1.2-1.4c-0.7,0-1.3,0.5-1.3,1.4c0,0.8,0.5,1.4,1.3,1.4C40.5,140.1,41,139.5,41,138.7z"/>
				<path class="st2" d="M46.4,138.5l1.2-0.2c0.3,0,0.3-0.2,0.3-0.3c0-0.4-0.3-0.8-0.9-0.8c-0.6,0-0.9,0.4-1,0.9l-0.8-0.2
					c0.1-0.8,0.8-1.4,1.8-1.4c1.3,0,1.8,0.7,1.8,1.6v2.2c0,0.4,0,0.6,0.1,0.7H48c0-0.1,0-0.3,0-0.6c-0.2,0.3-0.6,0.7-1.4,0.7
					c-0.9,0-1.4-0.6-1.4-1.3C45.1,139.1,45.6,138.6,46.4,138.5z M47.9,139.1v-0.2l-1.3,0.2c-0.4,0.1-0.6,0.3-0.6,0.6
					c0,0.3,0.3,0.6,0.7,0.6C47.3,140.4,47.9,140.1,47.9,139.1z"/>
				<path class="st2" d="M50.9,141H50v-4.3h0.8v0.6c0.3-0.5,0.8-0.7,1.3-0.7c1,0,1.5,0.7,1.5,1.7v2.7h-0.8v-2.6c0-0.6-0.3-1.1-1-1.1
					c-0.7,0-1,0.5-1,1.2V141z"/>
				<path class="st2" d="M58.1,140.3c-0.2,0.4-0.7,0.8-1.3,0.8c-1.3,0-2.1-1-2.1-2.3c0-1.2,0.8-2.3,2.1-2.3c0.8,0,1.2,0.4,1.3,0.7
					v-2.8h0.8v5.7c0,0.4,0,0.7,0,0.8h-0.8C58.1,140.9,58.1,140.7,58.1,140.3L58.1,140.3z M56.8,140.4c0.8,0,1.3-0.7,1.3-1.6
					c0-0.9-0.5-1.5-1.2-1.5c-0.8,0-1.3,0.6-1.3,1.5S56,140.4,56.8,140.4z"/>
				<path class="st2" d="M62.8,139.6c0.1,0.5,0.4,0.8,1,0.8c0.5,0,0.7-0.3,0.7-0.6c0-0.3-0.2-0.5-0.6-0.6l-0.7-0.2
					c-0.7-0.1-1.1-0.6-1.1-1.2c0-0.7,0.7-1.4,1.5-1.4c1.2,0,1.6,0.8,1.6,1.2l-0.7,0.3c0-0.2-0.2-0.7-0.9-0.7c-0.4,0-0.7,0.3-0.7,0.6
					c0,0.3,0.2,0.5,0.5,0.5l0.7,0.2c0.8,0.2,1.2,0.6,1.2,1.3c0,0.6-0.5,1.3-1.6,1.3c-1.2,0-1.7-0.8-1.8-1.3L62.8,139.6z"/>
				<path class="st2" d="M67.6,136.7h0.9v0.8h-0.9v2.3c0,0.4,0.2,0.6,0.6,0.6c0.1,0,0.3,0,0.3,0v0.7c-0.1,0-0.3,0.1-0.6,0.1
					c-0.7,0-1.2-0.5-1.2-1.2v-2.4H66v-0.8h0.2c0.5,0,0.7-0.3,0.7-0.7v-0.7h0.8V136.7z"/>
				<path class="st2" d="M72,137.5c-0.1,0-0.3,0-0.4,0c-0.7,0-1.2,0.4-1.2,1.3v2.2h-0.8v-4.3h0.8v0.8c0.3-0.7,0.9-0.8,1.3-0.8
					c0.1,0,0.2,0,0.3,0V137.5z"/>
				<path class="st2" d="M74.4,141.1c-1,0-1.6-0.8-1.6-1.7v-2.7h0.8v2.6c0,0.6,0.3,1.1,1,1.1c0.7,0,1-0.5,1-1.1v-2.6h0.8v3.5
					c0,0.3,0,0.6,0,0.8h-0.8c0-0.1,0-0.3,0-0.5C75.5,140.9,74.9,141.1,74.4,141.1z"/>
				<path class="st2" d="M78.4,138.8c0,1,0.6,1.5,1.3,1.5c0.8,0,1.1-0.5,1.2-0.9l0.7,0.3c-0.2,0.6-0.8,1.4-2,1.4
					c-1.3,0-2.2-1-2.2-2.3c0-1.4,0.9-2.3,2.2-2.3c1.2,0,1.7,0.7,1.9,1.4l-0.8,0.3c-0.1-0.4-0.4-0.9-1.2-0.9
					C79,137.3,78.4,137.8,78.4,138.8z"/>
				<path class="st2" d="M83.7,136.7h0.9v0.8h-0.9v2.3c0,0.4,0.2,0.6,0.6,0.6c0.1,0,0.3,0,0.3,0v0.7c-0.1,0-0.3,0.1-0.6,0.1
					c-0.7,0-1.2-0.5-1.2-1.2v-2.4H82v-0.8h0.2c0.5,0,0.7-0.3,0.7-0.7v-0.7h0.8V136.7z"/>
				<path class="st2" d="M87.3,141.1c-1,0-1.6-0.8-1.6-1.7v-2.7h0.8v2.6c0,0.6,0.3,1.1,1,1.1c0.7,0,1-0.5,1-1.1v-2.6h0.8v3.5
					c0,0.3,0,0.6,0,0.8h-0.8c0-0.1,0-0.3,0-0.5C88.4,140.9,87.8,141.1,87.3,141.1z"/>
				<path class="st2" d="M93.2,137.5c-0.1,0-0.3,0-0.4,0c-0.7,0-1.2,0.4-1.2,1.3v2.2h-0.8v-4.3h0.8v0.8c0.3-0.7,0.9-0.8,1.3-0.8
					c0.1,0,0.2,0,0.3,0V137.5z"/>
				<path class="st2" d="M97.8,139.8c-0.2,0.8-0.9,1.4-1.9,1.4c-1.2,0-2.2-0.8-2.2-2.3c0-1.4,1-2.3,2.1-2.3c1.3,0,2.1,0.9,2.1,2.3
					c0,0.1,0,0.2,0,0.3h-3.3c0,0.8,0.6,1.3,1.3,1.3c0.7,0,1.1-0.4,1.2-0.9L97.8,139.8z M96.9,138.4c0-0.6-0.4-1.1-1.2-1.1
					c-0.7,0-1.1,0.5-1.2,1.1H96.9z"/>
				<path class="st2" d="M99.2,139.6c0.1,0.5,0.4,0.8,1,0.8c0.5,0,0.7-0.3,0.7-0.6c0-0.3-0.2-0.5-0.6-0.6l-0.7-0.2
					c-0.7-0.1-1.1-0.6-1.1-1.2c0-0.7,0.7-1.4,1.5-1.4c1.2,0,1.6,0.8,1.6,1.2L101,138c0-0.2-0.2-0.7-0.9-0.7c-0.4,0-0.7,0.3-0.7,0.6
					c0,0.3,0.2,0.5,0.5,0.5l0.7,0.2c0.8,0.2,1.2,0.6,1.2,1.3c0,0.6-0.5,1.3-1.6,1.3c-1.2,0-1.7-0.8-1.8-1.3L99.2,139.6z"/>
				<path class="st2" d="M106.2,137.4v3.6h-0.9v-3.6h-0.8v-0.8h0.8v-0.7c0-1,0.6-1.5,1.4-1.5c0.3,0,0.5,0.1,0.5,0.1v0.8
					c0,0-0.2-0.1-0.4-0.1c-0.3,0-0.7,0.1-0.7,0.7v0.7h1v0.8H106.2z"/>
				<path class="st2" d="M110.5,137.5c-0.1,0-0.3,0-0.4,0c-0.7,0-1.2,0.4-1.2,1.3v2.2h-0.8v-4.3h0.8v0.8c0.3-0.7,0.9-0.8,1.3-0.8
					c0.1,0,0.2,0,0.3,0V137.5z"/>
				<path class="st2" d="M115.4,138.8c0,1.3-0.9,2.3-2.2,2.3c-1.3,0-2.2-1-2.2-2.3c0-1.3,0.9-2.3,2.2-2.3
					C114.5,136.5,115.4,137.5,115.4,138.8z M114.5,138.8c0-1-0.6-1.5-1.4-1.5c-0.7,0-1.3,0.5-1.3,1.5c0,1,0.6,1.5,1.3,1.5
					C113.9,140.4,114.5,139.8,114.5,138.8z"/>
				<path class="st2" d="M116.4,141v-4.3h0.8v0.6c0.3-0.5,0.8-0.7,1.3-0.7c0.5,0,1.1,0.3,1.3,0.8c0.3-0.6,0.9-0.8,1.4-0.8
					c0.8,0,1.5,0.5,1.5,1.6v2.8h-0.8v-2.7c0-0.6-0.3-1-0.9-1c-0.6,0-1,0.5-1,1.1v2.6h-0.8v-2.7c0-0.6-0.3-1-0.9-1
					c-0.6,0-1,0.5-1,1.1v2.6H116.4z"/>
				<path class="st2" d="M127.4,136.7h0.9v0.8h-0.9v2.3c0,0.4,0.2,0.6,0.6,0.6c0.1,0,0.3,0,0.3,0v0.7c-0.1,0-0.3,0.1-0.6,0.1
					c-0.7,0-1.2-0.5-1.2-1.2v-2.4h-0.8v-0.8h0.2c0.5,0,0.7-0.3,0.7-0.7v-0.7h0.8V136.7z"/>
				<path class="st2" d="M130.3,141h-0.8v-6.5h0.8v2.7c0.3-0.5,0.8-0.6,1.3-0.6c1,0,1.5,0.7,1.5,1.7v2.7h-0.8v-2.6
					c0-0.6-0.3-1.1-1-1.1c-0.6,0-1,0.5-1,1.1V141z"/>
				<path class="st2" d="M138.2,139.8c-0.2,0.8-0.9,1.4-1.9,1.4c-1.2,0-2.2-0.8-2.2-2.3c0-1.4,1-2.3,2.1-2.3c1.3,0,2.1,0.9,2.1,2.3
					c0,0.1,0,0.2,0,0.3H135c0,0.8,0.6,1.3,1.3,1.3c0.7,0,1.1-0.4,1.2-0.9L138.2,139.8z M137.4,138.4c0-0.6-0.4-1.1-1.2-1.1
					c-0.7,0-1.1,0.5-1.2,1.1H137.4z"/>
				<path class="st2" d="M144.4,134.5c1.6,0,3.2,1.2,3.2,3.3s-1.6,3.3-3.2,3.3c-1.6,0-3.2-1.2-3.2-3.3S142.8,134.5,144.4,134.5z
					 M144.4,140.3c1.2,0,2.3-0.9,2.3-2.5c0-1.7-1.1-2.5-2.3-2.5c-1.2,0-2.3,0.8-2.3,2.5C142.1,139.5,143.2,140.3,144.4,140.3z"/>
				<path class="st2" d="M148.7,141v-6.5h0.8v6.5H148.7z"/>
				<path class="st2" d="M151.1,142.8l1.1-2.3l-1.9-3.9h1l1.4,3l1.3-3h0.9l-2.8,6.1H151.1z"/>
				<path class="st2" d="M155.6,141v-4.3h0.8v0.6c0.3-0.5,0.8-0.7,1.3-0.7c0.5,0,1.1,0.3,1.3,0.8c0.3-0.6,0.9-0.8,1.4-0.8
					c0.8,0,1.5,0.5,1.5,1.6v2.8h-0.8v-2.7c0-0.6-0.3-1-0.9-1c-0.6,0-1,0.5-1,1.1v2.6h-0.8v-2.7c0-0.6-0.3-1-0.9-1
					c-0.6,0-1,0.5-1,1.1v2.6H155.6z"/>
				<path class="st2" d="M163.2,142.7v-6h0.8v0.7c0.2-0.4,0.7-0.8,1.4-0.8c1.3,0,2,1,2,2.3c0,1.3-0.7,2.3-2,2.3
					c-0.7,0-1.2-0.3-1.4-0.7v2.3H163.2z M165.3,137.3c-0.8,0-1.3,0.6-1.3,1.5c0,0.9,0.5,1.5,1.3,1.5c0.8,0,1.3-0.6,1.3-1.5
					C166.6,138,166.1,137.3,165.3,137.3z"/>
				<path class="st2" d="M168.9,134.4c0.3,0,0.6,0.3,0.6,0.6c0,0.3-0.3,0.6-0.6,0.6c-0.3,0-0.6-0.3-0.6-0.6
					C168.3,134.7,168.6,134.4,168.9,134.4z M168.5,141v-4.3h0.8v4.3H168.5z"/>
				<path class="st2" d="M171.3,138.8c0,1,0.6,1.5,1.3,1.5c0.8,0,1.1-0.5,1.2-0.9l0.7,0.3c-0.2,0.6-0.8,1.4-2,1.4
					c-1.3,0-2.2-1-2.2-2.3c0-1.4,0.9-2.3,2.2-2.3c1.2,0,1.7,0.7,1.9,1.4l-0.8,0.3c-0.1-0.4-0.4-0.9-1.2-0.9
					C171.9,137.3,171.3,137.8,171.3,138.8z"/>
				<path class="st2" d="M175.8,139.6c0.1,0.5,0.4,0.8,1,0.8c0.5,0,0.7-0.3,0.7-0.6c0-0.3-0.2-0.5-0.6-0.6l-0.7-0.2
					c-0.7-0.1-1.1-0.6-1.1-1.2c0-0.7,0.7-1.4,1.5-1.4c1.2,0,1.6,0.8,1.6,1.2l-0.7,0.3c0-0.2-0.2-0.7-0.9-0.7c-0.4,0-0.7,0.3-0.7,0.6
					c0,0.3,0.2,0.5,0.5,0.5l0.7,0.2c0.8,0.2,1.2,0.6,1.2,1.3c0,0.6-0.5,1.3-1.6,1.3c-1.2,0-1.7-0.8-1.8-1.3L175.8,139.6z"/>
			</g>
			<g class="st1">
				<path class="st2" d="M11.1,150.6c0.1,0.5,0.4,0.8,1,0.8c0.5,0,0.7-0.3,0.7-0.6c0-0.3-0.2-0.5-0.6-0.6l-0.7-0.2
					c-0.7-0.1-1.1-0.6-1.1-1.2c0-0.7,0.7-1.4,1.5-1.4c1.2,0,1.6,0.8,1.6,1.2l-0.7,0.3c0-0.2-0.2-0.7-0.9-0.7c-0.4,0-0.7,0.3-0.7,0.6
					c0,0.3,0.2,0.5,0.5,0.5l0.7,0.2c0.8,0.2,1.2,0.6,1.2,1.3c0,0.6-0.5,1.3-1.6,1.3c-1.2,0-1.7-0.8-1.8-1.3L11.1,150.6z"/>
				<path class="st2" d="M15.9,147.7h0.9v0.8h-0.9v2.3c0,0.4,0.2,0.6,0.6,0.6c0.1,0,0.3,0,0.3,0v0.7c-0.1,0-0.3,0.1-0.6,0.1
					c-0.7,0-1.2-0.5-1.2-1.2v-2.4h-0.8v-0.8h0.2c0.5,0,0.7-0.3,0.7-0.7v-0.7h0.8V147.7z"/>
				<path class="st2" d="M18.9,149.5l1.2-0.2c0.3,0,0.3-0.2,0.3-0.3c0-0.4-0.3-0.8-0.9-0.8c-0.6,0-0.9,0.4-1,0.9l-0.8-0.2
					c0.1-0.8,0.8-1.4,1.8-1.4c1.3,0,1.8,0.7,1.8,1.6v2.2c0,0.4,0,0.6,0.1,0.7h-0.8c0-0.1,0-0.3,0-0.6c-0.2,0.3-0.6,0.7-1.4,0.7
					c-0.9,0-1.4-0.6-1.4-1.3C17.6,150.1,18.2,149.6,18.9,149.5z M20.4,150.1v-0.2l-1.3,0.2c-0.4,0.1-0.6,0.3-0.6,0.6
					c0,0.3,0.3,0.6,0.7,0.6C19.9,151.4,20.4,151.1,20.4,150.1z"/>
				<path class="st2" d="M25.6,151.3c-0.2,0.4-0.7,0.8-1.3,0.8c-1.3,0-2.1-1-2.1-2.3c0-1.2,0.8-2.3,2.1-2.3c0.8,0,1.2,0.4,1.3,0.7
					v-2.8h0.8v5.7c0,0.4,0,0.7,0,0.8h-0.8C25.6,151.9,25.6,151.7,25.6,151.3L25.6,151.3z M24.3,151.4c0.8,0,1.3-0.7,1.3-1.6
					c0-0.9-0.5-1.5-1.2-1.5c-0.8,0-1.3,0.6-1.3,1.5S23.5,151.4,24.3,151.4z"/>
				<path class="st2" d="M28.2,145.4c0.3,0,0.6,0.3,0.6,0.6c0,0.3-0.3,0.6-0.6,0.6c-0.3,0-0.6-0.3-0.6-0.6
					C27.6,145.7,27.9,145.4,28.2,145.4z M27.8,152v-4.3h0.8v4.3H27.8z"/>
				<path class="st2" d="M31.6,152.1c-1,0-1.6-0.8-1.6-1.7v-2.7h0.8v2.6c0,0.6,0.3,1.1,1,1.1c0.7,0,1-0.5,1-1.1v-2.6h0.8v3.5
					c0,0.3,0,0.6,0,0.8h-0.8c0-0.1,0-0.3,0-0.5C32.7,151.9,32.1,152.1,31.6,152.1z"/>
				<path class="st2" d="M35.1,152v-4.3h0.8v0.6c0.3-0.5,0.8-0.7,1.3-0.7c0.5,0,1.1,0.3,1.3,0.8c0.3-0.6,0.9-0.8,1.4-0.8
					c0.8,0,1.5,0.5,1.5,1.6v2.8h-0.8v-2.7c0-0.6-0.3-1-0.9-1c-0.6,0-1,0.5-1,1.1v2.6h-0.8v-2.7c0-0.6-0.3-1-0.9-1
					c-0.6,0-1,0.5-1,1.1v2.6H35.1z"/>
				<path class="st2" d="M45.4,145.4c0.3,0,0.6,0.3,0.6,0.6c0,0.3-0.3,0.6-0.6,0.6c-0.3,0-0.6-0.3-0.6-0.6
					C44.8,145.7,45,145.4,45.4,145.4z M45,152v-4.3h0.8v4.3H45z"/>
				<path class="st2" d="M48,152h-0.8v-4.3H48v0.6c0.3-0.5,0.8-0.7,1.3-0.7c1,0,1.5,0.7,1.5,1.7v2.7h-0.8v-2.6c0-0.6-0.3-1.1-1-1.1
					c-0.7,0-1,0.5-1,1.2V152z"/>
				<path class="st2" d="M56.8,146.4v5.6h-0.9v-5.6h-2.1v-0.8h5.1v0.8H56.8z"/>
				<path class="st2" d="M62.9,149.8c0,1.3-0.9,2.3-2.2,2.3s-2.2-1-2.2-2.3c0-1.3,0.9-2.3,2.2-2.3S62.9,148.5,62.9,149.8z M62,149.8
					c0-1-0.6-1.5-1.4-1.5s-1.4,0.5-1.4,1.5c0,1,0.6,1.5,1.4,1.5S62,150.8,62,149.8z"/>
				<path class="st2" d="M66,149.5l1.9,2.5h-1.1l-1.4-1.9l-0.6,0.6v1.3h-0.8v-6.5h0.8v4.1l1.9-1.9h1.2L66,149.5z"/>
				<path class="st2" d="M68.8,153.8l1.1-2.3l-1.9-3.9h1l1.4,3l1.3-3h0.9l-2.8,6.1H68.8z"/>
				<path class="st2" d="M77.2,149.8c0,1.3-0.9,2.3-2.2,2.3s-2.2-1-2.2-2.3c0-1.3,0.9-2.3,2.2-2.3S77.2,148.5,77.2,149.8z
					 M76.3,149.8c0-1-0.6-1.5-1.4-1.5s-1.4,0.5-1.4,1.5c0,1,0.6,1.5,1.4,1.5S76.3,150.8,76.3,149.8z"/>
				<path class="st2" d="M81.5,147.7h0.9v0.8h-0.9v2.3c0,0.4,0.2,0.6,0.6,0.6c0.1,0,0.3,0,0.3,0v0.7c-0.1,0-0.3,0.1-0.6,0.1
					c-0.7,0-1.2-0.5-1.2-1.2v-2.4h-0.8v-0.8h0.2c0.5,0,0.7-0.3,0.7-0.7v-0.7h0.8V147.7z"/>
				<path class="st2" d="M87.6,149.8c0,1.3-0.9,2.3-2.2,2.3s-2.2-1-2.2-2.3c0-1.3,0.9-2.3,2.2-2.3S87.6,148.5,87.6,149.8z
					 M86.7,149.8c0-1-0.6-1.5-1.4-1.5s-1.4,0.5-1.4,1.5c0,1,0.6,1.5,1.4,1.5S86.7,150.8,86.7,149.8z"/>
				<path class="st2" d="M92,147.7h0.9v0.8H92v2.3c0,0.4,0.2,0.6,0.6,0.6c0.1,0,0.3,0,0.3,0v0.7c-0.1,0-0.3,0.1-0.6,0.1
					c-0.7,0-1.2-0.5-1.2-1.2v-2.4h-0.8v-0.8h0.2c0.5,0,0.7-0.3,0.7-0.7v-0.7H92V147.7z"/>
				<path class="st2" d="M94.8,152H94v-6.5h0.8v2.7c0.3-0.5,0.8-0.6,1.3-0.6c1,0,1.5,0.7,1.5,1.7v2.7h-0.8v-2.6c0-0.6-0.3-1.1-1-1.1
					c-0.6,0-1,0.5-1,1.1V152z"/>
				<path class="st2" d="M102.8,150.8c-0.2,0.8-0.9,1.4-1.9,1.4c-1.2,0-2.2-0.8-2.2-2.3c0-1.4,1-2.3,2.1-2.3c1.3,0,2.1,0.9,2.1,2.3
					c0,0.1,0,0.2,0,0.3h-3.3c0,0.8,0.6,1.3,1.3,1.3c0.7,0,1.1-0.4,1.2-0.9L102.8,150.8z M101.9,149.4c0-0.6-0.4-1.1-1.2-1.1
					c-0.7,0-1.1,0.5-1.2,1.1H101.9z"/>
				<path class="st2" d="M108,149.4h-1v2.6h-0.9v-6.4h2.4c1.2,0,2,0.8,2,1.9c0,0.9-0.6,1.6-1.5,1.8l1.5,2.7h-1L108,149.4z
					 M108.4,148.6c0.7,0,1.2-0.4,1.2-1.1c0-0.7-0.5-1.1-1.2-1.1H107v2.2H108.4z"/>
				<path class="st2" d="M115.4,149.8c0,1.3-0.9,2.3-2.2,2.3c-1.3,0-2.2-1-2.2-2.3c0-1.3,0.9-2.3,2.2-2.3
					C114.5,147.5,115.4,148.5,115.4,149.8z M114.6,149.8c0-1-0.6-1.5-1.4-1.5c-0.7,0-1.3,0.5-1.3,1.5c0,1,0.6,1.5,1.3,1.5
					C113.9,151.4,114.6,150.8,114.6,149.8z"/>
				<path class="st2" d="M116.8,150.6c0.1,0.5,0.4,0.8,1,0.8c0.5,0,0.7-0.3,0.7-0.6c0-0.3-0.2-0.5-0.6-0.6l-0.7-0.2
					c-0.7-0.1-1.1-0.6-1.1-1.2c0-0.7,0.7-1.4,1.5-1.4c1.2,0,1.6,0.8,1.6,1.2l-0.7,0.3c0-0.2-0.2-0.7-0.9-0.7c-0.4,0-0.7,0.3-0.7,0.6
					c0,0.3,0.2,0.5,0.5,0.5l0.7,0.2c0.8,0.2,1.2,0.6,1.2,1.3c0,0.6-0.5,1.3-1.6,1.3c-1.2,0-1.7-0.8-1.8-1.3L116.8,150.6z"/>
				<path class="st2" d="M124.2,150.8c-0.2,0.8-0.9,1.4-1.9,1.4c-1.2,0-2.2-0.8-2.2-2.3c0-1.4,1-2.3,2.1-2.3c1.3,0,2.1,0.9,2.1,2.3
					c0,0.1,0,0.2,0,0.3H121c0,0.8,0.6,1.3,1.3,1.3c0.7,0,1.1-0.4,1.2-0.9L124.2,150.8z M123.4,149.4c0-0.6-0.4-1.1-1.2-1.1
					c-0.7,0-1.1,0.5-1.2,1.1H123.4z"/>
				<path class="st2" d="M126.1,152h-0.8v-4.3h0.8v0.6c0.3-0.5,0.8-0.7,1.3-0.7c1,0,1.5,0.7,1.5,1.7v2.7h-0.8v-2.6
					c0-0.6-0.3-1.1-1-1.1c-0.7,0-1,0.5-1,1.2V152z"/>
				<path class="st2" d="M131.4,147.7h0.9v0.8h-0.9v2.3c0,0.4,0.2,0.6,0.6,0.6c0.1,0,0.3,0,0.3,0v0.7c-0.1,0-0.3,0.1-0.6,0.1
					c-0.7,0-1.2-0.5-1.2-1.2v-2.4h-0.8v-0.8h0.2c0.5,0,0.7-0.3,0.7-0.7v-0.7h0.8V147.7z"/>
				<path class="st2" d="M134.3,152h-0.8v-6.5h0.8v2.7c0.3-0.5,0.8-0.6,1.3-0.6c1,0,1.5,0.7,1.5,1.7v2.7h-0.8v-2.6
					c0-0.6-0.3-1.1-1-1.1c-0.6,0-1,0.5-1,1.1V152z"/>
				<path class="st2" d="M139.5,149.5l1.2-0.2c0.3,0,0.3-0.2,0.3-0.3c0-0.4-0.3-0.8-0.9-0.8c-0.6,0-0.9,0.4-1,0.9l-0.8-0.2
					c0.1-0.8,0.8-1.4,1.8-1.4c1.3,0,1.8,0.7,1.8,1.6v2.2c0,0.4,0,0.6,0.1,0.7h-0.8c0-0.1,0-0.3,0-0.6c-0.2,0.3-0.6,0.7-1.4,0.7
					c-0.9,0-1.4-0.6-1.4-1.3C138.2,150.1,138.8,149.6,139.5,149.5z M141,150.1v-0.2l-1.3,0.2c-0.4,0.1-0.6,0.3-0.6,0.6
					c0,0.3,0.3,0.6,0.7,0.6C140.4,151.4,141,151.1,141,150.1z"/>
				<path class="st2" d="M143.1,152v-6.5h0.8v6.5H143.1z"/>
				<path class="st2" d="M147.2,148.8c0-2.1,1.6-3.3,3.2-3.3c1.5,0,2.5,0.8,2.8,2l-0.8,0.3c-0.2-1-0.9-1.5-2-1.5
					c-1.2,0-2.3,0.8-2.3,2.5c0,1.7,1.1,2.5,2.3,2.5c1.1,0,1.8-0.7,2-1.5l0.8,0.3c-0.3,1.2-1.4,2.1-2.8,2.1
					C148.8,152.1,147.2,150.9,147.2,148.8z"/>
				<path class="st2" d="M157.9,150.8c-0.2,0.8-0.9,1.4-1.9,1.4c-1.2,0-2.2-0.8-2.2-2.3c0-1.4,1-2.3,2.1-2.3c1.3,0,2.1,0.9,2.1,2.3
					c0,0.1,0,0.2,0,0.3h-3.3c0,0.8,0.6,1.3,1.3,1.3c0.7,0,1.1-0.4,1.2-0.9L157.9,150.8z M157,149.4c0-0.6-0.4-1.1-1.2-1.1
					c-0.7,0-1.1,0.5-1.2,1.1H157z"/>
				<path class="st2" d="M159.8,152h-0.8v-4.3h0.8v0.6c0.3-0.5,0.8-0.7,1.3-0.7c1,0,1.5,0.7,1.5,1.7v2.7h-0.8v-2.6
					c0-0.6-0.3-1.1-1-1.1c-0.7,0-1,0.5-1,1.2V152z"/>
				<path class="st2" d="M165.1,147.7h0.9v0.8h-0.9v2.3c0,0.4,0.2,0.6,0.6,0.6c0.1,0,0.3,0,0.3,0v0.7c-0.1,0-0.3,0.1-0.6,0.1
					c-0.7,0-1.2-0.5-1.2-1.2v-2.4h-0.8v-0.8h0.2c0.5,0,0.7-0.3,0.7-0.7v-0.7h0.8V147.7z"/>
				<path class="st2" d="M170.8,150.8c-0.2,0.8-0.9,1.4-1.9,1.4c-1.2,0-2.2-0.8-2.2-2.3c0-1.4,1-2.3,2.1-2.3c1.3,0,2.1,0.9,2.1,2.3
					c0,0.1,0,0.2,0,0.3h-3.3c0,0.8,0.6,1.3,1.3,1.3c0.7,0,1.1-0.4,1.2-0.9L170.8,150.8z M170,149.4c0-0.6-0.4-1.1-1.2-1.1
					c-0.7,0-1.1,0.5-1.2,1.1H170z"/>
				<path class="st2" d="M174.3,148.5c-0.1,0-0.3,0-0.4,0c-0.7,0-1.2,0.4-1.2,1.3v2.2h-0.8v-4.3h0.8v0.8c0.3-0.7,0.9-0.8,1.3-0.8
					c0.1,0,0.2,0,0.3,0V148.5z"/>
			</g>
			<g class="st1">
				<path class="st2" d="M11.9,159.4v3.6H11v-3.6h-0.8v-0.8H11v-0.7c0-1,0.6-1.5,1.4-1.5c0.3,0,0.5,0.1,0.5,0.1v0.8
					c0,0-0.2-0.1-0.4-0.1c-0.3,0-0.7,0.1-0.7,0.7v0.7h1v0.8H11.9z"/>
				<path class="st2" d="M17.7,160.8c0,1.3-0.9,2.3-2.2,2.3s-2.2-1-2.2-2.3c0-1.3,0.9-2.3,2.2-2.3S17.7,159.5,17.7,160.8z
					 M16.8,160.8c0-1-0.6-1.5-1.4-1.5s-1.4,0.5-1.4,1.5c0,1,0.6,1.5,1.4,1.5S16.8,161.8,16.8,160.8z"/>
				<path class="st2" d="M21.1,159.5c-0.1,0-0.3,0-0.4,0c-0.7,0-1.2,0.4-1.2,1.3v2.2h-0.8v-4.3h0.8v0.8c0.3-0.7,0.9-0.8,1.3-0.8
					c0.1,0,0.2,0,0.3,0V159.5z"/>
				<path class="st2" d="M23.8,159.8c0-2.1,1.6-3.3,3.2-3.3c1.5,0,2.5,0.8,2.8,2l-0.8,0.3c-0.2-1-0.9-1.5-2-1.5
					c-1.2,0-2.3,0.8-2.3,2.5c0,1.7,1.1,2.5,2.3,2.5c1.1,0,1.8-0.7,2-1.5l0.8,0.3c-0.3,1.2-1.4,2.1-2.8,2.1
					C25.4,163.1,23.8,161.9,23.8,159.8z"/>
				<path class="st2" d="M34.7,160.8c0,1.3-0.9,2.3-2.2,2.3s-2.2-1-2.2-2.3c0-1.3,0.9-2.3,2.2-2.3S34.7,159.5,34.7,160.8z
					 M33.9,160.8c0-1-0.6-1.5-1.4-1.5s-1.4,0.5-1.4,1.5c0,1,0.6,1.5,1.4,1.5S33.9,161.8,33.9,160.8z"/>
				<path class="st2" d="M36.6,163h-0.8v-4.3h0.8v0.6c0.3-0.5,0.8-0.7,1.3-0.7c1,0,1.5,0.7,1.5,1.7v2.7h-0.8v-2.6
					c0-0.6-0.3-1.1-1-1.1c-0.7,0-1,0.5-1,1.2V163z"/>
				<path class="st2" d="M41.9,158.7h0.9v0.8h-0.9v2.3c0,0.4,0.2,0.6,0.6,0.6c0.1,0,0.3,0,0.3,0v0.7c-0.1,0-0.3,0.1-0.6,0.1
					c-0.7,0-1.2-0.5-1.2-1.2v-2.4h-0.8v-0.8h0.2c0.5,0,0.7-0.3,0.7-0.7v-0.7h0.8V158.7z"/>
				<path class="st2" d="M47.7,161.8c-0.2,0.8-0.9,1.4-1.9,1.4c-1.2,0-2.2-0.8-2.2-2.3c0-1.4,1-2.3,2.1-2.3c1.3,0,2.1,0.9,2.1,2.3
					c0,0.1,0,0.2,0,0.3h-3.3c0,0.8,0.6,1.3,1.3,1.3c0.7,0,1.1-0.4,1.2-0.9L47.7,161.8z M46.8,160.4c0-0.6-0.4-1.1-1.2-1.1
					c-0.7,0-1.1,0.5-1.2,1.1H46.8z"/>
				<path class="st2" d="M48.7,163v-4.3h0.8v0.6c0.3-0.5,0.8-0.7,1.3-0.7c0.5,0,1.1,0.3,1.3,0.8c0.3-0.6,0.9-0.8,1.4-0.8
					c0.8,0,1.5,0.5,1.5,1.6v2.8h-0.8v-2.7c0-0.6-0.3-1-0.9-1c-0.6,0-1,0.5-1,1.1v2.6h-0.8v-2.7c0-0.6-0.3-1-0.9-1
					c-0.6,0-1,0.5-1,1.1v2.6H48.7z"/>
				<path class="st2" d="M56.4,164.7v-6h0.8v0.7c0.2-0.4,0.7-0.8,1.4-0.8c1.3,0,2,1,2,2.3c0,1.3-0.7,2.3-2,2.3
					c-0.7,0-1.2-0.3-1.4-0.7v2.3H56.4z M58.5,159.3c-0.8,0-1.3,0.6-1.3,1.5c0,0.9,0.5,1.5,1.3,1.5c0.8,0,1.3-0.6,1.3-1.5
					C59.8,160,59.3,159.3,58.5,159.3z"/>
				<path class="st2" d="M65.8,160.8c0,1.3-0.9,2.3-2.2,2.3s-2.2-1-2.2-2.3c0-1.3,0.9-2.3,2.2-2.3S65.8,159.5,65.8,160.8z
					 M64.9,160.8c0-1-0.6-1.5-1.4-1.5s-1.4,0.5-1.4,1.5c0,1,0.6,1.5,1.4,1.5S64.9,161.8,64.9,160.8z"/>
				<path class="st2" d="M69.2,159.5c-0.1,0-0.3,0-0.4,0c-0.7,0-1.2,0.4-1.2,1.3v2.2h-0.8v-4.3h0.8v0.8c0.3-0.7,0.9-0.8,1.3-0.8
					c0.1,0,0.2,0,0.3,0V159.5z"/>
				<path class="st2" d="M71.1,160.5l1.2-0.2c0.3,0,0.3-0.2,0.3-0.3c0-0.4-0.3-0.8-0.9-0.8c-0.6,0-0.9,0.4-1,0.9l-0.8-0.2
					c0.1-0.8,0.8-1.4,1.8-1.4c1.3,0,1.8,0.7,1.8,1.6v2.2c0,0.4,0,0.6,0.1,0.7h-0.8c0-0.1,0-0.3,0-0.6c-0.2,0.3-0.6,0.7-1.4,0.7
					c-0.9,0-1.4-0.6-1.4-1.3C69.8,161.1,70.3,160.6,71.1,160.5z M72.6,161.1v-0.2l-1.3,0.2c-0.4,0.1-0.6,0.3-0.6,0.6
					c0,0.3,0.3,0.6,0.7,0.6C72,162.4,72.6,162.1,72.6,161.1z"/>
				<path class="st2" d="M77.1,159.5c-0.1,0-0.3,0-0.4,0c-0.7,0-1.2,0.4-1.2,1.3v2.2h-0.8v-4.3h0.8v0.8c0.3-0.7,0.9-0.8,1.3-0.8
					c0.1,0,0.2,0,0.3,0V159.5z"/>
				<path class="st2" d="M78.3,164.8l1.1-2.3l-1.9-3.9h1l1.4,3l1.3-3H82l-2.8,6.1H78.3z"/>
				<path class="st2" d="M88.8,161.2H86l-0.7,1.8h-0.9l2.5-6.4h1l2.5,6.4h-1L88.8,161.2z M86.3,160.4h2.2l-1.1-2.9L86.3,160.4z"/>
				<path class="st2" d="M93.6,159.5c-0.1,0-0.3,0-0.4,0c-0.7,0-1.2,0.4-1.2,1.3v2.2h-0.8v-4.3H92v0.8c0.3-0.7,0.9-0.8,1.3-0.8
					c0.1,0,0.2,0,0.3,0V159.5z"/>
				<path class="st2" d="M95.8,158.7h0.9v0.8h-0.9v2.3c0,0.4,0.2,0.6,0.6,0.6c0.1,0,0.3,0,0.3,0v0.7c-0.1,0-0.3,0.1-0.6,0.1
					c-0.7,0-1.2-0.5-1.2-1.2v-2.4h-0.8v-0.8h0.2c0.5,0,0.7-0.3,0.7-0.7v-0.7h0.8V158.7z"/>
				<path class="st2" d="M100.4,156.4c0.3,0,0.6,0.3,0.6,0.6c0,0.3-0.3,0.6-0.6,0.6c-0.3,0-0.6-0.3-0.6-0.6
					C99.8,156.7,100.1,156.4,100.4,156.4z M100,163v-4.3h0.8v4.3H100z"/>
				<path class="st2" d="M103.1,163h-0.8v-4.3h0.8v0.6c0.3-0.5,0.8-0.7,1.3-0.7c1,0,1.5,0.7,1.5,1.7v2.7h-0.8v-2.6
					c0-0.6-0.3-1.1-1-1.1c-0.7,0-1,0.5-1,1.2V163z"/>
				<path class="st2" d="M109.1,159.8c0-2.1,1.6-3.3,3.2-3.3c1.5,0,2.5,0.8,2.8,2l-0.8,0.3c-0.2-1-0.9-1.5-2-1.5
					c-1.2,0-2.3,0.8-2.3,2.5c0,1.7,1.1,2.5,2.3,2.5c1.1,0,1.8-0.7,2-1.5l0.8,0.3c-0.3,1.2-1.3,2.1-2.8,2.1
					C110.6,163.1,109.1,161.9,109.1,159.8z"/>
				<path class="st2" d="M116.6,156.4c0.3,0,0.6,0.3,0.6,0.6c0,0.3-0.3,0.6-0.6,0.6c-0.3,0-0.6-0.3-0.6-0.6
					C116,156.7,116.2,156.4,116.6,156.4z M116.1,163v-4.3h0.8v4.3H116.1z"/>
				<path class="st2" d="M119.2,163h-0.8v-4.3h0.8v0.6c0.3-0.5,0.8-0.7,1.3-0.7c1,0,1.5,0.7,1.5,1.7v2.7h-0.8v-2.6
					c0-0.6-0.3-1.1-1-1.1c-0.7,0-1,0.5-1,1.2V163z"/>
				<path class="st2" d="M123.9,160.8c0,1,0.6,1.5,1.3,1.5c0.8,0,1.1-0.5,1.2-0.9l0.7,0.3c-0.2,0.6-0.8,1.4-2,1.4
					c-1.3,0-2.2-1-2.2-2.3c0-1.4,0.9-2.3,2.2-2.3c1.2,0,1.7,0.7,1.9,1.4l-0.8,0.3c-0.1-0.4-0.4-0.9-1.2-0.9
					C124.5,159.3,123.9,159.8,123.9,160.8z"/>
				<path class="st2" d="M128.5,156.4c0.3,0,0.6,0.3,0.6,0.6c0,0.3-0.3,0.6-0.6,0.6c-0.3,0-0.6-0.3-0.6-0.6
					C127.9,156.7,128.2,156.4,128.5,156.4z M128.1,163v-4.3h0.8v4.3H128.1z"/>
				<path class="st2" d="M131.2,163h-0.8v-4.3h0.8v0.6c0.3-0.5,0.8-0.7,1.3-0.7c1,0,1.5,0.7,1.5,1.7v2.7h-0.8v-2.6
					c0-0.6-0.3-1.1-1-1.1c-0.7,0-1,0.5-1,1.2V163z"/>
				<path class="st2" d="M136.2,163h-0.8v-4.3h0.8v0.6c0.3-0.5,0.8-0.7,1.3-0.7c1,0,1.5,0.7,1.5,1.7v2.7h-0.8v-2.6
					c0-0.6-0.3-1.1-1-1.1c-0.7,0-1,0.5-1,1.2V163z"/>
				<path class="st2" d="M141.4,160.5l1.2-0.2c0.3,0,0.3-0.2,0.3-0.3c0-0.4-0.3-0.8-0.9-0.8c-0.6,0-0.9,0.4-1,0.9l-0.8-0.2
					c0.1-0.8,0.8-1.4,1.8-1.4c1.3,0,1.8,0.7,1.8,1.6v2.2c0,0.4,0,0.6,0.1,0.7H143c0-0.1,0-0.3,0-0.6c-0.2,0.3-0.6,0.7-1.4,0.7
					c-0.9,0-1.4-0.6-1.4-1.3C140.1,161.1,140.7,160.6,141.4,160.5z M142.9,161.1v-0.2l-1.3,0.2c-0.4,0.1-0.6,0.3-0.6,0.6
					c0,0.3,0.3,0.6,0.7,0.6C142.4,162.4,142.9,162.1,142.9,161.1z"/>
				<path class="st2" d="M146.2,158.7h0.9v0.8h-0.9v2.3c0,0.4,0.2,0.6,0.6,0.6c0.1,0,0.3,0,0.3,0v0.7c-0.1,0-0.3,0.1-0.6,0.1
					c-0.7,0-1.2-0.5-1.2-1.2v-2.4h-0.8v-0.8h0.2c0.5,0,0.7-0.3,0.7-0.7v-0.7h0.8V158.7z"/>
				<path class="st2" d="M148.6,156.4c0.3,0,0.6,0.3,0.6,0.6c0,0.3-0.3,0.6-0.6,0.6c-0.3,0-0.6-0.3-0.6-0.6
					C148,156.7,148.3,156.4,148.6,156.4z M148.2,163v-4.3h0.8v4.3H148.2z"/>
				<path class="st2" d="M150.9,161.8c0.4,0,0.6,0.3,0.6,0.6s-0.3,0.6-0.6,0.6c-0.4,0-0.6-0.3-0.6-0.6S150.6,161.8,150.9,161.8z"/>
				<path class="st2" d="M159.3,163v-2.8h-3.3v2.8h-0.9v-6.4h0.9v2.7h3.3v-2.7h0.9v6.4H159.3z"/>
				<path class="st2" d="M162.7,160.5l1.2-0.2c0.3,0,0.3-0.2,0.3-0.3c0-0.4-0.3-0.8-0.9-0.8c-0.6,0-0.9,0.4-1,0.9l-0.8-0.2
					c0.1-0.8,0.8-1.4,1.8-1.4c1.3,0,1.8,0.7,1.8,1.6v2.2c0,0.4,0,0.6,0.1,0.7h-0.8c0-0.1,0-0.3,0-0.6c-0.2,0.3-0.6,0.7-1.4,0.7
					c-0.9,0-1.4-0.6-1.4-1.3C161.4,161.1,161.9,160.6,162.7,160.5z M164.2,161.1v-0.2l-1.3,0.2c-0.4,0.1-0.6,0.3-0.6,0.6
					c0,0.3,0.3,0.6,0.7,0.6C163.6,162.4,164.2,162.1,164.2,161.1z"/>
				<path class="st2" d="M169.3,162.3c-0.2,0.4-0.7,0.8-1.3,0.8c-1.3,0-2.1-1-2.1-2.3c0-1.2,0.8-2.3,2.1-2.3c0.8,0,1.2,0.4,1.3,0.7
					v-2.8h0.8v5.7c0,0.4,0,0.7,0,0.8h-0.8C169.4,162.9,169.3,162.7,169.3,162.3L169.3,162.3z M168.1,162.4c0.8,0,1.3-0.7,1.3-1.6
					c0-0.9-0.5-1.5-1.2-1.5c-0.8,0-1.3,0.6-1.3,1.5S167.3,162.4,168.1,162.4z"/>
				<path class="st2" d="M172,156.4c0.3,0,0.6,0.3,0.6,0.6c0,0.3-0.3,0.6-0.6,0.6c-0.3,0-0.6-0.3-0.6-0.6
					C171.4,156.7,171.6,156.4,172,156.4z M171.5,163v-4.3h0.8v4.3H171.5z"/>
				<path class="st2" d="M176.8,162.3c-0.2,0.4-0.7,0.8-1.3,0.8c-1.3,0-2.1-1-2.1-2.3c0-1.2,0.8-2.3,2.1-2.3c0.8,0,1.2,0.4,1.3,0.7
					v-2.8h0.8v5.7c0,0.4,0,0.7,0,0.8h-0.8C176.8,162.9,176.8,162.7,176.8,162.3L176.8,162.3z M175.6,162.4c0.8,0,1.3-0.7,1.3-1.6
					c0-0.9-0.5-1.5-1.2-1.5c-0.8,0-1.3,0.6-1.3,1.5S174.7,162.4,175.6,162.4z"/>
			</g>
			<g class="st1">
				<path class="st2" d="M10.7,174v-6.5h0.8v2.8c0.2-0.4,0.7-0.7,1.4-0.7c1.3,0,2,1,2,2.3c0,1.3-0.7,2.3-2,2.3
					c-0.6,0-1.1-0.3-1.4-0.7v0.6H10.7z M12.8,170.3c-0.7,0-1.3,0.6-1.3,1.5s0.5,1.5,1.3,1.5c0.8,0,1.3-0.6,1.3-1.5
					S13.6,170.3,12.8,170.3z"/>
				<path class="st2" d="M19.8,172.8c-0.2,0.8-0.9,1.4-1.9,1.4c-1.2,0-2.2-0.8-2.2-2.3c0-1.4,1-2.3,2.1-2.3c1.3,0,2.1,0.9,2.1,2.3
					c0,0.1,0,0.2,0,0.3h-3.3c0,0.8,0.6,1.3,1.3,1.3c0.7,0,1.1-0.4,1.2-0.9L19.8,172.8z M18.9,171.4c0-0.6-0.4-1.1-1.2-1.1
					c-0.7,0-1.1,0.5-1.2,1.1H18.9z"/>
				<path class="st2" d="M21.3,171.8c0,1,0.6,1.5,1.3,1.5c0.8,0,1.1-0.5,1.2-0.9l0.7,0.3c-0.2,0.6-0.8,1.4-2,1.4
					c-1.3,0-2.2-1-2.2-2.3c0-1.4,0.9-2.3,2.2-2.3c1.2,0,1.7,0.7,1.9,1.4l-0.8,0.3c-0.1-0.4-0.4-0.9-1.2-0.9
					C22,170.3,21.3,170.8,21.3,171.8z"/>
				<path class="st2" d="M26.6,171.5l1.2-0.2c0.3,0,0.3-0.2,0.3-0.3c0-0.4-0.3-0.8-0.9-0.8c-0.6,0-0.9,0.4-1,0.9l-0.8-0.2
					c0.1-0.8,0.8-1.4,1.8-1.4c1.3,0,1.8,0.7,1.8,1.6v2.2c0,0.4,0,0.6,0.1,0.7h-0.8c0-0.1,0-0.3,0-0.6c-0.2,0.3-0.6,0.7-1.4,0.7
					c-0.9,0-1.4-0.6-1.4-1.3C25.3,172.1,25.8,171.6,26.6,171.5z M28.1,172.1v-0.2l-1.3,0.2c-0.4,0.1-0.6,0.3-0.6,0.6
					c0,0.3,0.3,0.6,0.7,0.6C27.5,173.4,28.1,173.1,28.1,172.1z"/>
				<path class="st2" d="M30.2,174v-4.3H31v0.6c0.3-0.5,0.8-0.7,1.3-0.7c0.5,0,1.1,0.3,1.3,0.8c0.3-0.6,0.9-0.8,1.4-0.8
					c0.8,0,1.5,0.5,1.5,1.6v2.8h-0.8v-2.7c0-0.6-0.3-1-0.9-1c-0.6,0-1,0.5-1,1.1v2.6H33v-2.7c0-0.6-0.3-1-0.9-1c-0.6,0-1,0.5-1,1.1
					v2.6H30.2z"/>
				<path class="st2" d="M41.6,172.8c-0.2,0.8-0.9,1.4-1.9,1.4c-1.2,0-2.2-0.8-2.2-2.3c0-1.4,1-2.3,2.1-2.3c1.3,0,2.1,0.9,2.1,2.3
					c0,0.1,0,0.2,0,0.3h-3.3c0,0.8,0.6,1.3,1.3,1.3c0.7,0,1.1-0.4,1.2-0.9L41.6,172.8z M40.8,171.4c0-0.6-0.4-1.1-1.2-1.1
					c-0.7,0-1.1,0.5-1.2,1.1H40.8z"/>
				<path class="st2" d="M46,169.7H47v0.8H46v2.3c0,0.4,0.2,0.6,0.6,0.6c0.1,0,0.3,0,0.3,0v0.7c-0.1,0-0.3,0.1-0.6,0.1
					c-0.7,0-1.2-0.5-1.2-1.2v-2.4h-0.8v-0.8h0.2c0.5,0,0.7-0.3,0.7-0.7v-0.7H46V169.7z"/>
				<path class="st2" d="M48.9,174H48v-6.5h0.8v2.7c0.3-0.5,0.8-0.6,1.3-0.6c1,0,1.5,0.7,1.5,1.7v2.7h-0.8v-2.6c0-0.6-0.3-1.1-1-1.1
					c-0.6,0-1,0.5-1,1.1V174z"/>
				<path class="st2" d="M56.8,172.8c-0.2,0.8-0.9,1.4-1.9,1.4c-1.2,0-2.2-0.8-2.2-2.3c0-1.4,1-2.3,2.1-2.3c1.3,0,2.1,0.9,2.1,2.3
					c0,0.1,0,0.2,0,0.3h-3.3c0,0.8,0.6,1.3,1.3,1.3c0.7,0,1.1-0.4,1.2-0.9L56.8,172.8z M56,171.4c0-0.6-0.4-1.1-1.2-1.1
					c-0.7,0-1.1,0.5-1.2,1.1H56z"/>
				<path class="st2" d="M62.3,167.5v0.8c0,0-0.2-0.1-0.4-0.1c-0.3,0-0.7,0.1-0.7,0.7v0.7h2.9v4.3h-0.8v-3.6h-2v3.6h-0.9v-3.6h-0.8
					v-0.8h0.8v-0.7c0-1,0.6-1.5,1.4-1.5C62.1,167.5,62.2,167.5,62.3,167.5z M63.7,167.4c0.3,0,0.6,0.3,0.6,0.6
					c0,0.3-0.3,0.6-0.6,0.6c-0.3,0-0.6-0.3-0.6-0.6C63.1,167.7,63.3,167.4,63.7,167.4z"/>
				<path class="st2" d="M67.9,170.5c-0.1,0-0.3,0-0.4,0c-0.7,0-1.2,0.4-1.2,1.3v2.2h-0.8v-4.3h0.8v0.8c0.3-0.7,0.9-0.8,1.3-0.8
					c0.1,0,0.2,0,0.3,0V170.5z"/>
				<path class="st2" d="M69.1,172.6c0.1,0.5,0.4,0.8,1,0.8c0.5,0,0.7-0.3,0.7-0.6c0-0.3-0.2-0.5-0.6-0.6l-0.7-0.2
					c-0.7-0.1-1.1-0.6-1.1-1.2c0-0.7,0.7-1.4,1.5-1.4c1.2,0,1.6,0.8,1.6,1.2l-0.7,0.3c0-0.2-0.2-0.7-0.9-0.7c-0.4,0-0.7,0.3-0.7,0.6
					c0,0.3,0.2,0.5,0.5,0.5l0.7,0.2c0.8,0.2,1.2,0.6,1.2,1.3c0,0.6-0.5,1.3-1.6,1.3c-1.2,0-1.7-0.8-1.8-1.3L69.1,172.6z"/>
				<path class="st2" d="M73.9,169.7h0.9v0.8h-0.9v2.3c0,0.4,0.2,0.6,0.6,0.6c0.1,0,0.3,0,0.3,0v0.7c-0.1,0-0.3,0.1-0.6,0.1
					c-0.7,0-1.2-0.5-1.2-1.2v-2.4h-0.8v-0.8h0.2c0.5,0,0.7-0.3,0.7-0.7v-0.7h0.8V169.7z"/>
				<path class="st2" d="M81.4,169.7l1.1,3.3l1-3.3h0.9L83,174h-0.9l-1.2-3.3l-1.1,3.3H79l-1.4-4.3h0.9l1,3.3l1.1-3.3H81.4z"/>
				<path class="st2" d="M89.2,171.8c0,1.3-0.9,2.3-2.2,2.3s-2.2-1-2.2-2.3c0-1.3,0.9-2.3,2.2-2.3S89.2,170.5,89.2,171.8z
					 M88.3,171.8c0-1-0.6-1.5-1.4-1.5s-1.4,0.5-1.4,1.5c0,1,0.6,1.5,1.4,1.5S88.3,172.8,88.3,171.8z"/>
				<path class="st2" d="M90.2,174v-4.3H91v0.6c0.3-0.5,0.8-0.7,1.3-0.7c0.5,0,1.1,0.3,1.3,0.8c0.3-0.6,0.9-0.8,1.4-0.8
					c0.8,0,1.5,0.5,1.5,1.6v2.8h-0.8v-2.7c0-0.6-0.3-1-0.9-1c-0.6,0-1,0.5-1,1.1v2.6H93v-2.7c0-0.6-0.3-1-0.9-1c-0.6,0-1,0.5-1,1.1
					v2.6H90.2z"/>
				<path class="st2" d="M98.9,171.5l1.2-0.2c0.3,0,0.3-0.2,0.3-0.3c0-0.4-0.3-0.8-0.9-0.8c-0.6,0-0.9,0.4-1,0.9l-0.8-0.2
					c0.1-0.8,0.8-1.4,1.8-1.4c1.3,0,1.8,0.7,1.8,1.6v2.2c0,0.4,0,0.6,0.1,0.7h-0.8c0-0.1,0-0.3,0-0.6c-0.2,0.3-0.6,0.7-1.4,0.7
					c-0.9,0-1.4-0.6-1.4-1.3C97.6,172.1,98.2,171.6,98.9,171.5z M100.4,172.1v-0.2l-1.3,0.2c-0.4,0.1-0.6,0.3-0.6,0.6
					c0,0.3,0.3,0.6,0.7,0.6C99.9,173.4,100.4,173.1,100.4,172.1z"/>
				<path class="st2" d="M103.4,174h-0.8v-4.3h0.8v0.6c0.3-0.5,0.8-0.7,1.3-0.7c1,0,1.5,0.7,1.5,1.7v2.7h-0.8v-2.6
					c0-0.6-0.3-1.1-1-1.1c-0.7,0-1,0.5-1,1.2V174z"/>
				<path class="st2" d="M110.9,169.7h0.9v0.8h-0.9v2.3c0,0.4,0.2,0.6,0.6,0.6c0.1,0,0.3,0,0.3,0v0.7c-0.1,0-0.3,0.1-0.6,0.1
					c-0.7,0-1.2-0.5-1.2-1.2v-2.4h-0.8v-0.8h0.2c0.5,0,0.7-0.3,0.7-0.7v-0.7h0.8V169.7z"/>
				<path class="st2" d="M116.9,171.8c0,1.3-0.9,2.3-2.2,2.3c-1.3,0-2.2-1-2.2-2.3c0-1.3,0.9-2.3,2.2-2.3
					C116,169.5,116.9,170.5,116.9,171.8z M116.1,171.8c0-1-0.6-1.5-1.4-1.5c-0.7,0-1.3,0.5-1.3,1.5c0,1,0.6,1.5,1.3,1.5
					C115.5,173.4,116.1,172.8,116.1,171.8z"/>
				<path class="st2" d="M123.5,169.7l1.1,3.3l1-3.3h0.9l-1.4,4.3h-0.9l-1.2-3.3l-1.1,3.3H121l-1.4-4.3h0.9l1,3.3l1.1-3.3H123.5z"/>
				<path class="st2" d="M127.7,167.4c0.3,0,0.6,0.3,0.6,0.6c0,0.3-0.3,0.6-0.6,0.6c-0.3,0-0.6-0.3-0.6-0.6
					C127.1,167.7,127.4,167.4,127.7,167.4z M127.3,174v-4.3h0.8v4.3H127.3z"/>
				<path class="st2" d="M130.4,174h-0.8v-4.3h0.8v0.6c0.3-0.5,0.8-0.7,1.3-0.7c1,0,1.5,0.7,1.5,1.7v2.7h-0.8v-2.6
					c0-0.6-0.3-1.1-1-1.1c-0.7,0-1,0.5-1,1.2V174z"/>
				<path class="st2" d="M137.9,169.7h0.9v0.8h-0.9v2.3c0,0.4,0.2,0.6,0.6,0.6c0.1,0,0.3,0,0.3,0v0.7c-0.1,0-0.3,0.1-0.6,0.1
					c-0.7,0-1.2-0.5-1.2-1.2v-2.4h-0.8v-0.8h0.2c0.5,0,0.7-0.3,0.7-0.7v-0.7h0.8V169.7z"/>
				<path class="st2" d="M140.7,174h-0.8v-6.5h0.8v2.7c0.3-0.5,0.8-0.6,1.3-0.6c1,0,1.5,0.7,1.5,1.7v2.7h-0.8v-2.6
					c0-0.6-0.3-1.1-1-1.1c-0.6,0-1,0.5-1,1.1V174z"/>
				<path class="st2" d="M148.7,172.8c-0.2,0.8-0.9,1.4-1.9,1.4c-1.2,0-2.2-0.8-2.2-2.3c0-1.4,1-2.3,2.1-2.3c1.3,0,2.1,0.9,2.1,2.3
					c0,0.1,0,0.2,0,0.3h-3.3c0,0.8,0.6,1.3,1.3,1.3c0.7,0,1.1-0.4,1.2-0.9L148.7,172.8z M147.8,171.4c0-0.6-0.4-1.1-1.2-1.1
					c-0.7,0-1.1,0.5-1.2,1.1H147.8z"/>
				<path class="st2" d="M152.9,171.4v2.6H152v-6.4h2.3c1.2,0,2,0.8,2,1.9c0,1.1-0.8,1.9-2,1.9H152.9z M154.2,170.6
					c0.8,0,1.2-0.4,1.2-1.1c0-0.7-0.5-1.1-1.2-1.1h-1.3v2.2H154.2z"/>
				<path class="st2" d="M159.5,170.5c-0.1,0-0.3,0-0.4,0c-0.7,0-1.2,0.4-1.2,1.3v2.2h-0.8v-4.3h0.8v0.8c0.3-0.7,0.9-0.8,1.3-0.8
					c0.1,0,0.2,0,0.3,0V170.5z"/>
				<path class="st2" d="M160.8,167.4c0.3,0,0.6,0.3,0.6,0.6c0,0.3-0.3,0.6-0.6,0.6c-0.3,0-0.6-0.3-0.6-0.6
					C160.2,167.7,160.5,167.4,160.8,167.4z M160.4,174v-4.3h0.8v4.3H160.4z"/>
				<path class="st2" d="M163.7,169.7h0.9v0.8h-0.9v2.3c0,0.4,0.2,0.6,0.6,0.6c0.1,0,0.3,0,0.3,0v0.7c-0.1,0-0.3,0.1-0.6,0.1
					c-0.7,0-1.2-0.5-1.2-1.2v-2.4h-0.8v-0.8h0.2c0.5,0,0.7-0.3,0.7-0.7v-0.7h0.8V169.7z"/>
				<path class="st2" d="M165.6,174v-0.7l2.4-2.8h-2.3v-0.8h3.4v0.7l-2.4,2.8h2.4v0.8H165.6z"/>
				<path class="st2" d="M172.1,171.5l1.9,2.5h-1.1l-1.4-1.9l-0.6,0.6v1.3h-0.8v-6.5h0.8v4.1l1.9-1.9h1.2L172.1,171.5z"/>
				<path class="st2" d="M178.3,172.8c-0.2,0.8-0.9,1.4-1.9,1.4c-1.2,0-2.2-0.8-2.2-2.3c0-1.4,1-2.3,2.1-2.3c1.3,0,2.1,0.9,2.1,2.3
					c0,0.1,0,0.2,0,0.3h-3.3c0,0.8,0.6,1.3,1.3,1.3c0.7,0,1.1-0.4,1.2-0.9L178.3,172.8z M177.5,171.4c0-0.6-0.4-1.1-1.2-1.1
					c-0.7,0-1.1,0.5-1.2,1.1H177.5z"/>
				<path class="st2" d="M181.8,170.5c-0.1,0-0.3,0-0.4,0c-0.7,0-1.2,0.4-1.2,1.3v2.2h-0.8v-4.3h0.8v0.8c0.3-0.7,0.9-0.8,1.3-0.8
					c0.1,0,0.2,0,0.3,0V170.5z"/>
			</g>
			<g class="st1">
				<path class="st2" d="M11.7,182.4v2.6h-0.9v-6.4h2.3c1.2,0,2,0.8,2,1.9c0,1.1-0.8,1.9-2,1.9H11.7z M13,181.6
					c0.8,0,1.2-0.4,1.2-1.1c0-0.7-0.5-1.1-1.2-1.1h-1.3v2.2H13z"/>
				<path class="st2" d="M18.3,181.5c-0.1,0-0.3,0-0.4,0c-0.7,0-1.2,0.4-1.2,1.3v2.2h-0.8v-4.3h0.8v0.8c0.3-0.7,0.9-0.8,1.3-0.8
					c0.1,0,0.2,0,0.3,0V181.5z"/>
				<path class="st2" d="M19.6,178.4c0.3,0,0.6,0.3,0.6,0.6c0,0.3-0.3,0.6-0.6,0.6c-0.3,0-0.6-0.3-0.6-0.6
					C19,178.7,19.3,178.4,19.6,178.4z M19.2,185v-4.3H20v4.3H19.2z"/>
				<path class="st2" d="M21,185v-0.7l2.4-2.8h-2.3v-0.8h3.4v0.7l-2.4,2.8h2.4v0.8H21z"/>
				<path class="st2" d="M29.3,183.8c-0.2,0.8-0.9,1.4-1.9,1.4c-1.2,0-2.2-0.8-2.2-2.3c0-1.4,1-2.3,2.1-2.3c1.3,0,2.1,0.9,2.1,2.3
					c0,0.1,0,0.2,0,0.3h-3.3c0,0.8,0.6,1.3,1.3,1.3c0.7,0,1.1-0.4,1.2-0.9L29.3,183.8z M28.5,182.4c0-0.6-0.4-1.1-1.2-1.1
					c-0.7,0-1.1,0.5-1.2,1.1H28.5z"/>
				<path class="st2" d="M33,178.4c0.3,0,0.6,0.3,0.6,0.6c0,0.3-0.3,0.6-0.6,0.6c-0.3,0-0.6-0.3-0.6-0.6
					C32.4,178.7,32.7,178.4,33,178.4z M32.6,185v-4.3h0.8v4.3H32.6z"/>
				<path class="st2" d="M35.7,185h-0.8v-4.3h0.8v0.6c0.3-0.5,0.8-0.7,1.3-0.7c1,0,1.5,0.7,1.5,1.7v2.7h-0.8v-2.6
					c0-0.6-0.3-1.1-1-1.1c-0.7,0-1,0.5-1,1.2V185z"/>
				<path class="st2" d="M41.7,181.2c0-0.1,0-0.2,0-0.2c0-1,0.7-1.9,2-1.9c1.3,0,2,0.8,2,1.8c0,0.8-0.4,1.4-1.1,1.8l-1.2,0.7
					c-0.3,0.2-0.6,0.5-0.7,0.8h3v0.8h-4.1c0-1,0.4-1.7,1.4-2.3l1-0.6c0.5-0.4,0.8-0.8,0.8-1.2c0-0.5-0.4-1-1.1-1
					c-0.8,0-1.1,0.5-1.1,1.2c0,0.1,0,0.2,0,0.3L41.7,181.2z"/>
				<path class="st2" d="M47,180c0.4-0.6,1-0.9,1.8-0.9c0.8,0,1.4,0.4,1.8,0.9c0.4,0.6,0.5,1.3,0.5,2.1c0,0.8-0.1,1.5-0.5,2.1
					c-0.4,0.6-1,0.9-1.8,0.9c-0.8,0-1.4-0.4-1.8-0.9c-0.4-0.6-0.5-1.3-0.5-2.1C46.5,181.3,46.6,180.5,47,180z M47.9,184
					c0.2,0.2,0.5,0.4,0.9,0.4s0.7-0.1,0.9-0.4c0.4-0.4,0.5-1,0.5-1.9s-0.2-1.5-0.5-1.9c-0.2-0.2-0.5-0.4-0.9-0.4s-0.7,0.1-0.9,0.4
					c-0.4,0.4-0.5,1-0.5,1.9S47.5,183.6,47.9,184z"/>
				<path class="st2" d="M52.4,180c0.4-0.6,1-0.9,1.8-0.9c0.8,0,1.4,0.4,1.8,0.9c0.4,0.6,0.5,1.3,0.5,2.1c0,0.8-0.1,1.5-0.5,2.1
					c-0.4,0.6-1,0.9-1.8,0.9c-0.8,0-1.4-0.4-1.8-0.9c-0.4-0.6-0.5-1.3-0.5-2.1C51.9,181.3,52.1,180.5,52.4,180z M53.3,184
					c0.2,0.2,0.5,0.4,0.9,0.4s0.7-0.1,0.9-0.4c0.4-0.4,0.5-1,0.5-1.9s-0.2-1.5-0.5-1.9c-0.2-0.2-0.5-0.4-0.9-0.4s-0.7,0.1-0.9,0.4
					c-0.4,0.4-0.5,1-0.5,1.9S53,183.6,53.3,184z"/>
				<path class="st2" d="M57.3,182.7l2.5-3.5H61v3.7h1v0.8h-1v1.3h-0.9v-1.3h-2.9V182.7z M60.1,180l-2.1,2.9h2.1V180z"/>
				<path class="st2" d="M63.4,183.8c0.4,0,0.7,0.3,0.7,0.9c0,1.2-0.8,1.7-1.3,1.8V186c0.4-0.1,0.7-0.5,0.7-1c0,0-0.1,0-0.2,0
					c-0.3,0-0.6-0.2-0.6-0.6C62.7,184.1,63,183.8,63.4,183.8z"/>
				<path class="st2" d="M68,183.6c0.1,0.5,0.4,0.8,1,0.8c0.5,0,0.7-0.3,0.7-0.6c0-0.3-0.2-0.5-0.6-0.6l-0.7-0.2
					c-0.7-0.1-1.1-0.6-1.1-1.2c0-0.7,0.7-1.4,1.5-1.4c1.2,0,1.6,0.8,1.6,1.2l-0.7,0.3c0-0.2-0.2-0.7-0.9-0.7c-0.4,0-0.7,0.3-0.7,0.6
					c0,0.3,0.2,0.5,0.5,0.5l0.7,0.2c0.8,0.2,1.2,0.6,1.2,1.3c0,0.6-0.5,1.3-1.6,1.3c-1.2,0-1.7-0.8-1.8-1.3L68,183.6z"/>
				<path class="st2" d="M72.5,185h-0.8v-6.5h0.8v2.7c0.3-0.5,0.8-0.6,1.3-0.6c1,0,1.5,0.7,1.5,1.7v2.7h-0.8v-2.6
					c0-0.6-0.3-1.1-1-1.1c-0.6,0-1,0.5-1,1.1V185z"/>
				<path class="st2" d="M80.4,183.8c-0.2,0.8-0.9,1.4-1.9,1.4c-1.2,0-2.2-0.8-2.2-2.3c0-1.4,1-2.3,2.1-2.3c1.3,0,2.1,0.9,2.1,2.3
					c0,0.1,0,0.2,0,0.3h-3.3c0,0.8,0.6,1.3,1.3,1.3c0.7,0,1.1-0.4,1.2-0.9L80.4,183.8z M79.6,182.4c0-0.6-0.4-1.1-1.2-1.1
					c-0.7,0-1.1,0.5-1.2,1.1H79.6z"/>
				<path class="st2" d="M87,180.7l1.1,3.3l1-3.3H90l-1.4,4.3h-0.9l-1.2-3.3l-1.1,3.3h-0.9l-1.4-4.3H84l1,3.3l1.1-3.3H87z"/>
				<path class="st2" d="M91.8,182.5l1.2-0.2c0.3,0,0.3-0.2,0.3-0.3c0-0.4-0.3-0.8-0.9-0.8c-0.6,0-0.9,0.4-1,0.9l-0.8-0.2
					c0.1-0.8,0.8-1.4,1.8-1.4c1.3,0,1.8,0.7,1.8,1.6v2.2c0,0.4,0,0.6,0.1,0.7h-0.8c0-0.1,0-0.3,0-0.6c-0.2,0.3-0.6,0.7-1.4,0.7
					c-0.9,0-1.4-0.6-1.4-1.3C90.5,183.1,91,182.6,91.8,182.5z M93.3,183.1v-0.2l-1.3,0.2c-0.4,0.1-0.6,0.3-0.6,0.6
					c0,0.3,0.3,0.6,0.7,0.6C92.7,184.4,93.3,184.1,93.3,183.1z"/>
				<path class="st2" d="M95.7,183.6c0.1,0.5,0.4,0.8,1,0.8c0.5,0,0.7-0.3,0.7-0.6c0-0.3-0.2-0.5-0.6-0.6l-0.7-0.2
					c-0.7-0.1-1.1-0.6-1.1-1.2c0-0.7,0.7-1.4,1.5-1.4c1.2,0,1.6,0.8,1.6,1.2l-0.7,0.3c0-0.2-0.2-0.7-0.9-0.7c-0.4,0-0.7,0.3-0.7,0.6
					c0,0.3,0.2,0.5,0.5,0.5l0.7,0.2c0.8,0.2,1.2,0.6,1.2,1.3c0,0.6-0.5,1.3-1.6,1.3c-1.2,0-1.7-0.8-1.8-1.3L95.7,183.6z"/>
				<path class="st2" d="M102.7,182.5l1.2-0.2c0.3,0,0.3-0.2,0.3-0.3c0-0.4-0.3-0.8-0.9-0.8c-0.6,0-0.9,0.4-1,0.9l-0.8-0.2
					c0.1-0.8,0.8-1.4,1.8-1.4c1.3,0,1.8,0.7,1.8,1.6v2.2c0,0.4,0,0.6,0.1,0.7h-0.8c0-0.1,0-0.3,0-0.6c-0.2,0.3-0.6,0.7-1.4,0.7
					c-0.9,0-1.4-0.6-1.4-1.3C101.3,183.1,101.9,182.6,102.7,182.5z M104.2,183.1v-0.2l-1.3,0.2c-0.4,0.1-0.6,0.3-0.6,0.6
					c0,0.3,0.3,0.6,0.7,0.6C103.6,184.4,104.2,184.1,104.2,183.1z"/>
				<path class="st2" d="M107.1,185h-0.8v-4.3h0.8v0.6c0.3-0.5,0.8-0.7,1.3-0.7c1,0,1.5,0.7,1.5,1.7v2.7h-0.8v-2.6
					c0-0.6-0.3-1.1-1-1.1c-0.7,0-1,0.5-1,1.2V185z"/>
				<path class="st2" d="M114.3,184.3c-0.2,0.4-0.7,0.8-1.3,0.8c-1.3,0-2.1-1-2.1-2.3c0-1.2,0.8-2.3,2.1-2.3c0.8,0,1.2,0.4,1.3,0.7
					v-2.8h0.8v5.7c0,0.4,0,0.7,0,0.8h-0.8C114.3,184.9,114.3,184.7,114.3,184.3L114.3,184.3z M113.1,184.4c0.8,0,1.3-0.7,1.3-1.6
					c0-0.9-0.5-1.5-1.2-1.5c-0.8,0-1.3,0.6-1.3,1.5S112.2,184.4,113.1,184.4z"/>
				<path class="st2" d="M122.1,180.7l1.1,3.3l1-3.3h0.9l-1.4,4.3h-0.9l-1.2-3.3l-1.1,3.3h-0.9l-1.4-4.3h0.9l1,3.3l1.1-3.3H122.1z"
					/>
				<path class="st2" d="M126.2,178.4c0.3,0,0.6,0.3,0.6,0.6c0,0.3-0.3,0.6-0.6,0.6c-0.3,0-0.6-0.3-0.6-0.6
					C125.6,178.7,125.9,178.4,126.2,178.4z M125.8,185v-4.3h0.8v4.3H125.8z"/>
				<path class="st2" d="M128.1,185v-6.5h0.8v6.5H128.1z"/>
				<path class="st2" d="M130.3,185v-6.5h0.8v6.5H130.3z"/>
				<path class="st2" d="M137.2,181.5c-0.1,0-0.3,0-0.4,0c-0.7,0-1.2,0.4-1.2,1.3v2.2h-0.8v-4.3h0.8v0.8c0.3-0.7,0.9-0.8,1.3-0.8
					c0.1,0,0.2,0,0.3,0V181.5z"/>
				<path class="st2" d="M141.7,183.8c-0.2,0.8-0.9,1.4-1.9,1.4c-1.2,0-2.2-0.8-2.2-2.3c0-1.4,1-2.3,2.1-2.3c1.3,0,2.1,0.9,2.1,2.3
					c0,0.1,0,0.2,0,0.3h-3.3c0,0.8,0.6,1.3,1.3,1.3c0.7,0,1.1-0.4,1.2-0.9L141.7,183.8z M140.9,182.4c0-0.6-0.4-1.1-1.2-1.1
					c-0.7,0-1.1,0.5-1.2,1.1H140.9z"/>
				<path class="st2" d="M142.8,185v-4.3h0.8v0.6c0.3-0.5,0.8-0.7,1.3-0.7c0.5,0,1.1,0.3,1.3,0.8c0.3-0.6,0.9-0.8,1.4-0.8
					c0.8,0,1.5,0.5,1.5,1.6v2.8h-0.8v-2.7c0-0.6-0.3-1-0.9-1c-0.6,0-1,0.5-1,1.1v2.6h-0.8v-2.7c0-0.6-0.3-1-0.9-1
					c-0.6,0-1,0.5-1,1.1v2.6H142.8z"/>
				<path class="st2" d="M151.5,182.5l1.2-0.2c0.3,0,0.3-0.2,0.3-0.3c0-0.4-0.3-0.8-0.9-0.8c-0.6,0-0.9,0.4-1,0.9l-0.8-0.2
					c0.1-0.8,0.8-1.4,1.8-1.4c1.3,0,1.8,0.7,1.8,1.6v2.2c0,0.4,0,0.6,0.1,0.7h-0.8c0-0.1,0-0.3,0-0.6c-0.2,0.3-0.6,0.7-1.4,0.7
					c-0.9,0-1.4-0.6-1.4-1.3C150.2,183.1,150.8,182.6,151.5,182.5z M153,183.1v-0.2l-1.3,0.2c-0.4,0.1-0.6,0.3-0.6,0.6
					c0,0.3,0.3,0.6,0.7,0.6C152.5,184.4,153,184.1,153,183.1z"/>
				<path class="st2" d="M155.5,178.4c0.3,0,0.6,0.3,0.6,0.6c0,0.3-0.3,0.6-0.6,0.6c-0.3,0-0.6-0.3-0.6-0.6
					C154.9,178.7,155.2,178.4,155.5,178.4z M155.1,185v-4.3h0.8v4.3H155.1z"/>
				<path class="st2" d="M158.2,185h-0.8v-4.3h0.8v0.6c0.3-0.5,0.8-0.7,1.3-0.7c1,0,1.5,0.7,1.5,1.7v2.7h-0.8v-2.6
					c0-0.6-0.3-1.1-1-1.1c-0.7,0-1,0.5-1,1.2V185z"/>
				<path class="st2" d="M165.6,182.5l1.2-0.2c0.3,0,0.3-0.2,0.3-0.3c0-0.4-0.3-0.8-0.9-0.8c-0.6,0-0.9,0.4-1,0.9l-0.8-0.2
					c0.1-0.8,0.8-1.4,1.8-1.4c1.3,0,1.8,0.7,1.8,1.6v2.2c0,0.4,0,0.6,0.1,0.7h-0.8c0-0.1,0-0.3,0-0.6c-0.2,0.3-0.6,0.7-1.4,0.7
					c-0.9,0-1.4-0.6-1.4-1.3C164.3,183.1,164.9,182.6,165.6,182.5z M167.1,183.1v-0.2l-1.3,0.2c-0.4,0.1-0.6,0.3-0.6,0.6
					c0,0.3,0.3,0.6,0.7,0.6C166.6,184.4,167.1,184.1,167.1,183.1z"/>
			</g>
			<g class="st1">
				<path class="st2" d="M10.7,197.7v-6h0.8v0.7c0.2-0.4,0.7-0.8,1.4-0.8c1.3,0,2,1,2,2.3c0,1.3-0.7,2.3-2,2.3
					c-0.7,0-1.2-0.3-1.4-0.7v2.3H10.7z M12.8,192.3c-0.8,0-1.3,0.6-1.3,1.5c0,0.9,0.5,1.5,1.3,1.5c0.8,0,1.3-0.6,1.3-1.5
					C14.1,193,13.6,192.3,12.8,192.3z"/>
				<path class="st2" d="M16.4,189.4c0.3,0,0.6,0.3,0.6,0.6c0,0.3-0.3,0.6-0.6,0.6c-0.3,0-0.6-0.3-0.6-0.6
					C15.8,189.7,16.1,189.4,16.4,189.4z M16,196v-4.3h0.8v4.3H16z"/>
				<path class="st2" d="M22.3,193.8c0,1.3-0.9,2.3-2.2,2.3s-2.2-1-2.2-2.3c0-1.3,0.9-2.3,2.2-2.3S22.3,192.5,22.3,193.8z
					 M21.4,193.8c0-1-0.6-1.5-1.4-1.5s-1.4,0.5-1.4,1.5c0,1,0.6,1.5,1.4,1.5S21.4,194.8,21.4,193.8z"/>
				<path class="st2" d="M24.2,196h-0.8v-4.3h0.8v0.6c0.3-0.5,0.8-0.7,1.3-0.7c1,0,1.5,0.7,1.5,1.7v2.7h-0.8v-2.6
					c0-0.6-0.3-1.1-1-1.1c-0.7,0-1,0.5-1,1.2V196z"/>
				<path class="st2" d="M32.1,194.8c-0.2,0.8-0.9,1.4-1.9,1.4c-1.2,0-2.2-0.8-2.2-2.3c0-1.4,1-2.3,2.1-2.3c1.3,0,2.1,0.9,2.1,2.3
					c0,0.1,0,0.2,0,0.3h-3.3c0,0.8,0.6,1.3,1.3,1.3c0.7,0,1.1-0.4,1.2-0.9L32.1,194.8z M31.3,193.4c0-0.6-0.4-1.1-1.2-1.1
					c-0.7,0-1.1,0.5-1.2,1.1H31.3z"/>
				<path class="st2" d="M37,194.8c-0.2,0.8-0.9,1.4-1.9,1.4c-1.2,0-2.2-0.8-2.2-2.3c0-1.4,1-2.3,2.1-2.3c1.3,0,2.1,0.9,2.1,2.3
					c0,0.1,0,0.2,0,0.3h-3.3c0,0.8,0.6,1.3,1.3,1.3c0.7,0,1.1-0.4,1.2-0.9L37,194.8z M36.1,193.4c0-0.6-0.4-1.1-1.2-1.1
					c-0.7,0-1.1,0.5-1.2,1.1H36.1z"/>
				<path class="st2" d="M40.4,192.5c-0.1,0-0.3,0-0.4,0c-0.7,0-1.2,0.4-1.2,1.3v2.2H38v-4.3h0.8v0.8c0.3-0.7,0.9-0.8,1.3-0.8
					c0.1,0,0.2,0,0.3,0V192.5z"/>
				<path class="st2" d="M43.9,189.4c0.3,0,0.6,0.3,0.6,0.6c0,0.3-0.3,0.6-0.6,0.6c-0.3,0-0.6-0.3-0.6-0.6
					C43.3,189.7,43.6,189.4,43.9,189.4z M43.5,196v-4.3h0.8v4.3H43.5z"/>
				<path class="st2" d="M46.6,196h-0.8v-4.3h0.8v0.6c0.3-0.5,0.8-0.7,1.3-0.7c1,0,1.5,0.7,1.5,1.7v2.7h-0.8v-2.6
					c0-0.6-0.3-1.1-1-1.1c-0.7,0-1,0.5-1,1.2V196z"/>
				<path class="st2" d="M56.8,194.2h-2.8l-0.7,1.8h-0.9l2.5-6.4h1l2.5,6.4h-1L56.8,194.2z M54.2,193.4h2.2l-1.1-2.9L54.2,193.4z"/>
				<path class="st2" d="M61.5,192.5c-0.1,0-0.3,0-0.4,0c-0.7,0-1.2,0.4-1.2,1.3v2.2h-0.8v-4.3h0.8v0.8c0.3-0.7,0.9-0.8,1.3-0.8
					c0.1,0,0.2,0,0.3,0V192.5z"/>
				<path class="st2" d="M62.8,193.8c0,1,0.6,1.5,1.3,1.5c0.8,0,1.1-0.5,1.2-0.9l0.7,0.3c-0.2,0.6-0.8,1.4-2,1.4
					c-1.3,0-2.2-1-2.2-2.3c0-1.4,0.9-2.3,2.2-2.3c1.2,0,1.7,0.7,1.9,1.4l-0.8,0.3c-0.1-0.4-0.4-0.9-1.2-0.9
					C63.5,192.3,62.8,192.8,62.8,193.8z"/>
				<path class="st2" d="M67.9,196h-0.8v-6.5h0.8v2.7c0.3-0.5,0.8-0.6,1.3-0.6c1,0,1.5,0.7,1.5,1.7v2.7h-0.8v-2.6
					c0-0.6-0.3-1.1-1-1.1c-0.6,0-1,0.5-1,1.1V196z"/>
				<path class="st2" d="M72.5,189.4c0.3,0,0.6,0.3,0.6,0.6c0,0.3-0.3,0.6-0.6,0.6c-0.3,0-0.6-0.3-0.6-0.6
					C71.9,189.7,72.2,189.4,72.5,189.4z M72.1,196v-4.3h0.8v4.3H72.1z"/>
				<path class="st2" d="M75.4,191.7h0.9v0.8h-0.9v2.3c0,0.4,0.2,0.6,0.6,0.6c0.1,0,0.3,0,0.3,0v0.7c-0.1,0-0.3,0.1-0.6,0.1
					c-0.7,0-1.2-0.5-1.2-1.2v-2.4h-0.8v-0.8H74c0.5,0,0.7-0.3,0.7-0.7v-0.7h0.8V191.7z"/>
				<path class="st2" d="M81.2,194.8c-0.2,0.8-0.9,1.4-1.9,1.4c-1.2,0-2.2-0.8-2.2-2.3c0-1.4,1-2.3,2.1-2.3c1.3,0,2.1,0.9,2.1,2.3
					c0,0.1,0,0.2,0,0.3h-3.3c0,0.8,0.6,1.3,1.3,1.3c0.7,0,1.1-0.4,1.2-0.9L81.2,194.8z M80.3,193.4c0-0.6-0.4-1.1-1.2-1.1
					c-0.7,0-1.1,0.5-1.2,1.1H80.3z"/>
				<path class="st2" d="M82.7,193.8c0,1,0.6,1.5,1.3,1.5c0.8,0,1.1-0.5,1.2-0.9l0.7,0.3c-0.2,0.6-0.8,1.4-2,1.4
					c-1.3,0-2.2-1-2.2-2.3c0-1.4,0.9-2.3,2.2-2.3c1.2,0,1.7,0.7,1.9,1.4l-0.8,0.3c-0.1-0.4-0.4-0.9-1.2-0.9
					C83.4,192.3,82.7,192.8,82.7,193.8z"/>
				<path class="st2" d="M88.1,191.7H89v0.8h-0.9v2.3c0,0.4,0.2,0.6,0.6,0.6c0.1,0,0.3,0,0.3,0v0.7c-0.1,0-0.3,0.1-0.6,0.1
					c-0.7,0-1.2-0.5-1.2-1.2v-2.4h-0.8v-0.8h0.2c0.5,0,0.7-0.3,0.7-0.7v-0.7h0.8V191.7z"/>
				<path class="st2" d="M91.7,196.1c-1,0-1.6-0.8-1.6-1.7v-2.7h0.8v2.6c0,0.6,0.3,1.1,1,1.1c0.7,0,1-0.5,1-1.1v-2.6h0.8v3.5
					c0,0.3,0,0.6,0,0.8H93c0-0.1,0-0.3,0-0.5C92.7,195.9,92.2,196.1,91.7,196.1z"/>
				<path class="st2" d="M97.6,192.5c-0.1,0-0.3,0-0.4,0c-0.7,0-1.2,0.4-1.2,1.3v2.2h-0.8v-4.3H96v0.8c0.3-0.7,0.9-0.8,1.3-0.8
					c0.1,0,0.2,0,0.3,0V192.5z"/>
				<path class="st2" d="M102.2,194.8c-0.2,0.8-0.9,1.4-1.9,1.4c-1.2,0-2.2-0.8-2.2-2.3c0-1.4,1-2.3,2.1-2.3c1.3,0,2.1,0.9,2.1,2.3
					c0,0.1,0,0.2,0,0.3h-3.3c0,0.8,0.6,1.3,1.3,1.3c0.7,0,1.1-0.4,1.2-0.9L102.2,194.8z M101.3,193.4c0-0.6-0.4-1.1-1.2-1.1
					c-0.7,0-1.1,0.5-1.2,1.1H101.3z"/>
				<path class="st2" d="M106.3,196h-0.8v-6.5h0.8v2.7c0.3-0.5,0.8-0.6,1.3-0.6c1,0,1.5,0.7,1.5,1.7v2.7h-0.8v-2.6
					c0-0.6-0.3-1.1-1-1.1c-0.6,0-1,0.5-1,1.1V196z"/>
				<path class="st2" d="M110.8,189.4c0.3,0,0.6,0.3,0.6,0.6c0,0.3-0.3,0.6-0.6,0.6c-0.3,0-0.6-0.3-0.6-0.6
					C110.2,189.7,110.5,189.4,110.8,189.4z M110.4,196v-4.3h0.8v4.3H110.4z"/>
				<path class="st2" d="M113,194.6c0.1,0.5,0.4,0.8,1,0.8c0.5,0,0.7-0.3,0.7-0.6c0-0.3-0.2-0.5-0.6-0.6l-0.7-0.2
					c-0.7-0.1-1.1-0.6-1.1-1.2c0-0.7,0.7-1.4,1.5-1.4c1.2,0,1.6,0.8,1.6,1.2l-0.7,0.3c0-0.2-0.2-0.7-0.9-0.7c-0.4,0-0.7,0.3-0.7,0.6
					c0,0.3,0.2,0.5,0.5,0.5l0.7,0.2c0.8,0.2,1.2,0.6,1.2,1.3c0,0.6-0.5,1.3-1.6,1.3c-1.2,0-1.7-0.8-1.8-1.3L113,194.6z"/>
				<path class="st2" d="M117.8,191.7h0.9v0.8h-0.9v2.3c0,0.4,0.2,0.6,0.6,0.6c0.1,0,0.3,0,0.3,0v0.7c-0.1,0-0.3,0.1-0.6,0.1
					c-0.7,0-1.2-0.5-1.2-1.2v-2.4h-0.8v-0.8h0.2c0.5,0,0.7-0.3,0.7-0.7v-0.7h0.8V191.7z"/>
				<path class="st2" d="M123.9,193.8c0,1.3-0.9,2.3-2.2,2.3s-2.2-1-2.2-2.3c0-1.3,0.9-2.3,2.2-2.3S123.9,192.5,123.9,193.8z
					 M123,193.8c0-1-0.6-1.5-1.4-1.5s-1.4,0.5-1.4,1.5c0,1,0.6,1.5,1.4,1.5S123,194.8,123,193.8z"/>
				<path class="st2" d="M127.3,192.5c-0.1,0-0.3,0-0.4,0c-0.7,0-1.2,0.4-1.2,1.3v2.2h-0.8v-4.3h0.8v0.8c0.3-0.7,0.9-0.8,1.3-0.8
					c0.1,0,0.2,0,0.3,0V192.5z"/>
				<path class="st2" d="M128.4,197.8l1.1-2.3l-1.9-3.9h1l1.3,3l1.3-3h0.9l-2.8,6.1H128.4z"/>
				<path class="st2" d="M132.5,194.8c0.4,0,0.6,0.3,0.6,0.6s-0.3,0.6-0.6,0.6s-0.6-0.3-0.6-0.6S132.1,194.8,132.5,194.8z"/>
			</g>
		</g>
	</g>
</g>
</svg>
